<?xml version="1.0" standalone="no"?>
<!DOCTYPE svg PUBLIC "-//W3C//DTD SVG 1.1//EN" "http://www.w3.org/Graphics/SVG/1.1/DTD/svg11.dtd" >
<svg>
<metadata>
Created by FontForge 20090622 at Mon Oct 23 14:21:52 2017
 By deploy user
Copyright &#194;&#169; 2013 Monotype GmbH. All rights reserved.
</metadata>
<defs>
<font id="AvenirLTStd-LightOblique" horiz-adv-x="240" >
  <font-face 
    font-family="Avenir LT Std 35 Light"
    font-weight="300"
    font-style="oblique"
    font-stretch="normal"
    units-per-em="1000"
    panose-1="2 11 4 2 2 2 3 2 2 4"
    ascent="756"
    descent="-244"
    x-height="462"
    cap-height="708"
    bbox="-167 -277 1039 932"
    underline-thickness="50"
    underline-position="-50"
    slope="-8"
    unicode-range="U+000D-U+FB02"
  />
<missing-glyph horiz-adv-x="512" 
d="M222 117v67h56v-67h-56zM259 609q55 0 89.5 -36t34.5 -95q0 -35 -13.5 -61.5t-49.5 -58.5q-36 -31 -42 -50q-7 -18 -7 -74h-46l-2 19q0 55 16 84q15 26 56 67q37 34 37 71q0 34 -22.5 59t-53.5 25q-71 0 -82 -95l-50 8q6 69 42.5 103t92.5 34zM50 50h412v617h-412v-617z
M0 718h512v-718h-512v718z" />
    <glyph glyph-name="fi" unicode="fi" horiz-adv-x="519" 
d="M360 768q42 0 67 -12l-19 -52q-19 10 -53 10q-81 0 -98 -122l-18 -130h108l-8 -54h-108l-57 -408h-60l57 408h-96l8 54h96l21 152q10 76 56.5 115t103.5 39zM369 0l65 462h60l-65 -462h-60zM496 690q18 0 28.5 -11.5t10.5 -28.5q0 -19 -15.5 -34.5t-36.5 -15.5
q-18 0 -28.5 11.5t-10.5 26.5q0 21 15.5 36.5t36.5 15.5z" />
    <glyph glyph-name="fl" unicode="fl" horiz-adv-x="519" 
d="M360 768q42 0 67 -12l-19 -52q-19 10 -53 10q-81 0 -98 -122l-18 -130h108l-8 -54h-108l-57 -408h-60l57 408h-96l8 54h96l21 152q10 76 56.5 115t103.5 39zM369 0l106 756h60l-106 -756h-60z" />
    <glyph glyph-name=".notdef" horiz-adv-x="512" 
d="M222 117v67h56v-67h-56zM259 609q55 0 89.5 -36t34.5 -95q0 -35 -13.5 -61.5t-49.5 -58.5q-36 -31 -42 -50q-7 -18 -7 -74h-46l-2 19q0 55 16 84q15 26 56 67q37 34 37 71q0 34 -22.5 59t-53.5 25q-71 0 -82 -95l-50 8q6 69 42.5 103t92.5 34zM50 50h412v617h-412v-617z
M0 718h512v-718h-512v718z" />
    <glyph glyph-name=".null" horiz-adv-x="0" 
 />
    <glyph glyph-name=".null" horiz-adv-x="0" 
 />
    <glyph glyph-name="nonmarkingreturn" horiz-adv-x="333" 
 />
    <glyph glyph-name="CR" unicode="&#xd;" horiz-adv-x="260" 
 />
    <glyph glyph-name="space" unicode=" " horiz-adv-x="260" 
 />
    <glyph glyph-name="exclam" unicode="!" horiz-adv-x="370" 
d="M198 90q20 0 31 -11.5t11 -27.5q0 -23 -16.5 -40t-39.5 -17q-19 0 -30 11.5t-11 28.5q0 23 16 39.5t39 16.5zM181 186l74 522h60l-74 -522h-60z" />
    <glyph glyph-name="quotedbl" unicode="&#x22;" horiz-adv-x="520" 
d="M366 480l33 228h60l-33 -228h-60zM228 480l33 228h60l-33 -228h-60z" />
    <glyph glyph-name="numbersign" unicode="#" horiz-adv-x="520" 
d="M263 433l-43 -156h138l43 156h-138zM225 481l62 227h52l-63 -227h139l63 227h52l-63 -227h108l-7 -48h-115l-43 -156h108l-7 -48h-115l-62 -229h-52l62 229h-139l-62 -229h-52l62 229h-108l7 48h115l44 156h-108l7 48h115z" />
    <glyph glyph-name="dollar" unicode="$" horiz-adv-x="520" 
d="M325 314l-38 -272q63 2 108 51t45 108q0 47 -29 70t-86 43zM186 509q0 -39 23 -64.5t80 -44.5l38 266q-63 -11 -102 -55.5t-39 -101.5zM334 720l10 67h48l-10 -67q123 0 173 -89l-61 -40q-17 35 -49.5 55t-69.5 20l-40 -282q91 -31 114 -50q57 -45 57 -121
q0 -92 -65 -154.5t-162 -70.5l-9 -67h-48l9 67q-59 0 -110.5 29.5t-74.5 75.5l63 39q18 -40 52.5 -64t77.5 -26l41 290l-31.5 12t-30 11.5t-22.5 10t-23.5 14t-17.5 16.5q-36 43 -36 104q0 84 64.5 146.5t150.5 73.5z" />
    <glyph glyph-name="percent" unicode="%" horiz-adv-x="815" 
d="M168 531q0 -44 29 -72.5t73 -28.5q54 0 95 41t41 94q0 44 -29 72.5t-74 28.5q-54 0 -94.5 -40.5t-40.5 -94.5zM311 720q63 0 106.5 -42.5t43.5 -105.5q0 -77 -60.5 -136.5t-137.5 -59.5q-65 0 -107.5 42.5t-42.5 105.5q0 77 60.5 136.5t137.5 59.5zM157 -6l561 748
l42 -28l-562 -748zM508 143q0 -44 29 -72.5t73 -28.5q56 0 96 40.5t40 94.5q0 44 -28.5 72.5t-74.5 28.5q-53 0 -94 -40.5t-41 -94.5zM651 332q65 0 107.5 -42t42.5 -106q0 -77 -60.5 -136.5t-137.5 -59.5q-65 0 -107.5 42.5t-42.5 105.5q0 77 60.5 136.5t137.5 59.5z" />
    <glyph glyph-name="ampersand" unicode="&#x26;" horiz-adv-x="704" 
d="M150 167q0 -55 39 -90t102 -35q98 0 185 109l-167 204l-42 -24t-40.5 -28t-39.5 -36.5t-25.5 -44t-11.5 -55.5zM280 553q0 -42 57 -124q77 38 114 71.5t37 85.5q0 36 -23.5 58t-63.5 22q-48 0 -84.5 -33.5t-36.5 -79.5zM415 726q60 0 100.5 -37t40.5 -91
q0 -72 -49.5 -120.5t-136.5 -89.5l146 -182l128 184h68l-160 -226l137 -169h-89l-90 114q-60 -67 -116.5 -97t-121.5 -30q-84 0 -136.5 47.5t-52.5 125.5q0 22 4 42t8.5 35.5t17 32.5t19 27t25.5 25.5l26 21.5t31 21t30 18t33 19q-39 58 -51.5 88.5t-12.5 60.5
q0 76 60.5 128t141.5 52z" />
    <glyph glyph-name="quotesingle" unicode="'" horiz-adv-x="260" 
d="M167 480l33 228h60l-33 -228h-60z" />
    <glyph glyph-name="parenleft" unicode="(" horiz-adv-x="260" 
d="M300 732l46 -32q-87 -90 -141 -235t-54 -275q0 -147 79 -316l-51 -30q-88 151 -88 342q0 140 57.5 289t151.5 257z" />
    <glyph glyph-name="parenright" unicode=")" horiz-adv-x="260" 
d="M41 -156l-46 32q87 90 141 235t54 275q0 147 -79 316l51 30q88 -151 88 -342q0 -140 -57.5 -289t-151.5 -257z" />
    <glyph glyph-name="asterisk" unicode="*" horiz-adv-x="444" 
d="M277 556l22 152h48l-22 -152l151 48l8 -48l-150 -47l73 -122l-41 -29l-76 125l-107 -125l-36 29l109 122l-139 50l20 45z" />
    <glyph glyph-name="plus" unicode="+" horiz-adv-x="666" 
d="M355 327l32 231h48l-32 -231h231l-7 -48h-231l-32 -231h-48l32 231h-231l7 48h231z" />
    <glyph glyph-name="comma" unicode="," horiz-adv-x="260" 
d="M129 90h70l-109 -228h-59z" />
    <glyph glyph-name="hyphen" unicode="-" horiz-adv-x="333" 
d="M80 264h247l-7 -54h-247z" />
    <glyph glyph-name="period" unicode="." horiz-adv-x="260" 
d="M143 90q19 0 30.5 -11.5t11.5 -27.5q0 -23 -16.5 -40t-39.5 -17q-19 0 -30 11.5t-11 28.5q0 23 16 39.5t39 16.5z" />
    <glyph glyph-name="slash" unicode="/" horiz-adv-x="370" 
d="M6 -18l412 762l49 -18l-410 -762z" />
    <glyph glyph-name="zero" unicode="0" horiz-adv-x="520" 
d="M133 247q0 -205 133 -205q51 0 91 31.5t63.5 78.5t39 106.5t21 109.5t5.5 94q0 204 -133 204q-62 0 -108.5 -47.5t-69 -119.5t-32.5 -135.5t-10 -116.5zM361 720q191 0 191 -254q0 -48 -6.5 -103t-26 -124t-50 -123t-85.5 -91t-126 -37q-91 0 -141 61t-50 182
q0 54 6.5 111t26.5 127.5t50.5 124t85.5 90t125 36.5z" />
    <glyph glyph-name="one" unicode="1" horiz-adv-x="520" 
d="M174 565l196 143h51l-100 -708h-60l88 624h-1l-143 -105z" />
    <glyph glyph-name="two" unicode="2" horiz-adv-x="520" 
d="M371 720q80 0 130.5 -43t50.5 -109q0 -118 -132 -239l-305 -275h372l-8 -54h-438l10 70l330 304q104 96 104 183q0 49 -34 79t-90 30q-54 0 -97 -32t-62 -84l-69 7q27 78 90 120.5t148 42.5z" />
    <glyph glyph-name="three" unicode="3" horiz-adv-x="520" 
d="M358 720q79 0 126.5 -40t47.5 -109q0 -72 -41 -125.5t-110 -71.5l-1 -2q60 -12 94 -54t34 -102q0 -40 -15.5 -79t-45 -73t-79 -55t-110.5 -21q-166 0 -199 139l68 21q13 -57 46 -81.5t93 -24.5q79 0 127.5 53t48.5 123q0 56 -44.5 90t-129.5 34h-20l9 60h24
q86 0 135 43.5t49 115.5q0 45 -31 75t-83 30q-91 0 -146 -83l-53 32q73 105 206 105z" />
    <glyph glyph-name="four" unicode="4" horiz-adv-x="520" 
d="M419 642h-2l-308 -414h252zM406 708h83l-68 -480h108l-8 -54h-108l-24 -174h-60l24 174h-306l10 71z" />
    <glyph glyph-name="five" unicode="5" horiz-adv-x="520" 
d="M201 708h350l-8 -54h-292l-35 -225q44 20 105 20q86 0 138.5 -54t52.5 -141q0 -118 -79.5 -192t-183.5 -74q-147 0 -193 120l67 31q14 -42 51.5 -69.5t83.5 -27.5q68 0 127.5 56t59.5 139q0 69 -43.5 113.5t-110.5 44.5q-72 0 -147 -48z" />
    <glyph glyph-name="six" unicode="6" horiz-adv-x="520" 
d="M121 179q0 -64 40.5 -100.5t109.5 -36.5q78 0 132 57.5t54 132.5q0 60 -41 101t-104 41q-71 0 -131 -55t-60 -140zM385 708h76l-237 -312h2q40 30 109 30q83 0 135.5 -51.5t52.5 -132.5q0 -110 -78 -182t-187 -72q-90 0 -146.5 52t-56.5 134q0 54 21 100t76 120z" />
    <glyph glyph-name="seven" unicode="7" horiz-adv-x="520" 
d="M141 708h402l-8 -54l-374 -654h-67l379 654h-340z" />
    <glyph glyph-name="eight" unicode="8" horiz-adv-x="520" 
d="M133 172q0 -59 37 -94.5t96 -35.5q74 0 125.5 53.5t51.5 126.5q0 58 -37.5 94t-96.5 36q-73 0 -124.5 -53t-51.5 -127zM206 516q0 -49 31 -79.5t80 -30.5q62 0 105 45.5t43 107.5q0 47 -31 77t-81 30q-60 0 -103.5 -43.5t-43.5 -106.5zM361 720q77 0 123.5 -43t46.5 -112
q0 -63 -39.5 -116.5t-97.5 -68.5v-1q54 -12 84.5 -52t30.5 -99q0 -102 -73 -171t-178 -69q-85 0 -138 48.5t-53 126.5q0 81 46.5 141t118.5 75v1q-42 12 -67 49t-25 85q0 86 66 146t155 60z" />
    <glyph glyph-name="nine" unicode="9" horiz-adv-x="520" 
d="M498 529q0 63 -40 100t-104 37q-83 0 -137.5 -57t-54.5 -133q0 -60 41 -101t104 -41q76 0 133.5 58t57.5 137zM235 0h-76l237 312h-3q-40 -30 -109 -30q-83 0 -135.5 51.5t-52.5 132.5q0 108 78 181t187 73q90 0 146.5 -52t56.5 -134q0 -54 -21.5 -101.5t-73.5 -116.5z
" />
    <glyph glyph-name="colon" unicode=":" horiz-adv-x="260" 
d="M143 90q19 0 30.5 -11.5t11.5 -28.5q0 -23 -16.5 -39.5t-39.5 -16.5q-19 0 -30.5 11.5t-11.5 28.5q0 23 16.5 39.5t39.5 16.5zM196 468q19 0 30.5 -12t11.5 -28q0 -23 -16.5 -39.5t-39.5 -16.5q-19 0 -30 11.5t-11 28.5q0 24 16.5 40t38.5 16z" />
    <glyph glyph-name="semicolon" unicode=";" horiz-adv-x="260" 
d="M129 90h70l-109 -228h-59zM196 468q19 0 30.5 -12t11.5 -28q0 -23 -16.5 -39.5t-39.5 -16.5q-19 0 -30 11.5t-11 28.5q0 24 16.5 40t38.5 16z" />
    <glyph glyph-name="less" unicode="&#x3c;" horiz-adv-x="666" 
d="M128 327l535 234l-7 -50l-477 -208l418 -208l-7 -50l-469 234z" />
    <glyph glyph-name="equal" unicode="=" horiz-adv-x="666" 
d="M114 255h510l-7 -48h-510zM134 399h510l-7 -48h-510z" />
    <glyph glyph-name="greater" unicode="&#x3e;" horiz-adv-x="666" 
d="M161 561l469 -234l-6 -48l-536 -234l7 50l478 208l-419 208z" />
    <glyph glyph-name="question" unicode="?" horiz-adv-x="463" 
d="M248 90q19 0 30.5 -11.5t11.5 -28.5q0 -22 -17 -39t-39 -17q-19 0 -30.5 11.5t-11.5 28.5q0 23 16.5 39.5t39.5 16.5zM344 726q75 0 118.5 -38.5t43.5 -104.5q0 -110 -109 -194q-89 -68 -98 -138l-9 -65h-60q10 73 10 75q6 37 21.5 65.5t30.5 43t49 42.5q50 42 73.5 78.5
t23.5 81.5q0 48 -26.5 74t-74.5 26q-50 0 -90 -32t-57 -84l-64 8q23 74 82.5 118t135.5 44z" />
    <glyph glyph-name="at" unicode="@" horiz-adv-x="800" 
d="M292 263q0 -36 19 -57t53 -21q69 0 136 86.5t67 167.5q0 75 -69 75q-52 0 -102 -47t-77 -104.5t-27 -99.5zM516 726q126 0 214.5 -70t88.5 -190q0 -79 -41.5 -157.5t-107 -128t-130.5 -49.5q-23 0 -38 14t-15 34q0 4 0.5 9t0.5 10h-2q-26 -28 -65.5 -47.5t-73.5 -19.5
q-55 0 -85.5 32.5t-30.5 88.5q0 44 20.5 97.5t55 103t88.5 82.5t114 33q83 0 95 -83h2l33 64h60l-132 -277q-24 -51 -24 -67q0 -20 23 -20q38 0 84.5 42t80 107.5t33.5 124.5q0 99 -75 159t-178 60q-144 0 -255 -112t-111 -257q0 -119 78 -199t199 -80q72 0 150 37.5
t123 94.5h58q-52 -79 -146.5 -129.5t-191.5 -50.5q-142 0 -233.5 88t-91.5 228q0 114 58.5 213t157 157t210.5 58z" />
    <glyph glyph-name="A" unicode="A" horiz-adv-x="685" 
d="M434 636l-219 -388h325zM414 708h68l198 -708h-74l-51 188h-375l-106 -188h-69z" />
    <glyph glyph-name="B" unicode="B" horiz-adv-x="630" 
d="M376 342h-165l-40 -282h155q91 0 144.5 43.5t53.5 117.5q0 56 -41.5 88.5t-106.5 32.5zM254 648l-34 -246h141q81 0 129 38t48 106q0 102 -134 102h-150zM197 708h209q199 0 199 -147q0 -76 -39.5 -124.5t-110.5 -62.5l-1 -2h1q61 -5 98 -43.5t37 -100.5
q0 -104 -73.5 -166t-188.5 -62h-231z" />
    <glyph glyph-name="C" unicode="C" horiz-adv-x="704" 
d="M519 726q156 0 228 -111l-60 -45q-24 45 -70.5 70.5t-105.5 25.5q-150 0 -249 -107.5t-99 -258.5q0 -117 71 -187.5t188 -70.5q62 0 125 30t100 80l49 -41q-111 -129 -282 -129q-137 0 -227.5 82t-90.5 227q0 183 122 309t301 126z" />
    <glyph glyph-name="D" unicode="D" horiz-adv-x="741" 
d="M381 648h-136l-83 -588h131q181 0 283 97t102 253q0 108 -76.5 173t-220.5 65zM188 708h215q167 0 253.5 -77.5t86.5 -225.5q0 -54 -15 -109t-49 -108.5t-83 -95t-124 -67t-166 -25.5h-218z" />
    <glyph glyph-name="E" unicode="E" horiz-adv-x="593" 
d="M197 708h433l-9 -60h-367l-35 -252h344l-9 -60h-344l-39 -276h383l-8 -60h-449z" />
    <glyph glyph-name="F" unicode="F" horiz-adv-x="556" 
d="M197 708h424l-9 -60h-358l-35 -252h333l-9 -60h-333l-47 -336h-66z" />
    <glyph glyph-name="G" unicode="G" horiz-adv-x="778" 
d="M519 726q159 0 241 -98l-55 -50q-26 38 -81 63t-113 25q-151 0 -249.5 -107.5t-98.5 -258.5q0 -118 70.5 -188t190.5 -70q128 0 203 42l33 238h-170l9 60h236l-48 -336q-121 -64 -276 -64q-141 0 -228 85.5t-87 223.5q0 117 53.5 216.5t151 159t218.5 59.5z" />
    <glyph glyph-name="H" unicode="H" horiz-adv-x="722" 
d="M197 708h66l-44 -312h396l44 312h66l-100 -708h-66l47 336h-396l-47 -336h-66z" />
    <glyph glyph-name="I" unicode="I" horiz-adv-x="260" 
d="M197 708h66l-100 -708h-66z" />
    <glyph glyph-name="J" unicode="J" horiz-adv-x="482" 
d="M419 708h66l-71 -501q-16 -112 -69.5 -168.5t-156.5 -56.5q-73 0 -115 38t-48 107l68 12q9 -97 104 -97q63 0 101 39t48 111z" />
    <glyph glyph-name="K" unicode="K" horiz-adv-x="611" 
d="M197 708h66l-44 -312h6l387 312h91l-404 -324l324 -384h-95l-308 366h-6l-51 -366h-66z" />
    <glyph glyph-name="L" unicode="L" horiz-adv-x="500" 
d="M197 708h66l-92 -648h330l-8 -60h-396z" />
    <glyph glyph-name="M" unicode="M" horiz-adv-x="889" 
d="M190 708h99l174 -594l342 594h94l-100 -708h-66l88 624h-2l-358 -624h-29l-186 624h-2l-88 -624h-66z" />
    <glyph glyph-name="N" unicode="N" horiz-adv-x="778" 
d="M197 708h85l343 -620h2l88 620h66l-100 -708h-85l-344 620h-2l-87 -620h-66z" />
    <glyph glyph-name="O" unicode="O" horiz-adv-x="834" 
d="M163 300q0 -117 70 -187.5t190 -70.5q151 0 249.5 107.5t98.5 256.5q0 118 -70.5 189t-190.5 71q-153 0 -250 -107.5t-97 -258.5zM519 726q142 0 230 -85t88 -226q0 -116 -54 -215t-151.5 -158.5t-217.5 -59.5q-144 0 -231 84.5t-87 230.5q0 173 121.5 301t301.5 128z
" />
    <glyph glyph-name="P" unicode="P" horiz-adv-x="574" 
d="M404 648h-150l-35 -252h154q73 0 119 39.5t46 106.5q0 49 -38 77.5t-96 28.5zM197 708h204q94 0 148.5 -40t54.5 -114q0 -97 -66 -157.5t-176 -60.5h-152l-47 -336h-66z" />
    <glyph glyph-name="Q" unicode="Q" horiz-adv-x="834" 
d="M165 316q0 -113 74.5 -184.5t189.5 -71.5q142 0 235.5 106.5t93.5 249.5q0 114 -69 182t-186 68q-146 0 -242 -102.5t-96 -247.5zM512 726q141 0 226.5 -82.5t85.5 -221.5q0 -113 -61.5 -217t-161.5 -143l-1 -2h221l-8 -60h-394q-138 0 -229.5 87.5t-91.5 219.5
q0 173 119 296t295 123z" />
    <glyph glyph-name="R" unicode="R" horiz-adv-x="593" 
d="M398 648h-144l-35 -252h144q84 0 132 40t48 106q0 51 -38 78.5t-107 27.5zM197 708h192q110 0 166 -39t56 -112q0 -87 -54 -146t-155 -71l158 -340h-75l-152 336h-123l-47 -336h-66z" />
    <glyph glyph-name="S" unicode="S" horiz-adv-x="556" 
d="M401 726q124 0 181 -89l-63 -41q-43 70 -128 70q-77 0 -128.5 -43t-51.5 -115q0 -40 27 -69t93 -49q32 -10 40.5 -13l35.5 -12.5t36 -15l28 -16.5t26 -21l17 -24.5t13.5 -32t3.5 -37.5q0 -105 -73 -170.5t-179 -65.5q-152 0 -213 107l68 42q41 -89 150 -89q77 0 128.5 46
t51.5 114q0 48 -36 73.5t-115 50.5q-85 26 -127 63t-42 106q0 107 75.5 169t181.5 62z" />
    <glyph glyph-name="T" unicode="T" horiz-adv-x="574" 
d="M112 708h550l-9 -60h-242l-91 -648h-66l91 648h-242z" />
    <glyph glyph-name="U" unicode="U" horiz-adv-x="684" 
d="M184 708h66l-52 -367q-13 -59 -13 -120q0 -88 41.5 -133.5t121.5 -45.5q94 0 151.5 62t74.5 184l60 420h66l-62 -437q-19 -134 -95 -211.5t-204 -77.5q-109 0 -165.5 57.5t-56.5 167.5q0 28 9 91z" />
    <glyph glyph-name="V" unicode="V" horiz-adv-x="593" 
d="M97 708h71l140 -621l318 621h70l-369 -708h-66z" />
    <glyph glyph-name="W" unicode="W" horiz-adv-x="944" 
d="M105 708h68l87 -627h2l268 627h84l90 -627h2l265 627h68l-306 -708h-81l-90 630h-2l-268 -630h-81z" />
    <glyph glyph-name="X" unicode="X" horiz-adv-x="611" 
d="M125 708h78l163 -288l242 288h79l-288 -336l211 -372h-82l-179 320l-269 -320h-79l318 372z" />
    <glyph glyph-name="Y" unicode="Y" horiz-adv-x="574" 
d="M94 708h79l166 -336l267 336h74l-317 -403l-43 -305h-66l43 305z" />
    <glyph glyph-name="Z" unicode="Z" horiz-adv-x="556" 
d="M129 708h493l-8 -54l-501 -594h428l-8 -60h-510l7 52l498 596h-408z" />
    <glyph glyph-name="bracketleft" unicode="[" horiz-adv-x="260" 
d="M177 732h150l-7 -48h-90l-111 -792h90l-7 -48h-150z" />
    <glyph glyph-name="backslash" unicode="\" horiz-adv-x="370" 
d="M107 726l55 18l196 -762l-55 -18z" />
    <glyph glyph-name="bracketright" unicode="]" horiz-adv-x="260" 
d="M139 732h150l-125 -888h-150l7 48h90l111 792h-90z" />
    <glyph glyph-name="asciicircum" unicode="^" horiz-adv-x="666" 
d="M118 256l292 452h46l164 -452h-56l-139 398l-250 -398h-57z" />
    <glyph glyph-name="underscore" unicode="_" horiz-adv-x="500" 
d="M-11 -75h500l-7 -50h-500z" />
    <glyph glyph-name="grave" unicode="`" 
d="M94 708h80l83 -144h-50z" />
    <glyph glyph-name="a" unicode="a" horiz-adv-x="519" 
d="M136 116q0 -33 27 -53.5t67 -20.5q110 0 156 78q20 35 32 112h-75q-91 0 -149 -30.5t-58 -85.5zM322 474q163 0 163 -134q0 -12 -5 -45l-17 -124q-15 -113 -15 -171h-56v12q0 28 5 63h-2q-63 -87 -175 -87q-66 0 -105.5 31t-39.5 83q0 86 71 132t207 46h71q6 27 6 50
q0 43 -30 66.5t-86 23.5q-81 0 -148 -52l-30 41q35 29 87 47t99 18z" />
    <glyph glyph-name="b" unicode="b" horiz-adv-x="611" 
d="M151 205q0 -70 47.5 -116.5t121.5 -46.5q90 0 150.5 64.5t60.5 157.5q0 70 -43.5 113t-115.5 43q-88 0 -154.5 -65t-66.5 -150zM67 0l106 756h60l-52 -375h2q30 43 85.5 68t112.5 25q94 0 152.5 -56t58.5 -147q0 -119 -81 -201t-199 -82q-60 0 -107 25t-65 68h-2l-11 -81
h-60z" />
    <glyph glyph-name="c" unicode="c" horiz-adv-x="481" 
d="M364 474q100 0 160 -80l-53 -36q-49 62 -116 62q-91 0 -151 -66t-60 -153q0 -72 43.5 -115.5t115.5 -43.5q71 0 133 64l41 -38q-80 -80 -182 -80q-96 0 -154 56.5t-58 146.5q0 119 82.5 201t198.5 82z" />
    <glyph glyph-name="d" unicode="d" horiz-adv-x="611" 
d="M144 200q0 -71 43 -114.5t116 -43.5q89 0 155 64.5t66 152.5q0 69 -47.5 115t-121.5 46q-89 0 -150 -64.5t-61 -155.5zM538 381l52 375h60l-106 -756h-60l11 81h-2q-31 -44 -85.5 -68.5t-112.5 -24.5q-95 0 -153.5 56.5t-58.5 147.5q0 119 82.5 200.5t198.5 81.5
q60 0 106.5 -25t65.5 -68h2z" />
    <glyph glyph-name="e" unicode="e" horiz-adv-x="556" 
d="M152 270h328q1 8 1 22q0 53 -39.5 90.5t-101.5 37.5q-65 0 -116.5 -41.5t-71.5 -108.5zM352 474q85 0 136.5 -50t51.5 -133q0 -24 -8 -75h-388q-1 -10 -1 -21q0 -65 39 -109t113 -44q47 0 93 23t73 59l39 -37q-81 -99 -214 -99q-93 0 -147.5 54.5t-54.5 145.5
q0 118 77 202t191 84z" />
    <glyph glyph-name="f" unicode="f" horiz-adv-x="296" 
d="M360 768q42 0 67 -12l-19 -52q-19 10 -53 10q-81 0 -98 -122l-18 -130h108l-8 -54h-108l-57 -408h-60l57 408h-96l8 54h96l21 152q10 76 56.5 115t103.5 39z" />
    <glyph glyph-name="g" unicode="g" horiz-adv-x="611" 
d="M151 210q0 -65 46 -110.5t114 -45.5q84 0 147 63t63 148q0 66 -45.5 110.5t-114.5 44.5q-82 0 -146 -63.5t-64 -146.5zM374 474q116 0 162 -90h2l11 78h60l-61 -432q-18 -128 -91.5 -199t-192.5 -71q-66 0 -125.5 24t-89.5 73l53 44q51 -87 170 -87q186 0 216 212l9 64
h-2q-70 -90 -188 -90q-92 0 -154 58.5t-62 151.5q0 105 87.5 184.5t195.5 79.5z" />
    <glyph glyph-name="h" unicode="h" horiz-adv-x="556" 
d="M80 0l106 756h60l-52 -375h2q26 42 73 67.5t99 25.5q151 0 151 -148q0 -28 -4 -52l-39 -274h-60l38 271q3 20 3 45q0 104 -98 104q-75 0 -125 -52t-63 -144l-31 -224h-60z" />
    <glyph glyph-name="i" unicode="i" 
d="M90 0l65 462h60l-65 -462h-60zM217 690q18 0 28.5 -11.5t10.5 -28.5q0 -19 -15.5 -34.5t-36.5 -15.5q-18 0 -28.5 11.5t-10.5 26.5q0 21 15.5 36.5t36.5 15.5z" />
    <glyph glyph-name="j" unicode="j" 
d="M79 -81l76 543h60l-76 -542q-12 -85 -48.5 -122.5t-106.5 -37.5q-22 0 -46 9l16 53q19 -8 37 -8q41 0 60.5 24.5t27.5 80.5zM217 690q18 0 28.5 -11.5t10.5 -28.5q0 -19 -15.5 -34.5t-36.5 -15.5q-18 0 -28.5 11.5t-10.5 26.5q0 21 15.5 36.5t36.5 15.5z" />
    <glyph glyph-name="k" unicode="k" horiz-adv-x="481" 
d="M80 0l106 756h60l-71 -504l259 210h88l-269 -212l231 -250h-91l-219 244l-34 -244h-60z" />
    <glyph glyph-name="l" unicode="l" 
d="M90 0l106 756h60l-106 -756h-60z" />
    <glyph glyph-name="m" unicode="m" horiz-adv-x="852" 
d="M367 474q50 0 83 -26t42 -74q26 46 71.5 73t100.5 27q151 0 151 -144q0 -30 -3 -46l-40 -284h-60l38 272q3 20 3 45q0 103 -98 103q-65 0 -108 -42.5t-53 -113.5l-38 -264h-60l39 278q3 21 3 40q0 102 -80 102q-79 0 -127 -54.5t-58 -127.5l-33 -238h-60l48 338l12 124
h60q-7 -65 -7 -81h3q26 42 73 67.5t98 25.5z" />
    <glyph glyph-name="n" unicode="n" horiz-adv-x="556" 
d="M368 474q151 0 151 -148q0 -20 -4 -52l-39 -274h-60l38 271q3 20 3 45q0 104 -98 104q-71 0 -122.5 -49t-63.5 -134l-33 -237h-60l47 335l13 127h60q-7 -65 -7 -81h3q26 42 72.5 67.5t99.5 25.5z" />
    <glyph glyph-name="o" unicode="o" horiz-adv-x="594" 
d="M83 190q0 120 81.5 202t198.5 82q95 0 153.5 -56t58.5 -147q0 -122 -83 -202.5t-197 -80.5q-95 0 -153.5 56.5t-58.5 145.5zM144 200q0 -70 43.5 -114t115.5 -44q93 0 152 65.5t59 154.5q0 73 -43.5 115.5t-117.5 42.5q-89 0 -149 -66t-60 -154z" />
    <glyph glyph-name="p" unicode="p" horiz-adv-x="611" 
d="M151 205q0 -70 48 -116.5t121 -46.5q91 0 151 64.5t60 157.5q0 70 -43.5 113t-115.5 43q-87 0 -154 -64.5t-67 -150.5zM381 474q94 0 152.5 -56t58.5 -147q0 -118 -81.5 -200.5t-198.5 -82.5q-59 0 -106 24.5t-66 68.5h-2l-43 -309h-60l97 690h60l-11 -81h2
q30 43 85.5 68t112.5 25z" />
    <glyph glyph-name="q" unicode="q" horiz-adv-x="611" 
d="M144 201q0 -72 43 -115.5t116 -43.5q93 0 157 66.5t64 150.5q0 69 -48 115t-121 46q-88 0 -149.5 -65t-61.5 -154zM364 474q58 0 105.5 -25.5t66.5 -67.5h2l11 81h60l-97 -690h-60l43 309h-2q-31 -44 -85.5 -68.5t-112.5 -24.5q-95 0 -153.5 56.5t-58.5 147.5
q0 120 82.5 201t198.5 81z" />
    <glyph glyph-name="r" unicode="r" horiz-adv-x="333" 
d="M353 474q19 0 34 -5l-15 -59q-12 4 -25 4q-70 0 -116 -44.5t-55 -113.5l-36 -256h-60l47 335l13 127h60q-7 -57 -7 -81q63 93 160 93z" />
    <glyph glyph-name="s" unicode="s" horiz-adv-x="426" 
d="M272 474q118 0 150 -87l-58 -32q-26 65 -99 65q-41 0 -75.5 -23t-34.5 -62q0 -25 21 -40.5t75 -26.5q36 -7 58 -13.5t45.5 -18.5t35 -32.5t11.5 -48.5q0 -74 -54 -120.5t-135 -46.5q-131 0 -172 94l58 36q13 -35 46.5 -55.5t76.5 -20.5q48 0 83.5 28t35.5 69
q0 29 -27.5 46t-82.5 27q-71 15 -103.5 38t-32.5 74q0 64 52.5 107t125.5 43z" />
    <glyph glyph-name="t" unicode="t" horiz-adv-x="333" 
d="M179 462l19 133h60l-19 -133h132l-8 -54h-132l-41 -294q-2 -16 -2 -22q0 -21 14 -35.5t42 -14.5q31 0 70 16l-2 -54q-50 -16 -82 -16q-49 0 -76 24.5t-27 69.5q0 14 3 32l41 294h-100l8 54h100z" />
    <glyph glyph-name="u" unicode="u" horiz-adv-x="556" 
d="M140 462h60l-38 -274q-3 -22 -3 -42q0 -104 98 -104q95 0 149 82q28 41 38 111l32 227h60l-41 -289q-11 -82 -12 -98q0 -3 -2 -20t-3.5 -33t-1.5 -22h-60q7 57 7 76v5h-3q-26 -43 -72.5 -68t-101.5 -25q-149 0 -149 148q0 18 5 58z" />
    <glyph glyph-name="v" unicode="v" horiz-adv-x="463" 
d="M80 462h68l98 -397l206 397h61l-247 -462h-62z" />
    <glyph glyph-name="w" unicode="w" horiz-adv-x="704" 
d="M80 462h66l58 -387h2l183 387h57l83 -387h2l163 387h60l-201 -462h-62l-85 378h-2l-182 -378h-62z" />
    <glyph glyph-name="x" unicode="x" horiz-adv-x="481" 
d="M98 462h77l103 -174l152 174h75l-193 -212l163 -250h-78l-132 209l-187 -209h-72l227 250z" />
    <glyph glyph-name="y" unicode="y" horiz-adv-x="463" 
d="M80 462h67l98 -389l204 389h64l-325 -608q-49 -94 -139 -94q-27 0 -57 9l13 56q34 -11 53 -11q47 0 81 64l64 120z" />
    <glyph glyph-name="z" unicode="z" horiz-adv-x="426" 
d="M106 462h346l-5 -36l-328 -372h288l-8 -54h-372l5 36l329 372h-263z" />
    <glyph glyph-name="braceleft" unicode="{" horiz-adv-x="333" 
d="M377 732l-7 -48h-21q-27 0 -46 -25.5t-28 -94.5q-18 -147 -31 -180q-12 -31 -35.5 -59t-41.5 -36l-1 -2q24 -16 37.5 -48.5t13.5 -69.5q0 -15 -6 -57l-17 -122q-2 -15 -2 -32q0 -66 48 -66h19l-7 -48h-49q-35 0 -54.5 24t-19.5 67q0 18 5 50l18 126q5 33 5 64
q0 89 -54 89l7 48q64 0 87 127q1 5 24 166q18 127 111 127h45z" />
    <glyph glyph-name="bar" unicode="|" horiz-adv-x="344" 
d="M197 -277v1109h53v-1109h-53z" />
    <glyph glyph-name="braceright" unicode="}" horiz-adv-x="333" 
d="M155 684l7 48h48q75 0 75 -91q0 -17 -2 -30l-19 -134q-7 -46 -7 -76q0 -89 54 -89l-7 -48q-72 0 -95 -172l-17 -127q-6 -49 -27.5 -78t-40 -36t-38.5 -7h-49l7 48h22q29 0 46.5 27.5t23.5 69.5l17 131q15 121 94 167l1 2q-23 16 -37 48t-14 68q0 18 5 53l17 119
q3 30 3 41q-1 39 -13.5 52.5t-34.5 13.5h-19z" />
    <glyph glyph-name="asciitilde" unicode="~" horiz-adv-x="666" 
d="M280 364q32 0 105 -34t97 -34q23 0 44.5 14.5t53.5 53.5l30 -32q-56 -90 -137 -90q-36 0 -107 34t-97 34q-45 0 -98 -68l-29 32q58 90 138 90z" />
    <glyph glyph-name="uni00A0" unicode="&#xa0;" horiz-adv-x="260" 
 />
    <glyph glyph-name="exclamdown" unicode="&#xa1;" horiz-adv-x="370" 
d="M124 -222l73 522h60l-73 -522h-60zM254 492q19 0 30 -11.5t11 -28.5q0 -24 -15.5 -40t-38.5 -16q-19 0 -30.5 12t-11.5 29q0 23 16.5 39t38.5 16z" />
    <glyph glyph-name="cent" unicode="&#xa2;" horiz-adv-x="520" 
d="M143 205q0 -58 32.5 -102.5t87.5 -55.5l52 370q-76 -12 -124 -74.5t-48 -137.5zM322 471l10 72h48l-10 -71q93 0 153 -78l-53 -36q-41 53 -107 60l-53 -376q67 3 125 64l41 -38q-77 -79 -174 -80l-10 -69h-47l10 72q-78 10 -125.5 66t-47.5 136q0 104 67 183t173 95z" />
    <glyph glyph-name="sterling" unicode="&#xa3;" horiz-adv-x="520" 
d="M474 720q79 0 135 -56l-46 -48q-44 50 -99 50q-63 0 -108.5 -43.5t-54.5 -109.5l-16 -117h165l-8 -54h-165l-40 -288h245l-8 -54h-416l8 54h105l40 288h-95l8 54h95l16 114q13 93 77.5 151.5t161.5 58.5z" />
    <glyph glyph-name="currency" unicode="&#xa4;" horiz-adv-x="520" 
d="M119 326q0 -69 47.5 -116.5t116.5 -47.5q88 0 153 67t65 153q0 69 -47 116.5t-118 47.5q-87 0 -152 -67.5t-65 -152.5zM94 566l39 37l49 -56q74 53 162 53q90 0 148 -53l65 56l29 -37l-65 -55q40 -50 40 -123q0 -112 -84 -191l49 -55l-39 -37l-49 56q-74 -53 -163 -53
q-88 0 -147 53l-65 -56l-29 37l65 55q-41 52 -41 121q0 113 85 193z" />
    <glyph glyph-name="yen" unicode="&#xa5;" horiz-adv-x="520" 
d="M100 708h68l143 -344l244 344h65l-239 -339h134l-7 -48h-161l-11 -16l-11 -77h170l-7 -48h-170l-25 -180h-66l25 180h-170l7 48h170l11 77l-7 16h-161l7 48h134z" />
    <glyph glyph-name="brokenbar" unicode="&#xa6;" horiz-adv-x="344" 
d="M197 -193v387h52v-387h-52zM197 361v388h52v-388h-52z" />
    <glyph glyph-name="section" unicode="&#xa7;" horiz-adv-x="520" 
d="M187 301q0 -44 53 -72l99 -54q41 20 65.5 48.5t24.5 59.5q0 49 -63 87l-67 40q-112 -35 -112 -109zM390 726q58 0 97 -24.5t50 -69.5l-63 -34q-20 68 -95 68q-56 0 -94 -31.5t-38 -78.5q0 -17 8 -32t26.5 -28.5t30.5 -21t38.5 -20.5l32.5 -16q35 -19 56 -33.5t39.5 -43.5
t18.5 -65q0 -43 -28 -83t-81 -67q58 -36 58 -103q0 -77 -61 -132t-149 -55q-69 0 -115.5 31.5t-59.5 88.5l65 30q22 -90 117 -90q57 0 96.5 32t39.5 78q0 19 -10 35.5t-28.5 30t-35.5 23t-41.5 21t-34.5 17.5q-51 28 -80 59t-29 79q0 102 126 151q-65 42 -65 107
q0 77 62 127t147 50z" />
    <glyph glyph-name="dieresis" unicode="&#xa8;" 
d="M123 700q19 0 30.5 -12t11.5 -30q0 -21 -16.5 -37.5t-38.5 -16.5q-19 0 -30.5 12t-11.5 28q0 24 16.5 40t38.5 16zM313 700q19 0 30.5 -12t11.5 -30q0 -21 -16.5 -37.5t-38.5 -16.5q-19 0 -30.5 12t-11.5 28q0 24 16.5 40t38.5 16z" />
    <glyph glyph-name="copyright" unicode="&#xa9;" horiz-adv-x="800" 
d="M491 583q74 0 119 -41t45 -111h-54q-4 47 -36.5 75.5t-80.5 28.5q-81 0 -134 -64t-53 -150q0 -68 37 -108t100 -40q50 0 90 29t55 75h54q-20 -70 -75.5 -111t-130.5 -41q-87 0 -136 49.5t-49 136.5q0 115 69 193.5t180 78.5zM129 309q0 -118 79 -195.5t197 -77.5
q145 0 255.5 109.5t110.5 252.5q0 117 -79 195.5t-199 78.5q-144 0 -254 -108.5t-110 -254.5zM502 726q138 0 231 -91.5t93 -227.5q0 -110 -60 -208.5t-159.5 -157.5t-209.5 -59q-137 0 -230 90.5t-93 228.5q0 112 61 211t159.5 156.5t207.5 57.5z" />
    <glyph glyph-name="ordfeminine" unicode="&#xaa;" horiz-adv-x="337" 
d="M153 504q0 -16 19 -27t47 -11q44 0 74.5 26t35.5 68h-44q-60 0 -96 -15t-36 -41zM280 720q48 0 77 -17t29 -64q0 -19 -3 -35l-10 -72q-10 -66 -10 -102h-49q0 1 -0.5 4.5t-0.5 6.5q0 11 4 35h-2q-39 -52 -111 -52q-47 0 -73.5 18.5t-26.5 51.5q0 46 41 77t123 31h67
q2 14 2 22q0 31 -19.5 42.5t-55.5 11.5q-50 0 -99 -35l-20 38q53 39 137 39z" />
    <glyph glyph-name="guillemotleft" unicode="&#xab;" horiz-adv-x="481" 
d="M262 237l166 203l38 -29l-141 -174l94 -176l-48 -27zM96 237l166 203l38 -29l-141 -174l94 -176l-48 -27z" />
    <glyph glyph-name="logicalnot" unicode="&#xac;" horiz-adv-x="666" 
d="M134 399h510l-37 -265h-48l30 217h-462z" />
    <glyph glyph-name="uni00AD" unicode="&#xad;" horiz-adv-x="333" 
d="M80 264h247l-7 -54h-247z" />
    <glyph glyph-name="registered" unicode="&#xae;" horiz-adv-x="800" 
d="M392 522l-20 -145h81q122 0 122 88q0 27 -23.5 42t-60.5 15h-99zM345 570h167q118 0 118 -92q0 -61 -33.5 -100.5t-93.5 -48.5l102 -188h-61l-102 188h-77l-26 -188h-54zM128 309q0 -118 79.5 -195.5t197.5 -77.5q145 0 255.5 109.5t110.5 252.5q0 117 -79 195.5
t-199 78.5q-143 0 -254 -109t-111 -254zM502 726q138 0 231 -91t93 -228q0 -109 -60 -208t-159.5 -158t-209.5 -59q-137 0 -230 90.5t-93 228.5q0 112 60.5 211t159.5 156.5t208 57.5z" />
    <glyph glyph-name="macron" unicode="&#xaf;" 
d="M80 654h264l-7 -48h-264z" />
    <glyph glyph-name="degree" unicode="&#xb0;" horiz-adv-x="400" 
d="M184 563q0 -36 24 -59.5t59 -23.5q44 0 77.5 33t33.5 75q0 37 -24 60.5t-61 23.5q-42 0 -75.5 -33.5t-33.5 -75.5zM301 720q54 0 89.5 -34.5t35.5 -86.5q0 -67 -49 -117t-116 -50q-54 0 -89.5 35.5t-35.5 90.5q0 66 49.5 114t115.5 48z" />
    <glyph glyph-name="plusminus" unicode="&#xb1;" horiz-adv-x="666" 
d="M95 96h502l-6 -48h-502zM359 375l25 183h48l-25 -183h234l-7 -48h-234l-26 -183h-48l26 183h-228l7 48h228z" />
    <glyph glyph-name="twosuperior" unicode="&#xb2;" horiz-adv-x="338" 
d="M280 720q55 0 88 -25.5t33 -67.5q0 -17 -4 -33t-12.5 -30.5l-15.5 -25.5t-20 -23.5l-19.5 -19t-19.5 -17.5t-15 -12l-152 -129h219l-6 -48h-292l6 43l210 181l29 26.5t24 33.5t14 47q0 21 -20.5 36.5t-55.5 15.5q-68 0 -95 -59l-50 4q18 49 61 76t93 27z" />
    <glyph glyph-name="threesuperior" unicode="&#xb3;" horiz-adv-x="338" 
d="M269 720q52 0 84.5 -25.5t32.5 -67.5q0 -38 -27 -69.5t-70 -44.5v-2q36 -5 58 -30t22 -62q0 -56 -46 -96t-117 -40q-105 0 -127 89l50 18q14 -59 83 -59q38 0 70.5 25.5t32.5 64.5q0 67 -106 67h-13l6 48h21q49 0 79 24.5t30 58.5q0 23 -19.5 38t-50.5 15q-57 0 -95 -50
l-35 25q58 73 137 73z" />
    <glyph glyph-name="acute" unicode="&#xb4;" 
d="M266 708h80l-155 -144h-50z" />
    <glyph glyph-name="mu" unicode="&#xb5;" horiz-adv-x="556" 
d="M43 -228l97 690h60l-38 -274q-3 -22 -3 -42q0 -104 98 -104q75 0 124.5 50.5t62.5 142.5l32 227h60l-41 -289q-12 -83 -19 -173h-60q7 57 7 76v5h-3q-26 -42 -72.5 -67.5t-98.5 -25.5q-74 0 -111 38l-36 -254h-59z" />
    <glyph glyph-name="paragraph" unicode="&#xb6;" horiz-adv-x="600" 
d="M380 708h230l-118 -834h-60l111 786h-123l-111 -786h-60l63 449q-80 1 -131 48t-51 115q0 95 67.5 158.5t182.5 63.5z" />
    <glyph glyph-name="periodcentered" unicode="&#xb7;" horiz-adv-x="260" 
d="M181 366q19 0 31 -12.5t12 -30.5q0 -21 -17 -37t-39 -16q-19 0 -30.5 11.5t-11.5 28.5q0 23 16.5 39.5t38.5 16.5z" />
    <glyph glyph-name="cedilla" unicode="&#xb8;" 
d="M58 -88l75 88h38l-56 -64l2 -2q14 7 32 7q33 0 53.5 -17t20.5 -45q0 -40 -36 -67.5t-89 -27.5q-48 0 -92 21l18 32q30 -17 74 -17q28 0 48.5 14t20.5 35q0 17 -13.5 26.5t-36.5 9.5t-45 -8z" />
    <glyph glyph-name="onesuperior" unicode="&#xb9;" horiz-adv-x="338" 
d="M155 628l122 86h54l-59 -425h-54l52 371l-95 -66z" />
    <glyph glyph-name="ordmasculine" unicode="&#xba;" horiz-adv-x="386" 
d="M161 557q0 -39 27 -65t69 -26q52 0 90 37t38 87q0 39 -27.5 63.5t-70.5 24.5q-49 0 -87.5 -36.5t-38.5 -84.5zM293 720q63 0 102 -34t39 -90q0 -72 -53 -122t-129 -50q-64 0 -102 33.5t-38 90.5q0 73 52 122.5t129 49.5z" />
    <glyph glyph-name="guillemotright" unicode="&#xbb;" horiz-adv-x="481" 
d="M295 413l48 27l108 -203l-165 -203l-38 29l140 174zM129 413l48 27l108 -203l-165 -203l-38 29l140 174z" />
    <glyph glyph-name="onequarter" unicode="&#xbc;" horiz-adv-x="778" 
d="M671 352l-162 -202h136l28 202h-2zM455 147l224 277h59l-39 -274h64l-7 -48h-64l-14 -102h-54l14 102h-190zM124 628l122 86h54l-59 -425h-54l52 371l-95 -66zM114 -6l561 748l42 -28l-562 -748z" />
    <glyph glyph-name="onehalf" unicode="&#xbd;" horiz-adv-x="778" 
d="M674 431q55 0 88 -25.5t33 -67.5q0 -74 -94 -152l-164 -138h220l-7 -48h-292l6 43l211 181q66 56 66 105q0 23 -19 38.5t-57 15.5q-67 0 -94 -59l-51 4q18 48 61 75.5t93 27.5zM116 628l122 86h54l-59 -425h-54l52 371l-95 -66zM105 -6l561 748l42 -28l-562 -748z" />
    <glyph glyph-name="threequarters" unicode="&#xbe;" horiz-adv-x="778" 
d="M685 352l-162 -202h136l28 202h-2zM471 147l224 277h59l-39 -274h64l-7 -48h-64l-14 -102h-54l14 102h-190zM263 720q52 0 84.5 -25.5t32.5 -67.5q0 -38 -27 -69.5t-70 -44.5v-2q36 -4 58 -29.5t22 -61.5q0 -58 -46 -97.5t-117 -39.5q-105 0 -128 89l51 18q14 -59 84 -59
q31 0 66.5 23.5t35.5 67.5q0 66 -106 66h-13l6 48h12q54 0 86 23.5t32 59.5q0 23 -19.5 38t-50.5 15q-57 0 -95 -50l-35 25q57 73 137 73zM165 -6l561 748l42 -28l-562 -748z" />
    <glyph glyph-name="questiondown" unicode="&#xbf;" horiz-adv-x="463" 
d="M231 234l10 66h60q-13 -84 -14 -94q-9 -64 -99 -134q-48 -38 -72 -75.5t-24 -84.5q0 -46 27.5 -72t74.5 -26q51 0 90 31.5t57 84.5l64 -8q-22 -74 -82 -118t-136 -44q-74 0 -118 38.5t-44 104.5q0 110 109 194q86 66 97 137zM297 492q19 0 30 -11.5t11 -28.5
q0 -24 -15.5 -40t-38.5 -16q-19 0 -30.5 12t-11.5 29q0 23 16.5 39t38.5 16z" />
    <glyph glyph-name="Agrave" unicode="&#xc0;" horiz-adv-x="685" 
d="M434 636l-219 -388h325zM414 708h68l198 -708h-74l-51 188h-375l-106 -188h-69zM342 896h80l84 -144h-50z" />
    <glyph glyph-name="Aacute" unicode="&#xc1;" horiz-adv-x="685" 
d="M434 636l-219 -388h325zM414 708h68l198 -708h-74l-51 188h-375l-106 -188h-69zM514 896h80l-154 -144h-50z" />
    <glyph glyph-name="Acircumflex" unicode="&#xc2;" horiz-adv-x="685" 
d="M434 636l-219 -388h325zM414 708h68l198 -708h-74l-51 188h-375l-106 -188h-69zM433 896h70l88 -144h-65l-66 108l-96 -108h-59z" />
    <glyph glyph-name="Atilde" unicode="&#xc3;" horiz-adv-x="685" 
d="M434 636l-219 -388h325zM414 708h68l198 -708h-74l-51 188h-375l-106 -188h-69zM399 871q25 0 69.5 -24t61.5 -24q38 0 55 48h36q-13 -49 -39 -75.5t-59 -26.5q-26 0 -72.5 24t-62.5 24q-21 0 -33 -12.5t-24 -35.5h-36q10 41 39 71.5t65 30.5z" />
    <glyph glyph-name="Adieresis" unicode="&#xc4;" horiz-adv-x="685" 
d="M434 636l-219 -388h325zM414 708h68l198 -708h-74l-51 188h-375l-106 -188h-69zM562 888q19 0 30.5 -12.5t11.5 -30.5q0 -21 -17 -37t-38 -16q-19 0 -30.5 12t-11.5 28q0 23 16 39.5t39 16.5zM372 888q19 0 30.5 -12.5t11.5 -30.5q0 -21 -17 -37t-38 -16
q-19 0 -30.5 12.5t-11.5 27.5q0 23 16 39.5t39 16.5z" />
    <glyph glyph-name="Aring" unicode="&#xc5;" horiz-adv-x="685" 
d="M434 636l-219 -388h325zM414 708h68l198 -708h-74l-51 188h-375l-106 -188h-69zM402 825q0 -19 13 -33t36 -14q27 0 47 20.5t20 47.5q0 22 -13.5 36t-36.5 14q-28 0 -47 -21.5t-19 -49.5zM474 932q34 0 57 -24t23 -58q0 -41 -32.5 -74.5t-74.5 -33.5q-34 0 -57.5 23.5
t-23.5 57.5q0 43 32 76t76 33z" />
    <glyph glyph-name="AE" unicode="&#xc6;" horiz-adv-x="926" 
d="M579 648l-317 -400h273l56 400h-12zM556 708h403l-9 -60h-293l-35 -252h276l-9 -60h-276l-39 -276h301l-8 -60h-367l26 188h-312l-149 -188h-70z" />
    <glyph glyph-name="Ccedilla" unicode="&#xc7;" horiz-adv-x="704" 
d="M519 726q157 0 228 -111l-60 -45q-24 45 -70.5 70.5t-105.5 25.5q-151 0 -249.5 -107.5t-98.5 -258.5q0 -117 71 -187.5t188 -70.5q63 0 125 30t100 80l49 -41q-62 -69 -130.5 -99t-164.5 -30q-8 0 -13 1l-41 -47l2 -2q14 7 32 7q33 0 53.5 -17t20.5 -45q0 -40 -36 -67.5
t-89 -27.5q-48 0 -92 21l18 32q30 -17 74 -17q28 0 48.5 14t20.5 35q0 17 -13.5 26.5t-36.5 9.5t-45 -8l-14 15l64 75q-119 16 -188 99t-69 206q0 179 121 306.5t301 127.5z" />
    <glyph glyph-name="Egrave" unicode="&#xc8;" horiz-adv-x="593" 
d="M197 708h433l-9 -60h-367l-35 -252h344l-9 -60h-344l-39 -276h383l-8 -60h-449zM296 896h80l84 -144h-50z" />
    <glyph glyph-name="Eacute" unicode="&#xc9;" horiz-adv-x="593" 
d="M197 708h433l-9 -60h-367l-35 -252h344l-9 -60h-344l-39 -276h383l-8 -60h-449zM468 896h80l-154 -144h-50z" />
    <glyph glyph-name="Ecircumflex" unicode="&#xca;" horiz-adv-x="593" 
d="M197 708h433l-9 -60h-367l-35 -252h344l-9 -60h-344l-39 -276h383l-8 -60h-449zM387 896h70l88 -144h-65l-66 108l-96 -108h-59z" />
    <glyph glyph-name="Edieresis" unicode="&#xcb;" horiz-adv-x="593" 
d="M197 708h433l-9 -60h-367l-35 -252h344l-9 -60h-344l-39 -276h383l-8 -60h-449zM516 888q19 0 30.5 -12.5t11.5 -30.5q0 -21 -17 -37t-38 -16q-19 0 -30.5 12t-11.5 28q0 23 16 39.5t39 16.5zM326 888q19 0 30.5 -12.5t11.5 -30.5q0 -21 -17 -37t-38 -16
q-19 0 -30.5 12.5t-11.5 27.5q0 23 16 39.5t39 16.5z" />
    <glyph glyph-name="Igrave" unicode="&#xcc;" horiz-adv-x="260" 
d="M197 708h66l-100 -708h-66zM129 896h80l84 -144h-50z" />
    <glyph glyph-name="Iacute" unicode="&#xcd;" horiz-adv-x="260" 
d="M197 708h66l-100 -708h-66zM301 896h80l-154 -144h-50z" />
    <glyph glyph-name="Icircumflex" unicode="&#xce;" horiz-adv-x="260" 
d="M197 708h66l-100 -708h-66zM220 896h70l88 -144h-65l-66 108l-96 -108h-59z" />
    <glyph glyph-name="Idieresis" unicode="&#xcf;" horiz-adv-x="260" 
d="M197 708h66l-100 -708h-66zM349 888q19 0 30.5 -12.5t11.5 -30.5q0 -21 -17 -37t-38 -16q-19 0 -30.5 12t-11.5 28q0 23 16 39.5t39 16.5zM159 888q19 0 30.5 -12.5t11.5 -30.5q0 -21 -17 -37t-38 -16q-19 0 -30.5 12.5t-11.5 27.5q0 23 16 39.5t39 16.5z" />
    <glyph glyph-name="Eth" unicode="&#xd0;" horiz-adv-x="741" 
d="M678 407q0 110 -75.5 175.5t-220.5 65.5h-137l-35 -252h258l-8 -54h-258l-40 -282h138q177 0 277.5 97.5t100.5 249.5zM743 405q0 -50 -13.5 -102.5t-46.5 -107.5t-80.5 -97.5t-123 -70t-166.5 -27.5h-225l48 342h-78l8 54h78l44 312h224q159 0 245 -79t86 -224z" />
    <glyph glyph-name="Ntilde" unicode="&#xd1;" horiz-adv-x="778" 
d="M197 708h85l343 -620h2l88 620h66l-100 -708h-85l-344 620h-2l-87 -620h-66zM445 871q25 0 69.5 -24t61.5 -24q38 0 55 48h36q-13 -49 -39 -75.5t-59 -26.5q-26 0 -72.5 24t-62.5 24q-21 0 -33 -12.5t-24 -35.5h-36q10 41 39 71.5t65 30.5z" />
    <glyph glyph-name="Ograve" unicode="&#xd2;" horiz-adv-x="834" 
d="M163 300q0 -117 70 -187.5t190 -70.5q151 0 249.5 107.5t98.5 256.5q0 118 -70.5 189t-190.5 71q-153 0 -250 -107.5t-97 -258.5zM519 726q142 0 230 -85t88 -226q0 -116 -54 -215t-151.5 -158.5t-217.5 -59.5q-144 0 -231 84.5t-87 230.5q0 173 121.5 301t301.5 128z
M416 896h80l84 -144h-50z" />
    <glyph glyph-name="Oacute" unicode="&#xd3;" horiz-adv-x="834" 
d="M163 300q0 -117 70 -187.5t190 -70.5q151 0 249.5 107.5t98.5 256.5q0 118 -70.5 189t-190.5 71q-153 0 -250 -107.5t-97 -258.5zM519 726q142 0 230 -85t88 -226q0 -116 -54 -215t-151.5 -158.5t-217.5 -59.5q-144 0 -231 84.5t-87 230.5q0 173 121.5 301t301.5 128z
M588 896h80l-154 -144h-50z" />
    <glyph glyph-name="Ocircumflex" unicode="&#xd4;" horiz-adv-x="834" 
d="M163 300q0 -117 70 -187.5t190 -70.5q151 0 249.5 107.5t98.5 256.5q0 118 -70.5 189t-190.5 71q-153 0 -250 -107.5t-97 -258.5zM519 726q142 0 230 -85t88 -226q0 -116 -54 -215t-151.5 -158.5t-217.5 -59.5q-144 0 -231 84.5t-87 230.5q0 173 121.5 301t301.5 128z
M507 896h70l88 -144h-65l-66 108l-96 -108h-59z" />
    <glyph glyph-name="Otilde" unicode="&#xd5;" horiz-adv-x="834" 
d="M163 300q0 -117 70 -187.5t190 -70.5q151 0 249.5 107.5t98.5 256.5q0 118 -70.5 189t-190.5 71q-153 0 -250 -107.5t-97 -258.5zM519 726q142 0 230 -85t88 -226q0 -116 -54 -215t-151.5 -158.5t-217.5 -59.5q-144 0 -231 84.5t-87 230.5q0 173 121.5 301t301.5 128z
M473 871q25 0 69.5 -24t61.5 -24q38 0 55 48h36q-13 -49 -39 -75.5t-59 -26.5q-26 0 -72.5 24t-62.5 24q-21 0 -33 -12.5t-24 -35.5h-36q10 41 39 71.5t65 30.5z" />
    <glyph glyph-name="Odieresis" unicode="&#xd6;" horiz-adv-x="834" 
d="M163 300q0 -117 70 -187.5t190 -70.5q151 0 249.5 107.5t98.5 256.5q0 118 -70.5 189t-190.5 71q-153 0 -250 -107.5t-97 -258.5zM519 726q142 0 230 -85t88 -226q0 -116 -54 -215t-151.5 -158.5t-217.5 -59.5q-144 0 -231 84.5t-87 230.5q0 173 121.5 301t301.5 128z
M636 888q19 0 30.5 -12.5t11.5 -30.5q0 -21 -17 -37t-38 -16q-19 0 -30.5 12t-11.5 28q0 23 16 39.5t39 16.5zM446 888q19 0 30.5 -12.5t11.5 -30.5q0 -21 -17 -37t-38 -16q-19 0 -30.5 12.5t-11.5 27.5q0 23 16 39.5t39 16.5z" />
    <glyph glyph-name="multiply" unicode="&#xd7;" horiz-adv-x="666" 
d="M172 501l38 34l171 -198l227 198l28 -34l-226 -198l170 -198l-38 -34l-170 199l-226 -199l-31 33l228 199z" />
    <glyph glyph-name="Oslash" unicode="&#xd8;" horiz-adv-x="834" 
d="M722 569l-487 -458q72 -69 187 -69q150 0 249.5 107t99.5 258q0 94 -49 162zM162 298q0 -89 46 -154l485 457q-68 65 -183 65q-152 0 -250 -109t-98 -259zM743 647l85 81l30 -31l-86 -81q65 -79 65 -199q0 -117 -54 -216.5t-151.5 -159t-217.5 -59.5q-139 0 -227 83
l-86 -81l-32 31l89 82q-62 80 -62 194q0 180 121 307.5t302 127.5q136 0 224 -79z" />
    <glyph glyph-name="Ugrave" unicode="&#xd9;" horiz-adv-x="684" 
d="M184 708h66l-52 -367q-13 -59 -13 -120q0 -88 41.5 -133.5t121.5 -45.5q94 0 151.5 62t74.5 184l60 420h66l-62 -437q-19 -134 -95 -211.5t-204 -77.5q-109 0 -165.5 57.5t-56.5 167.5q0 28 9 91zM341 896h80l84 -144h-50z" />
    <glyph glyph-name="Uacute" unicode="&#xda;" horiz-adv-x="684" 
d="M184 708h66l-52 -367q-13 -59 -13 -120q0 -88 41.5 -133.5t121.5 -45.5q94 0 151.5 62t74.5 184l60 420h66l-62 -437q-19 -134 -95 -211.5t-204 -77.5q-109 0 -165.5 57.5t-56.5 167.5q0 28 9 91zM513 896h80l-154 -144h-50z" />
    <glyph glyph-name="Ucircumflex" unicode="&#xdb;" horiz-adv-x="684" 
d="M184 708h66l-52 -367q-13 -59 -13 -120q0 -88 41.5 -133.5t121.5 -45.5q94 0 151.5 62t74.5 184l60 420h66l-62 -437q-19 -134 -95 -211.5t-204 -77.5q-109 0 -165.5 57.5t-56.5 167.5q0 28 9 91zM432 896h70l88 -144h-65l-66 108l-96 -108h-59z" />
    <glyph glyph-name="Udieresis" unicode="&#xdc;" horiz-adv-x="684" 
d="M184 708h66l-52 -367q-13 -59 -13 -120q0 -88 41.5 -133.5t121.5 -45.5q94 0 151.5 62t74.5 184l60 420h66l-62 -437q-19 -134 -95 -211.5t-204 -77.5q-109 0 -165.5 57.5t-56.5 167.5q0 28 9 91zM561 888q19 0 30.5 -12.5t11.5 -30.5q0 -21 -17 -37t-38 -16
q-19 0 -30.5 12t-11.5 28q0 23 16 39.5t39 16.5zM371 888q19 0 30.5 -12.5t11.5 -30.5q0 -21 -17 -37t-38 -16q-19 0 -30.5 12.5t-11.5 27.5q0 23 16 39.5t39 16.5z" />
    <glyph glyph-name="Yacute" unicode="&#xdd;" horiz-adv-x="574" 
d="M94 708h79l166 -336l267 336h74l-317 -403l-43 -305h-66l43 305zM458 896h80l-154 -144h-50z" />
    <glyph glyph-name="Thorn" unicode="&#xde;" horiz-adv-x="574" 
d="M232 492l-35 -252h154q76 0 120.5 41t44.5 105q0 49 -38 77.5t-96 28.5h-150zM197 708h65l-22 -156h142q89 0 145 -40t56 -114q0 -96 -68 -157t-170 -61h-157l-25 -180h-66z" />
    <glyph glyph-name="germandbls" unicode="&#xdf;" horiz-adv-x="593" 
d="M399 768q75 0 118.5 -40.5t43.5 -107.5q0 -65 -33.5 -116.5t-89.5 -68.5v-2q133 -25 133 -161q0 -126 -78 -202t-204 -76q-25 0 -47 5l8 58q21 -9 52 -9q90 0 148.5 58t58.5 148q0 69 -44 109.5t-122 40.5h-20l7 54h10q74 0 117.5 43.5t43.5 107.5q0 49 -30.5 77
t-84.5 28q-71 0 -115 -48.5t-57 -137.5l-74 -528h-60l75 534q15 107 80.5 170.5t163.5 63.5z" />
    <glyph glyph-name="agrave" unicode="&#xe0;" horiz-adv-x="519" 
d="M136 116q0 -33 27 -53.5t67 -20.5q110 0 156 78q20 35 32 112h-75q-91 0 -149 -30.5t-58 -85.5zM322 474q163 0 163 -134q0 -12 -5 -45l-17 -124q-15 -113 -15 -171h-56v12q0 28 5 63h-2q-63 -87 -175 -87q-66 0 -105.5 31t-39.5 83q0 86 71 132t207 46h71q6 27 6 50
q0 43 -30 66.5t-86 23.5q-81 0 -148 -52l-30 41q35 29 87 47t99 18zM234 708h80l83 -144h-50z" />
    <glyph glyph-name="aacute" unicode="&#xe1;" horiz-adv-x="519" 
d="M136 116q0 -33 27 -53.5t67 -20.5q110 0 156 78q20 35 32 112h-75q-91 0 -149 -30.5t-58 -85.5zM322 474q163 0 163 -134q0 -12 -5 -45l-17 -124q-15 -113 -15 -171h-56v12q0 28 5 63h-2q-63 -87 -175 -87q-66 0 -105.5 31t-39.5 83q0 86 71 132t207 46h71q6 27 6 50
q0 43 -30 66.5t-86 23.5q-81 0 -148 -52l-30 41q35 29 87 47t99 18zM406 708h80l-155 -144h-50z" />
    <glyph glyph-name="acircumflex" unicode="&#xe2;" horiz-adv-x="519" 
d="M136 116q0 -33 27 -53.5t67 -20.5q110 0 156 78q20 35 32 112h-75q-91 0 -149 -30.5t-58 -85.5zM322 474q163 0 163 -134q0 -12 -5 -45l-17 -124q-15 -113 -15 -171h-56v12q0 28 5 63h-2q-63 -87 -175 -87q-66 0 -105.5 31t-39.5 83q0 86 71 132t207 46h71q6 27 6 50
q0 43 -30 66.5t-86 23.5q-81 0 -148 -52l-30 41q35 29 87 47t99 18zM325 708h70l87 -144h-65l-66 108l-96 -108h-59z" />
    <glyph glyph-name="atilde" unicode="&#xe3;" horiz-adv-x="519" 
d="M136 116q0 -33 27 -53.5t67 -20.5q110 0 156 78q20 35 32 112h-75q-91 0 -149 -30.5t-58 -85.5zM322 474q163 0 163 -134q0 -12 -5 -45l-17 -124q-15 -113 -15 -171h-56v12q0 28 5 63h-2q-63 -87 -175 -87q-66 0 -105.5 31t-39.5 83q0 86 71 132t207 46h71q6 27 6 50
q0 43 -30 66.5t-86 23.5q-81 0 -148 -52l-30 41q35 29 87 47t99 18zM290 683q25 0 69.5 -24t61.5 -24q40 0 55 48h36q-12 -47 -38.5 -74.5t-59.5 -27.5q-28 0 -72 24t-63 24q-39 0 -57 -48h-36q12 43 40.5 72.5t63.5 29.5z" />
    <glyph glyph-name="adieresis" unicode="&#xe4;" horiz-adv-x="519" 
d="M136 116q0 -33 27 -53.5t67 -20.5q110 0 156 78q20 35 32 112h-75q-91 0 -149 -30.5t-58 -85.5zM322 474q163 0 163 -134q0 -12 -5 -45l-17 -124q-15 -113 -15 -171h-56v12q0 28 5 63h-2q-63 -87 -175 -87q-66 0 -105.5 31t-39.5 83q0 86 71 132t207 46h71q6 27 6 50
q0 43 -30 66.5t-86 23.5q-81 0 -148 -52l-30 41q35 29 87 47t99 18zM263 700q19 0 30.5 -12t11.5 -30q0 -21 -16.5 -37.5t-38.5 -16.5q-19 0 -30.5 12t-11.5 28q0 24 16.5 40t38.5 16zM453 700q19 0 30.5 -12t11.5 -30q0 -21 -16.5 -37.5t-38.5 -16.5q-19 0 -30.5 12
t-11.5 28q0 24 16.5 40t38.5 16z" />
    <glyph glyph-name="aring" unicode="&#xe5;" horiz-adv-x="519" 
d="M136 116q0 -33 27 -53.5t67 -20.5q110 0 156 78q20 35 32 112h-75q-91 0 -149 -30.5t-58 -85.5zM322 474q163 0 163 -134q0 -12 -5 -45l-17 -124q-15 -113 -15 -171h-56v12q0 28 5 63h-2q-63 -87 -175 -87q-66 0 -105.5 31t-39.5 83q0 86 71 132t207 46h71q6 27 6 50
q0 43 -30 66.5t-86 23.5q-81 0 -148 -52l-30 41q35 29 87 47t99 18zM293 637q0 -19 13 -33t36 -14q27 0 47 20.5t20 47.5q0 21 -14 35.5t-36 14.5q-28 0 -47 -21.5t-19 -49.5zM365 744q34 0 57 -24t23 -58q0 -41 -33 -74.5t-74 -33.5q-34 0 -57.5 23.5t-23.5 57.5
q0 43 32 76t76 33z" />
    <glyph glyph-name="ae" unicode="&#xe6;" horiz-adv-x="852" 
d="M131 115q0 -32 26.5 -52.5t68.5 -20.5q81 0 133 46t63 128h-125q-73 0 -119.5 -27t-46.5 -74zM490 270h296q2 14 2 28q0 58 -33 90t-96 32q-64 0 -112.5 -42.5t-56.5 -107.5zM317 474q70 0 109.5 -23.5t56.5 -72.5q28 43 80 69.5t104 26.5q83 0 131 -46t48 -128
q0 -33 -8 -84h-356q-3 -15 -3 -38q0 -63 37.5 -99.5t101.5 -36.5q88 0 143 74l43 -34q-48 -51 -93 -72.5t-111 -21.5q-135 0 -166 114q-70 -114 -219 -114q-65 0 -105 31t-40 84q0 77 63 122t181 45h116q4 34 4 42q0 108 -125 108q-80 0 -148 -52l-30 41q35 30 86.5 47.5
t99.5 17.5z" />
    <glyph glyph-name="ccedilla" unicode="&#xe7;" horiz-adv-x="481" 
d="M83 192q0 118 82 200t199 82q102 0 160 -80l-53 -36q-48 62 -116 62q-91 0 -151 -66t-60 -153q0 -72 43.5 -115.5t115.5 -43.5q73 0 133 64l41 -38q-78 -80 -184 -80q-7 0 -12 1l-45 -52l2 -3q18 7 32 7q34 0 54 -17t20 -44q0 -41 -35.5 -68.5t-89.5 -27.5q-50 0 -92 21
l18 32q30 -17 74 -17q29 0 49.5 14t20.5 35q0 36 -51 36q-21 0 -45 -8l-14 15l68 81q-76 13 -120 67t-44 132z" />
    <glyph glyph-name="egrave" unicode="&#xe8;" horiz-adv-x="556" 
d="M152 270h328q1 8 1 22q0 53 -39.5 90.5t-101.5 37.5q-65 0 -116.5 -41.5t-71.5 -108.5zM352 474q85 0 136.5 -50t51.5 -133q0 -24 -8 -75h-388q-1 -10 -1 -21q0 -65 39 -109t113 -44q47 0 93 23t73 59l39 -37q-81 -99 -214 -99q-93 0 -147.5 54.5t-54.5 145.5
q0 118 77 202t191 84zM252 708h80l83 -144h-50z" />
    <glyph glyph-name="eacute" unicode="&#xe9;" horiz-adv-x="556" 
d="M152 270h328q1 8 1 22q0 53 -39.5 90.5t-101.5 37.5q-65 0 -116.5 -41.5t-71.5 -108.5zM352 474q85 0 136.5 -50t51.5 -133q0 -24 -8 -75h-388q-1 -10 -1 -21q0 -65 39 -109t113 -44q47 0 93 23t73 59l39 -37q-81 -99 -214 -99q-93 0 -147.5 54.5t-54.5 145.5
q0 118 77 202t191 84zM424 708h80l-155 -144h-50z" />
    <glyph glyph-name="ecircumflex" unicode="&#xea;" horiz-adv-x="556" 
d="M152 270h328q1 8 1 22q0 53 -39.5 90.5t-101.5 37.5q-65 0 -116.5 -41.5t-71.5 -108.5zM352 474q85 0 136.5 -50t51.5 -133q0 -24 -8 -75h-388q-1 -10 -1 -21q0 -65 39 -109t113 -44q47 0 93 23t73 59l39 -37q-81 -99 -214 -99q-93 0 -147.5 54.5t-54.5 145.5
q0 118 77 202t191 84zM343 708h70l87 -144h-65l-66 108l-96 -108h-59z" />
    <glyph glyph-name="edieresis" unicode="&#xeb;" horiz-adv-x="556" 
d="M152 270h328q1 8 1 22q0 53 -39.5 90.5t-101.5 37.5q-65 0 -116.5 -41.5t-71.5 -108.5zM352 474q85 0 136.5 -50t51.5 -133q0 -24 -8 -75h-388q-1 -10 -1 -21q0 -65 39 -109t113 -44q47 0 93 23t73 59l39 -37q-81 -99 -214 -99q-93 0 -147.5 54.5t-54.5 145.5
q0 118 77 202t191 84zM281 700q19 0 30.5 -12t11.5 -30q0 -21 -16.5 -37.5t-38.5 -16.5q-19 0 -30.5 12t-11.5 28q0 24 16.5 40t38.5 16zM471 700q19 0 30.5 -12t11.5 -30q0 -21 -16.5 -37.5t-38.5 -16.5q-19 0 -30.5 12t-11.5 28q0 24 16.5 40t38.5 16z" />
    <glyph glyph-name="igrave" unicode="&#xec;" 
d="M90 0l65 462h60l-65 -462h-60zM94 708h80l83 -144h-50z" />
    <glyph glyph-name="iacute" unicode="&#xed;" 
d="M90 0l65 462h60l-65 -462h-60zM266 708h80l-155 -144h-50z" />
    <glyph glyph-name="icircumflex" unicode="&#xee;" 
d="M90 0l65 462h60l-65 -462h-60zM185 708h70l87 -144h-65l-66 108l-96 -108h-59z" />
    <glyph glyph-name="idieresis" unicode="&#xef;" 
d="M90 0l65 462h60l-65 -462h-60zM123 700q19 0 30.5 -12t11.5 -30q0 -21 -16.5 -37.5t-38.5 -16.5q-19 0 -30.5 12t-11.5 28q0 24 16.5 40t38.5 16zM313 700q19 0 30.5 -12t11.5 -30q0 -21 -16.5 -37.5t-38.5 -16.5q-19 0 -30.5 12t-11.5 28q0 24 16.5 40t38.5 16z" />
    <glyph glyph-name="eth" unicode="&#xf0;" horiz-adv-x="594" 
d="M144 201q0 -72 43 -115.5t116 -43.5q96 0 153.5 68t57.5 152q0 72 -43 115t-116 43q-89 0 -150 -65t-61 -154zM263 738l56 30q41 -33 84 -80l112 56l31 -30l-114 -57q148 -152 148 -341q0 -146 -81.5 -237t-203.5 -91q-95 0 -153.5 56.5t-58.5 147.5q0 118 82 200t198 82
q87 0 142 -55l2 2q-29 68 -58 112q-40 61 -74 95l-115 -57l-26 33l112 56q-55 55 -83 78z" />
    <glyph glyph-name="ntilde" unicode="&#xf1;" horiz-adv-x="556" 
d="M368 474q151 0 151 -148q0 -20 -4 -52l-39 -274h-60l38 271q3 20 3 45q0 104 -98 104q-71 0 -122.5 -49t-63.5 -134l-33 -237h-60l47 335l13 127h60q-7 -65 -7 -81h3q26 42 72.5 67.5t99.5 25.5zM308 683q25 0 69.5 -24t61.5 -24q40 0 55 48h36q-12 -47 -38.5 -74.5
t-59.5 -27.5q-28 0 -72 24t-63 24q-39 0 -57 -48h-36q12 43 40.5 72.5t63.5 29.5z" />
    <glyph glyph-name="ograve" unicode="&#xf2;" horiz-adv-x="594" 
d="M83 190q0 120 81.5 202t198.5 82q95 0 153.5 -56t58.5 -147q0 -122 -83 -202.5t-197 -80.5q-95 0 -153.5 56.5t-58.5 145.5zM144 200q0 -70 43.5 -114t115.5 -44q93 0 152 65.5t59 154.5q0 73 -43.5 115.5t-117.5 42.5q-89 0 -149 -66t-60 -154zM271 708h80l83 -144h-50z
" />
    <glyph glyph-name="oacute" unicode="&#xf3;" horiz-adv-x="594" 
d="M83 190q0 120 81.5 202t198.5 82q95 0 153.5 -56t58.5 -147q0 -122 -83 -202.5t-197 -80.5q-95 0 -153.5 56.5t-58.5 145.5zM144 200q0 -70 43.5 -114t115.5 -44q93 0 152 65.5t59 154.5q0 73 -43.5 115.5t-117.5 42.5q-89 0 -149 -66t-60 -154zM443 708h80l-155 -144
h-50z" />
    <glyph glyph-name="ocircumflex" unicode="&#xf4;" horiz-adv-x="594" 
d="M83 190q0 120 81.5 202t198.5 82q95 0 153.5 -56t58.5 -147q0 -122 -83 -202.5t-197 -80.5q-95 0 -153.5 56.5t-58.5 145.5zM144 200q0 -70 43.5 -114t115.5 -44q93 0 152 65.5t59 154.5q0 73 -43.5 115.5t-117.5 42.5q-89 0 -149 -66t-60 -154zM362 708h70l87 -144h-65
l-66 108l-96 -108h-59z" />
    <glyph glyph-name="otilde" unicode="&#xf5;" horiz-adv-x="594" 
d="M83 190q0 120 81.5 202t198.5 82q95 0 153.5 -56t58.5 -147q0 -122 -83 -202.5t-197 -80.5q-95 0 -153.5 56.5t-58.5 145.5zM144 200q0 -70 43.5 -114t115.5 -44q93 0 152 65.5t59 154.5q0 73 -43.5 115.5t-117.5 42.5q-89 0 -149 -66t-60 -154zM327 683q25 0 69.5 -24
t61.5 -24q40 0 55 48h36q-12 -47 -38.5 -74.5t-59.5 -27.5q-27 0 -72 24t-63 24q-39 0 -57 -48h-36q12 43 40.5 72.5t63.5 29.5z" />
    <glyph glyph-name="odieresis" unicode="&#xf6;" horiz-adv-x="594" 
d="M83 190q0 120 81.5 202t198.5 82q95 0 153.5 -56t58.5 -147q0 -122 -83 -202.5t-197 -80.5q-95 0 -153.5 56.5t-58.5 145.5zM144 200q0 -70 43.5 -114t115.5 -44q93 0 152 65.5t59 154.5q0 73 -43.5 115.5t-117.5 42.5q-89 0 -149 -66t-60 -154zM300 700q19 0 30.5 -12
t11.5 -30q0 -21 -16.5 -37.5t-38.5 -16.5q-19 0 -30.5 12t-11.5 28q0 24 16.5 40t38.5 16zM490 700q19 0 30.5 -12t11.5 -30q0 -21 -16.5 -37.5t-38.5 -16.5q-19 0 -30.5 12t-11.5 28q0 24 16.5 40t38.5 16z" />
    <glyph glyph-name="divide" unicode="&#xf7;" horiz-adv-x="666" 
d="M361 200q18 0 31 -12.5t13 -31.5q0 -23 -17.5 -40.5t-40.5 -17.5q-20 0 -32 12.5t-12 31.5q0 23 18 40.5t40 17.5zM124 327h510l-7 -48h-510zM404 508q19 0 32 -13t13 -31q0 -23 -18.5 -40.5t-40.5 -17.5q-19 0 -31.5 12.5t-12.5 31.5q0 22 18 40t40 18z" />
    <glyph glyph-name="oslash" unicode="&#xf8;" horiz-adv-x="594" 
d="M492 349l-300 -266q41 -41 114 -41q89 0 149 66.5t60 156.5q0 50 -23 84zM144 201q0 -48 22 -86l300 265q-43 40 -111 40q-90 0 -150.5 -65t-60.5 -154zM513 421l79 70l28 -29l-81 -71q36 -49 36 -122q0 -114 -79.5 -197.5t-200.5 -83.5q-95 0 -150 54l-78 -69l-28 29
l80 71q-36 50 -36 120q0 117 82 199t199 82q90 0 149 -53z" />
    <glyph glyph-name="ugrave" unicode="&#xf9;" horiz-adv-x="556" 
d="M140 462h60l-38 -274q-3 -22 -3 -42q0 -104 98 -104q95 0 149 82q28 41 38 111l32 227h60l-41 -289q-11 -82 -12 -98q0 -3 -2 -20t-3.5 -33t-1.5 -22h-60q7 57 7 76v5h-3q-26 -43 -72.5 -68t-101.5 -25q-149 0 -149 148q0 18 5 58zM252 708h80l83 -144h-50z" />
    <glyph glyph-name="uacute" unicode="&#xfa;" horiz-adv-x="556" 
d="M140 462h60l-38 -274q-3 -22 -3 -42q0 -104 98 -104q95 0 149 82q28 41 38 111l32 227h60l-41 -289q-11 -82 -12 -98q0 -3 -2 -20t-3.5 -33t-1.5 -22h-60q7 57 7 76v5h-3q-26 -43 -72.5 -68t-101.5 -25q-149 0 -149 148q0 18 5 58zM424 708h80l-155 -144h-50z" />
    <glyph glyph-name="ucircumflex" unicode="&#xfb;" horiz-adv-x="556" 
d="M140 462h60l-38 -274q-3 -22 -3 -42q0 -104 98 -104q95 0 149 82q28 41 38 111l32 227h60l-41 -289q-11 -82 -12 -98q0 -3 -2 -20t-3.5 -33t-1.5 -22h-60q7 57 7 76v5h-3q-26 -43 -72.5 -68t-101.5 -25q-149 0 -149 148q0 18 5 58zM343 708h70l87 -144h-65l-66 108
l-96 -108h-59z" />
    <glyph glyph-name="udieresis" unicode="&#xfc;" horiz-adv-x="556" 
d="M140 462h60l-38 -274q-3 -22 -3 -42q0 -104 98 -104q95 0 149 82q28 41 38 111l32 227h60l-41 -289q-11 -82 -12 -98q0 -3 -2 -20t-3.5 -33t-1.5 -22h-60q7 57 7 76v5h-3q-26 -43 -72.5 -68t-101.5 -25q-149 0 -149 148q0 18 5 58zM281 700q19 0 30.5 -12t11.5 -30
q0 -21 -16.5 -37.5t-38.5 -16.5q-19 0 -30.5 12t-11.5 28q0 24 16.5 40t38.5 16zM471 700q19 0 30.5 -12t11.5 -30q0 -21 -16.5 -37.5t-38.5 -16.5q-19 0 -30.5 12t-11.5 28q0 24 16.5 40t38.5 16z" />
    <glyph glyph-name="yacute" unicode="&#xfd;" horiz-adv-x="463" 
d="M80 462h67l98 -389l204 389h64l-325 -608q-49 -94 -139 -94q-27 0 -57 9l13 56q34 -11 53 -11q47 0 81 64l64 120zM378 708h80l-155 -144h-50z" />
    <glyph glyph-name="thorn" unicode="&#xfe;" horiz-adv-x="611" 
d="M151 205q0 -70 48 -116.5t121 -46.5q92 0 151.5 65.5t59.5 156.5q0 70 -43.5 113t-115.5 43q-88 0 -154.5 -65t-66.5 -150zM35 -228l138 984h60l-52 -375h2q31 44 85.5 68.5t112.5 24.5q95 0 153 -56t58 -147q0 -118 -81 -200.5t-199 -82.5q-60 0 -106.5 25.5t-65.5 67.5
h-2l-43 -309h-60z" />
    <glyph glyph-name="ydieresis" unicode="&#xff;" horiz-adv-x="463" 
d="M80 462h67l98 -389l204 389h64l-325 -608q-49 -94 -139 -94q-27 0 -57 9l13 56q34 -11 53 -11q47 0 81 64l64 120zM235 700q19 0 30.5 -12t11.5 -30q0 -21 -16.5 -37.5t-38.5 -16.5q-19 0 -30.5 12t-11.5 28q0 24 16.5 40t38.5 16zM425 700q19 0 30.5 -12t11.5 -30
q0 -21 -16.5 -37.5t-38.5 -16.5q-19 0 -30.5 12t-11.5 28q0 24 16.5 40t38.5 16z" />
    <glyph glyph-name="dotlessi" unicode="&#x131;" 
d="M90 0l65 462h60l-65 -462h-60z" />
    <glyph glyph-name="Lslash" unicode="&#x141;" horiz-adv-x="500" 
d="M197 708h66l-51 -358l243 189l-9 -62l-243 -189l-32 -228h330l-8 -60h-396l32 231l-81 -64l10 65l80 63z" />
    <glyph glyph-name="lslash" unicode="&#x142;" 
d="M145 391l51 365h60l-43 -305l96 86l-9 -67l-96 -85l-54 -385h-60l46 324l-96 -85l9 67z" />
    <glyph glyph-name="OE" unicode="&#x152;" horiz-adv-x="944" 
d="M171 305q0 -113 79.5 -179t195.5 -66h77l83 588h-70q-161 0 -263 -100.5t-102 -242.5zM545 708h432l-9 -60h-296l-35 -252h279l-9 -60h-279l-39 -276h304l-8 -60h-474q-135 0 -220.5 85.5t-85.5 212.5q0 176 127 293t313 117z" />
    <glyph glyph-name="oe" unicode="&#x153;" horiz-adv-x="907" 
d="M545 270h296q2 22 2 29q0 58 -33.5 89.5t-95.5 31.5q-65 0 -112 -42t-57 -108zM134 201q0 -69 40.5 -114t107.5 -45q87 0 143.5 67t56.5 157q0 69 -40 111.5t-108 42.5q-86 0 -143 -68t-57 -151zM341 474q138 0 182 -115q33 55 85 85t113 30q84 0 132 -45.5t48 -129.5
q0 -33 -8 -83h-356q-3 -23 -3 -38q0 -63 37 -99.5t102 -36.5q88 0 143 74l43 -34q-48 -51 -93 -72.5t-111 -21.5q-134 0 -166 114h-2q-36 -56 -92 -85t-123 -29q-89 0 -144 57t-55 145q0 115 77 199.5t191 84.5z" />
    <glyph glyph-name="Scaron" unicode="&#x160;" horiz-adv-x="556" 
d="M401 726q124 0 181 -89l-63 -41q-43 70 -128 70q-77 0 -128.5 -43t-51.5 -115q0 -40 27 -69t93 -49q32 -10 40.5 -13l35.5 -12.5t36 -15l28 -16.5t26 -21l17 -24.5t13.5 -32t3.5 -37.5q0 -105 -73 -170.5t-179 -65.5q-152 0 -213 107l68 42q41 -89 150 -89q77 0 128.5 46
t51.5 114q0 48 -36 73.5t-115 50.5q-85 26 -127 63t-42 106q0 107 75.5 169t181.5 62zM347 752l-89 144h62l67 -114l102 114h54l-126 -144h-70z" />
    <glyph glyph-name="scaron" unicode="&#x161;" horiz-adv-x="426" 
d="M272 474q118 0 150 -87l-58 -32q-26 65 -99 65q-41 0 -75.5 -23t-34.5 -62q0 -25 21 -40.5t75 -26.5q36 -7 58 -13.5t45.5 -18.5t35 -32.5t11.5 -48.5q0 -74 -54 -120.5t-135 -46.5q-131 0 -172 94l58 36q13 -35 46.5 -55.5t76.5 -20.5q48 0 83.5 28t35.5 69
q0 29 -27.5 46t-82.5 27q-71 15 -103.5 38t-32.5 74q0 64 52.5 107t125.5 43zM255 564l-89 144h62l67 -114l102 114h54l-126 -144h-70z" />
    <glyph glyph-name="Ydieresis" unicode="&#x178;" horiz-adv-x="574" 
d="M94 708h79l166 -336l267 336h74l-317 -403l-43 -305h-66l43 305zM506 888q19 0 30.5 -12.5t11.5 -30.5q0 -21 -17 -37t-38 -16q-19 0 -30.5 12t-11.5 28q0 23 16 39.5t39 16.5zM316 888q19 0 30.5 -12.5t11.5 -30.5q0 -21 -17 -37t-38 -16q-19 0 -30.5 12.5t-11.5 27.5
q0 23 16 39.5t39 16.5z" />
    <glyph glyph-name="Zcaron" unicode="&#x17d;" horiz-adv-x="556" 
d="M129 708h493l-8 -54l-501 -594h428l-8 -60h-510l7 52l498 596h-408zM346 752l-89 144h62l67 -114l102 114h54l-126 -144h-70z" />
    <glyph glyph-name="zcaron" unicode="&#x17e;" horiz-adv-x="426" 
d="M106 462h346l-5 -36l-328 -372h288l-8 -54h-372l5 36l329 372h-263zM255 564l-89 144h62l67 -114l102 114h54l-126 -144h-70z" />
    <glyph glyph-name="florin" unicode="&#x192;" horiz-adv-x="520" 
d="M500 720q48 0 86 -30l-38 -45q-27 21 -55 21q-66 0 -96 -89l-51 -158h108l-7 -48h-117l-126 -388q-41 -127 -159 -127q-52 0 -78 24l37 47q19 -17 50 -17q36 0 60 25.5t43 85.5l113 350h-108l7 48h117l53 160q47 141 161 141z" />
    <glyph glyph-name="circumflex" unicode="&#x2c6;" 
d="M185 708h70l87 -144h-65l-66 108l-96 -108h-59z" />
    <glyph glyph-name="caron" unicode="&#x2c7;" 
d="M162 564l-89 144h62l67 -114l102 114h54l-126 -144h-70z" />
    <glyph glyph-name="uni02C9" unicode="&#x2c9;" 
d="M79 654h264l-6 -48h-264z" />
    <glyph glyph-name="breve" unicode="&#x2d8;" 
d="M75 708h42q1 -39 25 -58.5t65 -19.5q45 0 72 17.5t42 60.5h42q-13 -58 -58.5 -92t-105.5 -34t-92.5 31.5t-32.5 80.5q0 3 0.5 7.5t0.5 6.5z" />
    <glyph glyph-name="dotaccent" unicode="&#x2d9;" 
d="M221 700q19 0 30.5 -12t11.5 -28q0 -22 -17 -39t-39 -17q-19 0 -30 12t-11 28q0 23 16.5 39.5t38.5 16.5z" />
    <glyph glyph-name="ring" unicode="&#x2da;" 
d="M153 637q0 -19 13 -33t36 -14q27 0 47 20.5t20 47.5q0 21 -14 35.5t-36 14.5q-28 0 -47 -21.5t-19 -49.5zM225 744q34 0 57 -24t23 -58q0 -41 -33 -74.5t-74 -33.5q-34 0 -57.5 23.5t-23.5 57.5q0 43 32 76t76 33z" />
    <glyph glyph-name="ogonek" unicode="&#x2db;" 
d="M98 0h45q-34 -22 -63 -60.5t-29 -71.5q0 -36 38 -36q35 0 58 23l14 -38q-43 -33 -90 -33q-38 0 -59 19t-21 47q0 43 27.5 77.5t79.5 72.5z" />
    <glyph glyph-name="tilde" unicode="&#x2dc;" 
d="M150 683q25 0 69.5 -24t61.5 -24q40 0 55 48h36q-12 -47 -38.5 -74.5t-59.5 -27.5q-28 0 -72 24t-63 24q-39 0 -57 -48h-36q12 43 40.5 72.5t63.5 29.5z" />
    <glyph glyph-name="hungarumlaut" unicode="&#x2dd;" 
d="M338 708h80l-154 -144h-50zM192 708h80l-154 -144h-50z" />
    <glyph glyph-name="uni03A9" unicode="&#x3a9;" horiz-adv-x="744" 
d="M468 721q120 0 199 -73t79 -188q0 -108 -66 -201t-173 -119l-11 -82h197l-8 -58h-251l25 181q100 15 159.5 93.5t59.5 178.5q0 94 -62 150.5t-158 56.5q-119 0 -204 -83.5t-85 -203.5q0 -77 40 -129t114 -63l-25 -181h-251l8 58h197l11 82q-77 21 -119 83.5t-42 145.5
q0 99 51.5 180.5t135.5 126.5t179 45z" />
    <glyph glyph-name="uni03BC" unicode="&#x3bc;" horiz-adv-x="556" 
d="M43 -228l97 690h60l-38 -274q-3 -22 -3 -42q0 -104 98 -104q75 0 124.5 50.5t62.5 142.5l32 227h60l-41 -289q-12 -83 -19 -173h-60q7 57 7 76v5h-3q-26 -42 -72.5 -67.5t-98.5 -25.5q-74 0 -111 38l-36 -254h-59z" />
    <glyph glyph-name="pi" unicode="&#x3c0;" horiz-adv-x="563" 
d="M102 462h482l-6 -47h-76l-43 -303q-4 -24 -4 -41q0 -33 38 -33q16 0 37 7l-5 -36q-37 -15 -61 -15q-63 0 -63 60q0 11 12 100l37 261h-232l-58 -415h-52l58 415h-70z" />
    <glyph glyph-name="uni1E9E" unicode="&#x1e9e;" horiz-adv-x="657" 
d="M638 716l-8 -59q-93 0 -150 -38.5t-57 -101.5q0 -11 1.5 -21t6 -19.5t7.5 -16.5t11.5 -16.5t12.5 -14.5t15.5 -15t16 -13.5l18.5 -15t18 -14.5q57 -46 84 -83.5t27 -91.5q0 -98 -64 -156t-164 -58q-113 0 -175 90l62 44q39 -74 123 -74q67 0 109.5 42t42.5 104
q0 41 -21 69.5t-72 67.5q-68 53 -96.5 88.5t-28.5 88.5q0 112 121 167h-19q-105 0 -159 -36.5t-68 -138.5l-69 -494h-66l71 507q17 121 85.5 170t199.5 49q68 0 185 -10z" />
    <glyph glyph-name="endash" unicode="&#x2013;" horiz-adv-x="500" 
d="M37 264h500l-7 -54h-500z" />
    <glyph glyph-name="emdash" unicode="&#x2014;" horiz-adv-x="1000" 
d="M37 264h1000l-7 -54h-1000z" />
    <glyph glyph-name="quoteleft" unicode="&#x2018;" horiz-adv-x="260" 
d="M129 480l109 228h60l-97 -228h-72z" />
    <glyph glyph-name="quoteright" unicode="&#x2019;" horiz-adv-x="260" 
d="M225 708h73l-110 -228h-59z" />
    <glyph glyph-name="quotesinglbase" unicode="&#x201a;" horiz-adv-x="260" 
d="M138 90h73l-109 -228h-59z" />
    <glyph glyph-name="quotedblleft" unicode="&#x201c;" horiz-adv-x="520" 
d="M346 480l110 228h59l-96 -228h-73zM172 480l110 228h59l-96 -228h-73z" />
    <glyph glyph-name="quotedblright" unicode="&#x201d;" horiz-adv-x="520" 
d="M442 708h73l-110 -228h-59zM268 708h73l-110 -228h-59z" />
    <glyph glyph-name="quotedblbase" unicode="&#x201e;" horiz-adv-x="520" 
d="M355 90h73l-109 -228h-59zM181 90h73l-109 -228h-59z" />
    <glyph glyph-name="dagger" unicode="&#x2020;" horiz-adv-x="520" 
d="M302 509l28 199h60l-28 -199h192l-7 -48h-192l-83 -587h-60l83 587h-192l7 48h192z" />
    <glyph glyph-name="daggerdbl" unicode="&#x2021;" horiz-adv-x="520" 
d="M302 509l28 199h60l-28 -199h192l-7 -48h-192l-48 -340h192l-7 -48h-192l-28 -199h-60l28 199h-192l7 48h192l48 340h-192l7 48h192z" />
    <glyph glyph-name="bullet" unicode="&#x2022;" horiz-adv-x="500" 
d="M325 531q65 0 109.5 -43.5t44.5 -107.5q0 -80 -61.5 -141.5t-142.5 -61.5q-66 0 -110 43t-44 108q0 84 62 143.5t142 59.5z" />
    <glyph glyph-name="ellipsis" unicode="&#x2026;" horiz-adv-x="1000" 
d="M179 90q19 0 30.5 -11.5t11.5 -27.5q0 -23 -16.5 -40t-39.5 -17q-19 0 -30 11.5t-11 28.5q0 23 16 39.5t39 16.5zM513 90q19 0 30.5 -11.5t11.5 -27.5q0 -23 -16.5 -40t-39.5 -17q-19 0 -30 11.5t-11 28.5q0 23 16 39.5t39 16.5zM846 90q19 0 30.5 -11.5t11.5 -27.5
q0 -23 -16.5 -40t-39.5 -17q-19 0 -30 11.5t-11 28.5q0 23 16 39.5t39 16.5z" />
    <glyph glyph-name="perthousand" unicode="&#x2030;" horiz-adv-x="981" 
d="M153 552q0 -39 26 -64.5t65 -25.5q48 0 84.5 36t36.5 84q0 38 -26.5 64t-66.5 26q-47 0 -83 -35.5t-36 -84.5zM280 720q56 0 94.5 -38t38.5 -96q0 -67 -53.5 -119.5t-122.5 -52.5q-57 0 -95 38.5t-38 92.5q0 69 53 122t123 53zM65 -6l561 748l42 -28l-562 -748zM373 126
q0 -39 26 -64.5t65 -25.5q48 0 84.5 36t36.5 84q0 39 -26 64.5t-67 25.5q-46 0 -82.5 -35.5t-36.5 -84.5zM500 294q56 0 94.5 -37t38.5 -95q0 -68 -53.5 -121t-122.5 -53q-57 0 -95 38.5t-38 92.5q0 69 53 122t123 53zM716 126q0 -39 26 -64.5t65 -25.5q48 0 84.5 36
t36.5 84q0 39 -26 64.5t-67 25.5q-46 0 -82.5 -35.5t-36.5 -84.5zM843 294q56 0 94.5 -37t38.5 -95q0 -68 -53 -121t-123 -53q-57 0 -95 38.5t-38 92.5q0 69 53 122t123 53z" />
    <glyph glyph-name="guilsinglleft" unicode="&#x2039;" horiz-adv-x="315" 
d="M96 237l166 203l38 -29l-141 -174l94 -176l-48 -27z" />
    <glyph glyph-name="guilsinglright" unicode="&#x203a;" horiz-adv-x="315" 
d="M129 413l48 27l108 -203l-165 -203l-38 29l140 174z" />
    <glyph glyph-name="fraction" unicode="&#x2044;" horiz-adv-x="168" 
d="M-167 -6l560 748l42 -28l-561 -748z" />
    <glyph glyph-name="Euro" unicode="&#x20ac;" horiz-adv-x="470" 
d="M438 724q61 0 101 -20l-23 -55q-33 18 -83 18q-143 0 -209 -206h223l-19 -48h-218q-12 -31 -19 -116h200l-18 -48h-183v-13q0 -79 36 -136t111 -57q51 0 101 27l4 -57q-51 -29 -122 -29q-94 0 -146 69.5t-52 195.5h-63l19 48h47q0 17 6.5 60.5t12.5 55.5h-59l17 48h52
q84 263 284 263z" />
    <glyph glyph-name="uni20B9" unicode="&#x20b9;" horiz-adv-x="520" 
d="M182 708h429l-7 -48h-180q50 -39 47 -111h118l-7 -48h-116q-21 -92 -86 -127t-174 -35l193 -339h-74l-195 350l6 40h68q41 0 69 4t55.5 15t46 33.5t29.5 58.5h-252l7 48h250q6 58 -38 84.5t-117 26.5h-79z" />
    <glyph glyph-name="uni20BA" unicode="&#x20ba;" horiz-adv-x="520" 
d="M441 434l-218 -89l-42 -297q18 -2 32 -2q120 0 178.5 80t80.5 226h62q-12 -83 -34 -145.5t-59 -112.5t-94 -76t-132 -26q-79 0 -100 8l44 314l1 5l-102 -41l8 55l101 41l15 104v4l-104 -42l8 55l104 42l24 171h60l-21 -145l216 88l-8 -55l-215 -88l-15 -108l218 89z" />
    <glyph glyph-name="afii61289" unicode="&#x2113;" horiz-adv-x="500" 
d="M298 557l-34 -239q71 68 118.5 149t47.5 145q0 28 -11.5 47.5t-37.5 19.5q-24 0 -49 -28t-34 -94zM387 715q43 0 66 -27t23 -69q0 -150 -218 -342l-20 -140q-3 -26 -3 -35q0 -33 18.5 -51.5t51.5 -18.5q43 0 92 34l15 -24q-62 -50 -129 -50q-52 0 -78.5 25t-26.5 68
q0 13 3 37l17 121l-73 -68l-17 28l96 82l36 260q10 71 48.5 120.5t98.5 49.5z" />
    <glyph glyph-name="trademark" unicode="&#x2122;" horiz-adv-x="990" 
d="M578 708h86l83 -328l176 328h83l-58 -412h-54l50 361h-2l-192 -361h-32l-92 361h-2l-50 -361h-54zM184 708h320l-7 -48h-133l-51 -364h-54l51 364h-133z" />
    <glyph glyph-name="Omega" unicode="&#x2126;" horiz-adv-x="744" 
d="M468 721q120 0 199 -73t79 -188q0 -108 -66 -201t-173 -119l-11 -82h197l-8 -58h-251l25 181q100 15 159.5 93.5t59.5 178.5q0 94 -62 150.5t-158 56.5q-119 0 -204 -83.5t-85 -203.5q0 -77 40 -129t114 -63l-25 -181h-251l8 58h197l11 82q-77 21 -119 83.5t-42 145.5
q0 99 51.5 180.5t135.5 126.5t179 45z" />
    <glyph glyph-name="estimated" unicode="&#x212e;" horiz-adv-x="976" 
d="M900 341h-667q-6 0 -6 -6v-190q0 -21 8 -30q85 -108 251 -108q82 0 145.5 30.5t123.5 87.5h72q-63 -76 -138.5 -110t-199.5 -34q-190 0 -302 105t-112 257q0 73 29 141.5t80.5 121.5t130.5 85t172 32q92 0 164.5 -23t118 -60.5t76 -88.5t42.5 -102.5t12 -107.5zM749 368
v194q0 14 -12 28q-47 58 -116.5 82.5t-137.5 24.5q-144 0 -246 -105q-10 -12 -10 -29v-195q0 -6 6 -6h510q6 0 6 6z" />
    <glyph glyph-name="partialdiff" unicode="&#x2202;" horiz-adv-x="496" 
d="M121 182q0 -60 29.5 -100.5t85.5 -40.5q74 0 121.5 70.5t67.5 166.5q-30 43 -63.5 67t-80.5 24q-72 0 -116 -56.5t-44 -130.5zM312 721q72 0 118.5 -38.5t64 -95.5t17.5 -133q0 -49 -8 -105.5t-28.5 -122t-51 -117.5t-81.5 -86.5t-115 -34.5q-80 0 -125 52.5t-45 134.5
q0 101 63 175.5t163 74.5q48 0 88.5 -22.5t65.5 -61.5q14 75 14 119q0 38 -7 71.5t-22.5 65.5t-45.5 50.5t-71 18.5q-23 0 -44.5 -7t-34.5 -14.5t-39 -24.5l-30 43q73 58 154 58z" />
    <glyph glyph-name="Delta" unicode="&#x2206;" horiz-adv-x="670" 
d="M422 645l-308 -583h455zM396 712h74l187 -712h-642z" />
    <glyph glyph-name="product" unicode="&#x220f;" horiz-adv-x="711" 
d="M71 786h570v-1000h-66v938h-438v-938h-66v1000z" />
    <glyph glyph-name="summation" unicode="&#x2211;" horiz-adv-x="604" 
d="M39 786h527v-62h-442l309 -435l-328 -442h473v-61h-553v55l329 448l-315 441v56z" />
    <glyph glyph-name="minus" unicode="&#x2212;" horiz-adv-x="666" 
d="M123 327h510l-6 -48h-510z" />
    <glyph glyph-name="uni2215" unicode="&#x2215;" horiz-adv-x="168" 
d="M-167 -6l456 748l46 -28l-457 -748z" />
    <glyph glyph-name="uni2219" unicode="&#x2219;" horiz-adv-x="260" 
d="M181 366q19 0 31 -12.5t12 -30.5q0 -21 -17 -37t-39 -16q-19 0 -30.5 11.5t-11.5 28.5q0 23 16.5 39.5t38.5 16.5z" />
    <glyph glyph-name="radical" unicode="&#x221a;" horiz-adv-x="493" 
d="M439 786h63l-210 -1000h-66l-164 340l-46 -22l-24 50l100 48l158 -331z" />
    <glyph glyph-name="infinity" unicode="&#x221e;" horiz-adv-x="741" 
d="M98 250q0 -39 22.5 -63.5t61.5 -24.5q57 0 151 87q-4 4 -20 17l-21 17l-18.5 15t-19.5 14.5l-18 10.5t-20 9.5t-18 5t-20 2.5q-36 0 -58 -26.5t-22 -63.5zM409 248q8 -6 26 -21.5t25.5 -21.5t22.5 -16.5t25.5 -15t25 -8t29.5 -3.5q37 0 58.5 24.5t21.5 62.5
q0 41 -21 66.5t-62 25.5q-13 0 -28.5 -5.5t-27 -11.5t-28.5 -19l-24.5 -19t-24 -21t-18.5 -17zM558 398q63 0 102.5 -41.5t39.5 -104.5t-38.5 -105.5t-101.5 -42.5q-50 0 -91 26t-98 81q-74 -65 -111 -86t-79 -21q-62 0 -101 41.5t-39 103.5q0 63 38.5 105.5t99.5 42.5
q34 0 68.5 -17t56.5 -35t67 -60q59 61 101.5 87t85.5 26z" />
    <glyph glyph-name="integral" unicode="&#x222b;" horiz-adv-x="543" 
d="M336 786q31 0 50.5 -13t19.5 -37q0 -16 -10.5 -25t-26.5 -9q-20 0 -32.5 20t-19.5 20q-36 0 -36 -112q0 -13 1 -39t1 -40v-534q0 -124 -31 -177t-92 -53q-24 0 -41.5 12t-17.5 35q0 14 9.5 23t23.5 9t23 -9.5t15 -19t12 -9.5q15 0 23.5 34t8.5 72q0 11 0.5 40.5t0.5 42.5
v486q0 17 -0.5 52.5t-0.5 41.5q0 189 120 189z" />
    <glyph glyph-name="approxequal" unicode="&#x2248;" horiz-adv-x="666" 
d="M588 226h32q-39 -126 -134 -126q-43 0 -134.5 36.5t-132.5 36.5q-33 0 -59 -23.5t-36 -56.5h-33q37 128 134 128q44 0 137 -36.5t132 -36.5q67 0 94 78zM612 397h32q-17 -60 -52 -93t-82 -33q-44 0 -135.5 36.5t-131.5 36.5q-34 0 -58.5 -23t-36.5 -57h-33
q36 128 134 128q45 0 137.5 -36.5t132.5 -36.5q66 0 93 78z" />
    <glyph glyph-name="notequal" unicode="&#x2260;" horiz-adv-x="666" 
d="M418 364l97 145l38 -22l-82 -123h158l-7 -48h-183l-96 -142h259l-7 -48h-284l-95 -142l-39 21l81 121h-153l7 48h178l95 142h-253l7 48h279z" />
    <glyph glyph-name="lessequal" unicode="&#x2264;" horiz-adv-x="666" 
d="M96 59h490l-7 -47h-490zM138 357l516 184l-8 -52l-453 -161l408 -160l-7 -51l-464 184z" />
    <glyph glyph-name="greaterequal" unicode="&#x2265;" horiz-adv-x="666" 
d="M96 59h490l-7 -47h-490zM156 489l8 52l464 -184l-8 -56l-516 -184l7 51l454 160z" />
    <glyph glyph-name="lozenge" unicode="&#x25ca;" horiz-adv-x="593" 
d="M296 681l-136 -325l136 -325l137 325zM264 747h63l171 -391l-171 -391h-63l-169 390z" />
    <glyph glyph-name="grave.cap" 
d="M119 896h80l84 -144h-50z" />
    <glyph glyph-name="acute.cap" 
d="M291 896h80l-154 -144h-50z" />
    <glyph glyph-name="circumflex.cap" 
d="M210 896h70l88 -144h-65l-66 108l-96 -108h-59z" />
    <glyph glyph-name="caron.cap" 
d="M188 752l-89 144h62l67 -114l102 114h54l-126 -144h-70z" />
    <glyph glyph-name="tilde.cap" 
d="M176 871q25 0 69.5 -24t61.5 -24q38 0 55 48h36q-13 -49 -39 -75.5t-59 -26.5q-26 0 -72.5 24t-62.5 24q-21 0 -33 -12.5t-24 -35.5h-36q10 41 39 71.5t65 30.5z" />
    <glyph glyph-name="dieresis.cap" 
d="M339 888q19 0 30.5 -12.5t11.5 -30.5q0 -21 -17 -37t-38 -16q-19 0 -30.5 12t-11.5 28q0 23 16 39.5t39 16.5zM149 888q19 0 30.5 -12.5t11.5 -30.5q0 -21 -17 -37t-38 -16q-19 0 -30.5 12.5t-11.5 27.5q0 23 16 39.5t39 16.5z" />
    <glyph glyph-name="macron.cap" 
d="M107 847h264l-7 -48h-264z" />
    <glyph glyph-name="breve.cap" 
d="M99 881h42q1 -39 25 -58.5t65 -19.5q45 0 72 17.5t42 60.5h42q-13 -58 -58.5 -92t-105.5 -34t-92.5 31.5t-32.5 80.5q0 3 0.5 7t0.5 7z" />
    <glyph glyph-name="ring.cap" 
d="M179 825q0 -19 13 -33t36 -14q27 0 47 20.5t20 47.5q0 22 -13.5 36t-36.5 14q-28 0 -47 -21.5t-19 -49.5zM251 932q34 0 57 -24t23 -58q0 -41 -32.5 -74.5t-74.5 -33.5q-34 0 -57.5 23.5t-23.5 57.5q0 43 32 76t76 33z" />
    <glyph glyph-name="hungarumlaut.cap" 
d="M364 896h80l-154 -144h-50zM218 896h80l-154 -144h-50z" />
    <glyph glyph-name="dotaccent.cap" 
d="M247 888q19 0 30.5 -12t11.5 -28q0 -22 -17 -39t-39 -17q-19 0 -30 12t-11 28q0 23 16.5 39.5t38.5 16.5z" />
    </font>
</defs>
</svg>
