<?xml version="1.0" standalone="no"?>
<!DOCTYPE svg PUBLIC "-//W3C//DTD SVG 1.1//EN" "http://www.w3.org/Graphics/SVG/1.1/DTD/svg11.dtd" >
<svg>
<metadata>
Created by FontForge 20090622 at Tue Apr  4 14:12:55 2017
 By deploy user
Digitized data copyright The Monotype Corporation 1991-1997. All rights reserved. Twentieth Century&#226;&#132;&#162; is a trademark of The Monotype Corporation which may be registered in certain jurisdictions.
</metadata>
<defs>
<font id="TwCenMT-CondensedBold" horiz-adv-x="897" >
  <font-face 
    font-family="Tw Cen MT Condensed"
    font-weight="700"
    font-stretch="normal"
    units-per-em="2048"
    panose-1="2 11 8 6 2 1 4 2 2 3"
    ascent="1638"
    descent="-410"
    x-height="856"
    cap-height="1249"
    bbox="-268 -477 2077 1878"
    underline-thickness="120"
    underline-position="-94"
    unicode-range="U+0020-U+F002"
  />
<missing-glyph horiz-adv-x="2048" 
d="M256 0v1536h1536v-1536h-1536zM384 128h1280v1280h-1280v-1280z" />
    <glyph glyph-name=".notdef" horiz-adv-x="2048" 
d="M256 0v1536h1536v-1536h-1536zM384 128h1280v1280h-1280v-1280z" />
    <glyph glyph-name=".null" horiz-adv-x="0" 
 />
    <glyph glyph-name="nonmarkingreturn" horiz-adv-x="449" 
 />
    <glyph glyph-name="space" unicode=" " horiz-adv-x="449" 
 />
    <glyph glyph-name="exclam" unicode="!" horiz-adv-x="469" 
d="M375 369h-244v882h244v-882zM252 270q61 0 104 -43t43 -104t-43 -104.5t-104 -43.5t-104.5 43.5t-43.5 104.5t43.5 104t104.5 43z" />
    <glyph glyph-name="quotedbl" unicode="&#x22;" horiz-adv-x="727" 
d="M633 1227l-49 -281h-109l-47 281v239h205v-239zM301 1227l-47 -281h-109l-51 281v239h207v-239z" />
    <glyph glyph-name="numbersign" unicode="#" horiz-adv-x="1368" 
d="M1282 350h-317l-84 -395h-146l86 395h-403l-82 -395h-143l81 395h-188v144h219l72 350h-291v143h320l86 397h143l-86 -397h401l84 397h144l-86 -397h190v-143h-217l-74 -350h291v-144zM922 844h-402l-71 -348h401z" />
    <glyph glyph-name="dollar" unicode="$" 
d="M752 936q-156 111 -254 111q-53 0 -85 -29t-32 -76q0 -55 41.5 -109.5t140.5 -136.5q94 -78 142.5 -138t71 -115.5t22.5 -135.5q0 -259 -273 -321v-201h-135v199q-123 4 -268 102v264q65 -76 128.5 -110.5t149.5 -34.5q69 0 107.5 29.5t38.5 80.5q0 31 -30 75t-169 167.5
t-181 223t-42 186.5q0 104 75.5 187t190.5 93v88h139v-88q108 -8 222 -61v-250z" />
    <glyph glyph-name="percent" unicode="%" horiz-adv-x="1409" 
d="M356 1278q256 0 256 -328q0 -155 -69 -241t-193 -86q-260 0 -260 325q0 330 266 330zM352 1106q-67 0 -67 -158q0 -151 67 -151q66 0 66 151q0 158 -64 158h-2zM1110 1276l-631 -1311h-155l634 1311h152zM1083 621q265 0 265 -338q0 -153 -67 -236.5t-187 -83.5
q-265 0 -265 334q0 157 66 240.5t188 83.5zM1094 133q61 0 61 146q0 170 -63 170q-68 0 -68 -156q0 -160 70 -160z" />
    <glyph glyph-name="ampersand" unicode="&#x26;" horiz-adv-x="1130" 
d="M1100 375q-21 -27 -160 -166l139 -209h-282l-45 68q-148 -93 -295 -93q-150 0 -253.5 102t-103.5 251q0 171 238 342q-117 183 -117 293q0 114 87 191t218 77q138 0 225 -75.5t87 -194.5q0 -172 -183 -336l158 -232q84 81 137 146zM520 795q98 57 98 147q0 48 -24 78.5
t-62 30.5t-64 -26.5t-26 -66.5q0 -45 78 -163zM627 248l-172 252q-103 -75 -103 -156q0 -51 46.5 -99t103.5 -48q52 0 125 51z" />
    <glyph glyph-name="quotesingle" unicode="'" horiz-adv-x="391" 
d="M299 1221l-49 -275h-111l-47 275v245h207v-245z" />
    <glyph glyph-name="parenleft" unicode="(" horiz-adv-x="492" 
d="M449 -289l-170 -88q-99 195 -151 440t-52 398q0 192 50.5 427.5t156.5 436.5l166 -90q-90 -173 -133.5 -378.5t-43.5 -381.5q0 -140 32.5 -330t96.5 -338z" />
    <glyph glyph-name="parenright" unicode=")" horiz-adv-x="492" 
d="M240 1327q86 -155 144 -401.5t58 -436.5q0 -216 -61 -457.5t-145 -406.5l-170 88q89 163 134.5 369.5t45.5 392.5q0 179 -48 398.5t-130 361.5z" />
    <glyph glyph-name="asterisk" unicode="*" horiz-adv-x="688" 
d="M385 1010q37 17 76 69.5t60 67t50 14.5q26 0 48 -23.5t22 -52.5q0 -33 -24 -55.5t-62 -23.5q-116 -7 -145 -33q53 -25 112 -31q117 -12 117 -80q0 -33 -20.5 -55.5t-51.5 -22.5q-50 0 -96.5 70t-75.5 88q-2 -6 -2 -12q0 -38 29 -99.5t29 -87.5q0 -24 -19.5 -46.5
t-58.5 -22.5q-72 0 -72 78q0 28 24 78.5t27 111.5q-35 -17 -78 -80q-52 -80 -96 -80q-32 0 -56 23t-24 55q0 84 142 84h18q32 0 70 25q-7 9 -22 15.5t-38 9.5l-47 5q-123 10 -123 82q0 31 23 54.5t53 23.5q47 0 93 -66t77 -83l2 18q0 30 -26.5 84.5t-26.5 81.5
q0 35 20.5 56.5t53.5 21.5q35 0 56 -20t21 -52q0 -25 -29.5 -90.5t-29.5 -99.5z" />
    <glyph glyph-name="plus" unicode="+" horiz-adv-x="1366" 
d="M1231 588h-471v-467h-158v467h-467v157h467v469h158v-469h471v-157z" />
    <glyph glyph-name="comma" unicode="," horiz-adv-x="469" 
d="M434 272l-205 -532h-155l125 532h235z" />
    <glyph glyph-name="hyphen" unicode="-" horiz-adv-x="469" 
d="M436 332h-366v200h366v-200z" />
    <glyph glyph-name="period" unicode="." horiz-adv-x="469" 
d="M252 270q60 0 103.5 -43t43.5 -104t-43.5 -104.5t-103.5 -43.5q-61 0 -104.5 43.5t-43.5 104.5t43.5 104t104.5 43z" />
    <glyph glyph-name="slash" unicode="/" horiz-adv-x="641" 
d="M600 1325l-379 -1702h-145l379 1702h145z" />
    <glyph glyph-name="zero" unicode="0" 
d="M469 1278q162 0 262 -143t100 -502q0 -333 -91.5 -495.5t-280.5 -162.5q-161 0 -263 145t-102 498q0 376 105 518t266 142h4zM463 1034q-42 0 -75.5 -48.5t-33.5 -340.5q0 -322 34.5 -372t76.5 -50q64 0 86 82.5t22 278.5v63q0 247 -27 317t-81 70h-2z" />
    <glyph glyph-name="one" unicode="1" 
d="M598 0h-244v1020h-145v229h389v-1249z" />
    <glyph glyph-name="two" unicode="2" 
d="M106 793l5 100q5 141 44 219t129.5 121t194.5 43q163 0 260 -91.5t97 -244.5q0 -88 -40 -185.5t-134 -240.5l-179 -270h310v-244h-699v82l422 647q16 25 37.5 87t21.5 102q0 60 -30.5 96.5t-81.5 36.5q-60 0 -92.5 -52t-32.5 -147v-59h-232z" />
    <glyph glyph-name="three" unicode="3" 
d="M674 662q80 -43 115.5 -110t35.5 -190q0 -387 -374 -387q-149 0 -250 83.5t-101 299.5h258q1 -85 22 -125t85 -40q104 0 104 157q0 195 -145 195h-51v213q134 2 168 46.5t34 121.5q0 151 -108 151q-47 0 -65.5 -40t-20.5 -126h-231q0 194 87.5 280.5t245.5 86.5
q152 0 239 -86t87 -238q0 -106 -31.5 -169t-103.5 -123z" />
    <glyph glyph-name="four" unicode="4" 
d="M840 297h-113v-297h-225v297h-420v141l367 811h278v-770h113v-182zM502 479v506h-4l-226 -506h230z" />
    <glyph glyph-name="five" unicode="5" 
d="M395 811q198 -13 294.5 -121.5t96.5 -279.5q0 -199 -114.5 -317t-306.5 -118q-136 0 -281 68l37 242q136 -82 225 -82q83 0 132.5 57t49.5 152q0 93 -67 146.5t-187 53.5q-54 0 -116 -8l65 647h535v-233h-342z" />
    <glyph glyph-name="six" unicode="6" 
d="M446 772q46 16 86 16q302 0 302 -389q0 -195 -100.5 -309.5t-270.5 -114.5q-175 0 -271 131t-96 297q0 302 314 848h276q-176 -311 -240 -479zM465 193q61 0 85.5 49.5t24.5 165.5q0 102 -25 149t-81 47q-111 0 -111 -217q0 -194 107 -194z" />
    <glyph glyph-name="seven" unicode="7" 
d="M850 1171l-438 -1171h-262l382 1020h-395v229h713v-78z" />
    <glyph glyph-name="eight" unicode="8" 
d="M641 672q103 -27 148 -118.5t45 -209.5q0 -162 -84 -265.5t-291 -103.5q-202 0 -282.5 109.5t-80.5 265.5q0 264 193 322q-158 75 -158 280q0 150 89 235t245 85q158 0 246 -85.5t88 -238.5q0 -215 -158 -272v-4zM473 766q96 0 96 154q0 71 -27 111t-75 40
q-102 0 -102 -147q0 -158 108 -158zM465 184q113 0 113 183q0 95 -26 138.5t-83 43.5q-117 0 -117 -178q0 -187 113 -187z" />
    <glyph glyph-name="nine" unicode="9" 
d="M483 477q-59 -14 -94 -14q-139 0 -216 101.5t-77 287.5q0 196 102.5 310t278.5 114q158 0 256 -121t98 -317q0 -141 -82 -365t-231 -473h-278q159 260 243 477zM469 649q106 0 106 213q0 199 -106 199q-65 0 -90 -49t-25 -166q0 -103 27.5 -150t87.5 -47z" />
    <glyph glyph-name="colon" unicode=":" horiz-adv-x="469" 
d="M254 817q61 0 103 -42.5t42 -102.5q0 -62 -42 -105t-103 -43t-103 43t-42 105q0 60 42 102.5t103 42.5zM254 268q61 0 104 -42.5t43 -102.5q0 -61 -43 -104.5t-104 -43.5q-60 0 -102.5 43.5t-42.5 104.5q0 59 42.5 102t102.5 43z" />
    <glyph glyph-name="semicolon" unicode=";" horiz-adv-x="469" 
d="M297 817q60 0 102.5 -43t42.5 -102q0 -61 -42.5 -104.5t-102.5 -43.5q-61 0 -104 43.5t-43 104.5q0 60 43 102.5t104 42.5zM418 266l-209 -528h-154l125 528h238z" />
    <glyph glyph-name="less" unicode="&#x3c;" horiz-adv-x="1366" 
d="M1229 137l-1094 459v143l1094 459v-170l-881 -360l881 -361v-170z" />
    <glyph glyph-name="equal" unicode="=" horiz-adv-x="1366" 
d="M1231 827h-1096v158h1096v-158zM1231 354h-1096v158h1096v-158z" />
    <glyph glyph-name="greater" unicode="&#x3e;" horiz-adv-x="1366" 
d="M1229 596l-1094 -459v170l883 359l-883 360v172l1094 -461v-141z" />
    <glyph glyph-name="question" unicode="?" horiz-adv-x="854" 
d="M105 958q-1 151 80 234.5t267 83.5q177 0 256 -84.5t79 -271.5q0 -177 -51.5 -265.5t-189.5 -115.5v-170h-244v319h53q106 0 142 44t36 167q0 94 -19 135t-67 41q-81 0 -84 -117h-258zM423 270q59 0 102 -42.5t43 -102.5q0 -61 -42.5 -104.5t-102.5 -43.5
q-61 0 -104.5 43.5t-43.5 104.5q0 60 43.5 102.5t104.5 42.5z" />
    <glyph glyph-name="at" unicode="@" horiz-adv-x="1997" 
d="M1987 18q-110 -219 -337 -333.5t-542 -114.5h-6q-490 0 -767.5 243t-277.5 668q0 290 140 536t373 360t511 114q381 0 616.5 -214t235.5 -556q0 -294 -195.5 -507.5t-463.5 -213.5q-159 0 -184 115q-118 -115 -271 -115q-172 0 -278.5 118t-106.5 310q0 236 150 445.5
t391 209.5q175 0 264 -135l25 111h262l-150 -717q-14 -67 -14 -90q0 -47 39 -47q52 0 140 69.5t150 193t62 263.5q0 259 -185.5 418.5t-490.5 159.5q-266 0 -458 -112t-285.5 -315.5t-93.5 -412.5q0 -331 226.5 -524t618.5 -193q479 0 689 266h213zM692 416
q0 -107 49 -170.5t129 -63.5q143 0 228.5 161t85.5 327q0 107 -51 170t-136 63q-126 0 -215.5 -134.5t-89.5 -338.5v-14z" />
    <glyph glyph-name="A" unicode="A" horiz-adv-x="1024" 
d="M999 0h-264l-41 195h-329l-46 -195h-264l357 1249h274zM655 397l-110 545h-4l-127 -545h241z" />
    <glyph glyph-name="B" unicode="B" horiz-adv-x="981" 
d="M723 629q109 -50 153 -123t44 -191q0 -133 -95.5 -224t-234.5 -91h-447v1249h383q162 0 265.5 -89.5t103.5 -227.5q0 -112 -41 -182t-131 -121zM414 721h55q68 0 108.5 43.5t40.5 116.5q0 168 -169 168h-35v-328zM414 203l78 2q69 1 107 43t38 119q0 165 -168 165h-55
v-329z" />
    <glyph glyph-name="C" unicode="C" 
d="M854 20q-103 -45 -229 -45q-226 0 -377.5 165t-151.5 481q0 326 150 490.5t350 164.5q120 0 256 -62v-262q-106 54 -137.5 61t-67.5 7q-106 0 -186 -88t-80 -303q0 -225 77.5 -311.5t192.5 -86.5q94 0 203 74v-285z" />
    <glyph glyph-name="D" unicode="D" horiz-adv-x="1044" 
d="M135 1249h299q250 0 397.5 -160t147.5 -460q0 -303 -144 -466t-411 -163h-289v1249zM408 1024v-797h32q81 0 168.5 66t87.5 315q0 184 -32.5 262t-95.5 116t-130 38h-30z" />
    <glyph glyph-name="E" unicode="E" horiz-adv-x="811" 
d="M754 0h-623v1249h584v-241h-316v-254h271v-232h-271v-276h355v-246z" />
    <glyph glyph-name="F" unicode="F" horiz-adv-x="768" 
d="M717 1006h-316v-256h271v-232h-271v-518h-268v1249h584v-243z" />
    <glyph glyph-name="G" unicode="G" horiz-adv-x="1067" 
d="M1006 504q0 -80 -38 -205.5t-146.5 -224.5t-256.5 -99q-459 0 -459 660q0 312 119.5 477.5t339.5 165.5q317 0 383 -311l-237 -103q-7 168 -152 168q-63 0 -102.5 -39.5t-51.5 -109.5t-12 -240q0 -200 13 -274.5t53 -112t104 -37.5q150 0 160 248h-166v242h449v-205z" />
    <glyph glyph-name="H" unicode="H" horiz-adv-x="1024" 
d="M129 1249h270v-477h252v477h271v-1249h-271v528h-250v-528h-272v1249z" />
    <glyph glyph-name="I" unicode="I" horiz-adv-x="555" 
d="M156 1249h270v-1249h-270v1249z" />
    <glyph glyph-name="J" unicode="J" horiz-adv-x="725" 
d="M627 373q0 -209 -81.5 -303.5t-262.5 -94.5q-64 0 -106 12.5t-122 55.5v276q9 -3 31 -20q92 -68 162 -68q108 0 108 160v858h271v-876z" />
    <glyph glyph-name="K" unicode="K" horiz-adv-x="981" 
d="M948 0h-286l-250 631h-4v-631h-273v1249h273v-571h4l239 571h277l-264 -596z" />
    <glyph glyph-name="L" unicode="L" horiz-adv-x="748" 
d="M717 0h-584v1249h268v-1003h316v-246z" />
    <glyph glyph-name="M" unicode="M" horiz-adv-x="1323" 
d="M1282 0h-256l-61 1022h-4l-191 -1022h-192l-181 1028h-4l-69 -1028h-258l129 1249h340l137 -823h4l151 823h334z" />
    <glyph glyph-name="N" unicode="N" horiz-adv-x="1110" 
d="M1004 0h-285l-318 788h-4v-788h-262v1251h295l313 -776h5v776h256v-1251z" />
    <glyph glyph-name="O" unicode="O" horiz-adv-x="1067" 
d="M102 631q0 263 57 386t151.5 191t238.5 68q119 0 192 -39.5t135.5 -115t91.5 -187t29 -295.5q0 -377 -125.5 -520.5t-324.5 -143.5q-203 0 -324 148.5t-121 507.5zM387 707v-80q0 -197 13 -259.5t55.5 -98.5t101.5 -36q48 0 88 35t56 106.5t16 254.5q0 164 -13.5 233.5
t-54.5 112.5t-100 43q-86 0 -124 -74.5t-38 -236.5z" />
    <glyph glyph-name="P" unicode="P" horiz-adv-x="918" 
d="M133 1249h350q408 0 408 -391q0 -175 -106 -270.5t-300 -95.5h-79v-492h-273v1249zM403 688h54q72 0 111.5 46t39.5 130q0 185 -143 185h-62v-361z" />
    <glyph glyph-name="Q" unicode="Q" horiz-adv-x="1067" 
d="M1004 -25l-138 -98l-108 152q-99 -54 -213 -54q-155 0 -255 78t-147 211t-47 352q0 352 123 505t322 153q153 0 253 -76.5t148.5 -208.5t48.5 -356q0 -342 -108 -483zM709 354q4 145 4 215q0 204 -12.5 281.5t-53.5 122.5t-106 45q-68 0 -115 -69.5t-47 -301.5
q0 -194 14 -264t53 -110t97 -40q30 0 63 13l-151 221l139 96l111 -209h4z" />
    <glyph glyph-name="R" unicode="R" horiz-adv-x="961" 
d="M909 0h-276l-217 618h-4v-618h-269v1249h351q105 0 209.5 -42t149 -131t44.5 -185q0 -116 -50 -190.5t-159 -135.5zM412 688q132 0 167 51.5t35 130.5q0 179 -147 179h-55v-361z" />
    <glyph glyph-name="S" unicode="S" horiz-adv-x="788" 
d="M680 897q-107 125 -205 125q-44 0 -78.5 -29t-34.5 -65q0 -65 109 -154q114 -91 162 -143.5t77 -123.5t29 -155q0 -165 -105.5 -271t-271.5 -106q-136 0 -266 97v295q125 -136 250 -136q56 0 93.5 31t37.5 76q0 67 -96 149q-153 132 -200.5 196.5t-71 130t-23.5 132.5
q0 144 101 238t257 94q118 0 236 -68v-313z" />
    <glyph glyph-name="T" unicode="T" horiz-adv-x="854" 
d="M823 1006h-243v-1006h-269v1004h-248v245h760v-243z" />
    <glyph glyph-name="U" unicode="U" horiz-adv-x="1024" 
d="M928 352q0 -176 -105.5 -276.5t-292.5 -100.5q-194 0 -298.5 103t-104.5 295v876h272v-833q0 -88 34.5 -135.5t96.5 -47.5q58 0 91.5 46t33.5 124v846h273v-897z" />
    <glyph glyph-name="V" unicode="V" horiz-adv-x="1044" 
d="M750 1249h272l-352 -1249h-258l-357 1249h285l201 -803z" />
    <glyph glyph-name="W" unicode="W" horiz-adv-x="1343" 
d="M1321 1249l-252 -1249h-219l-156 870h-4l-155 -870h-236l-246 1249h275l49 -250l57 -553h4l144 803h223l147 -837h4l54 544q14 134 53 293h258z" />
    <glyph glyph-name="X" unicode="X" horiz-adv-x="961" 
d="M940 0h-287l-149 371l-162 -371h-287l287 618l-283 631h281l164 -405l137 405h274l-245 -633z" />
    <glyph glyph-name="Y" unicode="Y" horiz-adv-x="961" 
d="M930 1249l-279 -696v-553h-268v551l-324 698h291l160 -395l152 395h268z" />
    <glyph glyph-name="Z" unicode="Z" horiz-adv-x="918" 
d="M893 1249l-457 -1005h357v-244h-734v39l439 965h-400v245h795z" />
    <glyph glyph-name="bracketleft" unicode="[" horiz-adv-x="492" 
d="M461 -326h-367v1624h367v-165h-187v-1293h187v-166z" />
    <glyph glyph-name="backslash" unicode="\" horiz-adv-x="641" 
d="M565 -377h-145l-379 1702h145z" />
    <glyph glyph-name="bracketright" unicode="]" horiz-adv-x="492" 
d="M440 -326h-362v166h182v1295h-182v163h362v-1624z" />
    <glyph glyph-name="asciicircum" unicode="^" horiz-adv-x="961" 
d="M907 690h-182l-246 598l-241 -598h-185l355 801h145z" />
    <glyph glyph-name="underscore" unicode="_" horiz-adv-x="1024" 
d="M1038 -254h-1052v102h1052v-102z" />
    <glyph glyph-name="grave" unicode="`" horiz-adv-x="682" 
d="M496 977h-179l-274 299h313z" />
    <glyph glyph-name="a" unicode="a" horiz-adv-x="874" 
d="M784 0h-243v145h-4q-60 -170 -201 -170q-100 0 -175 97t-75 348q0 463 256 463q139 0 193 -178h4v153h245v-858zM426 668q-88 0 -88 -219q0 -131 24 -190.5t80 -59.5q53 0 76 54t23 173q0 126 -26 184t-85 58h-4z" />
    <glyph glyph-name="b" unicode="b" 
d="M373 707q34 91 77 133.5t121 42.5q250 0 250 -475q0 -246 -75.5 -336t-170.5 -90q-131 0 -202 157h-4v-139h-244v1335h244v-628h4zM473 203q98 0 98 235q0 230 -98 230q-106 0 -106 -254q0 -211 106 -211z" />
    <glyph glyph-name="c" unicode="c" horiz-adv-x="618" 
d="M575 639q-56 41 -106 41q-127 0 -127 -250q0 -254 125 -254q48 0 106 37v-205q-100 -37 -170 -37q-144 0 -227.5 114t-83.5 314q0 273 89 376.5t229 103.5q92 0 165 -39v-201z" />
    <glyph glyph-name="d" unicode="d" horiz-adv-x="874" 
d="M782 0h-243v141h-4q-67 -166 -205 -166q-96 0 -171 97.5t-75 357.5q0 219 67.5 335t192.5 116q134 0 191 -174h4v628h243v-1335zM432 666q-96 0 -96 -240q0 -231 102 -231q54 0 77.5 54t23.5 175q0 242 -105 242h-2z" />
    <glyph glyph-name="e" unicode="e" horiz-adv-x="831" 
d="M778 377h-432q6 -139 30.5 -182t86.5 -43q79 0 86 102h215q-13 -135 -95.5 -207t-219.5 -72q-175 0 -266 117.5t-91 343.5q0 201 101 324t264 123q116 0 193.5 -67.5t102.5 -168.5t25 -270zM549 518q-1 109 -22 161t-72 52q-59 0 -83.5 -51.5t-25.5 -161.5h203z" />
    <glyph glyph-name="f" unicode="f" horiz-adv-x="618" 
d="M596 664h-162v-664h-246v664h-133v194h133v191q0 288 246 288q71 0 162 -22v-197q-47 15 -78 15q-84 0 -84 -95v-180h162v-194z" />
    <glyph glyph-name="g" unicode="g" horiz-adv-x="874" 
d="M782 80q0 -238 -88 -348.5t-278 -110.5q-316 0 -326 295h217q9 -98 105 -98q129 0 129 200v160h-4q-72 -178 -195 -178q-109 0 -183.5 98.5t-74.5 319.5q0 249 73 357t183 108q136 0 195 -185h4v160h243v-778zM442 219q46 0 71.5 55t25.5 156q0 236 -101 236
q-102 0 -102 -220q0 -227 106 -227z" />
    <glyph glyph-name="h" unicode="h" 
d="M819 0h-244v475q0 160 -102 160q-47 0 -73.5 -40t-26.5 -110v-485h-244v1335h244v-635h4q106 185 239 185q96 0 149.5 -86.5t53.5 -243.5v-555z" />
    <glyph glyph-name="i" unicode="i" horiz-adv-x="469" 
d="M102 1143q0 59 43 102t103 43t102.5 -42.5t42.5 -102.5t-42.5 -103t-102.5 -43t-103 43t-43 103zM129 858h244v-858h-244v858z" />
    <glyph glyph-name="j" unicode="j" horiz-adv-x="469" 
d="M104 1143q0 60 43 102.5t103 42.5q61 0 104 -42t43 -103t-43 -103.5t-104 -42.5q-60 0 -103 42.5t-43 103.5zM127 858h248v-1237h-248v1237z" />
    <glyph glyph-name="k" unicode="k" 
d="M866 0h-258l-196 438h-4v-438h-244v1335h244v-839h4l178 362h250l-207 -379z" />
    <glyph glyph-name="l" unicode="l" horiz-adv-x="469" 
d="M373 0h-246v1335h246v-1335z" />
    <glyph glyph-name="m" unicode="m" horiz-adv-x="1343" 
d="M1262 0h-244v467q0 168 -103 168q-47 0 -74.5 -43t-27.5 -117v-475h-244v483q0 72 -27.5 112t-76.5 40q-42 0 -70 -44t-28 -112v-479h-244v858h244v-162h4q97 187 235 187q80 0 134.5 -58.5t60.5 -158.5h4q38 100 111 158.5t153 58.5q84 0 138.5 -78.5t54.5 -202.5v-602z
" />
    <glyph glyph-name="n" unicode="n" 
d="M369 858v-158h4q56 95 111.5 139t129.5 44q91 0 146 -78.5t55 -208.5v-596h-242v496q0 64 -27 100.5t-75 36.5q-102 0 -102 -158v-475h-244v858h244z" />
    <glyph glyph-name="o" unicode="o" horiz-adv-x="854" 
d="M88 420q0 224 92 343.5t262 119.5q172 0 262.5 -117t90.5 -340q0 -218 -89.5 -334.5t-256.5 -116.5q-176 0 -268.5 114.5t-92.5 330.5zM545 424q0 141 -19 198.5t-82 57.5q-58 0 -82 -54t-24 -175q0 -151 20 -213t84 -62q61 0 82 55.5t21 192.5z" />
    <glyph glyph-name="p" unicode="p" horiz-adv-x="874" 
d="M373 723q71 160 194 160q106 0 179 -98t73 -349q0 -268 -76 -364.5t-180 -96.5q-124 0 -192 164l2 6h-4v-524h-248v1237h248v-135h4zM475 195q53 0 73.5 56.5t20.5 188.5q0 219 -96 219q-56 0 -80 -55t-24 -178q0 -231 106 -231z" />
    <glyph glyph-name="q" unicode="q" horiz-adv-x="874" 
d="M780 -379h-241v518h-4q-39 -85 -84 -124.5t-113 -39.5q-111 0 -182.5 104t-71.5 335q0 283 79 376t171 93q128 0 201 -158h4v133h241v-1237zM436 195q103 0 103 249q0 100 -28.5 157.5t-74.5 57.5q-102 0 -102 -237q0 -227 102 -227z" />
    <glyph glyph-name="r" unicode="r" horiz-adv-x="641" 
d="M621 637q-61 12 -86 12q-173 0 -173 -182v-467h-245v858h229v-203h4q57 225 271 230v-248z" />
    <glyph glyph-name="s" unicode="s" horiz-adv-x="705" 
d="M551 621q-100 79 -162 79q-70 0 -70 -55q0 -36 115 -96.5t168 -133.5t53 -175q0 -115 -80 -190t-204 -75q-88 0 -153 23.5t-140 75.5l104 178q9 -5 23 -16q91 -72 145 -72q33 0 53.5 18.5t20.5 46.5q0 25 -32 53.5t-126 85.5t-136 112.5t-42 133.5q0 118 79.5 193.5
t205.5 75.5q140 0 272 -95z" />
    <glyph glyph-name="t" unicode="t" horiz-adv-x="641" 
d="M610 664h-151v-664h-246v662h-154v196h154v244h246v-244h151v-194z" />
    <glyph glyph-name="u" unicode="u" 
d="M811 311q0 -151 -93.5 -243.5t-246.5 -92.5q-166 0 -259 92.5t-93 258.5v532h246v-545q0 -137 106 -137q96 0 96 129v553h244v-547z" />
    <glyph glyph-name="v" unicode="v" horiz-adv-x="811" 
d="M59 858h238l119 -565l125 565h239l-260 -858h-229z" />
    <glyph glyph-name="w" unicode="w" horiz-adv-x="1237" 
d="M1204 856l-229 -856h-221l-121 565h-4l-123 -565h-219l-230 856h234l110 -567l125 567h215l119 -573l121 573h223z" />
    <glyph glyph-name="x" unicode="x" horiz-adv-x="854" 
d="M825 0h-258l-118 219l-123 -219h-267l254 426l-223 432h248l115 -213l106 213h250l-227 -430z" />
    <glyph glyph-name="y" unicode="y" horiz-adv-x="811" 
d="M780 858l-368 -1237h-242l117 391l-228 846h240l113 -567h4l119 567h245z" />
    <glyph glyph-name="z" unicode="z" horiz-adv-x="705" 
d="M674 821l-285 -608h266v-213h-596v45l283 600h-260v213h592v-37z" />
    <glyph glyph-name="braceleft" unicode="{" horiz-adv-x="684" 
d="M637 -430h-55q-163 0 -215.5 53.5t-76.5 109t-25 278.5t-18.5 294t-70.5 107.5t-119 36.5v163q54 0 93 18.5t66 55t37.5 106.5t11.5 276.5t25.5 262t77.5 108t214 52.5h55v-156h-31q-109 0 -140.5 -39t-31.5 -168v-147q0 -206 -45 -303.5t-164 -147.5q113 -45 161 -143
t48 -309v-146q0 -127 30.5 -166.5t141.5 -39.5h31v-156z" />
    <glyph glyph-name="bar" unicode="|" horiz-adv-x="1118" 
d="M639 -276h-160v1701h160v-1701z" />
    <glyph glyph-name="braceright" unicode="}" horiz-adv-x="684" 
d="M627 449q-67 0 -120 -37t-70 -108.5t-18 -293t-27 -280t-77.5 -109.5t-212.5 -51h-55v156h31q109 0 140.5 39t31.5 167v146q0 211 48 309t161 143q-131 59 -170 162t-39 289v147q0 129 -31.5 168t-140.5 39h-31v156h55q163 0 215.5 -53.5t76.5 -109.5t25 -261.5
t11.5 -276t38 -107t66 -54t92.5 -17.5v-163z" />
    <glyph glyph-name="asciitilde" unicode="~" horiz-adv-x="1343" 
d="M1217 692q-154 -131 -293 -131q-65 0 -125.5 21.5t-184 81t-192.5 59.5q-133 0 -295 -141v168q155 129 303 129q61 0 123 -21.5t181.5 -80t191.5 -58.5q130 0 291 143v-170z" />
    <glyph glyph-name="Adieresis" unicode="&#xc4;" horiz-adv-x="1024" 
d="M999 0h-264l-41 195h-329l-46 -195h-264l357 1249h274zM655 397l-110 545h-4l-127 -545h241zM739 1639q56 0 95.5 -40t39.5 -95q0 -57 -39 -97.5t-96 -40.5q-56 0 -95.5 40.5t-39.5 97.5q0 55 39.5 95t95.5 40zM287 1639q56 0 95.5 -40t39.5 -95q0 -57 -39.5 -97.5
t-95.5 -40.5q-57 0 -96 40.5t-39 97.5q0 55 39.5 95t95.5 40z" />
    <glyph glyph-name="Aring" unicode="&#xc5;" horiz-adv-x="1024" 
d="M999 0h-264l-41 195h-329l-46 -195h-264l357 1249h274zM655 397l-110 545h-4l-127 -545h241zM558 1694q81 0 138 -57.5t57 -139.5q0 -79 -58 -136.5t-137 -57.5q-81 0 -139 57.5t-58 136.5q0 81 58 139t139 58zM558 1409q36 0 62 26.5t26 61.5q0 38 -25.5 64.5
t-62.5 26.5q-36 0 -63 -26.5t-27 -62.5t26.5 -63t63.5 -27z" />
    <glyph glyph-name="Ccedilla" unicode="&#xc7;" 
d="M854 20q-103 -45 -229 -45q-226 0 -377.5 165t-151.5 481q0 326 150 490.5t350 164.5q120 0 256 -62v-262q-106 54 -137.5 61t-67.5 7q-106 0 -186 -88t-80 -303q0 -225 77.5 -311.5t192.5 -86.5q94 0 203 74v-285zM358 -39q87 27 170 27q114 0 184 -52.5t70 -136.5
q0 -96 -93.5 -157.5t-257.5 -61.5q-112 0 -194 17v118q82 -12 188 -12q77 0 121.5 25.5t44.5 68.5q0 39 -34.5 61.5t-94.5 22.5q-55 0 -131 -18z" />
    <glyph glyph-name="Eacute" unicode="&#xc9;" horiz-adv-x="811" 
d="M754 0h-623v1249h584v-241h-316v-254h271v-232h-271v-276h355v-246zM745 1647l-274 -299h-179l140 299h313z" />
    <glyph glyph-name="Ntilde" unicode="&#xd1;" horiz-adv-x="1110" 
d="M1004 0h-285l-318 788h-4v-788h-262v1251h295l313 -776h5v776h256v-1251zM917 1616q0 -252 -178 -252q-40 0 -63.5 6.5t-115.5 42t-137 35.5q-69 0 -69 -80v-6h-127v29q0 105 48.5 165t133.5 60q38 0 68.5 -9t106.5 -44t122 -35q70 0 82 88h129z" />
    <glyph glyph-name="Odieresis" unicode="&#xd6;" horiz-adv-x="1067" 
d="M102 631q0 263 57 386t151.5 191t238.5 68q119 0 192 -39.5t135.5 -115t91.5 -187t29 -295.5q0 -377 -125.5 -520.5t-324.5 -143.5q-203 0 -324 148.5t-121 507.5zM387 707v-80q0 -197 13 -259.5t55.5 -98.5t101.5 -36q48 0 88 35t56 106.5t16 254.5q0 164 -13.5 233.5
t-54.5 112.5t-100 43q-86 0 -124 -74.5t-38 -236.5zM791 1639q56 0 95.5 -40t39.5 -95q0 -57 -39 -97.5t-96 -40.5q-56 0 -95.5 40.5t-39.5 97.5q0 55 39.5 95t95.5 40zM339 1639q56 0 95.5 -40t39.5 -95q0 -57 -39.5 -97.5t-95.5 -40.5q-57 0 -96 40.5t-39 97.5
q0 55 39.5 95t95.5 40z" />
    <glyph glyph-name="Udieresis" unicode="&#xdc;" horiz-adv-x="1024" 
d="M928 352q0 -176 -105.5 -276.5t-292.5 -100.5q-194 0 -298.5 103t-104.5 295v876h272v-833q0 -88 34.5 -135.5t96.5 -47.5q58 0 91.5 46t33.5 124v846h273v-897zM759 1639q56 0 95.5 -40t39.5 -95q0 -57 -39 -97.5t-96 -40.5q-56 0 -95.5 40.5t-39.5 97.5q0 55 39.5 95
t95.5 40zM307 1639q56 0 95.5 -40t39.5 -95q0 -57 -39.5 -97.5t-95.5 -40.5q-57 0 -96 40.5t-39 97.5q0 55 39.5 95t95.5 40z" />
    <glyph glyph-name="aacute" unicode="&#xe1;" horiz-adv-x="874" 
d="M784 0h-243v145h-4q-60 -170 -201 -170q-100 0 -175 97t-75 348q0 463 256 463q139 0 193 -178h4v153h245v-858zM426 668q-88 0 -88 -219q0 -131 24 -190.5t80 -59.5q53 0 76 54t23 173q0 126 -26 184t-85 58h-4zM736 1276l-274 -299h-179l140 299h313z" />
    <glyph glyph-name="agrave" unicode="&#xe0;" horiz-adv-x="874" 
d="M784 0h-243v145h-4q-60 -170 -201 -170q-100 0 -175 97t-75 348q0 463 256 463q139 0 193 -178h4v153h245v-858zM426 668q-88 0 -88 -219q0 -131 24 -190.5t80 -59.5q53 0 76 54t23 173q0 126 -26 184t-85 58h-4zM592 977h-179l-274 299h313z" />
    <glyph glyph-name="acircumflex" unicode="&#xe2;" horiz-adv-x="874" 
d="M784 0h-243v145h-4q-60 -170 -201 -170q-100 0 -175 97t-75 348q0 463 256 463q139 0 193 -178h4v153h245v-858zM426 668q-88 0 -88 -219q0 -131 24 -190.5t80 -59.5q53 0 76 54t23 173q0 126 -26 184t-85 58h-4zM776 981h-225l-117 149l-109 -149h-227l211 295h260z" />
    <glyph glyph-name="adieresis" unicode="&#xe4;" horiz-adv-x="874" 
d="M784 0h-243v145h-4q-60 -170 -201 -170q-100 0 -175 97t-75 348q0 463 256 463q139 0 193 -178h4v153h245v-858zM426 668q-88 0 -88 -219q0 -131 24 -190.5t80 -59.5q53 0 76 54t23 173q0 126 -26 184t-85 58h-4zM663 1268q56 0 95.5 -40t39.5 -95q0 -57 -39 -97.5
t-96 -40.5q-56 0 -95.5 40.5t-39.5 97.5q0 55 39.5 95t95.5 40zM211 1268q56 0 95.5 -40t39.5 -95q0 -57 -39.5 -97.5t-95.5 -40.5q-57 0 -96 40.5t-39 97.5q0 55 39.5 95t95.5 40z" />
    <glyph glyph-name="atilde" unicode="&#xe3;" horiz-adv-x="874" 
d="M784 0h-243v145h-4q-60 -170 -201 -170q-100 0 -175 97t-75 348q0 463 256 463q139 0 193 -178h4v153h245v-858zM426 668q-88 0 -88 -219q0 -131 24 -190.5t80 -59.5q53 0 76 54t23 173q0 126 -26 184t-85 58h-4zM798 1245q0 -252 -178 -252q-40 0 -63.5 6.5t-115.5 42
t-137 35.5q-69 0 -69 -80v-6h-127v29q0 105 48.5 165t133.5 60q38 0 68.5 -9t106.5 -44t122 -35q70 0 82 88h129z" />
    <glyph glyph-name="aring" unicode="&#xe5;" horiz-adv-x="874" 
d="M784 0h-243v145h-4q-60 -170 -201 -170q-100 0 -175 97t-75 348q0 463 256 463q139 0 193 -178h4v153h245v-858zM426 668q-88 0 -88 -219q0 -131 24 -190.5t80 -59.5q53 0 76 54t23 173q0 126 -26 184t-85 58h-4zM439 1323q81 0 138 -57.5t57 -139.5q0 -79 -58 -136.5
t-137 -57.5q-81 0 -139 57.5t-58 136.5q0 81 58 139t139 58zM439 1038q36 0 62 26.5t26 61.5q0 38 -25.5 64.5t-62.5 26.5q-36 0 -63 -26.5t-27 -62.5t26.5 -63t63.5 -27z" />
    <glyph glyph-name="ccedilla" unicode="&#xe7;" horiz-adv-x="618" 
d="M575 639q-56 41 -106 41q-127 0 -127 -250q0 -254 125 -254q48 0 106 37v-205q-100 -37 -170 -37q-144 0 -227.5 114t-83.5 314q0 273 89 376.5t229 103.5q92 0 165 -39v-201zM175 -39q87 27 170 27q114 0 184 -52.5t70 -136.5q0 -96 -93.5 -157.5t-257.5 -61.5
q-112 0 -194 17v118q82 -12 188 -12q77 0 121.5 25.5t44.5 68.5q0 39 -34.5 61.5t-94.5 22.5q-55 0 -131 -18z" />
    <glyph glyph-name="eacute" unicode="&#xe9;" horiz-adv-x="831" 
d="M778 377h-432q6 -139 30.5 -182t86.5 -43q79 0 86 102h215q-13 -135 -95.5 -207t-219.5 -72q-175 0 -266 117.5t-91 343.5q0 201 101 324t264 123q116 0 193.5 -67.5t102.5 -168.5t25 -270zM549 518q-1 109 -22 161t-72 52q-59 0 -83.5 -51.5t-25.5 -161.5h203zM715 1276
l-274 -299h-179l140 299h313z" />
    <glyph glyph-name="egrave" unicode="&#xe8;" horiz-adv-x="831" 
d="M778 377h-432q6 -139 30.5 -182t86.5 -43q79 0 86 102h215q-13 -135 -95.5 -207t-219.5 -72q-175 0 -266 117.5t-91 343.5q0 201 101 324t264 123q116 0 193.5 -67.5t102.5 -168.5t25 -270zM549 518q-1 109 -22 161t-72 52q-59 0 -83.5 -51.5t-25.5 -161.5h203zM572 977
h-179l-274 299h313z" />
    <glyph glyph-name="ecircumflex" unicode="&#xea;" horiz-adv-x="831" 
d="M778 377h-432q6 -139 30.5 -182t86.5 -43q79 0 86 102h215q-13 -135 -95.5 -207t-219.5 -72q-175 0 -266 117.5t-91 343.5q0 201 101 324t264 123q116 0 193.5 -67.5t102.5 -168.5t25 -270zM549 518q-1 109 -22 161t-72 52q-59 0 -83.5 -51.5t-25.5 -161.5h203zM756 981
h-225l-117 149l-109 -149h-227l211 295h260z" />
    <glyph glyph-name="edieresis" unicode="&#xeb;" horiz-adv-x="831" 
d="M778 377h-432q6 -139 30.5 -182t86.5 -43q79 0 86 102h215q-13 -135 -95.5 -207t-219.5 -72q-175 0 -266 117.5t-91 343.5q0 201 101 324t264 123q116 0 193.5 -67.5t102.5 -168.5t25 -270zM549 518q-1 109 -22 161t-72 52q-59 0 -83.5 -51.5t-25.5 -161.5h203zM642 1268
q56 0 95.5 -40t39.5 -95q0 -57 -39 -97.5t-96 -40.5q-56 0 -95.5 40.5t-39.5 97.5q0 55 39.5 95t95.5 40zM190 1268q56 0 95.5 -40t39.5 -95q0 -57 -39.5 -97.5t-95.5 -40.5q-57 0 -96 40.5t-39 97.5q0 55 39.5 95t95.5 40z" />
    <glyph glyph-name="iacute" unicode="&#xed;" horiz-adv-x="469" 
d="M127 854h242v-854h-242v854zM533 1276l-274 -299h-179l140 299h313z" />
    <glyph glyph-name="igrave" unicode="&#xec;" horiz-adv-x="469" 
d="M127 854h242v-854h-242v854zM390 977h-179l-274 299h313z" />
    <glyph glyph-name="icircumflex" unicode="&#xee;" horiz-adv-x="469" 
d="M127 854h242v-854h-242v854zM574 981h-225l-117 149l-109 -149h-227l211 295h260z" />
    <glyph glyph-name="idieresis" unicode="&#xef;" horiz-adv-x="469" 
d="M127 854h242v-854h-242v854zM460 1268q56 0 95.5 -40t39.5 -95q0 -57 -39 -97.5t-96 -40.5q-56 0 -95.5 40.5t-39.5 97.5q0 55 39.5 95t95.5 40zM8 1268q56 0 95.5 -40t39.5 -95q0 -57 -39.5 -97.5t-95.5 -40.5q-57 0 -96 40.5t-39 97.5q0 55 39.5 95t95.5 40z" />
    <glyph glyph-name="ntilde" unicode="&#xf1;" 
d="M369 858v-158h4q56 95 111.5 139t129.5 44q91 0 146 -78.5t55 -208.5v-596h-242v496q0 64 -27 100.5t-75 36.5q-102 0 -102 -158v-475h-244v858h244zM824 1245q0 -252 -178 -252q-40 0 -63.5 6.5t-115.5 42t-137 35.5q-69 0 -69 -80v-6h-127v29q0 105 48.5 165t133.5 60
q38 0 68.5 -9t106.5 -44t122 -35q70 0 82 88h129z" />
    <glyph glyph-name="oacute" unicode="&#xf3;" horiz-adv-x="854" 
d="M88 420q0 224 92 343.5t262 119.5q172 0 262.5 -117t90.5 -340q0 -218 -89.5 -334.5t-256.5 -116.5q-176 0 -268.5 114.5t-92.5 330.5zM545 424q0 141 -19 198.5t-82 57.5q-58 0 -82 -54t-24 -175q0 -151 20 -213t84 -62q61 0 82 55.5t21 192.5zM725 1276l-274 -299h-179
l140 299h313z" />
    <glyph glyph-name="ograve" unicode="&#xf2;" horiz-adv-x="854" 
d="M88 420q0 224 92 343.5t262 119.5q172 0 262.5 -117t90.5 -340q0 -218 -89.5 -334.5t-256.5 -116.5q-176 0 -268.5 114.5t-92.5 330.5zM545 424q0 141 -19 198.5t-82 57.5q-58 0 -82 -54t-24 -175q0 -151 20 -213t84 -62q61 0 82 55.5t21 192.5zM582 977h-179l-274 299
h313z" />
    <glyph glyph-name="ocircumflex" unicode="&#xf4;" horiz-adv-x="854" 
d="M88 420q0 224 92 343.5t262 119.5q172 0 262.5 -117t90.5 -340q0 -218 -89.5 -334.5t-256.5 -116.5q-176 0 -268.5 114.5t-92.5 330.5zM545 424q0 141 -19 198.5t-82 57.5q-58 0 -82 -54t-24 -175q0 -151 20 -213t84 -62q61 0 82 55.5t21 192.5zM766 981h-225l-117 149
l-109 -149h-227l211 295h260z" />
    <glyph glyph-name="odieresis" unicode="&#xf6;" horiz-adv-x="854" 
d="M88 420q0 224 92 343.5t262 119.5q172 0 262.5 -117t90.5 -340q0 -218 -89.5 -334.5t-256.5 -116.5q-176 0 -268.5 114.5t-92.5 330.5zM545 424q0 141 -19 198.5t-82 57.5q-58 0 -82 -54t-24 -175q0 -151 20 -213t84 -62q61 0 82 55.5t21 192.5zM653 1268q56 0 95.5 -40
t39.5 -95q0 -57 -39 -97.5t-96 -40.5q-56 0 -95.5 40.5t-39.5 97.5q0 55 39.5 95t95.5 40zM201 1268q56 0 95.5 -40t39.5 -95q0 -57 -39.5 -97.5t-95.5 -40.5q-57 0 -96 40.5t-39 97.5q0 55 39.5 95t95.5 40z" />
    <glyph glyph-name="otilde" unicode="&#xf5;" horiz-adv-x="854" 
d="M88 420q0 224 92 343.5t262 119.5q172 0 262.5 -117t90.5 -340q0 -218 -89.5 -334.5t-256.5 -116.5q-176 0 -268.5 114.5t-92.5 330.5zM545 424q0 141 -19 198.5t-82 57.5q-58 0 -82 -54t-24 -175q0 -151 20 -213t84 -62q61 0 82 55.5t21 192.5zM764 1245
q0 -252 -178 -252q-40 0 -63.5 6.5t-115.5 42t-137 35.5q-69 0 -69 -80v-6h-127v29q0 105 48.5 165t133.5 60q38 0 68.5 -9t106.5 -44t122 -35q70 0 82 88h129z" />
    <glyph glyph-name="uacute" unicode="&#xfa;" 
d="M811 311q0 -151 -93.5 -243.5t-246.5 -92.5q-166 0 -259 92.5t-93 258.5v532h246v-545q0 -137 106 -137q96 0 96 129v553h244v-547zM748 1276l-274 -299h-179l140 299h313z" />
    <glyph glyph-name="ugrave" unicode="&#xf9;" 
d="M811 311q0 -151 -93.5 -243.5t-246.5 -92.5q-166 0 -259 92.5t-93 258.5v532h246v-545q0 -137 106 -137q96 0 96 129v553h244v-547zM605 977h-179l-274 299h313z" />
    <glyph glyph-name="ucircumflex" unicode="&#xfb;" 
d="M811 311q0 -151 -93.5 -243.5t-246.5 -92.5q-166 0 -259 92.5t-93 258.5v532h246v-545q0 -137 106 -137q96 0 96 129v553h244v-547zM789 981h-225l-117 149l-109 -149h-227l211 295h260z" />
    <glyph glyph-name="udieresis" unicode="&#xfc;" 
d="M811 311q0 -151 -93.5 -243.5t-246.5 -92.5q-166 0 -259 92.5t-93 258.5v532h246v-545q0 -137 106 -137q96 0 96 129v553h244v-547zM675 1268q56 0 95.5 -40t39.5 -95q0 -57 -39 -97.5t-96 -40.5q-56 0 -95.5 40.5t-39.5 97.5q0 55 39.5 95t95.5 40zM223 1268
q56 0 95.5 -40t39.5 -95q0 -57 -39.5 -97.5t-95.5 -40.5q-57 0 -96 40.5t-39 97.5q0 55 39.5 95t95.5 40z" />
    <glyph glyph-name="dagger" unicode="&#x2020;" horiz-adv-x="725" 
d="M406 854q48 0 112 18.5t82 18.5q30 0 50 -20t20 -50q0 -31 -21 -51t-53 -20q-14 0 -73.5 18t-116.5 18q0 -33 26.5 -149.5t26.5 -214.5q0 -62 -15 -176q-36 -295 -36 -623h-66q-3 249 -10 358t-25 250t-18 195q0 60 25.5 176.5t25.5 181.5q-33 0 -99.5 -19.5t-84.5 -19.5
q-33 0 -54.5 21t-21.5 53q0 31 21 50.5t55 19.5q17 0 82 -17.5t100 -17.5q0 104 -24.5 240.5t-24.5 171.5q0 52 24 84t62 32q39 0 61.5 -31t22.5 -85q0 -44 -26.5 -177.5t-26.5 -234.5z" />
    <glyph glyph-name="degree" unicode="&#xb0;" horiz-adv-x="819" 
d="M410 1491q114 0 195 -81t81 -196q0 -114 -81 -196t-195 -82q-115 0 -196 82t-81 196t81 195.5t196 81.5zM410 1044q70 0 119 50t49 120t-49.5 119t-118.5 49q-70 0 -119 -49t-49 -119t49.5 -120t118.5 -50z" />
    <glyph glyph-name="cent" unicode="&#xa2;" horiz-adv-x="618" 
d="M578 229q-26 -10 -46 -16l-38 -11q-2 -1 -15 -3v-199h-137v199q-141 42 -193.5 154t-52.5 306q0 367 246 431v155h139v-153l97 -29v-203q-69 39 -109 39q-59 0 -92 -62.5t-33 -177.5q0 -264 127 -264q41 0 107 35v-201z" />
    <glyph glyph-name="sterling" unicode="&#xa3;" 
d="M872 356q-1 -216 -71 -298.5t-199 -82.5q-82 0 -156 26t-79 28q-55 -54 -115 -54q-64 0 -107 38.5t-43 95.5q0 59 38 96t100 37q27 0 43 -2q4 33 4 49q0 108 -47 237h-146v189h105q-19 180 -19 209q0 354 316 354q164 0 239 -86t74 -268h-227q-9 81 -28.5 120t-57.5 39
q-37 0 -59.5 -32t-22.5 -84q0 -45 39 -252h176v-187h-154q6 -63 6 -137q0 -99 -22 -186q57 -15 82 -15q59 0 77.5 36t18.5 130h235z" />
    <glyph glyph-name="section" unicode="&#xa7;" horiz-adv-x="768" 
d="M461 1083q-3 76 -62 76q-29 0 -48 -18t-19 -45q0 -30 24 -64t124 -134.5t156 -198t56 -191.5q0 -178 -153 -297q65 -85 95 -149.5t30 -147.5q0 -132 -70 -211.5t-186 -79.5q-118 0 -185 76t-73 221h188v-2q0 -74 65 -74q27 0 44.5 16t17.5 40q0 40 -31.5 80.5t-42.5 48.5
l-124 134q-72 78 -114 161.5t-42 177.5q0 93 36.5 158t116.5 131q-66 87 -96.5 150.5t-30.5 143.5q0 134 70.5 214.5t185.5 80.5t185 -77.5t75 -219.5h-192zM436 319q64 62 64 130q0 101 -140 231q-57 -58 -57 -133q0 -67 62 -142.5t71 -85.5z" />
    <glyph glyph-name="bullet" unicode="&#x2022;" horiz-adv-x="717" 
d="M356 1020q123 0 210 -87.5t87 -209.5q0 -121 -87.5 -208t-209.5 -87q-120 0 -207.5 87t-87.5 208q0 122 87 209.5t208 87.5z" />
    <glyph glyph-name="paragraph" unicode="&#xb6;" horiz-adv-x="1102" 
d="M1102 1292h-144v-1700h-170v1700h-223v-1700h-164v1045q-192 12 -298.5 124t-106.5 290q0 101 39 185.5t106.5 136.5t142 72.5t185.5 20.5h633v-174z" />
    <glyph glyph-name="germandbls" unicode="&#xdf;" horiz-adv-x="874" 
d="M612 770q110 -38 158.5 -116t48.5 -269q0 -220 -75.5 -312.5t-180.5 -92.5q-52 0 -110 24v184q17 -8 39 -8q46 0 63.5 41t17.5 135q0 198 -25 246t-95 51v211q92 3 92 144q0 145 -90 145q-43 0 -68 -30.5t-25 -84.5v-1038h-239v1047q0 140 82 214t239 74
q194 0 271.5 -78.5t77.5 -193.5q0 -125 -42.5 -184t-138.5 -109z" />
    <glyph glyph-name="registered" unicode="&#xae;" horiz-adv-x="1511" 
d="M754 1495q316 0 541 -225t225 -541q0 -315 -225 -540.5t-541 -225.5q-315 0 -540.5 225.5t-225.5 540.5q0 316 225 541t541 225zM756 113q253 0 433.5 181t180.5 435q0 255 -180 436t-434 181t-434.5 -181t-180.5 -436q0 -254 180.5 -435t434.5 -181zM1116 319h-203
l-69 134q-60 114 -106 157t-122 43h-43v-334h-165l2 814h385q131 0 201.5 -60t70.5 -170q0 -89 -58 -150.5t-161 -74.5v-4q51 -18 79.5 -49.5t92.5 -141.5zM573 782h134q102 0 144 25.5t42 91.5q0 105 -170 105h-150v-222z" />
    <glyph glyph-name="copyright" unicode="&#xa9;" horiz-adv-x="1511" 
d="M754 1495q314 0 540 -223t226 -543q0 -315 -225 -540.5t-541 -225.5q-315 0 -540.5 225.5t-225.5 540.5q0 316 225 541t541 225zM754 115q253 0 434.5 181t181.5 433q0 254 -181.5 435.5t-434.5 181.5q-254 0 -434.5 -181.5t-180.5 -435.5q0 -252 181 -433t434 -181z
M1102 561q-78 -258 -354 -258q-166 0 -267.5 117.5t-101.5 310.5q0 194 106 309t283 115q245 0 334 -244l-162 -39q-52 140 -178 140q-95 0 -151 -72t-56 -197q0 -146 51 -222.5t148 -76.5q137 0 186 172z" />
    <glyph glyph-name="trademark" unicode="&#x2122;" horiz-adv-x="2048" 
d="M1798 647h-158v653h-4l-174 -653h-149l-172 653h-4v-653h-158v819h260l147 -565h5l147 565h260v-819zM881 1323h-246v-676h-166v676h-252v143h664v-143z" />
    <glyph glyph-name="acute" unicode="&#xb4;" horiz-adv-x="682" 
d="M639 1276l-274 -299h-179l140 299h313z" />
    <glyph glyph-name="dieresis" unicode="&#xa8;" horiz-adv-x="682" 
d="M567 1268q56 0 95.5 -40t39.5 -95q0 -57 -39 -97.5t-96 -40.5q-56 0 -95.5 40.5t-39.5 97.5q0 55 39.5 95t95.5 40zM115 1268q56 0 95.5 -40t39.5 -95q0 -57 -39.5 -97.5t-95.5 -40.5q-57 0 -96 40.5t-39 97.5q0 55 39.5 95t95.5 40z" />
    <glyph glyph-name="notequal" unicode="&#x2260;" horiz-adv-x="1366" 
d="M1230 354h-674l-151 -269l-100 57l118 212h-288v158h376l174 315h-550v158h639l153 275l101 -57l-122 -218h324v-158h-409l-180 -315h589v-158z" />
    <glyph glyph-name="AE" unicode="&#xc6;" horiz-adv-x="1300" 
d="M1278 0h-619v197h-278l-68 -197h-268l487 1249h709v-243h-311v-252h266v-230h-266v-278h348v-246zM662 395v613h-5l-208 -613h213z" />
    <glyph glyph-name="Oslash" unicode="&#xd8;" horiz-adv-x="1067" 
d="M897 1083q96 -151 96 -438q0 -378 -126 -524t-328 -146q-146 0 -275 103l-74 -117l-90 57l97 152q-53 89 -75 182.5t-22 268.5q0 357 122 505t323 148q99 0 156 -24t126 -79l76 117l88 -53zM676 934q-29 45 -56.5 65.5t-70.5 20.5q-78 0 -122 -71.5t-44 -200.5v-281h4z
M711 461v325h-4l-291 -464q52 -89 135 -89q68 0 114 65t46 163z" />
    <glyph glyph-name="infinity" unicode="&#x221e;" horiz-adv-x="1460" 
d="M681 843q74 121 151 174.5t172 53.5q132 0 219.5 -93.5t87.5 -255.5t-87.5 -255.5t-219.5 -93.5q-94 0 -171 53t-152 175q-60 -84 -138 -128t-149 -44q-101 0 -171.5 78.5t-70.5 214.5t70.5 214t171.5 78q71 0 149 -44t138 -127zM774 724q84 -129 118 -158
q53 -45 115 -45q76 0 117 59t41 146q0 94 -45 146t-110 52q-51 0 -102.5 -36t-133.5 -164zM595 726q-100 141 -190 141q-46 0 -79.5 -37t-33.5 -103q0 -68 33 -106t80 -38q39 0 70 21q54 36 120 122z" />
    <glyph glyph-name="plusminus" unicode="&#xb1;" horiz-adv-x="1366" 
d="M1231 758h-471v-467h-158v467h-467v157h467v471h158v-471h471v-157zM1231 -49h-1096v158h1096v-158z" />
    <glyph glyph-name="lessequal" unicode="&#x2264;" horiz-adv-x="1366" 
d="M1229 137l-1094 459v143l1094 459v-170l-881 -360l881 -361v-170zM1231 -50h-1096v158h1096v-158z" />
    <glyph glyph-name="greaterequal" unicode="&#x2265;" horiz-adv-x="1366" 
d="M1229 596l-1094 -459v170l883 359l-883 360v172l1094 -461v-141zM1231 -50h-1096v158h1096v-158z" />
    <glyph glyph-name="yen" unicode="&#xa5;" horiz-adv-x="961" 
d="M932 1251l-88 -219h86v-131h-139l-89 -219h228v-131h-279v-549h-268v549h-324v131h265l-103 219h-162v131h103l-101 217h289l160 -393l154 395h268z" />
    <glyph glyph-name="uni00B5" unicode="&#xb5;" horiz-adv-x="1139" 
d="M997 0h-159v125h-4q-49 -79 -108 -114.5t-159 -35.5q-86 0 -140 31t-105 100h-5v-514h-178v1469h178v-516q0 -166 23 -240t83.5 -121t135.5 -47q85 0 150 46.5t88.5 119.5t23.5 238v520h176v-1061z" />
    <glyph glyph-name="partialdiff" unicode="&#x2202;" horiz-adv-x="1012" 
d="M379 1123l-137 84q52 142 150.5 213t219.5 71q145 0 234 -100q131 -145 131 -448q0 -261 -83 -506t-230 -353.5t-309 -108.5q-138 0 -224.5 92t-86.5 262q0 158 87 303t266 230t429 80q-1 200 -74 296q-54 71 -145 71q-69 0 -120.5 -39.5t-107.5 -146.5zM814 758
q-29 1 -44 1q-137 0 -255.5 -55.5t-180 -158.5t-61.5 -207q0 -78 42 -125.5t99 -47.5q119 0 217 115q141 165 183 478z" />
    <glyph glyph-name="summation" unicode="&#x2211;" horiz-adv-x="1460" 
d="M139 1491h1237v-164h-988l607 -775l-649 -822h1040v-161h-1264v187l620 788l-603 772v175z" />
    <glyph glyph-name="product" unicode="&#x220f;" horiz-adv-x="1686" 
d="M161 1491h1362v-1922h-191v1748h-978v-1748h-193v1922z" />
    <glyph glyph-name="pi" unicode="&#x3c0;" horiz-adv-x="1472" 
d="M1422 717h-228v-717h-297v717h-322v-717h-297v717q-29 2 -36 2q-69 0 -192 -41v225q79 43 249 43h1123v-229z" />
    <glyph glyph-name="integral" unicode="&#x222b;" horiz-adv-x="561" 
d="M602 1760q0 -39 -29.5 -64t-75.5 -25q-37 0 -60 25t-44 25q-18 0 -27.5 -14.5t-9.5 -43.5q0 -34 19.5 -256t19.5 -551q0 -505 -30 -709.5t-79 -282.5q-26 -41 -67.5 -62t-85.5 -21q-49 0 -86 35t-37 85q0 38 25.5 65t64.5 27q34 0 65.5 -33t44.5 -33q25 0 39.5 44.5
t14.5 153.5q0 37 -6 197t-6 562q0 481 17 638.5t41 215.5q29 70 69 104t84 34q57 0 98 -32.5t41 -83.5z" />
    <glyph glyph-name="ordfeminine" unicode="&#xaa;" horiz-adv-x="575" 
d="M516 702h-160v91h-4q-25 -56 -51.5 -81.5t-79.5 -25.5q-160 0 -160 287q0 303 164 303q54 0 78.5 -27.5t48.5 -85.5h4v94h160v-555zM289 829q37 0 52 35t15 115q0 156 -67 156q-66 0 -66 -154q0 -152 66 -152z" />
    <glyph glyph-name="ordmasculine" unicode="&#xba;" horiz-adv-x="555" 
d="M295 1276q110 0 168.5 -76.5t58.5 -220.5q0 -295 -231 -295q-106 0 -167 75.5t-61 207.5q0 309 232 309zM299 815q61 0 61 152q0 98 -12.5 137t-52.5 39q-38 0 -54 -36t-16 -116q0 -99 13 -137.5t61 -38.5z" />
    <glyph glyph-name="uni2126" unicode="&#x2126;" horiz-adv-x="1573" 
d="M462 206q-116 49 -185 112q-101 90 -150.5 216t-49.5 277q0 310 191.5 501t508.5 191q233 0 389.5 -79t250 -244.5t93.5 -366.5q0 -202 -93.5 -360.5t-288.5 -244.5l330 23h72v-231h-642v243q97 47 153 105q76 80 114.5 194.5t38.5 241.5q0 247 -114.5 373.5
t-292.5 126.5q-170 0 -284.5 -129.5t-114.5 -365.5q0 -136 43.5 -253t124.5 -198q52 -52 144 -95v-243h-645v230h98z" />
    <glyph glyph-name="ae" unicode="&#xe6;" horiz-adv-x="1280" 
d="M1200 377h-430q3 -219 119 -219q70 0 84 96h217q-5 -151 -77.5 -214t-160.5 -63q-51 0 -100 23.5t-61 50.5l-35 78h-4v-137h-203v151h-4q-68 -163 -203 -163q-118 0 -183 112t-65 320q0 230 64.5 350.5t187.5 120.5q92 0 146.5 -67t54.5 -93h4v151h201v-92h4
q75 101 190 101q94 0 174 -87.5t80 -303.5v-115zM973 520q0 213 -99 213q-49 0 -76.5 -48.5t-27.5 -135.5v-29h203zM444 670q-98 0 -98 -217q0 -134 23 -193t80 -59q56 0 78 54.5t22 182.5q0 232 -103 232h-2z" />
    <glyph glyph-name="oslash" unicode="&#xf8;" horiz-adv-x="854" 
d="M821 846l-94 -121q66 -121 66 -301q0 -198 -83.5 -321t-277.5 -123q-75 0 -119 18t-102 57l-76 -96l-78 55l95 123q-64 134 -64 299q0 212 91 329.5t255 117.5q149 0 234 -78l77 100zM526 621q-26 63 -84 63q-67 0 -85.5 -59t-18.5 -209v-37h4zM545 489h-4l-185 -243
q27 -68 88 -68q68 0 84.5 70t16.5 241z" />
    <glyph glyph-name="questiondown" unicode="&#xbf;" horiz-adv-x="854" 
d="M463 1110q61 0 104 -43t43 -102q0 -62 -43 -105t-104 -43q-60 0 -103 43.5t-43 104.5q0 59 43 102t103 43zM778 127q-1 -309 -329 -309q-187 0 -268 83t-81 275q0 166 56.5 258t187.5 115v168h240v-318h-70q-88 0 -123 -47t-35 -164q0 -94 20.5 -135t69.5 -41
q34 0 55 31.5t21 83.5h256z" />
    <glyph glyph-name="exclamdown" unicode="&#xa1;" horiz-adv-x="469" 
d="M246 1104q59 0 102 -43t43 -103t-42.5 -103.5t-102.5 -43.5q-61 0 -104.5 43t-43.5 104q0 60 43.5 103t104.5 43zM367 -168h-242v877h242v-877z" />
    <glyph glyph-name="logicalnot" unicode="&#xac;" horiz-adv-x="1366" 
d="M1231 348h-158v488h-938v157h1096v-645z" />
    <glyph glyph-name="radical" unicode="&#x221a;" horiz-adv-x="1124" 
d="M1055 1868l-307 -1946l-498 1028l-197 -96l-33 68l299 147l404 -825l260 1634z" />
    <glyph glyph-name="florin" unicode="&#x192;" horiz-adv-x="1139" 
d="M1090 1454l-35 -154q-99 25 -160 25q-57 0 -81.5 -31.5t-43.5 -128.5l-20 -104h204l-24 -139h-205l-190 -1092q-25 -140 -84.5 -200t-178.5 -60q-96 0 -221 24l33 156q101 -22 156 -22q59 0 84.5 34.5t40.5 118.5l178 1041h-201l23 139h202l23 135q30 184 104 240.5
t189 56.5q39 0 88 -12z" />
    <glyph glyph-name="approxequal" unicode="&#x2248;" horiz-adv-x="1343" 
d="M1217 892q-154 -131 -293 -131q-65 0 -125.5 21.5t-184 81t-192.5 59.5q-133 0 -295 -141v168q155 129 303 129q61 0 123 -21.5t181.5 -80t191.5 -58.5q130 0 291 143v-170zM1217 492q-154 -131 -293 -131q-65 0 -125.5 21.5t-184 81t-192.5 59.5q-133 0 -295 -141v168
q155 129 303 129q61 0 123 -21.5t181.5 -80t191.5 -58.5q130 0 291 143v-170z" />
    <glyph glyph-name="uni2206" unicode="&#x2206;" horiz-adv-x="1253" 
d="M668 1409l577 -1409h-1233zM594 1059l-447 -959h844z" />
    <glyph glyph-name="guillemotleft" unicode="&#xab;" horiz-adv-x="961" 
d="M911 0h-254l-192 549l190 549h254l-188 -547zM518 0h-258l-190 551l192 547h256l-190 -547z" />
    <glyph glyph-name="guillemotright" unicode="&#xbb;" horiz-adv-x="961" 
d="M913 551l-190 -551h-254l188 549l-190 549h252zM518 551l-188 -551h-256l188 549l-192 549h258z" />
    <glyph glyph-name="ellipsis" unicode="&#x2026;" horiz-adv-x="2048" 
d="M342 285q64 0 109 -45.5t45 -110.5q0 -64 -45 -110t-109 -46t-110 46t-46 110t46 110t110 46zM1026 283q65 0 111.5 -46.5t46.5 -111.5q0 -64 -46.5 -110t-111.5 -46t-111.5 46t-46.5 110q0 66 46 112t112 46zM1712 281q64 0 110 -46t46 -110t-46 -110t-110 -46
q-65 0 -111.5 46t-46.5 110t46.5 110t111.5 46z" />
    <glyph glyph-name="uni00A0" unicode="&#xa0;" horiz-adv-x="449" 
 />
    <glyph glyph-name="Agrave" unicode="&#xc0;" horiz-adv-x="1024" 
d="M999 0h-264l-41 195h-329l-46 -195h-264l357 1249h274zM655 397l-110 545h-4l-127 -545h241zM668 1348h-179l-274 299h313z" />
    <glyph glyph-name="Atilde" unicode="&#xc3;" horiz-adv-x="1024" 
d="M999 0h-264l-41 195h-329l-46 -195h-264l357 1249h274zM655 397l-110 545h-4l-127 -545h241zM878 1616q0 -252 -178 -252q-40 0 -63.5 6.5t-115.5 42t-137 35.5q-69 0 -69 -80v-6h-127v29q0 105 48.5 165t133.5 60q38 0 68.5 -9t106.5 -44t122 -35q70 0 82 88h129z" />
    <glyph glyph-name="Otilde" unicode="&#xd5;" horiz-adv-x="1067" 
d="M102 631q0 263 57 386t151.5 191t238.5 68q119 0 192 -39.5t135.5 -115t91.5 -187t29 -295.5q0 -377 -125.5 -520.5t-324.5 -143.5q-203 0 -324 148.5t-121 507.5zM387 707v-80q0 -197 13 -259.5t55.5 -98.5t101.5 -36q48 0 88 35t56 106.5t16 254.5q0 164 -13.5 233.5
t-54.5 112.5t-100 43q-86 0 -124 -74.5t-38 -236.5zM898 1616q0 -252 -178 -252q-40 0 -63.5 6.5t-115.5 42t-137 35.5q-69 0 -69 -80v-6h-127v29q0 105 48.5 165t133.5 60q38 0 68.5 -9t106.5 -44t122 -35q70 0 82 88h129z" />
    <glyph glyph-name="OE" unicode="&#x152;" horiz-adv-x="1430" 
d="M1376 0h-614l-115 -8h-16q-33 0 -53.5 2t-36.5 2h-6q-147 0 -297 141.5t-150 491.5q0 319 141 476t394 157h28l105 -13h585v-243h-315v-254h270v-230h-270v-276h350v-246zM758 248v762q-93 10 -137 10q-125 0 -188.5 -60.5t-63.5 -285.5q0 -221 18 -291t73.5 -110
t157.5 -40q39 0 111 11z" />
    <glyph glyph-name="oe" unicode="&#x153;" horiz-adv-x="1280" 
d="M1221 377h-430v-27q0 -198 108 -198q87 0 90 104h219q-16 -143 -102.5 -211t-222.5 -68q-139 0 -215 74q-50 -38 -95.5 -54.5t-134.5 -16.5q-169 0 -258.5 119t-89.5 345q0 209 93 324t261 115q152 0 230 -80q87 80 215 80q144 0 238 -96.5t94 -409.5zM991 518
q-1 110 -22.5 161.5t-79.5 51.5q-55 0 -76.5 -52t-21.5 -161h200zM444 178q59 0 81 52t22 176q0 150 -15.5 213t-82.5 63q-60 0 -83.5 -52t-23.5 -173q0 -155 19.5 -217t82.5 -62z" />
    <glyph glyph-name="endash" unicode="&#x2013;" horiz-adv-x="1024" 
d="M1034 393h-1044v248h1044v-248z" />
    <glyph glyph-name="emdash" unicode="&#x2014;" horiz-adv-x="2048" 
d="M2077 393h-2083v246h2083v-246z" />
    <glyph glyph-name="quotedblleft" unicode="&#x201c;" 
d="M829 680h-272v238q0 119 51.5 206t81.5 117q1 1 2 3t2 3l107 -80q-106 -135 -105 -219h133v-268zM377 680h-275v248q0 163 140 319l110 -82q-78 -79 -106 -181l-4 -15v-19h135v-270z" />
    <glyph glyph-name="quotedblright" unicode="&#x201d;" 
d="M825 993q0 -69 -37 -153.5t-100 -151.5l-113 76q109 111 111 219h-133v268h272v-258zM373 991q0 -68 -36.5 -152.5t-98.5 -152.5l-113 78q103 108 108 219h-133v268h273v-260z" />
    <glyph glyph-name="quoteleft" unicode="&#x2018;" horiz-adv-x="469" 
d="M385 686h-272v242q0 158 135 321l114 -82q-106 -113 -110 -213h133v-268z" />
    <glyph glyph-name="quoteright" unicode="&#x2019;" horiz-adv-x="469" 
d="M387 989q0 -139 -139 -303l-109 80q109 115 109 217h-133v268h272v-262z" />
    <glyph glyph-name="divide" unicode="&#xf7;" horiz-adv-x="1366" 
d="M680 1182q41 0 69.5 -28.5t28.5 -70.5q0 -40 -28.5 -69t-67.5 -29q-41 0 -70.5 30t-29.5 72q0 39 29 67t69 28zM1233 592h-1098v149h1098v-149zM682 354q41 0 69.5 -28t28.5 -68q0 -42 -28.5 -71t-69.5 -29t-70.5 29t-29.5 69q0 41 29 69.5t71 28.5z" />
    <glyph glyph-name="lozenge" unicode="&#x25ca;" horiz-adv-x="1012" 
d="M962 763l-397 -763h-122l-397 763l397 763h122zM839 763l-335 652l-335 -652l335 -652z" />
    <glyph glyph-name="ydieresis" unicode="&#xff;" horiz-adv-x="811" 
d="M780 858l-368 -1237h-242l117 391l-228 846h240l113 -567h4l119 567h245zM648 1268q56 0 95.5 -40t39.5 -95q0 -57 -39 -97.5t-96 -40.5q-56 0 -95.5 40.5t-39.5 97.5q0 55 39.5 95t95.5 40zM196 1268q56 0 95.5 -40t39.5 -95q0 -57 -39.5 -97.5t-95.5 -40.5
q-57 0 -96 40.5t-39 97.5q0 55 39.5 95t95.5 40z" />
    <glyph glyph-name="Ydieresis" unicode="&#x178;" horiz-adv-x="961" 
d="M930 1249l-279 -696v-553h-268v551l-324 698h291l160 -395l152 395h268zM722 1639q56 0 95.5 -40t39.5 -95q0 -57 -39 -97.5t-96 -40.5q-56 0 -95.5 40.5t-39.5 97.5q0 55 39.5 95t95.5 40zM270 1639q56 0 95.5 -40t39.5 -95q0 -57 -39.5 -97.5t-95.5 -40.5
q-57 0 -96 40.5t-39 97.5q0 55 39.5 95t95.5 40z" />
    <glyph glyph-name="fraction" unicode="&#x2215;" horiz-adv-x="449" 
d="M739 1276l-825 -1350h-182l823 1350h184z" />
    <glyph glyph-name="Euro" unicode="&#x20ac;" horiz-adv-x="834" 
d="M791 20q-92 -45 -211 -45q-182 0 -312 129.5t-162 354.5h-83l24 119h49v56q-1 26 0 42h-73l24 119h59q29 210 152.5 345.5t296.5 135.5q109 0 233 -62v-262q-113 68 -188 68q-84 0 -146.5 -61t-82.5 -164h387l-23 -119h-377l-2 -47l2 -51h357l-25 -119h-319
q18 -106 81 -167t152 -61q88 0 187 74v-285z" />
    <glyph glyph-name="guilsinglleft" unicode="&#x2039;" horiz-adv-x="578" 
d="M528 0h-258l-188 551l190 547h256l-188 -547z" />
    <glyph glyph-name="guilsinglright" unicode="&#x203a;" horiz-adv-x="578" 
d="M530 551l-188 -551h-256l188 549l-192 549h258z" />
    <glyph glyph-name="uniF001" unicode="&#xf001;" horiz-adv-x="961" 
d="M883 993h-242q-2 152 -104 152q-48 0 -74.5 -33.5t-26.5 -93.5v-158h162v-196h-162v-664h-246v666h-131v194h131v201q0 102 81.5 188t267.5 86q95 0 166 -25t112.5 -72t53.5 -99t12 -146zM887 0h-246v860h246v-860z" />
    <glyph glyph-name="uniF001" unicode="&#xfb01;" horiz-adv-x="961" 
d="M883 993h-242q-2 152 -104 152q-48 0 -74.5 -33.5t-26.5 -93.5v-158h162v-196h-162v-664h-246v666h-131v194h131v201q0 102 81.5 188t267.5 86q95 0 166 -25t112.5 -72t53.5 -99t12 -146zM887 0h-246v860h246v-860z" />
    <glyph glyph-name="uniF002" unicode="&#xf002;" horiz-adv-x="961" 
d="M879 0h-244v1012q0 131 -100 131q-48 0 -76.5 -31t-28.5 -84v-168h162v-196h-162v-664h-242v664h-133v196h133v201q0 105 79.5 189.5t275.5 84.5q160 0 248 -76.5t88 -216.5v-1042z" />
    <glyph glyph-name="uniF002" unicode="&#xfb02;" horiz-adv-x="961" 
d="M879 0h-244v1012q0 131 -100 131q-48 0 -76.5 -31t-28.5 -84v-168h162v-196h-162v-664h-242v664h-133v196h133v201q0 105 79.5 189.5t275.5 84.5q160 0 248 -76.5t88 -216.5v-1042z" />
    <glyph glyph-name="daggerdbl" unicode="&#x2021;" horiz-adv-x="725" 
d="M412 117q37 0 100 17.5t88 17.5q68 0 68 -70q0 -68 -74 -68q-27 0 -88 16.5t-103 18.5q0 -74 30 -181t30 -140q0 -111 -86 -111q-38 0 -62 35t-24 92q0 39 27.5 132.5t27.5 172.5q-30 -1 -97 -19t-97 -18q-31 0 -51.5 19.5t-20.5 48.5q0 32 21.5 52t56.5 20
q28 0 89.5 -18.5t90.5 -18.5q0 20 -21 71q-22 65 -22 99t24.5 106.5t24.5 106.5q0 43 -25.5 103.5t-25.5 107.5q0 49 19.5 98.5t19.5 69.5q-39 -1 -95.5 -19t-80.5 -18h-4q-34 3 -55 21t-21 44q0 33 22.5 55.5t55.5 22.5q18 0 89 -17.5t97 -19.5q0 80 -26.5 170t-26.5 137
q0 121 88 121q38 0 60 -30.5t22 -83.5q0 -45 -29 -144t-29 -172q38 0 99.5 18.5t89.5 18.5q34 0 56 -17.5t22 -45.5q0 -34 -20 -55t-52 -21q-14 0 -72.5 17.5t-111.5 17.5q0 -28 22.5 -80.5t22.5 -89.5t-24.5 -100.5t-24.5 -112.5q0 -33 26.5 -107t26.5 -102
q0 -38 -23.5 -90t-23.5 -78z" />
    <glyph glyph-name="uni00B7" unicode="&#xb7;" horiz-adv-x="469" 
d="M254 774q62 0 103.5 -43.5t41.5 -107.5q0 -58 -44 -100t-105 -42q-63 0 -105.5 43t-42.5 109q0 57 44.5 99t105.5 42h2z" />
    <glyph glyph-name="uni00B7" unicode="&#x2219;" horiz-adv-x="469" 
d="M254 774q62 0 103.5 -43.5t41.5 -107.5q0 -58 -44 -100t-105 -42q-63 0 -105.5 43t-42.5 109q0 57 44.5 99t105.5 42h2z" />
    <glyph glyph-name="quotesinglbase" unicode="&#x201a;" horiz-adv-x="469" 
d="M434 272l-205 -532h-155l125 532h235z" />
    <glyph glyph-name="quotedblbase" unicode="&#x201e;" 
d="M825 8q0 -134 -135 -303l-115 80q108 108 111 217h-133v270h272v-264zM373 10q0 -150 -135 -305l-113 80q99 100 108 217h-133v268h273v-260z" />
    <glyph glyph-name="perthousand" unicode="&#x2030;" horiz-adv-x="2028" 
d="M340 1280q124 0 190 -83.5t66 -240.5q0 -161 -67.5 -247t-192.5 -86q-262 0 -262 329q0 328 266 328zM336 797q65 0 65 157q0 152 -65 152q-68 0 -68 -152q0 -157 68 -157zM1096 1276l-633 -1311h-158l637 1311h154zM1665 631q124 0 191 -83.5t67 -240.5q0 -162 -68 -248
t-194 -86q-128 0 -195 84.5t-67 245.5q0 328 266 328zM1661 147q36 0 50.5 37t14.5 121q0 152 -65 152q-68 0 -68 -152q0 -158 68 -158zM1069 627q124 0 191 -83.5t67 -238.5q0 -162 -68 -249t-194 -87q-127 0 -193.5 84.5t-66.5 245.5q0 328 264 328zM1065 143
q36 0 50.5 37t14.5 121q0 154 -65 154q-66 0 -66 -154q0 -158 66 -158z" />
    <glyph glyph-name="Acircumflex" unicode="&#xc2;" horiz-adv-x="1024" 
d="M999 0h-264l-41 195h-329l-46 -195h-264l357 1249h274zM655 397l-110 545h-4l-127 -545h241zM880 1352h-225l-117 149l-109 -149h-227l211 295h260z" />
    <glyph glyph-name="Ecircumflex" unicode="&#xca;" horiz-adv-x="811" 
d="M754 0h-623v1249h584v-241h-316v-254h271v-232h-271v-276h355v-246zM746 1352h-225l-117 149l-109 -149h-227l211 295h260z" />
    <glyph glyph-name="Aacute" unicode="&#xc1;" horiz-adv-x="1024" 
d="M999 0h-264l-41 195h-329l-46 -195h-264l357 1249h274zM655 397l-110 545h-4l-127 -545h241zM843 1647l-274 -299h-179l140 299h313z" />
    <glyph glyph-name="Edieresis" unicode="&#xcb;" horiz-adv-x="811" 
d="M754 0h-623v1249h584v-241h-316v-254h271v-232h-271v-276h355v-246zM632 1639q56 0 95.5 -40t39.5 -95q0 -57 -39 -97.5t-96 -40.5q-56 0 -95.5 40.5t-39.5 97.5q0 55 39.5 95t95.5 40zM180 1639q56 0 95.5 -40t39.5 -95q0 -57 -39.5 -97.5t-95.5 -40.5q-57 0 -96 40.5
t-39 97.5q0 55 39.5 95t95.5 40z" />
    <glyph glyph-name="Egrave" unicode="&#xc8;" horiz-adv-x="811" 
d="M754 0h-623v1249h584v-241h-316v-254h271v-232h-271v-276h355v-246zM562 1348h-179l-274 299h313z" />
    <glyph glyph-name="Iacute" unicode="&#xcd;" horiz-adv-x="555" 
d="M156 1249h270v-1249h-270v1249zM576 1647l-274 -299h-179l140 299h313z" />
    <glyph glyph-name="Icircumflex" unicode="&#xce;" horiz-adv-x="555" 
d="M156 1249h270v-1249h-270v1249zM617 1352h-225l-117 149l-109 -149h-227l211 295h260z" />
    <glyph glyph-name="Idieresis" unicode="&#xcf;" horiz-adv-x="555" 
d="M156 1249h270v-1249h-270v1249zM503 1639q56 0 95.5 -40t39.5 -95q0 -57 -39 -97.5t-96 -40.5q-56 0 -95.5 40.5t-39.5 97.5q0 55 39.5 95t95.5 40zM51 1639q56 0 95.5 -40t39.5 -95q0 -57 -39.5 -97.5t-95.5 -40.5q-57 0 -96 40.5t-39 97.5q0 55 39.5 95t95.5 40z" />
    <glyph glyph-name="Igrave" unicode="&#xcc;" horiz-adv-x="555" 
d="M156 1249h270v-1249h-270v1249zM433 1348h-179l-274 299h313z" />
    <glyph glyph-name="Oacute" unicode="&#xd3;" horiz-adv-x="1067" 
d="M102 631q0 263 57 386t151.5 191t238.5 68q119 0 192 -39.5t135.5 -115t91.5 -187t29 -295.5q0 -377 -125.5 -520.5t-324.5 -143.5q-203 0 -324 148.5t-121 507.5zM387 707v-80q0 -197 13 -259.5t55.5 -98.5t101.5 -36q48 0 88 35t56 106.5t16 254.5q0 164 -13.5 233.5
t-54.5 112.5t-100 43q-86 0 -124 -74.5t-38 -236.5zM832 1647l-274 -299h-179l140 299h313z" />
    <glyph glyph-name="Ocircumflex" unicode="&#xd4;" horiz-adv-x="1067" 
d="M102 631q0 263 57 386t151.5 191t238.5 68q119 0 192 -39.5t135.5 -115t91.5 -187t29 -295.5q0 -377 -125.5 -520.5t-324.5 -143.5q-203 0 -324 148.5t-121 507.5zM387 707v-80q0 -197 13 -259.5t55.5 -98.5t101.5 -36q48 0 88 35t56 106.5t16 254.5q0 164 -13.5 233.5
t-54.5 112.5t-100 43q-86 0 -124 -74.5t-38 -236.5zM873 1352h-225l-117 149l-109 -149h-227l211 295h260z" />
    <glyph glyph-name="glyph210" horiz-adv-x="1618" 
 />
    <glyph glyph-name="Ograve" unicode="&#xd2;" horiz-adv-x="1067" 
d="M102 631q0 263 57 386t151.5 191t238.5 68q119 0 192 -39.5t135.5 -115t91.5 -187t29 -295.5q0 -377 -125.5 -520.5t-324.5 -143.5q-203 0 -324 148.5t-121 507.5zM387 707v-80q0 -197 13 -259.5t55.5 -98.5t101.5 -36q48 0 88 35t56 106.5t16 254.5q0 164 -13.5 233.5
t-54.5 112.5t-100 43q-86 0 -124 -74.5t-38 -236.5zM689 1348h-179l-274 299h313z" />
    <glyph glyph-name="Uacute" unicode="&#xda;" horiz-adv-x="1024" 
d="M928 352q0 -176 -105.5 -276.5t-292.5 -100.5q-194 0 -298.5 103t-104.5 295v876h272v-833q0 -88 34.5 -135.5t96.5 -47.5q58 0 91.5 46t33.5 124v846h273v-897zM811 1647l-274 -299h-179l140 299h313z" />
    <glyph glyph-name="Ucircumflex" unicode="&#xdb;" horiz-adv-x="1024" 
d="M928 352q0 -176 -105.5 -276.5t-292.5 -100.5q-194 0 -298.5 103t-104.5 295v876h272v-833q0 -88 34.5 -135.5t96.5 -47.5q58 0 91.5 46t33.5 124v846h273v-897zM868 1352h-225l-117 149l-109 -149h-227l211 295h260z" />
    <glyph glyph-name="Ugrave" unicode="&#xd9;" horiz-adv-x="1024" 
d="M928 352q0 -176 -105.5 -276.5t-292.5 -100.5q-194 0 -298.5 103t-104.5 295v876h272v-833q0 -88 34.5 -135.5t96.5 -47.5q58 0 91.5 46t33.5 124v846h273v-897zM668 1348h-179l-274 299h313z" />
    <glyph glyph-name="dotlessi" unicode="&#x131;" horiz-adv-x="469" 
d="M127 854h242v-854h-242v854z" />
    <glyph glyph-name="circumflex" unicode="&#x2c6;" horiz-adv-x="682" 
d="M680 981h-225l-117 149l-109 -149h-227l211 295h260z" />
    <glyph glyph-name="tilde" unicode="&#x2dc;" horiz-adv-x="682" 
d="M678 1245q0 -252 -178 -252q-40 0 -63.5 6.5t-115.5 42t-137 35.5q-69 0 -69 -80v-6h-127v29q0 105 48.5 165t133.5 60q38 0 68.5 -9t106.5 -44t122 -35q70 0 82 88h129z" />
    <glyph glyph-name="macron" unicode="&#x2c9;" horiz-adv-x="682" 
d="M664 1022h-646v186h646v-186z" />
    <glyph glyph-name="breve" unicode="&#x2d8;" horiz-adv-x="682" 
d="M649 1276q-13 -139 -96.5 -215t-214.5 -76t-214.5 76t-96.5 215h137q12 -143 174 -143t174 143h137z" />
    <glyph glyph-name="dotaccent" unicode="&#x2d9;" horiz-adv-x="682" 
d="M344 1280q56 0 95.5 -40t39.5 -97q0 -56 -39.5 -95.5t-95.5 -39.5t-95.5 39.5t-39.5 95.5q0 57 39.5 97t95.5 40z" />
    <glyph glyph-name="ring" unicode="&#x2da;" horiz-adv-x="682" 
d="M342 1323q81 0 138 -57.5t57 -139.5q0 -79 -58 -136.5t-137 -57.5q-81 0 -139 57.5t-58 136.5q0 81 58 139t139 58zM342 1038q36 0 62 26.5t26 61.5q0 38 -25.5 64.5t-62.5 26.5q-36 0 -63 -26.5t-27 -62.5t26.5 -63t63.5 -27z" />
    <glyph glyph-name="cedilla" unicode="&#xb8;" horiz-adv-x="682" 
d="M160 -39q87 27 170 27q114 0 184 -52.5t70 -136.5q0 -96 -93.5 -157.5t-257.5 -61.5q-112 0 -194 17v118q82 -12 188 -12q77 0 121.5 25.5t44.5 68.5q0 39 -34.5 61.5t-94.5 22.5q-55 0 -131 -18z" />
    <glyph glyph-name="hungarumlaut" unicode="&#x2dd;" horiz-adv-x="682" 
d="M899 1280l-248 -297h-178l139 297h287zM528 1280l-256 -297h-176l140 297h292z" />
    <glyph glyph-name="ogonek" unicode="&#x2db;" horiz-adv-x="682" 
d="M604 -389q-104 -41 -194 -41q-115 0 -182.5 63t-67.5 170q0 117 37 224h149q-20 -63 -20 -144q0 -159 141 -159q61 0 137 24v-137z" />
    <glyph glyph-name="caron" unicode="&#x2c7;" horiz-adv-x="682" 
d="M680 1276l-207 -295h-260l-211 295h227l109 -150l117 150h225z" />
    <glyph glyph-name="Lslash" unicode="&#x141;" horiz-adv-x="748" 
d="M717 0h-586v442l-88 -71v137l90 74v669h268v-442l154 129v-137l-154 -129v-424h316v-248z" />
    <glyph glyph-name="lslash" unicode="&#x142;" horiz-adv-x="469" 
d="M477 803l-106 -92v-711h-244v506l-115 -96v125l115 96v704h244v-501l106 92v-123z" />
    <glyph glyph-name="Scaron" unicode="&#x160;" horiz-adv-x="788" 
d="M680 897q-107 125 -205 125q-44 0 -78.5 -29t-34.5 -65q0 -65 109 -154q114 -91 162 -143.5t77 -123.5t29 -155q0 -165 -105.5 -271t-271.5 -106q-136 0 -266 97v295q125 -136 250 -136q56 0 93.5 31t37.5 76q0 67 -96 149q-153 132 -200.5 196.5t-71 130t-23.5 132.5
q0 144 101 238t257 94q118 0 236 -68v-313zM733 1647l-207 -295h-260l-211 295h227l109 -150l117 150h225z" />
    <glyph glyph-name="scaron" unicode="&#x161;" horiz-adv-x="705" 
d="M551 621q-100 79 -162 79q-70 0 -70 -55q0 -36 115 -96.5t168 -133.5t53 -175q0 -115 -80 -190t-204 -75q-88 0 -153 23.5t-140 75.5l104 178q9 -5 23 -16q91 -72 145 -72q33 0 53.5 18.5t20.5 46.5q0 25 -32 53.5t-126 85.5t-136 112.5t-42 133.5q0 118 79.5 193.5
t205.5 75.5q140 0 272 -95zM692 1276l-207 -295h-260l-211 295h227l109 -150l117 150h225z" />
    <glyph glyph-name="Zcaron" unicode="&#x17d;" horiz-adv-x="918" 
d="M893 1249l-457 -1005h357v-244h-734v39l439 965h-400v245h795zM799 1647l-207 -295h-260l-211 295h227l109 -150l117 150h225z" />
    <glyph glyph-name="zcaron" unicode="&#x17e;" horiz-adv-x="705" 
d="M674 821l-285 -608h266v-213h-596v45l283 600h-260v213h592v-37zM692 1276l-207 -295h-260l-211 295h227l109 -150l117 150h225z" />
    <glyph glyph-name="brokenbar" unicode="&#xa6;" horiz-adv-x="1118" 
d="M639 700h-160v725h160v-725zM639 -276h-160v725h160v-725z" />
    <glyph glyph-name="Eth" unicode="&#xd0;" horiz-adv-x="1044" 
d="M135 1249h299q250 0 397.5 -160t147.5 -460q0 -303 -144 -466t-411 -163h-289v573h-82v103h82v573zM408 227h32q81 0 168.5 66t87.5 315q0 184 -32.5 262t-95.5 116t-130 38h-30v-348h174v-103h-174v-346z" />
    <glyph glyph-name="eth" unicode="&#xf0;" horiz-adv-x="854" 
d="M551 1184q244 -273 244 -750q0 -225 -89 -342t-260 -117q-168 0 -260 118.5t-92 336.5q0 207 88.5 329t235.5 122q46 0 92 -17q-35 124 -113 230l-211 -121l-47 84l189 108q-44 40 -99 72l125 98q48 -20 125 -82l139 80l52 -82zM545 348v148q0 186 -99 186
q-104 0 -104 -186v-148q0 -83 28 -128.5t79 -45.5q96 0 96 174z" />
    <glyph glyph-name="Yacute" unicode="&#xdd;" horiz-adv-x="961" 
d="M930 1249l-279 -696v-553h-268v551l-324 698h291l160 -395l152 395h268zM779 1647l-274 -299h-179l140 299h313z" />
    <glyph glyph-name="yacute" unicode="&#xfd;" horiz-adv-x="811" 
d="M780 858l-368 -1237h-242l117 391l-228 846h240l113 -567h4l119 567h245zM705 1276l-274 -299h-179l140 299h313z" />
    <glyph glyph-name="Thorn" unicode="&#xde;" horiz-adv-x="918" 
d="M406 1006h49q225 0 331.5 -95t106.5 -297q0 -166 -101.5 -267.5t-385.5 -100.5v-246h-271v1249h271v-243zM406 442h38q166 0 166 183q0 178 -157 178h-47v-361z" />
    <glyph glyph-name="thorn" unicode="&#xfe;" horiz-adv-x="874" 
d="M373 719q61 164 200 164q120 0 184 -113.5t64 -327.5q0 -228 -66 -347.5t-192 -119.5q-133 0 -192 175h-4v-529h-246v1712h248v-614h4zM475 197q94 0 94 235q0 121 -23 175.5t-77 54.5t-77 -54t-23 -174q0 -123 25 -180t81 -57z" />
    <glyph glyph-name="multiply" unicode="&#xd7;" horiz-adv-x="1366" 
d="M1194 1063l-397 -397l393 -396l-111 -110l-393 395l-397 -395l-111 110l395 396l-397 397l111 111l397 -398l397 398z" />
    <glyph glyph-name="onesuperior" unicode="&#xb9;" horiz-adv-x="662" 
d="M424 463h-180v624h-109v175h289v-799z" />
    <glyph glyph-name="twosuperior" unicode="&#xb2;" horiz-adv-x="662" 
d="M94 979q4 152 63.5 223.5t192.5 71.5q115 0 180.5 -57t65.5 -156q0 -77 -54.5 -176t-168.5 -242h194v-180h-481v82l59 73q263 328 263 422q0 68 -68 68q-42 0 -58.5 -31t-19.5 -98h-168z" />
    <glyph glyph-name="threesuperior" unicode="&#xb3;" horiz-adv-x="664" 
d="M477 885q117 -57 117 -189q0 -117 -70 -183.5t-194 -66.5q-99 0 -156.5 35.5t-75.5 78t-18 132.5h184q3 -84 70 -84q32 0 50.5 24.5t18.5 65.5q0 57 -30 78t-107 21v157h56q37 0 62.5 25t25.5 61q0 33 -18 54.5t-44 21.5q-27 0 -44 -20.5t-17 -53.5h-176q2 234 251 234
q103 0 161.5 -57.5t58.5 -157.5q0 -117 -105 -176z" />
    <glyph glyph-name="onehalf" unicode="&#xbd;" horiz-adv-x="1772" 
d="M436 463h-180v624h-109v175h289v-799zM1364 1276l-825 -1350h-182l823 1350h184zM1206 467q4 152 63.5 223.5t192.5 71.5q115 0 180.5 -57t65.5 -156q0 -77 -54.5 -176t-168.5 -242h194v-180h-481v82l59 73q263 328 263 422q0 68 -68 68q-42 0 -58.5 -31t-19.5 -98h-168z
" />
    <glyph glyph-name="onequarter" unicode="&#xbc;" horiz-adv-x="1772" 
d="M439 463h-180v624h-109v175h289v-799zM1375 1276l-825 -1350h-182l823 1350h184zM1711 119h-74v-168h-172v170h-295v92l250 535h217v-488h74v-141zM1465 260v305l-4 2l-141 -307h145z" />
    <glyph glyph-name="threequarters" unicode="&#xbe;" horiz-adv-x="1772" 
d="M487 885q117 -57 117 -189q0 -117 -70 -183.5t-194 -66.5q-99 0 -156.5 35.5t-75.5 78t-18 132.5h184q3 -84 70 -84q32 0 50.5 24.5t18.5 65.5q0 57 -30 78t-107 21v157h56q37 0 62.5 25t25.5 61q0 33 -18 54.5t-44 21.5q-27 0 -44 -20.5t-17 -53.5h-176q2 234 251 234
q103 0 161.5 -57.5t58.5 -157.5q0 -117 -105 -176zM1409 1276l-825 -1350h-182l823 1350h184zM1709 119h-74v-168h-172v170h-295v92l250 535h217v-488h74v-141zM1463 260v305l-4 2l-141 -307h145z" />
    <glyph glyph-name="uni00AD" unicode="&#xad;" horiz-adv-x="469" 
d="M436 332h-366v200h366v-200z" />
    <glyph glyph-name="uni00AF" unicode="&#xaf;" horiz-adv-x="1024" 
d="M1038 1401h-1052v102h1052v-102z" />
    <glyph glyph-name="foursuperior" horiz-adv-x="662" 
d="M594 631h-74v-168h-172v170h-295v92l250 535h217v-488h74v-141zM348 772v305l-4 2l-141 -307h145z" />
    <glyph glyph-name="Abreve" unicode="&#x102;" horiz-adv-x="1024" 
d="M999 0h-264l-41 195h-329l-46 -195h-264l357 1249h274zM655 397l-110 545h-4l-127 -545h241zM862 1643q-13 -139 -96.5 -215t-214.5 -76t-214.5 76t-96.5 215h137q12 -143 174 -143t174 143h137z" />
    <glyph glyph-name="abreve" unicode="&#x103;" horiz-adv-x="874" 
d="M784 0h-243v145h-4q-60 -170 -201 -170q-100 0 -175 97t-75 348q0 463 256 463q139 0 193 -178h4v153h245v-858zM426 668q-88 0 -88 -219q0 -131 24 -190.5t80 -59.5q53 0 76 54t23 173q0 126 -26 184t-85 58h-4zM759 1276q-13 -139 -96.5 -215t-214.5 -76t-214.5 76
t-96.5 215h137q12 -143 174 -143t174 143h137z" />
    <glyph glyph-name="Aogonek" unicode="&#x104;" horiz-adv-x="1024" 
d="M1151 -389q-107 -41 -195 -41q-114 0 -181.5 63t-67.5 170q0 34 3 67t10 65l15 65l-41 195h-329l-46 -195h-264l357 1249h274l313 -1249h-114q-13 -52 -13 -117q0 -159 142 -159q60 0 137 24v-137zM655 397l-110 545h-4l-127 -545h241z" />
    <glyph glyph-name="aogonek" unicode="&#x105;" horiz-adv-x="874" 
d="M956 -389q-106 -41 -194 -41q-115 0 -182.5 63t-67.5 170q0 34 3.5 67.5t10.5 65.5l15 64v145h-4q-58 -170 -201 -170q-98 0 -174 96t-76 349q0 463 256 463q140 0 193 -178h4v153h245v-858h-94q-12 -52 -12 -117q0 -159 141 -159q61 0 137 24v-137zM426 668
q-88 0 -88 -219q0 -132 24.5 -191t79.5 -59q51 0 75 53t24 174q0 127 -26.5 184.5t-84.5 57.5h-4z" />
    <glyph glyph-name="Cacute" unicode="&#x106;" 
d="M854 20q-103 -45 -229 -45q-226 0 -377.5 165t-151.5 481q0 326 150 490.5t350 164.5q120 0 256 -62v-262q-106 54 -137.5 61t-67.5 7q-106 0 -186 -88t-80 -303q0 -225 77.5 -311.5t192.5 -86.5q94 0 203 74v-285zM885 1649l-274 -299h-179l140 299h313z" />
    <glyph glyph-name="cacute" unicode="&#x107;" horiz-adv-x="618" 
d="M575 639q-56 41 -106 41q-127 0 -127 -250q0 -254 125 -254q48 0 106 37v-205q-100 -37 -170 -37q-144 0 -227.5 114t-83.5 314q0 273 89 376.5t229 103.5q92 0 165 -39v-201zM711 1276l-274 -299h-179l140 299h313z" />
    <glyph glyph-name="Ccaron" unicode="&#x10c;" 
d="M854 20q-103 -45 -229 -45q-226 0 -377.5 165t-151.5 481q0 326 150 490.5t350 164.5q120 0 256 -62v-262q-106 54 -137.5 61t-67.5 7q-106 0 -186 -88t-80 -303q0 -225 77.5 -311.5t192.5 -86.5q94 0 203 74v-285zM909 1647l-207 -295h-260l-211 295h227l109 -150
l117 150h225z" />
    <glyph glyph-name="ccaron" unicode="&#x10d;" horiz-adv-x="618" 
d="M575 639q-56 41 -106 41q-127 0 -127 -250q0 -254 125 -254q48 0 106 37v-205q-100 -37 -170 -37q-144 0 -227.5 114t-83.5 314q0 273 89 376.5t229 103.5q92 0 165 -39v-201zM729 1276l-207 -295h-260l-211 295h227l109 -150l117 150h225z" />
    <glyph glyph-name="Dcaron" unicode="&#x10e;" horiz-adv-x="1044" 
d="M135 1249h299q250 0 397.5 -160t147.5 -460q0 -303 -144 -466t-411 -163h-289v1249zM408 1024v-797h32q81 0 168.5 66t87.5 315q0 184 -32.5 262t-95.5 116t-130 38h-30zM852 1647l-207 -295h-260l-211 295h227l109 -150l117 150h225z" />
    <glyph glyph-name="dcaron" unicode="&#x10f;" horiz-adv-x="1169" 
d="M782 0h-243v141h-4q-67 -166 -205 -166q-96 0 -171 97.5t-75 357.5q0 219 67.5 335t192.5 116q134 0 191 -174h4v628h243v-1335zM432 666q-96 0 -96 -240q0 -231 102 -231q54 0 77.5 54t23.5 175q0 242 -105 242h-2zM1109 1103q0 -116 -102 -232l-85 61q73 76 82 165
h-101v202h206v-196z" />
    <glyph glyph-name="Dcroat" unicode="&#x110;" horiz-adv-x="1044" 
d="M135 1249h299q250 0 397.5 -159.5t147.5 -460.5q0 -307 -146 -468t-409 -161h-289v573h-82v103h82v573zM408 227h32q80 0 168 65.5t88 315.5q0 193 -35.5 269.5t-99.5 111.5t-123 35h-30v-348h174v-103h-174v-346z" />
    <glyph glyph-name="dcroat" unicode="&#x111;" horiz-adv-x="874" 
d="M870 1061h-88v-1061h-243v141h-4q-68 -166 -205 -166q-95 0 -170.5 96.5t-75.5 358.5q0 220 67.5 335.5t192.5 115.5q136 0 191 -174h4v354h-193v106h193v168h243v-168h88v-106zM432 666q-96 0 -96 -240q0 -231 102 -231q52 0 76.5 51.5t24.5 177.5q0 242 -105 242h-2z
" />
    <glyph glyph-name="Eogonek" unicode="&#x118;" horiz-adv-x="811" 
d="M778 -389q-107 -41 -194 -41q-115 0 -182.5 63t-67.5 170q0 98 28 197h-231v1249h584v-241h-316v-254h271v-232h-271v-276h355v-246h-242q-12 -52 -12 -117q0 -159 141 -159q61 0 137 24v-137z" />
    <glyph glyph-name="eogonek" unicode="&#x119;" horiz-adv-x="831" 
d="M764 -389q-107 -41 -195 -41q-114 0 -182 63t-68 170q0 96 25 185q-252 64 -252 448q0 208 103.5 327.5t261.5 119.5q114 0 192 -66t103.5 -166t25.5 -274h-432q6 -140 31 -182.5t86 -42.5q80 0 86 102h215q-11 -122 -83 -194.5t-187 -82.5q-9 -38 -9 -94
q0 -159 142 -159q60 0 137 24v-137zM549 518q0 213 -94 213q-61 0 -85 -52t-24 -161h203z" />
    <glyph glyph-name="Ecaron" unicode="&#x11a;" horiz-adv-x="811" 
d="M754 0h-623v1249h584v-241h-316v-254h271v-232h-271v-276h355v-246zM772 1647l-207 -295h-260l-211 295h227l109 -150l117 150h225z" />
    <glyph glyph-name="ecaron" unicode="&#x11b;" horiz-adv-x="831" 
d="M778 377h-432q6 -139 30.5 -182t86.5 -43q79 0 86 102h215q-13 -135 -95.5 -207t-219.5 -72q-175 0 -266 117.5t-91 343.5q0 201 101 324t264 123q116 0 193.5 -67.5t102.5 -168.5t25 -270zM549 518q-1 109 -22 161t-72 52q-59 0 -83.5 -51.5t-25.5 -161.5h203zM793 1276
l-207 -295h-260l-211 295h227l109 -150l117 150h225z" />
    <glyph glyph-name="Lacute" unicode="&#x139;" horiz-adv-x="748" 
d="M717 0h-584v1249h268v-1003h316v-246zM703 1648l-274 -299h-179l140 299h313z" />
    <glyph glyph-name="lacute" unicode="&#x13a;" horiz-adv-x="469" 
d="M373 0h-246v1335h246v-1335zM562 1744l-274 -299h-179l140 299h313z" />
    <glyph glyph-name="Lcaron" unicode="&#x13d;" horiz-adv-x="748" 
d="M717 0h-584v1249h268v-1003h316v-246zM750 1647l-207 -295h-260l-211 295h227l109 -150l117 150h225z" />
    <glyph glyph-name="lcaron" unicode="&#x13e;" horiz-adv-x="735" 
d="M373 0h-246v1335h246v-1335zM681 1103q0 -116 -102 -232l-85 61q73 76 82 165h-101v202h206v-196z" />
    <glyph glyph-name="Nacute" unicode="&#x143;" horiz-adv-x="1110" 
d="M1004 0h-285l-318 788h-4v-788h-262v1251h295l313 -776h5v776h256v-1251zM850 1648l-274 -299h-179l140 299h313z" />
    <glyph glyph-name="nacute" unicode="&#x144;" 
d="M369 858v-158h4q56 95 111.5 139t129.5 44q91 0 146 -78.5t55 -208.5v-596h-242v496q0 64 -27 100.5t-75 36.5q-102 0 -102 -158v-475h-244v858h244zM758 1276l-274 -299h-179l140 299h313z" />
    <glyph glyph-name="Ncaron" unicode="&#x147;" horiz-adv-x="1110" 
d="M1004 0h-285l-318 788h-4v-788h-262v1251h295l313 -776h5v776h256v-1251zM909 1647l-207 -295h-260l-211 295h227l109 -150l117 150h225z" />
    <glyph glyph-name="ncaron" unicode="&#x148;" 
d="M369 858v-158h4q56 95 111.5 139t129.5 44q91 0 146 -78.5t55 -208.5v-596h-242v496q0 64 -27 100.5t-75 36.5q-102 0 -102 -158v-475h-244v858h244zM807 1276l-207 -295h-260l-211 295h227l109 -150l117 150h225z" />
    <glyph glyph-name="Ohungarumlaut" unicode="&#x150;" horiz-adv-x="1067" 
d="M102 631q0 263 57 386t151.5 191t238.5 68q119 0 192 -39.5t135.5 -115t91.5 -187t29 -295.5q0 -377 -125.5 -520.5t-324.5 -143.5q-203 0 -324 148.5t-121 507.5zM387 707v-80q0 -197 13 -259.5t55.5 -98.5t101.5 -36q48 0 88 35t56 106.5t16 254.5q0 164 -13.5 233.5
t-54.5 112.5t-100 43q-86 0 -124 -74.5t-38 -236.5zM1032 1645l-248 -297h-178l139 297h287zM661 1645l-256 -297h-176l140 297h292z" />
    <glyph glyph-name="ohungarumlaut" unicode="&#x151;" horiz-adv-x="854" 
d="M88 420q0 224 92 343.5t262 119.5q172 0 262.5 -117t90.5 -340q0 -218 -89.5 -334.5t-256.5 -116.5q-176 0 -268.5 114.5t-92.5 330.5zM545 424q0 141 -19 198.5t-82 57.5q-58 0 -82 -54t-24 -175q0 -151 20 -213t84 -62q61 0 82 55.5t21 192.5zM955 1280l-248 -297h-178
l139 297h287zM584 1280l-256 -297h-176l140 297h292z" />
    <glyph glyph-name="Racute" unicode="&#x154;" horiz-adv-x="961" 
d="M909 0h-276l-217 618h-4v-618h-269v1249h351q105 0 209.5 -42t149 -131t44.5 -185q0 -116 -50 -190.5t-159 -135.5zM412 688q132 0 167 51.5t35 130.5q0 179 -147 179h-55v-361zM787 1648l-274 -299h-179l140 299h313z" />
    <glyph glyph-name="racute" unicode="&#x155;" horiz-adv-x="641" 
d="M621 637q-61 12 -86 12q-173 0 -173 -182v-467h-245v858h229v-203h4q57 225 271 230v-248zM643 1276l-274 -299h-179l140 299h313z" />
    <glyph glyph-name="Rcaron" unicode="&#x158;" horiz-adv-x="961" 
d="M909 0h-276l-217 618h-4v-618h-269v1249h351q105 0 209.5 -42t149 -131t44.5 -185q0 -116 -50 -190.5t-159 -135.5zM412 688q132 0 167 51.5t35 130.5q0 179 -147 179h-55v-361zM846 1647l-207 -295h-260l-211 295h227l109 -150l117 150h225z" />
    <glyph glyph-name="rcaron" unicode="&#x159;" horiz-adv-x="641" 
d="M621 637q-61 12 -86 12q-173 0 -173 -182v-467h-245v858h229v-203h4q57 225 271 230v-248zM701 1276l-207 -295h-260l-211 295h227l109 -150l117 150h225z" />
    <glyph glyph-name="Sacute" unicode="&#x15a;" horiz-adv-x="788" 
d="M680 897q-107 125 -205 125q-44 0 -78.5 -29t-34.5 -65q0 -65 109 -154q114 -91 162 -143.5t77 -123.5t29 -155q0 -165 -105.5 -271t-271.5 -106q-136 0 -266 97v295q125 -136 250 -136q56 0 93.5 31t37.5 76q0 67 -96 149q-153 132 -200.5 196.5t-71 130t-23.5 132.5
q0 144 101 238t257 94q118 0 236 -68v-313zM725 1648l-274 -299h-179l140 299h313z" />
    <glyph glyph-name="sacute" unicode="&#x15b;" horiz-adv-x="705" 
d="M551 621q-100 79 -162 79q-70 0 -70 -55q0 -36 115 -96.5t168 -133.5t53 -175q0 -115 -80 -190t-204 -75q-88 0 -153 23.5t-140 75.5l104 178q9 -5 23 -16q91 -72 145 -72q33 0 53.5 18.5t20.5 46.5q0 25 -32 53.5t-126 85.5t-136 112.5t-42 133.5q0 118 79.5 193.5
t205.5 75.5q140 0 272 -95zM691 1276l-274 -299h-179l140 299h313z" />
    <glyph glyph-name="Scedilla" unicode="&#x15e;" horiz-adv-x="788" 
d="M680 897q-107 125 -205 125q-44 0 -78.5 -29t-34.5 -65q0 -65 109 -154q114 -91 162 -143.5t77 -123.5t29 -155q0 -165 -105.5 -271t-271.5 -106q-136 0 -266 97v295q125 -136 250 -136q56 0 93.5 31t37.5 76q0 67 -96 149q-153 132 -200.5 196.5t-71 130t-23.5 132.5
q0 144 101 238t257 94q118 0 236 -68v-313zM514 -245q0 -116 -102 -232l-85 61q73 76 82 165h-101v202h206v-196z" />
    <glyph glyph-name="scedilla" unicode="&#x15f;" horiz-adv-x="705" 
d="M551 621q-100 79 -162 79q-70 0 -70 -55q0 -36 115 -96.5t168 -133.5t53 -175q0 -115 -80 -190t-204 -75q-88 0 -153 23.5t-140 75.5l104 178q9 -5 23 -16q91 -72 145 -72q33 0 53.5 18.5t20.5 46.5q0 25 -32 53.5t-126 85.5t-136 112.5t-42 133.5q0 118 79.5 193.5
t205.5 75.5q140 0 272 -95zM474 -245q0 -116 -102 -232l-85 61q73 76 82 165h-101v202h206v-196z" />
    <glyph glyph-name="Tcommaaccent" unicode="&#x162;" horiz-adv-x="854" 
d="M823 1006h-243v-1006h-269v1004h-248v245h760v-243zM552 -245q0 -116 -102 -232l-85 61q73 76 82 165h-101v202h206v-196z" />
    <glyph glyph-name="tcommaaccent" unicode="&#x163;" horiz-adv-x="641" 
d="M610 664h-151v-664h-246v662h-154v196h154v244h246v-244h151v-194zM433 -245q0 -116 -102 -232l-85 61q73 76 82 165h-101v202h206v-196z" />
    <glyph glyph-name="Tcaron" unicode="&#x164;" horiz-adv-x="854" 
d="M823 1006h-243v-1006h-269v1004h-248v245h760v-243zM789 1647l-207 -295h-260l-211 295h227l109 -150l117 150h225z" />
    <glyph glyph-name="tcaron" unicode="&#x165;" horiz-adv-x="956" 
d="M610 664h-151v-664h-246v662h-154v196h154v244h246v-244h151v-194zM874 1103q0 -116 -102 -232l-85 61q73 76 82 165h-101v202h206v-196z" />
    <glyph glyph-name="Uring" unicode="&#x16e;" horiz-adv-x="1024" 
d="M928 352q0 -176 -105.5 -276.5t-292.5 -100.5q-194 0 -298.5 103t-104.5 295v876h272v-833q0 -88 34.5 -135.5t96.5 -47.5q58 0 91.5 46t33.5 124v846h273v-897zM531 1695q81 0 138 -57.5t57 -139.5q0 -79 -58 -136.5t-137 -57.5q-81 0 -139 57.5t-58 136.5q0 81 58 139
t139 58zM531 1410q36 0 62 26.5t26 61.5q0 38 -25.5 64.5t-62.5 26.5q-36 0 -63 -26.5t-27 -62.5t26.5 -63t63.5 -27z" />
    <glyph glyph-name="uring" unicode="&#x16f;" 
d="M811 311q0 -151 -93.5 -243.5t-246.5 -92.5q-166 0 -259 92.5t-93 258.5v532h246v-545q0 -137 106 -137q96 0 96 129v553h244v-547zM467 1323q81 0 138 -57.5t57 -139.5q0 -79 -58 -136.5t-137 -57.5q-81 0 -139 57.5t-58 136.5q0 81 58 139t139 58zM467 1038
q36 0 62 26.5t26 61.5q0 38 -25.5 64.5t-62.5 26.5q-36 0 -63 -26.5t-27 -62.5t26.5 -63t63.5 -27z" />
    <glyph glyph-name="Uhungarumlaut" unicode="&#x170;" horiz-adv-x="1024" 
d="M928 352q0 -176 -105.5 -276.5t-292.5 -100.5q-194 0 -298.5 103t-104.5 295v876h272v-833q0 -88 34.5 -135.5t96.5 -47.5q58 0 91.5 46t33.5 124v846h273v-897zM1008 1645l-248 -297h-178l139 297h287zM637 1645l-256 -297h-176l140 297h292z" />
    <glyph glyph-name="uhungarumlaut" unicode="&#x171;" 
d="M811 311q0 -151 -93.5 -243.5t-246.5 -92.5q-166 0 -259 92.5t-93 258.5v532h246v-545q0 -137 106 -137q96 0 96 129v553h244v-547zM948 1280l-248 -297h-178l139 297h287zM577 1280l-256 -297h-176l140 297h292z" />
    <glyph glyph-name="Zacute" unicode="&#x179;" horiz-adv-x="918" 
d="M893 1249l-457 -1005h357v-244h-734v39l439 965h-400v245h795zM766 1648l-274 -299h-179l140 299h313z" />
    <glyph glyph-name="zacute" unicode="&#x17a;" horiz-adv-x="705" 
d="M674 821l-285 -608h266v-213h-596v45l283 600h-260v213h592v-37zM670 1276l-274 -299h-179l140 299h313z" />
    <glyph glyph-name="Zdotaccent" unicode="&#x17b;" horiz-adv-x="918" 
d="M893 1249l-457 -1005h357v-244h-734v39l439 965h-400v245h795zM487 1642q56 0 95.5 -40t39.5 -97q0 -56 -39.5 -95.5t-95.5 -39.5t-95.5 39.5t-39.5 95.5q0 57 39.5 97t95.5 40z" />
    <glyph glyph-name="zdotaccent" unicode="&#x17c;" horiz-adv-x="705" 
d="M674 821l-285 -608h266v-213h-596v45l283 600h-260v213h592v-37zM377 1280q56 0 95.5 -40t39.5 -97q0 -56 -39.5 -95.5t-95.5 -39.5t-95.5 39.5t-39.5 95.5q0 57 39.5 97t95.5 40z" />
    <glyph glyph-name="commaaccent" horiz-adv-x="449" 
d="M332 -245q0 -116 -102 -232l-85 61q73 76 82 165h-101v202h206v-196z" />
    <glyph glyph-name="currency" unicode="&#xa4;" horiz-adv-x="1409" 
d="M1184 274l-107 -106l-127 127q-67 -46 -119 -66t-147 -20t-148 20t-118 66l-127 -127l-107 106l127 127q-45 66 -64.5 117t-19.5 132q0 97 15 150t69 134l-127 127l105 106l129 -129q67 46 119.5 66t146.5 20q93 0 145.5 -20t120.5 -66l127 129l107 -106l-129 -129
q45 -67 65.5 -119t20.5 -145q0 -96 -20.5 -148.5t-65.5 -118.5zM684 358q127 0 217 91.5t90 218.5q0 125 -90.5 216t-216.5 91t-216.5 -91t-90.5 -216q0 -127 90 -218.5t217 -91.5z" />
    </font>
</defs>
</svg>
