<?xml version="1.0" standalone="no"?>
<!DOCTYPE svg PUBLIC "-//W3C//DTD SVG 1.1//EN" "http://www.w3.org/Graphics/SVG/1.1/DTD/svg11.dtd" >
<svg>
<metadata>
Created by FontForge 20090622 at Fri Nov  3 09:22:32 2017
 By deploy user
Copyright 1990-1993 Bitstream Inc.  All rights reserved.
</metadata>
<defs>
<font id="FuturaBT-MediumCondensed" horiz-adv-x="788" >
  <font-face 
    font-family="Futura MdCn BT"
    font-weight="400"
    font-stretch="condensed"
    units-per-em="2048"
    panose-1="2 11 5 6 2 2 4 3 2 3"
    ascent="1638"
    descent="-410"
    x-height="981"
    cap-height="1460"
    bbox="-342 -483 2132 1970"
    underline-thickness="121"
    underline-position="-137"
    unicode-range="U+0020-U+F002"
  />
<missing-glyph horiz-adv-x="1970" 
d="M123 0v1970h1724v-1970h-1724zM1724 123v1724h-1478v-1724h1478z" />
    <glyph glyph-name=".notdef" horiz-adv-x="1970" 
d="M123 0v1970h1724v-1970h-1724zM1724 123v1724h-1478v-1724h1478z" />
    <glyph glyph-name=".null" horiz-adv-x="0" 
 />
    <glyph glyph-name="nonmarkingreturn" horiz-adv-x="395" 
 />
    <glyph glyph-name="space" unicode=" " horiz-adv-x="395" 
 />
    <glyph glyph-name="exclam" unicode="!" horiz-adv-x="557" 
d="M164 94q0 48 33.5 81.5t81.5 33.5q46 0 79 -33.5t33 -81.5q0 -45 -32.5 -78.5t-79.5 -33.5q-49 0 -82 32.5t-33 79.5zM188 356v1104h181v-1104h-181z" />
    <glyph glyph-name="quotedbl" unicode="&#x22;" horiz-adv-x="590" 
d="M496 1434v-553h-119v553h119zM211 1434v-553h-117v553h117z" />
    <glyph glyph-name="numbersign" unicode="#" horiz-adv-x="1575" 
d="M973 862h-264l-95 -272h263zM922 1456l-166 -471h260l168 471h143l-164 -471h307l-43 -123h-311l-94 -272h330l-43 -123h-332l-166 -469h-145l168 469h-265l-168 -469h-143l166 469h-320l43 123h320l96 272h-342l43 123h344l168 471h146z" />
    <glyph glyph-name="dollar" unicode="$" 
d="M215 291q19 -68 54.5 -99.5t90.5 -31.5q82 0 127 54.5t45 156.5q0 87 -32 142q-30 58 -127 126l-116 78q-81 52 -105 80q-52 55 -75.5 122t-23.5 160q0 151 52 245.5t157 133.5v213h82v-196l27 1l41 1h22v194h82v-207q64 -12 112 -61t93 -146l-162 -81q-15 64 -51.5 96.5
t-93.5 32.5q-83 0 -125.5 -48.5t-42.5 -144.5q0 -82 30 -137.5t136 -126.5l77 -53q113 -77 140 -109q51 -58 76.5 -128.5t25.5 -156.5q0 -151 -55 -253t-160 -146v-213h-82v193l-6 -1l-49 -4l-18 2l-15 1v-191h-84v205q-72 20 -124 71t-85 136z" />
    <glyph glyph-name="percent" unicode="%" horiz-adv-x="1573" 
d="M1122 408q0 -187 23.5 -241t85.5 -54t86 56.5t24 238.5q0 181 -23.5 237.5t-86.5 56.5q-61 0 -85 -53.5t-24 -240.5zM973 408q0 253 56 338t202 85t202 -86t56 -337q0 -255 -56 -340.5t-202 -85.5t-202 86t-56 340zM514 -18h-127l664 1497h127zM223 1047
q0 -180 24 -237.5t87 -57.5q61 0 84.5 55t23.5 240q0 186 -23 240t-85 54q-63 0 -87 -54.5t-24 -239.5zM76 1047q0 255 56 340.5t202 85.5q144 0 201 -87t57 -339q0 -256 -56 -341t-202 -85q-145 0 -201.5 85.5t-56.5 340.5z" />
    <glyph glyph-name="ampersand" unicode="&#x26;" horiz-adv-x="1042" 
d="M606 276l-225 367q-59 -64 -92 -129q-29 -64 -29 -129q0 -96 49.5 -157.5t124.5 -61.5q44 0 87.5 27.5t84.5 82.5zM428 920q86 82 125 148.5t39 129.5q0 57 -33.5 92t-89.5 35t-90.5 -38.5t-34.5 -106.5q0 -29 4 -53.5t14 -56t26.5 -69t39.5 -81.5zM772 0l-76 123
q-66 -70 -137.5 -104.5t-146.5 -34.5q-144 0 -238 112t-94 283q0 105 50.5 205t160.5 211q-60 98 -92.5 196.5t-32.5 184.5q0 135 81 220t218 85q128 0 216.5 -84.5t88.5 -206.5q0 -97 -60.5 -199t-191.5 -219l217 -352l137 188l136 -96l-179 -244l164 -268h-221z" />
    <glyph glyph-name="quotesingle" unicode="'" horiz-adv-x="305" 
d="M211 1434v-553h-117v553h117z" />
    <glyph glyph-name="parenleft" unicode="(" horiz-adv-x="559" 
d="M315 -432q-97 245 -147.5 503t-50.5 517q0 266 49 517q24 127 61 252.5t88 252.5l172 -56q-88 -221 -137 -466q-45 -240 -45 -500q0 -257 45 -499q23 -122 56 -235.5t81 -230.5z" />
    <glyph glyph-name="parenright" unicode=")" horiz-adv-x="559" 
d="M242 1612q99 -252 149.5 -507t50.5 -515q0 -133 -12 -259t-38 -255q-48 -250 -150 -506l-172 55q89 225 136 466q22 118 34 244.5t12 254.5q0 261 -45.5 501t-136.5 465z" />
    <glyph glyph-name="asterisk" unicode="*" horiz-adv-x="780" 
d="M342 838v225l-197 -111l-49 84l197 113l-197 115l49 84l197 -113v225h98v-225l195 113l49 -86l-197 -113l197 -113l-49 -84l-195 113v-227h-98z" />
    <glyph glyph-name="plus" unicode="+" horiz-adv-x="1706" 
d="M913 1221v-551h539v-117h-539v-553h-118v553h-541v117h541v551h118z" />
    <glyph glyph-name="comma" unicode="," horiz-adv-x="395" 
d="M340 197l-186 -514l-101 30l133 531z" />
    <glyph glyph-name="hyphen" unicode="-" horiz-adv-x="559" 
d="M76 410v161h407v-161h-407z" />
    <glyph glyph-name="period" unicode="." horiz-adv-x="395" 
d="M84 92q0 49 33 82t80 33q46 0 80 -34t34 -81q0 -45 -33 -80q-34 -32 -81 -32q-49 0 -81 33t-32 79z" />
    <glyph glyph-name="slash" unicode="/" horiz-adv-x="567" 
d="M0 -190l422 1669h145l-422 -1669h-145z" />
    <glyph glyph-name="zero" unicode="0" 
d="M254 731q0 -360 30 -468.5t111 -108.5q77 0 109 105q15 53 23 170.5t8 301.5q0 368 -30.5 473t-109.5 105t-110 -107.5t-31 -470.5zM63 729q0 249 11 366t37 177q42 108 110.5 157.5t173.5 49.5t172 -48.5t111 -158.5q24 -63 36 -184q5 -56 8 -147.5t3 -211.5
q0 -247 -10.5 -362.5t-36.5 -178.5q-43 -107 -110 -156.5t-173 -49.5q-105 0 -172 47.5t-112 158.5q-25 59 -37 182q-5 56 -8 147.5t-3 211.5z" />
    <glyph glyph-name="one" unicode="1" 
d="M324 0v1284h-181v176h363v-1460h-182z" />
    <glyph glyph-name="two" unicode="2" 
d="M33 0l389 774q51 101 76.5 188t25.5 156q0 96 -32.5 143.5t-100.5 47.5q-75 0 -107 -62t-32 -211v-51h-184l-2 28v46q0 207 84.5 313.5t250.5 106.5q150 0 237 -96t87 -265q0 -100 -34 -205q-18 -56 -44 -114.5t-69 -136.5l-261 -476h379v-186h-663z" />
    <glyph glyph-name="three" unicode="3" 
d="M43 381h172l-1 -18l-1 -17q0 -93 39 -140.5t115 -47.5q79 0 117 60.5t38 191.5q0 167 -50 220.5t-193 53.5h-29v159l25 -1h38q113 0 153 51t40 213q0 108 -31 160.5t-94 52.5q-72 0 -107 -57q-18 -30 -27.5 -77t-9.5 -116h-167l-2 23v38q0 173 75 261t228 88
q164 0 243.5 -98t79.5 -300q0 -139 -42.5 -216.5t-131.5 -98.5q102 -18 148.5 -96t46.5 -238q0 -235 -86.5 -342.5t-276.5 -107.5q-154 0 -231.5 90.5t-77.5 273.5v35z" />
    <glyph glyph-name="four" unicode="4" 
d="M440 561v578l-262 -578h262zM436 0v397h-395v187l412 876h168v-899h104v-164h-104v-397h-185z" />
    <glyph glyph-name="five" unicode="5" 
d="M63 225q24 -17 46.5 -29.5t48.5 -21t48.5 -12.5t49.5 -4q130 0 195 90t65 266q0 134 -67 201t-199 67q-25 0 -48 -1t-52.5 -4.5t-65.5 -14.5l96 698h510v-180h-356l-57 -356l52 7l42 3q148 0 239.5 -117.5t91.5 -310.5q0 -245 -110.5 -384.5t-308.5 -139.5q-35 0 -70.5 4
t-68.5 13q-67 17 -130 52z" />
    <glyph glyph-name="six" unicode="6" 
d="M248 449q0 -154 36 -223.5t113 -69.5q75 0 110.5 70t35.5 225q0 161 -34 225.5t-116 64.5q-75 0 -111 -69q-16 -33 -25 -89.5t-9 -133.5zM281 831q34 36 76.5 55t88.5 19q146 0 210.5 -103.5t64.5 -342.5q0 -245 -80 -362t-248 -117q-163 0 -244 123t-81 370
q0 200 67 411q34 109 97.5 250t162.5 326h215l-77 -136l-67 -122l-59 -109q-79 -152 -126 -262z" />
    <glyph glyph-name="seven" unicode="7" 
d="M78 0l434 1286h-442v174h696l-487 -1460h-201z" />
    <glyph glyph-name="eight" unicode="8" 
d="M537 793q95 -33 135.5 -114.5t40.5 -254.5q0 -126 -9.5 -183t-33.5 -102q-41 -76 -113 -117q-36 -20 -76 -30t-88 -10q-72 0 -132.5 25t-104.5 74.5t-63 118.5t-19 224q0 174 40 254t138 115q-91 39 -126.5 109t-35.5 224q0 183 73 268t230 85q159 0 232 -85t73 -268
q0 -152 -36 -221.5t-125 -111.5zM260 436q0 -160 30 -221t103 -61q71 0 102 57t31 207q0 160 -30 222t-103 62q-71 0 -102 -62t-31 -204zM393 868q66 0 96 52q15 26 22 68t7 108q0 121 -29 172t-96 51q-65 0 -94 -49.5t-29 -173.5q0 -126 27.5 -177t95.5 -51z" />
    <glyph glyph-name="nine" unicode="9" 
d="M541 1012q0 152 -36.5 222.5t-115.5 70.5q-75 0 -109 -70.5t-34 -224.5q0 -161 33.5 -226t113.5 -65q77 0 112.5 69.5t35.5 223.5zM508 629q-36 -36 -77 -55t-89 -19q-144 0 -209 104t-65 342q0 247 79.5 363.5t247.5 116.5q162 0 243 -123.5t81 -372.5
q0 -199 -66.5 -409t-261.5 -576h-213l121 217l88 163q67 128 121 249z" />
    <glyph glyph-name="colon" unicode=":" horiz-adv-x="557" 
d="M164 610q0 48 33.5 81.5t81.5 33.5q46 0 79 -33.5t33 -81.5q0 -45 -32.5 -78.5t-79.5 -33.5q-49 0 -82 32.5t-33 79.5zM164 92q0 48 33.5 81.5t81.5 33.5q46 0 79 -33.5t33 -81.5q0 -45 -32.5 -78.5t-79.5 -33.5q-49 0 -82 32.5t-33 79.5z" />
    <glyph glyph-name="semicolon" unicode=";" horiz-adv-x="557" 
d="M195 610q0 49 33 82t79 33q48 0 81.5 -34t33.5 -81q0 -46 -34 -80q-34 -32 -81 -32t-80 32q-32 34 -32 80zM135 -287l133 531l154 -47l-186 -514z" />
    <glyph glyph-name="less" unicode="&#x3c;" horiz-adv-x="1706" 
d="M1442 1018l-1000 -408l1000 -405v-129l-1178 483v103l1178 483v-127z" />
    <glyph glyph-name="equal" unicode="=" horiz-adv-x="1706" 
d="M1452 477v-117h-1198v117h1198zM1452 860v-117h-1198v117h1198z" />
    <glyph glyph-name="greater" unicode="&#x3e;" horiz-adv-x="1706" 
d="M1442 662v-103l-1178 -483v129l1000 405l-1000 408v127z" />
    <glyph glyph-name="question" unicode="?" horiz-adv-x="561" 
d="M178 362v433h6q103 0 139.5 45.5t36.5 234.5q0 148 -20 198q-18 52 -68 52q-51 0 -71.5 -45t-20.5 -168h-166v31q0 181 60.5 258.5t201.5 77.5t198.5 -72.5t57.5 -259.5q0 -293 -39 -383t-140 -90l-1 -312h-174zM147 94q0 48 34 81.5t81 33.5q48 0 81.5 -34t33.5 -81
q0 -46 -34 -80q-34 -32 -81 -32q-49 0 -82 32.5t-33 79.5z" />
    <glyph glyph-name="at" unicode="@" horiz-adv-x="2048" 
d="M1292 844l58 121h110l-141 -568l-9 -44l-3 -36q0 -43 27.5 -66.5t82.5 -23.5q44 0 99 24t104 64q88 75 139 195.5t51 255.5q0 265 -195.5 427.5t-518.5 162.5q-169 0 -312.5 -51.5t-259.5 -153.5q-139 -121 -210.5 -282t-71.5 -355q0 -172 60 -303t187 -231
q99 -80 240 -124q69 -22 141.5 -33t153.5 -11q172 0 334.5 48.5t296.5 139.5l45 -66q-147 -108 -313 -164.5t-347 -56.5q-194 0 -349 46t-275 139q-154 118 -228.5 272.5t-74.5 351.5q0 82 12 158t38 151q50 144 150 269q146 176 350.5 267t452.5 91q167 0 311.5 -43
t247.5 -125q130 -100 196 -231t66 -281q0 -168 -62 -307.5t-183 -237.5q-70 -55 -150 -83.5t-162 -28.5q-98 0 -148 39.5t-50 115.5l1 11l1 12q-51 -87 -126.5 -132.5t-170.5 -45.5q-153 0 -233.5 85t-80.5 247q0 230 137 389t332 159q91 0 153 -39.5t97 -117.5zM1202 473
l60 242q-16 89 -71.5 139.5t-135.5 50.5q-145 0 -243.5 -131.5t-98.5 -327.5q0 -108 51 -168.5t145 -60.5q103 0 183 69.5t110 186.5z" />
    <glyph glyph-name="A" unicode="A" horiz-adv-x="901" 
d="M451 1083l-132 -632h263zM16 0l342 1460h185l342 -1460h-199l-70 287h-333l-68 -287h-199z" />
    <glyph glyph-name="B" unicode="B" horiz-adv-x="889" 
d="M313 834h72q111 0 163 55t52 172q0 124 -48.5 174.5t-166.5 50.5h-72v-452zM313 186h66q135 0 186 51.5t51 184.5q0 132 -54.5 191t-180.5 59h-68v-486zM117 0v1460h270q213 0 309.5 -87.5t96.5 -282.5q0 -147 -46.5 -225t-150.5 -113q113 -27 166 -106.5t53 -225.5
q0 -217 -99.5 -318.5t-312.5 -101.5h-286z" />
    <glyph glyph-name="C" unicode="C" horiz-adv-x="780" 
d="M735 33q-24 -13 -46.5 -21.5t-52.5 -16.5q-54 -13 -106 -13q-222 0 -334 183t-112 552q0 375 118.5 568.5t350.5 193.5q53 0 96 -10q47 -9 86 -29v-187q-40 20 -81 31q-15 4 -36 7t-36 3q-155 0 -228 -137.5t-73 -437.5q0 -280 68.5 -414.5t211.5 -134.5q41 0 82.5 13
t91.5 42v-192z" />
    <glyph glyph-name="D" unicode="D" horiz-adv-x="1014" 
d="M330 188h102q164 0 232.5 120.5t68.5 424.5t-66.5 423.5t-234.5 119.5h-102v-1088zM131 0v1460h260q297 0 419 -163.5t122 -565.5q0 -403 -121 -567t-420 -164h-260z" />
    <glyph glyph-name="E" unicode="E" horiz-adv-x="786" 
d="M125 0v1460h584v-176h-387v-434h354v-174h-354v-494h387v-182h-584z" />
    <glyph glyph-name="F" unicode="F" horiz-adv-x="786" 
d="M131 0v1460h598v-176h-401v-436h368v-174h-368v-674h-197z" />
    <glyph glyph-name="G" unicode="G" horiz-adv-x="1004" 
d="M924 784l4 -90l2 -84q0 -320 -104.5 -474t-321.5 -154q-223 0 -323.5 175t-100.5 572q0 404 100.5 577t329.5 173q163 0 261 -76t136 -232l-174 -84q-21 107 -76 159t-145 52q-127 0 -180 -123.5t-53 -441.5t52.5 -441.5t180.5 -123.5q114 0 171.5 94.5t57.5 280.5l-1 42
l-1 27h-209v172h394z" />
    <glyph glyph-name="H" unicode="H" horiz-adv-x="1008" 
d="M131 0v1460h197v-555h352v555h197v-1460h-197v721h-352v-721h-197z" />
    <glyph glyph-name="I" unicode="I" horiz-adv-x="461" 
d="M131 0v1460h197v-1460h-197z" />
    <glyph glyph-name="J" unicode="J" horiz-adv-x="621" 
d="M297 1460h197v-1083q0 -202 -74.5 -299.5t-229.5 -97.5q-55 0 -106.5 15.5t-101.5 49.5v201q45 -38 89 -59q44 -19 83 -19q74 0 108.5 49t34.5 154v1089z" />
    <glyph glyph-name="K" unicode="K" horiz-adv-x="891" 
d="M121 0v1460h196v-692l345 692h204l-348 -694l348 -766h-211l-338 750v-750h-196z" />
    <glyph glyph-name="L" unicode="L" horiz-adv-x="772" 
d="M131 0v1460h197v-1278h422v-182h-619z" />
    <glyph glyph-name="M" unicode="M" horiz-adv-x="1145" 
d="M72 0l125 1460h178l198 -1011l203 1011h172l127 -1460h-182l-59 1024l-195 -1024h-133l-195 1024l-59 -1024h-180z" />
    <glyph glyph-name="N" unicode="N" horiz-adv-x="1014" 
d="M129 0v1460h182l387 -1014v1014h187v-1460h-185l-385 1022v-1022h-186z" />
    <glyph glyph-name="O" unicode="O" horiz-adv-x="1006" 
d="M287 733q0 -312 50.5 -438.5t168.5 -126.5q117 0 165 120.5t48 444.5q0 316 -48.5 439.5t-166.5 123.5q-117 0 -168 -125q-23 -61 -36 -173t-13 -265zM88 729q0 400 97.5 575t318.5 175q218 0 316 -174t98 -576q0 -401 -96.5 -574t-317.5 -173t-318.5 173.5t-97.5 573.5z
" />
    <glyph glyph-name="P" unicode="P" horiz-adv-x="897" 
d="M328 819h73q132 0 188 54.5t56 183.5q0 123 -59.5 177t-198.5 54h-59v-469zM131 0v1460h240q134 0 207.5 -18.5t128.5 -63.5q63 -51 99 -137.5t36 -191.5q0 -199 -116.5 -303.5t-340.5 -104.5h-36q-15 0 -21 2v-643h-197z" />
    <glyph glyph-name="Q" unicode="Q" horiz-adv-x="1006" 
d="M813 -113l-106 148q-22 -12 -47 -21.5t-54 -16.5q-55 -13 -106 -13q-219 0 -315.5 173t-96.5 574q0 399 97.5 573.5t318.5 174.5q218 0 316 -174t98 -574q0 -219 -27 -370t-80 -226l119 -164zM465 369l117 84l104 -144q19 54 28 159t9 290q0 297 -50.5 417.5
t-168.5 120.5q-120 0 -170.5 -124t-50.5 -439q0 -307 49.5 -435t165.5 -128q8 0 19 1t29 5t48 14z" />
    <glyph glyph-name="R" unicode="R" horiz-adv-x="891" 
d="M328 825h61q120 0 169.5 56t49.5 198q0 116 -48 162.5t-177 46.5h-55v-463zM328 713v-713h-197v1460h238q237 0 337.5 -87.5t100.5 -293.5q0 -161 -68.5 -251.5t-206.5 -108.5l347 -719h-211l-334 713h-6z" />
    <glyph glyph-name="S" unicode="S" 
d="M94 256q67 -41 128 -62.5t112 -21.5q90 0 143 52.5t53 140.5q0 129 -203 295l-36 30q-127 105 -180.5 198t-53.5 206q0 164 105 274.5t260 110.5q68 0 131.5 -15.5t124.5 -50.5v-196q-29 20 -55.5 34t-56.5 25q-55 20 -107 20q-93 0 -149 -54.5t-56 -145.5
q0 -126 215 -298l31 -24q126 -101 177.5 -195t51.5 -212q0 -169 -107 -277t-274 -108q-59 0 -123.5 18t-130.5 55v201z" />
    <glyph glyph-name="T" unicode="T" horiz-adv-x="780" 
d="M291 0v1278h-271v182h740v-182h-271v-1278h-198z" />
    <glyph glyph-name="U" unicode="U" horiz-adv-x="1008" 
d="M119 389v1071h194v-1087q0 -105 47 -155t144 -50q96 0 143 50t47 155v1087h195v-1071q0 -211 -92.5 -309t-292.5 -98q-199 0 -292 97.5t-93 309.5z" />
    <glyph glyph-name="V" unicode="V" horiz-adv-x="848" 
d="M506 0h-166l-320 1460h199l205 -991l205 991h198z" />
    <glyph glyph-name="W" unicode="W" horiz-adv-x="1235" 
d="M276 0l-245 1460h194l142 -999l170 999h161l172 -999l140 999h194l-243 -1460h-162l-181 1036l-182 -1036h-160z" />
    <glyph glyph-name="X" unicode="X" horiz-adv-x="784" 
d="M23 0l268 743l-254 717h196l160 -479l158 479h197l-254 -717l268 -743h-207l-162 508l-164 -508h-206z" />
    <glyph glyph-name="Y" unicode="Y" 
d="M494 621v-621h-203v621l-275 839h203l123 -407q11 -36 25 -101l26 -133q10 72 11 76q8 31 12.5 51.5t11.5 49.5t16 55l123 409h205z" />
    <glyph glyph-name="Z" unicode="Z" horiz-adv-x="784" 
d="M18 0l474 1286h-404v174h672l-469 -1278h428v-182h-701z" />
    <glyph glyph-name="bracketleft" unicode="[" horiz-adv-x="559" 
d="M141 -383v1944h375v-160h-194v-1624h194v-160h-375z" />
    <glyph glyph-name="backslash" unicode="\" horiz-adv-x="567" 
d="M422 -190l-422 1669h143l422 -1669h-143z" />
    <glyph glyph-name="bracketright" unicode="]" horiz-adv-x="559" 
d="M43 -383v160h193v1624h-193v160h373v-1944h-373z" />
    <glyph glyph-name="asciicircum" unicode="^" horiz-adv-x="2048" 
d="M1104 1458l520 -557h-158l-442 438l-442 -438h-160l520 557h162z" />
    <glyph glyph-name="underscore" unicode="_" horiz-adv-x="1024" 
d="M1024 -365v-118h-1024v118h1024z" />
    <glyph glyph-name="grave" unicode="`" horiz-adv-x="1024" 
d="M631 1114h-105l-237 346h178z" />
    <glyph glyph-name="a" unicode="a" horiz-adv-x="801" 
d="M518 0v96q-36 -59 -84 -86.5t-110 -27.5q-122 0 -187 130t-65 380q0 249 63 378t189 129q62 0 110 -27t84 -85v94h180v-981h-180zM254 492q0 -188 31.5 -265t103.5 -77t103.5 78t31.5 264q0 188 -30.5 263.5t-104.5 75.5q-71 0 -104 -76q-15 -37 -23 -103t-8 -160z" />
    <glyph glyph-name="b" unicode="b" horiz-adv-x="801" 
d="M276 489q0 -189 31.5 -264t104.5 -75q71 0 103 76.5t32 262.5q0 190 -30.5 265t-104.5 75q-72 0 -104 -77t-32 -263zM102 0v1550h181v-665q36 57 83.5 84.5t110.5 27.5q129 0 190.5 -124t61.5 -384q0 -261 -61 -384t-191 -123q-60 0 -108 27t-86 87v-96h-181z" />
    <glyph glyph-name="c" unicode="c" horiz-adv-x="522" 
d="M496 16q-38 -18 -74 -27t-74 -9q-147 0 -218 124t-71 385q0 251 71 380.5t208 129.5q44 0 81 -10q39 -9 77 -28v-173q-23 23 -48.5 34.5t-50.5 11.5q-78 0 -116.5 -88t-38.5 -265q0 -163 37.5 -243t113.5 -80q28 0 53 10.5t50 32.5v-185z" />
    <glyph glyph-name="d" unicode="d" horiz-adv-x="801" 
d="M254 489q0 -189 30.5 -264t104.5 -75q71 0 103 76.5t32 262.5q0 190 -30.5 265t-104.5 75q-71 0 -103 -77t-32 -263zM518 0v96q-36 -59 -84 -86.5t-110 -27.5q-128 0 -190 124t-62 383q0 262 60.5 385t191.5 123q62 0 110 -27t84 -85v665h180v-1550h-180z" />
    <glyph glyph-name="e" unicode="e" horiz-adv-x="741" 
d="M231 598h275v25q0 121 -32 175t-103 54q-70 0 -105 -64.5t-35 -189.5zM670 328v-13q0 -154 -78 -243.5t-213 -89.5q-165 0 -242 122q-38 62 -57 158.5t-19 233.5q0 253 76.5 378t231.5 125q164 0 237.5 -114t73.5 -371v-57h-449v-29q0 -154 35 -223.5t111 -69.5
q59 0 92 48q16 24 25.5 61.5t9.5 82.5z" />
    <glyph glyph-name="f" unicode="f" horiz-adv-x="446" 
d="M125 0v842h-98v139h98v344q0 115 56.5 180.5t154.5 65.5q22 0 52 -6q16 -3 30.5 -6.5t34.5 -10.5v-164l-37 10l-31 3q-40 0 -59 -23.5t-19 -75.5v-317h135v-139h-135v-842h-182z" />
    <glyph glyph-name="g" unicode="g" horiz-adv-x="801" 
d="M254 492q0 -190 30.5 -265t104.5 -75q71 0 104 75q15 38 23 103.5t8 161.5q0 188 -30.5 263.5t-104.5 75.5q-71 0 -104 -76q-15 -37 -23 -103t-8 -160zM698 -23q0 -201 -74.5 -286.5t-248.5 -85.5q-143 0 -219 73t-76 207v31h171q0 -37 8.5 -67.5t24.5 -51.5
q30 -39 93 -39q76 0 108.5 47t32.5 154v139q-35 -56 -84 -85t-110 -29q-128 0 -190 124t-62 384t60.5 383.5t191.5 123.5q62 0 110 -27t84 -85v94h180v-1004z" />
    <glyph glyph-name="h" unicode="h" horiz-adv-x="817" 
d="M113 0v1550h180v-667q29 51 82 80q27 14 56.5 21t66.5 7q107 0 160 -60.5t53 -182.5v-748h-181v659q0 100 -26 136t-90 36q-60 0 -90.5 -37t-30.5 -112v-682h-180z" />
    <glyph glyph-name="i" unicode="i" horiz-adv-x="410" 
d="M90 1274q0 47 33 83q34 34 82 34t81 -33.5t33 -83.5q0 -48 -33.5 -81.5t-80.5 -33.5t-81 33t-34 82zM115 0v981h180v-981h-180z" />
    <glyph glyph-name="j" unicode="j" horiz-adv-x="410" 
d="M90 1274q0 47 33 83q34 34 82 34t81 -33.5t33 -83.5q0 -48 -33.5 -81.5t-80.5 -33.5t-81 33t-34 82zM115 -395v1376h180v-1376h-180z" />
    <glyph glyph-name="k" unicode="k" horiz-adv-x="784" 
d="M119 0v1550h180v-1005l260 436h193l-271 -451l283 -530h-195l-270 516v-516h-180z" />
    <glyph glyph-name="l" unicode="l" horiz-adv-x="410" 
d="M115 0v1550h180v-1550h-180z" />
    <glyph glyph-name="m" unicode="m" horiz-adv-x="1229" 
d="M113 0v981h178v-98q33 54 83.5 81t117.5 27t113.5 -28t84.5 -91q38 59 93 89t124 30q107 0 160 -60.5t53 -182.5v-748h-180v659q0 100 -26 136t-91 36q-59 0 -90 -37.5t-31 -111.5v-682h-178v659q0 99 -26 135.5t-88 36.5q-57 0 -87 -37.5t-30 -111.5v-682h-180z" />
    <glyph glyph-name="n" unicode="n" horiz-adv-x="817" 
d="M113 0v981h178v-98q36 54 87 81t120 27q107 0 160 -60.5t53 -182.5v-748h-181v659q0 100 -26 136t-90 36q-60 0 -90.5 -37t-30.5 -112v-682h-180z" />
    <glyph glyph-name="o" unicode="o" horiz-adv-x="784" 
d="M244 494q0 -182 35.5 -264.5t111.5 -82.5q75 0 112.5 85t37.5 262q0 178 -36.5 262t-113.5 84q-74 0 -110.5 -84t-36.5 -262zM61 492q0 246 84.5 376.5t245.5 130.5q160 0 245 -130q41 -64 63 -159t22 -218q0 -249 -85 -379.5t-245 -130.5q-161 0 -245.5 129.5
t-84.5 380.5z" />
    <glyph glyph-name="p" unicode="p" horiz-adv-x="801" 
d="M276 492q0 -190 31.5 -265t104.5 -75q71 0 104 75q15 38 23 103.5t8 161.5q0 188 -30.5 263.5t-104.5 75.5q-72 0 -105 -76q-15 -37 -23 -103t-8 -160zM102 -395v1376h181v-94q36 57 83.5 84.5t110.5 27.5q129 0 190.5 -124t61.5 -383q0 -262 -61 -385t-191 -123
q-61 0 -109 28t-85 86v-493h-181z" />
    <glyph glyph-name="q" unicode="q" horiz-adv-x="801" 
d="M254 492q0 -190 30.5 -265t104.5 -75q71 0 104 75q15 38 23 103.5t8 161.5q0 188 -30.5 263.5t-104.5 75.5q-71 0 -104 -76q-15 -37 -23 -103t-8 -160zM518 -395v491q-36 -59 -84 -86.5t-110 -27.5q-128 0 -191 124q-29 60 -45 158t-16 228q0 260 60.5 383.5t191.5 123.5
q62 0 109.5 -27.5t84.5 -86.5v96h180v-1376h-180z" />
    <glyph glyph-name="r" unicode="r" horiz-adv-x="555" 
d="M115 0v981h174v-143q36 79 95 117q31 21 65 32.5t77 11.5v-190h-30q-105 0 -154 -52.5t-49 -164.5v-592h-178z" />
    <glyph glyph-name="s" unicode="s" horiz-adv-x="559" 
d="M57 207q35 -31 75 -50q21 -8 38 -12t39 -4q58 0 93.5 33.5t35.5 87.5q0 62 -99 157l-20 19q-97 91 -129.5 151t-32.5 132q0 123 75.5 201.5t197.5 78.5q41 0 78 -9.5t77 -30.5v-185q-27 32 -63 49t-80 17q-50 0 -82.5 -32t-32.5 -81q0 -64 95 -152l28 -26
q89 -81 123.5 -148t34.5 -147q0 -124 -76 -199t-203 -75q-40 0 -82.5 9t-89.5 27v189z" />
    <glyph glyph-name="t" unicode="t" horiz-adv-x="449" 
d="M123 0v848h-98v133h98v266h180v-266h135v-133h-135v-848h-180z" />
    <glyph glyph-name="u" unicode="u" horiz-adv-x="817" 
d="M109 289v692h180v-702q0 -67 30 -102.5t89 -35.5q57 0 87.5 35t30.5 103v702h183v-692q0 -161 -71.5 -234t-229.5 -73q-157 0 -228 72.5t-71 234.5z" />
    <glyph glyph-name="v" unicode="v" horiz-adv-x="672" 
d="M18 981h187l102 -512q8 -38 16 -102l13 -123l16 137q7 53 15 86l100 514h186l-245 -981h-144z" />
    <glyph glyph-name="w" unicode="w" horiz-adv-x="1010" 
d="M530 482l-13 88l-13 122l-13 -117q-4 -34 -6.5 -52.5t-7.5 -41.5l-88 -481h-127l-227 981h176l94 -503l13 -89l14 -120q0 35 4 66q7 39 9 56l13 86l88 504h117l90 -504q5 -27 9.5 -68l13.5 -121q0 -14 2 -19l12 114q6 53 15 94l92 504h178l-230 -981h-127z" />
    <glyph glyph-name="x" unicode="x" horiz-adv-x="670" 
d="M240 520l-193 461h189l98 -283l100 283h187l-191 -461l225 -520h-190l-131 342l-129 -342h-191z" />
    <glyph glyph-name="y" unicode="y" horiz-adv-x="672" 
d="M27 981h186l115 -643l155 643h179l-396 -1376h-186l151 481z" />
    <glyph glyph-name="z" unicode="z" horiz-adv-x="676" 
d="M27 0l364 823h-342v158h600l-366 -819h338v-162h-594z" />
    <glyph glyph-name="braceleft" unicode="{" horiz-adv-x="1024" 
d="M858 1350l-23 1l-22 1q-120 0 -163.5 -47.5t-43.5 -196.5v-242q0 -166 -43 -235.5t-155 -100.5q111 -30 154.5 -100t43.5 -235v-242q0 -149 43.5 -195.5t169.5 -46.5h39v-125h-35q-98 0 -159.5 12t-102.5 40q-54 36 -78 100q-22 66 -22 213v244q0 152 -55 213t-189 61
l-22 -1l-23 -1v127l23 -1l22 -1q134 0 189 62t55 214v244q0 153 22 215t78 98q41 26 101.5 39t160.5 13h35v-127z" />
    <glyph glyph-name="bar" unicode="|" horiz-adv-x="1024" 
d="M575 1565v-2048h-126v2048h126z" />
    <glyph glyph-name="braceright" unicode="}" horiz-adv-x="1024" 
d="M563 1112v-244q0 -152 55.5 -214t190.5 -62l22 1l23 1v-127l-23 1l-22 1q-135 0 -190.5 -62.5t-55.5 -213.5v-242q0 -154 -21.5 -216.5t-76.5 -99.5q-38 -25 -96.5 -37t-161.5 -12h-41v125l23 -1l22 -1q119 0 163 47.5t44 198.5v240q0 165 43 234.5t155 100.5
q-110 30 -155 100q-21 35 -32 93.5t-11 142.5v242q0 149 -44 196.5t-169 47.5h-39v125h35q100 0 160 -12.5t104 -39.5q54 -34 76 -99t22 -214z" />
    <glyph glyph-name="asciitilde" unicode="~" horiz-adv-x="1706" 
d="M1530 627q-100 -72 -197 -108t-190 -36q-41 0 -92 9.5t-99 25.5l-34 11.5t-53 19.5q-201 72 -302 72q-85 0 -174 -38q-45 -18 -98.5 -48.5t-112.5 -73.5v133q104 71 201 108t186 37q57 0 117.5 -12.5t173.5 -52.5l44 -16q160 -58 245 -58t174.5 36.5t210.5 121.5v-131z
" />
    <glyph glyph-name="quotesinglbase" unicode="&#x201a;" horiz-adv-x="422" 
d="M354 197l-186 -514l-100 30l133 531z" />
    <glyph glyph-name="florin" unicode="&#x192;" 
d="M37 -215l23 -4l22 -2q34 0 53.5 20t28.5 66l149 889h-168l25 127h166l70 405q15 101 67 147t145 46q29 0 38.5 -0.5t33 -4t36 -6t34.5 -8.5l-33 -155l-33 6l-30 2q-40 0 -61 -22.5t-32 -84.5l-55 -325h182l-20 -127h-182l-158 -944q-20 -116 -67.5 -160.5t-145.5 -44.5
q-21 0 -53 6l-66 18z" />
    <glyph glyph-name="quotedblbase" unicode="&#x201e;" horiz-adv-x="672" 
d="M602 197l-186 -514l-101 30l134 531zM354 197l-186 -514l-100 30l133 531z" />
    <glyph glyph-name="ellipsis" unicode="&#x2026;" horiz-adv-x="2048" 
d="M227 92q0 49 33 82t80 33q46 0 80 -34t34 -81q0 -45 -33 -80q-34 -32 -81 -32q-49 0 -81 33t-32 79zM909 92q0 49 33 82t80 33q46 0 80 -34t34 -81q0 -45 -33 -80q-34 -32 -81 -32q-49 0 -81 33t-32 79zM1593 92q0 49 33 82t80 33q46 0 80 -34t34 -81q0 -45 -33 -80
q-34 -32 -81 -32q-49 0 -81 33t-32 79z" />
    <glyph glyph-name="dagger" unicode="&#x2020;" horiz-adv-x="780" 
d="M297 -403v1226h-270v172h270v465h188v-465h269v-172h-269v-1226h-188z" />
    <glyph glyph-name="daggerdbl" unicode="&#x2021;" horiz-adv-x="780" 
d="M477 -403h-174v444h-276v164h276v653h-276v164h276v438h174v-438h277v-164h-277v-653h277v-164h-277v-444z" />
    <glyph glyph-name="circumflex" unicode="&#x2c6;" horiz-adv-x="1024" 
d="M274 1112l152 348h172l152 -348h-105l-133 211l-133 -211h-105z" />
    <glyph glyph-name="perthousand" unicode="&#x2030;" horiz-adv-x="2208" 
d="M1765 408q0 -187 23.5 -241t85.5 -54q63 0 87 56.5t24 238.5q0 181 -24 237.5t-87 56.5q-61 0 -85 -53.5t-24 -240.5zM1616 408q0 253 56 338t202 85t202 -86t56 -337q0 -255 -56 -340.5t-202 -85.5t-202 86t-56 340zM1122 408q0 -187 23.5 -241t85.5 -54t86 56.5
t24 238.5q0 181 -23.5 237.5t-86.5 56.5q-61 0 -85 -53.5t-24 -240.5zM973 408q0 253 56 338t202 85t202 -86t56 -337q0 -255 -56 -340.5t-202 -85.5t-202 86t-56 340zM514 -18h-127l664 1497h127zM223 1047q0 -180 24 -237.5t87 -57.5q61 0 84.5 55t23.5 240q0 186 -23 240
t-85 54q-63 0 -87 -54.5t-24 -239.5zM76 1047q0 255 56 340.5t202 85.5q144 0 201 -87t57 -339q0 -256 -56 -341t-202 -85q-145 0 -201.5 85.5t-56.5 340.5z" />
    <glyph glyph-name="Scaron" unicode="&#x160;" 
d="M94 256q67 -41 128 -62.5t112 -21.5q90 0 143 52.5t53 140.5q0 129 -203 295l-36 30q-127 105 -180.5 198t-53.5 206q0 164 105 274.5t260 110.5q68 0 131.5 -15.5t124.5 -50.5v-196q-29 20 -55.5 34t-56.5 25q-55 20 -107 20q-93 0 -149 -54.5t-56 -145.5
q0 -126 215 -298l31 -24q126 -101 177.5 -195t51.5 -212q0 -169 -107 -277t-274 -108q-59 0 -123.5 18t-130.5 55v201zM157 1939h105l133 -209l133 209h105l-152 -348h-172z" />
    <glyph glyph-name="guilsinglleft" unicode="&#x2039;" horiz-adv-x="471" 
d="M59 489l238 437l113 -64l-203 -373l203 -372l-113 -62z" />
    <glyph glyph-name="OE" unicode="&#x152;" horiz-adv-x="1341" 
d="M283 733q0 -308 48 -434.5t161 -126.5t159.5 121t46.5 440q0 311 -47.5 436t-161.5 125q-112 0 -159 -124.5t-47 -436.5zM1264 1462v-176h-387v-436h354v-174h-354v-494h387v-182h-539v123q-43 -67 -107.5 -103t-144.5 -36q-200 0 -292.5 177.5t-92.5 569.5q0 394 93 571
t300 177q80 0 138 -35t106 -113v131h539z" />
    <glyph glyph-name="quoteleft" unicode="&#x2018;" horiz-adv-x="422" 
d="M68 1036l186 514l100 -30l-133 -531z" />
    <glyph glyph-name="quoteright" unicode="&#x2019;" horiz-adv-x="422" 
d="M354 1503l-186 -512l-100 29l133 530z" />
    <glyph glyph-name="quotedblleft" unicode="&#x201c;" horiz-adv-x="672" 
d="M68 1036l186 514l100 -30l-133 -531zM315 1036l187 514l100 -30l-133 -531z" />
    <glyph glyph-name="quotedblright" unicode="&#x201d;" horiz-adv-x="672" 
d="M354 1503l-186 -512l-100 29l133 530zM602 1503l-186 -512l-101 29l134 530z" />
    <glyph glyph-name="bullet" unicode="&#x2022;" horiz-adv-x="1208" 
d="M307 762q0 122 87.5 208.5t209.5 86.5q121 0 208 -86.5t87 -208.5t-87.5 -209.5t-209.5 -87.5t-208.5 87.5t-86.5 209.5z" />
    <glyph glyph-name="endash" unicode="&#x2013;" horiz-adv-x="1024" 
d="M0 430v121h1024v-121h-1024z" />
    <glyph glyph-name="emdash" unicode="&#x2014;" horiz-adv-x="2048" 
d="M0 430v121h2048v-121h-2048z" />
    <glyph glyph-name="tilde" unicode="&#x2dc;" horiz-adv-x="1024" 
d="M752 1397q-18 -116 -56.5 -171t-101.5 -55l-26 3q-10 1 -14.5 2t-15.5 6l-66 24l-26 7l-24 4q-27 0 -44 -17q-13 -13 -26 -51h-80q15 108 53.5 163.5t100.5 55.5q13 0 29 -4l38 -10l70 -25l20 -5l17 -1q28 0 45.5 17.5t26.5 56.5h80z" />
    <glyph glyph-name="trademark" unicode="&#x2122;" horiz-adv-x="1706" 
d="M948 1456l160 -405l149 405h132v-534h-82v458l-172 -458h-54l-180 458v-458h-82v534h129zM694 1456v-67h-172v-467h-94v467h-174v67h440z" />
    <glyph glyph-name="scaron" unicode="&#x161;" horiz-adv-x="559" 
d="M57 207q35 -31 75 -50q21 -8 38 -12t39 -4q58 0 93.5 33.5t35.5 87.5q0 62 -99 157l-20 19q-97 91 -129.5 151t-32.5 132q0 123 75.5 201.5t197.5 78.5q41 0 78 -9.5t77 -30.5v-185q-27 32 -63 49t-80 17q-50 0 -82.5 -32t-32.5 -81q0 -64 95 -152l28 -26
q89 -81 123.5 -148t34.5 -147q0 -124 -76 -199t-203 -75q-40 0 -82.5 9t-89.5 27v189zM43 1460h105l133 -209l133 209h105l-152 -348h-172z" />
    <glyph glyph-name="guilsinglright" unicode="&#x203a;" horiz-adv-x="471" 
d="M410 489l-236 -434l-115 62l205 372l-205 373l115 64z" />
    <glyph glyph-name="oe" unicode="&#x153;" horiz-adv-x="1202" 
d="M700 598h275v25q0 120 -32.5 175.5t-102.5 55.5q-65 0 -102.5 -59.5t-37.5 -169.5v-27zM1139 328v-13q0 -154 -78 -243.5t-213 -89.5q-42 0 -76.5 7t-63.5 22q-53 28 -92 91q-38 -60 -94.5 -90t-134.5 -30q-157 0 -240.5 129.5t-83.5 377.5q0 251 83 379.5t241 128.5
q76 0 131 -28t94 -88q36 61 92 90.5t134 29.5q163 0 237 -114.5t74 -372.5v-57h-449v-27q0 -78 8 -132t27 -92q36 -71 111 -71q59 0 92 49q16 24 25.5 60.5t9.5 82.5zM231 494q0 -182 36 -268.5t114 -86.5q76 0 112.5 86t36.5 269q0 179 -36 264.5t-113 85.5t-113.5 -84.5
t-36.5 -265.5z" />
    <glyph glyph-name="Ydieresis" unicode="&#x178;" 
d="M494 621v-621h-203v621l-275 839h203l123 -407q11 -36 25 -101l26 -133q10 72 11 76q8 31 12.5 51.5t11.5 49.5t16 55l123 409h205zM135 1753q0 44 31.5 76t74.5 32q45 0 77 -32t32 -76t-32.5 -75.5t-76.5 -31.5t-75 31t-31 76zM438 1753q0 44 31.5 76t75.5 32t76 -32
t32 -76t-32.5 -75.5t-75.5 -31.5q-45 0 -76 31t-31 76z" />
    <glyph glyph-name="nonbreakingspace" unicode="&#xa0;" 
 />
    <glyph glyph-name="exclamdown" unicode="&#xa1;" horiz-adv-x="557" 
d="M164 1366q0 45 33 79t82 34q46 0 79 -32.5t33 -80.5q0 -47 -32.5 -81t-79.5 -34t-81 33t-34 82zM188 1104h181v-1104h-181v1104z" />
    <glyph glyph-name="cent" unicode="&#xa2;" 
d="M592 252l-53 -22q-9 -2 -23.5 -5.5t-29.5 -5.5l-1 -192h-92v194q-122 19 -180.5 141t-58.5 365q0 119 14 206t45 153q59 125 180 149v192h92l1 -192q20 -4 50 -15q24 -8 56 -24v-170q-23 22 -48.5 33.5t-49.5 11.5q-77 0 -117.5 -89t-40.5 -265q0 -164 37.5 -244
t113.5 -80q29 0 54 11q11 5 25 13.5t26 18.5v-184z" />
    <glyph glyph-name="sterling" unicode="&#xa3;" 
d="M33 61q23 93 68 139t112 46q16 0 24 -2q13 0 25 -4q6 11 11.5 26t12.5 47t7 72q0 39 -7 78q-3 22 -8 42t-14 46h-172v88h135q-35 83 -58 146t-40 124q-29 108 -29 193q0 175 92.5 276t253.5 101q141 0 226.5 -82t85.5 -217v-9l-160 -69v14q0 95 -38.5 145t-115.5 50
q-71 0 -114 -54t-43 -149q0 -69 28 -171q13 -50 38.5 -124t64.5 -174h186v-88h-165l13 -73q3 -25 4 -37t1 -38q0 -59 -12 -108.5t-37 -89.5l30 -17q66 -34 88 -34q24 0 42.5 18.5t27.5 54.5l160 -53q-35 -101 -84 -146.5t-125 -45.5q-70 0 -162.5 47t-120.5 47
q-24 0 -43 -16t-35 -54z" />
    <glyph glyph-name="currency" unicode="&#xa4;" horiz-adv-x="1241" 
d="M936 887q0 129 -91 221t-222 92q-130 0 -222 -92t-92 -221q0 -130 91.5 -223t222.5 -93q128 0 220.5 93.5t92.5 222.5zM365 1212q58 44 122 67.5t134 23.5q73 0 135 -23q65 -21 125 -68l204 207l72 -73l-205 -205q41 -56 63.5 -121.5t22.5 -134.5q0 -71 -21.5 -135.5
t-64.5 -120.5l205 -205l-72 -74l-204 207q-58 -44 -123 -66t-137 -22t-135 21t-121 67l-207 -207l-72 74l207 205q-44 58 -66 123t-22 133q0 70 21.5 134t66.5 122l-207 205l72 73z" />
    <glyph glyph-name="yen" unicode="&#xa5;" horiz-adv-x="834" 
d="M625 975h198v-76h-225l-57 -172h282v-76h-309l-8 -30v-621h-178v621l-11 30h-305v76h281l-57 172h-224v76h199l-160 485h174l156 -502q5 -16 11 -43t11.5 -54.5t7.5 -45t7 -67.5q0 22 3.5 49.5t9.5 56.5q9 55 28 113l151 493h172z" />
    <glyph glyph-name="brokenbar" unicode="&#xa6;" horiz-adv-x="1024" 
d="M575 408v-758h-126v758h126zM575 1432v-758h-126v758h126z" />
    <glyph glyph-name="section" unicode="&#xa7;" horiz-adv-x="780" 
d="M260 580q0 -99 36.5 -155t100.5 -56q66 0 97.5 52t31.5 161q0 92 -35 145t-94 53q-61 0 -100 -54q-37 -56 -37 -146zM96 -6h172v-10q0 -97 29 -146t86 -49q56 0 87.5 42.5t31.5 119.5q0 66 -30 111t-148 122q-155 99 -205 179q-23 40 -36 91t-13 111q0 118 46.5 204.5
t137.5 137.5q-69 48 -103 116q-16 33 -25 72.5t-9 82.5q0 135 77 218t203 83q134 0 211.5 -86.5t77.5 -241.5l-1 -19l-1 -20h-172v10q0 98 -27.5 147.5t-81.5 49.5q-52 0 -81 -34.5t-29 -96.5q0 -117 155 -215l60 -39q111 -75 160 -164t49 -209q0 -119 -45 -197t-140 -120
q76 -66 112 -134t36 -151q0 -151 -79 -240.5t-216 -89.5q-144 0 -216.5 87.5t-72.5 263.5v14z" />
    <glyph glyph-name="dieresis" unicode="&#xa8;" horiz-adv-x="1024" 
d="M252 1274q0 44 31.5 76t74.5 32q45 0 77 -32t32 -76t-32.5 -75.5t-76.5 -31.5t-75 31t-31 76zM555 1274q0 44 31.5 76t75.5 32t76 -32t32 -76t-32.5 -75.5t-75.5 -31.5q-45 0 -76 31t-31 76z" />
    <glyph glyph-name="copyright" unicode="&#xa9;" horiz-adv-x="1706" 
d="M1065 911q-15 77 -70.5 120.5t-138.5 43.5q-117 0 -182.5 -92.5t-65.5 -259.5q0 -159 66 -251.5t182 -92.5q86 0 144.5 47.5t74.5 134.5h129q0 -62 -28 -112.5t-81 -94.5q-98 -80 -245 -80q-175 0 -280 121t-105 326q0 207 107.5 332t287.5 125q135 0 228.5 -74
t105.5 -193h-129zM1501 725q0 130 -48.5 249t-139 209.5t-209 139.5t-252.5 49q-131 0 -246 -47t-207 -139.5t-142 -213.5t-50 -247q0 -127 48.5 -243.5t142 -210t210.5 -142.5t244 -49q130 0 248.5 49.5t211.5 141t141 207t48 247.5zM852 1460q151 0 284.5 -54.5
t239.5 -160.5q103 -103 157 -237.5t54 -282.5q0 -149 -54 -281.5t-159.5 -236t-242 -160.5t-279.5 -57q-146 0 -277.5 55t-237.5 161t-163 239q-27 67 -41 136.5t-14 143.5q0 146 56.5 280.5t162.5 241.5q100 102 234 157.5t280 55.5z" />
    <glyph glyph-name="ordfeminine" unicode="&#xaa;" horiz-adv-x="600" 
d="M389 774v68q-26 -40 -62.5 -60t-82.5 -20q-92 0 -141.5 90.5t-49.5 265.5q0 174 48.5 265.5t142.5 91.5q26 0 44 -4t38 -16q36 -19 63 -60v65h135v-686h-135zM190 1118q0 -129 24 -184t79 -55q53 0 76.5 54.5t23.5 184.5q0 70 -5 113t-18 72q-23 53 -77 53
q-53 0 -78 -53.5t-25 -184.5z" />
    <glyph glyph-name="guillemotleft" unicode="&#xab;" horiz-adv-x="721" 
d="M39 489l235 437l115 -64l-205 -373l205 -372l-115 -62zM332 489l237 437l113 -64l-203 -373l203 -372l-113 -62z" />
    <glyph glyph-name="logicalnot" unicode="&#xac;" horiz-adv-x="1706" 
d="M1452 858v-502h-115v385h-1083v117h1198z" />
    <glyph glyph-name="minus" unicode="&#xad;" horiz-adv-x="559" 
d="M76 410v161h407v-161h-407z" />
    <glyph glyph-name="registered" unicode="&#xae;" horiz-adv-x="1706" 
d="M846 1065h-144v-291h148q122 0 174.5 33.5t52.5 107.5q0 78 -54.5 114t-176.5 36zM872 1157q177 0 264 -57t87 -174q0 -89 -52.5 -148t-144.5 -76l188 -385h-157l-176 365h-179v-365h-141v840h311zM1501 721q0 131 -48 250.5t-138 210.5q-94 94 -212.5 142t-250.5 48
q-134 0 -248.5 -47t-202.5 -137q-93 -95 -143.5 -214.5t-50.5 -248.5q0 -127 48.5 -243.5t141.5 -211.5q90 -92 208.5 -141t244.5 -49q130 0 249 48t214 142q90 90 139 206q23 56 36 118.5t13 126.5zM852 1460q151 0 285 -55.5t238 -160t158 -238t54 -281.5
q0 -151 -54.5 -283t-160 -234.5t-242.5 -161.5q-67 -28 -135.5 -42t-142.5 -14q-146 0 -278 55.5t-240 163.5q-104 103 -159.5 237t-55.5 279q0 147 57 282t164 242q100 102 231.5 156.5t280.5 54.5z" />
    <glyph glyph-name="macron" unicode="&#xaf;" horiz-adv-x="1024" 
d="M291 1202v148h442v-148h-442z" />
    <glyph glyph-name="degree" unicode="&#xb0;" horiz-adv-x="674" 
d="M539 1171q0 84 -58 142.5t-143 58.5t-144 -58t-59 -143q0 -84 60 -143t143 -59q84 0 142.5 59t58.5 143zM338 1454q117 0 200 -83t83 -200q0 -115 -83.5 -198.5t-201.5 -83.5q-117 0 -199 81.5t-82 200.5t83 201t200 82z" />
    <glyph glyph-name="plusminus" unicode="&#xb1;" horiz-adv-x="1706" 
d="M1452 158v-117h-1198v117h1198zM913 1180v-344h539v-117h-539v-344h-118v344h-541v117h541v344h118z" />
    <glyph glyph-name="twosuperior" unicode="&#xb2;" horiz-adv-x="520" 
d="M23 584l256 465q17 29 28 54.5t22 56.5q17 53 17 95q0 57 -22 85t-66 28q-47 0 -71 -37q-21 -36 -21 -125v-30h-121l-2 16v27q0 126 55.5 188.5t165.5 62.5q99 0 157 -57t58 -158q0 -59 -21.5 -122t-76.5 -152l-172 -285h250v-112h-436z" />
    <glyph glyph-name="threesuperior" unicode="&#xb3;" horiz-adv-x="520" 
d="M29 813h112v-22q0 -56 25.5 -84.5t75.5 -28.5q51 0 77 36q25 38 25 115q0 100 -32.5 132t-127.5 32h-18v97h41q74 0 100.5 30.5t26.5 126.5q0 64 -20.5 95.5t-61.5 31.5q-48 0 -71 -33q-11 -17 -17.5 -46.5t-6.5 -69.5h-112v37q0 106 49 157t150 51q108 0 161.5 -58
t53.5 -179q0 -86 -27.5 -131t-87.5 -60q68 -9 97.5 -55t29.5 -143q0 -141 -56.5 -206t-181.5 -65q-101 0 -152.5 54.5t-51.5 163.5v22z" />
    <glyph glyph-name="acute" unicode="&#xb4;" horiz-adv-x="1024" 
d="M393 1114l164 346h178l-237 -346h-105z" />
    <glyph glyph-name="mu" unicode="&#xb5;" horiz-adv-x="1128" 
d="M362 1069l-126 -595l-12 -67l-3 -71q0 -108 57 -167.5t160 -59.5q125 0 207 100t129 309l121 551h156l-162 -754l-18 -84l-5 -51q0 -31 18 -49q19 -16 54 -16h17q12 0 18 2l-27 -125l-44 -7l-48 -3q-70 0 -105 35q-32 34 -40 112q-40 -68 -116.5 -107.5t-172.5 -39.5
q-88 0 -152.5 33.5t-109.5 103.5l-113 -545h-156l316 1495h157z" />
    <glyph glyph-name="paragraph" unicode="&#xb6;" horiz-adv-x="1024" 
d="M948 1401h-125v-1401h-94v1401h-182v-1401h-96v782q-84 0 -152.5 26.5t-121.5 75.5q-101 95 -101 246q0 156 107.5 252.5t285.5 96.5h479v-78z" />
    <glyph glyph-name="periodcentered" unicode="&#x2219;" horiz-adv-x="395" 
d="M84 729q0 49 33 82t80 33q46 0 80 -34t34 -81q0 -45 -33 -79t-81 -34q-49 0 -81 33t-32 80z" />
    <glyph glyph-name="cedilla" unicode="&#xb8;" horiz-adv-x="1024" 
d="M283 -434v119q26 -9 56 -17.5t55 -14t48 -8.5t43 -3q45 0 67.5 18.5t22.5 56.5q0 42 -28.5 61t-87.5 19l-17 -1l-18 -1v205h86v-94h12q48 0 82 -11t60 -36q49 -49 49 -140q0 -94 -53.5 -145t-153.5 -51q-49 0 -103 11q-27 5 -58.5 13t-61.5 19z" />
    <glyph glyph-name="onesuperior" unicode="&#xb9;" horiz-adv-x="520" 
d="M213 584v770h-119v106h240v-876h-121z" />
    <glyph glyph-name="ordmasculine" unicode="&#xba;" horiz-adv-x="588" 
d="M182 1120q0 -125 27 -184t84 -59t85 58q14 30 21 74.5t7 110.5q0 127 -27.5 184.5t-85.5 57.5q-57 0 -84 -57.5t-27 -184.5zM47 1118q0 173 63.5 265t182.5 92q120 0 184 -91.5t64 -265.5t-64 -265t-184 -91q-119 0 -182.5 90.5t-63.5 265.5z" />
    <glyph glyph-name="guillemotright" unicode="&#xbb;" horiz-adv-x="721" 
d="M682 489l-236 -434l-114 62l205 372l-205 373l114 64zM389 489l-237 -434l-113 62l203 372l-203 373l113 64z" />
    <glyph glyph-name="onequarter" unicode="&#xbc;" horiz-adv-x="1335" 
d="M1116 313v324l-164 -324h164zM1114 0v223h-248v105l258 489h107v-504h65v-90h-65v-223h-117zM156 -18l886 1497h138l-887 -1497h-137zM203 641v719h-113v98h227v-817h-114z" />
    <glyph glyph-name="onehalf" unicode="&#xbd;" horiz-adv-x="1335" 
d="M860 0l246 434q30 53 47 104q8 26 12 46.5t4 42.5q0 53 -20.5 79.5t-63.5 26.5q-44 0 -66 -35.5t-22 -117.5v-29h-114l-2 16v27q0 117 53 175t158 58q93 0 148.5 -53.5t55.5 -146.5q0 -53 -20.5 -112.5t-71.5 -143.5l-164 -267h238v-104h-418zM156 -18l886 1497h138
l-887 -1497h-137zM203 641v719h-113v98h227v-817h-114z" />
    <glyph glyph-name="threequarters" unicode="&#xbe;" horiz-adv-x="1335" 
d="M1116 313v324l-164 -324h164zM1114 0v223h-248v105l258 489h107v-504h65v-90h-65v-223h-117zM156 -18l886 1497h138l-887 -1497h-137zM27 854h108v-18q0 -54 24 -80.5t72 -26.5q51 0 75 33.5t24 107.5q0 93 -31 123.5t-123 30.5h-18v90q10 0 16 -2h23q72 0 97 29t25 119
q0 62 -18.5 91t-60.5 29q-45 0 -68 -33q-11 -17 -17 -43t-6 -65h-106v35q0 98 47.5 146t142.5 48q103 0 154 -54.5t51 -166.5q0 -78 -27 -121.5t-83 -56.5q66 -9 94.5 -52.5t28.5 -133.5q0 -133 -54.5 -192.5t-175.5 -59.5q-97 0 -145.5 50.5t-48.5 154.5v18z" />
    <glyph glyph-name="questiondown" unicode="&#xbf;" horiz-adv-x="561" 
d="M412 1364q0 -46 -33.5 -79.5t-81.5 -33.5q-49 0 -81 33t-32 80q0 48 33.5 81.5t79.5 33.5q48 0 81.5 -34t33.5 -81zM381 1098v-432h-6q-102 0 -139 -47t-37 -236q0 -144 19.5 -196t68.5 -52q48 0 71 42q21 42 21 149v20h166v-31q0 -181 -60.5 -258t-201.5 -77
t-198.5 72.5t-57.5 260.5q0 294 39 381q20 45 55 68t86 23v313h174z" />
    <glyph glyph-name="Agrave" unicode="&#xc0;" horiz-adv-x="901" 
d="M451 1083l-132 -632h263zM16 0l342 1460h185l342 -1460h-199l-70 287h-333l-68 -287h-199zM570 1593h-105l-237 346h178z" />
    <glyph glyph-name="Aacute" unicode="&#xc1;" horiz-adv-x="901" 
d="M451 1083l-132 -632h263zM16 0l342 1460h185l342 -1460h-199l-70 287h-333l-68 -287h-199zM332 1593l164 346h178l-237 -346h-105z" />
    <glyph glyph-name="Acircumflex" unicode="&#xc2;" horiz-adv-x="901" 
d="M451 1083l-132 -632h263zM16 0l342 1460h185l342 -1460h-199l-70 287h-333l-68 -287h-199zM213 1591l152 348h172l152 -348h-105l-133 211l-133 -211h-105z" />
    <glyph glyph-name="Atilde" unicode="&#xc3;" horiz-adv-x="901" 
d="M451 1083l-132 -632h263zM16 0l342 1460h185l342 -1460h-199l-70 287h-333l-68 -287h-199zM691 1876q-18 -116 -56.5 -171t-101.5 -55l-26 3q-10 1 -14.5 2t-15.5 6l-66 24l-26 7l-24 4q-27 0 -44 -17q-13 -13 -26 -51h-80q15 108 53.5 163.5t100.5 55.5q13 0 29 -4
l38 -10l70 -25l20 -5l17 -1q28 0 45.5 17.5t26.5 56.5h80z" />
    <glyph glyph-name="Adieresis" unicode="&#xc4;" horiz-adv-x="901" 
d="M451 1083l-132 -632h263zM16 0l342 1460h185l342 -1460h-199l-70 287h-333l-68 -287h-199zM191 1753q0 44 31.5 76t74.5 32q45 0 77 -32t32 -76t-32.5 -75.5t-76.5 -31.5t-75 31t-31 76zM494 1753q0 44 31.5 76t75.5 32t76 -32t32 -76t-32.5 -75.5t-75.5 -31.5
q-45 0 -76 31t-31 76z" />
    <glyph glyph-name="Aring" unicode="&#xc5;" horiz-adv-x="901" 
d="M227 1747q0 93 65 158t159 65t159.5 -65t65.5 -158q0 -92 -65.5 -157.5t-159.5 -65.5t-159 66t-65 157zM344 1747q0 -45 32 -77t77 -32q44 0 76 32t32 77t-31 76.5t-77 31.5t-77.5 -31t-31.5 -77zM451 1083l-132 -632h263zM16 0l342 1460h185l342 -1460h-199l-70 287
h-333l-68 -287h-199z" />
    <glyph glyph-name="AE" unicode="&#xc6;" horiz-adv-x="1202" 
d="M463 1141l-144 -690h277zM16 0l349 1460h548l39 -176h-344l90 -434h312l32 -174h-309l98 -490h345l34 -186h-524l-59 287h-344l-68 -287h-199z" />
    <glyph glyph-name="Ccedilla" unicode="&#xc7;" horiz-adv-x="780" 
d="M407 -2q-133 39 -212 167q-111 183 -111 552q0 375 118.5 568.5t350.5 193.5q53 0 96 -10q47 -9 86 -29v-187q-40 20 -81 31q-15 4 -36 7t-36 3q-155 0 -228 -137.5t-73 -437.5q0 -280 68.5 -414.5t211.5 -134.5q41 0 82.5 13t91.5 42v-192q-24 -13 -46.5 -21.5
t-52.5 -16.5q-54 -13 -106 -13l-37 1v-57h12q48 0 82 -11t60 -36q49 -49 49 -140q0 -94 -53.5 -145t-153.5 -51q-49 0 -103 11q-27 5 -58.5 13t-61.5 19v119q26 -9 56 -17.5t55 -14t48 -8.5t43 -3q45 0 67.5 18.5t22.5 56.5q0 42 -28.5 61t-87.5 19l-17 -1l-18 -1v183z" />
    <glyph glyph-name="Egrave" unicode="&#xc8;" horiz-adv-x="786" 
d="M125 0v1460h584v-176h-387v-434h354v-174h-354v-494h387v-182h-584zM533 1593h-105l-237 346h178z" />
    <glyph glyph-name="Eacute" unicode="&#xc9;" horiz-adv-x="786" 
d="M125 0v1460h584v-176h-387v-434h354v-174h-354v-494h387v-182h-584zM295 1593l164 346h178l-237 -346h-105z" />
    <glyph glyph-name="Ecircumflex" unicode="&#xca;" horiz-adv-x="786" 
d="M125 0v1460h584v-176h-387v-434h354v-174h-354v-494h387v-182h-584zM176 1591l152 348h172l152 -348h-105l-133 211l-133 -211h-105z" />
    <glyph glyph-name="Edieresis" unicode="&#xcb;" horiz-adv-x="786" 
d="M125 0v1460h584v-176h-387v-434h354v-174h-354v-494h387v-182h-584zM154 1753q0 44 31.5 76t74.5 32q45 0 77 -32t32 -76t-32.5 -75.5t-76.5 -31.5t-75 31t-31 76zM457 1753q0 44 31.5 76t75.5 32t76 -32t32 -76t-32.5 -75.5t-75.5 -31.5q-45 0 -76 31t-31 76z" />
    <glyph glyph-name="Igrave" unicode="&#xcc;" horiz-adv-x="461" 
d="M131 0v1460h197v-1460h-197zM350 1593h-105l-237 346h178z" />
    <glyph glyph-name="Iacute" unicode="&#xcd;" horiz-adv-x="461" 
d="M131 0v1460h197v-1460h-197zM112 1593l164 346h178l-237 -346h-105z" />
    <glyph glyph-name="Icircumflex" unicode="&#xce;" horiz-adv-x="461" 
d="M131 0v1460h197v-1460h-197zM-7 1591l152 348h172l152 -348h-105l-133 211l-133 -211h-105z" />
    <glyph glyph-name="Idieresis" unicode="&#xcf;" horiz-adv-x="461" 
d="M131 0v1460h197v-1460h-197zM-29 1753q0 44 31.5 76t74.5 32q45 0 77 -32t32 -76t-32.5 -75.5t-76.5 -31.5t-75 31t-31 76zM274 1753q0 44 31.5 76t75.5 32t76 -32t32 -76t-32.5 -75.5t-75.5 -31.5q-45 0 -76 31t-31 76z" />
    <glyph glyph-name="Eth" unicode="&#xd0;" horiz-adv-x="1004" 
d="M924 784l4 -90l2 -84q0 -320 -104.5 -474t-321.5 -154q-223 0 -323.5 175t-100.5 572q0 404 100.5 577t329.5 173q163 0 261 -76t136 -232l-174 -84q-21 107 -76 159t-145 52q-127 0 -180 -123.5t-53 -441.5t52.5 -441.5t180.5 -123.5q114 0 171.5 94.5t57.5 280.5l-1 42
l-1 27h-209v172h394zM264 1913l97 -1q0 -35 9.5 -63t27.5 -47q33 -35 104 -35t105 35q17 18 26.5 45.5t9.5 64.5l97 1q0 -70 -17.5 -126t-48.5 -95q-57 -72 -172 -72q-112 0 -172 72q-30 38 -48 94t-18 127z" />
    <glyph glyph-name="Ntilde" unicode="&#xd1;" horiz-adv-x="1014" 
d="M129 0v1460h182l387 -1014v1014h187v-1460h-185l-385 1022v-1022h-186zM752 1876q-18 -116 -56.5 -171t-101.5 -55l-26 3q-10 1 -14.5 2t-15.5 6l-66 24l-26 7l-24 4q-27 0 -44 -17q-13 -13 -26 -51h-80q15 108 53.5 163.5t100.5 55.5q13 0 29 -4l38 -10l70 -25l20 -5
l17 -1q28 0 45.5 17.5t26.5 56.5h80z" />
    <glyph glyph-name="Ograve" unicode="&#xd2;" horiz-adv-x="1006" 
d="M287 733q0 -312 50.5 -438.5t168.5 -126.5q117 0 165 120.5t48 444.5q0 316 -48.5 439.5t-166.5 123.5q-117 0 -168 -125q-23 -61 -36 -173t-13 -265zM88 729q0 400 97.5 575t318.5 175q218 0 316 -174t98 -576q0 -401 -96.5 -574t-317.5 -173t-318.5 173.5t-97.5 573.5z
M623 1593h-105l-237 346h178z" />
    <glyph glyph-name="Oacute" unicode="&#xd3;" horiz-adv-x="1006" 
d="M287 733q0 -312 50.5 -438.5t168.5 -126.5q117 0 165 120.5t48 444.5q0 316 -48.5 439.5t-166.5 123.5q-117 0 -168 -125q-23 -61 -36 -173t-13 -265zM88 729q0 400 97.5 575t318.5 175q218 0 316 -174t98 -576q0 -401 -96.5 -574t-317.5 -173t-318.5 173.5t-97.5 573.5z
M385 1593l164 346h178l-237 -346h-105z" />
    <glyph glyph-name="Ocircumflex" unicode="&#xd4;" horiz-adv-x="1006" 
d="M287 733q0 -312 50.5 -438.5t168.5 -126.5q117 0 165 120.5t48 444.5q0 316 -48.5 439.5t-166.5 123.5q-117 0 -168 -125q-23 -61 -36 -173t-13 -265zM88 729q0 400 97.5 575t318.5 175q218 0 316 -174t98 -576q0 -401 -96.5 -574t-317.5 -173t-318.5 173.5t-97.5 573.5z
M266 1591l152 348h172l152 -348h-105l-133 211l-133 -211h-105z" />
    <glyph glyph-name="Otilde" unicode="&#xd5;" horiz-adv-x="1006" 
d="M287 733q0 -312 50.5 -438.5t168.5 -126.5q117 0 165 120.5t48 444.5q0 316 -48.5 439.5t-166.5 123.5q-117 0 -168 -125q-23 -61 -36 -173t-13 -265zM88 729q0 400 97.5 575t318.5 175q218 0 316 -174t98 -576q0 -401 -96.5 -574t-317.5 -173t-318.5 173.5t-97.5 573.5z
M744 1876q-18 -116 -56.5 -171t-101.5 -55l-26 3q-10 1 -14.5 2t-15.5 6l-66 24l-26 7l-24 4q-27 0 -44 -17q-13 -13 -26 -51h-80q15 108 53.5 163.5t100.5 55.5q13 0 29 -4l38 -10l70 -25l20 -5l17 -1q28 0 45.5 17.5t26.5 56.5h80z" />
    <glyph glyph-name="Odieresis" unicode="&#xd6;" horiz-adv-x="1006" 
d="M287 733q0 -312 50.5 -438.5t168.5 -126.5q117 0 165 120.5t48 444.5q0 316 -48.5 439.5t-166.5 123.5q-117 0 -168 -125q-23 -61 -36 -173t-13 -265zM88 729q0 400 97.5 575t318.5 175q218 0 316 -174t98 -576q0 -401 -96.5 -574t-317.5 -173t-318.5 173.5t-97.5 573.5z
M244 1753q0 44 31.5 76t74.5 32q45 0 77 -32t32 -76t-32.5 -75.5t-76.5 -31.5t-75 31t-31 76zM547 1753q0 44 31.5 76t75.5 32t76 -32t32 -76t-32.5 -75.5t-75.5 -31.5q-45 0 -76 31t-31 76z" />
    <glyph glyph-name="multiply" unicode="&#xd7;" horiz-adv-x="1706" 
d="M858 692l475 477l82 -82l-475 -477l475 -475l-82 -82l-475 475l-477 -475l-80 82l475 475l-475 477l80 82z" />
    <glyph glyph-name="Oslash" unicode="&#xd8;" horiz-adv-x="1006" 
d="M682 1137q-22 79 -66.5 118t-111.5 39q-117 0 -167 -125t-50 -436l3 -135l9 -129zM324 340q23 -85 68.5 -126.5t113.5 -41.5q117 0 165 120t48 441l-3 146l-9 129zM117 -18l-76 43l113 194q-31 102 -48.5 232.5t-17.5 279.5q0 399 97.5 573.5t318.5 174.5q95 0 166 -34
t129 -108l78 136l75 -43l-102 -181q33 -90 50.5 -215.5t17.5 -290.5q0 -412 -96.5 -585.5t-317.5 -173.5q-52 0 -93 8t-79 27q-73 36 -129 112z" />
    <glyph glyph-name="Ugrave" unicode="&#xd9;" horiz-adv-x="1008" 
d="M119 389v1071h194v-1087q0 -105 47 -155t144 -50q96 0 143 50t47 155v1087h195v-1071q0 -211 -92.5 -309t-292.5 -98q-199 0 -292 97.5t-93 309.5zM623 1593h-105l-237 346h178z" />
    <glyph glyph-name="Uacute" unicode="&#xda;" horiz-adv-x="1008" 
d="M119 389v1071h194v-1087q0 -105 47 -155t144 -50q96 0 143 50t47 155v1087h195v-1071q0 -211 -92.5 -309t-292.5 -98q-199 0 -292 97.5t-93 309.5zM385 1593l164 346h178l-237 -346h-105z" />
    <glyph glyph-name="Ucircumflex" unicode="&#xdb;" horiz-adv-x="1008" 
d="M119 389v1071h194v-1087q0 -105 47 -155t144 -50q96 0 143 50t47 155v1087h195v-1071q0 -211 -92.5 -309t-292.5 -98q-199 0 -292 97.5t-93 309.5zM266 1591l152 348h172l152 -348h-105l-133 211l-133 -211h-105z" />
    <glyph glyph-name="Udieresis" unicode="&#xdc;" horiz-adv-x="1008" 
d="M119 389v1071h194v-1087q0 -105 47 -155t144 -50q96 0 143 50t47 155v1087h195v-1071q0 -211 -92.5 -309t-292.5 -98q-199 0 -292 97.5t-93 309.5zM244 1753q0 44 31.5 76t74.5 32q45 0 77 -32t32 -76t-32.5 -75.5t-76.5 -31.5t-75 31t-31 76zM547 1753q0 44 31.5 76
t75.5 32t76 -32t32 -76t-32.5 -75.5t-75.5 -31.5q-45 0 -76 31t-31 76z" />
    <glyph glyph-name="Yacute" unicode="&#xdd;" horiz-adv-x="461" 
d="M131 0v1460h197v-1460h-197zM122 1757q0 42 34 76.5t77 34.5q44 0 78.5 -32.5t34.5 -78.5q0 -45 -33 -79t-80 -34q-44 0 -77.5 33.5t-33.5 79.5z" />
    <glyph glyph-name="Thorn" unicode="&#xde;" 
d="M307 -16q-20 2 -40 5.5t-43 10.5q-64 18 -130 55v201q67 -41 128 -62.5t112 -21.5q90 0 143 52.5t53 140.5q0 129 -203 295l-36 30q-127 105 -180.5 198t-53.5 206q0 164 105 274.5t260 110.5q68 0 131.5 -15.5t124.5 -50.5v-196q-29 20 -55.5 34t-56.5 25
q-55 20 -107 20q-93 0 -149 -54.5t-56 -145.5q0 -126 215 -298l31 -24q126 -101 177.5 -195t51.5 -212q0 -169 -107 -277q-91 -93 -229 -106v-68h12q48 0 82 -11t60 -36q49 -49 49 -140q0 -94 -53.5 -145t-153.5 -51q-49 0 -103 11q-27 5 -58.5 13t-61.5 19v119
q26 -9 56 -17.5t55 -14t48 -8.5t43 -3q45 0 67.5 18.5t22.5 56.5q0 42 -28.5 61t-87.5 19l-17 -1l-18 -1v179z" />
    <glyph glyph-name="germandbls" unicode="&#xdf;" horiz-adv-x="778" 
d="M106 0v1262q0 143 72 218.5t207 75.5q153 0 217 -82t64 -286q0 -129 -31.5 -183t-114.5 -81q107 -15 147 -100t40 -349q0 -288 -61 -385.5t-226 -97.5h-33v159q76 0 107 56q14 27 21 84t7 151q0 270 -30.5 335t-114.5 65h-12v145q35 0 60 11.5t40 34.5q29 43 29 153
q0 124 -23 167.5t-82 43.5q-52 0 -78 -35t-26 -105v-1257h-179z" />
    <glyph glyph-name="agrave" unicode="&#xe0;" horiz-adv-x="801" 
d="M518 0v96q-36 -59 -84 -86.5t-110 -27.5q-122 0 -187 130t-65 380q0 249 63 378t189 129q62 0 110 -27t84 -85v94h180v-981h-180zM254 492q0 -188 31.5 -265t103.5 -77t103.5 78t31.5 264q0 188 -30.5 263.5t-104.5 75.5q-71 0 -104 -76q-15 -37 -23 -103t-8 -160z
M553 1114h-105l-237 346h178z" />
    <glyph glyph-name="aacute" unicode="&#xe1;" horiz-adv-x="801" 
d="M518 0v96q-36 -59 -84 -86.5t-110 -27.5q-122 0 -187 130t-65 380q0 249 63 378t189 129q62 0 110 -27t84 -85v94h180v-981h-180zM254 492q0 -188 31.5 -265t103.5 -77t103.5 78t31.5 264q0 188 -30.5 263.5t-104.5 75.5q-71 0 -104 -76q-15 -37 -23 -103t-8 -160z
M315 1114l164 346h178l-237 -346h-105z" />
    <glyph glyph-name="acircumflex" unicode="&#xe2;" horiz-adv-x="801" 
d="M518 0v96q-36 -59 -84 -86.5t-110 -27.5q-122 0 -187 130t-65 380q0 249 63 378t189 129q62 0 110 -27t84 -85v94h180v-981h-180zM254 492q0 -188 31.5 -265t103.5 -77t103.5 78t31.5 264q0 188 -30.5 263.5t-104.5 75.5q-71 0 -104 -76q-15 -37 -23 -103t-8 -160z
M196 1112l152 348h172l152 -348h-105l-133 211l-133 -211h-105z" />
    <glyph glyph-name="atilde" unicode="&#xe3;" horiz-adv-x="801" 
d="M518 0v96q-36 -59 -84 -86.5t-110 -27.5q-122 0 -187 130t-65 380q0 249 63 378t189 129q62 0 110 -27t84 -85v94h180v-981h-180zM254 492q0 -188 31.5 -265t103.5 -77t103.5 78t31.5 264q0 188 -30.5 263.5t-104.5 75.5q-71 0 -104 -76q-15 -37 -23 -103t-8 -160z
M674 1397q-18 -116 -56.5 -171t-101.5 -55l-26 3q-10 1 -14.5 2t-15.5 6l-66 24l-26 7l-24 4q-27 0 -44 -17q-13 -13 -26 -51h-80q15 108 53.5 163.5t100.5 55.5q13 0 29 -4l38 -10l70 -25l20 -5l17 -1q28 0 45.5 17.5t26.5 56.5h80z" />
    <glyph glyph-name="adieresis" unicode="&#xe4;" horiz-adv-x="801" 
d="M518 0v96q-36 -59 -84 -86.5t-110 -27.5q-122 0 -187 130t-65 380q0 249 63 378t189 129q62 0 110 -27t84 -85v94h180v-981h-180zM254 492q0 -188 31.5 -265t103.5 -77t103.5 78t31.5 264q0 188 -30.5 263.5t-104.5 75.5q-71 0 -104 -76q-15 -37 -23 -103t-8 -160z
M174 1274q0 44 31.5 76t74.5 32q45 0 77 -32t32 -76t-32.5 -75.5t-76.5 -31.5t-75 31t-31 76zM477 1274q0 44 31.5 76t75.5 32t76 -32t32 -76t-32.5 -75.5t-75.5 -31.5q-45 0 -76 31t-31 76z" />
    <glyph glyph-name="aring" unicode="&#xe5;" horiz-adv-x="801" 
d="M207 1284q0 93 64.5 158t158.5 65t159.5 -65t65.5 -158q0 -92 -65.5 -157.5t-159.5 -65.5q-92 0 -157.5 66t-65.5 157zM518 0v96q-36 -59 -84 -86.5t-110 -27.5q-122 0 -187 130t-65 380q0 249 63 378t189 129q62 0 110 -27t84 -85v94h180v-981h-180zM254 492
q0 -188 31.5 -265t103.5 -77t103.5 78t31.5 264q0 188 -30.5 263.5t-104.5 75.5q-71 0 -104 -76q-15 -37 -23 -103t-8 -160zM322 1284q0 -44 32 -76t76 -32q45 0 77 32t32 76q0 45 -32 77t-77 32t-76.5 -31.5t-31.5 -77.5z" />
    <glyph glyph-name="ae" unicode="&#xe6;" horiz-adv-x="1130" 
d="M350 508q-59 0 -93 -49.5t-34 -134.5q0 -88 33.5 -137.5t93.5 -49.5t90.5 52t30.5 151q0 78 -32.5 123t-88.5 45zM625 598h274v25q0 121 -32 175t-103 54q-66 0 -102.5 -58t-36.5 -169v-27zM1063 328v-13q0 -152 -77.5 -240.5t-213.5 -88.5q-91 0 -149 37t-99 120
q-30 -77 -85.5 -117t-131.5 -40q-120 0 -188 90.5t-68 253.5q0 146 66.5 229.5t183.5 83.5q44 0 85 -14.5t77 -44.5v75q0 96 -38 140.5t-118 44.5q-40 0 -85 -14.5t-97 -45.5v170q49 22 103 34q23 5 50 8t54 3q73 0 126 -30.5t87 -91.5q41 62 94 92t123 30q164 0 237.5 -114
t73.5 -371v-57h-448v-27q0 -153 35 -223t110 -70q59 0 92 48q16 24 25.5 60.5t9.5 81.5z" />
    <glyph glyph-name="ccedilla" unicode="&#xe7;" horiz-adv-x="522" 
d="M250 -3q-76 27 -121 106q-70 125 -70 386q0 251 71 380.5t208 129.5q44 0 81 -10q39 -9 77 -28v-173q-23 23 -48.5 34.5t-50.5 11.5q-78 0 -116.5 -88t-38.5 -265q0 -163 37.5 -243t113.5 -80q28 0 53 10.5t50 32.5v-185q-38 -18 -74 -27t-74 -9h-12v-54h12q48 0 82 -11
t60 -36q49 -49 49 -140q0 -94 -53.5 -145t-153.5 -51q-49 0 -103 11q-27 5 -58.5 13t-61.5 19v119q26 -9 56 -17.5t55 -14t48 -8.5t43 -3q45 0 67.5 18.5t22.5 56.5q0 42 -28.5 61t-87.5 19l-17 -1l-18 -1v182z" />
    <glyph glyph-name="egrave" unicode="&#xe8;" horiz-adv-x="741" 
d="M231 598h275v25q0 121 -32 175t-103 54q-70 0 -105 -64.5t-35 -189.5zM670 328v-13q0 -154 -78 -243.5t-213 -89.5q-165 0 -242 122q-38 62 -57 158.5t-19 233.5q0 253 76.5 378t231.5 125q164 0 237.5 -114t73.5 -371v-57h-449v-29q0 -154 35 -223.5t111 -69.5
q59 0 92 48q16 24 25.5 61.5t9.5 82.5zM490 1114h-105l-237 346h178z" />
    <glyph glyph-name="eacute" unicode="&#xe9;" horiz-adv-x="741" 
d="M231 598h275v25q0 121 -32 175t-103 54q-70 0 -105 -64.5t-35 -189.5zM670 328v-13q0 -154 -78 -243.5t-213 -89.5q-165 0 -242 122q-38 62 -57 158.5t-19 233.5q0 253 76.5 378t231.5 125q164 0 237.5 -114t73.5 -371v-57h-449v-29q0 -154 35 -223.5t111 -69.5
q59 0 92 48q16 24 25.5 61.5t9.5 82.5zM252 1114l164 346h178l-237 -346h-105z" />
    <glyph glyph-name="ecircumflex" unicode="&#xea;" horiz-adv-x="741" 
d="M231 598h275v25q0 121 -32 175t-103 54q-70 0 -105 -64.5t-35 -189.5zM670 328v-13q0 -154 -78 -243.5t-213 -89.5q-165 0 -242 122q-38 62 -57 158.5t-19 233.5q0 253 76.5 378t231.5 125q164 0 237.5 -114t73.5 -371v-57h-449v-29q0 -154 35 -223.5t111 -69.5
q59 0 92 48q16 24 25.5 61.5t9.5 82.5zM133 1112l152 348h172l152 -348h-105l-133 211l-133 -211h-105z" />
    <glyph glyph-name="edieresis" unicode="&#xeb;" horiz-adv-x="741" 
d="M231 598h275v25q0 121 -32 175t-103 54q-70 0 -105 -64.5t-35 -189.5zM670 328v-13q0 -154 -78 -243.5t-213 -89.5q-165 0 -242 122q-38 62 -57 158.5t-19 233.5q0 253 76.5 378t231.5 125q164 0 237.5 -114t73.5 -371v-57h-449v-29q0 -154 35 -223.5t111 -69.5
q59 0 92 48q16 24 25.5 61.5t9.5 82.5zM111 1274q0 44 31.5 76t74.5 32q45 0 77 -32t32 -76t-32.5 -75.5t-76.5 -31.5t-75 31t-31 76zM414 1274q0 44 31.5 76t75.5 32t76 -32t32 -76t-32.5 -75.5t-75.5 -31.5q-45 0 -76 31t-31 76z" />
    <glyph glyph-name="igrave" unicode="&#xec;" horiz-adv-x="410" 
d="M115 0v981h180v-981h-180zM324 1114h-105l-237 346h178z" />
    <glyph glyph-name="iacute" unicode="&#xed;" horiz-adv-x="410" 
d="M115 0v981h180v-981h-180zM86 1114l164 346h178l-237 -346h-105z" />
    <glyph glyph-name="icircumflex" unicode="&#xee;" horiz-adv-x="410" 
d="M115 0v981h180v-981h-180zM-33 1112l152 348h172l152 -348h-105l-133 211l-133 -211h-105z" />
    <glyph glyph-name="idieresis" unicode="&#xef;" horiz-adv-x="410" 
d="M115 0v981h180v-981h-180zM-55 1274q0 44 31.5 76t74.5 32q45 0 77 -32t32 -76t-32.5 -75.5t-76.5 -31.5t-75 31t-31 76zM248 1274q0 44 31.5 76t75.5 32t76 -32t32 -76t-32.5 -75.5t-75.5 -31.5q-45 0 -76 31t-31 76z" />
    <glyph glyph-name="eth" unicode="&#xf0;" horiz-adv-x="801" 
d="M254 492q0 -190 30.5 -265t104.5 -75q71 0 104 75q15 38 23 103.5t8 161.5q0 188 -30.5 263.5t-104.5 75.5q-71 0 -104 -76q-15 -37 -23 -103t-8 -160zM698 -23q0 -201 -74.5 -286.5t-248.5 -85.5q-143 0 -219 73t-76 207v31h171q0 -37 8.5 -67.5t24.5 -51.5
q30 -39 93 -39q76 0 108.5 47t32.5 154v139q-35 -56 -84 -85t-110 -29q-128 0 -190 124t-62 384t60.5 383.5t191.5 123.5q62 0 110 -27t84 -85v94h180v-1004zM163 1434l97 -1q0 -35 9.5 -63t27.5 -47q33 -35 104 -35t105 35q17 18 26.5 45.5t9.5 64.5l97 1q0 -70 -17.5 -126
t-48.5 -95q-57 -72 -172 -72q-112 0 -172 72q-30 38 -48 94t-18 127z" />
    <glyph glyph-name="ntilde" unicode="&#xf1;" horiz-adv-x="817" 
d="M113 0v981h178v-98q36 54 87 81t120 27q107 0 160 -60.5t53 -182.5v-748h-181v659q0 100 -26 136t-90 36q-60 0 -90.5 -37t-30.5 -112v-682h-180zM650 1397q-18 -116 -56.5 -171t-101.5 -55l-26 3q-10 1 -14.5 2t-15.5 6l-66 24l-26 7l-24 4q-27 0 -44 -17
q-13 -13 -26 -51h-80q15 108 53.5 163.5t100.5 55.5q13 0 29 -4l38 -10l70 -25l20 -5l17 -1q28 0 45.5 17.5t26.5 56.5h80z" />
    <glyph glyph-name="ograve" unicode="&#xf2;" horiz-adv-x="784" 
d="M244 494q0 -182 35.5 -264.5t111.5 -82.5q75 0 112.5 85t37.5 262q0 178 -36.5 262t-113.5 84q-74 0 -110.5 -84t-36.5 -262zM61 492q0 246 84.5 376.5t245.5 130.5q160 0 245 -130q41 -64 63 -159t22 -218q0 -249 -85 -379.5t-245 -130.5q-161 0 -245.5 129.5
t-84.5 380.5zM512 1114h-105l-237 346h178z" />
    <glyph glyph-name="oacute" unicode="&#xf3;" horiz-adv-x="784" 
d="M244 494q0 -182 35.5 -264.5t111.5 -82.5q75 0 112.5 85t37.5 262q0 178 -36.5 262t-113.5 84q-74 0 -110.5 -84t-36.5 -262zM61 492q0 246 84.5 376.5t245.5 130.5q160 0 245 -130q41 -64 63 -159t22 -218q0 -249 -85 -379.5t-245 -130.5q-161 0 -245.5 129.5
t-84.5 380.5zM274 1114l164 346h178l-237 -346h-105z" />
    <glyph glyph-name="ocircumflex" unicode="&#xf4;" horiz-adv-x="784" 
d="M244 494q0 -182 35.5 -264.5t111.5 -82.5q75 0 112.5 85t37.5 262q0 178 -36.5 262t-113.5 84q-74 0 -110.5 -84t-36.5 -262zM61 492q0 246 84.5 376.5t245.5 130.5q160 0 245 -130q41 -64 63 -159t22 -218q0 -249 -85 -379.5t-245 -130.5q-161 0 -245.5 129.5
t-84.5 380.5zM155 1112l152 348h172l152 -348h-105l-133 211l-133 -211h-105z" />
    <glyph glyph-name="otilde" unicode="&#xf5;" horiz-adv-x="784" 
d="M244 494q0 -182 35.5 -264.5t111.5 -82.5q75 0 112.5 85t37.5 262q0 178 -36.5 262t-113.5 84q-74 0 -110.5 -84t-36.5 -262zM61 492q0 246 84.5 376.5t245.5 130.5q160 0 245 -130q41 -64 63 -159t22 -218q0 -249 -85 -379.5t-245 -130.5q-161 0 -245.5 129.5
t-84.5 380.5zM633 1397q-18 -116 -56.5 -171t-101.5 -55l-26 3q-10 1 -14.5 2t-15.5 6l-66 24l-26 7l-24 4q-27 0 -44 -17q-13 -13 -26 -51h-80q15 108 53.5 163.5t100.5 55.5q13 0 29 -4l38 -10l70 -25l20 -5l17 -1q28 0 45.5 17.5t26.5 56.5h80z" />
    <glyph glyph-name="odieresis" unicode="&#xf6;" horiz-adv-x="784" 
d="M244 494q0 -182 35.5 -264.5t111.5 -82.5q75 0 112.5 85t37.5 262q0 178 -36.5 262t-113.5 84q-74 0 -110.5 -84t-36.5 -262zM61 492q0 246 84.5 376.5t245.5 130.5q160 0 245 -130q41 -64 63 -159t22 -218q0 -249 -85 -379.5t-245 -130.5q-161 0 -245.5 129.5
t-84.5 380.5zM133 1274q0 44 31.5 76t74.5 32q45 0 77 -32t32 -76t-32.5 -75.5t-76.5 -31.5t-75 31t-31 76zM436 1274q0 44 31.5 76t75.5 32t76 -32t32 -76t-32.5 -75.5t-75.5 -31.5q-45 0 -76 31t-31 76z" />
    <glyph glyph-name="divide" unicode="&#xf7;" horiz-adv-x="1706" 
d="M854 365q47 0 81 -34t34 -81t-34 -81t-81 -34t-81 33t-34 82q0 48 34 81.5t81 33.5zM1452 670v-117h-1198v117h1198zM854 1085q48 0 81.5 -34t33.5 -80q0 -48 -33.5 -81.5t-81.5 -33.5q-47 0 -81 33t-34 82q0 46 34 80t81 34z" />
    <glyph glyph-name="oslash" unicode="&#xf8;" horiz-adv-x="784" 
d="M481 797q-14 20 -37 31.5t-53 11.5q-74 0 -110.5 -84t-36.5 -262l3 -110q0 -24 2.5 -43t8.5 -44zM295 201q17 -28 41.5 -42t54.5 -14q74 0 113 85q17 41 27 109t10 155q0 63 -6 114q-2 27 -6 49.5t-11 47.5zM115 -23l47 111q-50 66 -75.5 163t-25.5 241q0 250 84.5 379.5
t249.5 129.5q50 0 86 -11q40 -9 70 -32l43 95l68 -31l-52 -117q53 -62 82 -168t29 -245q0 -249 -83.5 -380.5t-240.5 -131.5q-53 0 -96 12t-80 37l-37 -82z" />
    <glyph glyph-name="ugrave" unicode="&#xf9;" horiz-adv-x="817" 
d="M109 289v692h180v-702q0 -67 30 -102.5t89 -35.5q57 0 87.5 35t30.5 103v702h183v-692q0 -161 -71.5 -234t-229.5 -73q-157 0 -228 72.5t-71 234.5zM529 1114h-105l-237 346h178z" />
    <glyph glyph-name="uacute" unicode="&#xfa;" horiz-adv-x="817" 
d="M109 289v692h180v-702q0 -67 30 -102.5t89 -35.5q57 0 87.5 35t30.5 103v702h183v-692q0 -161 -71.5 -234t-229.5 -73q-157 0 -228 72.5t-71 234.5zM291 1114l164 346h178l-237 -346h-105z" />
    <glyph glyph-name="ucircumflex" unicode="&#xfb;" horiz-adv-x="817" 
d="M109 289v692h180v-702q0 -67 30 -102.5t89 -35.5q57 0 87.5 35t30.5 103v702h183v-692q0 -161 -71.5 -234t-229.5 -73q-157 0 -228 72.5t-71 234.5zM172 1112l152 348h172l152 -348h-105l-133 211l-133 -211h-105z" />
    <glyph glyph-name="udieresis" unicode="&#xfc;" horiz-adv-x="817" 
d="M109 289v692h180v-702q0 -67 30 -102.5t89 -35.5q57 0 87.5 35t30.5 103v702h183v-692q0 -161 -71.5 -234t-229.5 -73q-157 0 -228 72.5t-71 234.5zM150 1274q0 44 31.5 76t74.5 32q45 0 77 -32t32 -76t-32.5 -75.5t-76.5 -31.5t-75 31t-31 76zM453 1274q0 44 31.5 76
t75.5 32t76 -32t32 -76t-32.5 -75.5t-75.5 -31.5q-45 0 -76 31t-31 76z" />
    <glyph glyph-name="yacute" unicode="&#xfd;" horiz-adv-x="410" 
d="M115 0v981h180v-981h-180z" />
    <glyph glyph-name="thorn" unicode="&#xfe;" horiz-adv-x="559" 
d="M193 -16q-12 0 -26 3t-22 4q-41 9 -88 27v189q35 -31 75 -50q21 -8 38 -12t39 -4q58 0 93.5 33.5t35.5 87.5q0 62 -99 157l-20 19q-97 91 -129.5 151t-32.5 132q0 123 75.5 201.5t197.5 78.5q41 0 78 -9.5t77 -30.5v-185q-27 32 -63 49t-80 17q-50 0 -82.5 -32t-32.5 -81
q0 -64 95 -152l28 -26q89 -81 123.5 -148t34.5 -147q0 -124 -76 -200q-59 -57 -153 -71v-69h12q48 0 82 -11t60 -36q49 -49 49 -140q0 -94 -53.5 -145t-153.5 -51q-49 0 -103 11q-27 5 -58.5 13t-61.5 19v119q26 -9 56 -17.5t55 -14t48 -8.5t43 -3q45 0 67.5 18.5t22.5 56.5
q0 42 -28.5 61t-87.5 19l-17 -1l-18 -1v179z" />
    <glyph glyph-name="ydieresis" unicode="&#xff;" horiz-adv-x="672" 
d="M27 981h186l115 -643l155 643h179l-396 -1376h-186l151 481zM76 1274q0 44 31.5 76t74.5 32q45 0 77 -32t32 -76t-32.5 -75.5t-76.5 -31.5t-75 31t-31 76zM379 1274q0 44 31.5 76t75.5 32t76 -32t32 -76t-32.5 -75.5t-75.5 -31.5q-45 0 -76 31t-31 76z" />
    <glyph glyph-name="breve" unicode="&#x2d8;" horiz-adv-x="1024" 
d="M274 1434l97 -1q0 -35 9.5 -63t27.5 -47q33 -35 104 -35t105 35q17 18 26.5 45.5t9.5 64.5l97 1q0 -70 -17.5 -126t-48.5 -95q-57 -72 -172 -72q-112 0 -172 72q-30 38 -48 94t-18 127z" />
    <glyph glyph-name="dotaccent" unicode="&#x2d9;" horiz-adv-x="1024" 
d="M403 1278q0 42 34 76.5t77 34.5q44 0 78.5 -32.5t34.5 -78.5q0 -45 -33 -79t-80 -34q-44 0 -77.5 33.5t-33.5 79.5z" />
    <glyph glyph-name="dotlessi" unicode="&#x131;" horiz-adv-x="410" 
d="M115 0v981h180v-981h-180z" />
    <glyph glyph-name="ring" unicode="&#x2da;" horiz-adv-x="1024" 
d="M258 1352q0 106 74.5 181t181.5 75t181.5 -74.5t74.5 -181.5q0 -104 -75 -180t-181 -76q-103 0 -179.5 75.5t-76.5 180.5zM383 1350q0 -54 39 -91.5t92 -37.5q56 0 93.5 36.5t37.5 92.5q0 55 -38 94t-93 39q-54 0 -92.5 -39.5t-38.5 -93.5z" />
    <glyph glyph-name="ogonek" unicode="&#x2db;" horiz-adv-x="1024" 
d="M604 0q-28 -28 -48 -55t-33 -52q-25 -53 -25 -108q0 -43 16.5 -60.5t54.5 -17.5h70v-156h-80q-92 0 -142 44.5t-50 130.5q0 65 37 131.5t118 142.5h82z" />
    <glyph glyph-name="caron" unicode="&#x2c7;" horiz-adv-x="1024" 
d="M274 1460h105l133 -209l133 209h105l-152 -348h-172z" />
    <glyph glyph-name="Lslash" unicode="&#x141;" horiz-adv-x="772" 
d="M135 0v635l-135 -96v174l135 96v651h197v-553l225 156v-174l-225 -156v-551h422v-182h-619z" />
    <glyph glyph-name="lslash" unicode="&#x142;" horiz-adv-x="428" 
d="M123 0v668l-123 -88v135l123 86v749h182v-661l123 86v-133l-123 -86v-756h-182z" />
    <glyph glyph-name="fraction" unicode="&#x2215;" horiz-adv-x="342" 
d="M-342 -18l887 1497h137l-887 -1497h-137z" />
    <glyph glyph-name="fi" unicode="&#xf001;" horiz-adv-x="840" 
d="M520 1274q0 47 33 83q34 34 82 34t81.5 -34t33.5 -83q0 -48 -33.5 -81.5t-81.5 -33.5q-47 0 -81 33t-34 82zM545 0v981h180v-981h-180zM125 0v842h-98v139h98v344q0 115 56.5 180.5t154.5 65.5q22 0 52 -6q16 -3 30.5 -6.5t34.5 -10.5v-164l-37 10l-31 3q-40 0 -59 -23.5
t-19 -75.5v-317h135v-139h-135v-842h-182z" />
    <glyph glyph-name="fl" unicode="&#xf002;" horiz-adv-x="840" 
d="M545 0v1550h180v-1550h-180zM125 0v842h-98v139h98v344q0 115 56.5 180.5t154.5 65.5q22 0 52 -6q16 -3 30.5 -6.5t34.5 -10.5v-164l-37 10l-31 3q-40 0 -59 -23.5t-19 -75.5v-317h135v-139h-135v-842h-182z" />
    <glyph glyph-name="Zcaron" unicode="&#x17d;" horiz-adv-x="784" 
d="M18 0l474 1286h-404v174h672l-469 -1278h428v-182h-701zM155 1939h105l133 -209l133 209h105l-152 -348h-172z" />
    <glyph glyph-name="zcaron" unicode="&#x17e;" horiz-adv-x="676" 
d="M27 0l364 823h-342v158h600l-366 -819h338v-162h-594zM100 1460h105l133 -209l133 209h105l-152 -348h-172z" />
    <glyph glyph-name="Cacute" unicode="&#x106;" horiz-adv-x="780" 
d="M735 33q-24 -13 -46.5 -21.5t-52.5 -16.5q-54 -13 -106 -13q-222 0 -334 183t-112 552q0 375 118.5 568.5t350.5 193.5q53 0 96 -10q47 -9 86 -29v-187q-40 20 -81 31q-15 4 -36 7t-36 3q-155 0 -228 -137.5t-73 -437.5q0 -280 68.5 -414.5t211.5 -134.5q41 0 82.5 13
t91.5 42v-192zM409 1593l164 346h178l-237 -346h-105z" />
    <glyph glyph-name="cacute" unicode="&#x107;" horiz-adv-x="522" 
d="M496 16q-38 -18 -74 -27t-74 -9q-147 0 -218 124t-71 385q0 251 71 380.5t208 129.5q44 0 81 -10q39 -9 77 -28v-173q-23 23 -48.5 34.5t-50.5 11.5q-78 0 -116.5 -88t-38.5 -265q0 -163 37.5 -243t113.5 -80q28 0 53 10.5t50 32.5v-185zM211 1114l164 346h178l-237 -346
h-105z" />
    <glyph glyph-name="Ccaron" unicode="&#x10c;" horiz-adv-x="780" 
d="M735 33q-24 -13 -46.5 -21.5t-52.5 -16.5q-54 -13 -106 -13q-222 0 -334 183t-112 552q0 375 118.5 568.5t350.5 193.5q53 0 96 -10q47 -9 86 -29v-187q-40 20 -81 31q-15 4 -36 7t-36 3q-155 0 -228 -137.5t-73 -437.5q0 -280 68.5 -414.5t211.5 -134.5q41 0 82.5 13
t91.5 42v-192zM290 1939h105l133 -209l133 209h105l-152 -348h-172z" />
    <glyph glyph-name="ccaron" unicode="&#x10d;" horiz-adv-x="522" 
d="M496 16q-38 -18 -74 -27t-74 -9q-147 0 -218 124t-71 385q0 251 71 380.5t208 129.5q44 0 81 -10q39 -9 77 -28v-173q-23 23 -48.5 34.5t-50.5 11.5q-78 0 -116.5 -88t-38.5 -265q0 -163 37.5 -243t113.5 -80q28 0 53 10.5t50 32.5v-185zM92 1460h105l133 -209l133 209
h105l-152 -348h-172z" />
    <glyph glyph-name="dcroat" unicode="&#x111;" horiz-adv-x="807" 
d="M254 489q0 -189 30.5 -264t104.5 -75q71 0 103 76.5t32 262.5q0 190 -30.5 265t-104.5 75q-71 0 -103 -77t-32 -263zM518 0v96q-36 -59 -84 -86.5t-110 -27.5q-128 0 -190 124t-62 383q0 262 60.5 385t191.5 123q62 0 110 -27t84 -85v317h-196v113h196v235h180v-235h127
v-113h-127v-1202h-180z" />
    <glyph glyph-name="Scedilla" unicode="&#x15e;" 
d="M94 256q67 -41 128 -62.5t112 -21.5q90 0 143 52.5t53 140.5q0 129 -203 295l-36 30q-127 105 -180.5 198t-53.5 206q0 164 105 274.5t260 110.5q68 0 131.5 -15.5t124.5 -50.5v-196q-29 20 -55.5 34t-56.5 25q-55 20 -107 20q-93 0 -149 -54.5t-56 -145.5
q0 -126 215 -298l31 -24q126 -101 177.5 -195t51.5 -212q0 -169 -107 -277t-274 -108q-59 0 -123.5 18t-130.5 55v201zM166 -434v119q26 -9 56 -17.5t55 -14t48 -8.5t43 -3q45 0 67.5 18.5t22.5 56.5q0 42 -28.5 61t-87.5 19l-17 -1l-18 -1v205h86v-94h12q48 0 82 -11
t60 -36q49 -49 49 -140q0 -94 -53.5 -145t-153.5 -51q-49 0 -103 11q-27 5 -58.5 13t-61.5 19z" />
    <glyph glyph-name="scedilla" unicode="&#x15f;" horiz-adv-x="559" 
d="M57 207q35 -31 75 -50q21 -8 38 -12t39 -4q58 0 93.5 33.5t35.5 87.5q0 62 -99 157l-20 19q-97 91 -129.5 151t-32.5 132q0 123 75.5 201.5t197.5 78.5q41 0 78 -9.5t77 -30.5v-185q-27 32 -63 49t-80 17q-50 0 -82.5 -32t-32.5 -81q0 -64 95 -152l28 -26
q89 -81 123.5 -148t34.5 -147q0 -124 -76 -199t-203 -75q-40 0 -82.5 9t-89.5 27v189zM52 -434v119q26 -9 56 -17.5t55 -14t48 -8.5t43 -3q45 0 67.5 18.5t22.5 56.5q0 42 -28.5 61t-87.5 19l-17 -1l-18 -1v205h86v-94h12q48 0 82 -11t60 -36q49 -49 49 -140
q0 -94 -53.5 -145t-153.5 -51q-49 0 -103 11q-27 5 -58.5 13t-61.5 19z" />
    <glyph glyph-name="franc" unicode="&#x20a3;" horiz-adv-x="1341" 
d="M131 0v1460h598v-176h-401v-436h368v-174h-368v-674h-197zM901 0v981h174v-143q36 79 95 117q31 21 65 32.5t77 11.5v-190h-30q-105 0 -154 -52.5t-49 -164.5v-592h-178z" />
    <glyph glyph-name="Gbreve" unicode="&#x11e;" horiz-adv-x="1004" 
d="M924 784l4 -90l2 -84q0 -320 -104.5 -474t-321.5 -154q-223 0 -323.5 175t-100.5 572q0 404 100.5 577t329.5 173q163 0 261 -76t136 -232l-174 -84q-21 107 -76 159t-145 52q-127 0 -180 -123.5t-53 -441.5t52.5 -441.5t180.5 -123.5q114 0 171.5 94.5t57.5 280.5l-1 42
l-1 27h-209v172h394zM264 1913l97 -1q0 -35 9.5 -63t27.5 -47q33 -35 104 -35t105 35q17 18 26.5 45.5t9.5 64.5l97 1q0 -70 -17.5 -126t-48.5 -95q-57 -72 -172 -72q-112 0 -172 72q-30 38 -48 94t-18 127z" />
    <glyph glyph-name="gbreve" unicode="&#x11f;" horiz-adv-x="801" 
d="M254 492q0 -190 30.5 -265t104.5 -75q71 0 104 75q15 38 23 103.5t8 161.5q0 188 -30.5 263.5t-104.5 75.5q-71 0 -104 -76q-15 -37 -23 -103t-8 -160zM698 -23q0 -201 -74.5 -286.5t-248.5 -85.5q-143 0 -219 73t-76 207v31h171q0 -37 8.5 -67.5t24.5 -51.5
q30 -39 93 -39q76 0 108.5 47t32.5 154v139q-35 -56 -84 -85t-110 -29q-128 0 -190 124t-62 384t60.5 383.5t191.5 123.5q62 0 110 -27t84 -85v94h180v-1004zM163 1434l97 -1q0 -35 9.5 -63t27.5 -47q33 -35 104 -35t105 35q17 18 26.5 45.5t9.5 64.5l97 1q0 -70 -17.5 -126
t-48.5 -95q-57 -72 -172 -72q-112 0 -172 72q-30 38 -48 94t-18 127z" />
    <glyph glyph-name="Idotaccent" unicode="&#x130;" horiz-adv-x="461" 
d="M131 0v1460h197v-1460h-197zM122 1757q0 42 34 76.5t77 34.5q44 0 78.5 -32.5t34.5 -78.5q0 -45 -33 -79t-80 -34q-44 0 -77.5 33.5t-33.5 79.5z" />
    <glyph glyph-name="Omega" unicode="&#x3a9;" horiz-adv-x="1573" 
d="M1473 156v-156h-590v150q190 110 296 279q51 84 77 177t26 197q0 252 -137 405.5t-359 153.5q-220 0 -358.5 -155t-138.5 -404q0 -204 102.5 -373t298.5 -280v-150h-590v156h332q-163 132 -242 284.5t-79 335.5q0 329 188.5 533t486.5 204q299 0 487.5 -202t188.5 -531
q0 -187 -79 -339.5t-242 -284.5h332z" />
    <glyph glyph-name="pi" unicode="&#x3c0;" horiz-adv-x="1186" 
d="M1139 930h-185l-110 -516l-22 -115l-7 -74q0 -56 24 -81t81 -25h16q9 0 16.5 0.5t13.5 1.5l52 8l-29 -129l-5 -1q-63 -15 -99 -15q-109 0 -167.5 51.5t-58.5 150.5q0 54 11 121t45 230l84 393h-348l-197 -930h-158l197 930h-39q-54 0 -83.5 -30t-41.5 -101h-145
q25 153 93.5 211.5t223.5 58.5h866z" />
    <glyph glyph-name="partialdiff" unicode="&#x2202;" horiz-adv-x="1044" 
d="M754 604q11 74 19 161q0 28 3.5 84t3.5 75q0 140 -39.5 216.5t-111.5 76.5q-53 0 -116.5 -63.5t-109.5 -63.5q-28 0 -51 21q-10 10 -16 23t-6 29q0 59 68 105.5t163 46.5q171 0 273 -152.5t102 -412.5q0 -335 -139 -555t-344 -220q-146 0 -241 107t-95 272
q0 188 108.5 315.5t266.5 127.5q100 0 162.5 -46.5t99.5 -146.5zM709 483q0 117 -45.5 180.5t-126.5 63.5q-112 0 -184 -127.5t-72 -333.5q0 -118 44 -178.5t128 -60.5q112 0 184 128.5t72 327.5z" />
    <glyph glyph-name="Delta" unicode="&#x2206;" horiz-adv-x="1356" 
d="M1122 158l-444 1138l-445 -1138h889zM780 1473l586 -1473h-1374l586 1473h202z" />
    <glyph glyph-name="product" unicode="&#x220f;" horiz-adv-x="1528" 
d="M160 1473h1208v-1866h-201v1693h-809v-1693h-198v1866z" />
    <glyph glyph-name="c294" unicode="&#x2211;" horiz-adv-x="1346" 
d="M51 1473h1239v-166h-989l690 -744l-719 -792h1035v-164h-1289v139l738 813l-705 758v156z" />
    <glyph glyph-name="c295" unicode="&#x2212;" horiz-adv-x="1706" 
d="M1452 670v-119h-1198v119h1198z" />
    <glyph glyph-name="radical" unicode="&#x221a;" horiz-adv-x="1288" 
d="M1288 1647v-82h-119l-594 -1606h-53l-323 893l-119 -43l-23 68l262 92l265 -729l522 1407h182z" />
    <glyph glyph-name="infinity" unicode="&#x221e;" horiz-adv-x="1706" 
d="M905 559q51 -95 119.5 -141.5t155.5 -46.5q103 0 169 71.5t66 180.5q0 108 -60.5 179.5t-152.5 71.5q-84 0 -152 -72t-145 -243zM803 666q-51 95 -119 142.5t-154 47.5q-106 0 -171.5 -71t-65.5 -183q0 -108 60.5 -179t152.5 -71q83 0 150.5 69t146.5 245zM840 727
q34 70 69.5 120.5t76.5 83.5q78 66 175 66q133 0 225.5 -109t92.5 -272q0 -171 -82 -277t-213 -106q-95 0 -167 59t-151 202q-70 -138 -147.5 -201.5t-173.5 -63.5q-133 0 -225.5 109t-92.5 272q0 171 82.5 277t214.5 106q95 0 171.5 -63.5t144.5 -202.5z" />
    <glyph glyph-name="integral" unicode="&#x222b;" horiz-adv-x="1020" 
d="M301 -268q116 0 116 664l5 216q0 245 27 423.5t75 295.5q90 217 281 217q74 0 122 -39q22 -19 34 -45t12 -59q0 -48 -31 -77.5t-82 -29.5q-53 0 -85 35t-32 92q0 7 -5.5 14.5t-14.5 8.5q-119 0 -119 -634l-6 -245q0 -141 -9 -255.5t-23 -205.5q-21 -156 -62 -247
q-47 -112 -122 -172t-169 -60q-73 0 -119.5 38t-46.5 97q0 53 32 84t83 31q47 0 79.5 -29t32.5 -67q0 -24 7 -37t20 -14z" />
    <glyph glyph-name="approxequal" unicode="&#x2248;" horiz-adv-x="1706" 
d="M1530 453q-107 -75 -202.5 -110.5t-186.5 -35.5q-97 0 -288.5 69.5t-289.5 69.5q-80 0 -167.5 -35t-217.5 -124v131q104 71 201 108t186 37q110 0 301.5 -68.5t276.5 -68.5t172.5 35.5t214.5 122.5v-131zM1530 803q-103 -72 -200 -108t-187 -36q-98 0 -288.5 69
t-291.5 69q-82 0 -172 -36q-42 -18 -96.5 -48.5t-116.5 -73.5v131q104 71 201 108t186 37q111 0 300.5 -68.5t277.5 -68.5q46 0 87.5 8t87.5 27q86 34 212 121v-131z" />
    <glyph glyph-name="notequal" unicode="&#x2260;" horiz-adv-x="1706" 
d="M1298 1110l-196 -250h350v-115h-424l-211 -270h635v-115h-709l-251 -319l-89 70l197 249h-346v115h420l211 270h-631v115h704l252 320z" />
    <glyph glyph-name="lessequal" unicode="&#x2264;" horiz-adv-x="1706" 
d="M1444 150v-117h-1182v117h1182zM1444 1067l-977 -324l977 -323v-125l-1182 399v101l1182 397v-125z" />
    <glyph glyph-name="greaterequal" unicode="&#x2265;" horiz-adv-x="1706" 
d="M1444 150v-117h-1182v117h1182zM1444 795v-101l-1182 -399v125l979 323l-979 324v125z" />
    <glyph glyph-name="lozenge" unicode="&#x25ca;" horiz-adv-x="1012" 
d="M506 1409l-385 -817l385 -825l385 825zM506 1653l500 -1061l-500 -1069l-500 1069z" />
    <glyph glyph-name="apple" unicode="&#xf000;" horiz-adv-x="1618" 
d="M836 1216l-2 14v23q0 124 95 229t236 132l1 -23l1 -39q0 -131 -103.5 -234.5t-203.5 -103.5h-8l-8 1zM1505 403q-114 -246 -204.5 -342t-204.5 -96q-49 0 -131 33t-123 33q-44 0 -130.5 -33t-127.5 -33q-64 0 -128 44t-130 132q-100 137 -158 295q-27 78 -41 153t-14 148
q0 219 125 356.5t323 137.5q68 0 156.5 -34t122.5 -34q18 0 46 8t75 27q88 35 153 35q111 0 197.5 -39.5t161.5 -124.5q-101 -64 -151 -145.5t-50 -182.5q0 -111 60 -199.5t173 -138.5z" />
    </font>
</defs>
</svg>
