<?xml version="1.0" standalone="no"?>
<!DOCTYPE svg PUBLIC "-//W3C//DTD SVG 1.1//EN" "http://www.w3.org/Graphics/SVG/1.1/DTD/svg11.dtd" >
<svg>
<metadata>
Created by FontForge 20090622 at Tue Jun 20 10:57:30 2017
 By deploy user
Copyright &#194;&#169; 2015 Monotype Imaging Inc. All rights reserved.
</metadata>
<defs>
<font id="FuturaBT-Medium" horiz-adv-x="399" >
  <font-face 
    font-family="FuturaBT Medium"
    font-weight="500"
    font-stretch="normal"
    units-per-em="1000"
    panose-1="2 11 6 2 2 2 4 2 3 3"
    ascent="775"
    descent="-225"
    x-height="463"
    cap-height="715"
    bbox="-168 -257 1141 998"
    underline-thickness="50"
    underline-position="-75"
    unicode-range="U+000D-U+FEFF"
  />
<missing-glyph horiz-adv-x="480" 
d="M0 0v757h480v-757h-480zM73 71h334v615h-334v-615z" />
    <glyph glyph-name="IJ" unicode="IJ" horiz-adv-x="679" 
d="M84 0v715h116v-715h-116zM443 -19q-91 0 -156 74l74 75q35 -41 70 -41q37 0 49.5 24.5t12.5 81.5v520h115v-558q0 -90 -39.5 -133t-125.5 -43z" />
    <glyph glyph-name="ij" unicode="ij" horiz-adv-x="524" 
d="M131 596q-28 0 -47.5 20t-19.5 47t19.5 46.5t47.5 19.5t47 -19t19 -47t-19 -47.5t-47 -19.5zM393 596q-28 0 -47.5 20t-19.5 47t19.5 46.5t47.5 19.5t47 -19t19 -47t-19 -47.5t-47 -19.5zM78 0v463h106v-463h-106zM340 -218v681h106v-681h-106z" />
    <glyph glyph-name="uniFB00" unicode="ff" horiz-adv-x="612" 
d="M88 0v370h-81v93h81v124q0 92 38 136t119 44q35 0 72 -10v-96q-26 15 -52 15q-39 0 -55 -24.5t-16 -78.5v-110h111v-93h-111v-370h-106zM394 0v370h-81v93h81v124q0 92 38 136t119 44q35 0 72 -10v-96q-26 15 -52 15q-39 0 -55 -24.5t-16 -78.5v-110h111v-93h-111v-370
h-106z" />
    <glyph glyph-name="fi" unicode="fi" horiz-adv-x="562" 
d="M88 0v370h-81v93h81v124q0 92 38 136t119 44q35 0 72 -10v-96q-26 15 -52 15q-39 0 -55 -24.5t-16 -78.5v-110h111v-93h-111v-370h-106zM432 596q-28 0 -47.5 20t-19.5 47t19.5 46.5t47.5 19.5t47 -19t19 -47t-19 -47.5t-47 -19.5zM378 0v463h107v-463h-107z" />
    <glyph glyph-name="fl" unicode="fl" horiz-adv-x="563" 
d="M88 0v370h-81v93h81v124q0 92 38 136t119 44q35 0 72 -10v-96q-26 15 -52 15q-39 0 -55 -24.5t-16 -78.5v-110h111v-93h-111v-370h-106zM378 0v757h107v-757h-107z" />
    <glyph glyph-name="uniFB03" unicode="ffi" horiz-adv-x="874" 
d="M88 0v370h-81v93h81v124q0 92 38 136t119 44q35 0 72 -10v-96q-26 15 -52 15q-39 0 -55 -24.5t-16 -78.5v-110h111v-93h-111v-370h-106zM394 0v370h-81v93h81v124q0 92 38 136t119 44q35 0 72 -10v-96q-26 15 -52 15q-39 0 -55 -24.5t-16 -78.5v-110h111v-93h-111v-370
h-106zM743 596q-28 0 -47.5 20t-19.5 47t19.5 46.5t47.5 19.5t47 -19t19 -47t-19 -47.5t-47 -19.5zM690 0v463h106v-463h-106z" />
    <glyph glyph-name="uniFB04" unicode="ffl" horiz-adv-x="874" 
d="M88 0v370h-81v93h81v124q0 92 38 136t119 44q35 0 72 -10v-96q-26 15 -52 15q-39 0 -55 -24.5t-16 -78.5v-110h111v-93h-111v-370h-106zM394 0v370h-81v93h81v124q0 92 38 136t119 44q35 0 72 -10v-96q-26 15 -52 15q-39 0 -55 -24.5t-16 -78.5v-110h111v-93h-111v-370
h-106zM690 0v757h106v-757h-106z" />
    <glyph glyph-name=".notdef" horiz-adv-x="480" 
d="M0 0v757h480v-757h-480zM73 71h334v615h-334v-615z" />
    <glyph glyph-name=".null" horiz-adv-x="0" 
 />
    <glyph glyph-name="nonmarkingreturn" horiz-adv-x="333" 
 />
    <glyph glyph-name="NULL" horiz-adv-x="0" 
 />
    <glyph glyph-name="NULL" horiz-adv-x="0" 
 />
    <glyph glyph-name="CR" unicode="&#xd;" horiz-adv-x="302" 
 />
    <glyph glyph-name="space" unicode=" " horiz-adv-x="302" 
 />
    <glyph glyph-name="exclam" unicode="!" horiz-adv-x="329" 
d="M109 164v567h111v-567h-111zM164 -19q-27 0 -45.5 19t-18.5 45t19 45t45 19q27 0 45.5 -18.5t18.5 -45.5q0 -26 -18.5 -45t-45.5 -19z" />
    <glyph glyph-name="quotedbl" unicode="&#x22;" horiz-adv-x="314" 
d="M42 429v272h80v-272h-80zM193 429v272h80v-272h-80z" />
    <glyph glyph-name="numbersign" unicode="#" horiz-adv-x="769" 
d="M104 -3l76 212h-146l30 84h145l44 123h-154l30 84h154l76 213h93l-75 -213h122l76 213h93l-75 -213h142l-29 -84h-143l-44 -123h151l-30 -84h-150l-76 -212h-93l76 212h-123l-77 -212h-93zM302 292h125l44 124h-125z" />
    <glyph glyph-name="dollar" unicode="$" horiz-adv-x="604" 
d="M277 -82v81q-175 12 -210 156l92 41q24 -84 118 -94v223q-98 40 -144.5 89t-46.5 117q0 77 50.5 127.5t140.5 61.5v55h51v-56q141 -12 179 -113l-90 -45q-32 51 -89 61v-196q111 -52 156.5 -97.5t45.5 -118.5q0 -88 -52.5 -142.5t-149.5 -66.5v-83h-51zM277 444v175
q-68 -20 -68 -81q0 -58 68 -94zM328 105q82 21 82 98q0 61 -82 101v-199z" />
    <glyph glyph-name="percent" unicode="%" horiz-adv-x="792" 
d="M188 346q-75 0 -117.5 49t-42.5 139q0 89 42.5 138.5t117.5 49.5t117 -49t42 -139q0 -89 -42 -138.5t-117 -49.5zM155 -19l417 741h67l-417 -741h-67zM187 403q72 0 72 131t-70 131q-73 0 -73 -132q0 -130 71 -130zM605 -19q-75 0 -117 50t-42 139t42.5 138.5t117.5 49.5
t117 -49t42 -139q0 -89 -42.5 -139t-117.5 -50zM604 39q73 0 73 131q0 130 -71 130q-73 0 -73 -131q0 -130 71 -130z" />
    <glyph glyph-name="ampersand" unicode="&#x26;" horiz-adv-x="671" 
d="M252 -17q-99 0 -160.5 57.5t-61.5 146.5q0 62 39 113.5t120 102.5l-29 31q-49 54 -49 119q0 70 51 115.5t133 45.5q81 0 128 -41.5t47 -109.5q0 -54 -34 -97t-105 -84l149 -173q42 42 92 112l68 -73q-39 -62 -95 -112l120 -136h-134l-58 68q-98 -85 -221 -85zM279 456
l26 15q55 33 55 85q0 31 -19 50t-48 19q-33 0 -53 -19.5t-20 -50.5q0 -30 23 -56zM257 77q73 0 150 67l-156 180l-18 -12q-48 -31 -70 -58.5t-22 -63.5q0 -47 33 -80t83 -33z" />
    <glyph glyph-name="quotesingle" unicode="'" horiz-adv-x="163" 
d="M42 429v272h80v-272h-80z" />
    <glyph glyph-name="parenleft" unicode="(" horiz-adv-x="303" 
d="M198 -218q-116 215 -116 481q0 278 116 485l80 -24q-103 -203 -103 -460q0 -268 103 -456z" />
    <glyph glyph-name="parenright" unicode=")" horiz-adv-x="303" 
d="M101 -218l-79 26q103 188 103 456q0 257 -103 460l79 24q116 -207 116 -485q0 -266 -116 -481z" />
    <glyph glyph-name="asterisk" unicode="*" horiz-adv-x="440" 
d="M184 372l5 119l-102 -67l-35 59l110 56l-110 65l35 60l103 -66l-6 117h71l-7 -118l105 67l35 -60l-113 -62l113 -59l-37 -59l-103 68l7 -120h-71z" />
    <glyph glyph-name="plus" unicode="+" horiz-adv-x="833" 
d="M375 0v258h-251v81h251v257h83v-257h251v-81h-251v-258h-83z" />
    <glyph glyph-name="comma" unicode="," horiz-adv-x="302" 
d="M119 -176l-63 25l95 272l95 -35z" />
    <glyph glyph-name="hyphen" unicode="-" horiz-adv-x="405" 
d="M72 181v98h261v-98h-261z" />
    <glyph glyph-name="period" unicode="." horiz-adv-x="302" 
d="M151 -9q-27 0 -45.5 18.5t-18.5 44.5q0 27 18.5 46t45.5 19t45.5 -19t18.5 -46q0 -26 -18.5 -44.5t-45.5 -18.5z" />
    <glyph glyph-name="slash" unicode="/" horiz-adv-x="433" 
d="M0 -93l350 824h83l-350 -824h-83z" />
    <glyph glyph-name="zero" unicode="0" horiz-adv-x="604" 
d="M302 -19q-121 0 -189 97t-68 274q0 176 68.5 273t189.5 97q122 0 189 -97.5t67 -280.5q0 -171 -69 -267t-188 -96zM300 81q143 0 143 272q0 132 -35.5 201t-103.5 69q-143 0 -143 -272q0 -131 36.5 -200.5t102.5 -69.5z" />
    <glyph glyph-name="one" unicode="1" horiz-adv-x="604" 
d="M264 0v616h-148l45 92h209v-708h-106z" />
    <glyph glyph-name="two" unicode="2" horiz-adv-x="604" 
d="M21 0l267 320q96 116 96 188q0 53 -31.5 83.5t-86.5 30.5q-49 0 -80.5 -30.5t-35.5 -80.5h-112q0 96 64.5 153.5t173.5 57.5q103 0 163 -53t60 -145q0 -77 -42 -146.5t-138 -179.5l-91 -105h272v-93h-479z" />
    <glyph glyph-name="three" unicode="3" horiz-adv-x="604" 
d="M278 -19q-103 0 -166 57t-66 153h111v-6q0 -49 34 -78.5t91 -29.5q65 0 100.5 32.5t35.5 93.5q0 129 -145 129q-3 0 -10.5 -0.5t-11.5 -0.5v94q3 0 10 -0.5t11 -0.5q128 0 128 105q0 46 -29 73t-78 27q-52 0 -81.5 -25t-31.5 -71h-105q5 91 62 140t159 49q99 0 156 -51.5
t57 -138.5q0 -66 -32.5 -108t-90.5 -51q139 -25 139 -185q0 -94 -66 -150.5t-181 -56.5z" />
    <glyph glyph-name="four" unicode="4" horiz-adv-x="604" 
d="M356 0v145h-343l416 577h33v-496h87v-81h-87v-145h-106zM177 226h179v186q0 30 3 71z" />
    <glyph glyph-name="five" unicode="5" horiz-adv-x="604" 
d="M261 -19q-146 0 -223 105l77 85q52 -95 151 -95q71 0 115 45t44 119q0 71 -46 115.5t-121 44.5q-92 0 -151 -61l-29 6l89 363h338v-94h-268l-42 -158q57 24 111 24q102 0 166 -65.5t64 -170.5q0 -119 -74 -191t-201 -72z" />
    <glyph glyph-name="six" unicode="6" horiz-adv-x="604" 
d="M291 -19q-107 0 -171.5 66t-64.5 173q0 43 10.5 82.5t41 92t48 78.5l69.5 99l125 177l89 -45l-207 -270q48 23 93 23q95 0 157.5 -64.5t62.5 -166.5q0 -110 -69.5 -177.5t-183.5 -67.5zM294 77q64 0 100.5 38t36.5 104q0 67 -36 105t-100 38q-57 0 -93 -39.5t-36 -103.5
t36 -103t92 -39z" />
    <glyph glyph-name="seven" unicode="7" horiz-adv-x="604" 
d="M206 -27l-94 42l292 601h-331v92h493z" />
    <glyph glyph-name="eight" unicode="8" horiz-adv-x="604" 
d="M301 -19q-116 0 -180.5 56.5t-64.5 152.5q0 70 33 119.5t94 68.5q-103 44 -103 153q0 85 60 138t161 53q103 0 162.5 -53.5t59.5 -142.5q0 -108 -103 -148q59 -20 93 -69.5t34 -116.5q0 -98 -64.5 -154.5t-181.5 -56.5zM301 433q52 0 80 25.5t28 70.5q0 46 -28 72.5
t-78 26.5q-51 0 -80 -27t-29 -72t28 -70.5t79 -25.5zM301 76q63 0 98.5 33.5t35.5 90.5q0 59 -35.5 92t-98.5 33q-62 0 -97.5 -33.5t-35.5 -91.5t35 -91t98 -33z" />
    <glyph glyph-name="nine" unicode="9" horiz-adv-x="604" 
d="M246 -45l-88 45l206 269q-45 -22 -93 -22q-95 0 -157.5 64t-62.5 166q0 110 69.5 177.5t183.5 67.5q107 0 172 -65.5t65 -172.5q0 -43 -10.5 -82.5t-41 -92t-48 -78.5l-69.5 -99zM300 341q57 0 93 40t36 104t-35.5 103t-91.5 39q-64 0 -101 -38t-37 -104q0 -67 36 -105.5
t100 -38.5z" />
    <glyph glyph-name="colon" unicode=":" horiz-adv-x="329" 
d="M164 324q-27 0 -45.5 19t-18.5 45t19 44.5t45 18.5q27 0 45.5 -18t18.5 -45q0 -26 -18.5 -45t-45.5 -19zM164 -9q-27 0 -45.5 18.5t-18.5 44.5t19 45t45 19q27 0 45.5 -18.5t18.5 -45.5q0 -26 -18.5 -44.5t-45.5 -18.5z" />
    <glyph glyph-name="semicolon" unicode=";" horiz-adv-x="371" 
d="M206 324q-27 0 -45 18.5t-18 45.5q0 26 18.5 44.5t44.5 18.5q27 0 45.5 -18t18.5 -45q0 -26 -18.5 -45t-45.5 -19zM122 -176l-64 25l96 272l95 -35z" />
    <glyph glyph-name="less" unicode="&#x3c;" horiz-adv-x="833" 
d="M704 23l-575 236v78l575 237v-90l-456 -186l456 -186v-89z" />
    <glyph glyph-name="equal" unicode="=" horiz-adv-x="833" 
d="M124 358v82h585v-82h-585zM124 157v81h585v-81h-585z" />
    <glyph glyph-name="greater" unicode="&#x3e;" horiz-adv-x="833" 
d="M129 23v89l456 186l-456 186v90l575 -237v-78z" />
    <glyph glyph-name="question" unicode="?" horiz-adv-x="544" 
d="M266 154q-70 0 -114.5 41t-44.5 103q0 64 35.5 101t116.5 76q52 25 73.5 43t21.5 50t-23 53.5t-59 21.5q-40 0 -63 -26t-23 -72h-84q-1 6 -1 18q0 77 47 123t124 46q80 0 127 -46t47 -122q0 -62 -31.5 -97t-105.5 -71q-73 -36 -89 -52q-19 -19 -19 -44q0 -24 19 -42.5
t46 -18.5q67 0 69 76h87v-10q0 -72 -40.5 -111.5t-115.5 -39.5zM258 -19q-27 0 -45.5 19t-18.5 45t19 45t45 19q27 0 45.5 -18.5t18.5 -45.5q0 -26 -18.5 -45t-45.5 -19z" />
    <glyph glyph-name="at" unicode="@" horiz-adv-x="1000" 
d="M507 -147q-189 0 -309 93q-150 114 -150 309q0 163 100 286q146 178 397 178q170 0 278 -84q129 -99 129 -262q0 -164 -122 -263q-69 -55 -155 -55q-102 0 -102 81v2q-52 -82 -148 -82q-74 0 -113.5 42t-39.5 122q0 115 68 193.5t162 78.5q84 0 121 -69l27 52h75
l-72 -286q-4 -20 -4 -24q0 -19 13 -30t34 -11q53 0 104 56q72 77 72 192q0 123 -90.5 200.5t-239.5 77.5q-135 0 -230 -61q-89 -56 -136.5 -142.5t-47.5 -192.5q0 -152 102.5 -243.5t272.5 -91.5q167 0 300 93l33 -48q-147 -111 -329 -111zM447 117q43 0 79 32.5t49 84.5
l27 111q-14 86 -90 86q-62 0 -106 -62.5t-44 -151.5q0 -48 22 -74t63 -26z" />
    <glyph glyph-name="A" unicode="A" horiz-adv-x="662" 
d="M-15 0l346 743l346 -743h-123l-81 184h-283l-83 -184h-122zM233 281h199l-73 163q-13 31 -27 81q-12 -47 -26 -81z" />
    <glyph glyph-name="B" unicode="B" horiz-adv-x="576" 
d="M82 0v715h180q67 0 107 -6.5t70 -29.5q70 -51 70 -151q0 -118 -103 -149q62 -10 98 -57t36 -119q0 -91 -58 -149q-35 -35 -83 -44.5t-136 -9.5h-181zM196 413h44q81 0 116.5 22t35.5 77q0 64 -34.5 85t-117.5 21h-44v-205zM196 97h40q107 0 139 22q45 31 45 91
q0 70 -55 99q-31 16 -94 16h-75v-228z" />
    <glyph glyph-name="C" unicode="C" horiz-adv-x="718" 
d="M433 -19q-166 0 -274 106t-108 269q0 162 109 269t271 107q125 0 231 -74l-6 -117q-99 84 -220 84q-117 0 -190.5 -75t-73.5 -195q0 -117 72 -191.5t180 -74.5q126 0 231 90v-131q-94 -67 -222 -67z" />
    <glyph glyph-name="D" unicode="D" horiz-adv-x="740" 
d="M82 0v715h157q86 0 128.5 -2.5t98.5 -17.5t97 -47q126 -97 126 -291q0 -193 -126 -290q-56 -43 -121.5 -55t-171.5 -12h-188zM198 105h98q70 0 113 8.5t78 38.5q81 69 81 206t-81 206q-36 30 -82 38.5t-123 8.5h-84v-506z" />
    <glyph glyph-name="E" unicode="E" horiz-adv-x="532" 
d="M82 0v715h399v-99h-283v-179h283v-102h-283v-231h283v-104h-399z" />
    <glyph glyph-name="F" unicode="F" horiz-adv-x="525" 
d="M82 0v715h399v-99h-283v-178h283v-102h-283v-336h-116z" />
    <glyph glyph-name="G" unicode="G" horiz-adv-x="803" 
d="M433 -19q-174 0 -277 104q-105 107 -105 271t109 270q108 105 273 105q167 0 270 -125l-85 -64q-71 83 -183 83q-116 0 -189.5 -74t-73.5 -194q0 -122 73.5 -197t190.5 -75q100 0 157 46.5t57 126.5v10h-172v98h283q2 -58 2 -67q0 -152 -87 -235t-243 -83z" />
    <glyph glyph-name="H" unicode="H" horiz-adv-x="748" 
d="M82 0v715h116v-264h352v264h116v-715h-116v347h-352v-347h-116z" />
    <glyph glyph-name="I" unicode="I" horiz-adv-x="285" 
d="M84 0v715h116v-715h-116z" />
    <glyph glyph-name="J" unicode="J" horiz-adv-x="394" 
d="M158 -19q-91 0 -156 74l74 75q35 -41 70 -41q37 0 49.5 24.5t12.5 81.5v520h115v-558q0 -90 -39.5 -133t-125.5 -43z" />
    <glyph glyph-name="K" unicode="K" horiz-adv-x="620" 
d="M82 0v715h116v-296l257 296h142l-283 -318l317 -397h-150l-283 365v-365h-116z" />
    <glyph glyph-name="L" unicode="L" horiz-adv-x="470" 
d="M82 0v715h116v-611h260v-104h-376z" />
    <glyph glyph-name="M" unicode="M" horiz-adv-x="863" 
d="M432 -29l-187 389q-23 47 -35 91q-1 -46 -13 -99l-77 -352h-107l169 743l211 -449q10 -22 39 -97q7 19 41 97l206 449l173 -743h-108l-79 353q0 1 -13 98q-9 -49 -33 -99z" />
    <glyph glyph-name="N" unicode="N" horiz-adv-x="803" 
d="M721 -28l-463 445q-38 36 -69 80v-497h-107v743l454 -437q37 -36 78 -87v496h107v-743z" />
    <glyph glyph-name="O" unicode="O" horiz-adv-x="866" 
d="M433 -19q-159 0 -271 110q-111 108 -111 265t111 266q112 109 271 109q158 0 270 -109q112 -110 112 -266t-112 -265q-113 -110 -270 -110zM433 89q108 0 184 78q77 79 77 189q0 111 -77 190q-75 78 -184 78t-185 -78t-76 -190q0 -111 76 -189t185 -78z" />
    <glyph glyph-name="P" unicode="P" horiz-adv-x="532" 
d="M82 0v715h176q66 0 106 -6.5t73 -30.5t52.5 -66.5t19.5 -93.5t-19.5 -94t-52.5 -67q-33 -23 -73 -29.5t-106 -6.5h-67v-321h-109zM198 416h30q88 0 124.5 18t36.5 77q0 61 -37.5 82.5t-123.5 21.5h-30v-199z" />
    <glyph glyph-name="Q" unicode="Q" horiz-adv-x="866" 
d="M720 -67l-93 101q-95 -51 -200 -51q-73 0 -142.5 28.5t-122.5 80.5q-111 108 -111 265t111 265q111 109 271 109q159 0 270 -109q112 -109 112 -265q0 -152 -108 -260l152 -164h-139zM436 91q59 0 113 27l-128 138h141l69 -74q63 78 63 175q0 111 -76 189q-77 79 -185 79
t-185 -79q-76 -78 -76 -189q0 -112 75.5 -189t188.5 -77z" />
    <glyph glyph-name="R" unicode="R" horiz-adv-x="560" 
d="M82 0v715h162q126 0 178 -40q69 -55 69 -157q0 -173 -164 -193l246 -325h-131l-238 320h-13v-320h-109zM198 410h21q84 0 118.5 18.5t34.5 79.5q0 63 -35 85t-118 22h-21v-205z" />
    <glyph glyph-name="S" unicode="S" horiz-adv-x="549" 
d="M267 -19q-91 0 -149.5 42t-76.5 120l93 43q26 -98 138 -98q52 0 82.5 29t30.5 77q0 13 -3 24t-6 19.5t-12 17l-14 13.5t-19.5 13t-20.5 11l-25.5 12.5t-26.5 12.5q-106 52 -151.5 97t-45.5 121q0 87 59 141.5t156 54.5q79 0 132.5 -30.5t73.5 -87.5l-91 -47
q-41 65 -106 65q-47 0 -74.5 -24.5t-27.5 -65.5q0 -44 27.5 -67t93.5 -53q10 -5 15 -7q100 -46 142.5 -92t42.5 -120q0 -101 -63.5 -161t-173.5 -60z" />
    <glyph glyph-name="T" unicode="T" horiz-adv-x="509" 
d="M197 0v616h-190v99h495v-99h-189v-616h-116z" />
    <glyph glyph-name="U" unicode="U" horiz-adv-x="744" 
d="M372 -19q-293 0 -293 289v445h115v-434q0 -194 178 -194t178 194v434h116v-445q0 -289 -294 -289z" />
    <glyph glyph-name="V" unicode="V" horiz-adv-x="618" 
d="M309 -28l-319 743h121l160 -381q27 -64 38 -115q13 54 39 115l160 381h120z" />
    <glyph glyph-name="W" unicode="W" horiz-adv-x="939" 
d="M273 -28l-276 743h115l135 -361q25 -67 38 -113q10 34 39 120l144 382l151 -389q21 -56 38 -114q10 43 35 111l134 364h116l-277 -743l-163 408q-22 54 -35 100q-16 -57 -34 -102z" />
    <glyph glyph-name="X" unicode="X" horiz-adv-x="572" 
d="M0 0l232 374l-205 341h122l103 -175q8 -12 38 -71q15 30 39 70l109 176h119l-209 -339l225 -376h-128l-120 203l-38 72q-16 -34 -39 -71l-125 -204h-123z" />
    <glyph glyph-name="Y" unicode="Y" horiz-adv-x="593" 
d="M236 0v327l-241 388h122l150 -243q12 -21 30 -57q13 35 30 60l154 240h116l-246 -388v-327h-115z" />
    <glyph glyph-name="Z" unicode="Z" horiz-adv-x="576" 
d="M9 0l364 616h-303v99h482l-361 -611h365v-104h-547z" />
    <glyph glyph-name="bracketleft" unicode="[" horiz-adv-x="303" 
d="M97 -202v933h186v-76h-93v-780h93v-77h-186z" />
    <glyph glyph-name="backslash" unicode="\" horiz-adv-x="433" 
d="M350 -93l-350 824h83l350 -824h-83z" />
    <glyph glyph-name="bracketright" unicode="]" horiz-adv-x="303" 
d="M21 -202v77h92v780h-92v76h185v-933h-185z" />
    <glyph glyph-name="asciicircum" unicode="^" horiz-adv-x="1000" 
d="M204 439l243 274h106l242 -274h-101l-194 194l-195 -194h-101z" />
    <glyph glyph-name="underscore" unicode="_" horiz-adv-x="500" 
d="M0 -236v84h500v-84h-500z" />
    <glyph glyph-name="grave" unicode="`" horiz-adv-x="279" 
d="M189 533l-159 170h110l109 -170h-60z" />
    <glyph glyph-name="a" unicode="a" horiz-adv-x="582" 
d="M250 -19q-97 0 -154 66.5t-57 184.5q0 111 58 179t150 68q117 0 156 -92v76h106v-463h-106v60q-57 -79 -153 -79zM277 75q56 0 92.5 43t36.5 115t-33.5 112t-93.5 40t-94.5 -41.5t-34.5 -114.5q0 -74 33.5 -114t93.5 -40z" />
    <glyph glyph-name="b" unicode="b" horiz-adv-x="582" 
d="M332 -19q-96 0 -153 79v-60h-106v757h106v-370q39 92 157 92q92 0 149.5 -68t57.5 -179q0 -118 -57 -184.5t-154 -66.5zM306 75q60 0 93 40t33 114q0 73 -34.5 114.5t-94.5 41.5t-93.5 -40t-33.5 -112t36.5 -115t93.5 -43z" />
    <glyph glyph-name="c" unicode="c" horiz-adv-x="454" 
d="M285 -19q-109 0 -177.5 69.5t-68.5 179.5q0 112 71 180.5t186 68.5q71 0 123 -29v-119q-50 55 -127 55q-65 0 -104 -41.5t-39 -111.5q0 -73 39.5 -114t108.5 -41q76 0 122 58v-122q-59 -33 -134 -33z" />
    <glyph glyph-name="d" unicode="d" horiz-adv-x="582" 
d="M250 -19q-97 0 -154 66.5t-57 184.5q0 111 58 179t150 68q117 0 156 -92v370h106v-757h-106v60q-57 -79 -153 -79zM277 75q57 0 93 43t36 115t-33.5 112t-93.5 40t-94.5 -41.5t-34.5 -114.5q0 -74 33.5 -114t93.5 -40z" />
    <glyph glyph-name="e" unicode="e" horiz-adv-x="556" 
d="M282 -19q-111 0 -177 68t-66 181q0 109 68 179t175 70q112 0 174.5 -64t62.5 -179v-20h-370q4 -65 38.5 -101.5t92.5 -36.5q51 0 85 21.5t60 69.5l89 -50q-77 -138 -232 -138zM156 287h253q-12 102 -125 102q-103 0 -128 -102z" />
    <glyph glyph-name="f" unicode="f" horiz-adv-x="306" 
d="M88 0v370h-81v93h81v124q0 92 38 136t119 44q35 0 72 -10v-96q-26 15 -52 15q-39 0 -55 -24.5t-16 -78.5v-110h111v-93h-111v-370h-106z" />
    <glyph glyph-name="g" unicode="g" horiz-adv-x="582" 
d="M272 -218q-97 0 -153.5 41t-57.5 107h114q5 -61 99 -61q70 0 98.5 31t29.5 99l1 61q-57 -79 -153 -79q-97 0 -154 66.5t-57 184.5q0 111 58 179t150 68q117 0 156 -92v76h106v-434q0 -132 -52.5 -189.5t-184.5 -57.5zM277 75q56 0 92.5 43t36.5 115t-33.5 112t-93.5 40
t-94.5 -41.5t-34.5 -114.5q0 -74 33.5 -114t93.5 -40z" />
    <glyph glyph-name="h" unicode="h" horiz-adv-x="588" 
d="M73 0v757h100v-370q61 92 179 92q104 0 145 -65q11 -17 16 -39.5t6 -40t1 -53.5v-281h-107v238q0 84 -19.5 117.5t-81.5 33.5q-77 0 -112 -52q-21 -31 -21 -126v-211h-106z" />
    <glyph glyph-name="i" unicode="i" horiz-adv-x="262" 
d="M131 596q-28 0 -47.5 20t-19.5 47t19.5 46.5t47.5 19.5t47 -19t19 -47t-19 -47.5t-47 -19.5zM78 0v463h106v-463h-106z" />
    <glyph glyph-name="j" unicode="j" horiz-adv-x="262" 
d="M131 596q-28 0 -47.5 20t-19.5 47t19.5 46.5t47.5 19.5t47 -19t19 -47t-19 -47.5t-47 -19.5zM78 -218v681h106v-681h-106z" />
    <glyph glyph-name="k" unicode="k" horiz-adv-x="516" 
d="M73 0v757h106v-486l194 192h131l-210 -204l230 -259h-137l-208 239v-239h-106z" />
    <glyph glyph-name="l" unicode="l" horiz-adv-x="262" 
d="M78 0v757h106v-757h-106z" />
    <glyph glyph-name="m" unicode="m" horiz-adv-x="875" 
d="M73 0v463h100v-76q61 93 167 93q107 0 144 -92q70 92 172 92q94 0 133 -66q17 -28 17 -96v-318h-106v238q0 84 -17 118t-73 34q-66 0 -91 -42.5t-25 -136.5v-211h-107v238q0 82 -19.5 117t-72.5 35q-66 0 -98 -53q-18 -30 -18 -126v-211h-106z" />
    <glyph glyph-name="n" unicode="n" horiz-adv-x="588" 
d="M73 0v463h100v-76q61 92 179 92q104 0 145 -65q11 -17 16 -39.5t6 -40t1 -53.5v-281h-107v238q0 84 -19.5 117.5t-81.5 33.5q-77 0 -112 -52q-21 -31 -21 -126v-211h-106z" />
    <glyph glyph-name="o" unicode="o" horiz-adv-x="588" 
d="M293 -19q-104 0 -179 73t-75 177t75 176q74 72 179 72q106 0 181 -73t75 -175q0 -105 -74 -176q-77 -74 -182 -74zM294 76q59 0 101 44.5t42 109.5t-41.5 109.5t-101.5 44.5t-101.5 -44.5t-41.5 -109.5t41.5 -109.5t101.5 -44.5z" />
    <glyph glyph-name="p" unicode="p" horiz-adv-x="582" 
d="M73 -218v681h106v-76q39 92 157 92q92 0 149.5 -68t57.5 -179q0 -118 -57 -184.5t-154 -66.5q-96 0 -153 79v-278h-106zM306 75q60 0 93 40t33 114q0 73 -34.5 114.5t-94.5 41.5t-93.5 -40t-33.5 -112q0 -73 36.5 -115.5t93.5 -42.5z" />
    <glyph glyph-name="q" unicode="q" horiz-adv-x="582" 
d="M403 -218v278q-57 -79 -153 -79q-97 0 -154 66.5t-57 184.5q0 111 58 179t150 68q117 0 156 -92v76h106v-681h-106zM277 75q57 0 93 42.5t36 115.5q0 72 -33.5 112t-93.5 40t-94.5 -41.5t-34.5 -114.5q0 -74 33.5 -114t93.5 -40z" />
    <glyph glyph-name="r" unicode="r" horiz-adv-x="368" 
d="M73 0v464h106v-75q34 90 115 90q45 0 87 -21l-38 -90q-27 19 -65 19q-55 0 -77 -43.5t-22 -140.5v-203h-106z" />
    <glyph glyph-name="s" unicode="s" horiz-adv-x="426" 
d="M203 -19q-133 0 -183 103l88 48q20 -71 104 -71q36 0 56 16.5t20 44.5q0 14 -4.5 24t-16.5 17.5t-22 11.5t-32 12t-35 14q-70 29 -101.5 60.5t-31.5 79.5q0 61 48 100t129 39q112 0 148 -76l-75 -52q-8 22 -29 35t-48 13q-31 0 -49 -14.5t-18 -38.5q0 -13 5 -22.5
t18.5 -17.5t24 -12.5t35.5 -13.5t39 -15q62 -25 90.5 -56.5t28.5 -80.5q0 -68 -49.5 -108t-139.5 -40z" />
    <glyph glyph-name="t" unicode="t" horiz-adv-x="303" 
d="M98 0v370h-81v93h81v175h106v-175h81v-93h-81v-370h-106z" />
    <glyph glyph-name="u" unicode="u" horiz-adv-x="588" 
d="M295 -19q-120 0 -172.5 60.5t-52.5 192.5v229h106v-261q0 -66 27 -96t91 -30t91 30t27 96v261h106v-229q0 -131 -52.5 -192t-170.5 -61z" />
    <glyph glyph-name="v" unicode="v" horiz-adv-x="472" 
d="M236 -28l-243 491h116l101 -233q10 -22 26 -84q9 42 27 84l101 233h115z" />
    <glyph glyph-name="w" unicode="w" horiz-adv-x="750" 
d="M233 -28l-240 491h113l104 -223q14 -31 23 -94q1 35 24 84l113 250h9l115 -250q21 -45 22 -84q9 54 27 93l102 224h112l-241 -491l-107 241q-22 52 -34 92q-22 -65 -32 -88z" />
    <glyph glyph-name="x" unicode="x" horiz-adv-x="453" 
d="M-12 0l175 249l-150 214h117l65 -96q19 -28 32 -56q11 23 33 57l64 95h116l-150 -215l174 -248h-116l-86 122q-29 43 -36 63q-19 -37 -37 -64l-84 -121h-117z" />
    <glyph glyph-name="y" unicode="y" horiz-adv-x="471" 
d="M44 -218l127 258l-170 423h117l85 -240q15 -44 22 -91q6 25 33 84l114 247h115l-334 -681h-109z" />
    <glyph glyph-name="z" unicode="z" horiz-adv-x="449" 
d="M-1 0l258 370h-232v93h404l-252 -370h252v-93h-430z" />
    <glyph glyph-name="braceleft" unicode="{" horiz-adv-x="500" 
d="M396 -202q-93 0 -133 24q-31 18 -40.5 51t-9.5 95v126q0 70 -25.5 99t-87.5 29q-4 0 -11 -0.5t-10 -0.5v87q3 0 10 -0.5t11 -0.5q62 0 87.5 29t25.5 98v126q0 63 9.5 95.5t40.5 51.5q41 24 142 24h22v-87q-4 0 -12 0.5t-11 0.5q-56 0 -73.5 -22t-17.5 -83v-123
q0 -72 -20 -105.5t-79 -47.5q59 -14 79 -48t20 -105v-122q0 -62 17.5 -84t74.5 -22q3 0 10.5 0.5t11.5 0.5v-86h-31z" />
    <glyph glyph-name="bar" unicode="|" horiz-adv-x="500" 
d="M207 -236v1000h87v-1000h-87z" />
    <glyph glyph-name="braceright" unicode="}" horiz-adv-x="500" 
d="M74 -202v86q4 0 11.5 -0.5t10.5 -0.5q56 0 73.5 22t17.5 84v122q0 71 20.5 105t79.5 48q-60 14 -80 48t-20 105v123q0 61 -17.5 83t-72.5 22q-3 0 -11 -0.5t-12 -0.5v87h22q100 0 141 -24q31 -19 40.5 -52t9.5 -95v-126q0 -69 25 -98t88 -29q3 0 10 0.5t11 0.5v-87
q-3 0 -10 0.5t-11 0.5q-62 0 -87.5 -29t-25.5 -99v-126q0 -62 -9.5 -94.5t-40.5 -51.5q-40 -24 -141 -24h-22z" />
    <glyph glyph-name="asciitilde" unicode="~" horiz-adv-x="833" 
d="M87 212v91q103 70 189 70q58 0 143 -29q7 -2 24 -8t24.5 -9t22.5 -7.5t24.5 -6.5t22.5 -3.5t25 -1.5q81 0 185 75v-90q-100 -69 -186 -69q-44 0 -93 17q-10 3 -39 13.5t-41.5 14l-35 9.5t-41 8.5t-36.5 2.5q-79 0 -188 -77z" />
    <glyph glyph-name="uni00A0" unicode="&#xa0;" horiz-adv-x="302" 
 />
    <glyph glyph-name="exclamdown" unicode="&#xa1;" horiz-adv-x="329" 
d="M164 604q-26 0 -45 19t-19 45t18.5 44.5t45.5 18.5t45.5 -18.5t18.5 -44.5q0 -27 -18.5 -45.5t-45.5 -18.5zM109 -19v568h111v-568h-111z" />
    <glyph glyph-name="cent" unicode="&#xa2;" horiz-adv-x="604" 
d="M304 29v101q-96 7 -154.5 71t-58.5 158q0 95 56.5 158.5t156.5 78.5v79h51v-77q62 -2 130 -29v-100q-55 35 -130 41v-292q88 14 130 47v-102q-55 -32 -130 -35v-99h-51zM304 218v291q-52 -9 -84.5 -49t-32.5 -94q0 -60 31 -99t86 -49z" />
    <glyph glyph-name="sterling" unicode="&#xa3;" horiz-adv-x="604" 
d="M100 -25l-64 49q57 85 128 91q23 46 23 87q0 40 -23 84h-122v69h92q-44 73 -44 146q0 96 66.5 158.5t176.5 62.5q103 0 162 -55.5t68 -160.5l-109 -15q-9 137 -126 137q-55 0 -89 -34t-34 -88q0 -8 1 -16.5t2.5 -16t4.5 -18.5t5 -17t7 -19.5t7 -19.5t8.5 -22t8.5 -22h175
v-69h-153q8 -25 8 -53q0 -68 -47 -118h3q40 0 102 -22t87 -22q71 0 101 52l65 -58q-48 -86 -146 -86q-47 0 -125.5 23.5t-111.5 23.5q-54 0 -107 -51z" />
    <glyph glyph-name="currency" unicode="&#xa4;" horiz-adv-x="606" 
d="M81 106l-45 45l99 100q-39 53 -39 121t39 121l-99 100l45 45l99 -99q53 40 122 40q70 0 123 -40l99 99l46 -45l-100 -100q39 -53 39 -121t-39 -121l100 -100l-46 -45l-99 100q-55 -40 -122 -40q-70 0 -123 40zM303 231q59 0 100.5 41t41.5 100q0 58 -42 100t-100 42
t-100 -42t-42 -100q0 -59 41.5 -100t100.5 -41z" />
    <glyph glyph-name="yen" unicode="&#xa5;" horiz-adv-x="604" 
d="M240 0v282h-235v71h217l-49 80h-168v71h125l-130 205h117l150 -241q12 -19 30 -59q12 34 30 62l154 238h112l-130 -205h125v-71h-171l-50 -80h221v-71h-241v-282h-107z" />
    <glyph glyph-name="brokenbar" unicode="&#xa6;" horiz-adv-x="500" 
d="M207 329v370h87v-370h-87zM207 -171v370h87v-370h-87z" />
    <glyph glyph-name="section" unicode="&#xa7;" horiz-adv-x="532" 
d="M262 -220q-85 0 -136 46t-51 121v10h99q3 -89 91 -89q44 0 68.5 20t24.5 53q0 8 -1.5 14.5t-3.5 12t-7 11l-8.5 9.5t-12 9t-13.5 7.5l-16.5 8l-17 8t-20 8.5l-21.5 9q-107 46 -135 73q-61 58 -61 152q0 63 33 109.5t95 70.5q-88 40 -88 132q0 72 51 114.5t142 42.5
q85 0 130 -42.5t45 -121.5v-10h-91q-3 89 -91 89q-39 0 -63 -20t-24 -50q0 -32 27.5 -51.5t97.5 -47.5q101 -40 144.5 -87.5t43.5 -130.5q0 -137 -134 -176q46 -22 71 -59t25 -82q0 -75 -51 -119t-142 -44zM269 137q50 0 86.5 36t36.5 89q0 52 -36.5 89t-86.5 37
q-51 0 -86.5 -36.5t-35.5 -89.5t36 -89t86 -36z" />
    <glyph glyph-name="dieresis" unicode="&#xa8;" horiz-adv-x="355" 
d="M89 553q-25 0 -42 17.5t-17 42.5q0 23 17.5 40.5t41.5 17.5t41 -17t17 -41q0 -26 -16.5 -43t-41.5 -17zM267 553q-25 0 -42 17.5t-17 42.5q0 23 17.5 40.5t41.5 17.5t41 -17t17 -41q0 -26 -16.5 -43t-41.5 -17z" />
    <glyph glyph-name="copyright" unicode="&#xa9;" horiz-adv-x="833" 
d="M416 -5q-147 0 -254 107t-107 255q0 146 108 256q103 105 253 105q151 0 257 -106q105 -105 105 -255q0 -153 -104 -254q-110 -108 -258 -108zM417 49q125 0 219 92q89 87 89 216t-89 218q-90 90 -219 90q-130 0 -217 -89q-91 -93 -91 -219t91 -217t217 -91zM417 138
q-89 0 -141.5 58t-52.5 158q0 102 54 162t142 60q72 0 118.5 -37.5t51.5 -97.5h-81q-5 36 -29.5 55.5t-63.5 19.5q-47 0 -75 -41.5t-28 -117.5q0 -75 28.5 -115t79.5 -40q39 0 63 21.5t29 60.5h81q-4 -65 -52 -105.5t-124 -40.5z" />
    <glyph glyph-name="ordfeminine" unicode="&#xaa;" horiz-adv-x="437" 
d="M188 378q-73 0 -116 46.5t-43 128.5q0 78 43.5 125.5t112.5 47.5q89 0 117 -64v53h80v-324h-80v42q-42 -55 -114 -55zM208 443q42 0 69.5 30t27.5 81t-25.5 78.5t-70.5 27.5t-70.5 -28.5t-25.5 -80.5t25 -80t70 -28z" />
    <glyph glyph-name="guillemotleft" unicode="&#xab;" horiz-adv-x="454" 
d="M163 30l-124 199l124 199l67 -41l-100 -158l100 -158zM348 30l-124 199l124 199l68 -41l-101 -158l101 -158z" />
    <glyph glyph-name="logicalnot" unicode="&#xac;" horiz-adv-x="833" 
d="M628 176v164h-504v81h585v-245h-81z" />
    <glyph glyph-name="uni00AD" unicode="&#xad;" horiz-adv-x="405" 
d="M72 181v98h261v-98h-261z" />
    <glyph glyph-name="registered" unicode="&#xae;" horiz-adv-x="833" 
d="M416 -5q-149 0 -256 109q-105 107 -105 253q0 149 109 258q103 103 252 103q153 0 259 -108q103 -105 103 -253q0 -153 -106 -256q-109 -106 -256 -106zM412 49q130 0 223 90q90 87 90 213q0 131 -88 221q-92 92 -220 92q-127 0 -215 -88q-93 -95 -93 -220t89 -216
q92 -92 214 -92zM269 161v405h156q171 0 171 -110q0 -92 -90 -112l90 -183h-97l-80 169h-63v-169h-87zM356 384h57q49 0 71.5 14.5t22.5 47.5q0 65 -98 65h-53v-127z" />
    <glyph glyph-name="macron" unicode="&#xaf;" horiz-adv-x="317" 
d="M30 577v69h257v-69h-257z" />
    <glyph glyph-name="degree" unicode="&#xb0;" horiz-adv-x="329" 
d="M164 424q-60 0 -101.5 41.5t-41.5 102.5t42 103t102 42q59 0 101.5 -42.5t42.5 -102.5q0 -59 -42.5 -101.5t-102.5 -42.5zM165 478q38 0 64 27t26 64t-26.5 63.5t-63.5 26.5q-38 0 -64.5 -26.5t-26.5 -63.5t27 -64t64 -27z" />
    <glyph glyph-name="plusminus" unicode="&#xb1;" horiz-adv-x="833" 
d="M375 182v163h-251v81h251v163h83v-163h251v-81h-251v-163h-83zM124 7v82h585v-82h-585z" />
    <glyph glyph-name="twosuperior" unicode="&#xb2;" 
d="M14 281l176 192q63 69 63 113q0 32 -20.5 50t-56.5 18q-32 0 -53.5 -18t-23.5 -48h-74q0 57 42.5 91.5t114.5 34.5q68 0 107.5 -32t39.5 -87q0 -46 -27.5 -87t-90.5 -108l-61 -63h180v-56h-316z" />
    <glyph glyph-name="threesuperior" unicode="&#xb3;" 
d="M183 270q-68 0 -109.5 34t-43.5 92h74v-4q0 -30 22 -47.5t60 -17.5q90 0 90 76q0 77 -96 77h-14v56q2 0 6.5 -0.5t7.5 -0.5q84 0 84 63q0 28 -19.5 44t-51.5 16q-72 0 -74 -57h-69q3 54 40.5 83.5t104.5 29.5q65 0 103 -30.5t38 -83.5q0 -39 -21.5 -64.5t-59.5 -30.5
q92 -16 92 -111q0 -57 -43.5 -90.5t-120.5 -33.5z" />
    <glyph glyph-name="acute" unicode="&#xb4;" horiz-adv-x="279" 
d="M30 533l109 170h110l-159 -170h-60z" />
    <glyph glyph-name="mu" unicode="&#xb5;" horiz-adv-x="590" 
d="M-45 -210l145 738h112l-61 -310q-6 -28 -6 -51q0 -96 89 -96q61 0 95.5 44.5t53.5 141.5l53 271h110l-71 -361q-9 -47 -9 -65q0 -17 7.5 -24.5t25.5 -7.5q11 0 17 1l-16 -78q-31 -8 -73 -8q-73 0 -73 61v7q-42 -69 -124 -69q-76 0 -115 53l-48 -247h-112z" />
    <glyph glyph-name="paragraph" unicode="&#xb6;" horiz-adv-x="500" 
d="M207 0v383q-83 3 -131.5 49.5t-48.5 119.5q0 76 51.5 123t139.5 47h255v-48h-57v-674h-63v674h-83v-674h-63z" />
    <glyph glyph-name="periodcentered" unicode="&#xb7;" horiz-adv-x="302" 
d="M151 288q-27 0 -45.5 19t-18.5 45q0 27 18.5 45.5t45.5 18.5t45.5 -18.5t18.5 -45.5q0 -26 -18.5 -45t-45.5 -19z" />
    <glyph glyph-name="cedilla" unicode="&#xb8;" horiz-adv-x="302" 
d="M156 -221q-49 0 -126 19v52q76 -18 118 -18q50 0 50 33q0 36 -65 36q-3 0 -9.5 -0.5t-10.5 -0.5v100h42v-52h8q109 0 109 -85q0 -40 -30 -62t-86 -22z" />
    <glyph glyph-name="onesuperior" unicode="&#xb9;" 
d="M175 281v370h-98l30 55h137v-425h-69z" />
    <glyph glyph-name="ordmasculine" unicode="&#xba;" horiz-adv-x="441" 
d="M220 378q-78 0 -134 51q-57 51 -57 124q0 72 57 123q55 50 134 50q80 0 136 -51t56 -122q0 -73 -56 -124q-57 -51 -136 -51zM221 444q44 0 75.5 31.5t31.5 76.5q0 46 -31 77t-76 31t-76.5 -31t-31.5 -77t31.5 -77t76.5 -31z" />
    <glyph glyph-name="guillemotright" unicode="&#xbb;" horiz-adv-x="454" 
d="M107 30l-67 41l100 158l-100 158l67 41l124 -199zM292 30l-68 41l101 158l-101 158l68 41l124 -199z" />
    <glyph glyph-name="onequarter" unicode="&#xbc;" horiz-adv-x="928" 
d="M214 -19l433 741h67l-433 -741h-67zM166 309v345h-93l28 51h132v-396h-67zM772 0v81h-216l262 323h21v-277h55v-46h-55v-81h-67zM660 127h112v104q0 17 2 39z" />
    <glyph glyph-name="onehalf" unicode="&#xbd;" horiz-adv-x="928" 
d="M214 -19l433 741h67l-433 -741h-67zM166 309v345h-93l28 51h132v-396h-67zM561 0l168 179q61 66 61 105q0 30 -19.5 47t-54.5 17q-31 0 -51 -17t-23 -45h-70q0 54 40.5 86t109.5 32q65 0 102.5 -29.5t37.5 -81.5q0 -43 -26.5 -82t-86.5 -100l-57 -59h171v-52h-302z" />
    <glyph glyph-name="threequarters" unicode="&#xbe;" horiz-adv-x="928" 
d="M214 -19l433 741h67l-433 -741h-67zM175 298q-65 0 -105 32t-41 86h70v-3q0 -28 21 -44.5t58 -16.5q41 0 63 18.5t22 52.5q0 72 -91 72q-2 0 -6.5 -0.5t-7.5 -0.5v53q3 0 7 -0.5t6 -0.5q81 0 81 59q0 26 -18 41t-49 15q-69 0 -72 -54h-66q8 106 139 106q63 0 99 -28.5
t36 -77.5q0 -37 -20.5 -60.5t-57.5 -28.5q88 -14 88 -104q0 -52 -41.5 -84t-114.5 -32zM772 0v81h-216l262 323h21v-277h55v-46h-55v-81h-67zM660 127h112v104q0 17 2 39z" />
    <glyph glyph-name="questiondown" unicode="&#xbf;" horiz-adv-x="544" 
d="M283 604q-27 0 -45.5 18.5t-18.5 45.5q0 26 18.5 44.5t45.5 18.5t45.5 -18.5t18.5 -44.5t-19 -45t-45 -19zM269 -19q-80 0 -127.5 46t-47.5 122q0 62 32 97t106 71l46.5 23.5t30 19t25 25.5t5.5 28q0 24 -19 42.5t-46 18.5q-67 0 -69 -76h-87v10q0 72 40.5 111.5
t115.5 39.5q70 0 114.5 -41t44.5 -103q0 -64 -35.5 -101t-116.5 -76q-51 -24 -72.5 -42.5t-21.5 -50.5t23 -53.5t59 -21.5q40 0 62.5 26t22.5 72h84q0 -3 0.5 -9t0.5 -9q0 -78 -46 -123.5t-124 -45.5z" />
    <glyph glyph-name="Agrave" unicode="&#xc0;" horiz-adv-x="662" 
d="M340 785l-159 170h110l109 -170h-60zM-15 0l346 743l346 -743h-123l-81 184h-283l-83 -184h-122zM233 281h199l-73 163q-13 31 -27 81q-12 -47 -26 -81z" />
    <glyph glyph-name="Aacute" unicode="&#xc1;" horiz-adv-x="662" 
d="M263 785l109 170h110l-159 -170h-60zM-15 0l346 743l346 -743h-123l-81 184h-283l-83 -184h-122zM233 281h199l-73 163q-13 31 -27 81q-12 -47 -26 -81z" />
    <glyph glyph-name="Acircumflex" unicode="&#xc2;" horiz-adv-x="662" 
d="M185 785l95 171h102l95 -171h-61l-85 115l-85 -115h-61zM-15 0l346 743l346 -743h-123l-81 184h-283l-83 -184h-122zM233 281h199l-73 163q-13 31 -27 81q-12 -47 -26 -81z" />
    <glyph glyph-name="Atilde" unicode="&#xc3;" horiz-adv-x="662" 
d="M188 805q22 102 92 102q15 0 30 -4l57 -15q8 -2 23 -2q31 0 40 33h44q-9 -49 -34 -75.5t-61 -26.5q-13 0 -26 3l-61 16q-12 2 -18 2q-32 0 -42 -33h-44zM-15 0l346 743l346 -743h-123l-81 184h-283l-83 -184h-122zM233 281h199l-73 163q-13 31 -27 81q-12 -47 -26 -81z
" />
    <glyph glyph-name="Adieresis" unicode="&#xc4;" horiz-adv-x="662" 
d="M242 805q-25 0 -42 17.5t-17 42.5q0 23 17.5 40.5t41.5 17.5t41 -17t17 -41q0 -26 -16.5 -43t-41.5 -17zM420 805q-25 0 -42 17.5t-17 42.5q0 23 17.5 40.5t41.5 17.5t41 -17t17 -41q0 -26 -16.5 -43t-41.5 -17zM-15 0l346 743l346 -743h-123l-81 184h-283l-83 -184h-122
zM233 281h199l-73 163q-13 31 -27 81q-12 -47 -26 -81z" />
    <glyph glyph-name="Aring" unicode="&#xc5;" horiz-adv-x="662" 
d="M331 732q-49 0 -82 33t-33 82t33.5 82.5t81.5 33.5t82 -34t34 -82t-33.5 -81.5t-82.5 -33.5zM332 792q23 0 39.5 16t16.5 39t-16.5 39.5t-39.5 16.5t-39.5 -16.5t-16.5 -39.5t16.5 -39t39.5 -16zM-15 0l334 715h25l333 -715h-123l-81 184h-283l-83 -184h-122zM233 281
h199l-73 163q-13 31 -27 81q-12 -47 -26 -81z" />
    <glyph glyph-name="AE" unicode="&#xc6;" horiz-adv-x="911" 
d="M-15 0l334 715h330l41 -99h-262l63 -175h240l38 -102h-239l87 -235h263l39 -104h-377l-68 184h-284l-83 -184h-122zM233 281h206l-60 163q-24 64 -35 119q-10 -52 -36 -109z" />
    <glyph glyph-name="Ccedilla" unicode="&#xc7;" horiz-adv-x="718" 
d="M436 625q-117 0 -190.5 -75t-73.5 -195q0 -117 72 -191.5t180 -74.5q126 0 231 90v-131q-94 -67 -222 -67v-33h8q109 0 109 -85q0 -40 -30 -62t-86 -22q-49 0 -126 19v52q76 -18 118 -18q50 0 50 33q0 36 -65 36q-3 0 -10 -0.5t-10 -0.5v83q-139 12 -232 104
q-108 106 -108 269q0 162 109 269t271 107q125 0 231 -74l-6 -117q-99 84 -220 84z" />
    <glyph glyph-name="Egrave" unicode="&#xc8;" horiz-adv-x="532" 
d="M292 785l-159 170h110l109 -170h-60zM82 0v715h399v-99h-283v-179h283v-102h-283v-231h283v-104h-399z" />
    <glyph glyph-name="Eacute" unicode="&#xc9;" horiz-adv-x="532" 
d="M215 785l109 170h110l-159 -170h-60zM82 0v715h399v-99h-283v-179h283v-102h-283v-231h283v-104h-399z" />
    <glyph glyph-name="Ecircumflex" unicode="&#xca;" horiz-adv-x="532" 
d="M137 785l95 171h102l95 -171h-61l-85 115l-85 -115h-61zM82 0v715h399v-99h-283v-179h283v-102h-283v-231h283v-104h-399z" />
    <glyph glyph-name="Edieresis" unicode="&#xcb;" horiz-adv-x="532" 
d="M194 805q-25 0 -42 17.5t-17 42.5q0 23 17.5 40.5t41.5 17.5t41 -17t17 -41q0 -26 -16.5 -43t-41.5 -17zM372 805q-25 0 -42 17.5t-17 42.5q0 23 17.5 40.5t41.5 17.5t41 -17t17 -41q0 -26 -16.5 -43t-41.5 -17zM82 0v715h399v-99h-283v-179h283v-102h-283v-231h283v-104
h-399z" />
    <glyph glyph-name="Igrave" unicode="&#xcc;" horiz-adv-x="285" 
d="M152 785l-159 170h110l109 -170h-60zM84 0v715h116v-715h-116z" />
    <glyph glyph-name="Iacute" unicode="&#xcd;" horiz-adv-x="285" 
d="M75 785l109 170h110l-159 -170h-60zM84 0v715h116v-715h-116z" />
    <glyph glyph-name="Icircumflex" unicode="&#xce;" horiz-adv-x="285" 
d="M-3 785l95 171h102l95 -171h-61l-85 115l-85 -115h-61zM84 0v715h116v-715h-116z" />
    <glyph glyph-name="Idieresis" unicode="&#xcf;" horiz-adv-x="285" 
d="M54 805q-25 0 -42 17.5t-17 42.5q0 23 17.5 40.5t41.5 17.5t41 -17t17 -41q0 -26 -16.5 -43t-41.5 -17zM232 805q-25 0 -42 17.5t-17 42.5q0 23 17.5 40.5t41.5 17.5t41 -17t17 -41q0 -26 -16.5 -43t-41.5 -17zM84 0v715h116v-715h-116z" />
    <glyph glyph-name="Eth" unicode="&#xd0;" horiz-adv-x="747" 
d="M89 0v353h-89v90h89v272h157q86 0 128.5 -2.5t98.5 -17.5t97 -47q126 -97 126 -291q0 -193 -126 -290q-56 -43 -121.5 -55t-171.5 -12h-188zM205 105h98q70 0 113 8.5t78 38.5q81 69 81 206t-81 206q-36 30 -82 38.5t-123 8.5h-84v-168h189v-90h-189v-248z" />
    <glyph glyph-name="Ntilde" unicode="&#xd1;" horiz-adv-x="803" 
d="M259 805q22 102 92 102q15 0 30 -4l57 -15q8 -2 23 -2q31 0 40 33h44q-9 -49 -34 -75.5t-61 -26.5q-12 0 -26 3l-61 16q-12 2 -18 2q-32 0 -42 -33h-44zM721 -28l-463 445q-38 36 -69 80v-497h-107v743l454 -437q37 -36 78 -87v496h107v-743z" />
    <glyph glyph-name="Ograve" unicode="&#xd2;" horiz-adv-x="866" 
d="M442 785l-159 170h110l109 -170h-60zM433 -19q-159 0 -271 110q-111 108 -111 265t111 266q112 109 271 109q158 0 270 -109q112 -110 112 -266t-112 -265q-113 -110 -270 -110zM433 89q108 0 184 78q77 79 77 189q0 111 -77 190q-75 78 -184 78t-185 -78t-76 -190
q0 -111 76 -189t185 -78z" />
    <glyph glyph-name="Oacute" unicode="&#xd3;" horiz-adv-x="866" 
d="M365 785l109 170h110l-159 -170h-60zM433 -19q-159 0 -271 110q-111 108 -111 265t111 266q112 109 271 109q158 0 270 -109q112 -110 112 -266t-112 -265q-113 -110 -270 -110zM433 89q108 0 184 78q77 79 77 189q0 111 -77 190q-75 78 -184 78t-185 -78t-76 -190
q0 -111 76 -189t185 -78z" />
    <glyph glyph-name="Ocircumflex" unicode="&#xd4;" horiz-adv-x="866" 
d="M287 785l95 171h102l95 -171h-61l-85 115l-85 -115h-61zM433 -19q-159 0 -271 110q-111 108 -111 265t111 266q112 109 271 109q158 0 270 -109q112 -110 112 -266t-112 -265q-113 -110 -270 -110zM433 89q108 0 184 78q77 79 77 189q0 111 -77 190q-75 78 -184 78
t-185 -78t-76 -190q0 -111 76 -189t185 -78z" />
    <glyph glyph-name="Otilde" unicode="&#xd5;" horiz-adv-x="866" 
d="M290 805q22 102 92 102q15 0 30 -4l57 -15q8 -2 23 -2q31 0 40 33h44q-9 -49 -34 -75.5t-61 -26.5q-13 0 -26 3l-61 16q-12 2 -18 2q-32 0 -42 -33h-44zM433 -19q-159 0 -271 110q-111 108 -111 265t111 266q112 109 271 109q158 0 270 -109q112 -110 112 -266t-112 -265
q-113 -110 -270 -110zM433 89q108 0 184 78q77 79 77 189q0 111 -77 190q-75 78 -184 78t-185 -78t-76 -190q0 -111 76 -189t185 -78z" />
    <glyph glyph-name="Odieresis" unicode="&#xd6;" horiz-adv-x="866" 
d="M344 805q-25 0 -42 17.5t-17 42.5q0 23 17.5 40.5t41.5 17.5t41 -17t17 -41q0 -26 -16.5 -43t-41.5 -17zM522 805q-25 0 -42 17.5t-17 42.5q0 23 17.5 40.5t41.5 17.5t41 -17t17 -41q0 -26 -16.5 -43t-41.5 -17zM433 -19q-159 0 -271 110q-111 108 -111 265t111 266
q112 109 271 109q158 0 270 -109q112 -110 112 -266t-112 -265q-113 -110 -270 -110zM433 89q108 0 184 78q77 79 77 189q0 111 -77 190q-75 78 -184 78t-185 -78t-76 -190q0 -111 76 -189t185 -78z" />
    <glyph glyph-name="multiply" unicode="&#xd7;" horiz-adv-x="833" 
d="M197 16l-57 58l224 224l-224 225l57 57l224 -224l225 224l57 -57l-224 -225l224 -224l-57 -58l-225 225z" />
    <glyph glyph-name="Oslash" unicode="&#xd8;" horiz-adv-x="866" 
d="M114 -36l-61 53l90 96q-92 104 -92 244q0 157 111 265q112 110 271 110q112 0 222 -71l84 90l63 -51l-86 -92q99 -109 99 -251q0 -156 -112 -265t-270 -109q-127 0 -231 76zM223 199l355 380q-65 46 -145 46q-110 0 -185 -78q-76 -78 -76 -190q0 -90 51 -158zM426 90
q116 0 192 78t76 189q0 94 -58 167l-357 -383q65 -51 147 -51z" />
    <glyph glyph-name="Ugrave" unicode="&#xd9;" horiz-adv-x="744" 
d="M381 785l-159 170h110l109 -170h-60zM372 -19q-293 0 -293 289v445h115v-434q0 -194 178 -194t178 194v434h116v-445q0 -289 -294 -289z" />
    <glyph glyph-name="Uacute" unicode="&#xda;" horiz-adv-x="744" 
d="M304 785l109 170h110l-159 -170h-60zM372 -19q-293 0 -293 289v445h115v-434q0 -194 178 -194t178 194v434h116v-445q0 -289 -294 -289z" />
    <glyph glyph-name="Ucircumflex" unicode="&#xdb;" horiz-adv-x="744" 
d="M226 785l95 171h102l95 -171h-61l-85 115l-85 -115h-61zM372 -19q-293 0 -293 289v445h115v-434q0 -194 178 -194t178 194v434h116v-445q0 -289 -294 -289z" />
    <glyph glyph-name="Udieresis" unicode="&#xdc;" horiz-adv-x="744" 
d="M283 805q-25 0 -42 17.5t-17 42.5q0 23 17.5 40.5t41.5 17.5t41 -17t17 -41q0 -26 -16.5 -43t-41.5 -17zM461 805q-25 0 -42 17.5t-17 42.5q0 23 17.5 40.5t41.5 17.5t41 -17t17 -41q0 -26 -16.5 -43t-41.5 -17zM372 -19q-293 0 -293 289v445h115v-434q0 -194 178 -194
t178 194v434h116v-445q0 -289 -294 -289z" />
    <glyph glyph-name="Yacute" unicode="&#xdd;" horiz-adv-x="593" 
d="M229 785l109 170h110l-159 -170h-60zM236 0v327l-241 388h122l150 -243q12 -21 30 -57q13 35 30 60l154 240h116l-246 -388v-327h-115z" />
    <glyph glyph-name="Thorn" unicode="&#xde;" horiz-adv-x="532" 
d="M82 0v715h109v-147h56q49 0 75 -1.5t58.5 -10t56.5 -25.5q33 -24 52.5 -66.5t19.5 -93.5t-19.5 -94t-52.5 -67q-33 -23 -73 -29.5t-106 -6.5h-67v-174h-109zM191 269h37q88 0 124.5 18t36.5 77q0 61 -37.5 82.5t-123.5 21.5h-37v-199z" />
    <glyph glyph-name="germandbls" unicode="&#xdf;" horiz-adv-x="602" 
d="M334 -19q-50 0 -84 19v94q30 -15 66 -15q65 0 99.5 36.5t34.5 103.5q0 141 -166 141h-17v98q3 0 8.5 -0.5t7.5 -0.5q52 0 80.5 27t28.5 76q0 55 -26 84t-74 29q-66 0 -86 -39.5t-20 -134.5v-499h-106v363h-57v100h57v114q0 83 59.5 136.5t156.5 53.5q95 0 151 -52
t56 -137q0 -123 -135 -163q93 -4 143 -58t50 -147q0 -109 -58.5 -169t-168.5 -60z" />
    <glyph glyph-name="agrave" unicode="&#xe0;" horiz-adv-x="582" 
d="M305 533l-159 170h110l109 -170h-60zM250 -19q-97 0 -154 66.5t-57 184.5q0 111 58 179t150 68q117 0 156 -92v76h106v-463h-106v60q-57 -79 -153 -79zM277 75q56 0 92.5 43t36.5 115t-33.5 112t-93.5 40t-94.5 -41.5t-34.5 -114.5q0 -74 33.5 -114t93.5 -40z" />
    <glyph glyph-name="aacute" unicode="&#xe1;" horiz-adv-x="582" 
d="M227 533l109 170h110l-159 -170h-60zM250 -19q-97 0 -154 66.5t-57 184.5q0 111 58 179t150 68q117 0 156 -92v76h106v-463h-106v60q-57 -79 -153 -79zM277 75q56 0 92.5 43t36.5 115t-33.5 112t-93.5 40t-94.5 -41.5t-34.5 -114.5q0 -74 33.5 -114t93.5 -40z" />
    <glyph glyph-name="acircumflex" unicode="&#xe2;" horiz-adv-x="582" 
d="M150 533l95 171h102l95 -171h-61l-85 115l-85 -115h-61zM250 -19q-97 0 -154 66.5t-57 184.5q0 111 58 179t150 68q117 0 156 -92v76h106v-463h-106v60q-57 -79 -153 -79zM277 75q56 0 92.5 43t36.5 115t-33.5 112t-93.5 40t-94.5 -41.5t-34.5 -114.5q0 -74 33.5 -114
t93.5 -40z" />
    <glyph glyph-name="atilde" unicode="&#xe3;" horiz-adv-x="582" 
d="M153 553q22 102 92 102q15 0 30 -4l57 -15q8 -2 23 -2q31 0 40 33h44q-9 -49 -34 -75.5t-61 -26.5q-12 0 -26 3l-61 16q-12 2 -18 2q-32 0 -42 -33h-44zM250 -19q-97 0 -154 66.5t-57 184.5q0 111 58 179t150 68q117 0 156 -92v76h106v-463h-106v60q-57 -79 -153 -79z
M277 75q56 0 92.5 43t36.5 115t-33.5 112t-93.5 40t-94.5 -41.5t-34.5 -114.5q0 -74 33.5 -114t93.5 -40z" />
    <glyph glyph-name="adieresis" unicode="&#xe4;" horiz-adv-x="582" 
d="M207 553q-25 0 -42 17.5t-17 42.5q0 23 17.5 40.5t41.5 17.5t41 -17t17 -41q0 -26 -16.5 -43t-41.5 -17zM385 553q-25 0 -42 17.5t-17 42.5q0 23 17.5 40.5t41.5 17.5t41 -17t17 -41q0 -26 -16.5 -43t-41.5 -17zM250 -19q-97 0 -154 66.5t-57 184.5q0 111 58 179t150 68
q117 0 156 -92v76h106v-463h-106v60q-57 -79 -153 -79zM277 75q56 0 92.5 43t36.5 115t-33.5 112t-93.5 40t-94.5 -41.5t-34.5 -114.5q0 -74 33.5 -114t93.5 -40z" />
    <glyph glyph-name="aring" unicode="&#xe5;" horiz-adv-x="582" 
d="M277 512q-49 0 -82.5 33t-33.5 82t34 82.5t82 33.5t82 -34t34 -82t-33.5 -81.5t-82.5 -33.5zM277 572q23 0 39.5 16t16.5 39t-16.5 39.5t-39.5 16.5t-39 -16.5t-16 -39.5t16 -39t39 -16zM250 -19q-97 0 -154 66.5t-57 184.5q0 111 58 179t150 68q117 0 156 -92v76h106
v-463h-106v60q-57 -79 -153 -79zM277 75q56 0 92.5 43t36.5 115t-33.5 112t-93.5 40t-94.5 -41.5t-34.5 -114.5q0 -74 33.5 -114t93.5 -40z" />
    <glyph glyph-name="ae" unicode="&#xe6;" horiz-adv-x="862" 
d="M219 -19q-85 0 -135 45t-50 117q0 70 50 112t131 42q82 0 139 -34q1 6 1 18q0 108 -135 108q-71 0 -145 -47v99q68 39 149 39q68 0 112 -18.5t75 -63.5q60 82 173 82q112 0 174.5 -64.5t62.5 -181.5v-18h-370q4 -65 38.5 -102.5t92.5 -37.5q96 0 145 93l89 -50
q-77 -138 -232 -138q-114 0 -173 76q-68 -76 -192 -76zM458 287h253q-12 102 -124 102q-104 0 -129 -102zM242 76q56 0 86.5 19t30.5 51q0 31 -28.5 50.5t-78.5 19.5q-51 0 -79.5 -19t-28.5 -52q0 -32 26 -50.5t72 -18.5z" />
    <glyph glyph-name="ccedilla" unicode="&#xe7;" horiz-adv-x="454" 
d="M292 386q-65 0 -104 -41.5t-39 -111.5q0 -73 39.5 -114t108.5 -41q76 0 122 58v-122q-59 -33 -134 -33h-5v-33h8q109 0 109 -85q0 -40 -30 -62t-86 -22q-49 0 -126 19v52q77 -18 118 -18q50 0 50 33q0 36 -65 36q-4 0 -10 -0.5t-10 -0.5v85q-90 14 -144.5 80.5
t-54.5 164.5q0 112 71 180.5t186 68.5q71 0 123 -29v-119q-50 55 -127 55z" />
    <glyph glyph-name="egrave" unicode="&#xe8;" horiz-adv-x="556" 
d="M291 533l-159 170h110l109 -170h-60zM282 -19q-111 0 -177 68t-66 181q0 109 68 179t175 70q112 0 174.5 -64t62.5 -179v-20h-370q4 -65 38.5 -101.5t92.5 -36.5q51 0 85 21.5t60 69.5l89 -50q-77 -138 -232 -138zM156 287h253q-12 102 -125 102q-103 0 -128 -102z" />
    <glyph glyph-name="eacute" unicode="&#xe9;" horiz-adv-x="556" 
d="M213 533l109 170h110l-159 -170h-60zM282 -19q-111 0 -177 68t-66 181q0 109 68 179t175 70q112 0 174.5 -64t62.5 -179v-20h-370q4 -65 38.5 -101.5t92.5 -36.5q51 0 85 21.5t60 69.5l89 -50q-77 -138 -232 -138zM156 287h253q-12 102 -125 102q-103 0 -128 -102z" />
    <glyph glyph-name="ecircumflex" unicode="&#xea;" horiz-adv-x="556" 
d="M136 533l95 171h102l95 -171h-61l-85 115l-85 -115h-61zM282 -19q-111 0 -177 68t-66 181q0 109 68 179t175 70q112 0 174.5 -64t62.5 -179v-20h-370q4 -65 38.5 -101.5t92.5 -36.5q51 0 85 21.5t60 69.5l89 -50q-77 -138 -232 -138zM156 287h253q-12 102 -125 102
q-103 0 -128 -102z" />
    <glyph glyph-name="edieresis" unicode="&#xeb;" horiz-adv-x="556" 
d="M193 553q-25 0 -42 17.5t-17 42.5q0 23 17.5 40.5t41.5 17.5t41 -17t17 -41q0 -26 -16.5 -43t-41.5 -17zM371 553q-25 0 -42 17.5t-17 42.5q0 23 17.5 40.5t41.5 17.5t41 -17t17 -41q0 -26 -16.5 -43t-41.5 -17zM282 -19q-111 0 -177 68t-66 181q0 109 68 179t175 70
q112 0 174.5 -64t62.5 -179v-20h-370q4 -65 38.5 -101.5t92.5 -36.5q51 0 85 21.5t60 69.5l89 -50q-77 -138 -232 -138zM156 287h253q-12 102 -125 102q-103 0 -128 -102z" />
    <glyph glyph-name="igrave" unicode="&#xec;" horiz-adv-x="262" 
d="M140 533l-159 170h110l109 -170h-60zM78 0v463h106v-463h-106z" />
    <glyph glyph-name="iacute" unicode="&#xed;" horiz-adv-x="262" 
d="M62 533l109 170h110l-159 -170h-60zM78 0v463h106v-463h-106z" />
    <glyph glyph-name="icircumflex" unicode="&#xee;" horiz-adv-x="262" 
d="M-15 533l95 171h102l95 -171h-61l-85 115l-85 -115h-61zM78 0v463h106v-463h-106z" />
    <glyph glyph-name="idieresis" unicode="&#xef;" horiz-adv-x="262" 
d="M42 553q-25 0 -42 17.5t-17 42.5q0 23 17.5 40.5t41.5 17.5t41 -17t17 -41q0 -26 -16.5 -43t-41.5 -17zM220 553q-25 0 -42 17.5t-17 42.5q0 23 17.5 40.5t41.5 17.5t41 -17t17 -41q0 -26 -16.5 -43t-41.5 -17zM78 0v463h106v-463h-106z" />
    <glyph glyph-name="eth" unicode="&#xf0;" horiz-adv-x="588" 
d="M293 -19q-104 0 -180 70q-74 68 -74 168q0 97 75 166q69 65 173 65q74 0 135 -53q-49 106 -121 162l-142 -66l-29 57l117 54q-38 30 -115 72l53 78q109 -65 160 -106l155 70l29 -56l-131 -60q151 -146 151 -343q0 -129 -69.5 -203.5t-186.5 -74.5zM294 76q59 0 101 41
t42 99q0 59 -41.5 99.5t-101.5 40.5q-61 0 -102 -40.5t-41 -99.5q0 -58 41.5 -99t101.5 -41z" />
    <glyph glyph-name="ntilde" unicode="&#xf1;" horiz-adv-x="588" 
d="M155 553q22 102 92 102q15 0 30 -4l57 -15q8 -2 23 -2q31 0 40 33h44q-9 -49 -34 -75.5t-61 -26.5q-12 0 -26 3l-61 16q-12 2 -18 2q-32 0 -42 -33h-44zM73 0v463h100v-76q61 92 179 92q104 0 145 -65q11 -17 16 -39.5t6 -40t1 -53.5v-281h-107v238q0 84 -19.5 117.5
t-81.5 33.5q-77 0 -112 -52q-21 -31 -21 -126v-211h-106z" />
    <glyph glyph-name="ograve" unicode="&#xf2;" horiz-adv-x="588" 
d="M303 533l-159 170h110l109 -170h-60zM293 -19q-104 0 -179 73t-75 177t75 176q74 72 179 72q106 0 181 -73t75 -175q0 -105 -74 -176q-77 -74 -182 -74zM294 76q59 0 101 44.5t42 109.5t-41.5 109.5t-101.5 44.5t-101.5 -44.5t-41.5 -109.5t41.5 -109.5t101.5 -44.5z" />
    <glyph glyph-name="oacute" unicode="&#xf3;" horiz-adv-x="588" 
d="M225 533l109 170h110l-159 -170h-60zM293 -19q-104 0 -179 73t-75 177t75 176q74 72 179 72q106 0 181 -73t75 -175q0 -105 -74 -176q-77 -74 -182 -74zM294 76q59 0 101 44.5t42 109.5t-41.5 109.5t-101.5 44.5t-101.5 -44.5t-41.5 -109.5t41.5 -109.5t101.5 -44.5z" />
    <glyph glyph-name="ocircumflex" unicode="&#xf4;" horiz-adv-x="588" 
d="M148 533l95 171h102l95 -171h-61l-85 115l-85 -115h-61zM293 -19q-104 0 -179 73t-75 177t75 176q74 72 179 72q106 0 181 -73t75 -175q0 -105 -74 -176q-77 -74 -182 -74zM294 76q59 0 101 44.5t42 109.5t-41.5 109.5t-101.5 44.5t-101.5 -44.5t-41.5 -109.5
t41.5 -109.5t101.5 -44.5z" />
    <glyph glyph-name="otilde" unicode="&#xf5;" horiz-adv-x="588" 
d="M151 553q22 102 92 102q15 0 30 -4l57 -15q8 -2 23 -2q31 0 40 33h44q-9 -49 -34 -75.5t-61 -26.5q-12 0 -26 3l-61 16q-12 2 -18 2q-32 0 -42 -33h-44zM293 -19q-104 0 -179 73t-75 177t75 176q74 72 179 72q106 0 181 -73t75 -175q0 -105 -74 -176q-77 -74 -182 -74z
M294 76q59 0 101 44.5t42 109.5t-41.5 109.5t-101.5 44.5t-101.5 -44.5t-41.5 -109.5t41.5 -109.5t101.5 -44.5z" />
    <glyph glyph-name="odieresis" unicode="&#xf6;" horiz-adv-x="588" 
d="M205 553q-25 0 -42 17.5t-17 42.5q0 23 17.5 40.5t41.5 17.5t41 -17t17 -41q0 -26 -16.5 -43t-41.5 -17zM383 553q-25 0 -42 17.5t-17 42.5q0 23 17.5 40.5t41.5 17.5t41 -17t17 -41q0 -26 -16.5 -43t-41.5 -17zM293 -19q-104 0 -179 73t-75 177t75 176q74 72 179 72
q106 0 181 -73t75 -175q0 -105 -74 -176q-77 -74 -182 -74zM294 76q59 0 101 44.5t42 109.5t-41.5 109.5t-101.5 44.5t-101.5 -44.5t-41.5 -109.5t41.5 -109.5t101.5 -44.5z" />
    <glyph glyph-name="divide" unicode="&#xf7;" horiz-adv-x="833" 
d="M417 417q-28 0 -47.5 19t-19.5 47t20 48t47 20q28 0 47.5 -20t19.5 -48q0 -27 -19.5 -46.5t-47.5 -19.5zM124 258v81h585v-81h-585zM417 46q-28 0 -47.5 19t-19.5 47t20 47.5t47 19.5q28 0 47.5 -19.5t19.5 -47.5q0 -27 -19.5 -46.5t-47.5 -19.5z" />
    <glyph glyph-name="oslash" unicode="&#xf8;" horiz-adv-x="588" 
d="M73 -26l-39 40l61 62q-55 71 -55 153q0 109 73 180t184 71q92 0 155 -55l61 62l41 -39l-62 -63q56 -72 56 -154q0 -107 -74 -178.5t-184 -71.5q-91 0 -153 54zM171 149l209 204q-35 31 -81 31q-65 0 -107.5 -44t-42.5 -108q0 -40 22 -83zM290 78q64 0 105.5 42t41.5 107
q0 42 -22 83l-208 -204q37 -28 83 -28z" />
    <glyph glyph-name="ugrave" unicode="&#xf9;" horiz-adv-x="588" 
d="M303 533l-159 170h110l109 -170h-60zM295 -19q-120 0 -172.5 60.5t-52.5 192.5v229h106v-261q0 -66 27 -96t91 -30t91 30t27 96v261h106v-229q0 -131 -52.5 -192t-170.5 -61z" />
    <glyph glyph-name="uacute" unicode="&#xfa;" horiz-adv-x="588" 
d="M225 533l109 170h110l-159 -170h-60zM295 -19q-120 0 -172.5 60.5t-52.5 192.5v229h106v-261q0 -66 27 -96t91 -30t91 30t27 96v261h106v-229q0 -131 -52.5 -192t-170.5 -61z" />
    <glyph glyph-name="ucircumflex" unicode="&#xfb;" horiz-adv-x="588" 
d="M148 533l95 171h102l95 -171h-61l-85 115l-85 -115h-61zM295 -19q-120 0 -172.5 60.5t-52.5 192.5v229h106v-261q0 -66 27 -96t91 -30t91 30t27 96v261h106v-229q0 -131 -52.5 -192t-170.5 -61z" />
    <glyph glyph-name="udieresis" unicode="&#xfc;" horiz-adv-x="588" 
d="M205 553q-25 0 -42 17.5t-17 42.5q0 23 17.5 40.5t41.5 17.5t41 -17t17 -41q0 -26 -16.5 -43t-41.5 -17zM383 553q-25 0 -42 17.5t-17 42.5q0 23 17.5 40.5t41.5 17.5t41 -17t17 -41q0 -26 -16.5 -43t-41.5 -17zM295 -19q-120 0 -172.5 60.5t-52.5 192.5v229h106v-261
q0 -66 27 -96t91 -30t91 30t27 96v261h106v-229q0 -131 -52.5 -192t-170.5 -61z" />
    <glyph glyph-name="yacute" unicode="&#xfd;" horiz-adv-x="471" 
d="M167 533l109 170h110l-159 -170h-60zM44 -218l127 258l-170 423h117l85 -240q15 -44 22 -91q6 25 33 84l114 247h115l-334 -681h-109z" />
    <glyph glyph-name="thorn" unicode="&#xfe;" horiz-adv-x="582" 
d="M73 -218v975h106v-370q39 92 157 92q92 0 149.5 -68t57.5 -179q0 -118 -57 -184.5t-154 -66.5q-96 0 -153 79v-278h-106zM306 75q60 0 93 40t33 114q0 73 -34.5 114.5t-94.5 41.5t-93.5 -40t-33.5 -112q0 -73 36.5 -115.5t93.5 -42.5z" />
    <glyph glyph-name="ydieresis" unicode="&#xff;" horiz-adv-x="471" 
d="M147 553q-25 0 -42 17.5t-17 42.5q0 23 17.5 40.5t41.5 17.5t41 -17t17 -41q0 -26 -16.5 -43t-41.5 -17zM325 553q-25 0 -42 17.5t-17 42.5q0 23 17.5 40.5t41.5 17.5t41 -17t17 -41q0 -26 -16.5 -43t-41.5 -17zM44 -218l127 258l-170 423h117l85 -240q15 -44 22 -91
q6 25 33 84l114 247h115l-334 -681h-109z" />
    <glyph glyph-name="Amacron" unicode="&#x100;" horiz-adv-x="662" 
d="M202 829v69h257v-69h-257zM-15 0l346 743l346 -743h-123l-81 184h-283l-83 -184h-122zM233 281h199l-73 163q-13 31 -27 81q-12 -47 -26 -81z" />
    <glyph glyph-name="amacron" unicode="&#x101;" horiz-adv-x="582" 
d="M167 577v69h257v-69h-257zM250 -19q-97 0 -154 66.5t-57 184.5q0 111 58 179t150 68q117 0 156 -92v76h106v-463h-106v60q-57 -79 -153 -79zM277 75q56 0 92.5 43t36.5 115t-33.5 112t-93.5 40t-94.5 -41.5t-34.5 -114.5q0 -74 33.5 -114t93.5 -40z" />
    <glyph glyph-name="Abreve" unicode="&#x102;" horiz-adv-x="662" 
d="M332 799q-68 0 -103.5 31t-42.5 98h59q9 -61 87 -61q77 0 86 61h58q-8 -67 -42 -98t-102 -31zM-15 0l346 743l346 -743h-123l-81 184h-283l-83 -184h-122zM233 281h199l-73 163q-13 31 -27 81q-12 -47 -26 -81z" />
    <glyph glyph-name="abreve" unicode="&#x103;" horiz-adv-x="582" 
d="M297 547q-68 0 -103.5 31t-42.5 98h59q9 -61 87 -61q77 0 86 61h58q-8 -67 -42 -98t-102 -31zM250 -19q-97 0 -154 66.5t-57 184.5q0 111 58 179t150 68q117 0 156 -92v76h106v-463h-106v60q-57 -79 -153 -79zM277 75q56 0 92.5 43t36.5 115t-33.5 112t-93.5 40
t-94.5 -41.5t-34.5 -114.5q0 -74 33.5 -114t93.5 -40z" />
    <glyph glyph-name="Aogonek" unicode="&#x104;" horiz-adv-x="662" 
d="M587 -101q0 -40 45 -40q19 0 43 8v-74q-33 -11 -66 -11q-43 0 -71.5 20t-28.5 63q0 66 83 135h-38l-81 184h-283l-83 -184h-122l346 743l346 -743h-29q-61 -57 -61 -101zM233 281h199l-73 163q-13 31 -27 81q-12 -47 -26 -81z" />
    <glyph glyph-name="aogonek" unicode="&#x105;" horiz-adv-x="582" 
d="M469 -141q19 0 43 8v-74q-33 -11 -66 -11q-43 0 -71.5 20t-28.5 63q0 66 83 135h-26v60q-57 -79 -153 -79q-97 0 -154 66.5t-57 184.5q0 111 58 179t150 68q117 0 156 -92v76h106v-463h-24q-61 -57 -61 -101q0 -40 45 -40zM277 75q56 0 92.5 43t36.5 115t-33.5 112
t-93.5 40t-94.5 -41.5t-34.5 -114.5q0 -74 33.5 -114t93.5 -40z" />
    <glyph glyph-name="Cacute" unicode="&#x106;" horiz-adv-x="718" 
d="M342 785l109 170h110l-159 -170h-60zM433 -19q-166 0 -274 106t-108 269q0 162 109 269t271 107q125 0 231 -74l-6 -117q-99 84 -220 84q-117 0 -190.5 -75t-73.5 -195q0 -117 72 -191.5t180 -74.5q126 0 231 90v-131q-94 -67 -222 -67z" />
    <glyph glyph-name="cacute" unicode="&#x107;" horiz-adv-x="454" 
d="M203 533l109 170h110l-159 -170h-60zM285 -19q-109 0 -177.5 69.5t-68.5 179.5q0 112 71 180.5t186 68.5q71 0 123 -29v-119q-50 55 -127 55q-65 0 -104 -41.5t-39 -111.5q0 -73 39.5 -114t108.5 -41q76 0 122 58v-122q-59 -33 -134 -33z" />
    <glyph glyph-name="Ccircumflex" unicode="&#x108;" horiz-adv-x="718" 
d="M264 785l95 171h102l95 -171h-61l-85 115l-85 -115h-61zM433 -19q-166 0 -274 106t-108 269q0 162 109 269t271 107q125 0 231 -74l-6 -117q-99 84 -220 84q-117 0 -190.5 -75t-73.5 -195q0 -117 72 -191.5t180 -74.5q126 0 231 90v-131q-94 -67 -222 -67z" />
    <glyph glyph-name="ccircumflex" unicode="&#x109;" horiz-adv-x="454" 
d="M126 533l95 171h102l95 -171h-61l-85 115l-85 -115h-61zM285 -19q-109 0 -177.5 69.5t-68.5 179.5q0 112 71 180.5t186 68.5q71 0 123 -29v-119q-50 55 -127 55q-65 0 -104 -41.5t-39 -111.5q0 -73 39.5 -114t108.5 -41q76 0 122 58v-122q-59 -33 -134 -33z" />
    <glyph glyph-name="Cdotaccent" unicode="&#x10a;" horiz-adv-x="718" 
d="M410 803q-26 0 -44 18t-18 44q0 25 18.5 43.5t43.5 18.5q26 0 44 -18.5t18 -43.5q0 -27 -17.5 -44.5t-44.5 -17.5zM433 -19q-166 0 -274 106t-108 269q0 162 109 269t271 107q125 0 231 -74l-6 -117q-99 84 -220 84q-117 0 -190.5 -75t-73.5 -195q0 -117 72 -191.5
t180 -74.5q126 0 231 90v-131q-94 -67 -222 -67z" />
    <glyph glyph-name="cdotaccent" unicode="&#x10b;" horiz-adv-x="454" 
d="M272 551q-26 0 -44 18t-18 44q0 25 18.5 43.5t43.5 18.5q26 0 44 -18.5t18 -43.5q0 -27 -17.5 -44.5t-44.5 -17.5zM285 -19q-109 0 -177.5 69.5t-68.5 179.5q0 112 71 180.5t186 68.5q71 0 123 -29v-119q-50 55 -127 55q-65 0 -104 -41.5t-39 -111.5q0 -73 39.5 -114
t108.5 -41q76 0 122 58v-122q-59 -33 -134 -33z" />
    <glyph glyph-name="Ccaron" unicode="&#x10c;" horiz-adv-x="718" 
d="M359 785l-95 171h61l85 -115l85 115h61l-95 -171h-102zM433 -19q-166 0 -274 106t-108 269q0 162 109 269t271 107q125 0 231 -74l-6 -117q-99 84 -220 84q-117 0 -190.5 -75t-73.5 -195q0 -117 72 -191.5t180 -74.5q126 0 231 90v-131q-94 -67 -222 -67z" />
    <glyph glyph-name="ccaron" unicode="&#x10d;" horiz-adv-x="454" 
d="M221 533l-95 171h61l85 -115l85 115h61l-95 -171h-102zM285 -19q-109 0 -177.5 69.5t-68.5 179.5q0 112 71 180.5t186 68.5q71 0 123 -29v-119q-50 55 -127 55q-65 0 -104 -41.5t-39 -111.5q0 -73 39.5 -114t108.5 -41q76 0 122 58v-122q-59 -33 -134 -33z" />
    <glyph glyph-name="Dcaron" unicode="&#x10e;" horiz-adv-x="740" 
d="M299 785l-95 171h61l85 -115l85 115h61l-95 -171h-102zM82 0v715h157q86 0 128.5 -2.5t98.5 -17.5t97 -47q126 -97 126 -291q0 -193 -126 -290q-56 -43 -121.5 -55t-171.5 -12h-188zM198 105h98q70 0 113 8.5t78 38.5q81 69 81 206t-81 206q-36 30 -82 38.5t-123 8.5h-84
v-506z" />
    <glyph glyph-name="dcaron" unicode="&#x10f;" horiz-adv-x="582" 
d="M250 -19q-97 0 -154 66.5t-57 184.5q0 111 58 179t150 68q117 0 156 -92v370h106v-757h-106v60q-57 -79 -153 -79zM595 578l-55 18l59 161l79 -18zM277 75q57 0 93 43t36 115t-33.5 112t-93.5 40t-94.5 -41.5t-34.5 -114.5q0 -74 33.5 -114t93.5 -40z" />
    <glyph glyph-name="Dcroat" unicode="&#x110;" horiz-adv-x="747" 
d="M89 0v353h-89v90h89v272h157q86 0 128.5 -2.5t98.5 -17.5t97 -47q126 -97 126 -291q0 -193 -126 -290q-56 -43 -121.5 -55t-171.5 -12h-188zM205 105h98q70 0 113 8.5t78 38.5q81 69 81 206t-81 206q-36 30 -82 38.5t-123 8.5h-84v-168h189v-90h-189v-248z" />
    <glyph glyph-name="dcroat" unicode="&#x111;" horiz-adv-x="597" 
d="M509 657h81v-83h-81v-574h-106v60q-57 -79 -153 -79q-97 0 -154 66.5t-57 184.5q0 111 58 179t150 68q117 0 156 -92v187h-141v83h141v100h106v-100zM277 75q57 0 93 43t36 115t-33.5 112t-93.5 40t-94.5 -41.5t-34.5 -114.5q0 -74 33.5 -114t93.5 -40z" />
    <glyph glyph-name="Emacron" unicode="&#x112;" horiz-adv-x="532" 
d="M154 829v69h257v-69h-257zM82 0v715h399v-99h-283v-179h283v-102h-283v-231h283v-104h-399z" />
    <glyph glyph-name="emacron" unicode="&#x113;" horiz-adv-x="556" 
d="M153 577v69h257v-69h-257zM282 -19q-111 0 -177 68t-66 181q0 109 68 179t175 70q112 0 174.5 -64t62.5 -179v-20h-370q4 -65 38.5 -101.5t92.5 -36.5q51 0 85 21.5t60 69.5l89 -50q-77 -138 -232 -138zM156 287h253q-12 102 -125 102q-103 0 -128 -102z" />
    <glyph glyph-name="Ebreve" unicode="&#x114;" horiz-adv-x="532" 
d="M284 799q-68 0 -103.5 31t-42.5 98h59q9 -61 87 -61q77 0 86 61h58q-8 -67 -42 -98t-102 -31zM82 0v715h399v-99h-283v-179h283v-102h-283v-231h283v-104h-399z" />
    <glyph glyph-name="ebreve" unicode="&#x115;" horiz-adv-x="556" 
d="M283 547q-68 0 -103.5 31t-42.5 98h59q9 -61 87 -61q77 0 86 61h58q-8 -67 -42 -98t-102 -31zM282 -19q-111 0 -177 68t-66 181q0 109 68 179t175 70q112 0 174.5 -64t62.5 -179v-20h-370q4 -65 38.5 -101.5t92.5 -36.5q51 0 85 21.5t60 69.5l89 -50q-77 -138 -232 -138z
M156 287h253q-12 102 -125 102q-103 0 -128 -102z" />
    <glyph glyph-name="Edotaccent" unicode="&#x116;" horiz-adv-x="532" 
d="M283 803q-26 0 -44 18t-18 44q0 25 18.5 43.5t43.5 18.5t43.5 -18.5t18.5 -43.5q0 -27 -17.5 -44.5t-44.5 -17.5zM82 0v715h399v-99h-283v-179h283v-102h-283v-231h283v-104h-399z" />
    <glyph glyph-name="edotaccent" unicode="&#x117;" horiz-adv-x="556" 
d="M282 551q-26 0 -44 18t-18 44q0 25 18.5 43.5t43.5 18.5q26 0 44 -18.5t18 -43.5q0 -27 -17.5 -44.5t-44.5 -17.5zM282 -19q-111 0 -177 68t-66 181q0 109 68 179t175 70q112 0 174.5 -64t62.5 -179v-20h-370q4 -65 38.5 -101.5t92.5 -36.5q51 0 85 21.5t60 69.5l89 -50
q-77 -138 -232 -138zM156 287h253q-12 102 -125 102q-103 0 -128 -102z" />
    <glyph glyph-name="Eogonek" unicode="&#x118;" horiz-adv-x="532" 
d="M481 616h-283v-179h283v-102h-283v-231h283v-104h-38q-61 -57 -61 -101q0 -40 45 -40q19 0 43 8v-74q-33 -11 -66 -11q-43 0 -71.5 20t-28.5 63q0 66 83 135h-305v715h399v-99z" />
    <glyph glyph-name="eogonek" unicode="&#x119;" horiz-adv-x="556" 
d="M519 236v-20h-370q4 -65 38.5 -101.5t92.5 -36.5q51 0 85 21.5t60 69.5l89 -50q-44 -77 -109 -111q-70 -61 -70 -109q0 -40 45 -40q19 0 43 8v-74q-33 -11 -66 -11q-43 0 -71.5 20t-28.5 63q0 58 64 118q-24 -2 -39 -2q-111 0 -177 68t-66 181q0 109 68 179t175 70
q112 0 174.5 -64t62.5 -179zM156 287h253q-12 102 -125 102q-103 0 -128 -102z" />
    <glyph glyph-name="Ecaron" unicode="&#x11a;" horiz-adv-x="532" 
d="M232 785l-95 171h61l85 -115l85 115h61l-95 -171h-102zM82 0v715h399v-99h-283v-179h283v-102h-283v-231h283v-104h-399z" />
    <glyph glyph-name="ecaron" unicode="&#x11b;" horiz-adv-x="556" 
d="M231 533l-95 171h61l85 -115l85 115h61l-95 -171h-102zM282 -19q-111 0 -177 68t-66 181q0 109 68 179t175 70q112 0 174.5 -64t62.5 -179v-20h-370q4 -65 38.5 -101.5t92.5 -36.5q51 0 85 21.5t60 69.5l89 -50q-77 -138 -232 -138zM156 287h253q-12 102 -125 102
q-103 0 -128 -102z" />
    <glyph glyph-name="Gcircumflex" unicode="&#x11c;" horiz-adv-x="803" 
d="M272 785l95 171h102l95 -171h-61l-85 115l-85 -115h-61zM433 -19q-174 0 -277 104q-105 107 -105 271t109 270q108 105 273 105q167 0 270 -125l-85 -64q-71 83 -183 83q-116 0 -189.5 -74t-73.5 -194q0 -122 73.5 -197t190.5 -75q100 0 157 46.5t57 126.5v10h-172v98
h283q2 -58 2 -67q0 -152 -87 -235t-243 -83z" />
    <glyph glyph-name="gcircumflex" unicode="&#x11d;" horiz-adv-x="582" 
d="M145 533l95 171h102l95 -171h-61l-85 115l-85 -115h-61zM272 -218q-97 0 -153.5 41t-57.5 107h114q5 -61 99 -61q70 0 98.5 31t29.5 99l1 61q-57 -79 -153 -79q-97 0 -154 66.5t-57 184.5q0 111 58 179t150 68q117 0 156 -92v76h106v-434q0 -132 -52.5 -189.5
t-184.5 -57.5zM277 75q56 0 92.5 43t36.5 115t-33.5 112t-93.5 40t-94.5 -41.5t-34.5 -114.5q0 -74 33.5 -114t93.5 -40z" />
    <glyph glyph-name="Gbreve" unicode="&#x11e;" horiz-adv-x="803" 
d="M419 799q-68 0 -103.5 31t-42.5 98h59q9 -61 87 -61q77 0 86 61h58q-8 -67 -42 -98t-102 -31zM433 -19q-174 0 -277 104q-105 107 -105 271t109 270q108 105 273 105q167 0 270 -125l-85 -64q-71 83 -183 83q-116 0 -189.5 -74t-73.5 -194q0 -122 73.5 -197t190.5 -75
q100 0 157 46.5t57 126.5v10h-172v98h283q2 -58 2 -67q0 -152 -87 -235t-243 -83z" />
    <glyph glyph-name="gbreve" unicode="&#x11f;" horiz-adv-x="582" 
d="M292 547q-68 0 -103.5 31t-42.5 98h59q9 -61 87 -61q77 0 86 61h58q-8 -67 -42 -98t-102 -31zM272 -218q-97 0 -153.5 41t-57.5 107h114q5 -61 99 -61q70 0 98.5 31t29.5 99l1 61q-57 -79 -153 -79q-97 0 -154 66.5t-57 184.5q0 111 58 179t150 68q117 0 156 -92v76h106
v-434q0 -132 -52.5 -189.5t-184.5 -57.5zM277 75q56 0 92.5 43t36.5 115t-33.5 112t-93.5 40t-94.5 -41.5t-34.5 -114.5q0 -74 33.5 -114t93.5 -40z" />
    <glyph glyph-name="Gdotaccent" unicode="&#x120;" horiz-adv-x="803" 
d="M418 803q-26 0 -44 18t-18 44q0 25 18.5 43.5t43.5 18.5q26 0 44 -18.5t18 -43.5q0 -27 -17.5 -44.5t-44.5 -17.5zM433 -19q-174 0 -277 104q-105 107 -105 271t109 270q108 105 273 105q167 0 270 -125l-85 -64q-71 83 -183 83q-116 0 -189.5 -74t-73.5 -194
q0 -122 73.5 -197t190.5 -75q100 0 157 46.5t57 126.5v10h-172v98h283q2 -58 2 -67q0 -152 -87 -235t-243 -83z" />
    <glyph glyph-name="gdotaccent" unicode="&#x121;" horiz-adv-x="582" 
d="M291 551q-26 0 -44 18t-18 44q0 25 18.5 43.5t43.5 18.5t43.5 -18.5t18.5 -43.5q0 -27 -17.5 -44.5t-44.5 -17.5zM272 -218q-97 0 -153.5 41t-57.5 107h114q5 -61 99 -61q70 0 98.5 31t29.5 99l1 61q-57 -79 -153 -79q-97 0 -154 66.5t-57 184.5q0 111 58 179t150 68
q117 0 156 -92v76h106v-434q0 -132 -52.5 -189.5t-184.5 -57.5zM277 75q56 0 92.5 43t36.5 115t-33.5 112t-93.5 40t-94.5 -41.5t-34.5 -114.5q0 -74 33.5 -114t93.5 -40z" />
    <glyph glyph-name="Gcommaaccent" unicode="&#x122;" horiz-adv-x="803" 
d="M433 -19q-174 0 -277 104q-105 107 -105 271t109 270q108 105 273 105q167 0 270 -125l-85 -64q-71 83 -183 83q-116 0 -189.5 -74t-73.5 -194q0 -122 73.5 -197t190.5 -75q100 0 157 46.5t57 126.5v10h-172v98h283q2 -58 2 -67q0 -152 -87 -235t-243 -83zM401 -230
l-55 18l59 161l79 -18z" />
    <glyph glyph-name="gcommaaccent" unicode="&#x123;" horiz-adv-x="582" 
d="M295 533l-79 18l83 161l55 -18zM272 -218q-97 0 -153.5 41t-57.5 107h114q5 -61 99 -61q70 0 98.5 31t29.5 99l1 61q-57 -79 -153 -79q-97 0 -154 66.5t-57 184.5q0 111 58 179t150 68q117 0 156 -92v76h106v-434q0 -132 -52.5 -189.5t-184.5 -57.5zM277 75q56 0 92.5 43
t36.5 115t-33.5 112t-93.5 40t-94.5 -41.5t-34.5 -114.5q0 -74 33.5 -114t93.5 -40z" />
    <glyph glyph-name="Hcircumflex" unicode="&#x124;" horiz-adv-x="748" 
d="M228 785l95 171h102l95 -171h-61l-85 115l-85 -115h-61zM82 0v715h116v-264h352v264h116v-715h-116v347h-352v-347h-116z" />
    <glyph glyph-name="hcircumflex" unicode="&#x125;" horiz-adv-x="588" 
d="M-23 827l95 171h102l95 -171h-61l-85 115l-85 -115h-61zM73 0v757h100v-370q61 92 179 92q104 0 145 -65q11 -17 16 -39.5t6 -40t1 -53.5v-281h-107v238q0 84 -19.5 117.5t-81.5 33.5q-77 0 -112 -52q-21 -31 -21 -126v-211h-106z" />
    <glyph glyph-name="Hbar" unicode="&#x126;" horiz-adv-x="748" 
d="M666 624h72v-90h-72v-534h-116v347h-352v-347h-116v534h-72v90h72v91h116v-91h352v91h116v-91zM550 451v83h-352v-83h352z" />
    <glyph glyph-name="hbar" unicode="&#x127;" horiz-adv-x="603" 
d="M512 414q11 -17 16 -39.5t6 -40t1 -53.5v-281h-107v238q0 84 -19.5 117.5t-81.5 33.5q-77 0 -112 -52q-21 -31 -21 -126v-211h-106v574h-81v83h81v100h100v-100h141v-83h-141v-187q61 92 179 92q104 0 145 -65z" />
    <glyph glyph-name="Itilde" unicode="&#x128;" horiz-adv-x="285" 
d="M0 805q22 102 92 102q15 0 30 -4l57 -15q8 -2 23 -2q31 0 40 33h44q-9 -49 -34 -75.5t-61 -26.5q-13 0 -26 3l-61 16q-12 2 -18 2q-32 0 -42 -33h-44zM84 0v715h116v-715h-116z" />
    <glyph glyph-name="itilde" unicode="&#x129;" horiz-adv-x="262" 
d="M-12 553q22 102 92 102q15 0 30 -4l57 -15q8 -2 23 -2q31 0 40 33h44q-9 -49 -34 -75.5t-61 -26.5q-13 0 -26 3l-61 16q-12 2 -18 2q-32 0 -42 -33h-44zM78 0v463h106v-463h-106z" />
    <glyph glyph-name="Imacron" unicode="&#x12a;" horiz-adv-x="285" 
d="M14 829v69h257v-69h-257zM84 0v715h116v-715h-116z" />
    <glyph glyph-name="imacron" unicode="&#x12b;" horiz-adv-x="262" 
d="M2 577v69h257v-69h-257zM78 0v463h106v-463h-106z" />
    <glyph glyph-name="Ibreve" unicode="&#x12c;" horiz-adv-x="285" 
d="M144 799q-68 0 -103.5 31t-42.5 98h59q9 -61 87 -61q77 0 86 61h58q-8 -67 -42 -98t-102 -31zM84 0v715h116v-715h-116z" />
    <glyph glyph-name="ibreve" unicode="&#x12d;" horiz-adv-x="262" 
d="M132 547q-68 0 -103.5 31t-42.5 98h59q9 -61 87 -61q77 0 86 61h58q-8 -67 -42 -98t-102 -31zM78 0v463h106v-463h-106z" />
    <glyph glyph-name="Iogonek" unicode="&#x12e;" horiz-adv-x="285" 
d="M164 -141q19 0 43 8v-74q-33 -11 -66 -11q-43 0 -71.5 20t-28.5 63q0 66 83 135h-40v715h116v-715h-20q-61 -57 -61 -101q0 -40 45 -40z" />
    <glyph glyph-name="iogonek" unicode="&#x12f;" horiz-adv-x="262" 
d="M131 596q-28 0 -47.5 20t-19.5 47t19.5 46.5t47.5 19.5t47 -19t19 -47t-19 -47.5t-47 -19.5zM100 -101q0 -40 45 -40q19 0 43 8v-74q-33 -11 -66 -11q-43 0 -71.5 20t-28.5 63q0 66 83 135h-27v463h106v-463h-23q-61 -57 -61 -101z" />
    <glyph glyph-name="Idotaccent" unicode="&#x130;" horiz-adv-x="285" 
d="M143 803q-28 0 -47.5 20t-19.5 47t19.5 46.5t47.5 19.5t47 -19t19 -47t-19 -47.5t-47 -19.5zM84 0v715h116v-715h-116z" />
    <glyph glyph-name="dotlessi" unicode="&#x131;" horiz-adv-x="262" 
d="M78 0v463h106v-463h-106z" />
    <glyph glyph-name="Jcircumflex" unicode="&#x134;" horiz-adv-x="394" 
d="M120 785l95 171h102l95 -171h-61l-85 115l-85 -115h-61zM158 -19q-91 0 -156 74l74 75q35 -41 70 -41q37 0 49.5 24.5t12.5 81.5v520h115v-558q0 -90 -39.5 -133t-125.5 -43z" />
    <glyph glyph-name="jcircumflex" unicode="&#x135;" horiz-adv-x="262" 
d="M-15 533l95 171h102l95 -171h-61l-85 115l-85 -115h-61zM78 -218v681h106v-681h-106z" />
    <glyph glyph-name="Kcommaaccent" unicode="&#x136;" horiz-adv-x="620" 
d="M82 0v715h116v-296l257 296h142l-283 -318l317 -397h-150l-283 365v-365h-116zM286 -230l-55 18l59 161l79 -18z" />
    <glyph glyph-name="kcommaaccent" unicode="&#x137;" horiz-adv-x="516" 
d="M73 0v757h106v-486l194 192h131l-210 -204l230 -259h-137l-208 239v-239h-106zM242 -230l-55 18l59 161l79 -18z" />
    <glyph glyph-name="kgreenlandic" unicode="&#x138;" horiz-adv-x="516" 
d="M73 0v463h106v-202l194 202h131l-210 -212l230 -251h-137l-208 229v-229h-106z" />
    <glyph glyph-name="Lacute" unicode="&#x139;" horiz-adv-x="470" 
d="M72 785l109 170h110l-159 -170h-60zM82 0v715h116v-611h260v-104h-376z" />
    <glyph glyph-name="lacute" unicode="&#x13a;" horiz-adv-x="262" 
d="M62 827l109 170h110l-159 -170h-60zM78 0v757h106v-757h-106z" />
    <glyph glyph-name="Lcommaaccent" unicode="&#x13b;" horiz-adv-x="470" 
d="M82 0v715h116v-611h260v-104h-376zM239 -230l-55 18l59 161l79 -18z" />
    <glyph glyph-name="lcommaaccent" unicode="&#x13c;" horiz-adv-x="262" 
d="M78 0v757h106v-757h-106zM92 -230l-55 18l59 161l79 -18z" />
    <glyph glyph-name="Lcaron" unicode="&#x13d;" horiz-adv-x="470" 
d="M82 0v715h116v-611h260v-104h-376zM333 536l-55 18l59 161l79 -18z" />
    <glyph glyph-name="lcaron" unicode="&#x13e;" horiz-adv-x="262" 
d="M78 0v757h106v-757h-106zM270 578l-55 18l59 161l79 -18z" />
    <glyph glyph-name="Ldot" unicode="&#x13f;" horiz-adv-x="470" 
d="M82 0v715h116v-611h260v-104h-376zM361 379q-27 0 -45.5 19t-18.5 45q0 27 18.5 45.5t45.5 18.5t45.5 -18.5t18.5 -45.5q0 -26 -18.5 -45t-45.5 -19z" />
    <glyph glyph-name="ldot" unicode="&#x140;" horiz-adv-x="314" 
d="M78 0v757h106v-757h-106zM288 351q-27 0 -45.5 19t-18.5 45q0 27 18.5 45.5t45.5 18.5t45.5 -18.5t18.5 -45.5q0 -26 -18.5 -45t-45.5 -19z" />
    <glyph glyph-name="Lslash" unicode="&#x141;" horiz-adv-x="477" 
d="M89 0v267l-71 -49l-50 70l121 87v340h116v-274l114 80l50 -72l-164 -115v-230h260v-104h-376z" />
    <glyph glyph-name="lslash" unicode="&#x142;" horiz-adv-x="275" 
d="M84 0v272l-54 -38l-47 69l101 72v382h107v-317l54 38l48 -69l-102 -72v-337h-107z" />
    <glyph glyph-name="Nacute" unicode="&#x143;" horiz-adv-x="803" 
d="M334 785l109 170h110l-159 -170h-60zM721 -28l-463 445q-38 36 -69 80v-497h-107v743l454 -437q37 -36 78 -87v496h107v-743z" />
    <glyph glyph-name="nacute" unicode="&#x144;" horiz-adv-x="588" 
d="M229 533l109 170h110l-159 -170h-60zM73 0v463h100v-76q61 92 179 92q104 0 145 -65q11 -17 16 -39.5t6 -40t1 -53.5v-281h-107v238q0 84 -19.5 117.5t-81.5 33.5q-77 0 -112 -52q-21 -31 -21 -126v-211h-106z" />
    <glyph glyph-name="Ncommaaccent" unicode="&#x145;" horiz-adv-x="803" 
d="M721 -28l-463 445q-38 36 -69 80v-497h-107v743l454 -437q37 -36 78 -87v496h107v-743zM372 -230l-55 18l59 161l79 -18z" />
    <glyph glyph-name="ncommaaccent" unicode="&#x146;" horiz-adv-x="588" 
d="M73 0v463h100v-76q61 92 179 92q104 0 145 -65q11 -17 16 -39.5t6 -40t1 -53.5v-281h-107v238q0 84 -19.5 117.5t-81.5 33.5q-77 0 -112 -52q-21 -31 -21 -126v-211h-106zM257 -230l-55 18l59 161l79 -18z" />
    <glyph glyph-name="Ncaron" unicode="&#x147;" horiz-adv-x="803" 
d="M351 785l-95 171h61l85 -115l85 115h61l-95 -171h-102zM721 -28l-463 445q-38 36 -69 80v-497h-107v743l454 -437q37 -36 78 -87v496h107v-743z" />
    <glyph glyph-name="ncaron" unicode="&#x148;" horiz-adv-x="588" 
d="M247 533l-95 171h61l85 -115l85 115h61l-95 -171h-102zM73 0v463h100v-76q61 92 179 92q104 0 145 -65q11 -17 16 -39.5t6 -40t1 -53.5v-281h-107v238q0 84 -19.5 117.5t-81.5 33.5q-77 0 -112 -52q-21 -31 -21 -126v-211h-106z" />
    <glyph glyph-name="napostrophe" unicode="&#x149;" horiz-adv-x="588" 
d="M36 464l-55 18l59 161l79 -18zM73 0v463h100v-76q61 92 179 92q104 0 145 -65q11 -17 16 -39.5t6 -40t1 -53.5v-281h-107v238q0 84 -19.5 117.5t-81.5 33.5q-77 0 -112 -52q-21 -31 -21 -126v-211h-106z" />
    <glyph glyph-name="Eng" unicode="&#x14a;" horiz-adv-x="803" 
d="M614 715h107v-738q0 -89 -38.5 -132.5t-118.5 -43.5q-91 0 -156 74l69 70q36 -42 75 -42q37 0 49.5 24.5t12.5 81.5v70l-356 338q-38 36 -69 80v-497h-107v743l454 -437q37 -36 78 -87v496z" />
    <glyph glyph-name="eng" unicode="&#x14b;" horiz-adv-x="588" 
d="M413 -218v456q0 84 -19.5 117.5t-81.5 33.5q-77 0 -112 -52q-21 -31 -21 -126v-211h-106v463h100v-76q61 92 179 92q104 0 145 -65q11 -17 16 -39.5t6 -40t1 -53.5v-499h-107z" />
    <glyph glyph-name="Omacron" unicode="&#x14c;" horiz-adv-x="866" 
d="M304 829v69h257v-69h-257zM433 -19q-159 0 -271 110q-111 108 -111 265t111 266q112 109 271 109q158 0 270 -109q112 -110 112 -266t-112 -265q-113 -110 -270 -110zM433 89q108 0 184 78q77 79 77 189q0 111 -77 190q-75 78 -184 78t-185 -78t-76 -190q0 -111 76 -189
t185 -78z" />
    <glyph glyph-name="omacron" unicode="&#x14d;" horiz-adv-x="588" 
d="M165 577v69h257v-69h-257zM293 -19q-104 0 -179 73t-75 177t75 176q74 72 179 72q106 0 181 -73t75 -175q0 -105 -74 -176q-77 -74 -182 -74zM294 76q59 0 101 44.5t42 109.5t-41.5 109.5t-101.5 44.5t-101.5 -44.5t-41.5 -109.5t41.5 -109.5t101.5 -44.5z" />
    <glyph glyph-name="Obreve" unicode="&#x14e;" horiz-adv-x="866" 
d="M434 799q-68 0 -103.5 31t-42.5 98h59q9 -61 87 -61q77 0 86 61h58q-8 -67 -42 -98t-102 -31zM433 -19q-159 0 -271 110q-111 108 -111 265t111 266q112 109 271 109q158 0 270 -109q112 -110 112 -266t-112 -265q-113 -110 -270 -110zM433 89q108 0 184 78q77 79 77 189
q0 111 -77 190q-75 78 -184 78t-185 -78t-76 -190q0 -111 76 -189t185 -78z" />
    <glyph glyph-name="obreve" unicode="&#x14f;" horiz-adv-x="588" 
d="M295 547q-68 0 -103.5 31t-42.5 98h59q9 -61 87 -61q77 0 86 61h58q-8 -67 -42 -98t-102 -31zM293 -19q-104 0 -179 73t-75 177t75 176q74 72 179 72q106 0 181 -73t75 -175q0 -105 -74 -176q-77 -74 -182 -74zM294 76q59 0 101 44.5t42 109.5t-41.5 109.5t-101.5 44.5
t-101.5 -44.5t-41.5 -109.5t41.5 -109.5t101.5 -44.5z" />
    <glyph glyph-name="Ohungarumlaut" unicode="&#x150;" horiz-adv-x="866" 
d="M333 785l76 170h92l-125 -170h-43zM461 785l89 170h97l-139 -170h-47zM433 -19q-159 0 -271 110q-111 108 -111 265t111 266q112 109 271 109q158 0 270 -109q112 -110 112 -266t-112 -265q-113 -110 -270 -110zM433 89q108 0 184 78q77 79 77 189q0 111 -77 190
q-75 78 -184 78t-185 -78t-76 -190q0 -111 76 -189t185 -78z" />
    <glyph glyph-name="ohungarumlaut" unicode="&#x151;" horiz-adv-x="588" 
d="M199 533l76 170h92l-125 -170h-43zM327 533l89 170h97l-139 -170h-47zM293 -19q-104 0 -179 73t-75 177t75 176q74 72 179 72q106 0 181 -73t75 -175q0 -105 -74 -176q-77 -74 -182 -74zM294 76q59 0 101 44.5t42 109.5t-41.5 109.5t-101.5 44.5t-101.5 -44.5
t-41.5 -109.5t41.5 -109.5t101.5 -44.5z" />
    <glyph glyph-name="OE" unicode="&#x152;" horiz-adv-x="1125" 
d="M428 -17q-156 0 -265 109q-110 110 -110 265t110 265t265 110q156 0 258 -123l1 106h385v-99h-278v-176h278v-102h-278v-234h278v-104h-385l-1 110q-94 -127 -258 -127zM428 90q106 0 181 78t75 189q0 112 -75 190t-181 78t-181 -78t-75 -190q0 -111 75 -189t181 -78z
" />
    <glyph glyph-name="oe" unicode="&#x153;" horiz-adv-x="949" 
d="M296 -19q-70 0 -129 34q-61 35 -94.5 91.5t-33.5 124.5q0 101 73 174q76 74 187 74q124 0 190 -98q61 98 183 98q112 0 174.5 -64t62.5 -179v-20h-370q4 -65 38.5 -102.5t92.5 -37.5q96 0 145 93l89 -50q-77 -138 -232 -138q-121 0 -187 91q-82 -91 -189 -91zM546 287
h253q-12 102 -124 102q-104 0 -129 -102zM293 76q59 0 101.5 44.5t42.5 109.5t-42 109.5t-102 44.5t-101.5 -44.5t-41.5 -109.5t41.5 -109.5t101.5 -44.5z" />
    <glyph glyph-name="Racute" unicode="&#x154;" horiz-adv-x="560" 
d="M199 785l109 170h110l-159 -170h-60zM82 0v715h162q126 0 178 -40q69 -55 69 -157q0 -173 -164 -193l246 -325h-131l-238 320h-13v-320h-109zM198 410h21q84 0 118.5 18.5t34.5 79.5q0 63 -35 85t-118 22h-21v-205z" />
    <glyph glyph-name="racute" unicode="&#x155;" horiz-adv-x="368" 
d="M145 533l109 170h110l-159 -170h-60zM73 0v464h106v-75q34 90 115 90q45 0 87 -21l-38 -90q-27 19 -65 19q-55 0 -77 -43.5t-22 -140.5v-203h-106z" />
    <glyph glyph-name="Rcommaaccent" unicode="&#x156;" horiz-adv-x="560" 
d="M82 0v715h162q126 0 178 -40q69 -55 69 -157q0 -173 -164 -193l246 -325h-131l-238 320h-13v-320h-109zM198 410h21q84 0 118.5 18.5t34.5 79.5q0 63 -35 85t-118 22h-21v-205zM267 -230l-55 18l59 161l79 -18z" />
    <glyph glyph-name="rcommaaccent" unicode="&#x157;" horiz-adv-x="368" 
d="M73 0v464h106v-75q34 90 115 90q45 0 87 -21l-38 -90q-27 19 -65 19q-55 0 -77 -43.5t-22 -140.5v-203h-106zM87 -230l-55 18l59 161l79 -18z" />
    <glyph glyph-name="Rcaron" unicode="&#x158;" horiz-adv-x="560" 
d="M216 785l-95 171h61l85 -115l85 115h61l-95 -171h-102zM82 0v715h162q126 0 178 -40q69 -55 69 -157q0 -173 -164 -193l246 -325h-131l-238 320h-13v-320h-109zM198 410h21q84 0 118.5 18.5t34.5 79.5q0 63 -35 85t-118 22h-21v-205z" />
    <glyph glyph-name="rcaron" unicode="&#x159;" horiz-adv-x="368" 
d="M163 533l-95 171h61l85 -115l85 115h61l-95 -171h-102zM73 0v464h106v-75q34 90 115 90q45 0 87 -21l-38 -90q-27 19 -65 19q-55 0 -77 -43.5t-22 -140.5v-203h-106z" />
    <glyph glyph-name="Sacute" unicode="&#x15a;" horiz-adv-x="549" 
d="M207 785l109 170h110l-159 -170h-60zM267 -19q-91 0 -149.5 42t-76.5 120l93 43q26 -98 138 -98q52 0 82.5 29t30.5 77q0 13 -3 24t-6 19.5t-12 17l-14 13.5t-19.5 13t-20.5 11l-25.5 12.5t-26.5 12.5q-106 52 -151.5 97t-45.5 121q0 87 59 141.5t156 54.5
q79 0 132.5 -30.5t73.5 -87.5l-91 -47q-41 65 -106 65q-47 0 -74.5 -24.5t-27.5 -65.5q0 -44 27.5 -67t93.5 -53q10 -5 15 -7q100 -46 142.5 -92t42.5 -120q0 -101 -63.5 -161t-173.5 -60z" />
    <glyph glyph-name="sacute" unicode="&#x15b;" horiz-adv-x="426" 
d="M144 533l109 170h110l-159 -170h-60zM203 -19q-133 0 -183 103l88 48q20 -71 104 -71q36 0 56 16.5t20 44.5q0 14 -4.5 24t-16.5 17.5t-22 11.5t-32 12t-35 14q-70 29 -101.5 60.5t-31.5 79.5q0 61 48 100t129 39q112 0 148 -76l-75 -52q-8 22 -29 35t-48 13
q-31 0 -49 -14.5t-18 -38.5q0 -13 5 -22.5t18.5 -17.5t24 -12.5t35.5 -13.5t39 -15q62 -25 90.5 -56.5t28.5 -80.5q0 -68 -49.5 -108t-139.5 -40z" />
    <glyph glyph-name="Scircumflex" unicode="&#x15c;" horiz-adv-x="549" 
d="M129 785l95 171h102l95 -171h-61l-85 115l-85 -115h-61zM267 -19q-91 0 -149.5 42t-76.5 120l93 43q26 -98 138 -98q52 0 82.5 29t30.5 77q0 13 -3 24t-6 19.5t-12 17l-14 13.5t-19.5 13t-20.5 11l-25.5 12.5t-26.5 12.5q-106 52 -151.5 97t-45.5 121q0 87 59 141.5
t156 54.5q79 0 132.5 -30.5t73.5 -87.5l-91 -47q-41 65 -106 65q-47 0 -74.5 -24.5t-27.5 -65.5q0 -44 27.5 -67t93.5 -53q10 -5 15 -7q100 -46 142.5 -92t42.5 -120q0 -101 -63.5 -161t-173.5 -60z" />
    <glyph glyph-name="scircumflex" unicode="&#x15d;" horiz-adv-x="426" 
d="M67 533l95 171h102l95 -171h-61l-85 115l-85 -115h-61zM203 -19q-133 0 -183 103l88 48q20 -71 104 -71q36 0 56 16.5t20 44.5q0 14 -4.5 24t-16.5 17.5t-22 11.5t-32 12t-35 14q-70 29 -101.5 60.5t-31.5 79.5q0 61 48 100t129 39q112 0 148 -76l-75 -52q-8 22 -29 35
t-48 13q-31 0 -49 -14.5t-18 -38.5q0 -13 5 -22.5t18.5 -17.5t24 -12.5t35.5 -13.5t39 -15q62 -25 90.5 -56.5t28.5 -80.5q0 -68 -49.5 -108t-139.5 -40z" />
    <glyph glyph-name="Scedilla" unicode="&#x15e;" horiz-adv-x="549" 
d="M504 202q0 -95 -57.5 -154.5t-157.5 -65.5v-34h8q109 0 109 -85q0 -40 -30 -62t-86 -22q-49 0 -126 19v52q76 -18 118 -18q50 0 50 33q0 36 -65 36q-3 0 -10 -0.5t-10 -0.5v82q-83 4 -136 45.5t-70 115.5l93 43q26 -98 138 -98q52 0 82.5 29t30.5 77q0 13 -3 24t-6 19.5
t-12 17l-14 13.5t-19.5 13t-20.5 11l-25.5 12.5t-26.5 12.5q-106 52 -151.5 97t-45.5 121q0 87 59 141.5t156 54.5q79 0 132.5 -30.5t73.5 -87.5l-91 -47q-41 65 -106 65q-47 0 -74.5 -24.5t-27.5 -65.5q0 -44 27.5 -67t93.5 -53q10 -5 15 -7q100 -46 142.5 -92t42.5 -120z
" />
    <glyph glyph-name="scedilla" unicode="&#x15f;" horiz-adv-x="426" 
d="M392 129q0 -63 -42.5 -102t-119.5 -45v-34h8q109 0 109 -85q0 -40 -30 -62t-86 -22q-49 0 -126 19v52q77 -18 118 -18q50 0 50 33q0 36 -65 36q-4 0 -10 -0.5t-10 -0.5v81q-121 6 -168 103l88 48q20 -71 104 -71q36 0 56 16.5t20 44.5q0 14 -4.5 24t-16.5 17.5t-22 11.5
t-32 12t-35 14q-70 29 -101.5 60.5t-31.5 79.5q0 61 48 100t129 39q112 0 148 -76l-75 -52q-8 22 -29 35t-48 13q-31 0 -49 -14.5t-18 -38.5q0 -13 5 -22.5t18.5 -17.5t24 -12.5t35.5 -13.5t39 -15q62 -25 90.5 -56.5t28.5 -80.5z" />
    <glyph glyph-name="Scaron" unicode="&#x160;" horiz-adv-x="549" 
d="M224 785l-95 171h61l85 -115l85 115h61l-95 -171h-102zM267 -19q-91 0 -149.5 42t-76.5 120l93 43q26 -98 138 -98q52 0 82.5 29t30.5 77q0 13 -3 24t-6 19.5t-12 17l-14 13.5t-19.5 13t-20.5 11l-25.5 12.5t-26.5 12.5q-106 52 -151.5 97t-45.5 121q0 87 59 141.5
t156 54.5q79 0 132.5 -30.5t73.5 -87.5l-91 -47q-41 65 -106 65q-47 0 -74.5 -24.5t-27.5 -65.5q0 -44 27.5 -67t93.5 -53q10 -5 15 -7q100 -46 142.5 -92t42.5 -120q0 -101 -63.5 -161t-173.5 -60z" />
    <glyph glyph-name="scaron" unicode="&#x161;" horiz-adv-x="426" 
d="M162 533l-95 171h61l85 -115l85 115h61l-95 -171h-102zM203 -19q-133 0 -183 103l88 48q20 -71 104 -71q36 0 56 16.5t20 44.5q0 14 -4.5 24t-16.5 17.5t-22 11.5t-32 12t-35 14q-70 29 -101.5 60.5t-31.5 79.5q0 61 48 100t129 39q112 0 148 -76l-75 -52q-8 22 -29 35
t-48 13q-31 0 -49 -14.5t-18 -38.5q0 -13 5 -22.5t18.5 -17.5t24 -12.5t35.5 -13.5t39 -15q62 -25 90.5 -56.5t28.5 -80.5q0 -68 -49.5 -108t-139.5 -40z" />
    <glyph glyph-name="uni0162" unicode="&#x162;" horiz-adv-x="509" 
d="M197 0v616h-190v99h495v-99h-189v-616h-116zM216 -230l-55 18l59 161l79 -18z" />
    <glyph glyph-name="uni0163" unicode="&#x163;" horiz-adv-x="303" 
d="M98 0v370h-81v93h81v175h106v-175h81v-93h-81v-370h-106zM113 -230l-55 18l59 161l79 -18z" />
    <glyph glyph-name="Tcaron" unicode="&#x164;" horiz-adv-x="509" 
d="M204 785l-95 171h61l85 -115l85 115h61l-95 -171h-102zM197 0v616h-190v99h495v-99h-189v-616h-116z" />
    <glyph glyph-name="tcaron" unicode="&#x165;" horiz-adv-x="303" 
d="M309 578l-55 18l59 161l79 -18zM98 0v370h-81v93h81v175h106v-175h81v-93h-81v-370h-106z" />
    <glyph glyph-name="Tbar" unicode="&#x166;" horiz-adv-x="509" 
d="M502 616h-189v-173h111v-90h-111v-353h-116v353h-111v90h111v173h-190v99h495v-99z" />
    <glyph glyph-name="tbar" unicode="&#x167;" horiz-adv-x="303" 
d="M285 370h-81v-77h81v-83h-81v-210h-106v210h-81v83h81v77h-81v93h81v175h106v-175h81v-93z" />
    <glyph glyph-name="Utilde" unicode="&#x168;" horiz-adv-x="744" 
d="M229 805q22 102 92 102q15 0 30 -4l57 -15q8 -2 23 -2q31 0 40 33h44q-9 -49 -34 -75.5t-61 -26.5q-12 0 -26 3l-61 16q-12 2 -18 2q-32 0 -42 -33h-44zM372 -19q-293 0 -293 289v445h115v-434q0 -194 178 -194t178 194v434h116v-445q0 -289 -294 -289z" />
    <glyph glyph-name="utilde" unicode="&#x169;" horiz-adv-x="588" 
d="M151 553q22 102 92 102q15 0 30 -4l57 -15q8 -2 23 -2q31 0 40 33h44q-9 -49 -34 -75.5t-61 -26.5q-12 0 -26 3l-61 16q-12 2 -18 2q-32 0 -42 -33h-44zM295 -19q-120 0 -172.5 60.5t-52.5 192.5v229h106v-261q0 -66 27 -96t91 -30t91 30t27 96v261h106v-229
q0 -131 -52.5 -192t-170.5 -61z" />
    <glyph glyph-name="Umacron" unicode="&#x16a;" horiz-adv-x="744" 
d="M243 829v69h257v-69h-257zM372 -19q-293 0 -293 289v445h115v-434q0 -194 178 -194t178 194v434h116v-445q0 -289 -294 -289z" />
    <glyph glyph-name="umacron" unicode="&#x16b;" horiz-adv-x="588" 
d="M165 577v69h257v-69h-257zM295 -19q-120 0 -172.5 60.5t-52.5 192.5v229h106v-261q0 -66 27 -96t91 -30t91 30t27 96v261h106v-229q0 -131 -52.5 -192t-170.5 -61z" />
    <glyph glyph-name="Ubreve" unicode="&#x16c;" horiz-adv-x="744" 
d="M373 799q-68 0 -103.5 31t-42.5 98h59q9 -61 87 -61q77 0 86 61h58q-8 -67 -42 -98t-102 -31zM372 -19q-293 0 -293 289v445h115v-434q0 -194 178 -194t178 194v434h116v-445q0 -289 -294 -289z" />
    <glyph glyph-name="ubreve" unicode="&#x16d;" horiz-adv-x="588" 
d="M295 547q-68 0 -103.5 31t-42.5 98h59q9 -61 87 -61q77 0 86 61h58q-8 -67 -42 -98t-102 -31zM295 -19q-120 0 -172.5 60.5t-52.5 192.5v229h106v-261q0 -66 27 -96t91 -30t91 30t27 96v261h106v-229q0 -131 -52.5 -192t-170.5 -61z" />
    <glyph glyph-name="Uring" unicode="&#x16e;" horiz-adv-x="744" 
d="M372 732q-49 0 -82.5 33t-33.5 82t34 82.5t82 33.5t82 -34t34 -82t-33.5 -81.5t-82.5 -33.5zM372 792q23 0 39.5 16t16.5 39t-16.5 39.5t-39.5 16.5t-39 -16.5t-16 -39.5t16 -39t39 -16zM372 -19q-293 0 -293 289v445h115v-434q0 -194 178 -194t178 194v434h116v-445
q0 -289 -294 -289z" />
    <glyph glyph-name="uring" unicode="&#x16f;" horiz-adv-x="588" 
d="M294 512q-49 0 -82.5 33t-33.5 82t34 82.5t82 33.5t82 -34t34 -82t-33.5 -81.5t-82.5 -33.5zM294 572q23 0 39.5 16t16.5 39t-16.5 39.5t-39.5 16.5t-39 -16.5t-16 -39.5t16 -39t39 -16zM295 -19q-120 0 -172.5 60.5t-52.5 192.5v229h106v-261q0 -66 27 -96t91 -30t91 30
t27 96v261h106v-229q0 -131 -52.5 -192t-170.5 -61z" />
    <glyph glyph-name="Uhungarumlaut" unicode="&#x170;" horiz-adv-x="744" 
d="M272 785l76 170h92l-125 -170h-43zM400 785l89 170h97l-139 -170h-47zM372 -19q-293 0 -293 289v445h115v-434q0 -194 178 -194t178 194v434h116v-445q0 -289 -294 -289z" />
    <glyph glyph-name="uhungarumlaut" unicode="&#x171;" horiz-adv-x="588" 
d="M199 533l76 170h92l-125 -170h-43zM327 533l89 170h97l-139 -170h-47zM295 -19q-120 0 -172.5 60.5t-52.5 192.5v229h106v-261q0 -66 27 -96t91 -30t91 30t27 96v261h106v-229q0 -131 -52.5 -192t-170.5 -61z" />
    <glyph glyph-name="Uogonek" unicode="&#x172;" horiz-adv-x="744" 
d="M550 715h116v-445q0 -200 -139 -261q-71 -62 -71 -110q0 -40 45 -40q19 0 43 8v-74q-33 -11 -66 -11q-43 0 -71.5 20t-28.5 63q0 60 67 121q-37 -5 -73 -5q-293 0 -293 289v445h115v-434q0 -194 178 -194t178 194v434z" />
    <glyph glyph-name="uogonek" unicode="&#x173;" horiz-adv-x="588" 
d="M412 463h106v-229q0 -172 -93 -225q-71 -62 -71 -110q0 -40 45 -40q19 0 43 8v-74q-33 -11 -66 -11q-43 0 -71.5 20t-28.5 63q0 58 64 118q-28 -2 -45 -2q-120 0 -172.5 60.5t-52.5 192.5v229h106v-261q0 -66 27 -96t91 -30t91 30t27 96v261z" />
    <glyph glyph-name="Wcircumflex" unicode="&#x174;" horiz-adv-x="939" 
d="M324 785l95 171h102l95 -171h-61l-85 115l-85 -115h-61zM273 -28l-276 743h115l135 -361q25 -67 38 -113q10 34 39 120l144 382l151 -389q21 -56 38 -114q10 43 35 111l134 364h116l-277 -743l-163 408q-22 54 -35 100q-16 -57 -34 -102z" />
    <glyph glyph-name="wcircumflex" unicode="&#x175;" horiz-adv-x="750" 
d="M229 533l95 171h102l95 -171h-61l-85 115l-85 -115h-61zM233 -28l-240 491h113l104 -223q14 -31 23 -94q1 35 24 84l113 250h9l115 -250q21 -45 22 -84q9 54 27 93l102 224h112l-241 -491l-107 241q-22 52 -34 92q-22 -65 -32 -88z" />
    <glyph glyph-name="Ycircumflex" unicode="&#x176;" horiz-adv-x="593" 
d="M151 785l95 171h102l95 -171h-61l-85 115l-85 -115h-61zM236 0v327l-241 388h122l150 -243q12 -21 30 -57q13 35 30 60l154 240h116l-246 -388v-327h-115z" />
    <glyph glyph-name="ycircumflex" unicode="&#x177;" horiz-adv-x="471" 
d="M90 533l95 171h102l95 -171h-61l-85 115l-85 -115h-61zM44 -218l127 258l-170 423h117l85 -240q15 -44 22 -91q6 25 33 84l114 247h115l-334 -681h-109z" />
    <glyph glyph-name="Ydieresis" unicode="&#x178;" horiz-adv-x="593" 
d="M208 805q-25 0 -42 17.5t-17 42.5q0 23 17.5 40.5t41.5 17.5t41 -17t17 -41q0 -26 -16.5 -43t-41.5 -17zM386 805q-25 0 -42 17.5t-17 42.5q0 23 17.5 40.5t41.5 17.5t41 -17t17 -41q0 -26 -16.5 -43t-41.5 -17zM236 0v327l-241 388h122l150 -243q12 -21 30 -57
q13 35 30 60l154 240h116l-246 -388v-327h-115z" />
    <glyph glyph-name="Zacute" unicode="&#x179;" horiz-adv-x="576" 
d="M220 785l109 170h110l-159 -170h-60zM9 0l364 616h-303v99h482l-361 -611h365v-104h-547z" />
    <glyph glyph-name="zacute" unicode="&#x17a;" horiz-adv-x="449" 
d="M156 533l109 170h110l-159 -170h-60zM-1 0l258 370h-232v93h404l-252 -370h252v-93h-430z" />
    <glyph glyph-name="Zdotaccent" unicode="&#x17b;" horiz-adv-x="576" 
d="M288 803q-26 0 -44 18t-18 44q0 25 18.5 43.5t43.5 18.5q26 0 44 -18.5t18 -43.5q0 -27 -17.5 -44.5t-44.5 -17.5zM9 0l364 616h-303v99h482l-361 -611h365v-104h-547z" />
    <glyph glyph-name="zdotaccent" unicode="&#x17c;" horiz-adv-x="449" 
d="M225 551q-26 0 -44 18t-18 44q0 25 18.5 43.5t43.5 18.5t43.5 -18.5t18.5 -43.5q0 -27 -17.5 -44.5t-44.5 -17.5zM-1 0l258 370h-232v93h404l-252 -370h252v-93h-430z" />
    <glyph glyph-name="Zcaron" unicode="&#x17d;" horiz-adv-x="576" 
d="M237 785l-95 171h61l85 -115l85 115h61l-95 -171h-102zM9 0l364 616h-303v99h482l-361 -611h365v-104h-547z" />
    <glyph glyph-name="zcaron" unicode="&#x17e;" horiz-adv-x="449" 
d="M174 533l-95 171h61l85 -115l85 115h61l-95 -171h-102zM-1 0l258 370h-232v93h404l-252 -370h252v-93h-430z" />
    <glyph glyph-name="florin" unicode="&#x192;" horiz-adv-x="604" 
d="M144 -219q-35 0 -77 12l20 99q27 -11 41 -11q39 0 52 32t25 129l41 340h-102l7 81h103l10 75q13 95 49.5 140t102.5 45q41 0 89 -17l-9 -92q-33 13 -56 13q-35 0 -48.5 -24.5t-22.5 -86.5l-7 -53h113l-8 -81h-113l-47 -370q-16 -128 -49 -179.5t-114 -51.5z" />
    <glyph glyph-name="Scommaaccent" unicode="&#x218;" horiz-adv-x="549" 
d="M267 -19q-91 0 -149.5 42t-76.5 120l93 43q26 -98 138 -98q52 0 82.5 29t30.5 77q0 13 -3 24t-6 19.5t-12 17l-14 13.5t-19.5 13t-20.5 11l-25.5 12.5t-26.5 12.5q-106 52 -151.5 97t-45.5 121q0 87 59 141.5t156 54.5q79 0 132.5 -30.5t73.5 -87.5l-91 -47
q-41 65 -106 65q-47 0 -74.5 -24.5t-27.5 -65.5q0 -44 27.5 -67t93.5 -53q10 -5 15 -7q100 -46 142.5 -92t42.5 -120q0 -101 -63.5 -161t-173.5 -60zM236 -230l-55 18l59 161l79 -18z" />
    <glyph glyph-name="scommaaccent" unicode="&#x219;" horiz-adv-x="426" 
d="M203 -19q-133 0 -183 103l88 48q20 -71 104 -71q36 0 56 16.5t20 44.5q0 14 -4.5 24t-16.5 17.5t-22 11.5t-32 12t-35 14q-70 29 -101.5 60.5t-31.5 79.5q0 61 48 100t129 39q112 0 148 -76l-75 -52q-8 22 -29 35t-48 13q-31 0 -49 -14.5t-18 -38.5q0 -13 5 -22.5
t18.5 -17.5t24 -12.5t35.5 -13.5t39 -15q62 -25 90.5 -56.5t28.5 -80.5q0 -68 -49.5 -108t-139.5 -40zM170 -230l-55 18l59 161l79 -18z" />
    <glyph glyph-name="uni021A" unicode="&#x21a;" horiz-adv-x="509" 
d="M197 0v616h-190v99h495v-99h-189v-616h-116zM216 -230l-55 18l59 161l79 -18z" />
    <glyph glyph-name="uni021B" unicode="&#x21b;" horiz-adv-x="303" 
d="M98 0v370h-81v93h81v175h106v-175h81v-93h-81v-370h-106zM113 -230l-55 18l59 161l79 -18z" />
    <glyph glyph-name="dotlessj" unicode="&#x237;" horiz-adv-x="262" 
d="M78 -218v681h106v-681h-106z" />
    <glyph glyph-name="uni02BC" unicode="&#x2bc;" horiz-adv-x="198" 
d="M85 533l-55 18l59 161l79 -18z" />
    <glyph glyph-name="circumflex" unicode="&#x2c6;" horiz-adv-x="352" 
d="M30 533l95 171h102l95 -171h-61l-85 115l-85 -115h-61z" />
    <glyph glyph-name="caron" unicode="&#x2c7;" horiz-adv-x="352" 
d="M125 533l-95 171h61l85 -115l85 115h61l-95 -171h-102z" />
    <glyph glyph-name="uni02C9" unicode="&#x2c9;" horiz-adv-x="500" 
d="M30 577v69h257v-69h-257z" />
    <glyph glyph-name="breve" unicode="&#x2d8;" horiz-adv-x="350" 
d="M176 547q-68 0 -103.5 31t-42.5 98h59q9 -61 87 -61q77 0 86 61h58q-8 -67 -42 -98t-102 -31z" />
    <glyph glyph-name="dotaccent" unicode="&#x2d9;" horiz-adv-x="184" 
d="M92 551q-26 0 -44 18t-18 44q0 25 18.5 43.5t43.5 18.5q26 0 44 -18.5t18 -43.5q0 -27 -17.5 -44.5t-44.5 -17.5z" />
    <glyph glyph-name="ring" unicode="&#x2da;" horiz-adv-x="292" 
d="M146 512q-49 0 -82.5 33t-33.5 82t34 82.5t82 33.5t82 -34t34 -82t-33.5 -81.5t-82.5 -33.5zM146 572q23 0 39.5 16t16.5 39t-16.5 39.5t-39.5 16.5t-39 -16.5t-16 -39.5t16 -39t39 -16z" />
    <glyph glyph-name="ogonek" unicode="&#x2db;" horiz-adv-x="220" 
d="M129 -218q-43 0 -71.5 20t-28.5 63q0 73 107 154l42 -10q-71 -62 -71 -110q0 -40 45 -40q19 0 43 8v-74q-33 -11 -66 -11z" />
    <glyph glyph-name="tilde" unicode="&#x2dc;" horiz-adv-x="346" 
d="M30 553q22 102 92 102q15 0 30 -4l57 -15q8 -2 23 -2q31 0 40 33h44q-9 -49 -34 -75.5t-61 -26.5q-13 0 -26 3l-61 16q-12 2 -18 2q-32 0 -42 -33h-44z" />
    <glyph glyph-name="hungarumlaut" unicode="&#x2dd;" horiz-adv-x="374" 
d="M30 533l76 170h92l-125 -170h-43zM158 533l89 170h97l-139 -170h-47z" />
    <glyph glyph-name="commaaccent.alt" unicode="&#x312;" horiz-adv-x="0" 
d="M-89 533l-79 18l83 161l55 -18z" />
    <glyph glyph-name="commaaccent" unicode="&#x326;" horiz-adv-x="0" 
d="M-113 -230l-55 18l59 161l79 -18z" />
    <glyph glyph-name="uni0394" unicode="&#x394;" horiz-adv-x="662" 
d="M331 743l346 -743h-692zM154 104h354l-149 340q-13 31 -27 81q-12 -47 -26 -81z" />
    <glyph glyph-name="uni03A9" unicode="&#x3a9;" horiz-adv-x="788" 
d="M45 0v104h192v45q-88 25 -140 102t-52 167q0 134 96 223.5t253 89.5t253 -89.5t96 -223.5q0 -90 -52 -167t-140 -102v-45h192v-104h-290v206q85 18 127 72.5t42 133.5q0 91 -61 151.5t-167 60.5t-167 -60.5t-61 -151.5q0 -79 42 -133.5t127 -72.5v-206h-290z" />
    <glyph glyph-name="uni03BC" unicode="&#x3bc;" horiz-adv-x="590" 
d="M-45 -210l145 738h112l-61 -310q-6 -28 -6 -51q0 -96 89 -96q61 0 95.5 44.5t53.5 141.5l53 271h110l-71 -361q-9 -47 -9 -65q0 -17 7.5 -24.5t25.5 -7.5q11 0 17 1l-16 -78q-31 -8 -73 -8q-73 0 -73 61v7q-42 -69 -124 -69q-76 0 -115 53l-48 -247h-112z" />
    <glyph glyph-name="pi" unicode="&#x3c0;" horiz-adv-x="582" 
d="M478 -7q-72 0 -92.5 32.5t-20.5 107.5v237h-174v-370h-106v370h-70v93h534v-93h-78v-229q0 -18 1.5 -28t10.5 -19t26 -9q22 0 43 10v-83q-40 -19 -74 -19z" />
    <glyph glyph-name="Wgrave" unicode="&#x1e80;" horiz-adv-x="939" 
d="M479 785l-159 170h110l109 -170h-60zM273 -28l-276 743h115l135 -361q25 -67 38 -113q10 34 39 120l144 382l151 -389q21 -56 38 -114q10 43 35 111l134 364h116l-277 -743l-163 408q-22 54 -35 100q-16 -57 -34 -102z" />
    <glyph glyph-name="wgrave" unicode="&#x1e81;" horiz-adv-x="750" 
d="M384 533l-159 170h110l109 -170h-60zM233 -28l-240 491h113l104 -223q14 -31 23 -94q1 35 24 84l113 250h9l115 -250q21 -45 22 -84q9 54 27 93l102 224h112l-241 -491l-107 241q-22 52 -34 92q-22 -65 -32 -88z" />
    <glyph glyph-name="Wacute" unicode="&#x1e82;" horiz-adv-x="939" 
d="M402 785l109 170h110l-159 -170h-60zM273 -28l-276 743h115l135 -361q25 -67 38 -113q10 34 39 120l144 382l151 -389q21 -56 38 -114q10 43 35 111l134 364h116l-277 -743l-163 408q-22 54 -35 100q-16 -57 -34 -102z" />
    <glyph glyph-name="wacute" unicode="&#x1e83;" horiz-adv-x="750" 
d="M306 533l109 170h110l-159 -170h-60zM233 -28l-240 491h113l104 -223q14 -31 23 -94q1 35 24 84l113 250h9l115 -250q21 -45 22 -84q9 54 27 93l102 224h112l-241 -491l-107 241q-22 52 -34 92q-22 -65 -32 -88z" />
    <glyph glyph-name="Wdieresis" unicode="&#x1e84;" horiz-adv-x="939" 
d="M381 805q-25 0 -42 17.5t-17 42.5q0 23 17.5 40.5t41.5 17.5t41 -17t17 -41q0 -26 -16.5 -43t-41.5 -17zM559 805q-25 0 -42 17.5t-17 42.5q0 23 17.5 40.5t41.5 17.5t41 -17t17 -41q0 -26 -16.5 -43t-41.5 -17zM273 -28l-276 743h115l135 -361q25 -67 38 -113
q10 34 39 120l144 382l151 -389q21 -56 38 -114q10 43 35 111l134 364h116l-277 -743l-163 408q-22 54 -35 100q-16 -57 -34 -102z" />
    <glyph glyph-name="wdieresis" unicode="&#x1e85;" horiz-adv-x="750" 
d="M286 553q-25 0 -42 17.5t-17 42.5q0 23 17.5 40.5t41.5 17.5t41 -17t17 -41q0 -26 -16.5 -43t-41.5 -17zM464 553q-25 0 -42 17.5t-17 42.5q0 23 17.5 40.5t41.5 17.5t41 -17t17 -41q0 -26 -16.5 -43t-41.5 -17zM233 -28l-240 491h113l104 -223q14 -31 23 -94q1 35 24 84
l113 250h9l115 -250q21 -45 22 -84q9 54 27 93l102 224h112l-241 -491l-107 241q-22 52 -34 92q-22 -65 -32 -88z" />
    <glyph glyph-name="uni1E9E" unicode="&#x1e9e;" horiz-adv-x="724" 
d="M471 421q98 -6 153 -66t55 -144q0 -105 -61 -167.5t-160 -62.5q-80 0 -137 42.5t-75 119.5l93 43q12 -47 46 -72.5t78 -25.5q42 0 69.5 31.5t27.5 83.5q0 126 -133 126h-87v64l146 223h-288v-616h-116v715h533v-89z" />
    <glyph glyph-name="Ygrave" unicode="&#x1ef2;" horiz-adv-x="593" 
d="M306 785l-159 170h110l109 -170h-60zM236 0v327l-241 388h122l150 -243q12 -21 30 -57q13 35 30 60l154 240h116l-246 -388v-327h-115z" />
    <glyph glyph-name="ygrave" unicode="&#x1ef3;" horiz-adv-x="471" 
d="M245 533l-159 170h110l109 -170h-60zM44 -218l127 258l-170 423h117l85 -240q15 -44 22 -91q6 25 33 84l114 247h115l-334 -681h-109z" />
    <glyph glyph-name="endash" unicode="&#x2013;" horiz-adv-x="500" 
d="M0 195v71h500v-71h-500z" />
    <glyph glyph-name="emdash" unicode="&#x2014;" horiz-adv-x="1000" 
d="M0 195v71h1000v-71h-1000z" />
    <glyph glyph-name="quoteleft" unicode="&#x2018;" horiz-adv-x="302" 
d="M149 443l-89 30l120 258l62 -22z" />
    <glyph glyph-name="quoteright" unicode="&#x2019;" horiz-adv-x="302" 
d="M122 443l-62 23l93 265l89 -29z" />
    <glyph glyph-name="quotesinglbase" unicode="&#x201a;" horiz-adv-x="302" 
d="M122 -168l-62 22l93 266l89 -29z" />
    <glyph glyph-name="quotedblleft" unicode="&#x201c;" horiz-adv-x="442" 
d="M131 443l-90 30l120 258l62 -22zM308 443l-89 30l120 258l62 -22z" />
    <glyph glyph-name="quotedblright" unicode="&#x201d;" horiz-adv-x="442" 
d="M103 443l-62 23l93 265l89 -29zM281 443l-62 23l93 265l89 -29z" />
    <glyph glyph-name="quotedblbase" unicode="&#x201e;" horiz-adv-x="442" 
d="M103 -168l-62 22l93 266l89 -29zM281 -168l-62 22l93 266l89 -29z" />
    <glyph glyph-name="dagger" unicode="&#x2020;" horiz-adv-x="532" 
d="M216 -218v580h-175v89h175v264h100v-264h176v-89h-176v-580h-100z" />
    <glyph glyph-name="daggerdbl" unicode="&#x2021;" horiz-adv-x="532" 
d="M216 -218v240h-176v88h176v318h-176v88h176v199h100v-199h176v-88h-176v-318h176v-88h-176v-240h-100z" />
    <glyph glyph-name="bullet" unicode="&#x2022;" horiz-adv-x="590" 
d="M294 227q-60 0 -102 42.5t-42 102.5t42.5 102t102.5 42q59 0 101.5 -42t42.5 -102q0 -59 -42.5 -102t-102.5 -43z" />
    <glyph glyph-name="ellipsis" unicode="&#x2026;" horiz-adv-x="1000" 
d="M167 -9q-27 0 -45.5 18.5t-18.5 44.5q0 27 18.5 46t45.5 19t45.5 -19t18.5 -46q0 -26 -18.5 -44.5t-45.5 -18.5zM500 -9q-27 0 -45.5 18.5t-18.5 44.5q0 27 18.5 46t45.5 19t45.5 -19t18.5 -46q0 -26 -18.5 -44.5t-45.5 -18.5zM834 -9q-27 0 -45.5 18.5t-18.5 44.5
q0 27 18.5 46t45.5 19t45.5 -19t18.5 -46q0 -26 -18.5 -44.5t-45.5 -18.5z" />
    <glyph glyph-name="perthousand" unicode="&#x2030;" horiz-adv-x="1169" 
d="M188 346q-75 0 -117.5 49t-42.5 139q0 89 42.5 138.5t117.5 49.5t117 -49t42 -139q0 -89 -42 -138.5t-117 -49.5zM155 -19l417 741h67l-417 -741h-67zM187 403q72 0 72 131t-70 131q-73 0 -73 -132q0 -130 71 -130zM605 -19q-75 0 -117 50t-42 139t42.5 138.5t117.5 49.5
t117 -49t42 -139q0 -89 -42.5 -139t-117.5 -50zM981 -19q-75 0 -117 50t-42 139t42.5 138.5t117.5 49.5t117 -49t42 -139q0 -89 -42.5 -139t-117.5 -50zM604 39q73 0 73 131q0 130 -71 130q-73 0 -73 -131q0 -130 71 -130zM980 39q73 0 73 131q0 130 -71 130q-73 0 -73 -131
q0 -130 71 -130z" />
    <glyph glyph-name="guilsinglleft" unicode="&#x2039;" horiz-adv-x="306" 
d="M163 30l-124 199l124 199l68 -41l-101 -158l101 -158z" />
    <glyph glyph-name="guilsinglright" unicode="&#x203a;" horiz-adv-x="266" 
d="M107 30l-68 41l101 158l-101 158l68 41l124 -199z" />
    <glyph glyph-name="fraction" unicode="&#x2044;" horiz-adv-x="167" 
d="M-167 -19l433 741h67l-433 -741h-67z" />
    <glyph glyph-name="zero.superior" unicode="&#x2070;" 
d="M365 487q0 -104 -44.5 -160.5t-121.5 -56.5q-78 0 -121.5 57t-43.5 165q0 107 44 164.5t122 57.5q79 0 122 -57.5t43 -169.5zM198 330q90 0 90 163q0 79 -22.5 120.5t-64.5 41.5q-90 0 -90 -164q0 -77 23 -119t64 -42z" />
    <glyph glyph-name="four.superior" unicode="&#x2074;" 
d="M245 367h-225l266 348h28v-298h52v-50h-52v-86h-69v86zM131 417h114v116q0 18 2 42z" />
    <glyph glyph-name="five.superior" unicode="&#x2075;" 
d="M71 387q34 -60 104 -60q51 0 78.5 27t27.5 71q0 43 -28.5 69.5t-81.5 26.5q-32 0 -61 -13.5t-43 -31.5l-20 5l56 225h231v-56h-189l-27 -99q34 18 83 18q71 0 111 -39t40 -103q0 -70 -48 -113.5t-132 -43.5q-98 0 -147 66z" />
    <glyph glyph-name="six.superior" unicode="&#x2076;" 
d="M151 542q28 14 70 14q66 0 106 -39t40 -100q0 -67 -44 -107t-122 -40q-74 0 -115 39t-41 105q0 34 16 72t31 60.5t55 78.5l75 107l53 -28zM118 413q0 -39 23.5 -62t61.5 -23q42 0 66 23t24 62q0 41 -23.5 63.5t-66.5 22.5q-38 0 -61.5 -24t-23.5 -62z" />
    <glyph glyph-name="seven.superior" unicode="&#x2077;" 
d="M269 650h-205v56h305l-221 -442l-60 26z" />
    <glyph glyph-name="eight.superior" unicode="&#x2078;" 
d="M122 508q-70 26 -70 93q0 52 37.5 82.5t109.5 30.5q73 0 110.5 -31t37.5 -85q0 -30 -18 -54.5t-52 -35.5q39 -12 61.5 -43t22.5 -69q0 -59 -41 -92.5t-121 -33.5q-79 0 -120 33.5t-41 91.5q0 39 22.5 70t61.5 43zM200 658q-35 0 -54 -16.5t-19 -43.5q0 -57 72 -57
q73 0 73 57q0 27 -18 43.5t-54 16.5zM199 327q89 0 89 74q0 35 -23 55t-66 20t-65.5 -20t-22.5 -55q0 -74 88 -74z" />
    <glyph glyph-name="nine.superior" unicode="&#x2079;" 
d="M261 442q-28 -14 -70 -14q-66 0 -106 39t-40 100q0 67 44 107t122 40q74 0 115 -39t41 -105q0 -34 -16 -72t-31 -60.5t-55 -78.5l-75 -107l-53 28zM294 571q0 39 -23.5 62t-61.5 23q-42 0 -66 -23t-24 -62q0 -41 23.5 -63.5t66.5 -22.5q38 0 61.5 24t23.5 62z" />
    <glyph glyph-name="uni207A" unicode="&#x207a;" 
d="M174 281v155h-150v49h150v154h50v-154h151v-49h-151v-155h-50z" />
    <glyph glyph-name="uni207B" unicode="&#x207b;" 
d="M24 440v50h351v-50h-351z" />
    <glyph glyph-name="uni207C" unicode="&#x207c;" 
d="M24 496v49h351v-49h-351zM24 375v49h351v-49h-351z" />
    <glyph glyph-name="uni207D" unicode="&#x207d;" horiz-adv-x="163" 
d="M100 153q-70 128 -70 289q0 168 70 292l53 -16q-61 -121 -61 -275q0 -162 61 -273z" />
    <glyph glyph-name="uni207E" unicode="&#x207e;" horiz-adv-x="163" 
d="M63 153l-53 17q61 111 61 273q0 154 -61 275l53 16q70 -124 70 -292q0 -161 -70 -289z" />
    <glyph glyph-name="zero.inferior" unicode="&#x2080;" 
d="M365 77q0 -104 -44.5 -160.5t-121.5 -56.5q-78 0 -121.5 57t-43.5 165q0 107 44 164.5t122 57.5q79 0 122 -57.5t43 -169.5zM198 -80q90 0 90 163q0 79 -22.5 120.5t-64.5 41.5q-90 0 -90 -164q0 -77 23 -119t64 -42z" />
    <glyph glyph-name="one.inferior" unicode="&#x2081;" 
d="M175 241h-98l30 55h137v-425h-69v370z" />
    <glyph glyph-name="two.inferior" unicode="&#x2082;" 
d="M330 -129h-316l176 192q63 69 63 113q0 32 -20.5 50t-56.5 18q-32 0 -53.5 -18t-23.5 -48h-74q0 57 42.5 91.5t114.5 34.5q68 0 107.5 -32t39.5 -87q0 -46 -27.5 -87t-90.5 -108l-61 -63h180v-56z" />
    <glyph glyph-name="three.inferior" unicode="&#x2083;" 
d="M104 -14v-4q0 -30 22 -47.5t60 -17.5q90 0 90 76q0 77 -96 77h-14v56q2 0 6.5 -0.5t7.5 -0.5q84 0 84 63q0 28 -19.5 44t-51.5 16q-72 0 -74 -57h-69q3 54 40.5 83.5t104.5 29.5q65 0 103 -30.5t38 -83.5q0 -39 -21.5 -64.5t-59.5 -30.5q92 -16 92 -111
q0 -57 -43.5 -90.5t-120.5 -33.5q-68 0 -109.5 34t-43.5 92h74z" />
    <glyph glyph-name="four.inferior" unicode="&#x2084;" 
d="M245 -43h-225l266 348h28v-298h52v-50h-52v-86h-69v86zM131 7h114v116q0 18 2 42z" />
    <glyph glyph-name="five.inferior" unicode="&#x2085;" 
d="M71 -23q34 -60 104 -60q51 0 78.5 27t27.5 71q0 43 -28.5 69.5t-81.5 26.5q-32 0 -61 -13.5t-43 -31.5l-20 5l56 225h231v-56h-189l-27 -99q34 18 83 18q71 0 111 -39t40 -103q0 -70 -48 -113.5t-132 -43.5q-98 0 -147 66z" />
    <glyph glyph-name="six.inferior" unicode="&#x2086;" 
d="M151 132q28 14 70 14q66 0 106 -39t40 -100q0 -67 -44 -107t-122 -40q-74 0 -115 39t-41 105q0 34 16 72t31 60.5t55 78.5l75 107l53 -28zM118 3q0 -39 23.5 -62t61.5 -23q42 0 66 23t24 62q0 41 -23.5 63.5t-66.5 22.5q-38 0 -61.5 -24t-23.5 -62z" />
    <glyph glyph-name="seven.inferior" unicode="&#x2087;" 
d="M269 240h-205v56h305l-221 -442l-60 26z" />
    <glyph glyph-name="eight.inferior" unicode="&#x2088;" 
d="M122 98q-70 26 -70 93q0 52 37.5 82.5t109.5 30.5q73 0 110.5 -31t37.5 -85q0 -30 -18 -54.5t-52 -35.5q39 -12 61.5 -43t22.5 -69q0 -59 -41 -92.5t-121 -33.5q-79 0 -120 33.5t-41 91.5q0 39 22.5 70t61.5 43zM200 248q-35 0 -54 -16.5t-19 -43.5q0 -57 72 -57
q73 0 73 57q0 27 -18 43.5t-54 16.5zM199 -83q89 0 89 74q0 35 -23 55t-66 20t-65.5 -20t-22.5 -55q0 -74 88 -74z" />
    <glyph glyph-name="nine.inferior" unicode="&#x2089;" 
d="M261 32q-28 -14 -70 -14q-66 0 -106 39t-40 100q0 67 44 107t122 40q74 0 115 -39t41 -105q0 -34 -16 -72t-31 -60.5t-55 -78.5l-75 -107l-53 28zM294 161q0 39 -23.5 62t-61.5 23q-42 0 -66 -23t-24 -62q0 -41 23.5 -63.5t66.5 -22.5q38 0 61.5 24t23.5 62z" />
    <glyph glyph-name="uni208A" unicode="&#x208a;" 
d="M174 -129v155h-150v49h150v154h50v-154h151v-49h-151v-155h-50z" />
    <glyph glyph-name="uni208B" unicode="&#x208b;" 
d="M24 30v50h351v-50h-351z" />
    <glyph glyph-name="uni208C" unicode="&#x208c;" 
d="M24 86v49h351v-49h-351zM24 -35v49h351v-49h-351z" />
    <glyph glyph-name="uni208D" unicode="&#x208d;" horiz-adv-x="163" 
d="M100 -257q-70 128 -70 289q0 168 70 292l53 -16q-61 -121 -61 -275q0 -162 61 -273z" />
    <glyph glyph-name="uni208E" unicode="&#x208e;" horiz-adv-x="163" 
d="M63 -257l-53 17q61 111 61 273q0 154 -61 275l53 16q70 -124 70 -292q0 -161 -70 -289z" />
    <glyph glyph-name="Euro" unicode="&#x20ac;" horiz-adv-x="604" 
d="M382 -19q-115 0 -196.5 76t-103.5 208h-82l12 54h65q-1 12 -1 33q0 5 2 39h-78l12 55h72q23 128 105.5 202t199.5 74q94 0 173 -64v-118q-69 81 -164 81q-73 0 -126.5 -47.5t-68.5 -127.5h285l-17 -55h-277q-2 -30 -2 -49v-6q0 -7 1 -17h255l-18 -54h-230q16 -85 68 -134
t124 -49q91 0 174 76l-4 -119q-81 -58 -180 -58z" />
    <glyph glyph-name="uni20B9" unicode="&#x20b9;" horiz-adv-x="604" 
d="M463 474q-18 -135 -161 -154l246 -320h-126l-238 315l22 82q68 0 100 16.5t42 60.5h-297l16 70h284q-4 58 -39.5 76t-115.5 18h-167l15 70h526l-20 -70h-124q32 -43 38 -94h89l-22 -70h-68z" />
    <glyph glyph-name="uni20BA" unicode="&#x20ba;" horiz-adv-x="604" 
d="M483 344l102 1q-43 -184 -129.5 -264.5t-241.5 -80.5h-87v302l-102 -34l12 65l90 30v69l-102 -34l12 65l90 30v215h106v-180l240 80l-17 -65l-223 -75v-70l240 80l-17 -65l-223 -75v-246q203 0 250 252z" />
    <glyph glyph-name="uni20BD" unicode="&#x20bd;" horiz-adv-x="604" 
d="M484 671q33 -24 52.5 -66.5t19.5 -93.5t-19.5 -94t-52.5 -67q-33 -23 -73 -29.5t-106 -6.5h-67v-69h144v-90h-144v-155h-106v155h-60v90h60v69h-60v95h60v299h173q66 0 106 -6.5t73 -30.5zM275 409q88 0 124.5 18t36.5 77q0 61 -37.5 82.5t-123.5 21.5h-37v-199h37z" />
    <glyph glyph-name="uni2113" unicode="&#x2113;" horiz-adv-x="530" 
d="M409 97l35 -50q-70 -62 -153 -62q-65 0 -100 36.5t-35 105.5v56l-62 -52l-37 51l99 82l-1 266q0 89 39 140.5t106 51.5q59 0 93.5 -39t34.5 -106q0 -141 -188 -322v-113q0 -41 19 -63.5t54 -22.5q46 0 96 41zM297 658q-26 0 -41.5 -30t-15.5 -82v-207q109 126 109 232
q0 39 -14.5 63t-37.5 24z" />
    <glyph glyph-name="published" unicode="&#x2117;" horiz-adv-x="833" 
d="M416 -5q-149 0 -256 109q-105 107 -105 253q0 149 109 258q103 103 252 103q153 0 259 -108q103 -105 103 -253q0 -153 -106 -256q-109 -106 -256 -106zM412 49q130 0 223 90q90 87 90 213q0 131 -88 221q-92 92 -220 92q-127 0 -215 -88q-93 -95 -93 -220t89 -216
q92 -92 214 -92zM270 161v405h167q158 0 158 -117q0 -67 -40 -95t-118 -28h-80v-165h-87zM357 385h49q55 0 78 11.5t23 48.5q0 39 -23.5 52t-77.5 13h-49v-125z" />
    <glyph glyph-name="trademark" unicode="&#x2122;" horiz-adv-x="833" 
d="M193 448v219h-83v46h228v-46h-82v-219h-63zM395 448v265h83l69 -176l65 176h83v-265h-56v209l-78 -209h-29l-81 209v-209h-56z" />
    <glyph glyph-name="Omega" unicode="&#x2126;" horiz-adv-x="788" 
d="M45 0v104h192v45q-88 25 -140 102t-52 167q0 134 96 223.5t253 89.5t253 -89.5t96 -223.5q0 -90 -52 -167t-140 -102v-45h192v-104h-290v206q85 18 127 72.5t42 133.5q0 91 -61 151.5t-167 60.5t-167 -60.5t-61 -151.5q0 -79 42 -133.5t127 -72.5v-206h-290z" />
    <glyph glyph-name="estimated" unicode="&#x212e;" horiz-adv-x="600" 
d="M302 -19q-121 0 -196 83t-75 207q0 125 74.5 207.5t196.5 82.5q121 0 196.5 -81.5t75.5 -209.5h-425v-185q63 -63 153 -63q66 0 114 29.5t88 95.5l38 -24q-48 -76 -103 -109t-137 -33zM149 311h307v147q-69 64 -155 64t-152 -64v-147z" />
    <glyph glyph-name="partialdiff" unicode="&#x2202;" horiz-adv-x="571" 
d="M263 722q126 0 194.5 -96t68.5 -279q0 -176 -67.5 -271t-190.5 -95q-103 0 -168 64t-65 165t63 168.5t157 67.5q93 0 159 -71v17q0 112 -44.5 173.5t-120.5 61.5q-59 0 -118 -47l-47 79q77 63 179 63zM265 76q58 0 99.5 45t48.5 145q-23 45 -60.5 70t-81.5 25
q-56 0 -90 -40t-34 -106q0 -63 32.5 -101t85.5 -38z" />
    <glyph glyph-name="Delta" unicode="&#x2206;" horiz-adv-x="706" 
d="M10 0l288 708h101l297 -708h-686zM347 585l-186 -493h380z" />
    <glyph glyph-name="product" unicode="&#x220f;" horiz-adv-x="748" 
d="M82 -218v933h584v-933h-116v829h-352v-829h-116z" />
    <glyph glyph-name="summation" unicode="&#x2211;" horiz-adv-x="626" 
d="M25 -218v94l290 377l-277 369v93h551v-104h-404l268 -358l-291 -367h439v-104h-576z" />
    <glyph glyph-name="minus" unicode="&#x2212;" horiz-adv-x="833" 
d="M124 257v83h585v-83h-585z" />
    <glyph glyph-name="uni2215" unicode="&#x2215;" horiz-adv-x="400" 
d="M-50 -19l433 741h67l-433 -741h-67z" />
    <glyph glyph-name="uni2219" unicode="&#x2219;" horiz-adv-x="600" 
d="M294 227q-60 0 -102 42.5t-42 102.5t42.5 102t102.5 42q59 0 101.5 -42t42.5 -102q0 -59 -42.5 -102t-102.5 -43z" />
    <glyph glyph-name="radical" unicode="&#x221a;" horiz-adv-x="594" 
d="M261 -218l-156 345h-105l45 92h125l136 -306l178 873h100l-211 -1004h-112z" />
    <glyph glyph-name="infinity" unicode="&#x221e;" horiz-adv-x="907" 
d="M642 126q-91 0 -188 107q-48 -51 -90.5 -78.5t-94.5 -27.5q-80 0 -124.5 48t-44.5 124q0 74 43.5 122.5t121.5 48.5q90 0 189 -114q95 115 191 115q77 0 119.5 -48t42.5 -123q0 -76 -43 -125t-122 -49zM644 212q35 0 55.5 24t20.5 61q0 38 -21.5 63.5t-57.5 25.5
q-51 0 -139 -90l44 -40.5t44 -28.5t54 -15zM268 212q57 0 139 84q-91 89 -143 89q-33 0 -54 -25.5t-21 -62.5q0 -38 21.5 -61.5t57.5 -23.5z" />
    <glyph glyph-name="integral" unicode="&#x222b;" horiz-adv-x="332" 
d="M62 -218q-30 0 -72 8v96q29 -13 52 -13q39 0 55 24.5t16 78.5v611q0 92 38 136t119 44q30 0 72 -8v-96q-29 13 -52 13q-39 0 -55 -24.5t-16 -78.5v-611q0 -92 -38 -136t-119 -44z" />
    <glyph glyph-name="approxequal" unicode="&#x2248;" horiz-adv-x="828" 
d="M124 316q7 71 43.5 119t104.5 48q49 0 148 -38t146 -38q32 0 50.5 22t24.5 56h63q-7 -71 -43.5 -119t-104.5 -48q-48 0 -150 38t-140 38q-34 0 -53.5 -22t-25.5 -56h-63zM124 110q7 71 43.5 119t104.5 48q49 0 148 -38t146 -38q32 0 50.5 22t24.5 56h63
q-7 -71 -43.5 -119t-104.5 -48q-48 0 -150 38t-140 38q-34 0 -53.5 -22t-25.5 -56h-63z" />
    <glyph glyph-name="notequal" unicode="&#x2260;" horiz-adv-x="833" 
d="M709 358h-217l-69 -120h286v-81h-332l-86 -150h-83l86 150h-170v81h216l69 120h-285v82h332l86 150h83l-86 -150h170v-82z" />
    <glyph glyph-name="lessequal" unicode="&#x2264;" horiz-adv-x="833" 
d="M704 113l-575 216v78l575 217v-90l-456 -166l456 -166v-89zM129 0v83h575v-83h-575z" />
    <glyph glyph-name="greaterequal" unicode="&#x2265;" horiz-adv-x="833" 
d="M129 113v89l456 166l-456 166v90l575 -217v-78zM129 0v83h575v-83h-575z" />
    <glyph glyph-name="lozenge" unicode="&#x25ca;" horiz-adv-x="593" 
d="M245 -35l-173 386l173 387h102l174 -387l-174 -386h-102zM296 51l128 300l-128 301l-127 -301z" />
    <glyph glyph-name="uniF8FF" unicode="&#xf8ff;" horiz-adv-x="480" 
d="M0 0v757h480v-757h-480zM73 71h334v615h-334v-615z" />
    <glyph glyph-name="uniFEFF" unicode="&#xfeff;" horiz-adv-x="0" 
 />
    <glyph glyph-name="f_i" horiz-adv-x="562" 
d="M88 0v370h-81v93h81v124q0 92 38 136t119 44q35 0 72 -10v-96q-26 15 -52 15q-39 0 -55 -24.5t-16 -78.5v-110h111v-93h-111v-370h-106zM432 596q-28 0 -47.5 20t-19.5 47t19.5 46.5t47.5 19.5t47 -19t19 -47t-19 -47.5t-47 -19.5zM378 0v463h107v-463h-107z" />
    <glyph glyph-name="f_l" horiz-adv-x="563" 
d="M88 0v370h-81v93h81v124q0 92 38 136t119 44q35 0 72 -10v-96q-26 15 -52 15q-39 0 -55 -24.5t-16 -78.5v-110h111v-93h-111v-370h-106zM378 0v757h107v-757h-107z" />
    <glyph glyph-name="one.numerator" 
d="M166 654h-93l28 51h132v-396h-67v345z" />
    <glyph glyph-name="two.numerator" 
d="M342 309h-302l168 179q61 66 61 105q0 30 -19.5 47t-54.5 17q-31 0 -51 -17t-23 -45h-70q0 54 40.5 86t109.5 32q65 0 102.5 -29.5t37.5 -81.5q0 -43 -26.5 -82t-86.5 -100l-57 -59h171v-52z" />
    <glyph glyph-name="three.numerator" 
d="M110 415v-3q0 -28 21 -44.5t58 -16.5q41 0 63 18.5t22 52.5q0 72 -91 72q-2 0 -6.5 -0.5t-7.5 -0.5v53q3 0 7 -0.5t6 -0.5q81 0 81 59q0 26 -18 41t-49 15q-69 0 -72 -54h-66q8 106 139 106q63 0 99 -28.5t36 -77.5q0 -37 -20.5 -60.5t-57.5 -28.5q88 -14 88 -104
q0 -52 -41.5 -84t-114.5 -32q-65 0 -105 32t-41 86h70z" />
    <glyph glyph-name="four.numerator" 
d="M247 390h-216l262 323h21v-277h55v-46h-55v-81h-67v81zM135 436h112v104q0 17 2 39z" />
    <glyph glyph-name="five.numerator" 
d="M81 406q31 -55 99 -55q44 0 68.5 25t24.5 66q0 39 -26 64t-74 25q-57 0 -94 -39l-25 4l53 209h215v-52h-170l-25 -91q32 17 74 17q66 0 103 -37.5t37 -97.5q0 -67 -43 -107t-120 -40q-91 0 -144 57z" />
    <glyph glyph-name="seven.numerator" 
d="M259 653h-199v52h295l-205 -416l-55 24z" />
    <glyph glyph-name="eight.numerator" 
d="M120 519q-62 27 -62 85q0 49 37 78.5t100 29.5q64 0 100.5 -30t36.5 -81q0 -59 -62 -82q34 -11 54.5 -39t20.5 -65q0 -55 -39 -86.5t-111 -31.5q-71 0 -110.5 31.5t-39.5 85.5q0 38 20.5 66t54.5 39zM196 658q-33 0 -51.5 -14.5t-18.5 -40.5q0 -25 18.5 -39t50.5 -14
q33 0 51 14t18 39q0 26 -18 40.5t-50 14.5zM195 351q39 0 61.5 18t22.5 50q0 33 -22.5 51.5t-61.5 18.5q-38 0 -60.5 -19t-22.5 -51t22 -50t61 -18z" />
    <glyph glyph-name="zero.numerator" 
d="M363 500q0 -94 -42.5 -148.5t-118.5 -54.5q-78 0 -120 55t-42 152t42.5 152.5t119.5 55.5q79 0 120 -55.5t41 -156.5zM200 355q46 0 69.5 39t23.5 111q0 70 -23.5 110t-66.5 40q-45 0 -69 -40t-24 -111q0 -69 24 -109t66 -40z" />
    <glyph glyph-name="six.numerator" 
d="M136 543q31 20 70 20q61 0 98 -36.5t37 -92.5q0 -61 -40 -99t-114 -38q-71 0 -108 36t-37 98q0 46 22 88t71 108l75 101l52 -25zM110 430q0 -34 22 -56.5t57 -22.5q38 0 60.5 22t22.5 57q0 36 -22.5 58t-60.5 22q-34 0 -56.5 -23.5t-22.5 -56.5z" />
    <glyph glyph-name="nine.numerator" 
d="M250 466q-31 -20 -70 -20q-61 0 -98 36.5t-37 92.5q0 61 40 99t114 38q71 0 108 -36t37 -98q0 -46 -22 -88t-71 -108l-75 -101l-52 25zM276 579q0 35 -22 57t-57 22q-38 0 -60.5 -22t-22.5 -57q0 -36 22.5 -58t60.5 -22q34 0 56.5 23.5t22.5 56.5z" />
    <glyph glyph-name="zero.denominator" 
d="M363 192q0 -94 -42.5 -148.5t-118.5 -54.5q-78 0 -120 55t-42 152t42.5 152.5t119.5 55.5q79 0 120 -55.5t41 -156.5zM200 47q46 0 69.5 39t23.5 111q0 70 -23.5 110t-66.5 40q-45 0 -69 -40t-24 -111q0 -69 24 -109t66 -40z" />
    <glyph glyph-name="one.denominator" 
d="M166 346h-93l28 51h132v-396h-67v345z" />
    <glyph glyph-name="two.denominator" 
d="M342 0h-302l168 179q61 66 61 105q0 30 -19.5 47t-54.5 17q-31 0 -51 -17t-23 -45h-70q0 54 40.5 86t109.5 32q65 0 102.5 -29.5t37.5 -81.5q0 -43 -26.5 -82t-86.5 -100l-57 -59h171v-52z" />
    <glyph glyph-name="three.denominator" 
d="M110 107v-3q0 -28 21 -44.5t58 -16.5q41 0 63 18.5t22 52.5q0 72 -91 72q-2 0 -6.5 -0.5t-7.5 -0.5v53q3 0 7 -0.5t6 -0.5q81 0 81 59q0 26 -18 41t-49 15q-69 0 -72 -54h-66q8 106 139 106q63 0 99 -28.5t36 -77.5q0 -37 -20.5 -60.5t-57.5 -28.5q88 -14 88 -104
q0 -52 -41.5 -84t-114.5 -32q-65 0 -105 32t-41 86h70z" />
    <glyph glyph-name="four.denominator" 
d="M247 81h-216l262 323h21v-277h55v-46h-55v-81h-67v81zM135 127h112v104q0 17 2 39z" />
    <glyph glyph-name="five.denominator" 
d="M81 98q31 -55 99 -55q44 0 68.5 25t24.5 66q0 39 -26 64t-74 25q-57 0 -94 -39l-25 4l53 209h215v-52h-170l-25 -91q32 17 74 17q66 0 103 -37.5t37 -97.5q0 -67 -43 -107t-120 -40q-91 0 -144 57z" />
    <glyph glyph-name="six.denominator" 
d="M136 235q31 20 70 20q61 0 98 -36.5t37 -92.5q0 -61 -40 -99t-114 -38q-71 0 -108 36t-37 98q0 46 22 88t71 108l75 101l52 -25zM110 122q0 -34 22 -56.5t57 -22.5q38 0 60.5 22t22.5 57q0 36 -22.5 58t-60.5 22q-34 0 -56.5 -23.5t-22.5 -56.5z" />
    <glyph glyph-name="seven.denominator" 
d="M259 345h-199v52h295l-205 -416l-55 24z" />
    <glyph glyph-name="eight.denominator" 
d="M120 211q-62 27 -62 85q0 49 37 78.5t100 29.5q64 0 100.5 -30t36.5 -81q0 -59 -62 -82q34 -11 54.5 -39t20.5 -65q0 -55 -39 -86.5t-111 -31.5q-71 0 -110.5 31.5t-39.5 85.5q0 38 20.5 66t54.5 39zM196 350q-33 0 -51.5 -14.5t-18.5 -40.5q0 -25 18.5 -39t50.5 -14
q33 0 51 14t18 39q0 26 -18 40.5t-50 14.5zM195 43q39 0 61.5 18t22.5 50q0 33 -22.5 51.5t-61.5 18.5q-38 0 -60.5 -19t-22.5 -51t22 -50t61 -18z" />
    <glyph glyph-name="nine.denominator" 
d="M250 158q-31 -20 -70 -20q-61 0 -98 36.5t-37 92.5q0 61 40 99t114 38q71 0 108 -36t37 -98q0 -46 -22 -88t-71 -108l-75 -101l-52 25zM276 271q0 35 -22 57t-57 22q-38 0 -60.5 -22t-22.5 -57q0 -36 22.5 -58t60.5 -22q34 0 56.5 23.5t22.5 56.5z" />
    <glyph glyph-name="acute.cap" horiz-adv-x="279" 
d="M30 785l109 170h110l-159 -170h-60z" />
    <glyph glyph-name="breve.cap" horiz-adv-x="350" 
d="M176 799q-68 0 -103.5 31t-42.5 98h59q9 -61 87 -61q77 0 86 61h58q-8 -67 -42 -98t-102 -31z" />
    <glyph glyph-name="caron.cap" horiz-adv-x="352" 
d="M125 785l-95 171h61l85 -115l85 115h61l-95 -171h-102z" />
    <glyph glyph-name="circumflex.cap" horiz-adv-x="352" 
d="M30 785l95 171h102l95 -171h-61l-85 115l-85 -115h-61z" />
    <glyph glyph-name="dieresis.cap" horiz-adv-x="355" 
d="M89 805q-25 0 -42 17.5t-17 42.5q0 23 17.5 40.5t41.5 17.5t41 -17t17 -41q0 -26 -16.5 -43t-41.5 -17zM267 805q-25 0 -42 17.5t-17 42.5q0 23 17.5 40.5t41.5 17.5t41 -17t17 -41q0 -26 -16.5 -43t-41.5 -17z" />
    <glyph glyph-name="dotaccent.cap" horiz-adv-x="184" 
d="M92 803q-26 0 -44 18t-18 44q0 25 18.5 43.5t43.5 18.5q26 0 44 -18.5t18 -43.5q0 -27 -17.5 -44.5t-44.5 -17.5z" />
    <glyph glyph-name="grave.cap" horiz-adv-x="279" 
d="M189 785l-159 170h110l109 -170h-60z" />
    <glyph glyph-name="hungarumlaut.cap" horiz-adv-x="374" 
d="M30 785l76 170h92l-125 -170h-43zM158 785l89 170h97l-139 -170h-47z" />
    <glyph glyph-name="macron.cap" horiz-adv-x="317" 
d="M30 829v69h257v-69h-257z" />
    <glyph glyph-name="ring.cap" horiz-adv-x="292" 
d="M146 732q-49 0 -82.5 33t-33.5 82t34 82.5t82 33.5t82 -34t34 -82t-33.5 -81.5t-82.5 -33.5zM146 792q23 0 39.5 16t16.5 39t-16.5 39.5t-39.5 16.5t-39 -16.5t-16 -39.5t16 -39t39 -16z" />
    <glyph glyph-name="tilde.cap" horiz-adv-x="346" 
d="M30 805q22 102 92 102q15 0 30 -4l57 -15q8 -2 23 -2q31 0 40 33h44q-9 -49 -34 -75.5t-61 -26.5q-13 0 -26 3l-61 16q-12 2 -18 2q-32 0 -42 -33h-44z" />
    <glyph glyph-name="caron.alt" horiz-adv-x="198" 
d="M85 575l-55 18l59 161l79 -18z" />
    <glyph glyph-name="zero.lf" horiz-adv-x="612" 
d="M563 344q0 -171 -69 -267t-188 -96q-121 0 -189 97t-68 274q0 176 68.5 273t189.5 97q122 0 189 -97.5t67 -280.5zM304 81q143 0 143 272q0 132 -35.5 201t-103.5 69q-143 0 -143 -272q0 -131 36.5 -200.5t102.5 -69.5z" />
    <glyph glyph-name="one.lf" horiz-adv-x="324" 
d="M138 616h-148l45 92h209v-708h-106v616z" />
    <glyph glyph-name="two.lf" horiz-adv-x="519" 
d="M489 0h-479l267 320q96 116 96 188q0 53 -31.5 83.5t-86.5 30.5q-49 0 -80.5 -30.5t-35.5 -80.5h-112q0 96 64.5 153.5t173.5 57.5q103 0 163 -53t60 -145q0 -77 -42 -146.5t-138 -179.5l-91 -105h272v-93z" />
    <glyph glyph-name="three.lf" horiz-adv-x="516" 
d="M116 191v-6q0 -49 34 -78.5t91 -29.5q65 0 100.5 32.5t35.5 93.5q0 129 -145 129q-3 0 -10.5 -0.5t-11.5 -0.5v94q4 0 10.5 -0.5t10.5 -0.5q128 0 128 105q0 46 -29 73t-78 27q-52 0 -81.5 -25t-31.5 -71h-105q5 91 62 140t159 49q99 0 156 -51.5t57 -138.5
q0 -66 -32.5 -108t-90.5 -51q139 -25 139 -185q0 -94 -66 -150.5t-181 -56.5q-103 0 -166 57t-66 153h111z" />
    <glyph glyph-name="four.lf" horiz-adv-x="541" 
d="M333 145h-343l416 577h33v-496h87v-81h-87v-145h-106v145zM154 226h179v186q0 30 3 71z" />
    <glyph glyph-name="five.lf" horiz-adv-x="538" 
d="M80 171q52 -95 151 -95q71 0 115 45t44 119q0 71 -46 115.5t-121 44.5q-92 0 -151 -61l-29 6l89 363h338v-94h-268l-42 -158q57 24 111 24q102 0 166 -65.5t64 -170.5q0 -119 -74 -191t-201 -72q-146 0 -223 105z" />
    <glyph glyph-name="six.lf" horiz-adv-x="569" 
d="M216 434q48 23 93 23q95 0 157.5 -64.5t62.5 -166.5q0 -110 -69.5 -177.5t-183.5 -67.5q-107 0 -171.5 66t-64.5 173q0 43 10.5 82.5t41 92t48 78.5l69.5 99l125 177l89 -45zM151 219q0 -64 36 -103t92 -39q64 0 100.5 38t36.5 104q0 67 -36 105t-100 38q-57 0 -93 -39.5
t-36 -103.5z" />
    <glyph glyph-name="seven.lf" horiz-adv-x="483" 
d="M341 616h-331v92h493l-360 -735l-94 42z" />
    <glyph glyph-name="eight.lf" horiz-adv-x="571" 
d="M162 378q-103 44 -103 153q0 85 61 138t165 53q106 0 166.5 -53.5t60.5 -142.5q0 -108 -103 -148q59 -20 93 -69.5t34 -116.5q0 -98 -65.5 -154.5t-185.5 -56.5q-119 0 -184.5 56.5t-65.5 152.5q0 70 33 119.5t94 68.5zM287 628q-53 0 -83.5 -27t-30.5 -72t29.5 -70.5
t82.5 -25.5q54 0 83.5 25.5t29.5 70.5q0 46 -29.5 72.5t-81.5 26.5zM285 76q65 0 102 33.5t37 90.5q0 59 -37 92t-102 33q-64 0 -101 -33.5t-37 -91.5t36.5 -91t101.5 -33z" />
    <glyph glyph-name="nine.lf" horiz-adv-x="565" 
d="M348 269q-45 -22 -93 -22q-95 0 -157.5 64t-62.5 166q0 110 69.5 177.5t183.5 67.5q107 0 172 -65.5t65 -172.5q0 -43 -10.5 -82.5t-41 -92t-48 -78.5l-69.5 -99l-126 -177l-88 45zM413 485q0 64 -35.5 103t-91.5 39q-64 0 -101 -38t-37 -104q0 -67 36 -105.5t100 -38.5
q57 0 93 40t36 104z" />
    <glyph glyph-name="cent.lf" horiz-adv-x="471" 
d="M434 469q-55 35 -130 41v-292q88 14 130 47v-102q-55 -32 -130 -35v-99h-51v101q-96 7 -154.5 71t-58.5 158q0 95 56.5 158.5t156.5 78.5v79h51v-77q62 -2 130 -29v-100zM253 509q-52 -9 -84.5 -49t-32.5 -94q0 -60 31 -99t86 -49v291z" />
    <glyph glyph-name="currency.lf" horiz-adv-x="606" 
d="M81 638l99 -99q53 40 122 40q70 0 123 -40l99 99l46 -45l-100 -100q39 -53 39 -121t-39 -121l100 -100l-46 -45l-99 100q-55 -40 -122 -40q-70 0 -123 40l-99 -100l-45 45l99 100q-39 53 -39 121t39 121l-99 100zM303 514q-58 0 -100 -42t-42 -100q0 -59 41.5 -100
t100.5 -41t100.5 41t41.5 100q0 58 -42 100t-100 42z" />
    <glyph glyph-name="dollar.lf" horiz-adv-x="488" 
d="M97 196q24 -84 118 -94v223q-98 40 -144.5 89t-46.5 117q0 77 50.5 127.5t140.5 61.5v55h51v-56q141 -12 179 -113l-90 -45q-32 51 -89 61v-196q111 -52 156.5 -97.5t45.5 -118.5q0 -88 -52.5 -142.5t-149.5 -66.5v-83h-51v81q-175 12 -210 156zM215 619q-68 -20 -68 -81
q0 -58 68 -94v175zM266 105q82 21 82 98q0 61 -82 101v-199z" />
    <glyph glyph-name="Euro.lf" horiz-adv-x="598" 
d="M569 39q-81 -58 -180 -58q-115 0 -196.5 76t-103.5 208h-82l12 54h65q-1 12 -1 33q0 5 2 39h-78l12 55h72q23 128 105.5 202t199.5 74q94 0 173 -64v-118q-69 81 -164 81q-73 0 -126.5 -47.5t-68.5 -127.5h285l-17 -55h-277q-2 -30 -2 -49v-6q0 -7 1 -17h255l-18 -54
h-230q16 -85 68 -134t124 -49q91 0 174 76z" />
    <glyph glyph-name="florin.lf" horiz-adv-x="398" 
d="M190 12q-16 -128 -49 -179.5t-114 -51.5q-35 0 -77 12l20 99q27 -11 41 -11q39 0 52 32t25 129l41 340h-102l7 81h103l10 75q13 95 49.5 140t102.5 45q41 0 89 -17l-9 -92q-33 13 -56 13q-35 0 -48.5 -24.5t-22.5 -86.5l-7 -53h113l-8 -81h-113z" />
    <glyph glyph-name="uni20BA.lf" horiz-adv-x="590" 
d="M473 344l102 1q-43 -184 -129.5 -264.5t-241.5 -80.5h-87v302l-102 -34l12 65l90 30v69l-102 -34l12 65l90 30v215h106v-180l240 80l-17 -65l-223 -75v-70l240 80l-17 -65l-223 -75v-246q203 0 250 252z" />
    <glyph glyph-name="uni20BD.lf" horiz-adv-x="519" 
d="M432 671q33 -24 52.5 -66.5t19.5 -93.5t-19.5 -94t-52.5 -67q-33 -23 -73 -29.5t-106 -6.5h-67v-69h144v-90h-144v-155h-106v155h-60v90h60v69h-60v95h60v299h173q66 0 106 -6.5t73 -30.5zM223 409q88 0 124.5 18t36.5 77q0 61 -37.5 82.5t-123.5 21.5h-37v-199h37z" />
    <glyph glyph-name="uni20B9.lf" horiz-adv-x="533" 
d="M431 474q-18 -135 -161 -154l246 -320h-126l-238 315l22 82q68 0 100 16.5t42 60.5h-297l16 70h284q-4 58 -39.5 76t-115.5 18h-167l15 70h526l-20 -70h-124q32 -43 38 -94h89l-22 -70h-68z" />
    <glyph glyph-name="sterling.lf" horiz-adv-x="604" 
d="M36 24q57 85 128 91q23 46 23 87q0 40 -23 84h-122v69h92q-44 73 -44 146q0 96 66.5 158.5t176.5 62.5q103 0 162 -55.5t68 -160.5l-109 -15q-9 137 -126 137q-55 0 -89 -34t-34 -88q0 -8 1 -16.5t2.5 -16t4.5 -18.5t5 -17t7 -19.5t7 -19.5t8.5 -22t8.5 -22h175v-69h-153
q8 -25 8 -53q0 -68 -47 -118h3q40 0 102 -22t87 -22q71 0 101 52l65 -58q-48 -86 -146 -86q-47 0 -125.5 23.5t-111.5 23.5q-54 0 -107 -51z" />
    <glyph glyph-name="yen.lf" horiz-adv-x="604" 
d="M240 282h-235v71h217l-49 80h-168v71h125l-130 205h117l150 -241q12 -19 30 -59q12 34 30 62l154 238h112l-130 -205h125v-71h-171l-50 -80h221v-71h-241v-282h-107v282z" />
    <glyph glyph-name="cedilla.cap" horiz-adv-x="302" 
d="M30 -150q76 -18 118 -18q50 0 50 33q0 36 -65 36q-3 0 -9.5 -0.5t-10.5 -0.5v100h42v-52h8q109 0 109 -85q0 -40 -30 -62t-86 -22q-49 0 -126 19v52z" />
    <glyph glyph-name="ogonek.cap" horiz-adv-x="220" 
d="M178 9q-71 -62 -71 -110q0 -40 45 -40q19 0 43 8v-74q-33 -11 -66 -11q-43 0 -71.5 20t-28.5 63q0 73 107 154z" />
    </font>
</defs>
</svg>
