<?xml version="1.0" standalone="no"?>
<!DOCTYPE svg PUBLIC "-//W3C//DTD SVG 1.1//EN" "http://www.w3.org/Graphics/SVG/1.1/DTD/svg11.dtd" >
<svg>
<metadata>
Created by FontForge 20090622 at Mon Oct 23 15:36:48 2017
 By deploy user
Font software Copyright 1998, 2007 Monotype Imaging Inc. All rights reserved.
</metadata>
<defs>
<font id="RotisSansSerifStd-Bold" horiz-adv-x="365" >
  <font-face 
    font-family="Rotis Sans Serif Std"
    font-weight="700"
    font-stretch="normal"
    units-per-em="1000"
    panose-1="2 11 8 3 3 2 2 2 3 4"
    ascent="701"
    descent="-299"
    x-height="476"
    cap-height="690"
    bbox="-56 -274 1196 971"
    underline-thickness="50"
    underline-position="-75"
    unicode-range="U+0020-U+FB04"
  />
<missing-glyph horiz-adv-x="500" 
d="M487 0h-475v665h475v-665zM250 375l161 243h-323zM60 91l161 242l-161 242v-484zM440 90v485l-162 -242zM411 48l-161 242l-162 -242h323z" />
    <glyph glyph-name="f_f" unicode="ff" horiz-adv-x="661" 
d="M510 0h-90v406h-219v-406h-90v406h-86v70h86v55q0 170 182 170q56 0 96 -9v-75q-48 14 -95 14q-46 0 -69.5 -29.5t-23.5 -76.5v-49h219v55q0 170 182 170q56 0 96 -9v-75q-48 14 -95 14q-46 0 -69.5 -29.5t-23.5 -76.5v-49h142v-70h-142v-406z" />
    <glyph glyph-name="fi" unicode="fi" horiz-adv-x="593" 
d="M517 588h-108v102h108v-102zM509 0h-90v476h90v-476zM201 0h-90v406h-87v70h87v55q0 170 182 170q56 0 96 -9v-75q-48 14 -95 14q-46 0 -69.5 -29.5t-23.5 -76.5v-49h142v-70h-142v-406z" />
    <glyph glyph-name="fl" unicode="fl" horiz-adv-x="594" 
d="M509 0h-90v690h90v-690zM201 0h-90v406h-87v70h87v55q0 170 182 170q56 0 96 -9v-75q-48 14 -95 14q-46 0 -69.5 -29.5t-23.5 -76.5v-49h142v-70h-142v-406z" />
    <glyph glyph-name="f_f_i" unicode="ffi" horiz-adv-x="903" 
d="M827 588h-108v102h108v-102zM818 0h-90v476h90v-476zM510 0h-90v406h-219v-406h-90v406h-86v70h86v55q0 170 182 170q56 0 96 -9v-75q-48 14 -95 14q-46 0 -69.5 -29.5t-23.5 -76.5v-49h219v55q0 170 182 170q56 0 96 -9v-75q-48 14 -95 14q-46 0 -69.5 -29.5
t-23.5 -76.5v-49h142v-70h-142v-406z" />
    <glyph glyph-name="f_f_l" unicode="ffl" horiz-adv-x="903" 
d="M818 0h-90v690h90v-690zM510 0h-90v406h-219v-406h-90v406h-86v70h86v55q0 170 182 170q56 0 96 -9v-75q-48 14 -95 14q-46 0 -69.5 -29.5t-23.5 -76.5v-49h219v55q0 170 182 170q56 0 96 -9v-75q-48 14 -95 14q-46 0 -69.5 -29.5t-23.5 -76.5v-49h142v-70h-142v-406z
" />
    <glyph glyph-name=".notdef" horiz-adv-x="500" 
d="M487 0h-475v665h475v-665zM250 375l161 243h-323zM60 91l161 242l-161 242v-484zM440 90v485l-162 -242zM411 48l-161 242l-162 -242h323z" />
    <glyph glyph-name=".null" horiz-adv-x="0" 
 />
    <glyph glyph-name="nonmarkingreturn" horiz-adv-x="333" 
 />
    <glyph glyph-name="space" unicode=" " horiz-adv-x="296" 
 />
    <glyph glyph-name="exclam" unicode="!" horiz-adv-x="296" 
d="M229 197h-87l-8 493h103zM246 0h-121v121h121v-121z" />
    <glyph glyph-name="quotedbl" unicode="&#x22;" horiz-adv-x="407" 
d="M326 462h-76l-20 228h116zM158 462h-77l-19 228h116z" />
    <glyph glyph-name="numbersign" unicode="#" horiz-adv-x="593" 
d="M344 0h-82l48 189h-98l-48 -189h-82l48 189h-68l19 74h68l28 107h-69l19 74h69l49 190h82l-49 -190h98l49 190h82l-49 -190h71l-19 -74h-71l-28 -107h72l-19 -74h-72zM329 263l28 107h-98l-28 -107h98z" />
    <glyph glyph-name="dollar" unicode="$" horiz-adv-x="574" 
d="M318 -102h-60v91q-91 4 -144.5 38.5t-61.5 117.5h125q0 -89 81 -96v268q-36 11 -58 19t-51 23.5t-45.5 33t-28.5 45t-12 61.5q0 80 55.5 124t139.5 46v81h60v-81q46 -4 88 -21t73.5 -53t31.5 -83h-125q-2 42 -16 64.5t-52 32.5v-242q12 -5 37 -12.5t37 -12.5
q67 -26 102 -67t35 -108q0 -49 -16 -83.5t-47.5 -53t-65.5 -27.5t-82 -14v-91zM258 390v219q-70 -15 -70 -98q0 -88 70 -121zM318 292v-243q86 11 86 109q0 52 -19.5 83t-66.5 51z" />
    <glyph glyph-name="percent" unicode="%" horiz-adv-x="852" 
d="M667 -11q-158 0 -158 224q0 223 158 223q159 0 159 -223q0 -224 -159 -224zM348 0h-78l234 634h78zM185 198q-158 0 -158 223q0 224 158 224q159 0 159 -224q0 -223 -159 -223zM667 39q87 0 87 174q0 173 -87 173q-24 0 -41 -13t-25.5 -30t-13 -44.5t-5.5 -44.5t-1 -41
t1 -41.5t5.5 -44.5t13 -44.5t25.5 -30.5t41 -13zM185 248q87 0 87 174q0 173 -87 173q-24 0 -41 -13t-25.5 -30t-13 -44.5t-5.5 -44.5t-1 -41t1 -41.5t5.5 -44.5t13 -44.5t25.5 -30.5t41 -13z" />
    <glyph glyph-name="ampersand" unicode="&#x26;" horiz-adv-x="667" 
d="M663 66v-70q-32 -7 -71 -7q-71 0 -106 27t-35 95v205h-184q-54 0 -79.5 -39t-25.5 -96q0 -58 32 -90t90 -32q50 0 92 16v-72q-54 -14 -106 -14q-100 0 -159 45t-59 142q0 72 31.5 114.5t100.5 58.5v2q-62 19 -91.5 51.5t-29.5 95.5q0 87 55.5 127.5t144.5 40.5
q57 0 107 -17v-71q-53 25 -97 25q-48 0 -74 -31t-26 -80q0 -44 25.5 -75t68.5 -31h184v189l90 57v-246h122v-70h-122v-167q0 -43 15.5 -66.5t57.5 -23.5q21 0 49 7z" />
    <glyph glyph-name="quotesingle" unicode="'" horiz-adv-x="241" 
d="M159 462h-77l-19 228h116z" />
    <glyph glyph-name="parenleft" unicode="(" horiz-adv-x="333" 
d="M311 -101v-55q-119 12 -174 73.5t-67 182.5q-6 50 -6 200q0 165 9 224q25 162 144 210q41 17 94 22v-55q-33 -8 -57 -26.5t-38 -40.5t-23 -55t-12.5 -58t-6.5 -61q-3 -40 -3 -160q0 -118 3 -158q4 -45 9.5 -76.5t19.5 -70t41 -63t67 -33.5z" />
    <glyph glyph-name="parenright" unicode=")" horiz-adv-x="333" 
d="M22 -156v55q40 9 67 32.5t40.5 62t19 69t9.5 76.5q3 41 3 161q0 100 -6 167q-21 217 -133 234v55q118 -12 173 -74t67 -182q6 -50 6 -200q0 -165 -10 -225q-25 -159 -142 -208q-41 -17 -94 -23z" />
    <glyph glyph-name="asterisk" unicode="*" horiz-adv-x="315" 
d="M263 438l-60 -35q-2 4 -16.5 26.5t-19.5 33.5q-6 34 -8 36h-2q-10 -35 -10 -36q-5 -10 -36 -60l-61 35q28 50 35 61q3 5 26 25l-2 2l-34 -10h-69v70h69q29 -8 34 -10l2 2q-2 1 -26 25q-2 3 -35 63l61 35q32 -53 36 -63q3 -6 6 -19.5t4 -15.5h2q1 2 8 35q5 12 19 35l17 28
l60 -35q-33 -60 -35 -63q-2 -4 -6.5 -8l-10.5 -9.5t-8 -7.5l2 -2q1 1 7.5 2.5t15 4t12.5 3.5h69v-70h-69q-5 2 -13.5 4l-14.5 3.5t-7 2.5l-2 -2q2 -2 8 -7.5l10.5 -9.5t6.5 -8q7 -11 35 -61z" />
    <glyph glyph-name="plus" unicode="+" horiz-adv-x="593" 
d="M345 0h-97v210h-189v89h189v188h97v-188h190v-89h-190v-210z" />
    <glyph glyph-name="comma" unicode="," horiz-adv-x="222" 
d="M140 -93h-83l15 231h110z" />
    <glyph glyph-name="hyphen" unicode="-" horiz-adv-x="463" 
d="M418 204h-372v107h372v-107z" />
    <glyph glyph-name="period" unicode="." horiz-adv-x="241" 
d="M189 0h-138v138h138v-138z" />
    <glyph glyph-name="slash" unicode="/" horiz-adv-x="315" 
d="M96 -136h-106l229 897h106z" />
    <glyph glyph-name="zero" unicode="0" horiz-adv-x="537" 
d="M268 -11q-231 0 -231 328t231 328q55 0 97 -19.5t67.5 -50.5t41 -75t21.5 -88t6 -95t-6 -95t-21.5 -88t-41 -75t-67.5 -50.5t-97 -19.5zM268 59q36 0 62.5 19t39.5 44.5t20.5 65t9 66.5t1.5 63q0 258 -133 258q-44 0 -72.5 -25.5t-40 -71.5t-15 -80.5t-3.5 -80.5
q0 -35 1.5 -62t9 -66.5t20.5 -65.5t38.5 -45t61.5 -19z" />
    <glyph glyph-name="one" unicode="1" horiz-adv-x="537" 
d="M348 0h-100v544l-126 -76v87l142 79h84v-634z" />
    <glyph glyph-name="two" unicode="2" horiz-adv-x="537" 
d="M461 0h-408v73q44 36 89.5 80.5t97 102.5t84 117.5t32.5 105.5t-25.5 71t-71.5 25q-41 0 -68 -23t-27 -64h-110q9 81 64.5 119t141.5 38q85 0 140.5 -45t55.5 -128q0 -28 -5 -55t-18 -54.5l-23 -48t-33.5 -48t-35 -42.5t-42.5 -43l-41 -37.5t-44.5 -39l-40.5 -34.5h288
v-70z" />
    <glyph glyph-name="three" unicode="3" horiz-adv-x="537" 
d="M345 335v-2q114 -26 114 -155q0 -189 -205 -189q-84 0 -147 36t-65 113h113q0 -38 27 -58.5t66 -20.5q59 0 85 29t26 88q0 121 -117 121h-26v70h26q49 0 77 27.5t28 76.5q0 104 -92 104q-42 0 -64 -18t-26 -58h-110q2 50 35 84.5t76.5 48t93.5 13.5q78 0 132.5 -42.5
t54.5 -117.5q0 -125 -102 -150z" />
    <glyph glyph-name="four" unicode="4" horiz-adv-x="537" 
d="M408 0h-100v165h-272v62l262 407h110v-399h109v-70h-109v-165zM308 235v294h-2l-178 -294h180z" />
    <glyph glyph-name="five" unicode="5" horiz-adv-x="537" 
d="M65 139h110q0 -37 30.5 -58.5t70.5 -21.5q65 0 92.5 35t27.5 103q0 55 -28.5 88t-83.5 33q-63 0 -93 -45h-99l18 361h339v-70h-248l-9 -207q43 31 110 31q93 0 143.5 -55t50.5 -149q0 -95 -61 -145t-158 -50q-86 0 -146 35.5t-66 114.5z" />
    <glyph glyph-name="six" unicode="6" horiz-adv-x="537" 
d="M483 497h-110q0 35 -24.5 56.5t-59.5 21.5q-29 0 -51 -11t-34.5 -34t-20.5 -43.5t-11 -55t-3.5 -52.5t-0.5 -50v-10q55 65 152 65q88 0 132 -54.5t44 -144.5q0 -94 -55 -145t-150 -51q-43 0 -77 10.5t-57 27t-40 43.5t-26 53.5t-14.5 63.5t-7 67.5t-1.5 71.5q0 53 4 94.5
t18 85.5t37.5 73t65 47.5t97.5 18.5q80 0 133.5 -36.5t59.5 -111.5zM284 59q112 0 112 128q0 58 -26 92.5t-82 34.5q-53 0 -80.5 -36.5t-27.5 -90.5q0 -53 26.5 -90.5t77.5 -37.5z" />
    <glyph glyph-name="seven" unicode="7" horiz-adv-x="537" 
d="M232 0h-107l234 564h-291v70h398v-76z" />
    <glyph glyph-name="eight" unicode="8" horiz-adv-x="537" 
d="M367 330v-2q113 -34 113 -157q0 -182 -211 -182t-211 182q0 127 113 157v2q-102 32 -102 151q0 83 56.5 123.5t143.5 40.5t143.5 -40.5t56.5 -123.5q0 -124 -102 -151zM269 366q50 0 75 28.5t25 79.5q0 48 -26 74.5t-74 26.5q-47 0 -73.5 -27t-26.5 -74q0 -51 25 -79.5
t75 -28.5zM269 59q59 0 85 29t26 88q0 120 -111 120q-55 0 -83 -32t-28 -88q0 -117 111 -117z" />
    <glyph glyph-name="nine" unicode="9" horiz-adv-x="537" 
d="M59 137h111q0 -34 24.5 -56t58.5 -22q23 0 41.5 6.5t31 22t21.5 28.5t14 39t8.5 39.5t4.5 44.5t1 39v37q-54 -64 -152 -64q-89 0 -133 54t-44 145q0 94 55.5 144.5t150.5 50.5q43 0 77 -10.5t57 -27t40 -43.5t26 -53.5t14.5 -63.5t7 -67.5t1.5 -71.5q0 -53 -4.5 -94.5
t-18.5 -85.5t-37.5 -73t-65 -47.5t-97.5 -18.5q-80 0 -133.5 36t-59.5 112zM254 321q55 0 83 34.5t28 91.5q0 54 -27.5 91t-79.5 37q-113 0 -113 -127t109 -127z" />
    <glyph glyph-name="colon" unicode=":" horiz-adv-x="296" 
d="M254 338h-138v138h138v-138zM254 0h-138v138h138v-138z" />
    <glyph glyph-name="semicolon" unicode=";" horiz-adv-x="278" 
d="M248 338h-138v138h138v-138zM192 -93h-83l11 231h125z" />
    <glyph glyph-name="less" unicode="&#x3c;" horiz-adv-x="593" 
d="M535 0l-477 198v91l477 197v-91l-385 -152l385 -152v-91z" />
    <glyph glyph-name="equal" unicode="=" horiz-adv-x="593" 
d="M535 299h-477v89h477v-89zM535 121h-477v89h477v-89z" />
    <glyph glyph-name="greater" unicode="&#x3e;" horiz-adv-x="593" 
d="M535 198l-477 -198v91l386 152l-386 152v91l477 -197v-91z" />
    <glyph glyph-name="question" unicode="?" horiz-adv-x="444" 
d="M236 197h-93v47q0 53 9 72.5t44 56.5q7 8 11 12l59 60q1 1 9 8.5t9.5 10t8.5 9.5t9 10t7 9.5t7 11.5l4.5 11.5t3.5 12.5t1 13q0 43 -31.5 63.5t-76.5 20.5q-32 0 -73 -10.5t-69 -26.5v94q81 19 143 19q85 0 146.5 -38t61.5 -118q0 -12 -1 -23t-5 -21.5t-6 -17.5t-9.5 -18
t-10 -15.5t-13.5 -15.5t-13 -14t-15.5 -16l-15.5 -15l-42 -42q-29 -29 -37.5 -39t-15 -30t-6.5 -54v-27zM250 0h-124v121h124v-121z" />
    <glyph glyph-name="at" unicode="@" horiz-adv-x="810" 
d="M560 21q-76 0 -100 52q-48 -55 -112 -55q-66 0 -97.5 47.5t-31.5 114.5q0 46 11 93t33 91t61.5 72t89.5 28q37 0 59 -10.5t38 -34.5l9 36h70l-56 -289q-6 -30 -6 -36q0 -36 37 -36q40 0 83 55.5t43 145.5q0 102 -73.5 171.5t-192.5 69.5q-124 0 -212.5 -88.5
t-88.5 -222.5q0 -133 78 -208.5t203 -75.5q46 0 88.5 7.5t69.5 18t47.5 20.5t29.5 17l9 8l32 -59q-4 -3 -11 -9t-32.5 -20.5t-55 -26t-79 -20.5t-103.5 -9q-154 0 -254 95.5t-100 263.5q0 167 114 274.5t265 107.5q146 0 242.5 -88.5t96.5 -225.5q0 -65 -20.5 -119.5
t-51.5 -87t-65.5 -50t-66.5 -17.5zM358 87q40 0 69.5 35t41 78t11.5 84q0 43 -15 77t-50 34q-31 0 -55 -24t-37.5 -59.5t-20 -70t-6.5 -62.5q0 -37 15 -64.5t47 -27.5z" />
    <glyph glyph-name="A" unicode="A" horiz-adv-x="611" 
d="M603 0h-106l-68 197h-247l-67 -197h-106l235 690h123zM402 277l-95 321h-2l-100 -321h197z" />
    <glyph glyph-name="B" unicode="B" horiz-adv-x="537" 
d="M271 0h-191v690h199q80 0 130 -42t50 -122q0 -117 -107 -158v-2q68 -9 104 -57.5t36 -119.5q0 -189 -221 -189zM180 404h63q116 0 116 104q0 59 -31 80.5t-91 21.5h-57v-206zM180 80h77q59 0 97 30.5t38 87.5q0 64 -40 95t-105 31h-67v-244z" />
    <glyph glyph-name="C" unicode="C" horiz-adv-x="537" 
d="M502 123v-93q-92 -41 -181 -41q-77 0 -132.5 30t-85.5 83.5t-43.5 115t-13.5 135.5q0 70 12.5 128.5t40.5 110t81 80.5t127 29q98 0 160 -52t62 -148h-116q2 55 -26 87.5t-83 32.5q-37 0 -65 -17.5t-43 -43t-24.5 -61t-12.5 -66t-3 -64.5q0 -45 3 -81t14.5 -79t30.5 -72
t54 -48.5t83 -19.5q78 0 161 54z" />
    <glyph glyph-name="D" unicode="D" horiz-adv-x="593" 
d="M257 0h-177v690h177q161 0 226 -88t65 -255q0 -170 -65 -258.5t-226 -88.5zM180 80h59q67 0 107 20q92 51 92 245q0 31 -1 55t-7 56.5t-16 56.5t-29 46.5t-45 33.5q-36 17 -102 17h-58v-530z" />
    <glyph glyph-name="E" unicode="E" horiz-adv-x="500" 
d="M470 0h-390v690h381v-80h-281v-211h267v-80h-267v-239h290v-80z" />
    <glyph glyph-name="F" unicode="F" horiz-adv-x="463" 
d="M180 0h-100v690h370v-80h-270v-211h256v-80h-256v-319z" />
    <glyph glyph-name="G" unicode="G" horiz-adv-x="611" 
d="M451 96v222h-147v80h247v-344q-42 -31 -100.5 -48t-113.5 -17q-291 0 -291 377q0 56 8.5 104t28.5 91.5t50.5 74t77.5 48t106 17.5q99 0 164.5 -50t65.5 -146h-111q0 55 -32.5 85.5t-87.5 30.5q-160 0 -160 -255q0 -44 2.5 -79t13 -78t29 -71.5t52.5 -48.5t81 -20
q28 0 66.5 6.5t50.5 20.5z" />
    <glyph glyph-name="H" unicode="H" horiz-adv-x="630" 
d="M551 0h-100v319h-271v-319h-100v690h100v-291h271v291h100v-690z" />
    <glyph glyph-name="I" unicode="I" horiz-adv-x="259" 
d="M180 0h-100v690h100v-690z" />
    <glyph glyph-name="J" unicode="J" horiz-adv-x="370" 
d="M202 183v507h100v-521q0 -103 -49 -141.5t-158 -38.5q-43 0 -95 13v86q60 -19 99 -19q61 0 82 26.5t21 87.5z" />
    <glyph glyph-name="K" unicode="K" horiz-adv-x="556" 
d="M556 0h-121l-253 335h-2v-335h-100v690h100v-307h2l234 307h120l-253 -329z" />
    <glyph glyph-name="L" unicode="L" horiz-adv-x="444" 
d="M445 0h-365v690h100v-610h265v-80z" />
    <glyph glyph-name="M" unicode="M" horiz-adv-x="833" 
d="M754 0h-90v572h-2l-198 -572h-95l-198 572h-2v-572h-90v690h141l196 -565h2l196 565h140v-690z" />
    <glyph glyph-name="N" unicode="N" horiz-adv-x="648" 
d="M569 0h-118l-279 553h-2v-553h-90v690h125l272 -540h2v540h90v-690z" />
    <glyph glyph-name="O" unicode="O" horiz-adv-x="630" 
d="M315 -11q-269 0 -269 356t269 356q270 0 270 -356t-270 -356zM315 69q160 0 160 276t-160 276q-159 0 -159 -276t159 -276z" />
    <glyph glyph-name="P" unicode="P" horiz-adv-x="500" 
d="M180 0h-100v690h166q115 0 178.5 -42.5t63.5 -153.5q0 -96 -61 -145t-158 -49h-89v-300zM180 380h71q127 0 127 114q0 63 -31.5 89.5t-95.5 26.5h-71v-230z" />
    <glyph glyph-name="Q" unicode="Q" horiz-adv-x="630" 
d="M622 0h-315q-58 0 -104 19.5t-75 52t-48 78t-26.5 93.5t-7.5 102q0 356 257 356q269 0 269 -356q0 -144 -50 -233q-15 -27 -30 -38l2 -2l128 8v-80zM303 80q44 0 75 17.5t47 41.5t24.5 63.5t10.5 69t2 73.5q0 276 -159 276q-147 0 -147 -276q0 -45 5 -84t19 -83.5
t45.5 -71t77.5 -26.5z" />
    <glyph glyph-name="R" unicode="R" horiz-adv-x="537" 
d="M505 0h-91l-42 153q-22 78 -35 98q-28 46 -101 46h-57v-297h-100v690h200q93 0 147.5 -45t54.5 -136q0 -130 -136 -163v-2q32 -7 53.5 -19.5t34 -35t18.5 -42t13 -55.5zM179 377h58q63 0 103.5 29.5t40.5 90.5q0 113 -121 113h-81v-233z" />
    <glyph glyph-name="S" unicode="S" horiz-adv-x="500" 
d="M51 16v104q88 -51 183 -51q54 0 92.5 25t38.5 77q0 12 -1.5 22.5t-7 20t-8.5 16.5t-13 16t-13 13t-16.5 12.5l-16.5 10.5t-19 11.5t-17 10.5l-63 37q-40 22 -58 33.5t-44 34.5t-37 50.5t-11 63.5q0 92 66 135t163 43q79 0 157 -20v-94q-106 34 -162 34q-48 0 -81 -22.5
t-33 -67.5q0 -24 19 -47t37.5 -35.5t46.5 -28.5q6 -3 9 -5l68 -40q74 -41 109.5 -80.5t35.5 -109.5q0 -68 -37 -114t-91 -64t-121 -18q-97 0 -175 27z" />
    <glyph glyph-name="T" unicode="T" horiz-adv-x="444" 
d="M272 0h-100v610h-172v80h444v-80h-172v-610z" />
    <glyph glyph-name="U" unicode="U" horiz-adv-x="611" 
d="M440 223v467h100v-486q0 -105 -64 -160t-171 -55q-108 0 -170.5 54.5t-62.5 160.5v486h100v-467q0 -76 29 -115t103 -39q77 0 106.5 38.5t29.5 115.5z" />
    <glyph glyph-name="V" unicode="V" horiz-adv-x="556" 
d="M338 0h-124l-231 690h105l188 -576h2l190 576h105z" />
    <glyph glyph-name="W" unicode="W" horiz-adv-x="870" 
d="M718 0h-111l-170 542h-2l-168 -542h-111l-129 690h91l101 -551h2l171 551h88l170 -551h2l101 551h91z" />
    <glyph glyph-name="X" unicode="X" horiz-adv-x="556" 
d="M553 0h-110l-163 269l-166 -269h-110l219 363l-198 327h110l142 -235l144 235h110l-198 -327z" />
    <glyph glyph-name="Y" unicode="Y" horiz-adv-x="519" 
d="M309 0h-100v319l-221 371h110l161 -266l162 266h110l-222 -371v-319z" />
    <glyph glyph-name="Z" unicode="Z" horiz-adv-x="500" 
d="M480 0h-460v81l328 529h-311v80h427v-81l-326 -529h342v-80z" />
    <glyph glyph-name="bracketleft" unicode="[" horiz-adv-x="333" 
d="M317 -136h-216v896h216v-70h-121v-756h121v-70z" />
    <glyph glyph-name="backslash" unicode="\" horiz-adv-x="315" 
d="M325 -136h-106l-229 897h106z" />
    <glyph glyph-name="bracketright" unicode="]" horiz-adv-x="333" 
d="M232 -136h-216v70h121v756h-121v70h216v-896z" />
    <glyph glyph-name="asciicircum" unicode="^" horiz-adv-x="593" 
d="M478 317h-88l-93 237l-93 -237h-89l136 328h91z" />
    <glyph glyph-name="underscore" unicode="_" horiz-adv-x="500" 
d="M500 -116h-500v51h500v-51z" />
    <glyph glyph-name="grave" unicode="`" horiz-adv-x="340" 
d="M211 559h-83l-84 167h121z" />
    <glyph glyph-name="a" unicode="a" horiz-adv-x="463" 
d="M393 0h-90v59h-2q-15 -33 -50 -51.5t-73 -18.5q-61 0 -98 34t-37 94q0 47 25 80t67.5 48.5t82.5 21.5t85 6v73q0 35 -20.5 53t-52.5 18q-36 0 -56 -19t-20 -54h-95q0 74 49.5 108.5t128.5 34.5q156 0 156 -153v-334zM303 186v27h-18q-51 0 -96.5 -23.5t-45.5 -69.5
q0 -24 14.5 -42.5t37.5 -18.5q44 0 76 41t32 86z" />
    <glyph glyph-name="b" unicode="b" horiz-adv-x="481" 
d="M64 197v493h90v-279h2q16 36 49.5 56t74.5 20q162 0 162 -254q0 -244 -193 -244q-185 0 -185 208zM244 59q98 0 98 177q0 27 -3 53t-11 57.5t-26.5 51t-46.5 19.5q-35 0 -59.5 -33.5t-33 -71.5t-8.5 -73q0 -25 0.5 -36.5t2.5 -38t7.5 -41t15 -31.5t26 -25t38.5 -8z" />
    <glyph glyph-name="c" unicode="c" horiz-adv-x="426" 
d="M404 69v-62q-60 -18 -132 -18q-115 0 -174 74.5t-59 191.5q0 105 50.5 168.5t152.5 63.5q81 0 125.5 -42.5t44.5 -123.5h-103q0 96 -73 96q-51 0 -74 -44.5t-23 -100.5q0 -95 48 -154t141 -59q45 0 76 10z" />
    <glyph glyph-name="d" unicode="d" horiz-adv-x="500" 
d="M427 0h-90v73h-2q-14 -39 -51.5 -61.5t-80.5 -22.5q-47 0 -80.5 22t-50.5 59t-24.5 76t-7.5 84t7.5 86.5t25 82t52.5 64.5t83 24q41 0 77 -20t50 -57h2v280h90v-690zM234 59q29 0 50 19t32 48.5t16 58t5 54.5q0 29 -4.5 56.5t-15 56.5t-32.5 47t-52 18q-93 0 -93 -179
t94 -179z" />
    <glyph glyph-name="e" unicode="e" horiz-adv-x="444" 
d="M395 76v-71q-71 -16 -119 -16q-121 0 -178.5 73.5t-57.5 198.5q0 103 48 164.5t146 61.5q84 0 128 -53t44 -138v-23h-276q0 -88 45 -151t130 -63q45 0 90 17zM134 333h182q0 38 -24.5 61t-62.5 23q-64 0 -88 -55q-7 -16 -7 -29z" />
    <glyph glyph-name="f" unicode="f" horiz-adv-x="352" 
d="M201 0h-90v406h-86v70h86v55q0 170 182 170q56 0 96 -9v-75q-48 14 -95 14q-46 0 -69.5 -29.5t-23.5 -76.5v-49h142v-70h-142v-406z" />
    <glyph glyph-name="g" unicode="g" horiz-adv-x="500" 
d="M337 7v74h-2q-14 -38 -51.5 -59.5t-79.5 -21.5q-47 0 -81 21.5t-51 58t-24.5 75t-7.5 83.5t8 86t26 79t53 61t83 23q40 0 75.5 -21t49.5 -56h2v66h90v-495q0 -195 -220 -195q-78 0 -146 17v91q78 -38 137 -38q78 0 108.5 37t30.5 114zM232 70q29 0 50.5 18.5t33 47.5
t16.5 57.5t5 55.5t-5 54t-15.5 54t-32.5 43.5t-51 16.5t-49 -18t-29 -48.5t-12 -56.5t-3 -54t3.5 -53t12 -53.5t28 -46t48.5 -17.5z" />
    <glyph glyph-name="h" unicode="h" horiz-adv-x="519" 
d="M445 0h-90v260q0 39 -1 59q-3 38 -16 58t-48 20q-59 0 -92.5 -65t-33.5 -130v-202h-90v690h90v-316h2q45 113 151 113q67 0 97.5 -44t30.5 -113v-330z" />
    <glyph glyph-name="i" unicode="i" horiz-adv-x="259" 
d="M183 588h-108v102h108v-102zM174 0h-90v476h90v-476z" />
    <glyph glyph-name="j" unicode="j" horiz-adv-x="259" 
d="M190 588h-108v102h108v-102zM-56 -212v71q18 -3 36 -3q69 0 90 34t21 107v479h90v-517q0 -90 -58.5 -131.5t-152.5 -41.5q-8 0 -26 2z" />
    <glyph glyph-name="k" unicode="k" horiz-adv-x="463" 
d="M460 0h-113l-181 246h-2v-246h-90v690h90v-404l166 190h113l-176 -208z" />
    <glyph glyph-name="l" unicode="l" horiz-adv-x="259" 
d="M174 0h-90v690h90v-690z" />
    <glyph glyph-name="m" unicode="m" horiz-adv-x="759" 
d="M687 0h-90v260q0 36 -1 55q-3 41 -15 61.5t-50 20.5q-32 0 -57.5 -32t-36.5 -69.5t-11 -67.5v-228h-90v260q0 36 -1 55q-1 20 -3.5 32t-8.5 25t-18.5 19t-31.5 6q-36 0 -62.5 -38t-36 -80t-9.5 -77v-202h-90v476h90v-95h2q37 106 133 106q49 0 81.5 -26.5t39.5 -74.5h2
q19 46 53.5 73.5t81.5 27.5q67 0 98 -44t31 -113v-330z" />
    <glyph glyph-name="n" unicode="n" horiz-adv-x="519" 
d="M445 0h-90v260q0 39 -1 59q-3 38 -16 58t-48 20q-59 0 -92.5 -65t-33.5 -130v-202h-90v476h90v-102h2q45 113 151 113q67 0 97.5 -44t30.5 -113v-330z" />
    <glyph glyph-name="o" unicode="o" horiz-adv-x="500" 
d="M251 -11q-109 0 -160 68t-51 181q0 112 51 180.5t160 68.5q108 0 159 -68.5t51 -180.5t-51 -180.5t-159 -68.5zM251 59q110 0 110 179t-110 179q-111 0 -111 -179t111 -179z" />
    <glyph glyph-name="p" unicode="p" horiz-adv-x="500" 
d="M164 -214h-90v690h90v-72h2q15 37 52.5 60t79.5 23q47 0 80.5 -22t50.5 -59t24.5 -76.5t7.5 -83.5q0 -45 -7.5 -86.5t-25 -82t-52.5 -64.5t-83 -24q-43 0 -77 19.5t-50 56.5h-2v-279zM268 59q93 0 93 179t-95 179q-29 0 -50 -19t-31.5 -48.5t-15.5 -58t-5 -54.5
q0 -30 4 -57t14 -56.5t32.5 -47t53.5 -17.5z" />
    <glyph glyph-name="q" unicode="q" horiz-adv-x="500" 
d="M427 -214h-90v280h-2q-14 -37 -50 -57t-77 -20q-48 0 -83 24t-52.5 64.5t-25 82t-7.5 86.5q0 44 7.5 83.5t24.5 76.5t50.5 59t80.5 22q42 0 79.5 -20.5t52.5 -56.5h2v66h90v-690zM233 59q30 0 52 18t32.5 47t15 56.5t4.5 56.5q0 26 -5 54.5t-16 58t-32 48.5t-50 19
q-94 0 -94 -179t93 -179z" />
    <glyph glyph-name="r" unicode="r" horiz-adv-x="333" 
d="M164 0h-90v476h90v-96h2q17 51 55.5 79t91.5 28v-98q-149 0 -149 -187v-202z" />
    <glyph glyph-name="s" unicode="s" horiz-adv-x="370" 
d="M37 8v79q59 -28 120 -28q97 0 97 61q0 22 -22.5 41.5t-54 37l-63.5 37t-54.5 50t-22.5 68.5q0 66 49.5 99.5t119.5 33.5q29 0 108 -17v-81q-61 28 -109 28q-27 0 -52.5 -13.5t-25.5 -37.5q0 -21 22.5 -39.5t54.5 -35t63.5 -36t54 -51t22.5 -71.5q0 -76 -49.5 -110
t-129.5 -34q-60 0 -128 19z" />
    <glyph glyph-name="t" unicode="t" horiz-adv-x="352" 
d="M327 66v-70q-32 -7 -71 -7q-69 0 -106 26t-37 90v301h-85v70h85v112l90 56v-168h132v-70h-132v-254q0 -45 16 -69t60 -24q27 0 48 7z" />
    <glyph glyph-name="u" unicode="u" horiz-adv-x="519" 
d="M440 0h-90v102h-2q-19 -52 -57.5 -82.5t-93.5 -30.5q-67 0 -97.5 44t-30.5 113v330h90v-260q0 -39 1 -59q3 -39 16 -58.5t48 -19.5q59 0 92.5 65t33.5 130v202h90v-476z" />
    <glyph glyph-name="v" unicode="v" horiz-adv-x="444" 
d="M276 0h-92l-180 476h100l124 -346h2l111 346h100z" />
    <glyph glyph-name="w" unicode="w" horiz-adv-x="685" 
d="M538 0h-95l-99 330h-2l-96 -330h-95l-110 476h87l75 -345h2l104 345h68l104 -345h2l75 345h87z" />
    <glyph glyph-name="x" unicode="x" horiz-adv-x="463" 
d="M454 0h-105l-116 173l-118 -173h-105l171 251l-151 225h105l97 -146l97 146h105l-151 -225z" />
    <glyph glyph-name="y" unicode="y" horiz-adv-x="444" 
d="M205 -205h-88l67 202l-181 479h100l125 -344h2l112 344h100z" />
    <glyph glyph-name="z" unicode="z" horiz-adv-x="389" 
d="M368 0h-349v70l231 336h-216v70h325v-68l-231 -338h240v-70z" />
    <glyph glyph-name="braceleft" unicode="{" horiz-adv-x="336" 
d="M110 314q48 -15 76.5 -47t28.5 -97q0 -26 -2 -67.5t-2 -66.5q0 -46 25 -74.5t70 -32.5v-69q-89 4 -141.5 46.5t-52.5 120.5q0 31 1.5 80t1.5 73q0 49 -25 68.5t-70 25.5v78q46 6 70.5 26.5t24.5 72.5q0 24 -1.5 71.5t-1.5 76.5q0 73 51 118t143 49v-67
q-44 -3 -69.5 -32.5t-25.5 -75.5q0 -25 2 -67t2 -68q0 -65 -27.5 -96t-77.5 -46z" />
    <glyph glyph-name="bar" unicode="|" horiz-adv-x="259" 
d="M178 -184h-97v1017h97v-1017z" />
    <glyph glyph-name="braceright" unicode="}" horiz-adv-x="336" 
d="M226 314q-50 15 -77.5 46t-27.5 96q0 26 2 68t2 67q0 46 -25.5 75.5t-69.5 32.5v67q92 -4 143 -49t51 -118q0 -29 -1.5 -76.5t-1.5 -71.5q0 -52 24.5 -72.5t70.5 -26.5v-78q-45 -6 -70 -25.5t-25 -68.5q0 -24 1.5 -73t1.5 -80q0 -78 -52.5 -120.5t-141.5 -46.5v69
q45 4 70 32.5t25 74.5q0 25 -2 66.5t-2 67.5q0 65 28.5 97t76.5 47z" />
    <glyph glyph-name="asciitilde" unicode="~" horiz-adv-x="593" 
d="M477 337l63 -73q-59 -90 -142 -90q-56 0 -108 31q-55 32 -90 32q-41 0 -83 -66l-63 73q30 44 62 67t80 23q56 0 107 -30q57 -33 91 -33q44 0 83 66z" />
    <glyph glyph-name="uni00A0" unicode="&#xa0;" horiz-adv-x="296" 
 />
    <glyph glyph-name="exclamdown" unicode="&#xa1;" horiz-adv-x="296" 
d="M172 433h-121v121h121v-121zM163 -136h-95v493h95v-493z" />
    <glyph glyph-name="cent" unicode="&#xa2;" horiz-adv-x="481" 
d="M276 -109h-51v98q-99 15 -145.5 86.5t-46.5 178.5q0 99 48 164t144 69v81h51v-81q78 -10 125.5 -53.5t47.5 -120.5h-103q0 106 -70 122v-386q26 -7 43 -7q61 0 116 24v-47q-60 -30 -159 -30v-98zM225 76v361q-92 -16 -92 -170q0 -128 92 -191z" />
    <glyph glyph-name="sterling" unicode="&#xa3;" horiz-adv-x="463" 
d="M451 0h-350v295h-71v65h71v151q0 80 49.5 117.5t131.5 37.5q121 0 173 -88q17 -36 17 -63h-107q-2 38 -24.5 59.5t-60.5 21.5q-86 0 -86 -108v-128h129v-65h-129v-215h257v-80z" />
    <glyph glyph-name="currency" unicode="&#xa4;" horiz-adv-x="607" 
d="M478 126l-68 67q-52 -38 -116 -38q-66 0 -116 38l-31 -30t-37 -37l-48 48l69 65q-38 55 -38 115q0 62 38 115l-69 66l48 48q12 -13 37 -37l31 -30q53 37 116 37q67 0 115 -37l69 67l47 -48l-68 -66q37 -52 37 -115q0 -60 -37 -115l68 -65zM427 355q0 56 -40.5 93.5
t-92.5 37.5q-56 0 -94.5 -39t-38.5 -92q0 -54 39.5 -93.5t93.5 -39.5q55 0 94 39t39 94z" />
    <glyph glyph-name="yen" unicode="&#xa5;" horiz-adv-x="519" 
d="M309 0h-100v165h-112v50h112v54h-112v50h112l-221 371h112l159 -267l160 267h112l-222 -371h112v-50h-112v-54h112v-50h-112v-165z" />
    <glyph glyph-name="brokenbar" unicode="&#xa6;" horiz-adv-x="259" 
d="M178 402h-97v359h97v-359zM178 -136h-97v359h97v-359z" />
    <glyph glyph-name="section" unicode="&#xa7;" horiz-adv-x="481" 
d="M72 13v86q93 -40 153 -40q38 0 71 13t33 45q0 20 -24 40t-51 32t-63 26t-45 19q-31 14 -44 21t-33 22t-28 34.5t-8 45.5q0 72 70 121q-45 40 -45 89q0 65 57.5 99.5t127.5 34.5q80 0 161 -25v-83q-84 38 -152 38q-30 0 -62 -12.5t-32 -38.5q0 -12 9 -24.5t21 -21.5
t32 -18.5t33 -15t33 -13t24 -8.5q40 -14 73 -33q33 -20 49 -42.5t16 -57.5q0 -37 -18.5 -69t-50.5 -50q50 -45 50 -100q0 -49 -35.5 -82t-79.5 -44.5t-92 -11.5q-103 0 -150 24zM230 298l104 -46q29 33 29 63q0 18 -16 34.5t-32 25.5t-44 21t-34 15q-69 31 -89 38
q-30 -26 -30 -58q0 -11 4 -20.5t12.5 -18t15.5 -14.5t21 -13t20.5 -10.5t21.5 -9.5t17 -7z" />
    <glyph glyph-name="dieresis" unicode="&#xa8;" horiz-adv-x="340" 
d="M334 571h-123v110h123v-110zM128 571h-123v110h123v-110z" />
    <glyph glyph-name="copyright" unicode="&#xa9;" horiz-adv-x="500" 
d="M485 466q0 -98 -68.5 -166.5t-166.5 -68.5q-97 0 -166 69t-69 166t69 166t166 69t166 -69t69 -166zM450 466q0 82 -59 141t-141 59t-141 -59t-59 -141t59 -141t141 -59t141 59t59 141zM331 407l26 -32q-39 -39 -95 -39t-96.5 39t-40.5 95t40.5 95t96.5 39q48 0 95 -39
l-26 -33q-36 31 -69 31q-38 0 -65.5 -27.5t-27.5 -65.5q0 -39 25.5 -66t63.5 -27q39 0 73 30z" />
    <glyph glyph-name="ordfeminine" unicode="&#xaa;" horiz-adv-x="259" 
d="M224 287h-50v33h-2q-17 -39 -69 -39q-31 0 -50 20t-19 51q0 86 140 86v9q0 22 -0.5 32t-9.5 23t-27 13q-19 0 -30.5 -10t-11.5 -28h-52q0 41 27 59.5t69 18.5q47 0 66 -23.5t19 -70.5v-174zM174 404h-9q-30 0 -55.5 -12t-25.5 -38q0 -33 36 -33q26 0 40 27t14 56z" />
    <glyph glyph-name="guillemotleft" unicode="&#xab;" horiz-adv-x="389" 
d="M348 59h-93l-73 188l73 193h93l-64 -193zM196 59h-93l-73 188l73 193h93l-64 -193z" />
    <glyph glyph-name="logicalnot" unicode="&#xac;" horiz-adv-x="593" 
d="M535 111h-97v188h-380v89h477v-277z" />
    <glyph glyph-name="uni00AD" unicode="&#xad;" horiz-adv-x="463" 
d="M418 204h-372v107h372v-107z" />
    <glyph glyph-name="registered" unicode="&#xae;" horiz-adv-x="500" 
d="M485 466q0 -98 -68.5 -166.5t-166.5 -68.5q-97 0 -166 69t-69 166t69 166t166 69t166 -69t69 -166zM450 466q0 82 -59 141t-141 59t-141 -59t-59 -141t59 -141t141 -59t141 59t59 141zM348 348h-50l-38 100h-54v-100h-45v248h83q49 0 75 -17t26 -63q0 -25 -9.5 -37
t-33.5 -24zM206 488h54q38 0 38 32q0 33 -42 33h-50v-65z" />
    <glyph glyph-name="macron" unicode="&#xaf;" horiz-adv-x="340" 
d="M323 559h-306v77h306v-77z" />
    <glyph glyph-name="degree" unicode="&#xb0;" horiz-adv-x="400" 
d="M317 530q0 -47 -35 -82t-82 -35t-82 35.5t-35 83.5t35 80.5t82 32.5q48 0 82.5 -33.5t34.5 -81.5zM200 470q24 0 42 18.5t18 42.5q0 23 -18 40t-42 17t-42 -17t-18 -40q0 -24 18 -42.5t42 -18.5z" />
    <glyph glyph-name="plusminus" unicode="&#xb1;" horiz-adv-x="593" 
d="M345 138h-97v210h-190v89h190v188h97v-188h190v-89h-190v-210zM535 0h-477v89h477v-89z" />
    <glyph glyph-name="two.superior" unicode="&#xb2;" 
d="M316 398h-279v53q72 60 138.5 138.5t66.5 135.5q0 64 -64 64q-27 0 -44 -16t-17 -44h-79q12 111 141 111q58 0 96 -31t38 -89q0 -23 -7 -46t-14 -40t-27 -41.5l-29.5 -36t-38.5 -38l-37 -33.5l-41 -35h197v-52z" />
    <glyph glyph-name="three.superior" unicode="&#xb3;" 
d="M175 599h-20v52h20q32 0 50.5 18.5t18.5 50.5q0 69 -61 69q-52 0 -58 -52h-79q3 52 45 77.5t96 25.5q53 0 90.5 -29.5t37.5 -81.5q0 -81 -62 -103q70 -20 70 -105q0 -131 -140 -131q-57 0 -100.5 25.5t-44.5 80.5h80q0 -26 17.5 -40t43.5 -14q39 0 56 19t17 59
q0 79 -77 79z" />
    <glyph glyph-name="acute" unicode="&#xb4;" horiz-adv-x="340" 
d="M211 559h-83l46 167h121z" />
    <glyph glyph-name="mu" unicode="&#xb5;" horiz-adv-x="509" 
d="M439 476v-357q0 -32 11.5 -43.5t42.5 -11.5v-70q-12 -2 -26 -2q-89 0 -105 77q-13 -36 -46 -58t-75 -22q-52 0 -83 41q0 -123 6 -244h-90v690h90v-274q0 -64 20.5 -103.5t64.5 -39.5q100 0 100 198v219h90z" />
    <glyph glyph-name="paragraph" unicode="&#xb6;" horiz-adv-x="537" 
d="M430 -215h-38v866h-49v-866h-38v437q-101 20 -161 74.5t-60 151.5q0 71 30.5 121t83.5 75t109.5 35.5t123.5 10.5h68v-39h-69v-866z" />
    <glyph glyph-name="periodcentered" unicode="&#xb7;" horiz-adv-x="241" 
d="M182 256h-123v123h123v-123z" />
    <glyph glyph-name="cedilla" unicode="&#xb8;" horiz-adv-x="340" 
d="M115 -236v63q36 -26 67 -26q20 0 32 12t12 32q0 53 -77 53l-21 -3l28 121h57l-19 -81q2 0 5.5 0.5t5.5 0.5q44 0 72 -24t28 -67q0 -50 -32 -76t-83 -26q-37 0 -75 21z" />
    <glyph glyph-name="one.superior" unicode="&#xb9;" 
d="M238 398h-72v368l-85 -52v64l97 54h60v-434z" />
    <glyph glyph-name="ordmasculine" unicode="&#xba;" horiz-adv-x="278" 
d="M139 282q-59 0 -87.5 37.5t-28.5 99.5q0 61 28.5 98.5t87.5 37.5t87.5 -37.5t28.5 -98.5q0 -62 -28.5 -99.5t-87.5 -37.5zM139 322q60 0 60 97q0 96 -60 96t-60 -96q0 -97 60 -97z" />
    <glyph glyph-name="guillemotright" unicode="&#xbb;" horiz-adv-x="389" 
d="M286 59h-93l65 193l-65 188h93l73 -188zM134 59h-93l65 193l-65 188h93l73 -188z" />
    <glyph glyph-name="onequarter" unicode="&#xbc;" horiz-adv-x="852" 
d="M313 0h-77l233 634h77zM206 202h-72v368l-85 -52v64l97 54h60v-434zM732 0h-71v112h-183v45l178 277h76v-270h75v-52h-75v-112zM661 164l-1 189l-114 -189h115z" />
    <glyph glyph-name="onehalf" unicode="&#xbd;" horiz-adv-x="852" 
d="M313 0h-77l233 634h77zM206 202h-72v368l-85 -52v64l97 54h60v-434zM782 0h-279v53q72 60 138.5 138.5t66.5 135.5q0 64 -64 64q-27 0 -44 -16t-17 -44h-79q12 111 141 111q58 0 96 -31t38 -89q0 -23 -7 -46t-14 -40t-27 -41.5l-29.5 -36t-38.5 -38l-37 -33.5l-41 -35
h197v-52z" />
    <glyph glyph-name="threequarters" unicode="&#xbe;" horiz-adv-x="852" 
d="M348 0h-77l233 634h77zM732 0h-71v112h-183v45l178 277h76v-270h75v-52h-75v-112zM661 164l-1 189l-114 -189h115zM166 404h-20v52h20q32 0 50.5 18.5t18.5 50.5q0 69 -61 69q-52 0 -58 -52h-79q3 52 45 77.5t96 25.5q53 0 90.5 -29.5t37.5 -81.5q0 -81 -62 -103
q70 -20 70 -105q0 -131 -140 -131q-57 0 -100.5 25.5t-44.5 80.5h80q0 -26 17.5 -40t43.5 -14q39 0 56 19t17 59q0 79 -77 79z" />
    <glyph glyph-name="questiondown" unicode="&#xbf;" horiz-adv-x="444" 
d="M318 433h-123v121h123v-121zM370 -35v-93q-81 -19 -143 -19q-85 0 -146.5 38t-61.5 118q0 14 2 27t4.5 22.5t9.5 21l10.5 17.5t14 18l14 16t17 17l17.5 17l42 42q28 28 36.5 38.5t15 30.5t6.5 53v28h93v-48q0 -55 -10.5 -76.5t-52.5 -63.5l-60 -60l-8 -8l-8.5 -8.5
t-8 -8.5t-8 -8.5t-6.5 -8.5t-6 -10l-5 -10t-4.5 -11t-2.5 -11t-1 -12q0 -43 31.5 -63.5t76.5 -20.5q64 0 142 36z" />
    <glyph glyph-name="Agrave" unicode="&#xc0;" horiz-adv-x="611" 
d="M603 0h-106l-68 197h-247l-67 -197h-106l235 690h123zM402 277l-95 321h-2l-100 -321h197zM347 773h-83l-84 167h121z" />
    <glyph glyph-name="Aacute" unicode="&#xc1;" horiz-adv-x="611" 
d="M603 0h-106l-68 197h-247l-67 -197h-106l235 690h123zM402 277l-95 321h-2l-100 -321h197zM357 773h-83l46 167h121z" />
    <glyph glyph-name="Acircumflex" unicode="&#xc2;" horiz-adv-x="611" 
d="M603 0h-106l-68 197h-247l-67 -197h-106l235 690h123zM402 277l-95 321h-2l-100 -321h197zM457 773h-81l-71 84l-69 -84h-81l95 149h108z" />
    <glyph glyph-name="Atilde" unicode="&#xc3;" horiz-adv-x="611" 
d="M603 0h-106l-68 197h-247l-67 -197h-106l235 690h123zM402 277l-95 321h-2l-100 -321h197zM386 911h59v-18v-20.5t-1 -19.5t-2.5 -21l-4.5 -18t-8 -17l-11.5 -12t-16 -9.5t-21.5 -2.5q-32 0 -80 30.5t-53 30.5q-7 0 -11.5 -3.5t-6 -11t-2 -11.5t0.5 -14v-11h-59
q0 84 10 100q18 37 57 37q25 0 76 -33.5t57 -33.5q5 0 8 2.5t5 7t3 9.5t1 11.5v11v10v6.5z" />
    <glyph glyph-name="Adieresis" unicode="&#xc4;" horiz-adv-x="611" 
d="M603 0h-106l-68 197h-247l-67 -197h-106l235 690h123zM402 277l-95 321h-2l-100 -321h197zM470 785h-123v110h123v-110zM264 785h-123v110h123v-110z" />
    <glyph glyph-name="Aring" unicode="&#xc5;" horiz-adv-x="611" 
d="M603 0h-106l-68 197h-247l-67 -197h-106l235 690h123zM402 277l-95 321h-2l-100 -321h197zM408 873q0 -40 -30.5 -70t-71.5 -30q-42 0 -72 29.5t-30 70.5q0 43 31.5 70.5t74.5 27.5q40 0 69 -29t29 -69zM351 874q0 17 -13.5 28.5t-30.5 11.5q-18 0 -32 -11.5t-14 -29.5
t13.5 -30.5t31.5 -12.5t31.5 12.5t13.5 31.5z" />
    <glyph glyph-name="AE" unicode="&#xc6;" horiz-adv-x="833" 
d="M803 0h-321l-22 284h-195l-150 -284h-112l389 690h402v-80h-258l18 -246h229v-80h-223l15 -204h228v-80zM454 364l-17 241h-2l-125 -241h144z" />
    <glyph glyph-name="Ccedilla" unicode="&#xc7;" horiz-adv-x="537" 
d="M214 -236v63q35 -26 67 -26q20 0 32 12t12 32q0 53 -77 53l-21 -3l23 101q-204 49 -204 357q0 70 12.5 128.5t40.5 110t81 80.5t127 29q98 0 160 -52t62 -148h-116q2 55 -26 87.5t-83 32.5q-37 0 -65 -17.5t-43 -43t-24.5 -61t-12.5 -66t-3 -64.5q0 -45 3 -81t14.5 -79
t30.5 -72t54 -48.5t83 -19.5q78 0 161 54v-93q-92 -41 -181 -41h-15l-13 -54q2 0 5.5 0.5t5.5 0.5q43 0 71.5 -24t28.5 -67q0 -50 -32 -76t-83 -26q-33 0 -75 21z" />
    <glyph glyph-name="Egrave" unicode="&#xc8;" horiz-adv-x="500" 
d="M470 0h-390v690h381v-80h-281v-211h267v-80h-267v-239h290v-80zM306 773h-83l-84 167h121z" />
    <glyph glyph-name="Eacute" unicode="&#xc9;" horiz-adv-x="500" 
d="M470 0h-390v690h381v-80h-281v-211h267v-80h-267v-239h290v-80zM311 773h-83l46 167h121z" />
    <glyph glyph-name="Ecircumflex" unicode="&#xca;" horiz-adv-x="500" 
d="M470 0h-390v690h381v-80h-281v-211h267v-80h-267v-239h290v-80zM416 773h-81l-71 84l-69 -84h-81l95 149h108z" />
    <glyph glyph-name="Edieresis" unicode="&#xcb;" horiz-adv-x="500" 
d="M470 0h-390v690h381v-80h-281v-211h267v-80h-267v-239h290v-80zM439 785h-123v110h123v-110zM233 785h-123v110h123v-110z" />
    <glyph glyph-name="Igrave" unicode="&#xcc;" horiz-adv-x="259" 
d="M180 0h-100v690h100v-690zM171 773h-83l-84 167h121z" />
    <glyph glyph-name="Iacute" unicode="&#xcd;" horiz-adv-x="259" 
d="M180 0h-100v690h100v-690zM176 773h-83l46 167h121z" />
    <glyph glyph-name="Icircumflex" unicode="&#xce;" horiz-adv-x="259" 
d="M180 0h-100v690h100v-690zM281 773h-81l-71 84l-69 -84h-81l95 149h108z" />
    <glyph glyph-name="Idieresis" unicode="&#xcf;" horiz-adv-x="259" 
d="M180 0h-100v690h100v-690zM294 785h-123v110h123v-110zM88 785h-123v110h123v-110z" />
    <glyph glyph-name="Eth" unicode="&#xd0;" horiz-adv-x="593" 
d="M257 0h-177v331h-80v56h80v303h177q161 0 226 -88t65 -255q0 -170 -65 -258.5t-226 -88.5zM180 80h59q67 0 107 20q92 51 92 245q0 31 -1 55t-7 56.5t-16 56.5t-29 46.5t-45 33.5q-36 17 -102 17h-58v-223h133v-56h-133v-251z" />
    <glyph glyph-name="Ntilde" unicode="&#xd1;" horiz-adv-x="648" 
d="M569 0h-118l-279 553h-2v-553h-90v690h125l272 -540h2v540h90v-690zM404 911h59v-18v-20.5t-1 -19.5t-2.5 -21l-4.5 -18t-8 -17l-11.5 -12t-16 -9.5t-21.5 -2.5q-32 0 -80 30.5t-53 30.5q-7 0 -11.5 -3.5t-6 -11t-2 -11.5t0.5 -14v-11h-59q0 84 10 100q18 37 57 37
q25 0 76 -33.5t57 -33.5q5 0 8 2.5t5 7t3 9.5t1 11.5v11v10v6.5z" />
    <glyph glyph-name="Ograve" unicode="&#xd2;" horiz-adv-x="630" 
d="M315 -11q-269 0 -269 356t269 356q270 0 270 -356t-270 -356zM315 69q160 0 160 276t-160 276q-159 0 -159 -276t159 -276zM356 773h-83l-84 167h121z" />
    <glyph glyph-name="Oacute" unicode="&#xd3;" horiz-adv-x="630" 
d="M315 -11q-269 0 -269 356t269 356q270 0 270 -356t-270 -356zM315 69q160 0 160 276t-160 276q-159 0 -159 -276t159 -276zM356 773h-83l46 167h121z" />
    <glyph glyph-name="Ocircumflex" unicode="&#xd4;" horiz-adv-x="630" 
d="M315 -11q-269 0 -269 356t269 356q270 0 270 -356t-270 -356zM315 69q160 0 160 276t-160 276q-159 0 -159 -276t159 -276zM466 773h-81l-71 84l-69 -84h-81l95 149h108z" />
    <glyph glyph-name="Otilde" unicode="&#xd5;" horiz-adv-x="630" 
d="M315 -11q-269 0 -269 356t269 356q270 0 270 -356t-270 -356zM315 69q160 0 160 276t-160 276q-159 0 -159 -276t159 -276zM395 911h59v-18v-20.5t-1 -19.5t-2.5 -21l-4.5 -18t-8 -17l-11.5 -12t-16 -9.5t-21.5 -2.5q-31 0 -80 30.5t-53 30.5q-7 0 -11.5 -3.5t-6 -11
t-2 -11.5t-0.5 -14l1 -11h-59q0 84 10 100q18 37 57 37q25 0 76 -33.5t57 -33.5q5 0 8 2.5t5 7t3 9.5t1 11.5v11v10v6.5z" />
    <glyph glyph-name="Odieresis" unicode="&#xd6;" horiz-adv-x="630" 
d="M315 -11q-269 0 -269 356t269 356q270 0 270 -356t-270 -356zM315 69q160 0 160 276t-160 276q-159 0 -159 -276t159 -276zM479 785h-123v110h123v-110zM273 785h-123v110h123v-110z" />
    <glyph glyph-name="multiply" unicode="&#xd7;" horiz-adv-x="593" 
d="M534 68l-71 -68l-166 176l-168 -176l-70 68l170 178l-167 182l72 64l164 -174l162 174l74 -64l-169 -180z" />
    <glyph glyph-name="Oslash" unicode="&#xd8;" horiz-adv-x="630" 
d="M107 -42l-51 32l56 91q-42 52 -54 113t-12 151q0 356 269 356q50 0 85 -10t75 -36l50 80l50 -31l-57 -91q67 -85 67 -268q0 -356 -270 -356q-55 0 -88 9t-71 40zM174 178l251 399q-37 44 -110 44q-159 0 -159 -276q0 -89 18 -167zM458 515l-255 -401q37 -45 112 -45
q52 0 86 26t49 72t20 86t5 92q0 108 -17 170z" />
    <glyph glyph-name="Ugrave" unicode="&#xd9;" horiz-adv-x="611" 
d="M440 223v467h100v-486q0 -105 -64 -160t-171 -55q-108 0 -170.5 54.5t-62.5 160.5v486h100v-467q0 -76 29 -115t103 -39q77 0 106.5 38.5t29.5 115.5zM347 773h-83l-84 167h121z" />
    <glyph glyph-name="Uacute" unicode="&#xda;" horiz-adv-x="611" 
d="M440 223v467h100v-486q0 -105 -64 -160t-171 -55q-108 0 -170.5 54.5t-62.5 160.5v486h100v-467q0 -76 29 -115t103 -39q77 0 106.5 38.5t29.5 115.5zM347 773h-83l46 167h121z" />
    <glyph glyph-name="Ucircumflex" unicode="&#xdb;" horiz-adv-x="611" 
d="M440 223v467h100v-486q0 -105 -64 -160t-171 -55q-108 0 -170.5 54.5t-62.5 160.5v486h100v-467q0 -76 29 -115t103 -39q77 0 106.5 38.5t29.5 115.5zM457 773h-81l-71 84l-69 -84h-81l95 149h108z" />
    <glyph glyph-name="Udieresis" unicode="&#xdc;" horiz-adv-x="611" 
d="M440 223v467h100v-486q0 -105 -64 -160t-171 -55q-108 0 -170.5 54.5t-62.5 160.5v486h100v-467q0 -76 29 -115t103 -39q77 0 106.5 38.5t29.5 115.5zM470 785h-123v110h123v-110zM264 785h-123v110h123v-110z" />
    <glyph glyph-name="Yacute" unicode="&#xdd;" horiz-adv-x="519" 
d="M309 0h-100v319l-221 371h110l161 -266l162 266h110l-222 -371v-319zM301 773h-83l46 167h121z" />
    <glyph glyph-name="Thorn" unicode="&#xde;" horiz-adv-x="500" 
d="M180 0h-100v690h100v-125h83q117 0 171 -43.5t54 -158.5q0 -119 -53.5 -164t-171.5 -45h-83v-154zM180 234h85q113 0 113 125q0 58 -28 92t-85 34h-85v-251z" />
    <glyph glyph-name="germandbls" unicode="&#xdf;" horiz-adv-x="537" 
d="M216 1v62q34 -12 66 -12q112 0 112 137q0 83 -30 118t-111 37v60q104 0 104 125q0 46 -24 79.5t-68 33.5q-60 0 -80.5 -36.5t-20.5 -101.5v-503h-90v478q0 109 43 166t150 57q82 0 136 -44t54 -125q0 -64 -25 -102.5t-83 -55.5v-2q145 -18 145 -186q0 -96 -52.5 -145.5
t-149.5 -49.5q-40 0 -76 10z" />
    <glyph glyph-name="agrave" unicode="&#xe0;" horiz-adv-x="463" 
d="M393 0h-90v59h-2q-15 -33 -50 -51.5t-73 -18.5q-61 0 -98 34t-37 94q0 47 25 80t67.5 48.5t82.5 21.5t85 6v73q0 35 -20.5 53t-52.5 18q-36 0 -56 -19t-20 -54h-95q0 74 49.5 108.5t128.5 34.5q156 0 156 -153v-334zM303 186v27h-18q-51 0 -96.5 -23.5t-45.5 -69.5
q0 -24 14.5 -42.5t37.5 -18.5q44 0 76 41t32 86zM273 559h-83l-84 167h121z" />
    <glyph glyph-name="aacute" unicode="&#xe1;" horiz-adv-x="463" 
d="M393 0h-90v59h-2q-15 -33 -50 -51.5t-73 -18.5q-61 0 -98 34t-37 94q0 47 25 80t67.5 48.5t82.5 21.5t85 6v73q0 35 -20.5 53t-52.5 18q-36 0 -56 -19t-20 -54h-95q0 74 49.5 108.5t128.5 34.5q156 0 156 -153v-334zM303 186v27h-18q-51 0 -96.5 -23.5t-45.5 -69.5
q0 -24 14.5 -42.5t37.5 -18.5q44 0 76 41t32 86zM273 559h-83l46 167h121z" />
    <glyph glyph-name="acircumflex" unicode="&#xe2;" horiz-adv-x="463" 
d="M393 0h-90v59h-2q-15 -33 -50 -51.5t-73 -18.5q-61 0 -98 34t-37 94q0 47 25 80t67.5 48.5t82.5 21.5t85 6v73q0 35 -20.5 53t-52.5 18q-36 0 -56 -19t-20 -54h-95q0 74 49.5 108.5t128.5 34.5q156 0 156 -153v-334zM303 186v27h-18q-51 0 -96.5 -23.5t-45.5 -69.5
q0 -24 14.5 -42.5t37.5 -18.5q44 0 76 41t32 86zM383 559h-81l-71 84l-69 -84h-81l95 149h108z" />
    <glyph glyph-name="atilde" unicode="&#xe3;" horiz-adv-x="463" 
d="M393 0h-90v59h-2q-15 -33 -50 -51.5t-73 -18.5q-61 0 -98 34t-37 94q0 47 25 80t67.5 48.5t82.5 21.5t85 6v73q0 35 -20.5 53t-52.5 18q-36 0 -56 -19t-20 -54h-95q0 74 49.5 108.5t128.5 34.5q156 0 156 -153v-334zM303 186v27h-18q-51 0 -96.5 -23.5t-45.5 -69.5
q0 -24 14.5 -42.5t37.5 -18.5q44 0 76 41t32 86zM311 697h59v-18v-20.5t-1 -19.5t-2.5 -21l-4.5 -18t-8 -17l-11.5 -12t-16 -9.5t-21.5 -2.5q-31 0 -80 30.5t-53 30.5q-7 0 -11.5 -3.5t-6 -11t-2 -11.5t-0.5 -14l1 -11h-59q0 84 10 100q18 37 57 37q25 0 76 -33.5t57 -33.5
q5 0 8 2.5t5 7t3 9.5t1 11.5v11v10v6.5z" />
    <glyph glyph-name="adieresis" unicode="&#xe4;" horiz-adv-x="463" 
d="M393 0h-90v59h-2q-15 -33 -50 -51.5t-73 -18.5q-61 0 -98 34t-37 94q0 47 25 80t67.5 48.5t82.5 21.5t85 6v73q0 35 -20.5 53t-52.5 18q-36 0 -56 -19t-20 -54h-95q0 74 49.5 108.5t128.5 34.5q156 0 156 -153v-334zM303 186v27h-18q-51 0 -96.5 -23.5t-45.5 -69.5
q0 -24 14.5 -42.5t37.5 -18.5q44 0 76 41t32 86zM396 571h-123v110h123v-110zM190 571h-123v110h123v-110z" />
    <glyph glyph-name="aring" unicode="&#xe5;" horiz-adv-x="463" 
d="M393 0h-90v59h-2q-15 -33 -50 -51.5t-73 -18.5q-61 0 -98 34t-37 94q0 47 25 80t67.5 48.5t82.5 21.5t85 6v73q0 35 -20.5 53t-52.5 18q-36 0 -56 -19t-20 -54h-95q0 74 49.5 108.5t128.5 34.5q156 0 156 -153v-334zM303 186v27h-18q-51 0 -96.5 -23.5t-45.5 -69.5
q0 -24 14.5 -42.5t37.5 -18.5q44 0 76 41t32 86zM334 659q0 -40 -30.5 -70t-71.5 -30q-42 0 -72 29.5t-30 70.5q0 43 31.5 70.5t74.5 27.5q40 0 69 -29t29 -69zM277 660q0 17 -13.5 28.5t-30.5 11.5q-18 0 -32 -11.5t-14 -29.5t13.5 -30.5t31.5 -12.5t31.5 12.5t13.5 31.5z
" />
    <glyph glyph-name="ae" unicode="&#xe6;" horiz-adv-x="721" 
d="M672 72v-66q-63 -17 -124 -17q-64 0 -107 20.5t-83 69.5q-55 -90 -170 -90q-64 0 -104.5 39t-40.5 103q0 52 25 88.5t68.5 54t86 24.5t92.5 7v24q0 88 -79 88q-31 0 -54 -16t-23 -46h-97q0 64 51.5 98t118.5 34q45 0 75 -12.5t58 -43.5q62 56 143 56q89 0 132 -51
t43 -141v-50h-278q19 -186 176 -186q51 0 91 13zM405 305h188q0 49 -21 80.5t-69 31.5q-47 0 -72.5 -32t-25.5 -80zM315 207v38h-26q-60 0 -108 -27.5t-48 -83.5q0 -34 19.5 -54.5t54.5 -20.5q56 0 82 44t26 104z" />
    <glyph glyph-name="ccedilla" unicode="&#xe7;" horiz-adv-x="426" 
d="M158 -236v63q36 -26 67 -26q20 0 32 12t12 32q0 53 -77 53l-21 -3l24 105q-77 23 -116.5 91.5t-39.5 163.5q0 105 50.5 168.5t152.5 63.5q81 0 125.5 -42.5t44.5 -123.5h-103q0 96 -73 96q-51 0 -74 -44.5t-23 -100.5q0 -95 48 -154t141 -59q45 0 76 10v-62
q-60 -18 -132 -18q-15 0 -22 1l-13 -55q2 0 5.5 0.5t5.5 0.5q44 0 72 -24t28 -67q0 -50 -32 -76t-83 -26q-37 0 -75 21z" />
    <glyph glyph-name="egrave" unicode="&#xe8;" horiz-adv-x="444" 
d="M395 76v-71q-71 -16 -119 -16q-121 0 -178.5 73.5t-57.5 198.5q0 103 48 164.5t146 61.5q84 0 128 -53t44 -138v-23h-276q0 -88 45 -151t130 -63q45 0 90 17zM134 333h182q0 38 -24.5 61t-62.5 23q-64 0 -88 -55q-7 -16 -7 -29zM273 559h-83l-84 167h121z" />
    <glyph glyph-name="eacute" unicode="&#xe9;" horiz-adv-x="444" 
d="M395 76v-71q-71 -16 -119 -16q-121 0 -178.5 73.5t-57.5 198.5q0 103 48 164.5t146 61.5q84 0 128 -53t44 -138v-23h-276q0 -88 45 -151t130 -63q45 0 90 17zM134 333h182q0 38 -24.5 61t-62.5 23q-64 0 -88 -55q-7 -16 -7 -29zM273 559h-83l46 167h121z" />
    <glyph glyph-name="ecircumflex" unicode="&#xea;" horiz-adv-x="444" 
d="M395 76v-71q-71 -16 -119 -16q-121 0 -178.5 73.5t-57.5 198.5q0 103 48 164.5t146 61.5q84 0 128 -53t44 -138v-23h-276q0 -88 45 -151t130 -63q45 0 90 17zM134 333h182q0 38 -24.5 61t-62.5 23q-64 0 -88 -55q-7 -16 -7 -29zM383 559h-81l-71 84l-69 -84h-81l95 149
h108z" />
    <glyph glyph-name="edieresis" unicode="&#xeb;" horiz-adv-x="444" 
d="M395 76v-71q-71 -16 -119 -16q-121 0 -178.5 73.5t-57.5 198.5q0 103 48 164.5t146 61.5q84 0 128 -53t44 -138v-23h-276q0 -88 45 -151t130 -63q45 0 90 17zM134 333h182q0 38 -24.5 61t-62.5 23q-64 0 -88 -55q-7 -16 -7 -29zM386 571h-123v110h123v-110zM180 571h-123
v110h123v-110z" />
    <glyph glyph-name="igrave" unicode="&#xec;" horiz-adv-x="259" 
d="M174 0h-90v476h90v-476zM171 559h-83l-84 167h121z" />
    <glyph glyph-name="iacute" unicode="&#xed;" horiz-adv-x="259" 
d="M174 0h-90v476h90v-476zM171 559h-83l46 167h121z" />
    <glyph glyph-name="icircumflex" unicode="&#xee;" horiz-adv-x="259" 
d="M174 0h-90v476h90v-476zM281 559h-81l-71 84l-69 -84h-81l95 149h108z" />
    <glyph glyph-name="idieresis" unicode="&#xef;" horiz-adv-x="259" 
d="M174 0h-90v476h90v-476zM294 571h-123v110h123v-110zM88 571h-123v110h123v-110z" />
    <glyph glyph-name="eth" unicode="&#xf0;" horiz-adv-x="500" 
d="M315 459l2 2q-32 51 -73 85l-96 -36l-16 44l69 26q-67 40 -100 51v3h142q26 -16 38 -25l78 30l16 -44l-54 -21q70 -84 101.5 -159t31.5 -177q0 -111 -48.5 -180t-154.5 -69t-155 69t-49 180q0 46 9.5 88t30 79.5t57.5 59.5t86 22q54 0 85 -28zM251 59q103 0 103 179
t-103 179q-104 0 -104 -179t104 -179z" />
    <glyph glyph-name="ntilde" unicode="&#xf1;" horiz-adv-x="519" 
d="M445 0h-90v260q0 39 -1 59q-3 38 -16 58t-48 20q-59 0 -92.5 -65t-33.5 -130v-202h-90v476h90v-102h2q45 113 151 113q67 0 97.5 -44t30.5 -113v-330zM339 697h59v-18v-20.5t-1 -19.5t-2.5 -21l-4.5 -18t-8 -17l-11.5 -12t-16 -9.5t-21.5 -2.5q-31 0 -80 30.5t-53 30.5
q-7 0 -11.5 -3.5t-6 -11t-2 -11.5t-0.5 -14l1 -11h-59q0 84 10 100q18 37 57 37q25 0 76 -33.5t57 -33.5q5 0 8 2.5t5 7t3 9.5t1 11.5v11v10v6.5z" />
    <glyph glyph-name="ograve" unicode="&#xf2;" horiz-adv-x="500" 
d="M251 -11q-109 0 -160 68t-51 181q0 112 51 180.5t160 68.5q108 0 159 -68.5t51 -180.5t-51 -180.5t-159 -68.5zM251 59q110 0 110 179t-110 179q-111 0 -111 -179t111 -179zM291 559h-83l-84 167h121z" />
    <glyph glyph-name="oacute" unicode="&#xf3;" horiz-adv-x="500" 
d="M251 -11q-109 0 -160 68t-51 181q0 112 51 180.5t160 68.5q108 0 159 -68.5t51 -180.5t-51 -180.5t-159 -68.5zM251 59q110 0 110 179t-110 179q-111 0 -111 -179t111 -179zM291 559h-83l46 167h121z" />
    <glyph glyph-name="ocircumflex" unicode="&#xf4;" horiz-adv-x="500" 
d="M251 -11q-109 0 -160 68t-51 181q0 112 51 180.5t160 68.5q108 0 159 -68.5t51 -180.5t-51 -180.5t-159 -68.5zM251 59q110 0 110 179t-110 179q-111 0 -111 -179t111 -179zM401 559h-81l-71 84l-69 -84h-81l95 149h108z" />
    <glyph glyph-name="otilde" unicode="&#xf5;" horiz-adv-x="500" 
d="M251 -11q-109 0 -160 68t-51 181q0 112 51 180.5t160 68.5q108 0 159 -68.5t51 -180.5t-51 -180.5t-159 -68.5zM251 59q110 0 110 179t-110 179q-111 0 -111 -179t111 -179zM329 697h59v-18v-20.5t-1 -19.5t-2.5 -21l-4.5 -18t-8 -17l-11.5 -12t-16 -9.5t-21.5 -2.5
q-31 0 -80 30.5t-53 30.5q-7 0 -11.5 -3.5t-6 -11t-2 -11.5t-0.5 -14l1 -11h-59q0 84 10 100q18 37 57 37q25 0 76 -33.5t57 -33.5q5 0 8 2.5t5 7t3 9.5t1 11.5v11v10v6.5z" />
    <glyph glyph-name="odieresis" unicode="&#xf6;" horiz-adv-x="500" 
d="M251 -11q-109 0 -160 68t-51 181q0 112 51 180.5t160 68.5q108 0 159 -68.5t51 -180.5t-51 -180.5t-159 -68.5zM251 59q110 0 110 179t-110 179q-111 0 -111 -179t111 -179zM414 571h-123v110h123v-110zM208 571h-123v110h123v-110z" />
    <glyph glyph-name="divide" unicode="&#xf7;" horiz-adv-x="593" 
d="M355 392h-117v117h117v-117zM535 210h-477v89h477v-89zM355 0h-117v117h117v-117z" />
    <glyph glyph-name="oslash" unicode="&#xf8;" horiz-adv-x="500" 
d="M88 -54l-40 27l50 76q-58 68 -58 193q0 112 53 178.5t162 66.5q60 0 113 -28l45 69l40 -27l-50 -74q58 -64 58 -197q0 -241 -213 -241q-61 0 -113 30zM153 133l169 257q-24 27 -66 27q-116 0 -116 -174q0 -51 13 -110zM347 339l-168 -253q27 -27 70 -27q112 0 112 158
q0 72 -14 122z" />
    <glyph glyph-name="ugrave" unicode="&#xf9;" horiz-adv-x="519" 
d="M440 0h-90v102h-2q-19 -52 -57.5 -82.5t-93.5 -30.5q-67 0 -97.5 44t-30.5 113v330h90v-260q0 -39 1 -59q3 -39 16 -58.5t48 -19.5q59 0 92.5 65t33.5 130v202h90v-476zM301 559h-83l-84 167h121z" />
    <glyph glyph-name="uacute" unicode="&#xfa;" horiz-adv-x="519" 
d="M440 0h-90v102h-2q-19 -52 -57.5 -82.5t-93.5 -30.5q-67 0 -97.5 44t-30.5 113v330h90v-260q0 -39 1 -59q3 -39 16 -58.5t48 -19.5q59 0 92.5 65t33.5 130v202h90v-476zM301 559h-83l46 167h121z" />
    <glyph glyph-name="ucircumflex" unicode="&#xfb;" horiz-adv-x="519" 
d="M440 0h-90v102h-2q-19 -52 -57.5 -82.5t-93.5 -30.5q-67 0 -97.5 44t-30.5 113v330h90v-260q0 -39 1 -59q3 -39 16 -58.5t48 -19.5q59 0 92.5 65t33.5 130v202h90v-476zM411 559h-81l-71 84l-69 -84h-81l95 149h108z" />
    <glyph glyph-name="udieresis" unicode="&#xfc;" horiz-adv-x="519" 
d="M440 0h-90v102h-2q-19 -52 -57.5 -82.5t-93.5 -30.5q-67 0 -97.5 44t-30.5 113v330h90v-260q0 -39 1 -59q3 -39 16 -58.5t48 -19.5q59 0 92.5 65t33.5 130v202h90v-476zM424 571h-123v110h123v-110zM218 571h-123v110h123v-110z" />
    <glyph glyph-name="yacute" unicode="&#xfd;" horiz-adv-x="444" 
d="M205 -205h-88l67 202l-181 479h100l125 -344h2l112 344h100zM268 559h-83l46 167h121z" />
    <glyph glyph-name="thorn" unicode="&#xfe;" horiz-adv-x="500" 
d="M164 -214h-90v904h90v-287h2q16 40 52 62t80 22q47 0 80.5 -22t50.5 -59t24.5 -76.5t7.5 -83.5q0 -35 -4 -68.5t-15.5 -68.5t-30 -61t-49 -42.5t-69.5 -16.5q-42 0 -77 20t-50 57h-2v-280zM268 59q93 0 93 179t-95 179q-28 0 -49.5 -19t-32 -48.5t-15.5 -58t-5 -54.5
q0 -29 4.5 -56.5t14.5 -56.5t32 -47t53 -18z" />
    <glyph glyph-name="ydieresis" unicode="&#xff;" horiz-adv-x="444" 
d="M205 -205h-88l67 202l-181 479h100l125 -344h2l112 344h100zM386 571h-123v110h123v-110zM180 571h-123v110h123v-110z" />
    <glyph glyph-name="dotlessi" unicode="&#x131;" horiz-adv-x="259" 
d="M174 0h-90v476h90v-476z" />
    <glyph glyph-name="Lslash" unicode="&#x141;" horiz-adv-x="444" 
d="M445 0h-365v258l-80 -61v81l80 62v350h100v-271l160 124v-86l-160 -122v-255h265v-80z" />
    <glyph glyph-name="lslash" unicode="&#x142;" horiz-adv-x="259" 
d="M174 0h-90v278l-80 -63v71l80 63v341h90v-261l81 63v-71l-81 -63v-358z" />
    <glyph glyph-name="OE" unicode="&#x152;" horiz-adv-x="889" 
d="M859 0h-387v84h-2q-22 -40 -69.5 -67.5t-93.5 -27.5q-64 0 -111.5 20t-76 51.5t-45.5 79.5t-22.5 96t-5.5 109q0 60 6 108t23 96t45 80t75.5 52t111.5 20q46 0 92 -27.5t71 -67.5h2v84h377v-80h-277v-210h263v-80h-263v-240h287v-80zM307 69q165 0 165 276t-165 276
q-35 0 -61 -12.5t-42 -36t-26.5 -48.5t-14.5 -60.5t-5.5 -60.5t-1.5 -58t1.5 -58t5.5 -60t14.5 -60.5t26.5 -49t42 -36t61 -12.5z" />
    <glyph glyph-name="oe" unicode="&#x153;" horiz-adv-x="778" 
d="M728 73v-67q-77 -17 -126 -17q-129 0 -184 84q-58 -84 -157 -84q-111 0 -166 67.5t-55 181.5q0 113 52 180t159 69h5q42 0 83 -18.5t67 -51.5q61 70 156 70q178 0 178 -209v-34h-285q19 -185 181 -185q45 0 92 14zM455 304h195q0 113 -99 113q-44 0 -70 -34t-26 -79z
M251 59q29 0 49.5 12t31 28.5t16 44t6.5 46.5t1 48q0 22 -1 39t-4 39.5t-10 38.5t-18 31t-29 23t-42 8q-33 0 -56.5 -17t-34.5 -45.5t-15.5 -57t-4.5 -59.5q0 -179 111 -179z" />
    <glyph glyph-name="Scaron" unicode="&#x160;" horiz-adv-x="500" 
d="M51 16v104q88 -51 183 -51q54 0 92.5 25t38.5 77q0 12 -1.5 22.5t-7 20t-8.5 16.5t-13 16t-13 13t-16.5 12.5l-16.5 10.5t-19 11.5t-17 10.5l-63 37q-40 22 -58 33.5t-44 34.5t-37 50.5t-11 63.5q0 92 66 135t163 43q79 0 157 -20v-94q-106 34 -162 34q-48 0 -81 -22.5
t-33 -67.5q0 -24 19 -47t37.5 -35.5t46.5 -28.5q6 -3 9 -5l68 -40q74 -41 109.5 -80.5t35.5 -109.5q0 -68 -37 -114t-91 -64t-121 -18q-97 0 -175 27zM315 773h-108l-98 149h81l71 -84l69 84h81z" />
    <glyph glyph-name="scaron" unicode="&#x161;" horiz-adv-x="370" 
d="M37 8v79q59 -28 120 -28q97 0 97 61q0 22 -22.5 41.5t-54 37l-63.5 37t-54.5 50t-22.5 68.5q0 66 49.5 99.5t119.5 33.5q29 0 108 -17v-81q-61 28 -109 28q-27 0 -52.5 -13.5t-25.5 -37.5q0 -21 22.5 -39.5t54.5 -35t63.5 -36t54 -51t22.5 -71.5q0 -76 -49.5 -110
t-129.5 -34q-60 0 -128 19zM250 559h-108l-98 149h81l71 -84l69 84h81z" />
    <glyph glyph-name="Ydieresis" unicode="&#x178;" horiz-adv-x="519" 
d="M309 0h-100v319l-221 371h110l161 -266l162 266h110l-222 -371v-319zM424 785h-123v110h123v-110zM218 785h-123v110h123v-110z" />
    <glyph glyph-name="Zcaron" unicode="&#x17d;" horiz-adv-x="500" 
d="M480 0h-460v81l328 529h-311v80h427v-81l-326 -529h342v-80zM305 773h-108l-98 149h81l71 -84l69 84h81z" />
    <glyph glyph-name="zcaron" unicode="&#x17e;" horiz-adv-x="389" 
d="M368 0h-349v70l231 336h-216v70h325v-68l-231 -338h240v-70zM259 559h-108l-98 149h81l71 -84l69 84h81z" />
    <glyph glyph-name="florin" unicode="&#x192;" horiz-adv-x="426" 
d="M169 0h-100l73 419h-85l13 60h82l11 63q14 72 70 110t133 38q50 0 102 -12l-12 -71q-45 13 -73 13q-37 0 -61 -9t-37.5 -31t-19.5 -41.5t-13 -59.5h134l-11 -60h-133z" />
    <glyph glyph-name="circumflex" unicode="&#x2c6;" horiz-adv-x="340" 
d="M321 559h-81l-71 84l-69 -84h-81l95 149h108z" />
    <glyph glyph-name="caron" unicode="&#x2c7;" horiz-adv-x="340" 
d="M225 559h-108l-98 149h81l71 -84l69 84h81z" />
    <glyph glyph-name="uni02C9" unicode="&#x2c9;" horiz-adv-x="340" 
d="M323 559h-306v77h306v-77z" />
    <glyph glyph-name="breve" unicode="&#x2d8;" horiz-adv-x="340" 
d="M254 716h68q0 -70 -44 -113.5t-114 -43.5q-67 0 -106.5 44t-39.5 113h68q4 -32 27.5 -53.5t54.5 -21.5q34 0 57 20.5t29 54.5z" />
    <glyph glyph-name="dotaccent" unicode="&#x2d9;" horiz-adv-x="340" 
d="M233 571h-126v113h126v-113z" />
    <glyph glyph-name="ring" unicode="&#x2da;" horiz-adv-x="340" 
d="M272 659q0 -40 -30.5 -70t-71.5 -30q-42 0 -72 29.5t-30 70.5q0 43 31.5 70.5t74.5 27.5q40 0 69 -29t29 -69zM215 660q0 17 -13.5 28.5t-30.5 11.5q-18 0 -32 -11.5t-14 -29.5t13.5 -30.5t31.5 -12.5t31.5 12.5t13.5 31.5z" />
    <glyph glyph-name="ogonek" unicode="&#x2db;" horiz-adv-x="340" 
d="M283 -176v-62q-31 -11 -66 -11q-46 0 -79 28t-33 72q0 41 26 85t62 71h58q-66 -66 -66 -130q0 -26 15 -46.5t40 -20.5q17 0 43 14z" />
    <glyph glyph-name="tilde" unicode="&#x2dc;" horiz-adv-x="340" 
d="M249 697h59v-18v-20.5t-1 -19.5t-2.5 -21l-4.5 -18t-8 -17l-11.5 -12t-16 -9.5t-21.5 -2.5q-31 0 -80 30.5t-53 30.5q-7 0 -11.5 -3.5t-6 -11t-2 -11.5t-0.5 -14l1 -11h-59q0 84 10 100q18 37 57 37q25 0 76 -33.5t57 -33.5q5 0 8 2.5t5 7t3 9.5t1 11.5v11v10v6.5z" />
    <glyph glyph-name="hungarumlaut" unicode="&#x2dd;" horiz-adv-x="340" 
d="M290 559h-83l45 167h121zM133 559h-83l46 167h121z" />
    <glyph glyph-name="uni0394" unicode="&#x394;" horiz-adv-x="611" 
d="M603 0h-594l235 690h124zM306 598l-165 -518h330z" />
    <glyph glyph-name="uni03A9" unicode="&#x3a9;" horiz-adv-x="630" 
d="M581 379q0 -198 -122 -301h117v-78h-213v78q108 92 108 279q0 45 -7.5 88t-24 84.5t-49 66.5t-76.5 25t-76 -25t-48.5 -66.5t-23.5 -84t-7 -88.5q0 -181 108 -279v-78h-213v78h117q-122 103 -122 301q0 48 8 92.5t27.5 87t49.5 73.5t76.5 50t105.5 19q74 0 128 -29
t82.5 -78t41.5 -102.5t13 -112.5z" />
    <glyph glyph-name="uni03BC" unicode="&#x3bc;" horiz-adv-x="509" 
d="M439 476v-357q0 -32 11.5 -43.5t42.5 -11.5v-70q-12 -2 -26 -2q-89 0 -105 77q-13 -36 -46 -58t-75 -22q-52 0 -83 41q0 -123 6 -244h-90v690h90v-274q0 -64 20.5 -103.5t64.5 -39.5q100 0 100 198v219h90z" />
    <glyph glyph-name="pi" unicode="&#x3c0;" horiz-adv-x="554" 
d="M539 476v-78h-100v-270q0 -36 13 -50t51 -14v-70q-16 -2 -42 -2q-60 0 -85 31.5t-25 95.5v279h-137v-398h-88v398q-47 0 -94 -14l-25 67q59 25 161 25h371z" />
    <glyph glyph-name="endash" unicode="&#x2013;" horiz-adv-x="556" 
d="M510 204h-464v107h464v-107z" />
    <glyph glyph-name="emdash" unicode="&#x2014;" horiz-adv-x="722" 
d="M677 204h-632v107h632v-107z" />
    <glyph glyph-name="quoteleft" unicode="&#x2018;" horiz-adv-x="222" 
d="M160 462h-116l38 228h87z" />
    <glyph glyph-name="quoteright" unicode="&#x2019;" horiz-adv-x="222" 
d="M141 462h-88l10 228h115z" />
    <glyph glyph-name="quotesinglbase" unicode="&#x201a;" horiz-adv-x="222" 
d="M141 -90h-88l10 228h115z" />
    <glyph glyph-name="quotedblleft" unicode="&#x201c;" horiz-adv-x="389" 
d="M335 462h-115l37 228h88zM168 462h-115l37 228h88z" />
    <glyph glyph-name="quotedblright" unicode="&#x201d;" horiz-adv-x="389" 
d="M308 462h-88l10 228h115zM141 462h-88l10 228h115z" />
    <glyph glyph-name="quotedblbase" unicode="&#x201e;" horiz-adv-x="389" 
d="M308 -90h-88l10 228h115zM141 -90h-88l10 228h115z" />
    <glyph glyph-name="dagger" unicode="&#x2020;" horiz-adv-x="556" 
d="M328 0h-100v376h-188v75h188v239h100v-239h187v-75h-187v-376z" />
    <glyph glyph-name="daggerdbl" unicode="&#x2021;" horiz-adv-x="556" 
d="M328 0h-100v302h-188v75h188v71h-188v75h188v167h100v-167h188v-75h-188v-71h188v-75h-188v-302z" />
    <glyph glyph-name="bullet" unicode="&#x2022;" horiz-adv-x="537" 
d="M450 360q0 -75 -53 -127.5t-128 -52.5t-128 52.5t-53 127.5t53 128.5t128 53.5t128 -53.5t53 -128.5z" />
    <glyph glyph-name="ellipsis" unicode="&#x2026;" horiz-adv-x="722" 
d="M661 0h-117v117h117v-117zM420 0h-117v117h117v-117zM179 0h-117v117h117v-117z" />
    <glyph glyph-name="perthousand" unicode="&#x2030;" horiz-adv-x="1222" 
d="M1038 -11q-158 0 -158 224q0 223 158 223t158 -223q0 -224 -158 -224zM667 -11q-158 0 -158 224q0 223 158 223q159 0 159 -223q0 -224 -159 -224zM348 0h-78l234 634h78zM185 198q-158 0 -158 223q0 224 158 224q159 0 159 -224q0 -223 -159 -223zM1038 39q24 0 41 13
t25.5 30.5t13 44.5t5.5 44.5t1 41.5t-1 41t-5.5 44.5t-13 44.5t-25.5 30t-41 13t-41 -13t-25.5 -30t-13 -44.5t-5.5 -44.5t-1 -41t1 -41.5t5.5 -44.5t13 -44.5t25.5 -30.5t41 -13zM667 39q87 0 87 174q0 173 -87 173q-24 0 -41 -13t-25.5 -30t-13 -44.5t-5.5 -44.5t-1 -41
t1 -41.5t5.5 -44.5t13 -44.5t25.5 -30.5t41 -13zM185 248q87 0 87 174q0 173 -87 173q-24 0 -41 -13t-25.5 -30t-13 -44.5t-5.5 -44.5t-1 -41t1 -41.5t5.5 -44.5t13 -44.5t25.5 -30.5t41 -13z" />
    <glyph glyph-name="guilsinglleft" unicode="&#x2039;" horiz-adv-x="241" 
d="M198 59h-93l-73 188l73 193h93l-65 -193z" />
    <glyph glyph-name="guilsinglright" unicode="&#x203a;" horiz-adv-x="241" 
d="M136 59h-93l65 193l-65 188h93l73 -188z" />
    <glyph glyph-name="fraction" unicode="&#x2044;" horiz-adv-x="300" 
d="M72 0h-77l232 634h78z" />
    <glyph glyph-name="zero.superior" unicode="&#x2070;" 
d="M181 391q-157 0 -157 225t157 225q160 0 160 -225q0 -44 -7 -81t-24 -71t-49.5 -53.5t-79.5 -19.5zM181 443q89 0 89 173q0 174 -89 174q-86 0 -86 -174q0 -173 86 -173z" />
    <glyph glyph-name="i.superior" unicode="&#x2071;" horiz-adv-x="168" 
d="M119 629h-70v61h70v-61zM113 276h-58v286h58v-286z" />
    <glyph glyph-name="four.superior" unicode="&#x2074;" 
d="M277 399h-71v112h-183v45l178 277h76v-270h75v-52h-75v-112zM206 563v189l-115 -189h115z" />
    <glyph glyph-name="five.superior" unicode="&#x2075;" 
d="M116 584h-70l12 249h232v-51h-166l-6 -134q29 19 71 19q63 0 98 -38.5t35 -102.5q0 -65 -41.5 -100t-108.5 -35q-58 0 -99.5 25.5t-45.5 80.5h79q0 -25 20 -39.5t46 -14.5q43 0 61 23t18 69q0 37 -19 58.5t-55 21.5q-40 0 -61 -31z" />
    <glyph glyph-name="six.superior" unicode="&#x2076;" 
d="M328 736h-77q0 24 -16 39t-39 15q-19 0 -33.5 -7.5t-23 -22.5t-13.5 -29.5t-7 -37t-2.5 -35t-0.5 -34.5q37 40 101 40q60 0 90 -37.5t30 -99.5q0 -64 -38 -100t-102 -36q-41 0 -70 14t-45 34t-25 53.5t-11 61.5t-2 68q0 47 5.5 81.5t20.5 68t46.5 51.5t79.5 18
q55 0 91.5 -25.5t40.5 -79.5zM192 443q74 0 74 85q0 84 -71 84q-35 0 -53 -24t-18 -60q0 -35 17.5 -60t50.5 -25z" />
    <glyph glyph-name="seven.superior" unicode="&#x2077;" 
d="M159 399h-77l158 383h-196v51h273v-54z" />
    <glyph glyph-name="eight.superior" unicode="&#x2078;" 
d="M258 624q69 -24 69 -107q0 -126 -144 -126q-145 0 -145 126q0 83 71 108q-30 12 -46.5 39.5t-16.5 62.5q0 58 39 86t98 28q60 0 98.5 -28t38.5 -86q0 -81 -62 -103zM183 652q66 0 66 71q0 32 -17.5 49.5t-48.5 17.5t-48 -17.5t-17 -49.5q0 -71 65 -71zM183 443
q39 0 56 19t17 59q0 79 -73 79t-73 -79q0 -78 73 -78z" />
    <glyph glyph-name="nine.superior" unicode="&#x2079;" 
d="M38 496h80q0 -23 15.5 -38t37.5 -15q28 0 46.5 16t25 46.5t8 50.5t1.5 53q-36 -39 -101 -39q-61 0 -91.5 37t-30.5 99q0 65 38.5 100t102.5 35q41 0 70 -14t45 -34t25 -53.5t11 -61.5t2 -68q0 -36 -3 -64.5t-12.5 -59t-26 -50t-45 -32.5t-66.5 -13q-54 0 -91 26t-41 79z
M172 621q36 0 54.5 23t18.5 60q0 36 -18 61t-53 25q-73 0 -73 -85q0 -84 71 -84z" />
    <glyph glyph-name="n.superior" unicode="&#x207f;" horiz-adv-x="337" 
d="M289 276h-58v156q0 23 -1 35q-2 23 -10.5 35t-31.5 12q-38 0 -59.5 -39t-21.5 -78v-121h-59v286h59v-62h1q28 68 98 68q43 0 63 -26t20 -68v-198z" />
    <glyph glyph-name="zero.inferior" unicode="&#x2080;" 
d="M181 -208q-157 0 -157 225t157 225q160 0 160 -225q0 -44 -7 -81t-24 -71t-49.5 -53.5t-79.5 -19.5zM181 -156q89 0 89 173q0 174 -89 174q-86 0 -86 -174q0 -173 86 -173z" />
    <glyph glyph-name="one.inferior" unicode="&#x2081;" 
d="M238 -200h-72v368l-85 -52v64l97 54h60v-434z" />
    <glyph glyph-name="two.inferior" unicode="&#x2082;" 
d="M316 -200h-279v53q72 60 138.5 138.5t66.5 135.5q0 64 -64 64q-27 0 -44 -16t-17 -44h-79q12 111 141 111q58 0 96 -31t38 -89q0 -23 -7 -46t-14 -40t-27 -41.5l-29.5 -36t-38.5 -38l-37 -33.5l-41 -35h197v-52z" />
    <glyph glyph-name="three.inferior" unicode="&#x2083;" 
d="M175 1h-20v52h20q32 0 50.5 18.5t18.5 50.5q0 69 -61 69q-52 0 -58 -52h-79q3 52 45 77.5t96 25.5q53 0 90.5 -29.5t37.5 -81.5q0 -81 -62 -103q70 -20 70 -105q0 -131 -140 -131q-57 0 -100.5 25.5t-44.5 80.5h80q0 -26 17.5 -40t43.5 -14q39 0 56 19t17 59q0 79 -77 79
z" />
    <glyph glyph-name="four.inferior" unicode="&#x2084;" 
d="M277 -200h-71v112h-183v45l178 277h76v-270h75v-52h-75v-112zM206 -36v189l-115 -189h115z" />
    <glyph glyph-name="five.inferior" unicode="&#x2085;" 
d="M116 -15h-70l12 249h232v-51h-166l-6 -134q28 19 71 19q63 0 98 -38.5t35 -102.5q0 -65 -41.5 -100t-108.5 -35q-58 0 -99.5 25.5t-45.5 80.5h79q0 -25 20 -39.5t46 -14.5q43 0 61 23t18 69q0 37 -19 58.5t-55 21.5q-40 0 -61 -31z" />
    <glyph glyph-name="six.inferior" unicode="&#x2086;" 
d="M328 137h-77q0 24 -16 39t-39 15q-19 0 -33.5 -7.5t-23 -22.5t-13.5 -29.5t-7 -37t-2.5 -35t-0.5 -34.5q37 40 101 40q60 0 90 -37.5t30 -99.5q0 -64 -38 -100t-102 -36q-41 0 -70 14t-45 34t-25 53.5t-11 61.5t-2 68q0 47 5.5 81.5t20.5 68t46.5 51.5t79.5 18
q55 0 91.5 -25.5t40.5 -79.5zM192 -156q74 0 74 85q0 84 -71 84q-35 0 -53 -24t-18 -60q0 -35 17.5 -60t50.5 -25z" />
    <glyph glyph-name="seven.inferior" unicode="&#x2087;" 
d="M159 -200h-77l158 383h-196v51h273v-54z" />
    <glyph glyph-name="eight.inferior" unicode="&#x2088;" 
d="M258 25q69 -24 69 -107q0 -126 -144 -126q-145 0 -145 126q0 83 71 108q-30 12 -46.5 39.5t-16.5 62.5q0 58 39 86t98 28q60 0 98.5 -28t38.5 -86q0 -81 -62 -103zM183 53q66 0 66 71q0 32 -17.5 49.5t-48.5 17.5t-48 -17.5t-17 -49.5q0 -71 65 -71zM183 -156q39 0 56 19
t17 59q0 79 -73 79t-73 -79q0 -78 73 -78z" />
    <glyph glyph-name="nine.inferior" unicode="&#x2089;" 
d="M38 -103h80q0 -23 15.5 -38t37.5 -15q28 0 46.5 16t25 46.5t8 50.5t1.5 53q-36 -39 -101 -39q-61 0 -91.5 37t-30.5 99q0 65 38.5 100t102.5 35q41 0 70 -14t45 -34t25 -53.5t11 -61.5t2 -68q0 -36 -3 -64.5t-12.5 -59t-26 -50t-45 -32.5t-66.5 -13q-54 0 -91 26t-41 79z
M172 22q36 0 54.5 23t18.5 60q0 36 -18 61t-53 25q-73 0 -73 -85q0 -84 71 -84z" />
    <glyph glyph-name="Euro" unicode="&#x20ac;" horiz-adv-x="574" 
d="M532 116v-88q-88 -39 -156 -39q-102 0 -166 69t-76 195h-101l10 51h88v48h-79l10 51h71q10 126 69.5 194.5t159.5 68.5q88 0 141 -51t53 -138h-110q-3 116 -88 116q-102 0 -120 -185v-5h198l-10 -51h-191v-3q0 -7 1 -20.5t1 -19.5v-5h180l-10 -51h-165l1 -5
q18 -95 53 -138t98 -43q67 0 138 49z" />
    <glyph glyph-name="litre" unicode="&#x2113;" horiz-adv-x="485" 
d="M140 145v94l-56 -60l-34 46l90 96v221q0 91 35.5 138.5t97.5 47.5q53 0 78.5 -34.5t25.5 -78.5q0 -121 -113 -261q-6 -6 -18 -21t-14 -17v-165q0 -93 59 -93q39 0 78 45q4 -10 15 -28t16 -27q-62 -62 -132 -62q-58 0 -89 34q-39 40 -39 125zM232 553v-149q2 3 8 10t9 12
q67 94 67 178q0 51 -36 51q-48 0 -48 -102z" />
    <glyph glyph-name="trademark" unicode="&#x2122;" horiz-adv-x="611" 
d="M492 400h-44v262h-2l-57 -262h-53l-57 262h-2v-262h-44v290h80l48 -228h2l49 228h80v-290zM127 400h-44v248h-73v42h190v-42h-73v-248z" />
    <glyph glyph-name="Omega" unicode="&#x2126;" horiz-adv-x="630" 
d="M581 379q0 -198 -122 -301h117v-78h-213v78q108 92 108 279q0 45 -7.5 88t-24 84.5t-49 66.5t-76.5 25t-76 -25t-48.5 -66.5t-23.5 -84t-7 -88.5q0 -181 108 -279v-78h-213v78h117q-122 103 -122 301q0 48 8 92.5t27.5 87t49.5 73.5t76.5 50t105.5 19q74 0 128 -29
t82.5 -78t41.5 -102.5t13 -112.5z" />
    <glyph glyph-name="estimated" unicode="&#x212e;" horiz-adv-x="654" 
d="M525 154l35 -22q-48 -72 -104 -108t-140 -36q-125 0 -200.5 84.5t-75.5 210.5q0 127 75 211.5t201 84.5q128 0 203 -83.5t79 -212.5h-437v-195q66 -63 155 -63q70 0 119 32.5t90 96.5zM473 320v157q-65 65 -157 65q-94 0 -155 -64v-158h312z" />
    <glyph glyph-name="onethird" unicode="&#x2153;" horiz-adv-x="852" 
d="M343 0h-77l233 634h77zM665 201h-20v52h20q32 0 50.5 18.5t18.5 50.5q0 69 -61 69q-52 0 -58 -52h-79q3 52 45 77.5t96 25.5q53 0 90.5 -29.5t37.5 -81.5q0 -81 -62 -103q70 -20 70 -105q0 -131 -140 -131q-57 0 -100.5 25.5t-44.5 80.5h80q0 -26 17.5 -40t43.5 -14
q39 0 56 19t17 59q0 79 -77 79zM206 202h-72v368l-85 -52v64l97 54h60v-434z" />
    <glyph glyph-name="twothirds" unicode="&#x2154;" horiz-adv-x="852" 
d="M363 0h-77l233 634h77zM665 201h-20v52h20q32 0 50.5 18.5t18.5 50.5q0 69 -61 69q-52 0 -58 -52h-79q3 52 45 77.5t96 25.5q53 0 90.5 -29.5t37.5 -81.5q0 -81 -62 -103q70 -20 70 -105q0 -131 -140 -131q-57 0 -100.5 25.5t-44.5 80.5h80q0 -26 17.5 -40t43.5 -14
q39 0 56 19t17 59q0 79 -77 79zM316 203h-279v53q72 60 138.5 138.5t66.5 135.5q0 64 -64 64q-27 0 -44 -16t-17 -44h-79q12 111 141 111q58 0 96 -31t38 -89q0 -23 -7 -46t-14 -40t-27 -41.5l-29.5 -36t-38.5 -38l-37 -33.5l-41 -35h197v-52z" />
    <glyph glyph-name="oneeighth" unicode="&#x215b;" horiz-adv-x="852" 
d="M333 0h-77l233 634h77zM206 202h-72v368l-85 -52v64l97 54h60v-434zM745 225q69 -24 69 -107q0 -126 -144 -126q-145 0 -145 126q0 83 71 108q-30 12 -46.5 39.5t-16.5 62.5q0 58 39 86t98 28q60 0 98.5 -28t38.5 -86q0 -81 -62 -103zM670 253q66 0 66 71
q0 32 -17.5 49.5t-48.5 17.5t-48 -17.5t-17 -49.5q0 -71 65 -71zM670 44q39 0 56 19t17 59q0 79 -73 79t-73 -79q0 -78 73 -78z" />
    <glyph glyph-name="threeeighths" unicode="&#x215c;" horiz-adv-x="852" 
d="M166 404h-20v52h20q32 0 50.5 18.5t18.5 50.5q0 69 -61 69q-52 0 -58 -52h-79q3 52 45 77.5t96 25.5q53 0 90.5 -29.5t37.5 -81.5q0 -81 -62 -103q70 -20 70 -105q0 -131 -140 -131q-57 0 -100.5 25.5t-44.5 80.5h80q0 -26 17.5 -40t43.5 -14q39 0 56 19t17 59
q0 79 -77 79zM353 0h-77l233 634h77zM745 225q69 -24 69 -107q0 -126 -144 -126q-145 0 -145 126q0 83 71 108q-30 12 -46.5 39.5t-16.5 62.5q0 58 39 86t98 28q60 0 98.5 -28t38.5 -86q0 -81 -62 -103zM670 253q66 0 66 71q0 32 -17.5 49.5t-48.5 17.5t-48 -17.5t-17 -49.5
q0 -71 65 -71zM670 44q39 0 56 19t17 59q0 79 -73 79t-73 -79q0 -78 73 -78z" />
    <glyph glyph-name="fiveeighths" unicode="&#x215d;" horiz-adv-x="852" 
d="M353 0h-77l233 634h77zM745 225q69 -24 69 -107q0 -126 -144 -126q-145 0 -145 126q0 83 71 108q-30 12 -46.5 39.5t-16.5 62.5q0 58 39 86t98 28q60 0 98.5 -28t38.5 -86q0 -81 -62 -103zM670 253q66 0 66 71q0 32 -17.5 49.5t-48.5 17.5t-48 -17.5t-17 -49.5
q0 -71 65 -71zM670 44q39 0 56 19t17 59q0 79 -73 79t-73 -79q0 -78 73 -78zM131 388h-70l12 249h232v-51h-166l-6 -134q29 19 71 19q63 0 98 -38.5t35 -102.5q0 -65 -41.5 -100t-108.5 -35q-58 0 -99.5 25.5t-45.5 80.5h79q0 -25 20 -39.5t46 -14.5q43 0 61 23t18 69
q0 37 -19 58.5t-55 21.5q-40 0 -61 -31z" />
    <glyph glyph-name="seveneighths" unicode="&#x215e;" horiz-adv-x="852" 
d="M333 0h-77l233 634h77zM745 225q69 -24 69 -107q0 -126 -144 -126q-145 0 -145 126q0 83 71 108q-30 12 -46.5 39.5t-16.5 62.5q0 58 39 86t98 28q60 0 98.5 -28t38.5 -86q0 -81 -62 -103zM670 253q66 0 66 71q0 32 -17.5 49.5t-48.5 17.5t-48 -17.5t-17 -49.5
q0 -71 65 -71zM670 44q39 0 56 19t17 59q0 79 -73 79t-73 -79q0 -78 73 -78zM159 203h-77l158 383h-196v51h273v-54z" />
    <glyph glyph-name="partialdiff" unicode="&#x2202;" horiz-adv-x="565" 
d="M425 431h2q4 27 4 65q0 77 -34 116.5t-95 39.5q-48 0 -93 -25l-22 68q49 34 128 34q98 0 156 -65t58 -186q0 -94 -24 -192q-19 -79 -55 -144t-94.5 -109t-127.5 -44q-83 0 -134.5 53t-51.5 139q0 141 78.5 228t178.5 87q45 0 77.5 -19t48.5 -46zM415 347q-10 35 -36.5 56
t-65.5 21q-69 0 -120 -73t-51 -175q0 -51 23.5 -80t63.5 -29q65 0 115 79t71 201z" />
    <glyph glyph-name="Delta" unicode="&#x2206;" horiz-adv-x="611" 
d="M603 0h-594l235 690h124zM306 598l-165 -518h330z" />
    <glyph glyph-name="product" unicode="&#x220f;" horiz-adv-x="704" 
d="M625 -230h-102v842h-342v-842h-102v930h546v-930z" />
    <glyph glyph-name="summation" unicode="&#x2211;" horiz-adv-x="619" 
d="M569 -230h-546v50l300 419l-279 404v57h503v-83h-379l260 -376l-277 -388h418v-83z" />
    <glyph glyph-name="minus" unicode="&#x2212;" horiz-adv-x="593" 
d="M535 210h-477v89h477v-89z" />
    <glyph glyph-name="uni2215" unicode="&#x2215;" horiz-adv-x="300" 
d="M72 0h-77l232 634h78z" />
    <glyph glyph-name="uni2219" unicode="&#x2219;" horiz-adv-x="241" 
d="M182 256h-123v123h123v-123z" />
    <glyph glyph-name="radical" unicode="&#x221a;" horiz-adv-x="498" 
d="M329 -12h-84l-127 324l-53 -33l-33 54l131 84l123 -316l149 628h71z" />
    <glyph glyph-name="infinity" unicode="&#x221e;" horiz-adv-x="766" 
d="M379 193h-2q-77 -106 -172 -106q-71 0 -119 45.5t-48 121.5t47.5 121.5t117.5 45.5q108 0 174 -105h2q27 42 71.5 73.5t101.5 31.5q72 0 119.5 -45.5t47.5 -118.5t-46.5 -121.5t-117.5 -48.5q-54 0 -100.5 29.5t-75.5 76.5zM416 255q57 -97 130 -97q44 0 68 28t24 70
q0 41 -23.5 67.5t-68.5 26.5q-40 0 -69 -23.5t-61 -71.5zM340 255q-58 96 -130 96q-43 0 -67.5 -28.5t-24.5 -69.5t26 -68t66 -27q69 0 130 97z" />
    <glyph glyph-name="integral" unicode="&#x222b;" horiz-adv-x="482" 
d="M48 -217l19 74q22 -8 42 -8q75 0 75 93v627q0 82 41.5 131t122.5 49q52 0 75 -14l-21 -72q-18 8 -42 8q-75 0 -75 -93v-627q0 -83 -41.5 -131.5t-120.5 -48.5q-37 0 -75 12z" />
    <glyph glyph-name="approxequal" unicode="&#x2248;" horiz-adv-x="593" 
d="M477 452l63 -73q-59 -90 -142 -90q-56 0 -108 31q-55 32 -90 32q-41 0 -83 -66l-63 73q30 44 62 67t80 23q56 0 107 -30q57 -33 91 -33q44 0 83 66zM477 222l63 -73q-59 -90 -142 -90q-56 0 -108 31q-55 32 -90 32q-41 0 -83 -66l-63 74q31 44 62.5 66.5t79.5 22.5
q56 0 107 -30q57 -33 91 -33q44 0 83 66z" />
    <glyph glyph-name="notequal" unicode="&#x2260;" horiz-adv-x="593" 
d="M512 91h-236l-50 -111h-106l50 111h-88v97h131l61 133h-192v97h236l55 125h106l-56 -125h89v-97h-132l-61 -133h193v-97z" />
    <glyph glyph-name="lessequal" unicode="&#x2264;" horiz-adv-x="593" 
d="M512 0h-430v97h430v-97zM512 141l-430 181v87l430 181v-101l-305 -123v-2l305 -122v-101z" />
    <glyph glyph-name="greaterequal" unicode="&#x2265;" horiz-adv-x="593" 
d="M511 0h-429v97h429v-97zM512 323l-430 -181v102l305 122v2l-305 122v101l430 -181v-87z" />
    <glyph glyph-name="lozenge" unicode="&#x25ca;" horiz-adv-x="547" 
d="M287 0h-50l-195 349l195 351h50l196 -350zM262 94l143 256l-143 256l-142 -256z" />
    <glyph glyph-name="zero.fitted" unicode="&#xe097;" horiz-adv-x="554" 
d="M509 317q0 -51 -6 -95t-21.5 -88t-41 -75t-67.5 -50.5t-97 -19.5q-231 0 -231 328t231 328q55 0 97 -19.5t67.5 -50.5t41 -75t21.5 -88t6 -95zM409 317q0 258 -133 258q-44 0 -72.5 -25.5t-40 -71.5t-15 -80.5t-3.5 -80.5q0 -35 1.5 -62t9 -66.5t20.5 -65.5t38.5 -45
t61.5 -19t62.5 19t39.5 44.5t20.5 65t9 66.5t1.5 63z" />
    <glyph glyph-name="two.fitted" unicode="&#xe098;" horiz-adv-x="524" 
d="M458 0h-408v73q44 36 89.5 80.5t97 102.5t84 117.5t32.5 105.5t-25.5 71t-71.5 25q-41 0 -68 -23t-27 -64h-110q9 81 64.5 119t141.5 38q85 0 140.5 -45t55.5 -128q0 -142 -161 -295q-36 -35 -122 -107h288v-70z" />
    <glyph glyph-name="three.fitted" unicode="&#xe099;" horiz-adv-x="527" 
d="M455 178q0 -189 -205 -189q-84 0 -147 36t-65 113h113q0 -38 27 -58.5t66 -20.5q59 0 85 29t26 88q0 121 -117 121h-26v70h26q49 0 77 27.5t28 76.5q0 104 -92 104q-42 0 -64 -18t-26 -58h-110q2 50 35 84.5t76.5 48t93.5 13.5q78 0 132.5 -42.5t54.5 -117.5
q0 -123 -103 -151q115 -27 115 -156z" />
    <glyph glyph-name="four.fitted" unicode="&#xe09a;" horiz-adv-x="537" 
d="M517 165h-109v-165h-100v165h-272v62l262 407h110v-399h109v-70zM308 235v296l-180 -296h180z" />
    <glyph glyph-name="five.fitted" unicode="&#xe09b;" horiz-adv-x="535" 
d="M491 184q0 -95 -61 -145t-158 -50q-86 0 -146 35.5t-66 114.5h110q0 -37 30.5 -58.5t70.5 -21.5q65 0 92.5 35t27.5 103q0 55 -28.5 88t-83.5 33q-63 0 -93 -45h-99l18 361h339v-70h-248l-9 -207q43 31 110 31q93 0 143.5 -55t50.5 -149z" />
    <glyph glyph-name="six.fitted" unicode="&#xe09c;" horiz-adv-x="533" 
d="M488 185q0 -94 -55 -145t-150 -51q-43 0 -77 10.5t-57 27t-40 43.5t-26 53.5t-14.5 63.5t-7 67.5t-1.5 71.5q0 53 4 94.5t18 85.5t37.5 73t65 47.5t97.5 18.5q80 0 133.5 -36.5t59.5 -111.5h-110q0 35 -24.5 56.5t-59.5 21.5q-29 0 -51 -12t-34.5 -36t-20.5 -46
t-11 -57.5t-3.5 -54t-0.5 -50.5q55 65 152 65q88 0 132 -54.5t44 -144.5zM388 187q0 58 -26 92.5t-82 34.5q-53 0 -80.5 -36.5t-27.5 -90.5q0 -53 26.5 -90.5t77.5 -37.5q112 0 112 128z" />
    <glyph glyph-name="seven.fitted" unicode="&#xe09d;" horiz-adv-x="489" 
d="M442 558l-234 -558h-107l234 564h-291v70h398v-76z" />
    <glyph glyph-name="eight.fitted" unicode="&#xe09e;" horiz-adv-x="532" 
d="M477 171q0 -182 -211 -182t-211 182q0 125 115 158q-51 16 -77.5 56t-26.5 96q0 83 56.5 123.5t143.5 40.5t143.5 -40.5t56.5 -123.5q0 -122 -104 -152q115 -34 115 -158zM366 474q0 48 -26 74.5t-74 26.5q-47 0 -73.5 -27t-26.5 -74q0 -51 25 -79.5t75 -28.5t75 28.5
t25 79.5zM377 176q0 120 -111 120q-55 0 -83 -32t-28 -88q0 -117 111 -117q59 0 85 29t26 88z" />
    <glyph glyph-name="nine.fitted" unicode="&#xe09f;" horiz-adv-x="534" 
d="M474 308q0 -53 -4.5 -94.5t-18.5 -85.5t-37.5 -73t-65 -47.5t-97.5 -18.5q-80 0 -133.5 36t-59.5 112h111q0 -34 24.5 -56t58.5 -22q29 0 51 12t35 36t21 46t11 57.5t3.5 54t0.5 50.5q-54 -64 -152 -64q-89 0 -133 54t-44 145q0 94 55.5 144.5t150.5 50.5q43 0 77 -10.5
t57 -27t40 -43.5t26 -53.5t14.5 -63.5t7 -67.5t1.5 -71.5zM364 447q0 54 -27.5 91t-79.5 37q-113 0 -113 -127t109 -127q55 0 83 34.5t28 91.5z" />
    <glyph glyph-name="zero.denominator" unicode="&#xe10a;" 
d="M181 -8q-157 0 -157 225t157 225q160 0 160 -225q0 -44 -7 -81t-24 -71t-49.5 -53.5t-79.5 -19.5zM181 44q89 0 89 173q0 174 -89 174q-86 0 -86 -174q0 -173 86 -173z" />
    <glyph glyph-name="one.denominator" unicode="&#xe10b;" 
d="M238 0h-72v368l-85 -52v64l97 54h60v-434z" />
    <glyph glyph-name="two.denominator" unicode="&#xe10c;" 
d="M316 0h-279v53q72 60 138.5 138.5t66.5 135.5q0 64 -64 64q-27 0 -44 -16t-17 -44h-79q12 111 141 111q58 0 96 -31t38 -89q0 -23 -7 -46t-14 -40t-27 -41.5l-29.5 -36t-38.5 -38l-37 -33.5l-41 -35h197v-52z" />
    <glyph glyph-name="three.denominator" unicode="&#xe10d;" 
d="M175 201h-20v52h20q32 0 50.5 18.5t18.5 50.5q0 69 -61 69q-52 0 -58 -52h-79q3 52 45 77.5t96 25.5q53 0 90.5 -29.5t37.5 -81.5q0 -81 -62 -103q70 -20 70 -105q0 -131 -140 -131q-57 0 -100.5 25.5t-44.5 80.5h80q0 -26 17.5 -40t43.5 -14q39 0 56 19t17 59
q0 79 -77 79z" />
    <glyph glyph-name="four.denominator" unicode="&#xe10e;" 
d="M277 0h-71v112h-183v45l178 277h76v-270h75v-52h-75v-112zM206 164v189l-115 -189h115z" />
    <glyph glyph-name="five.denominator" unicode="&#xe10f;" 
d="M116 185h-70l12 249h232v-51h-166l-6 -134q28 19 71 19q63 0 98 -38.5t35 -102.5q0 -65 -41.5 -100t-108.5 -35q-58 0 -99.5 25.5t-45.5 80.5h79q0 -25 20 -39.5t46 -14.5q43 0 61 23t18 69q0 37 -19 58.5t-55 21.5q-40 0 -61 -31z" />
    <glyph glyph-name="six.denominator" unicode="&#xe110;" 
d="M328 337h-77q0 24 -16 39t-39 15q-19 0 -33.5 -7.5t-23 -22.5t-13.5 -29.5t-7 -37t-2.5 -35t-0.5 -34.5q37 40 101 40q60 0 90 -37.5t30 -99.5q0 -64 -38 -100t-102 -36q-41 0 -70 14t-45 34t-25 53.5t-11 61.5t-2 68q0 47 5.5 81.5t20.5 68t46.5 51.5t79.5 18
q55 0 91.5 -25.5t40.5 -79.5zM192 44q74 0 74 85q0 84 -71 84q-35 0 -53 -24t-18 -60q0 -35 17.5 -60t50.5 -25z" />
    <glyph glyph-name="seven.denominator" unicode="&#xe111;" 
d="M159 0h-77l158 383h-196v51h273v-54z" />
    <glyph glyph-name="eight.denominator" unicode="&#xe112;" 
d="M258 225q69 -24 69 -107q0 -126 -144 -126q-145 0 -145 126q0 83 71 108q-30 12 -46.5 39.5t-16.5 62.5q0 58 39 86t98 28q60 0 98.5 -28t38.5 -86q0 -81 -62 -103zM183 253q66 0 66 71q0 32 -17.5 49.5t-48.5 17.5t-48 -17.5t-17 -49.5q0 -71 65 -71zM183 44q39 0 56 19
t17 59q0 79 -73 79t-73 -79q0 -78 73 -78z" />
    <glyph glyph-name="nine.denominator" unicode="&#xe113;" 
d="M38 97h80q0 -23 15.5 -38t37.5 -15q28 0 46.5 16t25 46.5t8 50.5t1.5 53q-36 -39 -101 -39q-61 0 -91.5 37t-30.5 99q0 65 38.5 100t102.5 35q41 0 70 -14t45 -34t25 -53.5t11 -61.5t2 -68q0 -36 -3 -64.5t-12.5 -59t-26 -50t-45 -32.5t-66.5 -13q-54 0 -91 26t-41 79z
M172 222q36 0 54.5 23t18.5 60q0 36 -18 61t-53 25q-73 0 -73 -85q0 -84 71 -84z" />
    <glyph glyph-name="cent.denominator" unicode="&#xe119;" horiz-adv-x="327" 
d="M189 -74h-39v66q-129 21 -129 183q0 67 32.5 111.5t96.5 48.5v55h39v-55q53 -7 84.5 -37.5t31.5 -85.5h-73q0 71 -43 83v-258q13 -4 27 -4q39 0 80 17v-37q-42 -21 -107 -21v-66zM150 58v238q-58 -14 -58 -113q0 -84 58 -125z" />
    <glyph glyph-name="dollar.denominator" unicode="&#xe11b;" horiz-adv-x="390" 
d="M217 -69h-45v61q-61 3 -97 27.5t-41 82.5h88q0 -60 50 -64v177q-29 9 -47.5 17t-40 22.5t-32.5 36t-11 50.5q0 55 37.5 85t93.5 32v56h45v-56q50 -4 90 -33t40 -77h-88q-2 29 -10 44.5t-32 21.5v-162l24 -8q4 -2 13 -4.5t13 -3.5q45 -18 69 -46t24 -75q0 -64 -37.5 -90
t-105.5 -33v-61zM172 271v143q-42 -9 -42 -65q0 -53 42 -78zM217 197v-159q55 8 55 71q0 35 -12.5 55t-42.5 33z" />
    <glyph glyph-name="zero.numerator" unicode="&#xe11e;" 
d="M181 195q-157 0 -157 225t157 225q160 0 160 -225q0 -44 -7 -81t-24 -71t-49.5 -53.5t-79.5 -19.5zM181 247q89 0 89 173q0 174 -89 174q-86 0 -86 -174q0 -173 86 -173z" />
    <glyph glyph-name="one.numerator" unicode="&#xe11f;" 
d="M238 202h-72v368l-85 -52v64l97 54h60v-434z" />
    <glyph glyph-name="two.numerator" unicode="&#xe120;" 
d="M316 203h-279v53q72 60 138.5 138.5t66.5 135.5q0 64 -64 64q-27 0 -44 -16t-17 -44h-79q12 111 141 111q58 0 96 -31t38 -89q0 -23 -7 -46t-14 -40t-27 -41.5l-29.5 -36t-38.5 -38l-37 -33.5l-41 -35h197v-52z" />
    <glyph glyph-name="three.numerator" unicode="&#xe121;" 
d="M175 404h-20v52h20q32 0 50.5 18.5t18.5 50.5q0 69 -61 69q-52 0 -58 -52h-79q3 52 45 77.5t96 25.5q53 0 90.5 -29.5t37.5 -81.5q0 -81 -62 -103q70 -20 70 -105q0 -131 -140 -131q-57 0 -100.5 25.5t-44.5 80.5h80q0 -26 17.5 -40t43.5 -14q39 0 56 19t17 59
q0 79 -77 79z" />
    <glyph glyph-name="four.numerator" unicode="&#xe122;" 
d="M277 203h-71v112h-183v45l178 277h76v-270h75v-52h-75v-112zM206 367v189l-115 -189h115z" />
    <glyph glyph-name="five.numerator" unicode="&#xe123;" 
d="M116 388h-70l12 249h232v-51h-166l-6 -134q29 19 71 19q63 0 98 -38.5t35 -102.5q0 -65 -41.5 -100t-108.5 -35q-58 0 -99.5 25.5t-45.5 80.5h79q0 -25 20 -39.5t46 -14.5q43 0 61 23t18 69q0 37 -19 58.5t-55 21.5q-40 0 -61 -31z" />
    <glyph glyph-name="six.numerator" unicode="&#xe124;" 
d="M328 540h-77q0 24 -16 39t-39 15q-19 0 -33.5 -7.5t-23 -22.5t-13.5 -29.5t-7 -37t-2.5 -35t-0.5 -34.5q37 40 101 40q60 0 90 -37.5t30 -99.5q0 -64 -38 -100t-102 -36q-41 0 -70 14t-45 34t-25 53.5t-11 61.5t-2 68q0 47 5.5 81.5t20.5 68t46.5 51.5t79.5 18
q55 0 91.5 -25.5t40.5 -79.5zM192 247q74 0 74 85q0 84 -71 84q-35 0 -53 -24t-18 -60q0 -35 17.5 -60t50.5 -25z" />
    <glyph glyph-name="seven.numerator" unicode="&#xe125;" 
d="M159 203h-77l158 383h-196v51h273v-54z" />
    <glyph glyph-name="eight.numerator" unicode="&#xe126;" 
d="M258 428q69 -24 69 -107q0 -126 -144 -126q-145 0 -145 126q0 83 71 108q-30 12 -46.5 39.5t-16.5 62.5q0 58 39 86t98 28q60 0 98.5 -28t38.5 -86q0 -81 -62 -103zM183 456q66 0 66 71q0 32 -17.5 49.5t-48.5 17.5t-48 -17.5t-17 -49.5q0 -71 65 -71zM183 247
q39 0 56 19t17 59q0 79 -73 79t-73 -79q0 -78 73 -78z" />
    <glyph glyph-name="nine.numerator" unicode="&#xe127;" 
d="M38 300h80q0 -23 15.5 -38t37.5 -15q28 0 46.5 16t25 46.5t8 50.5t1.5 53q-36 -39 -101 -39q-61 0 -91.5 37t-30.5 99q0 65 38.5 100t102.5 35q41 0 70 -14t45 -34t25 -53.5t11 -61.5t2 -68q0 -36 -3 -64.5t-12.5 -59t-26 -50t-45 -32.5t-66.5 -13q-54 0 -91 26t-41 79z
M172 425q36 0 54.5 23t18.5 60q0 36 -18 61t-53 25q-73 0 -73 -85q0 -84 71 -84z" />
    <glyph glyph-name="cent.numerator" unicode="&#xe12d;" horiz-adv-x="327" 
d="M189 129h-39v66q-129 21 -129 183q0 67 32.5 111.5t96.5 48.5v55h39v-55q53 -7 84.5 -37.5t31.5 -85.5h-73q0 71 -43 83v-258q13 -4 27 -4q39 0 80 17v-37q-42 -21 -107 -21v-66zM150 261v238q-58 -14 -58 -113q0 -84 58 -125z" />
    <glyph glyph-name="dollar.numerator" unicode="&#xe131;" horiz-adv-x="390" 
d="M217 134h-45v61q-61 3 -97 27.5t-41 82.5h88q0 -60 50 -64v177q-29 9 -47.5 17t-40 22.5t-32.5 36t-11 50.5q0 55 37.5 85t93.5 32v56h45v-56q50 -4 90 -33t40 -77h-88q-2 29 -10 44.5t-32 21.5v-162l24 -8q4 -2 13 -4.5t13 -3.5q45 -18 69 -46t24 -75q0 -64 -37.5 -90
t-105.5 -33v-61zM172 474v143q-42 -9 -42 -65q0 -52 42 -78zM217 400v-159q55 8 55 71q0 34 -12.5 54t-42.5 34z" />
    <glyph glyph-name="one.fitted" unicode="&#xf6dc;" horiz-adv-x="445" 
d="M296 0h-100v544l-126 -76v87l142 79h84v-634z" />
    <glyph glyph-name="cent.inferior" unicode="&#xf6df;" horiz-adv-x="327" 
d="M189 -274h-39v66q-129 21 -129 183q0 67 32.5 111.5t96.5 48.5v55h39v-55q53 -7 84.5 -37.5t31.5 -85.5h-73q0 71 -43 83v-258q13 -4 27 -4q39 0 80 17v-37q-42 -21 -107 -21v-66zM150 -142v238q-58 -14 -58 -113q0 -84 58 -125z" />
    <glyph glyph-name="cent.superior" unicode="&#xf6e0;" horiz-adv-x="327" 
d="M189 325h-39v66q-129 21 -129 183q0 67 32.5 111.5t96.5 48.5v55h39v-55q53 -7 84.5 -37.5t31.5 -85.5h-73q0 71 -43 83v-258q13 -4 27 -4q39 0 80 17v-37q-42 -21 -107 -21v-66zM150 457v238q-58 -14 -58 -113q0 -84 58 -125z" />
    <glyph glyph-name="dollar.inferior" unicode="&#xf6e3;" horiz-adv-x="390" 
d="M217 -269h-45v61q-61 3 -97 27.5t-41 82.5h88q0 -60 50 -64v177q-29 9 -47.5 17t-40 22.5t-32.5 36t-11 50.5q0 55 37.5 85t93.5 32v56h45v-56q50 -4 90 -33t40 -77h-88q-2 29 -10 44.5t-32 21.5v-162l24 -8q4 -2 13 -4.5t13 -3.5q45 -18 69 -46t24 -75q0 -64 -37.5 -90
t-105.5 -33v-61zM172 71v143q-42 -9 -42 -65q0 -53 42 -78zM217 -3v-159q55 8 55 71q0 35 -12.5 54.5t-42.5 33.5z" />
    <glyph glyph-name="dollar.superior" unicode="&#xf6e4;" horiz-adv-x="390" 
d="M217 330h-45v61q-61 3 -97 27.5t-41 82.5h88q0 -60 50 -64v177q-29 9 -47.5 17t-40 22.5t-32.5 36t-11 50.5q0 55 37.5 85t93.5 32v56h45v-56q50 -4 90 -33t40 -77h-88q-2 29 -10 44.5t-32 21.5v-162l24 -8q4 -2 13 -4.5t13 -3.5q45 -18 69 -46t24 -75q0 -64 -37.5 -90
t-105.5 -33v-61zM172 670v143q-42 -9 -42 -65q0 -52 42 -78zM217 596v-159q55 8 55 71q0 34 -12.5 54t-42.5 34z" />
    <glyph glyph-name="a.superior" unicode="&#xf6e9;" horiz-adv-x="301" 
d="M255 276h-58l-1 35q-10 -20 -32.5 -31t-47.5 -11q-40 0 -64 20.5t-24 56.5q0 94 169 94v50q0 17 -15 26.5t-33 9.5q-49 0 -49 -44h-62q0 45 32.5 65.5t83.5 20.5q101 0 101 -92v-200zM197 388v16h-12q-33 0 -62.5 -14t-29.5 -42q0 -14 9.5 -25.5t24.5 -11.5q29 0 49.5 25
t20.5 52z" />
    <glyph glyph-name="b.superior" unicode="&#xf6ea;" horiz-adv-x="313" 
d="M42 394v296h58v-167h1q23 45 81 45q105 0 105 -152q0 -147 -125 -147q-120 0 -120 125zM159 311q63 0 63 107q0 108 -56 108q-33 0 -49.5 -35.5t-16.5 -71.5q0 -22 1 -34.5t6 -33t18 -30.5t34 -10z" />
    <glyph glyph-name="d.superior" unicode="&#xf6eb;" horiz-adv-x="325" 
d="M278 276h-59v44h-1q-9 -24 -33.5 -37.5t-52.5 -13.5q-58 0 -82 42.5t-24 102.5q0 61 25 107.5t84 46.5q27 0 50.5 -12t32.5 -34h1v168h59v-414zM152 311q35 0 51 35.5t16 72.5q0 40 -15.5 73.5t-52.5 33.5q-60 0 -60 -107q0 -108 61 -108z" />
    <glyph glyph-name="e.superior" unicode="&#xf6ec;" horiz-adv-x="289" 
d="M257 322v-43q-52 -10 -78 -10q-79 0 -116 44.5t-37 119.5q0 62 31 98.5t95 36.5q54 0 83 -31.5t29 -82.5v-14h-180q0 -53 29.5 -91t84.5 -38q29 0 59 11zM87 476h118q0 22 -16 36t-40 14q-23 0 -42.5 -14t-19.5 -36z" />
    <glyph glyph-name="l.superior" unicode="&#xf6ee;" horiz-adv-x="168" 
d="M113 276h-58v414h58v-414z" />
    <glyph glyph-name="m.superior" unicode="&#xf6ef;" horiz-adv-x="493" 
d="M447 276h-59v156q0 52 -8 66q-10 16 -35 16q-30 0 -49 -35t-19 -66v-137h-59v156q0 3 0.5 15t0 16.5t-1.5 14.5t-3.5 14.5t-7 10.5t-12 8.5t-17.5 2.5q-34 0 -52 -40t-18 -77v-121h-58v286h58v-57h2q23 63 86 63q32 0 53.5 -15.5t25.5 -44.5h1q27 60 88 60q44 0 64 -26.5
t20 -67.5v-198z" />
    <glyph glyph-name="o.superior" unicode="&#xf6f0;" horiz-adv-x="325" 
d="M163 269q-70 0 -103.5 41t-33.5 109q0 67 33.5 108t103.5 41t103.5 -41t33.5 -108q0 -68 -33.5 -109t-103.5 -41zM163 311q72 0 72 108q0 107 -72 107t-72 -107q0 -108 72 -108z" />
    <glyph glyph-name="r.superior" unicode="&#xf6f1;" horiz-adv-x="216" 
d="M107 276h-59v286h59v-58h1q24 64 95 64v-59q-96 0 -96 -112v-121z" />
    <glyph glyph-name="s.superior" unicode="&#xf6f2;" horiz-adv-x="240" 
d="M24 281v47q42 -17 78 -17q63 0 63 37q0 16 -22 31t-48.5 26.5t-48.5 33.5t-22 49q0 40 32 60t78 20q22 0 70 -10v-49q-39 17 -71 17q-17 0 -33.5 -8t-16.5 -22q0 -15 22 -29.5t48.5 -25.5t48.5 -33.5t22 -51.5q0 -87 -117 -87q-35 0 -83 12z" />
    <glyph glyph-name="t.superior" unicode="&#xf6f3;" horiz-adv-x="229" 
d="M213 316v-42q-25 -5 -47 -5q-93 0 -93 70v181h-55v42h55v67l59 33v-100h86v-42h-86v-153q0 -27 10.5 -41.5t38.5 -14.5q15 0 32 5z" />
    <glyph glyph-name="h.superior" unicode="&#xf700;" horiz-adv-x="337" 
d="M289 276h-58v156q0 54 -10 68t-33 14q-38 0 -59.5 -39t-21.5 -78v-121h-59v414h59v-190q28 68 99 68q43 0 63 -26t20 -68v-198z" />
    </font>
</defs>
</svg>
