<?xml version="1.0" standalone="no"?>
<!DOCTYPE svg PUBLIC "-//W3C//DTD SVG 1.1//EN" "http://www.w3.org/Graphics/SVG/1.1/DTD/svg11.dtd" >
<svg>
<metadata>
Created by FontForge 20090622 at Thu Aug 17 11:07:38 2017
 By deploy user
Copyright (C) 1996, 2016 Hoefler &#38; Co. http://www.typography.com
</metadata>
<defs>
<font id="Whitney-Medium" horiz-adv-x="527" >
  <font-face 
    font-family="Whitney Medium"
    font-weight="350"
    font-stretch="normal"
    units-per-em="1000"
    panose-1="0 0 0 0 0 0 0 0 0 0"
    ascent="800"
    descent="-200"
    x-height="477"
    cap-height="690"
    bbox="-99 -283 997 1009"
    underline-thickness="50"
    underline-position="-50"
    unicode-range="U+0020-U+FB04"
  />
<missing-glyph horiz-adv-x="500" 
d="M0 -200v1000h500v-1000h-500zM71 750l179 -390l179 390h-358zM450 676l-172 -376l172 -376v752zM50 -76l172 376l-172 376v-752zM250 240l-179 -390h358z" />
    <glyph glyph-name=".notdef" horiz-adv-x="500" 
d="M0 -200v1000h500v-1000h-500zM71 750l179 -390l179 390h-358zM450 676l-172 -376l172 -376v752zM50 -76l172 376l-172 376v-752zM250 240l-179 -390h358z" />
    <glyph glyph-name=".null" horiz-adv-x="0" 
 />
    <glyph glyph-name="nonmarkingreturn" horiz-adv-x="333" 
 />
    <glyph glyph-name="space" unicode=" " horiz-adv-x="220" 
 />
    <glyph glyph-name="exclam" unicode="!" horiz-adv-x="272" 
d="M190 690l-25 -472l-58 -13l-24 485h107zM186 0h-100v119h100v-119z" />
    <glyph glyph-name="quotedbl" unicode="&#x22;" horiz-adv-x="409" 
d="M164 676l-24 -208l-53 12l-24 196h101zM346 676l-25 -208l-52 12l-25 196h102z" />
    <glyph glyph-name="numbersign" unicode="#" horiz-adv-x="661" 
d="M400 248l28 180h-168l-28 -180h168zM360 -2l28 174h-168l-29 -179l-68 15l26 164h-108v76h120l28 180h-115l-13 76h140l28 174h71l-28 -174h168l29 179l68 -15l-26 -164h108v-76h-120l-28 -180h115l13 -76h-140l-28 -174h-71z" />
    <glyph glyph-name="dollar" unicode="$" 
d="M139 511q0 -39 22.5 -63t80.5 -46l32 205h-15q-59 0 -89.5 -25.5t-30.5 -70.5zM260 70q137 0 137 110q0 40 -22.5 68t-84.5 51l-36 -229h6zM253 -4h-9l-19 -118l-64 14l17 110q-79 11 -136 41l12 84q67 -39 138 -51l38 244q-93 33 -132.5 72.5t-39.5 110.5q0 85 58 131
t155 46h13l12 75l66 -15l-11 -67q52 -9 101 -31l-13 -84q-46 28 -102 41l-34 -218q93 -33 135 -78t42 -118q0 -88 -59.5 -138.5t-167.5 -50.5z" />
    <glyph glyph-name="percent" unicode="%" horiz-adv-x="900" 
d="M207 286q-70 0 -116.5 54t-46.5 145t46.5 145t116.5 54t116.5 -54t46.5 -145t-46.5 -145t-116.5 -54zM269 -7l-68 17l218 336l211 337l69 -17l-218 -336zM207 349q43 0 64 38t21 98t-21.5 98t-63.5 38q-43 0 -64 -37.5t-21 -98.5q0 -59 22 -97.5t63 -38.5zM692 -8
q-70 0 -116.5 54t-46.5 145t46.5 145t116.5 54t116.5 -54t46.5 -145t-46.5 -145t-116.5 -54zM692 55q43 0 64 38t21 98t-21.5 98t-63.5 38q-43 0 -64 -37.5t-21 -98.5q0 -59 22 -97.5t63 -38.5z" />
    <glyph glyph-name="ampersand" unicode="&#x26;" horiz-adv-x="681" 
d="M263 67q99 0 166 82l-183 180q-117 -55 -117 -146q0 -51 37 -83.5t97 -32.5zM586 -6l-100 99q-90 -106 -224 -106q-108 0 -167.5 48.5t-59.5 137.5q0 133 157 211q-36 37 -52.5 71t-16.5 81q0 71 50.5 119t137.5 48q92 0 170 -43l-15 -94q-86 55 -156 55q-46 0 -70 -22.5
t-24 -60.5q0 -31 16 -58.5t53 -64.5l190 -190q34 75 48 176l82 -18q-22 -129 -70 -218l148 -148z" />
    <glyph glyph-name="quotesingle" unicode="'" horiz-adv-x="227" 
d="M164 676l-24 -208l-53 12l-24 196h101z" />
    <glyph glyph-name="parenleft" unicode="(" horiz-adv-x="391" 
d="M363 -75l-86 -19q-110 95 -161.5 190t-51.5 217q0 253 253 413l14 -84q-88 -64 -130 -144t-42 -187q0 -104 48.5 -197t155.5 -189z" />
    <glyph glyph-name="parenright" unicode=")" horiz-adv-x="391" 
d="M28 703l86 19q110 -95 161.5 -190t51.5 -217q0 -253 -253 -413l-14 84q88 64 130 144t42 187q0 104 -48.5 197t-155.5 189z" />
    <glyph glyph-name="asterisk" unicode="*" horiz-adv-x="400" 
d="M359 569l-109 -52l58 -107l-26 -17l-82 87l-83 -87l-25 17l57 107l-108 52l10 29l118 -21l14 118h33l14 -118l119 21z" />
    <glyph glyph-name="plus" unicode="+" horiz-adv-x="572" 
d="M518 301h-193v-199h-78v199h-193v74h193v199h78v-199h193v-74z" />
    <glyph glyph-name="comma" unicode="," horiz-adv-x="227" 
d="M180 119l-104 -252l-49 12l50 240h103z" />
    <glyph glyph-name="hyphen" unicode="-" horiz-adv-x="354" 
d="M300 241h-246v87h246v-87z" />
    <glyph glyph-name="period" unicode="." horiz-adv-x="227" 
d="M163 0h-99v119h99v-119z" />
    <glyph glyph-name="slash" unicode="/" horiz-adv-x="536" 
d="M515 682l-472 -809l-80 17l472 809z" />
    <glyph glyph-name="zero" unicode="0" horiz-adv-x="619" 
d="M568 338q0 -165 -70.5 -258t-187.5 -93q-118 0 -188.5 92.5t-70.5 258.5t70.5 258.5t188.5 92.5q117 0 187.5 -93t70.5 -258zM476 338q0 131 -43.5 201.5t-122.5 70.5t-123 -70.5t-44 -201.5t44 -201.5t123 -70.5t122.5 70.5t43.5 201.5z" />
    <glyph glyph-name="one" unicode="1" horiz-adv-x="357" 
d="M262 0h-89v584l-141 -53l-10 72l162 75h78v-678z" />
    <glyph glyph-name="two" unicode="2" horiz-adv-x="534" 
d="M44 0v69l250 261q47 50 67.5 86t20.5 76q0 114 -123 114q-94 0 -184 -80l-13 87q88 76 202 76q98 0 154.5 -52t56.5 -139q0 -59 -26.5 -107.5t-91.5 -114.5l-192 -196h308l12 -80h-441z" />
    <glyph glyph-name="three" unicode="3" horiz-adv-x="514" 
d="M227 -13q-108 0 -194 53l15 88q88 -60 184 -60q68 0 106 30t38 86q0 129 -185 129h-31l-13 82h51q165 0 165 113q0 45 -32.5 72.5t-94.5 27.5q-98 0 -179 -65l-13 84q85 62 196 62q107 0 161 -51t54 -126q0 -116 -124 -157q137 -38 137 -170q0 -90 -65.5 -144t-175.5 -54
z" />
    <glyph glyph-name="four" unicode="4" horiz-adv-x="589" 
d="M373 0v153h-338v66l314 459h107v-451h108v-74h-108v-153h-83zM373 227v350l-242 -350h242z" />
    <glyph glyph-name="five" unicode="5" 
d="M486 212q0 -105 -70 -165t-178 -60q-112 0 -195 52l14 85q82 -58 184 -58q69 0 112 36t43 105q0 60 -37 95t-106 35q-63 0 -115 -22l-67 15l24 346h356l12 -80h-293l-15 -197q55 17 108 17q103 0 163 -56t60 -148z" />
    <glyph glyph-name="six" unicode="6" horiz-adv-x="564" 
d="M293 -13q-109 0 -176 74.5t-67 211.5q0 168 97.5 271t268.5 145l12 -80q-244 -62 -283 -248q80 53 171 53q97 0 153.5 -56t56.5 -151q0 -96 -66 -158t-167 -62zM296 66q63 0 101.5 37t38.5 100q0 132 -140 132q-88 0 -159 -59q1 -96 44 -153t115 -57z" />
    <glyph glyph-name="seven" unicode="7" horiz-adv-x="528" 
d="M212 -7l-88 20l258 582h-335l-12 81h448v-70z" />
    <glyph glyph-name="eight" unicode="8" horiz-adv-x="568" 
d="M283 -13q-112 0 -175 53.5t-63 132.5q0 110 138 182q-59 30 -85.5 69t-26.5 94q0 75 60.5 123t155.5 48q99 0 155.5 -47.5t56.5 -123.5q0 -97 -115 -162q70 -32 104.5 -74.5t34.5 -111.5q0 -76 -66 -129.5t-174 -53.5zM158 519q0 -44 32.5 -72t116.5 -60q105 53 105 128
q0 44 -34.5 72.5t-92.5 28.5t-92.5 -27.5t-34.5 -69.5zM285 61q66 0 108 32.5t42 79.5q0 52 -36.5 82.5t-135.5 66.5q-60 -25 -95 -63t-35 -82q0 -50 42.5 -83t109.5 -33z" />
    <glyph glyph-name="nine" unicode="9" horiz-adv-x="564" 
d="M139 -13l-13 80q244 53 290 237q-79 -51 -168 -51q-98 0 -154 57t-56 155t65.5 161t166.5 63q110 0 177 -74.5t67 -211.5q0 -168 -101 -273.5t-274 -142.5zM267 332q87 0 160 59v7q0 97 -43.5 154.5t-115.5 57.5q-64 0 -102 -37t-38 -104q0 -137 139 -137z" />
    <glyph glyph-name="colon" unicode=":" horiz-adv-x="236" 
d="M168 358h-100v119h100v-119zM168 0h-100v119h100v-119z" />
    <glyph glyph-name="semicolon" unicode=";" horiz-adv-x="236" 
d="M175 358h-100v119h100v-119zM178 119l-104 -252l-49 12l50 240h103z" />
    <glyph glyph-name="less" unicode="&#x3c;" horiz-adv-x="572" 
d="M504 82l-447 222v68l447 222v-86l-355 -169l355 -170v-87z" />
    <glyph glyph-name="equal" unicode="=" horiz-adv-x="590" 
d="M518 410h-445v80h445v-80zM518 186h-445v80h445v-80z" />
    <glyph glyph-name="greater" unicode="&#x3e;" horiz-adv-x="572" 
d="M68 594l447 -222v-68l-447 -222v86l355 169l-355 170v87z" />
    <glyph glyph-name="question" unicode="?" horiz-adv-x="518" 
d="M205 205l-13 165l41 17q74 31 105 60t31 75q0 45 -32.5 70.5t-83.5 25.5q-97 0 -196 -81l-13 92q100 74 214 74q92 0 148.5 -48t56.5 -129q0 -40 -12.5 -70.5t-39.5 -55t-58 -42.5t-81 -41l-9 -99zM184 0v119h100v-119h-100z" />
    <glyph glyph-name="at" unicode="@" horiz-adv-x="836" 
d="M379 -140q-151 0 -239.5 85.5t-88.5 238.5q0 183 118.5 313t290.5 130q147 0 235 -88t88 -235q0 -115 -49.5 -187.5t-126.5 -72.5q-51 0 -85.5 23.5t-43.5 68.5q-42 -50 -73.5 -71t-68.5 -21q-44 0 -75 32t-31 90q0 122 69.5 201.5t158.5 79.5q64 0 135 -26l-35 -209
q-6 -39 -6 -55q0 -31 17 -47.5t47 -16.5q55 0 89.5 56t34.5 154q0 139 -79 213.5t-205 74.5q-149 0 -255 -116t-106 -290q0 -144 79 -217t209 -73q117 0 217 49l6 -36q-103 -48 -227 -48zM359 111q43 0 118 93l30 170q-27 9 -59 9q-53 0 -96 -58t-43 -145q0 -69 50 -69z" />
    <glyph glyph-name="A" unicode="A" horiz-adv-x="688" 
d="M566 -7l-81 214h-281l-77 -207h-98l270 693h94l266 -680zM344 583l-109 -293h219z" />
    <glyph glyph-name="B" unicode="B" horiz-adv-x="545" 
d="M503 202q0 -101 -66.5 -151.5t-188.5 -50.5h-165v690h167q110 0 166.5 -48t56.5 -131q0 -101 -99 -143q129 -39 129 -166zM381 508q0 102 -133 102h-73v-210h66q68 0 104 28.5t36 79.5zM411 200q0 60 -41 91.5t-118 31.5h-77v-243h80q75 0 115.5 30.5t40.5 89.5z" />
    <glyph glyph-name="C" unicode="C" horiz-adv-x="632" 
d="M583 54q-91 -67 -209 -67q-145 0 -232 98.5t-87 258.5q0 161 88 260t233 99q112 0 196 -57l-14 -96q-88 67 -183 67q-104 0 -163.5 -73.5t-59.5 -198.5t59.5 -198t163.5 -73q99 0 194 69z" />
    <glyph glyph-name="D" unicode="D" horiz-adv-x="703" 
d="M646 346q0 -157 -96.5 -251.5t-270.5 -94.5h-196v690h200q175 0 269 -94t94 -250zM549 345q0 127 -70.5 193.5t-192.5 66.5h-109v-520h106q127 0 196.5 65t69.5 195z" />
    <glyph glyph-name="E" unicode="E" horiz-adv-x="506" 
d="M465 0h-382v690h372v-86h-278v-200h216l14 -86h-230v-232h288v-86z" />
    <glyph glyph-name="F" unicode="F" horiz-adv-x="478" 
d="M442 604h-265v-211h208l14 -86h-222v-307h-94v690h359v-86z" />
    <glyph glyph-name="G" unicode="G" horiz-adv-x="697" 
d="M624 54q-104 -67 -233 -67q-161 0 -248.5 97t-87.5 260t87.5 261t240.5 98q121 0 210 -59l-15 -96q-88 69 -196 69q-111 0 -170.5 -72.5t-59.5 -199.5t61.5 -199t177.5 -72q78 0 140 34v183h-159l-13 86h265v-323z" />
    <glyph glyph-name="H" unicode="H" horiz-adv-x="703" 
d="M620 0h-94v318h-349v-318h-94v690h94v-286h349v286h94v-690z" />
    <glyph glyph-name="I" unicode="I" horiz-adv-x="272" 
d="M183 0h-94v690h94v-690z" />
    <glyph glyph-name="J" unicode="J" horiz-adv-x="370" 
d="M293 170q0 -89 -52 -133t-143 -44q-28 0 -62 6l-14 85q34 -9 77 -9q100 0 100 103v512h94v-520z" />
    <glyph glyph-name="K" unicode="K" horiz-adv-x="609" 
d="M600 15l-104 -22l-319 357v-350h-94v690h94v-310l286 310h120l-304 -324z" />
    <glyph glyph-name="L" unicode="L" horiz-adv-x="468" 
d="M439 0h-356v690h94v-602h249z" />
    <glyph glyph-name="M" unicode="M" horiz-adv-x="900" 
d="M835 0h-90l-43 557l-216 -560h-75l-216 560l-42 -557h-88l55 690h116l215 -566l215 566h115z" />
    <glyph glyph-name="N" unicode="N" horiz-adv-x="703" 
d="M620 0h-71l-379 537v-537h-87v690h84l366 -517v517h87v-690z" />
    <glyph glyph-name="O" unicode="O" horiz-adv-x="746" 
d="M691 346q0 -161 -87 -260t-232 -99t-231 98t-86 259t87 260t232 99t231 -98t86 -259zM594 345q0 125 -59.5 198.5t-161.5 73.5t-161.5 -73.5t-59.5 -198.5t59.5 -198.5t161.5 -73.5t161.5 73.5t59.5 198.5z" />
    <glyph glyph-name="P" unicode="P" horiz-adv-x="536" 
d="M83 0v690h183q110 0 172 -52t62 -147q0 -103 -67 -157t-183 -54h-73v-280h-94zM405 488q0 119 -144 119h-84v-244h78q150 0 150 125z" />
    <glyph glyph-name="Q" unicode="Q" horiz-adv-x="746" 
d="M657 -143l-373 139q-229 85 -229 348q0 161 87 260t232 99t231 -98t86 -259q0 -129 -57.5 -216.5t-155.5 -119.5l198 -70zM594 345q0 125 -59.5 198.5t-161.5 73.5t-161.5 -73.5t-59.5 -198.5t60 -201t161 -76q102 0 161.5 75.5t59.5 201.5z" />
    <glyph glyph-name="R" unicode="R" horiz-adv-x="570" 
d="M455 -7l-208 298h-70v-291h-94v690h188q107 0 168 -51t61 -145q0 -76 -40.5 -124t-110.5 -67l205 -289zM406 489q0 57 -35.5 87.5t-103.5 30.5h-90v-237h80q69 0 109 30.5t40 88.5z" />
    <glyph glyph-name="S" unicode="S" horiz-adv-x="512" 
d="M464 186q0 -89 -60 -141.5t-158 -52.5q-108 0 -193 45l14 96q89 -59 181 -59q55 0 89 28t34 77q0 47 -26.5 73.5t-105.5 62.5q-101 46 -140 87.5t-39 113.5q0 83 58 132.5t152 49.5q89 0 157 -39l-15 -94q-67 51 -145 51q-56 0 -85 -26t-29 -67q0 -40 26 -65t105 -61
q103 -47 141.5 -91t38.5 -120z" />
    <glyph glyph-name="T" unicode="T" horiz-adv-x="600" 
d="M573 604h-226v-604h-94v604h-220v86h526z" />
    <glyph glyph-name="U" unicode="U" horiz-adv-x="689" 
d="M613 266q0 -130 -72 -204.5t-198 -74.5q-125 0 -196 73.5t-71 200.5v429h94v-417q0 -93 43 -146.5t130 -53.5t131.5 51t44.5 146v420h94v-424z" />
    <glyph glyph-name="V" unicode="V" horiz-adv-x="677" 
d="M648 690l-268 -695h-86l-265 682l96 20l213 -573l209 566h101z" />
    <glyph glyph-name="W" unicode="W" horiz-adv-x="1017" 
d="M982 690l-208 -693h-79l-187 562l-187 -562h-78l-204 680l94 20l154 -549l176 542h94l176 -542l151 542h98z" />
    <glyph glyph-name="X" unicode="X" horiz-adv-x="636" 
d="M510 -7l-193 299l-187 -292h-104l238 360l-212 317l95 20l171 -266l164 259h105l-216 -327l235 -350z" />
    <glyph glyph-name="Y" unicode="Y" horiz-adv-x="636" 
d="M614 690l-251 -416v-274h-94v274l-244 403l96 20l196 -335l190 328h107z" />
    <glyph glyph-name="Z" unicode="Z" horiz-adv-x="596" 
d="M558 0h-515v70l393 538h-363l-13 82h489v-70l-393 -538h389z" />
    <glyph glyph-name="bracketleft" unicode="[" horiz-adv-x="409" 
d="M365 -104h-278v794h271v-68h-186v-658h182z" />
    <glyph glyph-name="backslash" unicode="\" horiz-adv-x="536" 
d="M573 -111l-80 -17l-472 809l80 17z" />
    <glyph glyph-name="bracketright" unicode="]" horiz-adv-x="409" 
d="M43 690h278v-794h-271v68h186v658h-182z" />
    <glyph glyph-name="asciicircum" unicode="^" horiz-adv-x="454" 
d="M367 547h-56l-85 71l-85 -71h-56l99 141h84z" />
    <glyph glyph-name="underscore" unicode="_" horiz-adv-x="454" 
d="M456 -104h-458v70h458v-70z" />
    <glyph glyph-name="grave" unicode="`" horiz-adv-x="454" 
d="M317 547h-60l-134 127l108 24z" />
    <glyph glyph-name="a" unicode="a" horiz-adv-x="499" 
d="M342 131v111q-121 -12 -167 -41.5t-46 -72.5q0 -30 19 -47t52 -17q77 0 142 67zM431 0h-72l-10 64q-72 -74 -168 -74q-64 0 -102 36t-38 97q0 86 72.5 128.5t228.5 58.5v20q0 81 -91 81q-72 0 -165 -41l-12 77q99 40 185 40q88 0 130 -37t42 -116v-334z" />
    <glyph glyph-name="b" unicode="b" horiz-adv-x="533" 
d="M490 252q0 -127 -63.5 -192.5t-170.5 -65.5q-87 0 -186 30v684l89 14v-301q64 66 143 66q82 0 135 -60.5t53 -174.5zM400 248q0 76 -30.5 118t-80.5 42q-68 0 -130 -78v-244q44 -16 96 -16q145 0 145 178z" />
    <glyph glyph-name="c" unicode="c" horiz-adv-x="467" 
d="M428 39q-65 -49 -163 -49q-99 0 -160.5 66t-61.5 182q0 118 64 183.5t164 65.5q91 0 152 -44l-13 -87q-66 53 -140 53q-63 0 -100 -44.5t-37 -125.5q0 -84 38.5 -127.5t101.5 -43.5q80 0 142 53z" />
    <glyph glyph-name="d" unicode="d" horiz-adv-x="538" 
d="M133 229q0 -77 30.5 -118.5t80.5 -41.5q72 0 135 84v228q-53 27 -117 27q-58 0 -93.5 -46.5t-35.5 -132.5zM43 225q0 124 61.5 191t154.5 67q67 0 120 -21v246l89 14v-722h-71l-11 69q-66 -79 -155 -79q-82 0 -135 60t-53 175z" />
    <glyph glyph-name="e" unicode="e" horiz-adv-x="499" 
d="M252 417q-43 0 -74.5 -31t-41.5 -90h230q-17 121 -114 121zM455 54q-82 -64 -191 -64q-99 0 -160 62.5t-61 187.5q0 113 59 180t151 67q100 0 151.5 -67t51.5 -172v-19h-324q3 -82 39 -122.5t100 -40.5q85 0 171 68z" />
    <glyph glyph-name="f" unicode="f" horiz-adv-x="311" 
d="M296 633q-20 4 -46 4q-66 0 -66 -61v-99h96l11 -75h-107v-402h-87v402h-72v75h72v108q0 68 40 99.5t108 31.5q14 0 38 -2z" />
    <glyph glyph-name="g" unicode="g" horiz-adv-x="504" 
d="M331 322q0 43 -27.5 71.5t-71.5 28.5t-70.5 -29.5t-26.5 -74.5q0 -42 27 -70t70 -28q45 0 72 29t27 73zM473 -35q0 -71 -66.5 -109t-166.5 -38q-98 0 -160.5 31.5t-62.5 91.5q0 69 101 123q-30 21 -30 50q0 35 50 65q-41 21 -65 58t-24 84q0 75 53.5 120.5t129.5 45.5
q72 0 123 -40l121 37l13 -80l-91 -9q19 -32 19 -74q0 -74 -53.5 -119t-129.5 -45q-18 0 -36 3q-24 -15 -24 -29q0 -12 17.5 -18t83.5 -18l34 -6q81 -14 122.5 -42.5t41.5 -81.5zM244 -118q68 0 106.5 20.5t38.5 51.5q0 45 -90 61l-57 10q-23 4 -59 12q-81 -41 -81 -89
q0 -29 37 -47.5t105 -18.5z" />
    <glyph glyph-name="h" unicode="h" 
d="M459 0h-89v325q0 82 -73 82q-66 0 -138 -77v-330h-89v708l89 14v-308q81 73 162 73q67 0 102.5 -37.5t35.5 -102.5v-347z" />
    <glyph glyph-name="i" unicode="i" horiz-adv-x="243" 
d="M178 629q0 -23 -16.5 -39.5t-39.5 -16.5t-40 16.5t-17 39.5t17 40t40 17t39.5 -17t16.5 -40zM166 0h-89v477h89v-477z" />
    <glyph glyph-name="j" unicode="j" horiz-adv-x="243" 
d="M178 629q0 -23 -16.5 -39.5t-39.5 -16.5t-40 16.5t-17 39.5t17 40t40 17t39.5 -17t16.5 -40zM166 -60q0 -122 -127 -122q-31 0 -41 3l-13 79q15 -4 42 -4q50 0 50 52v529h89v-537z" />
    <glyph glyph-name="k" unicode="k" horiz-adv-x="481" 
d="M371 -7l-212 257v-250h-89v708l89 14v-445l185 200h107l-201 -211l218 -258z" />
    <glyph glyph-name="l" unicode="l" horiz-adv-x="243" 
d="M166 0h-89v708l89 14v-722z" />
    <glyph glyph-name="m" unicode="m" horiz-adv-x="815" 
d="M747 0h-89v325q0 82 -70 82q-63 0 -135 -77v-330h-89v325q0 82 -70 82q-63 0 -135 -77v-330h-89v477h71l11 -69q87 79 166 79q97 0 126 -79q83 79 168 79q67 0 101 -37t34 -103v-347z" />
    <glyph glyph-name="n" unicode="n" 
d="M459 0h-89v325q0 82 -73 82q-66 0 -138 -77v-330h-89v477h71l11 -69q87 79 169 79q67 0 102.5 -37.5t35.5 -102.5v-347z" />
    <glyph glyph-name="o" unicode="o" 
d="M484 238q0 -115 -62 -181.5t-160 -66.5q-97 0 -158 66.5t-61 181.5q0 116 61 182.5t158 66.5q98 0 160 -67t62 -182zM394 238q0 76 -35 125.5t-97 49.5t-95.5 -48.5t-33.5 -126.5q0 -76 34 -125t95 -49q64 0 98 48t34 126z" />
    <glyph glyph-name="p" unicode="p" horiz-adv-x="538" 
d="M405 248q0 76 -31 118t-81 42q-71 0 -134 -84v-229q52 -26 116 -26q58 0 94 46.5t36 132.5zM495 252q0 -124 -61.5 -191t-154.5 -67q-67 0 -120 21v-188l-89 -13v663h71l11 -69q68 79 155 79q82 0 135 -60.5t53 -174.5z" />
    <glyph glyph-name="q" unicode="q" horiz-adv-x="533" 
d="M463 -173l-89 -13v241q-65 -65 -143 -65q-82 0 -135 60t-53 175q0 127 63.5 192.5t170.5 65.5q87 0 186 -30v-626zM133 229q0 -77 30.5 -118.5t80.5 -41.5q68 0 130 78v243q-46 17 -96 17q-145 0 -145 -178z" />
    <glyph glyph-name="r" unicode="r" horiz-adv-x="358" 
d="M337 402q-57 -3 -105 -37t-73 -83v-282h-89v477h71l15 -97q64 102 167 107z" />
    <glyph glyph-name="s" unicode="s" horiz-adv-x="442" 
d="M403 133q0 -66 -48.5 -104.5t-139.5 -38.5q-94 0 -174 45l13 84q80 -55 168 -55q46 0 71.5 16.5t25.5 46.5q0 32 -23.5 48.5t-89.5 32.5q-86 22 -121.5 53.5t-35.5 93.5q0 58 45.5 95t122.5 37q85 0 157 -32l-14 -84q-72 41 -145 41q-82 0 -82 -55q0 -24 21.5 -39.5
t77.5 -29.5q93 -24 132 -56.5t39 -98.5z" />
    <glyph glyph-name="t" unicode="t" horiz-adv-x="337" 
d="M299 -2q-30 -6 -67 -6q-67 0 -103 29t-36 97v284h-72v75h72v159l87 13v-172h103l12 -75h-115v-268q0 -63 66 -63q24 0 41 3z" />
    <glyph glyph-name="u" unicode="u" 
d="M68 477h89v-325q0 -82 73 -82q66 0 138 77v330h89v-477h-71l-11 69q-85 -79 -169 -79q-67 0 -102.5 37t-35.5 103v347z" />
    <glyph glyph-name="v" unicode="v" horiz-adv-x="471" 
d="M448 477l-169 -480h-87l-168 473l91 14l122 -377l118 370h93z" />
    <glyph glyph-name="w" unicode="w" horiz-adv-x="722" 
d="M694 477l-153 -479h-75l-106 360l-105 -360h-74l-153 472l87 14l104 -360l105 353h75l105 -353l101 353h89z" />
    <glyph glyph-name="x" unicode="x" horiz-adv-x="472" 
d="M355 -7l-119 190l-113 -183h-94l159 244l-149 226l88 14l109 -175l104 168h93l-149 -230l159 -241z" />
    <glyph glyph-name="y" unicode="y" horiz-adv-x="483" 
d="M104 -182q-20 0 -38 4l-13 81q26 -7 47 -7q60 0 86 70l12 32l-174 472l90 14l128 -378l125 371h93l-195 -527q-28 -75 -66 -103.5t-95 -28.5z" />
    <glyph glyph-name="z" unicode="z" horiz-adv-x="452" 
d="M416 0h-381v70l267 333h-243l-12 74h357v-70l-268 -333h268z" />
    <glyph glyph-name="braceleft" unicode="{" horiz-adv-x="477" 
d="M433 -104h-118q-143 0 -143 131q0 23 6.5 68.5t6.5 69.5q0 95 -98 95h-36l-11 67h48q97 0 97 94q0 24 -6.5 69.5t-6.5 68.5q0 131 143 131h112v-68h-105q-65 0 -65 -62q0 -20 7 -68t7 -70q0 -58 -26 -87.5t-76 -40.5v-2q50 -11 76 -40t26 -88q0 -22 -7 -70t-7 -68
q0 -62 64 -62h101z" />
    <glyph glyph-name="bar" unicode="|" horiz-adv-x="266" 
d="M173 -173l-80 -13v895l80 13v-895z" />
    <glyph glyph-name="braceright" unicode="}" horiz-adv-x="477" 
d="M43 690h118q143 0 143 -131q0 -23 -6.5 -68.5t-6.5 -69.5q0 -95 98 -95h36l11 -67h-48q-97 0 -97 -94q0 -24 6.5 -69.5t6.5 -68.5q0 -131 -143 -131h-112v68h105q65 0 65 62q0 20 -7 68t-7 70q0 58 26 87.5t76 40.5v2q-50 11 -76 40t-26 88q0 22 7 70t7 68q0 62 -64 62
h-101z" />
    <glyph glyph-name="asciitilde" unicode="~" horiz-adv-x="409" 
d="M359 337q-14 -114 -83 -114q-27 0 -71 23q-47 25 -65 25q-22 0 -32 -51l-58 12q14 114 83 114q26 0 70 -23q49 -25 66 -25q20 0 32 52z" />
    <glyph glyph-name="uni00A0" unicode="&#xa0;" horiz-adv-x="110" 
 />
    <glyph glyph-name="exclamdown" unicode="&#xa1;" horiz-adv-x="272" 
d="M186 571h-100v119h100v-119zM190 0h-107l24 472l58 13z" />
    <glyph glyph-name="cent" unicode="&#xa2;" horiz-adv-x="481" 
d="M132 338q0 -124 82 -156l50 325q-62 -2 -97 -45t-35 -124zM270 94h-5l-16 -104l-65 15l16 98q-71 21 -112 81t-41 152q0 116 62.5 180.5t161.5 64.5h3l17 104l65 -14l-15 -96q51 -11 88 -37l-12 -84q-46 36 -90 47l-51 -331h4q43 0 75 11t67 40l11 -77q-67 -50 -163 -50z
" />
    <glyph glyph-name="sterling" unicode="&#xa3;" horiz-adv-x="536" 
d="M480 80l13 -80h-448v69l72 225h-72v78h97l45 139q30 94 81 136t138 42q43 0 83 -10l-12 -82q-34 10 -79 10q-49 0 -79 -28t-51 -93l-37 -114h174l12 -78h-210l-69 -214h342z" />
    <glyph glyph-name="yen" unicode="&#xa5;" horiz-adv-x="606" 
d="M509 81h-166v-81h-84v81h-159l-12 69h171v76h-166v69h149l-217 368l86 20l191 -343l186 336h96l-224 -381h143l11 -69h-171v-76h166v-69z" />
    <glyph glyph-name="section" unicode="&#xa7;" horiz-adv-x="526" 
d="M481 359q0 -49 -30 -99l-72 13q22 40 22 69q0 28 -20 42.5t-79 27.5l-53 11q-79 17 -116.5 44.5t-37.5 85.5q0 56 45.5 93.5t116.5 37.5q92 0 164 -31l-13 -80q-72 40 -153 40q-36 0 -56.5 -16t-20.5 -40q0 -23 18.5 -36.5t59.5 -22.5l90 -20q73 -16 104 -44t31 -75z
M45 317q0 49 30 99l72 -13q-22 -40 -22 -69q0 -28 20 -42.5t79 -27.5l53 -11q79 -17 116.5 -44.5t37.5 -85.5q0 -56 -45.5 -93.5t-116.5 -37.5q-92 0 -164 31l13 80q72 -40 153 -40q36 0 56.5 16t20.5 40q0 23 -18.5 36.5t-59.5 22.5l-90 20q-73 16 -104 44t-31 75z" />
    <glyph glyph-name="dieresis" unicode="&#xa8;" horiz-adv-x="454" 
d="M187 551h-99v101h99v-101zM366 551h-99v101h99v-101z" />
    <glyph glyph-name="copyright" unicode="&#xa9;" horiz-adv-x="799" 
d="M745 346q0 -160 -96.5 -259.5t-249.5 -99.5q-154 0 -249.5 98.5t-95.5 258.5t96.5 259.5t249.5 99.5q154 0 249.5 -98.5t95.5 -258.5zM701 345q0 151 -85 236.5t-216 85.5q-133 0 -217.5 -85.5t-84.5 -236.5t85 -236.5t217 -85.5t216.5 85.5t84.5 236.5zM536 185
q-59 -41 -126 -41q-84 0 -135 56t-51 148q0 91 51.5 147.5t134.5 56.5q63 0 119 -35l-10 -68q-54 41 -109 41q-54 0 -86.5 -39t-32.5 -103t33 -103t86 -39q54 0 116 44z" />
    <glyph glyph-name="ordfeminine" unicode="&#xaa;" horiz-adv-x="381" 
d="M160 406q47 0 89 40v70q-132 -17 -132 -71q0 -18 11.5 -28.5t31.5 -10.5zM147 351q-43 0 -68.5 24.5t-25.5 65.5q0 55 46.5 84.5t149.5 40.5v9q0 49 -57 49q-47 0 -108 -28l-10 58q64 27 124 27q59 0 87.5 -25t28.5 -78v-221h-54l-6 38q-48 -44 -107 -44zM323 223h-267
v59h257z" />
    <glyph glyph-name="guillemotleft" unicode="&#xab;" 
d="M481 477l-146 -238l140 -228l-73 -16l-164 244l161 238h82zM278 477l-146 -238l140 -228l-73 -16l-164 244l161 238h82z" />
    <glyph glyph-name="registered" unicode="&#xae;" horiz-adv-x="563" 
d="M508 470q0 -103 -63.5 -167.5t-163.5 -64.5q-101 0 -163.5 64t-62.5 168q0 103 63.5 168t163.5 65t163 -64.5t63 -168.5zM476 470q0 96 -55.5 151t-138.5 55q-85 0 -140 -55t-55 -151q0 -95 55.5 -150t138.5 -55q85 0 140 55t55 150zM246 350h-43v257h77q41 0 65.5 -20
t24.5 -55q0 -55 -52 -71l75 -105l-45 -10l-77 110h-25v-106zM325 529q0 38 -45 38h-34v-76h32q47 0 47 38z" />
    <glyph glyph-name="macron" unicode="&#xaf;" horiz-adv-x="454" 
d="M360 570h-266v72h266v-72z" />
    <glyph glyph-name="degree" unicode="&#xb0;" horiz-adv-x="427" 
d="M380 514q0 -73 -47 -119.5t-120 -46.5t-120 46.5t-47 119.5t47 120.5t120 47.5t120 -47.5t47 -120.5zM312 514q0 44 -28 74t-71 30q-42 0 -70.5 -30t-28.5 -74q0 -45 28.5 -73.5t70.5 -28.5q43 0 71 28.5t28 73.5z" />
    <glyph glyph-name="plusminus" unicode="&#xb1;" horiz-adv-x="540" 
d="M460 371h-152v-157h-76v157h-152v70h152v158h76v-158h152v-70zM492 95h-444v70h444v-70z" />
    <glyph glyph-name="two.sup" unicode="&#xb2;" horiz-adv-x="360" 
d="M322 411h-280v60l142 124q29 26 39.5 41t10.5 34q0 23 -16.5 36t-42.5 13q-52 0 -114 -39l-10 66q62 38 130 38q61 0 96.5 -30.5t35.5 -75.5q0 -33 -17.5 -59t-58.5 -60l-102 -84h175z" />
    <glyph glyph-name="three.sup" unicode="&#xb3;" horiz-adv-x="360" 
d="M317 510q0 -50 -42 -78.5t-110 -28.5q-73 0 -126 30l10 61q60 -30 119 -30q33 0 53 14t20 39q0 28 -23.5 40t-78.5 12h-30l-10 61h43q92 0 92 49q0 44 -63 44t-116 -33l-10 61q63 33 127 33q67 0 102 -25.5t35 -68.5q0 -65 -81 -90q89 -23 89 -90z" />
    <glyph glyph-name="acute" unicode="&#xb4;" horiz-adv-x="454" 
d="M331 674l-134 -127h-60l86 151z" />
    <glyph glyph-name="mu" unicode="&#xb5;" horiz-adv-x="554" 
d="M157 -173l-87 -13v663h89v-331q0 -76 73 -76q66 0 138 77v330h89v-368q0 -38 36 -38q14 0 29 5l-11 -75q-21 -6 -47 -6q-36 0 -61 18.5t-31 52.5q-78 -74 -148 -74q-49 0 -82 37q13 -57 13 -162v-40z" />
    <glyph glyph-name="paragraph" unicode="&#xb6;" horiz-adv-x="536" 
d="M453 0h-80v609h-70v-144l-33 -199q-110 4 -172.5 56.5t-62.5 151.5q0 96 63.5 149t173.5 53h181v-676z" />
    <glyph glyph-name="periodcentered" unicode="&#xb7;" horiz-adv-x="227" 
d="M163 224h-99v119h99v-119z" />
    <glyph glyph-name="cedilla" unicode="&#xb8;" horiz-adv-x="454" 
d="M306 -89l-123 -108h-60l76 133z" />
    <glyph glyph-name="one.sup" unicode="&#xb9;" horiz-adv-x="360" 
d="M322 411h-260v60h96v240l-93 -35l-9 58l119 49h53v-312h84z" />
    <glyph glyph-name="ordmasculine" unicode="&#xba;" horiz-adv-x="385" 
d="M192 351q-65 0 -106 44t-41 120q0 77 41 121.5t106 44.5q66 0 107 -44.5t41 -121.5q0 -76 -41 -120t-107 -44zM271 515q0 47 -20.5 77.5t-58.5 30.5t-58 -30t-20 -78q0 -47 20 -77t58 -30t58.5 30t20.5 77zM56 223v59h268l10 -59h-278z" />
    <glyph glyph-name="guillemotright" unicode="&#xbb;" 
d="M289 238l-161 -238h-82l146 238l-140 228l73 16zM492 238l-161 -238h-82l146 238l-140 228l73 16z" />
    <glyph glyph-name="onequarter" unicode="&#xbc;" horiz-adv-x="810" 
d="M263 -8l-63 18l203 338l194 336l63 -18l-204 -338zM322 311h-260v60h96v240l-93 -35l-9 58l119 49h53v-312h84zM773 74h-57v-79h-63v79h-186v51l153 243h96v-241h57v-53zM654 128v91l2 99h-7l-33 -61l-46 -76l-33 -51l2 -4l56 2h59z" />
    <glyph glyph-name="onehalf" unicode="&#xbd;" horiz-adv-x="810" 
d="M248 -8l-63 18l203 338l194 336l63 -18l-204 -338zM322 311h-260v60h96v240l-93 -35l-9 58l119 49h53v-312h84zM772 0h-280v60l142 124q29 26 39.5 41t10.5 34q0 23 -16.5 36t-42.5 13q-52 0 -114 -39l-10 66q62 38 130 38q61 0 96.5 -30.5t35.5 -75.5q0 -33 -17.5 -59
t-58.5 -60l-102 -84h175z" />
    <glyph glyph-name="threequarters" unicode="&#xbe;" horiz-adv-x="810" 
d="M253 -8l-63 18l203 338l194 336l63 -18l-204 -338zM317 410q0 -50 -42 -78.5t-110 -28.5q-73 0 -126 30l10 61q60 -30 119 -30q33 0 53 14t20 39q0 28 -23.5 40t-78.5 12h-30l-10 61h43q92 0 92 49q0 44 -63 44t-116 -33l-10 61q63 33 127 33q67 0 102 -25.5t35 -68.5
q0 -65 -81 -90q89 -23 89 -90zM773 74h-57v-79h-63v79h-186v51l153 243h96v-241h57v-53zM654 128v91l2 99h-7l-33 -61l-46 -76l-33 -51l2 -4l56 2h59z" />
    <glyph glyph-name="questiondown" unicode="&#xbf;" horiz-adv-x="518" 
d="M334 690v-119h-100v119h100zM474 61q-100 -74 -214 -74q-92 0 -148.5 48t-56.5 129q0 40 12.5 70.5t39.5 55t58 42.5t81 41l9 99l58 13l13 -165l-41 -17q-74 -31 -105 -60t-31 -75q0 -45 32.5 -70.5t83.5 -25.5q97 0 196 81z" />
    <glyph glyph-name="Agrave" unicode="&#xc0;" horiz-adv-x="688" 
d="M381 762h-60l-134 127l108 24zM566 -7l-81 214h-281l-77 -207h-98l270 693h94l266 -680zM344 583l-109 -293h219z" />
    <glyph glyph-name="Aacute" unicode="&#xc1;" horiz-adv-x="688" 
d="M501 889l-134 -127h-60l86 151zM566 -7l-81 214h-281l-77 -207h-98l270 693h94l266 -680zM344 583l-109 -293h219z" />
    <glyph glyph-name="Acircumflex" unicode="&#xc2;" horiz-adv-x="688" 
d="M485 762h-56l-85 71l-85 -71h-56l99 141h84zM566 -7l-81 214h-281l-77 -207h-98l270 693h94l266 -680zM344 583l-109 -293h219z" />
    <glyph glyph-name="Atilde" unicode="&#xc3;" horiz-adv-x="688" 
d="M502 879q-14 -114 -82 -114q-27 0 -71 23q-48 25 -65 25q-22 0 -32 -51l-58 12q14 114 82 114q27 0 71 -23q47 -25 65 -25q22 0 32 51zM566 -7l-81 214h-281l-77 -207h-98l270 693h94l266 -680zM344 583l-109 -293h219z" />
    <glyph glyph-name="Adieresis" unicode="&#xc4;" horiz-adv-x="688" 
d="M304 766h-99v101h99v-101zM483 766h-99v101h99v-101zM566 -7l-81 214h-281l-77 -207h-98l270 693h94l266 -680zM344 583l-109 -293h219z" />
    <glyph glyph-name="Aring" unicode="&#xc5;" horiz-adv-x="688" 
d="M568 -7l-82 214h-284l-78 -207h-95l251 644q-40 29 -40 82q0 44 29.5 74t74.5 30t74.5 -30t29.5 -74q0 -51 -37 -80l248 -633zM401 726q0 26 -16 43t-41 17t-41 -17t-16 -43t16 -42.5t41 -16.5t41 16.5t16 42.5zM344 583l-110 -293h221z" />
    <glyph glyph-name="AE" unicode="&#xc6;" horiz-adv-x="885" 
d="M462 290v316l-187 -316h187zM462 0v207h-236l-122 -207h-102l411 690h421v-86h-280v-200h218l13 -86h-231v-232h290v-86h-382z" />
    <glyph glyph-name="Ccedilla" unicode="&#xc7;" horiz-adv-x="632" 
d="M583 54q-91 -67 -209 -67q-145 0 -232 98.5t-87 258.5q0 161 88 260t233 99q112 0 196 -57l-14 -96q-88 67 -183 67q-104 0 -163.5 -73.5t-59.5 -198.5t59.5 -198t163.5 -73q99 0 194 69zM425 -94l-123 -108h-60l76 133z" />
    <glyph glyph-name="Egrave" unicode="&#xc8;" horiz-adv-x="506" 
d="M309 752h-60l-134 127l108 24zM465 0h-382v690h372v-86h-278v-200h216l14 -86h-230v-232h288v-86z" />
    <glyph glyph-name="Eacute" unicode="&#xc9;" horiz-adv-x="506" 
d="M429 879l-134 -127h-60l86 151zM465 0h-382v690h372v-86h-278v-200h216l14 -86h-230v-232h288v-86z" />
    <glyph glyph-name="Ecircumflex" unicode="&#xca;" horiz-adv-x="506" 
d="M413 752h-56l-85 71l-85 -71h-56l99 141h84zM465 0h-382v690h372v-86h-278v-200h216l14 -86h-230v-232h288v-86z" />
    <glyph glyph-name="Edieresis" unicode="&#xcb;" horiz-adv-x="506" 
d="M232 756h-99v101h99v-101zM411 756h-99v101h99v-101zM465 0h-382v690h372v-86h-278v-200h216l14 -86h-230v-232h288v-86z" />
    <glyph glyph-name="Igrave" unicode="&#xcc;" horiz-adv-x="272" 
d="M173 752h-60l-134 127l108 24zM183 0h-94v690h94v-690z" />
    <glyph glyph-name="Iacute" unicode="&#xcd;" horiz-adv-x="272" 
d="M293 879l-134 -127h-60l86 151zM183 0h-94v690h94v-690z" />
    <glyph glyph-name="Icircumflex" unicode="&#xce;" horiz-adv-x="272" 
d="M277 752h-56l-85 71l-85 -71h-56l99 141h84zM183 0h-94v690h94v-690z" />
    <glyph glyph-name="Idieresis" unicode="&#xcf;" horiz-adv-x="272" 
d="M96 756h-99v101h99v-101zM275 756h-99v101h99v-101zM183 0h-94v690h94v-690z" />
    <glyph glyph-name="Eth" unicode="&#xd0;" horiz-adv-x="720" 
d="M296 0h-196v319h-75l-14 84h89v287h200q175 0 269 -94t94 -250q0 -157 -96.5 -251.5t-270.5 -94.5zM194 85h106q127 0 196.5 65t69.5 195q0 127 -70.5 193.5t-192.5 66.5h-109v-202h164v-84h-164v-234z" />
    <glyph glyph-name="Ntilde" unicode="&#xd1;" horiz-adv-x="703" 
d="M509 859q-14 -114 -82 -114q-27 0 -71 23q-48 25 -65 25q-22 0 -32 -51l-58 12q13 114 82 114q27 0 71 -23q48 -25 65 -25q22 0 32 51zM620 0h-71l-379 537v-537h-87v690h84l366 -517v517h87v-690z" />
    <glyph glyph-name="Ograve" unicode="&#xd2;" horiz-adv-x="746" 
d="M410 762h-60l-134 127l108 24zM691 346q0 -161 -87 -260t-232 -99t-231 98t-86 259t87 260t232 99t231 -98t86 -259zM594 345q0 125 -59.5 198.5t-161.5 73.5t-161.5 -73.5t-59.5 -198.5t59.5 -198.5t161.5 -73.5t161.5 73.5t59.5 198.5z" />
    <glyph glyph-name="Oacute" unicode="&#xd3;" horiz-adv-x="746" 
d="M530 889l-134 -127h-60l86 151zM691 346q0 -161 -87 -260t-232 -99t-231 98t-86 259t87 260t232 99t231 -98t86 -259zM594 345q0 125 -59.5 198.5t-161.5 73.5t-161.5 -73.5t-59.5 -198.5t59.5 -198.5t161.5 -73.5t161.5 73.5t59.5 198.5z" />
    <glyph glyph-name="Ocircumflex" unicode="&#xd4;" horiz-adv-x="746" 
d="M514 762h-56l-85 71l-85 -71h-56l99 141h84zM691 346q0 -161 -87 -260t-232 -99t-231 98t-86 259t87 260t232 99t231 -98t86 -259zM594 345q0 125 -59.5 198.5t-161.5 73.5t-161.5 -73.5t-59.5 -198.5t59.5 -198.5t161.5 -73.5t161.5 73.5t59.5 198.5z" />
    <glyph glyph-name="Otilde" unicode="&#xd5;" horiz-adv-x="746" 
d="M531 879q-13 -114 -82 -114q-27 0 -71 23q-47 25 -65 25q-22 0 -32 -51l-58 12q13 114 82 114q27 0 71 -23q48 -25 65 -25q22 0 32 51zM691 346q0 -161 -87 -260t-232 -99t-231 98t-86 259t87 260t232 99t231 -98t86 -259zM594 345q0 125 -59.5 198.5t-161.5 73.5
t-161.5 -73.5t-59.5 -198.5t59.5 -198.5t161.5 -73.5t161.5 73.5t59.5 198.5z" />
    <glyph glyph-name="Odieresis" unicode="&#xd6;" horiz-adv-x="746" 
d="M333 766h-99v101h99v-101zM512 766h-99v101h99v-101zM691 346q0 -161 -87 -260t-232 -99t-231 98t-86 259t87 260t232 99t231 -98t86 -259zM594 345q0 125 -59.5 198.5t-161.5 73.5t-161.5 -73.5t-59.5 -198.5t59.5 -198.5t161.5 -73.5t161.5 73.5t59.5 198.5z" />
    <glyph glyph-name="multiply" unicode="&#xd7;" horiz-adv-x="572" 
d="M448 122l-163 165l-163 -165l-52 52l165 163l-165 163l54 54l163 -165l163 165l52 -52l-165 -163l165 -163z" />
    <glyph glyph-name="Oslash" unicode="&#xd8;" horiz-adv-x="746" 
d="M372 -13q-111 0 -191 61l-46 -57l-84 18l76 94q-72 95 -72 241q0 161 87 260t232 99q111 0 191 -61l46 57l84 -18l-76 -93q72 -95 72 -242q0 -161 -87 -260t-232 -99zM150 345q0 -99 39 -169l320 396q-56 47 -136 47q-103 0 -163 -74t-60 -200zM373 71q103 0 163.5 74
t60.5 200q0 100 -40 169l-320 -396q56 -47 136 -47z" />
    <glyph glyph-name="Ugrave" unicode="&#xd9;" horiz-adv-x="689" 
d="M381 742h-60l-134 127l108 24zM613 266q0 -130 -72 -204.5t-198 -74.5q-125 0 -196 73.5t-71 200.5v429h94v-417q0 -93 43 -146.5t130 -53.5t131.5 51t44.5 146v420h94v-424z" />
    <glyph glyph-name="Uacute" unicode="&#xda;" horiz-adv-x="689" 
d="M501 869l-134 -127h-60l86 151zM613 266q0 -130 -72 -204.5t-198 -74.5q-125 0 -196 73.5t-71 200.5v429h94v-417q0 -93 43 -146.5t130 -53.5t131.5 51t44.5 146v420h94v-424z" />
    <glyph glyph-name="Ucircumflex" unicode="&#xdb;" horiz-adv-x="689" 
d="M485 742h-56l-85 71l-85 -71h-56l99 141h84zM613 266q0 -130 -72 -204.5t-198 -74.5q-125 0 -196 73.5t-71 200.5v429h94v-417q0 -93 43 -146.5t130 -53.5t131.5 51t44.5 146v420h94v-424z" />
    <glyph glyph-name="Udieresis" unicode="&#xdc;" horiz-adv-x="689" 
d="M304 746h-99v101h99v-101zM483 746h-99v101h99v-101zM613 266q0 -130 -72 -204.5t-198 -74.5q-125 0 -196 73.5t-71 200.5v429h94v-417q0 -93 43 -146.5t130 -53.5t131.5 51t44.5 146v420h94v-424z" />
    <glyph glyph-name="Yacute" unicode="&#xdd;" horiz-adv-x="636" 
d="M475 869l-134 -127h-60l86 151zM614 690l-251 -416v-274h-94v274l-244 403l96 20l196 -335l190 328h107z" />
    <glyph glyph-name="Thorn" unicode="&#xde;" horiz-adv-x="540" 
d="M500 359q0 -103 -67 -157t-183 -54h-73v-148h-94v690h94v-132h89q110 0 172 -52t62 -147zM405 356q0 119 -144 119h-84v-244h78q150 0 150 125z" />
    <glyph glyph-name="germandbls" unicode="&#xdf;" horiz-adv-x="612" 
d="M577 146q0 -73 -46.5 -114.5t-126.5 -41.5q-84 0 -151 41l14 83q73 -50 142 -50q39 0 61.5 21.5t22.5 58.5q0 20 -6.5 36.5t-26.5 36t-65 38t-114 33.5l-10 70q82 107 82 190q0 44 -22 68t-60 24q-41 0 -63.5 -26.5t-22.5 -72.5v-541h-89v402h-71v75h71v54q0 89 46.5 137
t126.5 48q82 0 127.5 -42.5t45.5 -121.5q0 -54 -24 -101.5t-70 -103.5q119 -28 174 -76t55 -125z" />
    <glyph glyph-name="agrave" unicode="&#xe0;" horiz-adv-x="499" 
d="M287 547h-60l-134 127l108 24zM342 131v111q-121 -12 -167 -41.5t-46 -72.5q0 -30 19 -47t52 -17q77 0 142 67zM431 0h-72l-10 64q-72 -74 -168 -74q-64 0 -102 36t-38 97q0 86 72.5 128.5t228.5 58.5v20q0 81 -91 81q-72 0 -165 -41l-12 77q99 40 185 40q88 0 130 -37
t42 -116v-334z" />
    <glyph glyph-name="aacute" unicode="&#xe1;" horiz-adv-x="499" 
d="M407 674l-134 -127h-60l86 151zM342 131v111q-121 -12 -167 -41.5t-46 -72.5q0 -30 19 -47t52 -17q77 0 142 67zM431 0h-72l-10 64q-72 -74 -168 -74q-64 0 -102 36t-38 97q0 86 72.5 128.5t228.5 58.5v20q0 81 -91 81q-72 0 -165 -41l-12 77q99 40 185 40q88 0 130 -37
t42 -116v-334z" />
    <glyph glyph-name="acircumflex" unicode="&#xe2;" horiz-adv-x="499" 
d="M391 547h-56l-85 71l-85 -71h-56l99 141h84zM342 131v111q-121 -12 -167 -41.5t-46 -72.5q0 -30 19 -47t52 -17q77 0 142 67zM431 0h-72l-10 64q-72 -74 -168 -74q-64 0 -102 36t-38 97q0 86 72.5 128.5t228.5 58.5v20q0 81 -91 81q-72 0 -165 -41l-12 77q99 40 185 40
q88 0 130 -37t42 -116v-334z" />
    <glyph glyph-name="atilde" unicode="&#xe3;" horiz-adv-x="499" 
d="M408 664q-14 -114 -82 -114q-27 0 -71 23q-48 25 -65 25q-22 0 -32 -51l-58 12q14 114 82 114q27 0 71 -23q47 -25 65 -25q22 0 32 51zM342 131v111q-121 -12 -167 -41.5t-46 -72.5q0 -30 19 -47t52 -17q77 0 142 67zM431 0h-72l-10 64q-72 -74 -168 -74q-64 0 -102 36
t-38 97q0 86 72.5 128.5t228.5 58.5v20q0 81 -91 81q-72 0 -165 -41l-12 77q99 40 185 40q88 0 130 -37t42 -116v-334z" />
    <glyph glyph-name="adieresis" unicode="&#xe4;" horiz-adv-x="499" 
d="M210 551h-99v101h99v-101zM389 551h-99v101h99v-101zM342 131v111q-121 -12 -167 -41.5t-46 -72.5q0 -30 19 -47t52 -17q77 0 142 67zM431 0h-72l-10 64q-72 -74 -168 -74q-64 0 -102 36t-38 97q0 86 72.5 128.5t228.5 58.5v20q0 81 -91 81q-72 0 -165 -41l-12 77
q99 40 185 40q88 0 130 -37t42 -116v-334z" />
    <glyph glyph-name="aring" unicode="&#xe5;" horiz-adv-x="499" 
d="M354 647q0 -45 -29.5 -73.5t-74.5 -28.5t-74.5 28.5t-29.5 73.5q0 44 29.5 74t74.5 30t74.5 -30t29.5 -74zM307 647q0 26 -16 43t-41 17t-41 -17t-16 -43t16 -42.5t41 -16.5t41 16.5t16 42.5zM342 131v111q-121 -12 -167 -41.5t-46 -72.5q0 -30 19 -47t52 -17
q77 0 142 67zM431 0h-72l-10 64q-72 -74 -168 -74q-64 0 -102 36t-38 97q0 86 72.5 128.5t228.5 58.5v20q0 81 -91 81q-72 0 -165 -41l-12 77q99 40 185 40q88 0 130 -37t42 -116v-334z" />
    <glyph glyph-name="ae" unicode="&#xe6;" horiz-adv-x="790" 
d="M197 -10q-71 0 -113.5 34.5t-42.5 98.5q0 83 70 126.5t222 59.5v21q0 44 -20 62.5t-62 18.5q-72 0 -165 -41l-12 77q99 40 178 40q62 0 95.5 -15t52.5 -52q53 67 144 67q100 0 151 -67t51 -172v-19h-324q3 -81 39.5 -122t99.5 -41q86 0 172 68l12 -80q-80 -64 -190 -64
q-113 0 -173 76q-83 -76 -185 -76zM427 296h229q-16 121 -113 121q-43 0 -75 -31t-41 -90zM209 64q74 0 141 63q-17 54 -17 113v1q-116 -12 -160 -41.5t-44 -71.5q0 -30 21.5 -47t58.5 -17z" />
    <glyph glyph-name="ccedilla" unicode="&#xe7;" horiz-adv-x="467" 
d="M428 39q-65 -49 -163 -49q-99 0 -160.5 66t-61.5 182q0 118 64 183.5t164 65.5q91 0 152 -44l-13 -87q-66 53 -140 53q-63 0 -100 -44.5t-37 -125.5q0 -84 38.5 -127.5t101.5 -43.5q80 0 142 53zM323 -89l-123 -108h-60l76 133z" />
    <glyph glyph-name="egrave" unicode="&#xe8;" horiz-adv-x="499" 
d="M296 547h-60l-134 127l108 24zM252 417q-43 0 -74.5 -31t-41.5 -90h230q-17 121 -114 121zM455 54q-82 -64 -191 -64q-99 0 -160 62.5t-61 187.5q0 113 59 180t151 67q100 0 151.5 -67t51.5 -172v-19h-324q3 -82 39 -122.5t100 -40.5q85 0 171 68z" />
    <glyph glyph-name="eacute" unicode="&#xe9;" horiz-adv-x="499" 
d="M416 674l-134 -127h-60l86 151zM252 417q-43 0 -74.5 -31t-41.5 -90h230q-17 121 -114 121zM455 54q-82 -64 -191 -64q-99 0 -160 62.5t-61 187.5q0 113 59 180t151 67q100 0 151.5 -67t51.5 -172v-19h-324q3 -82 39 -122.5t100 -40.5q85 0 171 68z" />
    <glyph glyph-name="ecircumflex" unicode="&#xea;" horiz-adv-x="499" 
d="M400 547h-56l-85 71l-85 -71h-56l99 141h84zM252 417q-43 0 -74.5 -31t-41.5 -90h230q-17 121 -114 121zM455 54q-82 -64 -191 -64q-99 0 -160 62.5t-61 187.5q0 113 59 180t151 67q100 0 151.5 -67t51.5 -172v-19h-324q3 -82 39 -122.5t100 -40.5q85 0 171 68z" />
    <glyph glyph-name="edieresis" unicode="&#xeb;" horiz-adv-x="499" 
d="M219 551h-99v101h99v-101zM398 551h-99v101h99v-101zM252 417q-43 0 -74.5 -31t-41.5 -90h230q-17 121 -114 121zM455 54q-82 -64 -191 -64q-99 0 -160 62.5t-61 187.5q0 113 59 180t151 67q100 0 151.5 -67t51.5 -172v-19h-324q3 -82 39 -122.5t100 -40.5q85 0 171 68z
" />
    <glyph glyph-name="igrave" unicode="&#xec;" horiz-adv-x="243" 
d="M158 547h-60l-134 127l108 24zM166 0h-89v477h89v-477z" />
    <glyph glyph-name="iacute" unicode="&#xed;" horiz-adv-x="243" 
d="M278 674l-134 -127h-60l86 151zM166 0h-89v477h89v-477z" />
    <glyph glyph-name="icircumflex" unicode="&#xee;" horiz-adv-x="243" 
d="M262 547h-56l-85 71l-85 -71h-56l99 141h84zM166 0h-89v477h89v-477z" />
    <glyph glyph-name="idieresis" unicode="&#xef;" horiz-adv-x="243" 
d="M81 551h-99v101h99v-101zM260 551h-99v101h99v-101zM166 0h-89v477h89v-477z" />
    <glyph glyph-name="eth" unicode="&#xf0;" horiz-adv-x="539" 
d="M259 -10q-96 0 -156 60.5t-60 161.5t59.5 169t148.5 68q78 0 143 -45q-22 94 -82 153l-34 -50h-80l61 92q-50 30 -116 49l12 74q83 -22 146 -58l39 58l77 -14l-59 -85q134 -114 134 -325q0 -163 -83 -248q-59 -60 -150 -60zM266 64q63 0 101.5 61.5t38.5 162.5
q0 20 -1 29q-65 58 -141 58q-60 0 -95.5 -43.5t-35.5 -113.5t35.5 -112t97.5 -42z" />
    <glyph glyph-name="ntilde" unicode="&#xf1;" 
d="M422 664q-14 -114 -82 -114q-27 0 -71 23q-47 25 -65 25q-22 0 -32 -51l-58 12q14 114 82 114q27 0 71 -23q47 -25 65 -25q22 0 32 51zM459 0h-89v325q0 82 -73 82q-66 0 -138 -77v-330h-89v477h71l11 -69q87 79 169 79q67 0 102.5 -37.5t35.5 -102.5v-347z" />
    <glyph glyph-name="ograve" unicode="&#xf2;" 
d="M300 547h-60l-134 127l108 24zM484 238q0 -115 -62 -181.5t-160 -66.5q-97 0 -158 66.5t-61 181.5q0 116 61 182.5t158 66.5q98 0 160 -67t62 -182zM394 238q0 76 -35 125.5t-97 49.5t-95.5 -48.5t-33.5 -126.5q0 -76 34 -125t95 -49q64 0 98 48t34 126z" />
    <glyph glyph-name="oacute" unicode="&#xf3;" 
d="M420 674l-134 -127h-60l86 151zM484 238q0 -115 -62 -181.5t-160 -66.5q-97 0 -158 66.5t-61 181.5q0 116 61 182.5t158 66.5q98 0 160 -67t62 -182zM394 238q0 76 -35 125.5t-97 49.5t-95.5 -48.5t-33.5 -126.5q0 -76 34 -125t95 -49q64 0 98 48t34 126z" />
    <glyph glyph-name="ocircumflex" unicode="&#xf4;" 
d="M404 547h-56l-85 71l-85 -71h-56l99 141h84zM484 238q0 -115 -62 -181.5t-160 -66.5q-97 0 -158 66.5t-61 181.5q0 116 61 182.5t158 66.5q98 0 160 -67t62 -182zM394 238q0 76 -35 125.5t-97 49.5t-95.5 -48.5t-33.5 -126.5q0 -76 34 -125t95 -49q64 0 98 48t34 126z
" />
    <glyph glyph-name="otilde" unicode="&#xf5;" 
d="M421 664q-13 -114 -82 -114q-27 0 -71 23q-48 25 -65 25q-22 0 -32 -51l-58 12q13 114 82 114q27 0 71 -23q48 -25 65 -25q22 0 32 51zM484 238q0 -115 -62 -181.5t-160 -66.5q-97 0 -158 66.5t-61 181.5q0 116 61 182.5t158 66.5q98 0 160 -67t62 -182zM394 238
q0 76 -35 125.5t-97 49.5t-95.5 -48.5t-33.5 -126.5q0 -76 34 -125t95 -49q64 0 98 48t34 126z" />
    <glyph glyph-name="odieresis" unicode="&#xf6;" 
d="M223 551h-99v101h99v-101zM402 551h-99v101h99v-101zM484 238q0 -115 -62 -181.5t-160 -66.5q-97 0 -158 66.5t-61 181.5q0 116 61 182.5t158 66.5q98 0 160 -67t62 -182zM394 238q0 76 -35 125.5t-97 49.5t-95.5 -48.5t-33.5 -126.5q0 -76 34 -125t95 -49q64 0 98 48
t34 126z" />
    <glyph glyph-name="divide" unicode="&#xf7;" horiz-adv-x="572" 
d="M335 467h-98v107h98v-107zM518 301h-464v74h464v-74zM335 102h-98v107h98v-107z" />
    <glyph glyph-name="oslash" unicode="&#xf8;" 
d="M130 238q0 -53 17 -95l194 245q-33 27 -79 27q-64 0 -98 -48.5t-34 -128.5zM262 62q65 0 100 48.5t35 127.5q0 53 -17 95l-194 -245q32 -26 76 -26zM262 -10q-72 0 -123 36l-33 -42l-74 16l58 74q-47 64 -47 164q0 116 61 182.5t158 66.5q72 0 126 -37l34 43l74 -16
l-59 -75q47 -64 47 -164q0 -115 -62 -181.5t-160 -66.5z" />
    <glyph glyph-name="ugrave" unicode="&#xf9;" 
d="M299 547h-60l-134 127l108 24zM68 477h89v-325q0 -82 73 -82q66 0 138 77v330h89v-477h-71l-11 69q-85 -79 -169 -79q-67 0 -102.5 37t-35.5 103v347z" />
    <glyph glyph-name="uacute" unicode="&#xfa;" 
d="M419 674l-134 -127h-60l86 151zM68 477h89v-325q0 -82 73 -82q66 0 138 77v330h89v-477h-71l-11 69q-85 -79 -169 -79q-67 0 -102.5 37t-35.5 103v347z" />
    <glyph glyph-name="ucircumflex" unicode="&#xfb;" 
d="M403 547h-56l-85 71l-85 -71h-56l99 141h84zM68 477h89v-325q0 -82 73 -82q66 0 138 77v330h89v-477h-71l-11 69q-85 -79 -169 -79q-67 0 -102.5 37t-35.5 103v347z" />
    <glyph glyph-name="udieresis" unicode="&#xfc;" 
d="M222 551h-99v101h99v-101zM401 551h-99v101h99v-101zM68 477h89v-325q0 -82 73 -82q66 0 138 77v330h89v-477h-71l-11 69q-85 -79 -169 -79q-67 0 -102.5 37t-35.5 103v347z" />
    <glyph glyph-name="yacute" unicode="&#xfd;" horiz-adv-x="483" 
d="M399 674l-134 -127h-60l86 151zM104 -182q-20 0 -38 4l-13 81q26 -7 47 -7q60 0 86 70l12 32l-174 472l90 14l128 -378l125 371h93l-195 -527q-28 -75 -66 -103.5t-95 -28.5z" />
    <glyph glyph-name="thorn" unicode="&#xfe;" horiz-adv-x="538" 
d="M405 248q0 76 -31 118t-81 42q-71 0 -134 -84v-229q52 -26 113 -26t97 46.5t36 132.5zM495 252q0 -124 -61.5 -191t-154.5 -67q-67 0 -120 21v-188l-89 -13v894l89 14v-306q67 71 148 71q82 0 135 -60.5t53 -174.5z" />
    <glyph glyph-name="ydieresis" unicode="&#xff;" horiz-adv-x="483" 
d="M202 551h-99v101h99v-101zM381 551h-99v101h99v-101zM104 -182q-20 0 -38 4l-13 81q26 -7 47 -7q60 0 86 70l12 32l-174 472l90 14l128 -378l125 371h93l-195 -527q-28 -75 -66 -103.5t-95 -28.5z" />
    <glyph glyph-name="Amacron" unicode="&#x100;" horiz-adv-x="688" 
d="M477 785h-266v72h266v-72zM566 -7l-81 214h-281l-77 -207h-98l270 693h94l266 -680zM344 583l-109 -293h219z" />
    <glyph glyph-name="amacron" unicode="&#x101;" horiz-adv-x="499" 
d="M383 570h-266v72h266v-72zM342 131v111q-121 -12 -167 -41.5t-46 -72.5q0 -30 19 -47t52 -17q77 0 142 67zM431 0h-72l-10 64q-72 -74 -168 -74q-64 0 -102 36t-38 97q0 86 72.5 128.5t228.5 58.5v20q0 81 -91 81q-72 0 -165 -41l-12 77q99 40 185 40q88 0 130 -37
t42 -116v-334z" />
    <glyph glyph-name="Abreve" unicode="&#x102;" horiz-adv-x="688" 
d="M486 879q-22 -116 -143 -116q-118 0 -140 116l60 13q16 -58 82 -58q63 0 80 58zM566 -7l-81 214h-281l-77 -207h-98l270 693h94l266 -680zM344 583l-109 -293h219z" />
    <glyph glyph-name="abreve" unicode="&#x103;" horiz-adv-x="499" 
d="M392 664q-22 -116 -143 -116q-118 0 -140 116l60 13q16 -58 82 -58q63 0 80 58zM342 131v111q-121 -12 -167 -41.5t-46 -72.5q0 -30 19 -47t52 -17q77 0 142 67zM431 0h-72l-10 64q-72 -74 -168 -74q-64 0 -102 36t-38 97q0 86 72.5 128.5t228.5 58.5v20q0 81 -91 81
q-72 0 -165 -41l-12 77q99 40 185 40q88 0 130 -37t42 -116v-334z" />
    <glyph glyph-name="Aogonek" unicode="&#x104;" horiz-adv-x="688" 
d="M583 -185q-37 0 -58.5 18t-21.5 54q0 47 60 115l-78 205h-281l-77 -207h-98l270 693h94l266 -680l-31 -7l-21 -29q-32 -44 -32 -68q0 -31 38 -31q17 0 42 5v-54q-37 -14 -72 -14zM344 583l-109 -293h219z" />
    <glyph glyph-name="aogonek" unicode="&#x105;" horiz-adv-x="499" 
d="M342 131v111q-121 -12 -167 -41.5t-46 -72.5q0 -30 19 -47t52 -17q77 0 142 67zM449 -171q-37 -14 -72 -14q-37 0 -58.5 18t-21.5 54q0 47 61 116v1l-9 60q-72 -74 -168 -74q-64 0 -102 36t-38 97q0 86 72.5 128.5t228.5 58.5v20q0 81 -91 81q-72 0 -165 -41l-12 77
q99 40 185 40q88 0 130 -37t42 -116v-334h-13l-17 -23q-32 -44 -32 -68q0 -31 38 -31q17 0 42 5v-54z" />
    <glyph glyph-name="Cacute" unicode="&#x106;" horiz-adv-x="632" 
d="M522 889l-134 -127h-60l86 151zM583 54q-91 -67 -209 -67q-145 0 -232 98.5t-87 258.5q0 161 88 260t233 99q112 0 196 -57l-14 -96q-88 67 -183 67q-104 0 -163.5 -73.5t-59.5 -198.5t59.5 -198t163.5 -73q99 0 194 69z" />
    <glyph glyph-name="cacute" unicode="&#x107;" horiz-adv-x="467" 
d="M420 674l-134 -127h-60l86 151zM428 39q-65 -49 -163 -49q-99 0 -160.5 66t-61.5 182q0 118 64 183.5t164 65.5q91 0 152 -44l-13 -87q-66 53 -140 53q-63 0 -100 -44.5t-37 -125.5q0 -84 38.5 -127.5t101.5 -43.5q80 0 142 53z" />
    <glyph glyph-name="Cdotaccent" unicode="&#x10a;" horiz-adv-x="632" 
d="M415 766h-100v101h100v-101zM583 54q-91 -67 -209 -67q-145 0 -232 98.5t-87 258.5q0 161 88 260t233 99q112 0 196 -57l-14 -96q-88 67 -183 67q-104 0 -163.5 -73.5t-59.5 -198.5t59.5 -198t163.5 -73q99 0 194 69z" />
    <glyph glyph-name="cdotaccent" unicode="&#x10b;" horiz-adv-x="467" 
d="M313 551h-100v101h100v-101zM428 39q-65 -49 -163 -49q-99 0 -160.5 66t-61.5 182q0 118 64 183.5t164 65.5q91 0 152 -44l-13 -87q-66 53 -140 53q-63 0 -100 -44.5t-37 -125.5q0 -84 38.5 -127.5t101.5 -43.5q80 0 142 53z" />
    <glyph glyph-name="Ccaron" unicode="&#x10c;" horiz-adv-x="632" 
d="M224 903h56l85 -71l85 71h56l-99 -141h-84zM583 54q-91 -67 -209 -67q-145 0 -232 98.5t-87 258.5q0 161 88 260t233 99q112 0 196 -57l-14 -96q-88 67 -183 67q-104 0 -163.5 -73.5t-59.5 -198.5t59.5 -198t163.5 -73q99 0 194 69z" />
    <glyph glyph-name="ccaron" unicode="&#x10d;" horiz-adv-x="467" 
d="M122 688h56l85 -71l85 71h56l-99 -141h-84zM428 39q-65 -49 -163 -49q-99 0 -160.5 66t-61.5 182q0 118 64 183.5t164 65.5q91 0 152 -44l-13 -87q-66 53 -140 53q-63 0 -100 -44.5t-37 -125.5q0 -84 38.5 -127.5t101.5 -43.5q80 0 142 53z" />
    <glyph glyph-name="Dcaron" unicode="&#x10e;" horiz-adv-x="703" 
d="M201 893h56l85 -71l85 71h56l-99 -141h-84zM646 346q0 -157 -96.5 -251.5t-270.5 -94.5h-196v690h200q175 0 269 -94t94 -250zM549 345q0 127 -70.5 193.5t-192.5 66.5h-109v-520h106q127 0 196.5 65t69.5 195z" />
    <glyph glyph-name="dcaron" unicode="&#x10f;" horiz-adv-x="538" 
d="M609 721q20 -38 20 -72q0 -64 -67 -122l-45 10q34 51 34 93q0 30 -25 78zM133 229q0 -77 30.5 -118.5t80.5 -41.5q72 0 135 84v228q-53 27 -117 27q-58 0 -93.5 -46.5t-35.5 -132.5zM43 225q0 124 61.5 191t154.5 67q67 0 120 -21v246l89 14v-722h-71l-11 69
q-66 -79 -155 -79q-82 0 -135 60t-53 175z" />
    <glyph glyph-name="Dcroat" unicode="&#x110;" horiz-adv-x="720" 
d="M296 0h-196v319h-75l-14 84h89v287h200q175 0 269 -94t94 -250q0 -157 -96.5 -251.5t-270.5 -94.5zM194 85h106q127 0 196.5 65t69.5 195q0 127 -70.5 193.5t-192.5 66.5h-109v-202h164v-84h-164v-234z" />
    <glyph glyph-name="dcroat" unicode="&#x111;" horiz-adv-x="538" 
d="M133 229q0 -77 30.5 -118.5t80.5 -41.5q72 0 135 84v228q-53 27 -117 27q-58 0 -93.5 -46.5t-35.5 -132.5zM386 69q-66 -79 -155 -79q-82 0 -135 60t-53 175q0 124 61.5 191t154.5 67q67 0 120 -21v100h-121l-12 72h133v74l89 14v-88h68v-72h-68v-562h-71z" />
    <glyph glyph-name="Emacron" unicode="&#x112;" horiz-adv-x="506" 
d="M405 775h-266v72h266v-72zM465 0h-382v690h372v-86h-278v-200h216l14 -86h-230v-232h288v-86z" />
    <glyph glyph-name="emacron" unicode="&#x113;" horiz-adv-x="499" 
d="M392 570h-266v72h266v-72zM252 417q-43 0 -74.5 -31t-41.5 -90h230q-17 121 -114 121zM455 54q-82 -64 -191 -64q-99 0 -160 62.5t-61 187.5q0 113 59 180t151 67q100 0 151.5 -67t51.5 -172v-19h-324q3 -82 39 -122.5t100 -40.5q85 0 171 68z" />
    <glyph glyph-name="Ebreve" unicode="&#x114;" horiz-adv-x="506" 
d="M414 869q-22 -116 -143 -116q-118 0 -140 116l60 13q16 -58 82 -58q63 0 80 58zM465 0h-382v690h372v-86h-278v-200h216l14 -86h-230v-232h288v-86z" />
    <glyph glyph-name="ebreve" unicode="&#x115;" horiz-adv-x="499" 
d="M401 664q-22 -116 -143 -116q-118 0 -140 116l60 13q16 -58 82 -58q63 0 80 58zM252 417q-43 0 -74.5 -31t-41.5 -90h230q-17 121 -114 121zM455 54q-82 -64 -191 -64q-99 0 -160 62.5t-61 187.5q0 113 59 180t151 67q100 0 151.5 -67t51.5 -172v-19h-324
q3 -82 39 -122.5t100 -40.5q85 0 171 68z" />
    <glyph glyph-name="Edotaccent" unicode="&#x116;" horiz-adv-x="506" 
d="M322 756h-100v101h100v-101zM465 0h-382v690h372v-86h-278v-200h216l14 -86h-230v-232h288v-86z" />
    <glyph glyph-name="edotaccent" unicode="&#x117;" horiz-adv-x="499" 
d="M309 551h-100v101h100v-101zM252 417q-43 0 -74.5 -31t-41.5 -90h230q-17 121 -114 121zM455 54q-82 -64 -191 -64q-99 0 -160 62.5t-61 187.5q0 113 59 180t151 67q100 0 151.5 -67t51.5 -172v-19h-324q3 -82 39 -122.5t100 -40.5q85 0 171 68z" />
    <glyph glyph-name="Eogonek" unicode="&#x118;" horiz-adv-x="506" 
d="M467 -171q-37 -14 -72 -14q-37 0 -58.5 18t-21.5 54q0 47 58 113h-290v690h372v-86h-278v-200h216l14 -86h-230v-232h288v-86h-29l-17 -23q-32 -44 -32 -68q0 -31 38 -31q17 0 42 5v-54z" />
    <glyph glyph-name="eogonek" unicode="&#x119;" horiz-adv-x="499" 
d="M367 -185q-37 0 -58.5 18t-21.5 54q0 45 59 113q-40 -10 -82 -10q-99 0 -160 62.5t-61 187.5q0 113 59 180t151 67q100 0 151.5 -67t51.5 -172v-19h-324q2 -81 38.5 -122t100.5 -41q85 0 171 68l12 -72l-63 -85q-32 -44 -32 -68q0 -31 38 -31q17 0 42 5v-54
q-37 -14 -72 -14zM136 296h230q-17 121 -114 121q-43 0 -74.5 -31t-41.5 -90z" />
    <glyph glyph-name="Ecaron" unicode="&#x11a;" horiz-adv-x="506" 
d="M131 893h56l85 -71l85 71h56l-99 -141h-84zM465 0h-382v690h372v-86h-278v-200h216l14 -86h-230v-232h288v-86z" />
    <glyph glyph-name="ecaron" unicode="&#x11b;" horiz-adv-x="499" 
d="M118 688h56l85 -71l85 71h56l-99 -141h-84zM252 417q-43 0 -74.5 -31t-41.5 -90h230q-17 121 -114 121zM455 54q-82 -64 -191 -64q-99 0 -160 62.5t-61 187.5q0 113 59 180t151 67q100 0 151.5 -67t51.5 -172v-19h-324q3 -82 39 -122.5t100 -40.5q85 0 171 68z" />
    <glyph glyph-name="Gbreve" unicode="&#x11e;" horiz-adv-x="697" 
d="M514 879q-22 -116 -143 -116q-118 0 -140 116l60 13q16 -58 82 -58q63 0 80 58zM624 54q-104 -67 -233 -67q-161 0 -248.5 97t-87.5 260t87.5 261t240.5 98q121 0 210 -59l-15 -96q-88 69 -196 69q-111 0 -170.5 -72.5t-59.5 -199.5t61.5 -199t177.5 -72q78 0 140 34v183
h-159l-13 86h265v-323z" />
    <glyph glyph-name="gbreve" unicode="&#x11f;" horiz-adv-x="504" 
d="M376 664q-22 -116 -143 -116q-118 0 -140 116l60 13q16 -58 82 -58q63 0 80 58zM331 322q0 43 -27.5 71.5t-71.5 28.5t-70.5 -29.5t-26.5 -74.5q0 -42 27 -70t70 -28q45 0 72 29t27 73zM473 -35q0 -71 -66.5 -109t-166.5 -38q-98 0 -160.5 31.5t-62.5 91.5q0 69 101 123
q-30 21 -30 50q0 35 50 65q-41 21 -65 58t-24 84q0 75 53.5 120.5t129.5 45.5q72 0 123 -40l121 37l13 -80l-91 -9q19 -32 19 -74q0 -74 -53.5 -119t-129.5 -45q-18 0 -36 3q-24 -15 -24 -29q0 -12 17.5 -18t83.5 -18l34 -6q81 -14 122.5 -42.5t41.5 -81.5zM244 -118
q68 0 106.5 20.5t38.5 51.5q0 45 -90 61l-57 10q-23 4 -59 12q-81 -41 -81 -89q0 -29 37 -47.5t105 -18.5z" />
    <glyph glyph-name="Gdotaccent" unicode="&#x120;" horiz-adv-x="697" 
d="M422 766h-100v101h100v-101zM624 54q-104 -67 -233 -67q-161 0 -248.5 97t-87.5 260t87.5 261t240.5 98q121 0 210 -59l-15 -96q-88 69 -196 69q-111 0 -170.5 -72.5t-59.5 -199.5t61.5 -199t177.5 -72q78 0 140 34v183h-159l-13 86h265v-323z" />
    <glyph glyph-name="gdotaccent" unicode="&#x121;" horiz-adv-x="504" 
d="M284 551h-100v101h100v-101zM331 322q0 43 -27.5 71.5t-71.5 28.5t-70.5 -29.5t-26.5 -74.5q0 -42 27 -70t70 -28q45 0 72 29t27 73zM473 -35q0 -71 -66.5 -109t-166.5 -38q-98 0 -160.5 31.5t-62.5 91.5q0 69 101 123q-30 21 -30 50q0 35 50 65q-41 21 -65 58t-24 84
q0 75 53.5 120.5t129.5 45.5q72 0 123 -40l121 37l13 -80l-91 -9q19 -32 19 -74q0 -74 -53.5 -119t-129.5 -45q-18 0 -36 3q-24 -15 -24 -29q0 -12 17.5 -18t83.5 -18l34 -6q81 -14 122.5 -42.5t41.5 -81.5zM244 -118q68 0 106.5 20.5t38.5 51.5q0 45 -90 61l-57 10
q-23 4 -59 12q-81 -41 -81 -89q0 -29 37 -47.5t105 -18.5z" />
    <glyph glyph-name="Gcommaaccent" unicode="&#x122;" horiz-adv-x="697" 
d="M624 54q-104 -67 -233 -67q-161 0 -248.5 97t-87.5 260t87.5 261t240.5 98q121 0 210 -59l-15 -96q-88 69 -196 69q-111 0 -170.5 -72.5t-59.5 -199.5t61.5 -199t177.5 -72q78 0 140 34v183h-159l-13 86h265v-323zM310 -95l78 26q41 -44 41 -89q0 -55 -71 -125l-55 14
q46 61 46 100q0 35 -39 74z" />
    <glyph glyph-name="gcommaaccent" unicode="&#x123;" horiz-adv-x="504" 
d="M285 569l-78 -26q-41 44 -41 89q0 55 71 125l55 -14q-46 -61 -46 -100q0 -35 39 -74zM331 322q0 43 -27.5 71.5t-71.5 28.5t-70.5 -29.5t-26.5 -74.5q0 -42 27 -70t70 -28q45 0 72 29t27 73zM473 -35q0 -71 -66.5 -109t-166.5 -38q-98 0 -160.5 31.5t-62.5 91.5
q0 69 101 123q-30 21 -30 50q0 35 50 65q-41 21 -65 58t-24 84q0 75 53.5 120.5t129.5 45.5q72 0 123 -40l121 37l13 -80l-91 -9q19 -32 19 -74q0 -74 -53.5 -119t-129.5 -45q-18 0 -36 3q-24 -15 -24 -29q0 -12 17.5 -18t83.5 -18l34 -6q81 -14 122.5 -42.5t41.5 -81.5z
M244 -118q68 0 106.5 20.5t38.5 51.5q0 45 -90 61l-57 10q-23 4 -59 12q-81 -41 -81 -89q0 -29 37 -47.5t105 -18.5z" />
    <glyph glyph-name="Hbar" unicode="&#x126;" horiz-adv-x="737" 
d="M194 397h349v113h-349v-113zM194 313v-313h-94v508h-76l-13 79h89v103h94v-103h349v103h94v-103h83v-79h-83v-508h-94v313h-349z" />
    <glyph glyph-name="hbar" unicode="&#x127;" 
d="M159 330v-330h-89v562h-60l-12 72h72v74l89 14v-88h129v-72h-129v-148q81 73 162 73q67 0 102.5 -37.5t35.5 -102.5v-347h-89v325q0 82 -73 82q-66 0 -138 -77z" />
    <glyph glyph-name="Imacron" unicode="&#x12a;" horiz-adv-x="272" 
d="M269 775h-266v72h266v-72zM183 0h-94v690h94v-690z" />
    <glyph glyph-name="imacron" unicode="&#x12b;" horiz-adv-x="243" 
d="M254 570h-266v72h266v-72zM166 0h-89v477h89v-477z" />
    <glyph glyph-name="Ibreve" unicode="&#x12c;" horiz-adv-x="272" 
d="M278 869q-22 -116 -143 -116q-118 0 -140 116l60 13q16 -58 82 -58q63 0 80 58zM183 0h-94v690h94v-690z" />
    <glyph glyph-name="ibreve" unicode="&#x12d;" horiz-adv-x="243" 
d="M263 664q-22 -116 -143 -116q-118 0 -140 116l60 13q16 -58 82 -58q63 0 80 58zM166 0h-89v477h89v-477z" />
    <glyph glyph-name="Iogonek" unicode="&#x12e;" horiz-adv-x="272" 
d="M200 -171q-37 -14 -72 -14q-37 0 -58.5 18t-21.5 54q0 47 58 113h-17v690h94v-690h-14l-17 -23q-32 -44 -32 -68q0 -31 38 -31q17 0 42 5v-54z" />
    <glyph glyph-name="iogonek" unicode="&#x12f;" horiz-adv-x="243" 
d="M178 629q0 -23 -16.5 -39.5t-39.5 -16.5t-40 16.5t-17 39.5t17 40t40 17t39.5 -17t16.5 -40zM187 -171q-37 -14 -72 -14q-37 0 -58.5 18t-21.5 54q0 47 58 113h-16v477h89v-477h-10l-17 -23q-32 -44 -32 -68q0 -31 38 -31q17 0 42 5v-54z" />
    <glyph glyph-name="Idotaccent" unicode="&#x130;" horiz-adv-x="272" 
d="M186 756h-100v101h100v-101zM183 0h-94v690h94v-690z" />
    <glyph glyph-name="dotlessi" unicode="&#x131;" horiz-adv-x="243" 
d="M166 0h-89v477h89v-477z" />
    <glyph glyph-name="Kcommaaccent" unicode="&#x136;" horiz-adv-x="609" 
d="M600 15l-104 -22l-319 357v-350h-94v690h94v-310l286 310h120l-304 -324zM247 -85l78 26q41 -44 41 -89q0 -55 -71 -125l-55 14q46 61 46 100q0 35 -39 74z" />
    <glyph glyph-name="kcommaaccent" unicode="&#x137;" horiz-adv-x="481" 
d="M371 -7l-212 257v-250h-89v708l89 14v-445l185 200h107l-201 -211l218 -258zM191 -90l78 26q41 -44 41 -89q0 -55 -71 -125l-55 14q46 61 46 100q0 35 -39 74z" />
    <glyph glyph-name="Lacute" unicode="&#x139;" horiz-adv-x="468" 
d="M308 874l-134 -127h-60l86 151zM439 0h-356v690h94v-602h249z" />
    <glyph glyph-name="lacute" unicode="&#x13a;" horiz-adv-x="243" 
d="M282 894l-134 -127h-60l86 151zM166 0h-89v708l89 14v-722z" />
    <glyph glyph-name="Lcommaaccent" unicode="&#x13b;" horiz-adv-x="468" 
d="M439 0h-356v690h94v-602h249zM196 -90l78 26q41 -44 41 -89q0 -55 -71 -125l-55 14q46 61 46 100q0 35 -39 74z" />
    <glyph glyph-name="lcommaaccent" unicode="&#x13c;" horiz-adv-x="243" 
d="M166 0h-89v708l89 14v-722zM59 -90l78 26q41 -44 41 -89q0 -55 -71 -125l-55 14q46 61 46 100q0 35 -39 74z" />
    <glyph glyph-name="Lcaron" unicode="&#x13d;" horiz-adv-x="468" 
d="M342 697q20 -38 20 -72q0 -64 -67 -122l-45 10q34 51 34 93q0 30 -25 78zM439 0h-356v690h94v-602h249z" />
    <glyph glyph-name="lcaron" unicode="&#x13e;" horiz-adv-x="243" 
d="M166 0h-89v708l89 14v-722zM307 721q20 -38 20 -72q0 -64 -67 -122l-45 10q34 51 34 93q0 30 -25 78z" />
    <glyph glyph-name="Ldot" unicode="&#x13f;" horiz-adv-x="468" 
d="M439 0h-356v690h94v-602h249zM416 300h-100v101h100v-101z" />
    <glyph glyph-name="ldot" unicode="&#x140;" horiz-adv-x="298" 
d="M166 0h-89v708l89 14v-722zM311 304h-81v101h81v-101z" />
    <glyph glyph-name="Lslash" unicode="&#x141;" horiz-adv-x="485" 
d="M456 0h-356v259l-75 -42l-14 85l89 50v338h94v-286l157 88v-93l-157 -87v-224h249z" />
    <glyph glyph-name="lslash" unicode="&#x142;" horiz-adv-x="282" 
d="M185 0h-87v276l-76 -42l-13 85l89 49v340l87 14v-305l82 45v-92l-82 -45v-325z" />
    <glyph glyph-name="Nacute" unicode="&#x143;" horiz-adv-x="703" 
d="M508 869l-134 -127h-60l86 151zM620 0h-71l-379 537v-537h-87v690h84l366 -517v517h87v-690z" />
    <glyph glyph-name="nacute" unicode="&#x144;" 
d="M421 674l-134 -127h-60l86 151zM459 0h-89v325q0 82 -73 82q-66 0 -138 -77v-330h-89v477h71l11 -69q87 79 169 79q67 0 102.5 -37.5t35.5 -102.5v-347z" />
    <glyph glyph-name="Ncommaaccent" unicode="&#x145;" horiz-adv-x="703" 
d="M620 0h-71l-379 537v-537h-87v690h84l366 -517v517h87v-690zM289 -85l78 26q41 -44 41 -89q0 -55 -71 -125l-55 14q46 61 46 100q0 35 -39 74z" />
    <glyph glyph-name="ncommaaccent" unicode="&#x146;" 
d="M459 0h-89v325q0 82 -73 82q-66 0 -138 -77v-330h-89v477h71l11 -69q87 79 169 79q67 0 102.5 -37.5t35.5 -102.5v-347zM202 -90l78 26q41 -44 41 -89q0 -55 -71 -125l-55 14q46 61 46 100q0 35 -39 74z" />
    <glyph glyph-name="Ncaron" unicode="&#x147;" horiz-adv-x="703" 
d="M210 883h56l85 -71l85 71h56l-99 -141h-84zM620 0h-71l-379 537v-537h-87v690h84l366 -517v517h87v-690z" />
    <glyph glyph-name="ncaron" unicode="&#x148;" 
d="M123 688h56l85 -71l85 71h56l-99 -141h-84zM459 0h-89v325q0 82 -73 82q-66 0 -138 -77v-330h-89v477h71l11 -69q87 79 169 79q67 0 102.5 -37.5t35.5 -102.5v-347z" />
    <glyph glyph-name="Omacron" unicode="&#x14c;" horiz-adv-x="746" 
d="M506 785h-266v72h266v-72zM691 346q0 -161 -87 -260t-232 -99t-231 98t-86 259t87 260t232 99t231 -98t86 -259zM594 345q0 125 -59.5 198.5t-161.5 73.5t-161.5 -73.5t-59.5 -198.5t59.5 -198.5t161.5 -73.5t161.5 73.5t59.5 198.5z" />
    <glyph glyph-name="omacron" unicode="&#x14d;" 
d="M396 570h-266v72h266v-72zM484 238q0 -115 -62 -181.5t-160 -66.5q-97 0 -158 66.5t-61 181.5q0 116 61 182.5t158 66.5q98 0 160 -67t62 -182zM394 238q0 76 -35 125.5t-97 49.5t-95.5 -48.5t-33.5 -126.5q0 -76 34 -125t95 -49q64 0 98 48t34 126z" />
    <glyph glyph-name="Obreve" unicode="&#x14e;" horiz-adv-x="746" 
d="M515 879q-22 -116 -143 -116q-118 0 -140 116l60 13q16 -58 82 -58q63 0 80 58zM691 346q0 -161 -87 -260t-232 -99t-231 98t-86 259t87 260t232 99t231 -98t86 -259zM594 345q0 125 -59.5 198.5t-161.5 73.5t-161.5 -73.5t-59.5 -198.5t59.5 -198.5t161.5 -73.5
t161.5 73.5t59.5 198.5z" />
    <glyph glyph-name="obreve" unicode="&#x14f;" 
d="M405 664q-22 -116 -143 -116q-118 0 -140 116l60 13q16 -58 82 -58q63 0 80 58zM484 238q0 -115 -62 -181.5t-160 -66.5q-97 0 -158 66.5t-61 181.5q0 116 61 182.5t158 66.5q98 0 160 -67t62 -182zM394 238q0 76 -35 125.5t-97 49.5t-95.5 -48.5t-33.5 -126.5
q0 -76 34 -125t95 -49q64 0 98 48t34 126z" />
    <glyph glyph-name="Ohungarumlaut" unicode="&#x150;" horiz-adv-x="746" 
d="M437 891l-129 -125h-53l84 147zM594 891l-129 -125h-53l84 147zM691 346q0 -161 -87 -260t-232 -99t-231 98t-86 259t87 260t232 99t231 -98t86 -259zM594 345q0 125 -59.5 198.5t-161.5 73.5t-161.5 -73.5t-59.5 -198.5t59.5 -198.5t161.5 -73.5t161.5 73.5t59.5 198.5z
" />
    <glyph glyph-name="ohungarumlaut" unicode="&#x151;" 
d="M327 676l-129 -125h-53l84 147zM484 676l-129 -125h-53l84 147zM484 238q0 -115 -62 -181.5t-160 -66.5q-97 0 -158 66.5t-61 181.5q0 116 61 182.5t158 66.5q98 0 160 -67t62 -182zM394 238q0 76 -35 125.5t-97 49.5t-95.5 -48.5t-33.5 -126.5q0 -76 34 -125t95 -49
q64 0 98 48t34 126z" />
    <glyph glyph-name="OE" unicode="&#x152;" horiz-adv-x="876" 
d="M835 0h-416q-174 0 -268 94t-94 250q0 157 96.5 251.5t270.5 94.5h401v-86h-277v-200h216l13 -86h-229v-232h287v-86zM455 85v520h-36q-127 0 -196.5 -65.5t-69.5 -194.5q0 -126 71 -193t193 -67h38z" />
    <glyph glyph-name="oe" unicode="&#x153;" horiz-adv-x="851" 
d="M807 248v-19h-324q3 -82 39 -122.5t100 -40.5q86 0 172 68l12 -80q-82 -64 -190 -64q-124 0 -178 96q-58 -96 -176 -96q-97 0 -158 66.5t-61 181.5q0 116 61 182.5t158 66.5q123 0 177 -97q56 97 166 97q100 0 151 -67t51 -172zM717 296q-17 121 -113 121
q-44 0 -75.5 -31t-40.5 -90h229zM394 238q0 76 -35 125t-97 49t-95.5 -48t-33.5 -126q0 -76 34 -125t95 -49q64 0 98 48t34 126z" />
    <glyph glyph-name="Racute" unicode="&#x154;" horiz-adv-x="570" 
d="M437 879l-134 -127h-60l86 151zM455 -7l-208 298h-70v-291h-94v690h188q107 0 168 -51t61 -145q0 -76 -40.5 -124t-110.5 -67l205 -289zM406 489q0 57 -35.5 87.5t-103.5 30.5h-90v-237h80q69 0 109 30.5t40 88.5z" />
    <glyph glyph-name="racute" unicode="&#x155;" horiz-adv-x="358" 
d="M343 674l-134 -127h-60l86 151zM337 402q-57 -3 -105 -37t-73 -83v-282h-89v477h71l15 -97q64 102 167 107z" />
    <glyph glyph-name="Rcommaaccent" unicode="&#x156;" horiz-adv-x="570" 
d="M455 -7l-208 298h-70v-291h-94v690h188q107 0 168 -51t61 -145q0 -76 -40.5 -124t-110.5 -67l205 -289zM406 489q0 57 -35.5 87.5t-103.5 30.5h-90v-237h80q69 0 109 30.5t40 88.5zM226 -85l78 26q41 -44 41 -89q0 -55 -71 -125l-55 14q46 61 46 100q0 35 -39 74z" />
    <glyph glyph-name="rcommaaccent" unicode="&#x157;" horiz-adv-x="358" 
d="M337 402q-57 -3 -105 -37t-73 -83v-282h-89v477h71l15 -97q64 102 167 107zM68 -90l78 26q41 -44 41 -89q0 -55 -71 -125l-55 14q46 61 46 100q0 35 -39 74z" />
    <glyph glyph-name="Rcaron" unicode="&#x158;" horiz-adv-x="570" 
d="M139 893h56l85 -71l85 71h56l-99 -141h-84zM455 -7l-208 298h-70v-291h-94v690h188q107 0 168 -51t61 -145q0 -76 -40.5 -124t-110.5 -67l205 -289zM406 489q0 57 -35.5 87.5t-103.5 30.5h-90v-237h80q69 0 109 30.5t40 88.5z" />
    <glyph glyph-name="rcaron" unicode="&#x159;" horiz-adv-x="358" 
d="M45 688h56l85 -71l85 71h56l-99 -141h-84zM337 402q-57 -3 -105 -37t-73 -83v-282h-89v477h71l15 -97q64 102 167 107z" />
    <glyph glyph-name="Sacute" unicode="&#x15a;" horiz-adv-x="512" 
d="M422 889l-134 -127h-60l86 151zM464 186q0 -89 -60 -141.5t-158 -52.5q-108 0 -193 45l14 96q89 -59 181 -59q55 0 89 28t34 77q0 47 -26.5 73.5t-105.5 62.5q-101 46 -140 87.5t-39 113.5q0 83 58 132.5t152 49.5q89 0 157 -39l-15 -94q-67 51 -145 51q-56 0 -85 -26
t-29 -67q0 -40 26 -65t105 -61q103 -47 141.5 -91t38.5 -120z" />
    <glyph glyph-name="sacute" unicode="&#x15b;" horiz-adv-x="442" 
d="M384 674l-134 -127h-60l86 151zM403 133q0 -66 -48.5 -104.5t-139.5 -38.5q-94 0 -174 45l13 84q80 -55 168 -55q46 0 71.5 16.5t25.5 46.5q0 32 -23.5 48.5t-89.5 32.5q-86 22 -121.5 53.5t-35.5 93.5q0 58 45.5 95t122.5 37q85 0 157 -32l-14 -84q-72 41 -145 41
q-82 0 -82 -55q0 -24 21.5 -39.5t77.5 -29.5q93 -24 132 -56.5t39 -98.5z" />
    <glyph glyph-name="Scedilla" unicode="&#x15e;" horiz-adv-x="512" 
d="M464 186q0 -89 -60 -141.5t-158 -52.5q-108 0 -193 45l14 96q89 -59 181 -59q55 0 89 28t34 77q0 47 -26.5 73.5t-105.5 62.5q-101 46 -140 87.5t-39 113.5q0 83 58 132.5t152 49.5q89 0 157 -39l-15 -94q-67 51 -145 51q-56 0 -85 -26t-29 -67q0 -40 26 -65t105 -61
q103 -47 141.5 -91t38.5 -120zM325 -94l-123 -108h-60l76 133z" />
    <glyph glyph-name="scedilla" unicode="&#x15f;" horiz-adv-x="442" 
d="M403 133q0 -66 -48.5 -104.5t-139.5 -38.5q-94 0 -174 45l13 84q80 -55 168 -55q46 0 71.5 16.5t25.5 46.5q0 32 -23.5 48.5t-89.5 32.5q-86 22 -121.5 53.5t-35.5 93.5q0 58 45.5 95t122.5 37q85 0 157 -32l-14 -84q-72 41 -145 41q-82 0 -82 -55q0 -24 21.5 -39.5
t77.5 -29.5q93 -24 132 -56.5t39 -98.5zM287 -89l-123 -108h-60l76 133z" />
    <glyph glyph-name="Scaron" unicode="&#x160;" horiz-adv-x="512" 
d="M124 903h56l85 -71l85 71h56l-99 -141h-84zM464 186q0 -89 -60 -141.5t-158 -52.5q-108 0 -193 45l14 96q89 -59 181 -59q55 0 89 28t34 77q0 47 -26.5 73.5t-105.5 62.5q-101 46 -140 87.5t-39 113.5q0 83 58 132.5t152 49.5q89 0 157 -39l-15 -94q-67 51 -145 51
q-56 0 -85 -26t-29 -67q0 -40 26 -65t105 -61q103 -47 141.5 -91t38.5 -120z" />
    <glyph glyph-name="scaron" unicode="&#x161;" horiz-adv-x="442" 
d="M86 688h56l85 -71l85 71h56l-99 -141h-84zM403 133q0 -66 -48.5 -104.5t-139.5 -38.5q-94 0 -174 45l13 84q80 -55 168 -55q46 0 71.5 16.5t25.5 46.5q0 32 -23.5 48.5t-89.5 32.5q-86 22 -121.5 53.5t-35.5 93.5q0 58 45.5 95t122.5 37q85 0 157 -32l-14 -84
q-72 41 -145 41q-82 0 -82 -55q0 -24 21.5 -39.5t77.5 -29.5q93 -24 132 -56.5t39 -98.5z" />
    <glyph glyph-name="Tcommaaccent" unicode="&#x162;" horiz-adv-x="600" 
d="M573 604h-226v-604h-94v604h-220v86h526zM241 -90l78 26q41 -44 41 -89q0 -55 -71 -125l-55 14q46 61 46 100q0 35 -39 74z" />
    <glyph glyph-name="tcommaaccent" unicode="&#x163;" horiz-adv-x="337" 
d="M299 -2q-30 -6 -67 -6q-67 0 -103 29t-36 97v284h-72v75h72v159l87 13v-172h103l12 -75h-115v-268q0 -63 66 -63q24 0 41 3zM130 -90l78 26q41 -44 41 -89q0 -55 -71 -125l-55 14q46 61 46 100q0 35 -39 74z" />
    <glyph glyph-name="Tcaron" unicode="&#x164;" horiz-adv-x="600" 
d="M162 893h56l85 -71l85 71h56l-99 -141h-84zM573 604h-226v-604h-94v604h-220v86h526z" />
    <glyph glyph-name="tcaron" unicode="&#x165;" horiz-adv-x="337" 
d="M330 734q20 -38 20 -72q0 -64 -67 -122l-45 10q34 51 34 93q0 30 -25 78zM299 -2q-30 -6 -67 -6q-67 0 -103 29t-36 97v284h-72v75h72v159l87 13v-172h103l12 -75h-115v-268q0 -63 66 -63q24 0 41 3z" />
    <glyph glyph-name="Umacron" unicode="&#x16a;" horiz-adv-x="689" 
d="M477 765h-266v72h266v-72zM613 266q0 -130 -72 -204.5t-198 -74.5q-125 0 -196 73.5t-71 200.5v429h94v-417q0 -93 43 -146.5t130 -53.5t131.5 51t44.5 146v420h94v-424z" />
    <glyph glyph-name="umacron" unicode="&#x16b;" 
d="M395 570h-266v72h266v-72zM68 477h89v-325q0 -82 73 -82q66 0 138 77v330h89v-477h-71l-11 69q-85 -79 -169 -79q-67 0 -102.5 37t-35.5 103v347z" />
    <glyph glyph-name="Ubreve" unicode="&#x16c;" horiz-adv-x="689" 
d="M486 854q-22 -116 -143 -116q-118 0 -140 116l60 13q16 -58 82 -58q63 0 80 58zM613 266q0 -130 -72 -204.5t-198 -74.5q-125 0 -196 73.5t-71 200.5v429h94v-417q0 -93 43 -146.5t130 -53.5t131.5 51t44.5 146v420h94v-424z" />
    <glyph glyph-name="ubreve" unicode="&#x16d;" 
d="M404 664q-22 -116 -143 -116q-118 0 -140 116l60 13q16 -58 82 -58q63 0 80 58zM68 477h89v-325q0 -82 73 -82q66 0 138 77v330h89v-477h-71l-11 69q-85 -79 -169 -79q-67 0 -102.5 37t-35.5 103v347z" />
    <glyph glyph-name="Uring" unicode="&#x16e;" horiz-adv-x="689" 
d="M448 832q0 -45 -29.5 -73.5t-74.5 -28.5t-74.5 28.5t-29.5 73.5q0 44 29.5 74t74.5 30t74.5 -30t29.5 -74zM401 832q0 26 -16 43t-41 17t-41 -17t-16 -43t16 -42.5t41 -16.5t41 16.5t16 42.5zM613 266q0 -130 -72 -204.5t-198 -74.5q-125 0 -196 73.5t-71 200.5v429h94
v-417q0 -93 43 -146.5t130 -53.5t131.5 51t44.5 146v420h94v-424z" />
    <glyph glyph-name="uring" unicode="&#x16f;" 
d="M366 647q0 -45 -29.5 -73.5t-74.5 -28.5t-74.5 28.5t-29.5 73.5q0 44 29.5 74t74.5 30t74.5 -30t29.5 -74zM319 647q0 26 -16 43t-41 17t-41 -17t-16 -43t16 -42.5t41 -16.5t41 16.5t16 42.5zM68 477h89v-325q0 -82 73 -82q66 0 138 77v330h89v-477h-71l-11 69
q-85 -79 -169 -79q-67 0 -102.5 37t-35.5 103v347z" />
    <glyph glyph-name="Uhungarumlaut" unicode="&#x170;" horiz-adv-x="689" 
d="M408 871l-129 -125h-53l84 147zM565 871l-129 -125h-53l84 147zM613 266q0 -130 -72 -204.5t-198 -74.5q-125 0 -196 73.5t-71 200.5v429h94v-417q0 -93 43 -146.5t130 -53.5t131.5 51t44.5 146v420h94v-424z" />
    <glyph glyph-name="uhungarumlaut" unicode="&#x171;" 
d="M326 676l-129 -125h-53l84 147zM483 676l-129 -125h-53l84 147zM68 477h89v-325q0 -82 73 -82q66 0 138 77v330h89v-477h-71l-11 69q-85 -79 -169 -79q-67 0 -102.5 37t-35.5 103v347z" />
    <glyph glyph-name="Uogonek" unicode="&#x172;" horiz-adv-x="689" 
d="M350 -185q-37 0 -58.5 18t-21.5 54q0 44 48 101q-114 7 -178 80t-64 193v429h94v-417q0 -93 43 -146.5t130 -53.5t131.5 51t44.5 146v420h94v-424q0 -119 -61 -192t-169 -85l-9 -12q-32 -44 -32 -68q0 -31 38 -31q17 0 42 5v-54q-37 -14 -72 -14z" />
    <glyph glyph-name="uogonek" unicode="&#x173;" 
d="M475 -171q-37 -14 -72 -14q-37 0 -58.5 18t-21.5 54q0 47 61 116l1 1l-10 65q-85 -79 -169 -79q-67 0 -102.5 37t-35.5 103v347h89v-325q0 -82 73 -82q66 0 138 77v330h89v-477h-13l-17 -23q-32 -44 -32 -68q0 -31 38 -31q17 0 42 5v-54z" />
    <glyph glyph-name="Wcircumflex" unicode="&#x174;" horiz-adv-x="1017" 
d="M651 752h-56l-85 71l-85 -71h-56l99 141h84zM982 690l-208 -693h-79l-187 562l-187 -562h-78l-204 680l94 20l154 -549l176 542h94l176 -542l151 542h98z" />
    <glyph glyph-name="wcircumflex" unicode="&#x175;" horiz-adv-x="722" 
d="M503 547h-56l-85 71l-85 -71h-56l99 141h84zM694 477l-153 -479h-75l-106 360l-105 -360h-74l-153 472l87 14l104 -360l105 353h75l105 -353l101 353h89z" />
    <glyph glyph-name="Ycircumflex" unicode="&#x176;" horiz-adv-x="636" 
d="M459 742h-56l-85 71l-85 -71h-56l99 141h84zM614 690l-251 -416v-274h-94v274l-244 403l96 20l196 -335l190 328h107z" />
    <glyph glyph-name="ycircumflex" unicode="&#x177;" horiz-adv-x="483" 
d="M383 547h-56l-85 71l-85 -71h-56l99 141h84zM104 -182q-20 0 -38 4l-13 81q26 -7 47 -7q60 0 86 70l12 32l-174 472l90 14l128 -378l125 371h93l-195 -527q-28 -75 -66 -103.5t-95 -28.5z" />
    <glyph glyph-name="Ydieresis" unicode="&#x178;" horiz-adv-x="636" 
d="M278 746h-99v101h99v-101zM457 746h-99v101h99v-101zM614 690l-251 -416v-274h-94v274l-244 403l96 20l196 -335l190 328h107z" />
    <glyph glyph-name="Zacute" unicode="&#x179;" horiz-adv-x="596" 
d="M455 879l-134 -127h-60l86 151zM558 0h-515v70l393 538h-363l-13 82h489v-70l-393 -538h389z" />
    <glyph glyph-name="zacute" unicode="&#x17a;" horiz-adv-x="452" 
d="M382 674l-134 -127h-60l86 151zM416 0h-381v70l267 333h-243l-12 74h357v-70l-268 -333h268z" />
    <glyph glyph-name="Zdotaccent" unicode="&#x17b;" horiz-adv-x="596" 
d="M348 756h-100v101h100v-101zM558 0h-515v70l393 538h-363l-13 82h489v-70l-393 -538h389z" />
    <glyph glyph-name="zdotaccent" unicode="&#x17c;" horiz-adv-x="452" 
d="M275 551h-100v101h100v-101zM416 0h-381v70l267 333h-243l-12 74h357v-70l-268 -333h268z" />
    <glyph glyph-name="Zcaron" unicode="&#x17d;" horiz-adv-x="596" 
d="M157 893h56l85 -71l85 71h56l-99 -141h-84zM558 0h-515v70l393 538h-363l-13 82h489v-70l-393 -538h389z" />
    <glyph glyph-name="zcaron" unicode="&#x17e;" horiz-adv-x="452" 
d="M84 688h56l85 -71l85 71h56l-99 -141h-84zM416 0h-381v70l267 333h-243l-12 74h357v-70l-268 -333h268z" />
    <glyph glyph-name="uni018F" unicode="&#x18f;" horiz-adv-x="697" 
d="M346 -13q-126 0 -203.5 89.5t-77.5 255.5v69h479q-13 101 -70 158.5t-147 57.5q-116 0 -238 -80l-14 93q126 73 253 73q143 0 228.5 -95t85.5 -262q0 -163 -84 -261t-212 -98zM348 71q79 0 135.5 64t62.5 182h-383q3 -246 185 -246z" />
    <glyph glyph-name="florin" unicode="&#x192;" horiz-adv-x="382" 
d="M314 378h-105l-60 -378h-89l60 378h-69l12 75h69l14 90q12 74 50.5 107.5t112.5 33.5q25 0 45 -2v-80q-30 3 -45 3q-34 0 -51.5 -18t-24.5 -59l-12 -75h93v-75z" />
    <glyph glyph-name="Aringacute" unicode="&#x1fa;" horiz-adv-x="688" 
d="M503 985l-134 -127h-60l86 151zM568 -7l-82 214h-284l-78 -207h-95l251 644q-40 29 -40 82q0 44 29.5 74t74.5 30t74.5 -30t29.5 -74q0 -51 -37 -80l248 -633zM401 726q0 26 -16 43t-41 17t-41 -17t-16 -43t16 -42.5t41 -16.5t41 16.5t16 42.5zM344 583l-110 -293h221z
" />
    <glyph glyph-name="aringacute" unicode="&#x1fb;" horiz-adv-x="499" 
d="M407 920l-134 -127h-60l86 151zM354 647q0 -45 -29.5 -73.5t-74.5 -28.5t-74.5 28.5t-29.5 73.5q0 44 29.5 74t74.5 30t74.5 -30t29.5 -74zM307 647q0 26 -16 43t-41 17t-41 -17t-16 -43t16 -42.5t41 -16.5t41 16.5t16 42.5zM342 131v111q-121 -12 -167 -41.5t-46 -72.5
q0 -30 19 -47t52 -17q77 0 142 67zM431 0h-72l-10 64q-72 -74 -168 -74q-64 0 -102 36t-38 97q0 86 72.5 128.5t228.5 58.5v20q0 81 -91 81q-72 0 -165 -41l-12 77q99 40 185 40q88 0 130 -37t42 -116v-334z" />
    <glyph glyph-name="AEacute" unicode="&#x1fc;" horiz-adv-x="885" 
d="M675 879l-134 -127h-60l86 151zM462 290v316l-187 -316h187zM462 0v207h-236l-122 -207h-102l411 690h421v-86h-280v-200h218l13 -86h-231v-232h290v-86h-382z" />
    <glyph glyph-name="aeacute" unicode="&#x1fd;" horiz-adv-x="790" 
d="M550 674l-134 -127h-60l86 151zM197 -10q-71 0 -113.5 34.5t-42.5 98.5q0 83 70 126.5t222 59.5v21q0 44 -20 62.5t-62 18.5q-72 0 -165 -41l-12 77q99 40 178 40q62 0 95.5 -15t52.5 -52q53 67 144 67q100 0 151 -67t51 -172v-19h-324q3 -81 39.5 -122t99.5 -41
q86 0 172 68l12 -80q-80 -64 -190 -64q-113 0 -173 76q-83 -76 -185 -76zM427 296h229q-16 121 -113 121q-43 0 -75 -31t-41 -90zM209 64q74 0 141 63q-17 54 -17 113v1q-116 -12 -160 -41.5t-44 -71.5q0 -30 21.5 -47t58.5 -17z" />
    <glyph glyph-name="Oslashacute" unicode="&#x1fe;" horiz-adv-x="746" 
d="M530 889l-134 -127h-60l86 151zM372 -13q-111 0 -191 61l-46 -57l-84 18l76 94q-72 95 -72 241q0 161 87 260t232 99q111 0 191 -61l46 57l84 -18l-76 -93q72 -95 72 -242q0 -161 -87 -260t-232 -99zM150 345q0 -99 39 -169l320 396q-56 47 -136 47q-103 0 -163 -74
t-60 -200zM373 71q103 0 163.5 74t60.5 200q0 100 -40 169l-320 -396q56 -47 136 -47z" />
    <glyph glyph-name="oslashacute" unicode="&#x1ff;" 
d="M421 674l-134 -127h-60l86 151zM130 238q0 -53 17 -95l194 245q-33 27 -79 27q-64 0 -98 -48.5t-34 -128.5zM262 62q65 0 100 48.5t35 127.5q0 53 -17 95l-194 -245q32 -26 76 -26zM262 -10q-72 0 -123 36l-33 -42l-74 16l58 74q-47 64 -47 164q0 116 61 182.5t158 66.5
q72 0 126 -37l34 43l74 -16l-59 -75q47 -64 47 -164q0 -115 -62 -181.5t-160 -66.5z" />
    <glyph glyph-name="Scommaaccent" unicode="&#x218;" horiz-adv-x="512" 
d="M464 186q0 -89 -60 -141.5t-158 -52.5q-108 0 -193 45l14 96q89 -59 181 -59q55 0 89 28t34 77q0 47 -26.5 73.5t-105.5 62.5q-101 46 -140 87.5t-39 113.5q0 83 58 132.5t152 49.5q89 0 157 -39l-15 -94q-67 51 -145 51q-56 0 -85 -26t-29 -67q0 -40 26 -65t105 -61
q103 -47 141.5 -91t38.5 -120zM203 -95l78 26q41 -44 41 -89q0 -55 -71 -125l-55 14q46 61 46 100q0 35 -39 74z" />
    <glyph glyph-name="scommaaccent" unicode="&#x219;" horiz-adv-x="442" 
d="M403 133q0 -66 -48.5 -104.5t-139.5 -38.5q-94 0 -174 45l13 84q80 -55 168 -55q46 0 71.5 16.5t25.5 46.5q0 32 -23.5 48.5t-89.5 32.5q-86 22 -121.5 53.5t-35.5 93.5q0 58 45.5 95t122.5 37q85 0 157 -32l-14 -84q-72 41 -145 41q-82 0 -82 -55q0 -24 21.5 -39.5
t77.5 -29.5q93 -24 132 -56.5t39 -98.5zM165 -90l78 26q41 -44 41 -89q0 -55 -71 -125l-55 14q46 61 46 100q0 35 -39 74z" />
    <glyph glyph-name="schwa" unicode="&#x259;" horiz-adv-x="499" 
d="M246 -10q-100 0 -151.5 67t-51.5 172v19h324q-3 82 -39 122.5t-100 40.5q-85 0 -171 -68l-13 80q82 64 191 64q99 0 160 -62.5t61 -187.5q0 -113 -59 -180t-151 -67zM247 60q43 0 74.5 31t41.5 90h-230q17 -121 114 -121z" />
    <glyph glyph-name="circumflex" unicode="&#x2c6;" horiz-adv-x="454" 
d="M367 547h-56l-85 71l-85 -71h-56l99 141h84z" />
    <glyph glyph-name="caron" unicode="&#x2c7;" horiz-adv-x="454" 
d="M87 688h56l85 -71l85 71h56l-99 -141h-84z" />
    <glyph glyph-name="breve" unicode="&#x2d8;" horiz-adv-x="454" 
d="M369 664q-22 -116 -143 -116q-118 0 -140 116l60 13q16 -58 82 -58q63 0 80 58z" />
    <glyph glyph-name="dotaccent" unicode="&#x2d9;" horiz-adv-x="454" 
d="M277 551h-100v101h100v-101z" />
    <glyph glyph-name="ring" unicode="&#x2da;" horiz-adv-x="454" 
d="M331 647q0 -45 -29.5 -73.5t-74.5 -28.5t-74.5 28.5t-29.5 73.5q0 44 29.5 74t74.5 30t74.5 -30t29.5 -74zM284 647q0 26 -16 43t-41 17t-41 -17t-16 -43t16 -42.5t41 -16.5t41 16.5t16 42.5z" />
    <glyph glyph-name="ogonek" unicode="&#x2db;" horiz-adv-x="454" 
d="M233 37l39 -24l-26 -36q-32 -44 -32 -68q0 -31 38 -31q17 0 42 5v-54q-37 -14 -72 -14q-37 0 -58.5 18t-21.5 54q0 47 61 116z" />
    <glyph glyph-name="tilde" unicode="&#x2dc;" horiz-adv-x="454" 
d="M380 664q-14 -114 -82 -114q-27 0 -71 23q-47 25 -65 25q-22 0 -32 -51l-58 12q14 114 82 114q27 0 71 -23q48 -25 65 -25q22 0 32 51z" />
    <glyph glyph-name="hungarumlaut" unicode="&#x2dd;" horiz-adv-x="454" 
d="M237 676l-129 -125h-53l84 147zM394 676l-129 -125h-53l84 147z" />
    <glyph glyph-name="commaaccent" unicode="&#x326;" horiz-adv-x="454" 
d="M156 -90l78 26q41 -44 41 -89q0 -55 -71 -125l-55 14q46 61 46 100q0 35 -39 74z" />
    <glyph glyph-name="uni0384" unicode="&#x384;" horiz-adv-x="454" 
d="M300 693l-68 -146h-53l20 146h101z" />
    <glyph glyph-name="uni0385" unicode="&#x385;" horiz-adv-x="454" 
d="M300 718l-65 -171h-53l24 171h94zM141 551h-92v101h92v-101zM404 551h-92v101h92v-101z" />
    <glyph glyph-name="uni0386" unicode="&#x386;" horiz-adv-x="688" 
d="M566 -7l-81 214h-281l-77 -207h-98l270 693h94l266 -680zM154 690l-57 -171h-53l14 171h96zM344 583l-109 -293h219z" />
    <glyph glyph-name="uni0387" unicode="&#x387;" horiz-adv-x="236" 
d="M168 358h-100v119h100v-119z" />
    <glyph glyph-name="uni0388" unicode="&#x388;" horiz-adv-x="506" 
d="M39 690l-57 -171h-53l14 171h96zM465 0h-382v690h372v-86h-278v-200h216l14 -86h-230v-232h288v-86z" />
    <glyph glyph-name="uni0389" unicode="&#x389;" horiz-adv-x="703" 
d="M39 690l-57 -171h-53l14 171h96zM620 0h-94v318h-349v-318h-94v690h94v-286h349v286h94v-690z" />
    <glyph glyph-name="uni038A" unicode="&#x38a;" horiz-adv-x="272" 
d="M39 690l-57 -171h-53l14 171h96zM183 0h-94v690h94v-690z" />
    <glyph glyph-name="uni038C" unicode="&#x38c;" horiz-adv-x="746" 
d="M691 346q0 -161 -87 -260t-232 -99t-231 98t-86 259t87 260t232 99t231 -98t86 -259zM71 690l-57 -171h-53l14 171h96zM594 345q0 125 -59.5 198.5t-161.5 73.5t-161.5 -73.5t-59.5 -198.5t59.5 -198.5t161.5 -73.5t161.5 73.5t59.5 198.5z" />
    <glyph glyph-name="uni038E" unicode="&#x38e;" horiz-adv-x="636" 
d="M614 690l-251 -416v-274h-94v274l-244 403l96 20l196 -335l190 328h107zM11 690l-57 -171h-53l14 171h96z" />
    <glyph glyph-name="uni038F" unicode="&#x38f;" horiz-adv-x="731" 
d="M65 690l-57 -171h-53l14 171h96zM320 80l-11 -80h-233v84h133l-20 18q-131 120 -131 290q0 134 83 222.5t225 88.5q141 0 224 -88.5t83 -222.5q0 -169 -133 -290l-20 -18h135v-84h-233l-11 80l55 54q111 109 110 254q-1 101 -55.5 165t-154.5 64q-101 0 -156 -63.5
t-55 -165.5q0 -146 110 -254z" />
    <glyph glyph-name="uni0390" unicode="&#x390;" horiz-adv-x="263" 
d="M190 718l-65 -171h-53l24 171h94zM31 551h-92v101h92v-101zM294 551h-92v101h92v-101zM69 477h89v-364q0 -42 41 -42q21 0 41 7l-11 -75q-26 -8 -59 -8q-101 0 -101 112v370z" />
    <glyph glyph-name="uni0391" unicode="&#x391;" horiz-adv-x="688" 
d="M566 -7l-81 214h-281l-77 -207h-98l270 693h94l266 -680zM344 583l-109 -293h219z" />
    <glyph glyph-name="uni0392" unicode="&#x392;" horiz-adv-x="545" 
d="M503 202q0 -101 -66.5 -151.5t-188.5 -50.5h-165v690h167q110 0 166.5 -48t56.5 -131q0 -101 -99 -143q129 -39 129 -166zM381 508q0 102 -133 102h-73v-210h66q68 0 104 28.5t36 79.5zM411 200q0 60 -41 91.5t-118 31.5h-77v-243h80q75 0 115.5 30.5t40.5 89.5z" />
    <glyph glyph-name="uni0393" unicode="&#x393;" horiz-adv-x="480" 
d="M83 690h354l14 -89h-274v-601h-94v690z" />
    <glyph glyph-name="uni0394" unicode="&#x394;" horiz-adv-x="692" 
d="M38 72l262 621h96l258 -609l-13 -84h-592zM346 580l-206 -496h412z" />
    <glyph glyph-name="uni0395" unicode="&#x395;" horiz-adv-x="506" 
d="M465 0h-382v690h372v-86h-278v-200h216l14 -86h-230v-232h288v-86z" />
    <glyph glyph-name="uni0396" unicode="&#x396;" horiz-adv-x="596" 
d="M558 0h-515v70l393 538h-363l-13 82h489v-70l-393 -538h389z" />
    <glyph glyph-name="uni0397" unicode="&#x397;" horiz-adv-x="703" 
d="M620 0h-94v318h-349v-318h-94v690h94v-286h349v286h94v-690z" />
    <glyph glyph-name="uni0398" unicode="&#x398;" horiz-adv-x="746" 
d="M691 346q0 -161 -87 -260t-232 -99t-231 98t-86 259t87 260t232 99t231 -98t86 -259zM594 345q0 130 -59 202t-162 72q-102 0 -161.5 -74.5t-59.5 -199.5q0 -132 58.5 -203t162.5 -71q102 0 161.5 74.5t59.5 199.5zM514 301h-282v86h282v-86z" />
    <glyph glyph-name="uni0399" unicode="&#x399;" horiz-adv-x="272" 
d="M183 0h-94v690h94v-690z" />
    <glyph glyph-name="uni039A" unicode="&#x39a;" horiz-adv-x="609" 
d="M600 15l-104 -22l-319 357v-350h-94v690h94v-310l286 310h120l-304 -324z" />
    <glyph glyph-name="uni039B" unicode="&#x39b;" horiz-adv-x="683" 
d="M29 0l269 695h90l266 -682l-96 -20l-216 577l-212 -570h-101z" />
    <glyph glyph-name="uni039C" unicode="&#x39c;" horiz-adv-x="900" 
d="M835 0h-90l-43 557l-216 -560h-75l-216 560l-42 -557h-88l55 690h116l215 -566l215 566h115z" />
    <glyph glyph-name="uni039D" unicode="&#x39d;" horiz-adv-x="703" 
d="M620 0h-71l-379 537v-537h-87v690h84l366 -517v517h87v-690z" />
    <glyph glyph-name="uni039E" unicode="&#x39e;" horiz-adv-x="559" 
d="M510 604h-461v86h461v-86zM477 318h-390v86h376zM515 0h-471v86h471v-86z" />
    <glyph glyph-name="uni039F" unicode="&#x39f;" horiz-adv-x="746" 
d="M691 346q0 -161 -87 -260t-232 -99t-231 98t-86 259t87 260t232 99t231 -98t86 -259zM594 345q0 125 -59.5 198.5t-161.5 73.5t-161.5 -73.5t-59.5 -198.5t59.5 -198.5t161.5 -73.5t161.5 73.5t59.5 198.5z" />
    <glyph glyph-name="uni03A0" unicode="&#x3a0;" horiz-adv-x="690" 
d="M613 0h-94v604h-342v-604h-94v690h530v-690z" />
    <glyph glyph-name="uni03A1" unicode="&#x3a1;" horiz-adv-x="536" 
d="M83 0v690h183q110 0 172 -52t62 -147q0 -103 -67 -157t-183 -54h-73v-280h-94zM405 488q0 119 -144 119h-84v-244h78q150 0 150 125z" />
    <glyph glyph-name="uni03A3" unicode="&#x3a3;" horiz-adv-x="582" 
d="M284 356l-237 264v70h483v-82h-355l224 -248l-243 -278h379l13 -82h-511v70z" />
    <glyph glyph-name="uni03A4" unicode="&#x3a4;" horiz-adv-x="600" 
d="M573 604h-226v-604h-94v604h-220v86h526z" />
    <glyph glyph-name="uni03A5" unicode="&#x3a5;" horiz-adv-x="636" 
d="M614 690l-251 -416v-274h-94v274l-244 403l96 20l196 -335l190 328h107z" />
    <glyph glyph-name="uni03A6" unicode="&#x3a6;" horiz-adv-x="872" 
d="M483 -14h-94v76q-161 7 -252 84.5t-91 199.5t91 200.5t252 85.5v72h94v-72q162 -7 252.5 -84.5t90.5 -201.5q0 -122 -91.5 -199.5t-251.5 -84.5v-76zM141 347q0 -88 64.5 -143.5t184.5 -59.5v406q-120 -4 -184.5 -60t-64.5 -143zM731 347q0 88 -64.5 143.5t-184.5 59.5
v-406q119 4 184 59.5t65 143.5z" />
    <glyph glyph-name="uni03A7" unicode="&#x3a7;" horiz-adv-x="636" 
d="M510 -7l-193 299l-187 -292h-104l238 360l-212 317l95 20l171 -266l164 259h105l-216 -327l235 -350z" />
    <glyph glyph-name="uni03A8" unicode="&#x3a8;" horiz-adv-x="745" 
d="M419 0h-93v204q-263 3 -263 243v243h91v-234q0 -87 43 -128t129 -43v405h93v-405q89 2 130.5 41t41.5 128v236h91v-239q0 -242 -263 -247v-204z" />
    <glyph glyph-name="uni03A9" unicode="&#x3a9;" horiz-adv-x="731" 
d="M320 80l-11 -80h-233v84h133l-20 18q-131 120 -131 290q0 134 83 222.5t225 88.5q141 0 224 -88.5t83 -222.5q0 -169 -133 -290l-20 -18h135v-84h-233l-11 80l55 54q111 109 110 254q-1 101 -55.5 165t-154.5 64q-101 0 -156 -63.5t-55 -165.5q0 -146 110 -254z" />
    <glyph glyph-name="uni03AA" unicode="&#x3aa;" horiz-adv-x="272" 
d="M96 756h-99v101h99v-101zM275 756h-99v101h99v-101zM183 0h-94v690h94v-690z" />
    <glyph glyph-name="uni03AB" unicode="&#x3ab;" horiz-adv-x="636" 
d="M278 746h-99v101h99v-101zM457 746h-99v101h99v-101zM614 690l-251 -416v-274h-94v274l-244 403l96 20l196 -335l190 328h107z" />
    <glyph glyph-name="uni03AC" unicode="&#x3ac;" horiz-adv-x="625" 
d="M392 693l-68 -146h-53l20 146h101zM238 64q42 0 74 36t68 126q-34 109 -64.5 148t-73.5 39q-48 0 -78.5 -48t-30.5 -126t29.5 -126.5t75.5 -48.5zM429 91l-13 41q-36 -76 -77 -109t-105 -33q-86 0 -138.5 67.5t-52.5 177.5q0 115 55.5 183.5t145.5 68.5q71 0 112 -37.5
t72 -128.5l65 156h92l-114 -252l38 -104q18 -50 51 -50q18 0 38 7l-11 -75q-23 -8 -52 -8q-42 0 -66 22.5t-40 73.5z" />
    <glyph glyph-name="uni03AD" unicode="&#x3ad;" horiz-adv-x="466" 
d="M342 693l-68 -146h-53l20 146h101zM430 33q-88 -44 -189 -44q-91 0 -140 36t-49 100q0 86 92 116q-42 17 -62.5 40t-20.5 66q0 62 49 100.5t141 38.5q90 0 169 -41l-13 -77q-85 44 -159 44q-49 0 -74 -18t-25 -49q0 -67 113 -67h75l13 -72h-97q-111 0 -111 -73
q0 -70 104 -70q88 0 172 43z" />
    <glyph glyph-name="uni03AE" unicode="&#x3ae;" 
d="M355 693l-68 -146h-53l20 146h101zM70 477h71l11 -69q87 79 169 79q67 0 102.5 -37.5t35.5 -102.5v-519l-89 -14v511q0 82 -73 82q-66 0 -138 -77v-330h-89v477z" />
    <glyph glyph-name="uni03AF" unicode="&#x3af;" horiz-adv-x="263" 
d="M207 693l-68 -146h-53l20 146h101zM69 477h89v-364q0 -42 41 -42q21 0 41 7l-11 -75q-26 -8 -59 -8q-101 0 -101 112v370z" />
    <glyph glyph-name="uni03B0" unicode="&#x3b0;" horiz-adv-x="523" 
d="M335 718l-65 -171h-53l24 171h94zM176 551h-92v101h92v-101zM439 551h-92v101h92v-101zM456 166q0 -79 -51 -127.5t-144 -48.5t-143.5 48.5t-50.5 127.5v311h89v-298q0 -109 106 -109q105 0 105 109v298h89v-311z" />
    <glyph glyph-name="uni03B1" unicode="&#x3b1;" horiz-adv-x="625" 
d="M238 64q42 0 74 36t68 126q-34 109 -64.5 148t-73.5 39q-48 0 -78.5 -48t-30.5 -126t29.5 -126.5t75.5 -48.5zM429 91l-13 41q-36 -76 -77 -109t-105 -33q-86 0 -138.5 67.5t-52.5 177.5q0 115 55.5 183.5t145.5 68.5q71 0 112 -37.5t72 -128.5l65 156h92l-114 -252
l38 -104q18 -50 51 -50q18 0 38 7l-11 -75q-23 -8 -52 -8q-42 0 -66 22.5t-40 73.5z" />
    <glyph glyph-name="uni03B2" unicode="&#x3b2;" horiz-adv-x="557" 
d="M159 491v-384q75 -43 150 -43q54 0 88 29.5t34 79.5q0 117 -181 150l-9 64q78 24 113 59.5t35 85.5q0 46 -28 77t-80 31q-54 0 -88 -42.5t-34 -106.5zM309 -10q-76 0 -150 38v-201l-89 -13v674q0 101 59 164.5t155 63.5q88 0 140 -51t52 -127q0 -126 -132 -175
q84 -18 129.5 -66.5t45.5 -120.5q0 -81 -59 -133.5t-151 -52.5z" />
    <glyph glyph-name="uni03B3" unicode="&#x3b3;" horiz-adv-x="500" 
d="M205 -186v79q0 120 -32.5 226t-93.5 221l-68 130l96 14l49 -99q82 -163 95 -293q13 143 92 293l48 92h98l-71 -133q-124 -231 -124 -451v-66z" />
    <glyph glyph-name="uni03B4" unicode="&#x3b4;" horiz-adv-x="538" 
d="M264 -10q-101 0 -160.5 65t-59.5 161q0 174 195 269l-152 159v69h368l-11 -74h-241l131 -135q88 -91 124 -150.5t36 -132.5q0 -100 -63.5 -165.5t-166.5 -65.5zM265 64q61 0 100 43.5t39 111.5q0 49 -24.5 95t-88.5 116q-157 -76 -157 -209q0 -70 36.5 -113.5t94.5 -43.5
z" />
    <glyph glyph-name="uni03B5" unicode="&#x3b5;" horiz-adv-x="466" 
d="M430 33q-88 -44 -189 -44q-91 0 -140 36t-49 100q0 86 92 116q-42 17 -62.5 40t-20.5 66q0 62 49 100.5t141 38.5q90 0 169 -41l-13 -77q-85 44 -159 44q-49 0 -74 -18t-25 -49q0 -67 113 -67h75l13 -72h-97q-111 0 -111 -73q0 -70 104 -70q88 0 172 43z" />
    <glyph glyph-name="uni03B6" unicode="&#x3b6;" horiz-adv-x="443" 
d="M419 -47q0 -48 -60 -139l-84 12q48 83 48 106q0 19 -19 32t-84 36q-102 36 -139 77t-37 110q0 49 29 105t104 149l161 198h-263l11 74h346v-73l-188 -244q-63 -82 -86 -123.5t-23 -79.5q0 -39 26 -65.5t94 -50.5q102 -36 133 -61t31 -63z" />
    <glyph glyph-name="uni03B7" unicode="&#x3b7;" 
d="M70 477h71l11 -69q87 79 169 79q67 0 102.5 -37.5t35.5 -102.5v-519l-89 -14v511q0 82 -73 82q-66 0 -138 -77v-330h-89v477z" />
    <glyph glyph-name="uni03B8" unicode="&#x3b8;" horiz-adv-x="587" 
d="M294 717q111 0 174.5 -97t63.5 -267q0 -169 -64 -266t-174 -97q-111 0 -175 96.5t-64 266.5t64 267t175 97zM294 638q-66 0 -104.5 -63t-44.5 -176h297q-6 114 -43.5 176.5t-104.5 62.5zM294 69q69 0 106 64.5t42 181.5h-297q5 -116 43 -181t106 -65z" />
    <glyph glyph-name="uni03B9" unicode="&#x3b9;" horiz-adv-x="263" 
d="M69 477h89v-364q0 -42 41 -42q21 0 41 7l-11 -75q-26 -8 -59 -8q-101 0 -101 112v370z" />
    <glyph glyph-name="uni03BA" unicode="&#x3ba;" horiz-adv-x="485" 
d="M369 -7l-210 237v-230h-89v477h89v-220l103 123q51 60 86.5 80.5t92.5 22.5l14 -81q-45 -4 -76.5 -23t-68.5 -62l-60 -69l218 -240z" />
    <glyph glyph-name="uni03BB" unicode="&#x3bb;" horiz-adv-x="485" 
d="M374 -7l-129 376l-126 -369h-91l174 476l-36 94q-14 38 -31.5 54t-44.5 16q-24 0 -50 -7l11 75q21 7 51 7q58 0 90.5 -25.5t54.5 -86.5l216 -596z" />
    <glyph glyph-name="uni03BC" unicode="&#x3bc;" horiz-adv-x="554" 
d="M157 -173l-87 -13v663h89v-331q0 -76 73 -76q66 0 138 77v330h89v-368q0 -38 36 -38q14 0 29 5l-11 -75q-21 -6 -47 -6q-36 0 -61 18.5t-31 52.5q-78 -74 -148 -74q-49 0 -82 37q13 -57 13 -162v-40z" />
    <glyph glyph-name="uni03BD" unicode="&#x3bd;" horiz-adv-x="481" 
d="M350 477h89v-36q0 -125 -37.5 -224.5t-118.5 -219.5h-84l-179 473l92 14l138 -396q53 93 76.5 169t23.5 182v38z" />
    <glyph glyph-name="uni03BE" unicode="&#x3be;" horiz-adv-x="456" 
d="M44 185q0 63 45 111t122 68q-56 18 -87.5 55t-31.5 84q0 85 88 137h-124l11 73h358v-71h-51q-95 -2 -144 -39.5t-49 -91.5q0 -51 44 -82.5t121 -31.5h46l11 -73h-55q-104 0 -159 -39t-55 -93q0 -38 29 -63.5t102 -51.5q102 -36 133 -61t31 -63q0 -48 -60 -139l-84 12
q48 83 48 106q0 19 -19 32t-84 36q-105 37 -145.5 78t-40.5 107z" />
    <glyph glyph-name="uni03BF" unicode="&#x3bf;" 
d="M484 238q0 -115 -62 -181.5t-160 -66.5q-97 0 -158 66.5t-61 181.5q0 116 61 182.5t158 66.5q98 0 160 -67t62 -182zM394 238q0 76 -35 125.5t-97 49.5t-95.5 -48.5t-33.5 -126.5q0 -76 34 -125t95 -49q64 0 98 48t34 126z" />
    <glyph glyph-name="uni03C0" unicode="&#x3c0;" horiz-adv-x="585" 
d="M548 402h-86v-289q0 -42 41 -42q21 0 41 7l-11 -75q-26 -8 -59 -8q-101 0 -101 112v295h-175v-402h-89v402h-83l-11 75h533v-75z" />
    <glyph glyph-name="uni03C1" unicode="&#x3c1;" horiz-adv-x="529" 
d="M396 243q0 80 -33.5 124.5t-90.5 44.5q-55 0 -88.5 -41.5t-33.5 -115.5v-157q49 -29 116 -29q59 0 94.5 44.5t35.5 129.5zM486 245q0 -123 -61.5 -187t-154.5 -64q-66 0 -120 25v-192l-89 -13v439q0 109 59.5 171.5t154.5 62.5q91 0 151 -62.5t60 -179.5z" />
    <glyph glyph-name="uni03C2" unicode="&#x3c2;" horiz-adv-x="466" 
d="M43 252q0 106 64 170.5t160 64.5q95 0 156 -44l-13 -87q-65 53 -144 53q-59 0 -96 -43t-37 -112q0 -66 29 -101t97 -63q96 -40 126.5 -66t30.5 -63q0 -33 -14.5 -65t-47.5 -82l-84 12q52 90 52 114q0 21 -18.5 35t-77.5 38q-101 40 -142 93t-41 146z" />
    <glyph glyph-name="uni03C3" unicode="&#x3c3;" horiz-adv-x="561" 
d="M261 -10q-95 0 -156.5 65.5t-61.5 172.5q0 115 71.5 182t194.5 67h219l11 -75h-113q58 -89 58 -179q0 -103 -62 -168t-161 -65zM259 64q62 0 98.5 44.5t36.5 117.5q0 95 -58 176h-28q-82 0 -128.5 -48t-46.5 -127q0 -71 35.5 -117t90.5 -46z" />
    <glyph glyph-name="uni03C4" unicode="&#x3c4;" horiz-adv-x="457" 
d="M405 9q-51 -17 -101 -17q-135 0 -135 149v261h-150v75h397l12 -75h-172v-258q0 -76 67 -76q31 0 70 13z" />
    <glyph glyph-name="uni03C5" unicode="&#x3c5;" horiz-adv-x="523" 
d="M456 166q0 -79 -51 -127.5t-144 -48.5t-143.5 48.5t-50.5 127.5v311h89v-298q0 -109 106 -109q105 0 105 109v298h89v-311z" />
    <glyph glyph-name="uni03C6" unicode="&#x3c6;" horiz-adv-x="725" 
d="M319 -186v180q-135 7 -208 72.5t-73 171.5t74 171.5t207 73.5v225l87 14v-239q135 -8 208 -73t73 -171t-74 -171.5t-207 -73.5v-167zM128 238q0 -76 49.5 -119.5t142.5 -50.5v340q-95 -7 -143.5 -50.5t-48.5 -119.5zM597 238q0 75 -49.5 118.5t-142.5 51.5v-340
q95 7 143.5 50.5t48.5 119.5z" />
    <glyph glyph-name="uni03C7" unicode="&#x3c7;" horiz-adv-x="484" 
d="M389 -186l-147 279l-143 -272h-94l190 345l-168 304l90 14l126 -241l121 234h94l-168 -308l189 -341z" />
    <glyph glyph-name="uni03C8" unicode="&#x3c8;" horiz-adv-x="682" 
d="M302 -186v181q-114 2 -174.5 59.5t-60.5 160.5v262h88v-259q0 -69 38 -106.5t109 -39.5v636l88 14v-650q70 2 108.5 39t38.5 107v259h88v-262q0 -102 -62 -159.5t-173 -60.5v-167z" />
    <glyph glyph-name="uni03C9" unicode="&#x3c9;" horiz-adv-x="787" 
d="M556 -10q-64 0 -101 31t-62 91q-26 -60 -62.5 -91t-99.5 -31q-82 0 -130.5 67t-48.5 168q0 72 23 130.5t75 129.5l88 -21q-55 -77 -75.5 -128.5t-20.5 -113.5q0 -66 26 -109t68 -43q53 0 83 58t30 162v104h89v-104q0 -104 30 -162t83 -58q42 0 68 43t26 109
q0 62 -20.5 113.5t-75.5 128.5l88 21q52 -71 75 -129.5t23 -130.5q0 -101 -48.5 -168t-130.5 -67z" />
    <glyph glyph-name="uni03CA" unicode="&#x3ca;" horiz-adv-x="263" 
d="M76 551h-99v101h99v-101zM255 551h-99v101h99v-101zM69 477h89v-364q0 -42 41 -42q21 0 41 7l-11 -75q-26 -8 -59 -8q-101 0 -101 112v370z" />
    <glyph glyph-name="uni03CB" unicode="&#x3cb;" horiz-adv-x="523" 
d="M221 551h-99v101h99v-101zM400 551h-99v101h99v-101zM456 166q0 -79 -51 -127.5t-144 -48.5t-143.5 48.5t-50.5 127.5v311h89v-298q0 -109 106 -109q105 0 105 109v298h89v-311z" />
    <glyph glyph-name="uni03CC" unicode="&#x3cc;" 
d="M354 693l-68 -146h-53l20 146h101zM484 238q0 -115 -62 -181.5t-160 -66.5q-97 0 -158 66.5t-61 181.5q0 116 61 182.5t158 66.5q98 0 160 -67t62 -182zM394 238q0 76 -35 125.5t-97 49.5t-95.5 -48.5t-33.5 -126.5q0 -76 34 -125t95 -49q64 0 98 48t34 126z" />
    <glyph glyph-name="uni03CD" unicode="&#x3cd;" horiz-adv-x="523" 
d="M352 693l-68 -146h-53l20 146h101zM456 166q0 -79 -51 -127.5t-144 -48.5t-143.5 48.5t-50.5 127.5v311h89v-298q0 -109 106 -109q105 0 105 109v298h89v-311z" />
    <glyph glyph-name="uni03CE" unicode="&#x3ce;" horiz-adv-x="787" 
d="M485 693l-68 -146h-53l20 146h101zM556 -10q-64 0 -101 31t-62 91q-26 -60 -62.5 -91t-99.5 -31q-82 0 -130.5 67t-48.5 168q0 72 23 130.5t75 129.5l88 -21q-55 -77 -75.5 -128.5t-20.5 -113.5q0 -66 26 -109t68 -43q53 0 83 58t30 162v104h89v-104q0 -104 30 -162
t83 -58q42 0 68 43t26 109q0 62 -20.5 113.5t-75.5 128.5l88 21q52 -71 75 -129.5t23 -130.5q0 -101 -48.5 -168t-130.5 -67z" />
    <glyph glyph-name="uni0400" unicode="&#x400;" horiz-adv-x="506" 
d="M309 752h-60l-134 127l108 24zM465 0h-382v690h372v-86h-278v-200h216l14 -86h-230v-232h288v-86z" />
    <glyph glyph-name="uni0401" unicode="&#x401;" horiz-adv-x="506" 
d="M232 756h-99v101h99v-101zM411 756h-99v101h99v-101zM465 0h-382v690h372v-86h-278v-200h216l14 -86h-230v-232h288v-86z" />
    <glyph glyph-name="uni0402" unicode="&#x402;" horiz-adv-x="768" 
d="M568 604h-226v-188q73 13 129 13q116 0 182.5 -56.5t66.5 -161.5q0 -95 -61.5 -156t-160.5 -61q-39 0 -76 10l15 83q32 -8 57 -8q58 0 94 37t36 93q0 66 -41.5 99.5t-119.5 33.5q-50 0 -121 -13v-329h-94v604h-215v86h521z" />
    <glyph glyph-name="uni0403" unicode="&#x403;" horiz-adv-x="480" 
d="M410 879l-134 -127h-60l86 151zM83 690h354l14 -89h-274v-601h-94v690z" />
    <glyph glyph-name="uni0404" unicode="&#x404;" horiz-adv-x="632" 
d="M583 54q-91 -67 -209 -67q-148 0 -233.5 97.5t-85.5 259.5t86.5 260.5t234.5 98.5q112 0 196 -57l-14 -95q-88 67 -183 67q-97 0 -154.5 -59t-68.5 -165l336 2l13 -86l-350 2q8 -112 66 -176t158 -64q98 0 194 70z" />
    <glyph glyph-name="uni0405" unicode="&#x405;" horiz-adv-x="512" 
d="M464 186q0 -89 -60 -141.5t-158 -52.5q-108 0 -193 45l14 96q89 -59 181 -59q55 0 89 28t34 77q0 47 -26.5 73.5t-105.5 62.5q-101 46 -140 87.5t-39 113.5q0 83 58 132.5t152 49.5q89 0 157 -39l-15 -94q-67 51 -145 51q-56 0 -85 -26t-29 -67q0 -40 26 -65t105 -61
q103 -47 141.5 -91t38.5 -120z" />
    <glyph glyph-name="uni0406" unicode="&#x406;" horiz-adv-x="272" 
d="M183 0h-94v690h94v-690z" />
    <glyph glyph-name="uni0407" unicode="&#x407;" horiz-adv-x="272" 
d="M96 756h-99v101h99v-101zM275 756h-99v101h99v-101zM183 0h-94v690h94v-690z" />
    <glyph glyph-name="uni0408" unicode="&#x408;" horiz-adv-x="370" 
d="M293 170q0 -89 -52 -133t-143 -44q-28 0 -62 6l-14 85q34 -9 77 -9q100 0 100 103v512h94v-520z" />
    <glyph glyph-name="uni0409" unicode="&#x409;" horiz-adv-x="959" 
d="M35 -15l-14 87q87 25 125 97.5t59 253.5l31 267h359v-270h89q112 0 175.5 -53.5t63.5 -150.5q0 -104 -69 -160t-186 -56h-167v604h-182l-23 -194q-26 -220 -81.5 -309.5t-179.5 -115.5zM828 213q0 61 -38.5 92.5t-110.5 31.5h-84v-254h78q74 0 114.5 32.5t40.5 97.5z" />
    <glyph glyph-name="uni040A" unicode="&#x40a;" horiz-adv-x="974" 
d="M843 213q0 61 -38.5 92.5t-110.5 31.5h-84v-254h78q74 0 114.5 32.5t40.5 97.5zM938 216q0 -104 -69 -160t-186 -56h-167v318h-339v-318h-94v690h94v-286h339v286h94v-270h89q112 0 175.5 -53.5t63.5 -150.5z" />
    <glyph glyph-name="uni040B" unicode="&#x40b;" horiz-adv-x="771" 
d="M568 604h-226v-190q73 13 138 13q227 0 227 -217v-210h-94v206q0 134 -137 134q-63 0 -134 -13v-327h-94v604h-215v86h521z" />
    <glyph glyph-name="uni040C" unicode="&#x40c;" horiz-adv-x="609" 
d="M466 869l-134 -127h-60l86 151zM600 15l-104 -22l-319 357v-350h-94v690h94v-310l286 310h120l-304 -324z" />
    <glyph glyph-name="uni040D" unicode="&#x40d;" horiz-adv-x="703" 
d="M388 742h-60l-134 127l108 24zM179 0h-96v690h93v-542l348 542h96v-690h-93v542z" />
    <glyph glyph-name="uni040E" unicode="&#x40e;" horiz-adv-x="627" 
d="M476 859q-22 -116 -143 -116q-118 0 -140 116l60 13q16 -58 82 -58q63 0 80 58zM158 -12q-37 0 -66 11l-12 86q44 -12 72 -12q29 0 50.5 16.5t42.5 57.5l39 75l-248 460l97 15l201 -383l183 376h101l-288 -566q-39 -75 -78 -105.5t-94 -30.5z" />
    <glyph glyph-name="uni040F" unicode="&#x40f;" horiz-adv-x="696" 
d="M393 -151l-90 -14v165h-220v690h94v-604h342v604h94v-690h-220v-151z" />
    <glyph glyph-name="uni0410" unicode="&#x410;" horiz-adv-x="688" 
d="M566 -7l-81 214h-281l-77 -207h-98l270 693h94l266 -680zM344 583l-109 -293h219z" />
    <glyph glyph-name="uni0411" unicode="&#x411;" horiz-adv-x="540" 
d="M500 211q0 -103 -67 -157t-183 -54h-167v690h357l14 -86h-277v-194h89q110 0 172 -52t62 -147zM405 208q0 119 -144 119h-84v-244h78q150 0 150 125z" />
    <glyph glyph-name="uni0412" unicode="&#x412;" horiz-adv-x="545" 
d="M503 202q0 -101 -66.5 -151.5t-188.5 -50.5h-165v690h167q110 0 166.5 -48t56.5 -131q0 -101 -99 -143q129 -39 129 -166zM381 508q0 102 -133 102h-73v-210h66q68 0 104 28.5t36 79.5zM411 200q0 60 -41 91.5t-118 31.5h-77v-243h80q75 0 115.5 30.5t40.5 89.5z" />
    <glyph glyph-name="uni0413" unicode="&#x413;" horiz-adv-x="480" 
d="M83 690h354l14 -89h-274v-601h-94v690z" />
    <glyph glyph-name="uni0414" unicode="&#x414;" horiz-adv-x="728" 
d="M112 -159h-89v247q98 90 146.5 186.5t66.5 242.5l21 173h365v-602h79v-239l-89 -14v165h-500v-159zM338 606l-12 -101q-18 -150 -62 -246t-125 -175h389v522h-190z" />
    <glyph glyph-name="uni0415" unicode="&#x415;" horiz-adv-x="506" 
d="M465 0h-382v690h372v-86h-278v-200h216l14 -86h-230v-232h288v-86z" />
    <glyph glyph-name="uni0416" unicode="&#x416;" horiz-adv-x="923" 
d="M802 -7l-295 363l3 -356h-94l3 356l-287 -356h-116l301 363l-271 312l101 22l272 -324l-3 317h94l-3 -317l267 317h116l-281 -323l294 -352z" />
    <glyph glyph-name="uni0417" unicode="&#x417;" horiz-adv-x="539" 
d="M242 -11q-101 0 -197 50l16 88q92 -53 182 -53q70 0 109.5 34t39.5 89q0 122 -170 122h-74l-13 84h93q68 0 109 30t41 82q0 46 -33 73.5t-98 27.5q-88 0 -175 -52l-13 86q90 51 196 51q100 0 159.5 -50t59.5 -129q0 -116 -123 -157q136 -38 136 -171q0 -91 -68 -148
t-177 -57z" />
    <glyph glyph-name="uni0418" unicode="&#x418;" horiz-adv-x="703" 
d="M179 0h-96v690h93v-542l348 542h96v-690h-93v542z" />
    <glyph glyph-name="uni0419" unicode="&#x419;" horiz-adv-x="703" 
d="M493 859q-22 -116 -143 -116q-118 0 -140 116l60 13q16 -58 82 -58q63 0 80 58zM179 0h-96v690h93v-542l348 542h96v-690h-93v542z" />
    <glyph glyph-name="uni041A" unicode="&#x41a;" horiz-adv-x="609" 
d="M600 15l-104 -22l-319 357v-350h-94v690h94v-310l286 310h120l-304 -324z" />
    <glyph glyph-name="uni041B" unicode="&#x41b;" horiz-adv-x="688" 
d="M605 690v-690h-94v604h-192l-23 -194q-26 -220 -81.5 -309.5t-179.5 -115.5l-14 87q87 25 125 97.5t59 253.5l31 267h369z" />
    <glyph glyph-name="uni041C" unicode="&#x41c;" horiz-adv-x="900" 
d="M835 0h-90l-43 557l-216 -560h-75l-216 560l-42 -557h-88l55 690h116l215 -566l215 566h115z" />
    <glyph glyph-name="uni041D" unicode="&#x41d;" horiz-adv-x="703" 
d="M620 0h-94v318h-349v-318h-94v690h94v-286h349v286h94v-690z" />
    <glyph glyph-name="uni041E" unicode="&#x41e;" horiz-adv-x="746" 
d="M691 346q0 -161 -87 -260t-232 -99t-231 98t-86 259t87 260t232 99t231 -98t86 -259zM594 345q0 125 -59.5 198.5t-161.5 73.5t-161.5 -73.5t-59.5 -198.5t59.5 -198.5t161.5 -73.5t161.5 73.5t59.5 198.5z" />
    <glyph glyph-name="uni041F" unicode="&#x41f;" horiz-adv-x="696" 
d="M613 0h-94v604h-342v-604h-94v690h530v-690z" />
    <glyph glyph-name="uni0420" unicode="&#x420;" horiz-adv-x="536" 
d="M83 0v690h183q110 0 172 -52t62 -147q0 -103 -67 -157t-183 -54h-73v-280h-94zM405 488q0 119 -144 119h-84v-244h78q150 0 150 125z" />
    <glyph glyph-name="uni0421" unicode="&#x421;" horiz-adv-x="632" 
d="M583 54q-91 -67 -209 -67q-145 0 -232 98.5t-87 258.5q0 161 88 260t233 99q112 0 196 -57l-14 -96q-88 67 -183 67q-104 0 -163.5 -73.5t-59.5 -198.5t59.5 -198t163.5 -73q99 0 194 69z" />
    <glyph glyph-name="uni0422" unicode="&#x422;" horiz-adv-x="600" 
d="M573 604h-226v-604h-94v604h-220v86h526z" />
    <glyph glyph-name="uni0423" unicode="&#x423;" horiz-adv-x="627" 
d="M158 -12q-37 0 -66 11l-12 86q44 -12 72 -12q29 0 50.5 16.5t42.5 57.5l39 75l-248 460l97 15l201 -383l183 376h101l-288 -566q-39 -75 -78 -105.5t-94 -30.5z" />
    <glyph glyph-name="uni0424" unicode="&#x424;" horiz-adv-x="872" 
d="M483 -14h-94v76q-161 7 -252 84.5t-91 199.5t91 200.5t252 85.5v72h94v-72q162 -7 252.5 -84.5t90.5 -201.5q0 -122 -91.5 -199.5t-251.5 -84.5v-76zM141 347q0 -88 64.5 -143.5t184.5 -59.5v406q-120 -4 -184.5 -60t-64.5 -143zM731 347q0 88 -64.5 143.5t-184.5 59.5
v-406q119 4 184 59.5t65 143.5z" />
    <glyph glyph-name="uni0425" unicode="&#x425;" horiz-adv-x="636" 
d="M510 -7l-193 299l-187 -292h-104l238 360l-212 317l95 20l171 -266l164 259h105l-216 -327l235 -350z" />
    <glyph glyph-name="uni0426" unicode="&#x426;" horiz-adv-x="715" 
d="M177 86h338v604h94v-602h79v-239l-89 -14v165h-516v690h94v-604z" />
    <glyph glyph-name="uni0427" unicode="&#x427;" horiz-adv-x="602" 
d="M60 690h94v-220q0 -134 137 -134q63 0 134 13v341h94v-690h-94v262q-73 -13 -138 -13q-227 0 -227 217v224z" />
    <glyph glyph-name="uni0428" unicode="&#x428;" horiz-adv-x="959" 
d="M176 84h257v606h93v-606h257v606h93v-690h-793v690h93v-606z" />
    <glyph glyph-name="uni0429" unicode="&#x429;" horiz-adv-x="978" 
d="M176 84h255v606h93v-606h255v606h93v-602h79v-239l-89 -14v165h-779v690h93v-606z" />
    <glyph glyph-name="uni042A" unicode="&#x42a;" horiz-adv-x="681" 
d="M390 0h-167v604h-200l14 86h280v-270h89q112 0 175.5 -53.5t63.5 -150.5q0 -104 -69 -160t-186 -56zM550 213q0 61 -38.5 92.5t-110.5 31.5h-84v-254h78q74 0 114.5 32.5t40.5 97.5z" />
    <glyph glyph-name="uni042B" unicode="&#x42b;" horiz-adv-x="773" 
d="M684 0h-94v690h94v-690zM500 216q0 -104 -69 -160t-186 -56h-162v690h94v-270h84q112 0 175.5 -53.5t63.5 -150.5zM405 213q0 61 -38.5 92.5t-110.5 31.5h-79v-254h73q74 0 114.5 32.5t40.5 97.5z" />
    <glyph glyph-name="uni042C" unicode="&#x42c;" horiz-adv-x="541" 
d="M505 216q0 -104 -69 -160t-186 -56h-167v690h94v-270h89q112 0 175.5 -53.5t63.5 -150.5zM410 213q0 61 -38.5 92.5t-110.5 31.5h-84v-254h78q74 0 114.5 32.5t40.5 97.5z" />
    <glyph glyph-name="uni042D" unicode="&#x42d;" horiz-adv-x="632" 
d="M257 -13q-117 0 -208 67l14 90q99 -72 194 -72q101 0 158.5 64.5t65.5 175.5l-338 -2l-13 86l349 -2q-11 104 -67.5 164t-147.5 60q-102 0 -190 -67l-14 91q96 61 206 61q145 0 228 -98t83 -259q0 -160 -86.5 -259.5t-233.5 -99.5z" />
    <glyph glyph-name="uni042E" unicode="&#x42e;" horiz-adv-x="942" 
d="M591 -13q-126 0 -204 89t-86 237h-124v-313h-94v690h94v-291h126q14 139 91.5 221.5t198.5 82.5q133 0 212 -98t79 -259t-80 -260t-213 -99zM788 345q0 126 -52 199t-144 73q-93 0 -144.5 -73t-51.5 -199t52 -199t144 -73q93 0 144.5 73t51.5 199z" />
    <glyph glyph-name="uni042F" unicode="&#x42f;" horiz-adv-x="570" 
d="M164 491q0 -60 38.5 -90.5t104.5 -30.5h86v237h-90q-67 0 -103 -31t-36 -85zM393 291h-77l-205 -298l-93 21l199 286q-147 36 -147 188q0 94 63.5 148t173.5 54h180v-690h-94v291z" />
    <glyph glyph-name="uni0430" unicode="&#x430;" horiz-adv-x="499" 
d="M342 131v111q-121 -12 -167 -41.5t-46 -72.5q0 -30 19 -47t52 -17q77 0 142 67zM431 0h-72l-10 64q-72 -74 -168 -74q-64 0 -102 36t-38 97q0 86 72.5 128.5t228.5 58.5v20q0 81 -91 81q-72 0 -165 -41l-12 77q99 40 185 40q88 0 130 -37t42 -116v-334z" />
    <glyph glyph-name="uni0431" unicode="&#x431;" horiz-adv-x="542" 
d="M275 -10q-90 0 -147 57q-77 77 -77 254q0 193 56 282t189 112l154 27l13 -84l-154 -27q-87 -15 -127 -62t-50 -155q57 81 164 81q93 0 148 -65.5t55 -168.5q0 -113 -64 -182t-160 -69zM409 237q0 73 -33.5 118.5t-92.5 45.5q-65 0 -104 -48t-39 -121q0 -76 36.5 -122
t97.5 -46q62 0 98.5 49t36.5 124z" />
    <glyph glyph-name="uni0432" unicode="&#x432;" horiz-adv-x="500" 
d="M266 0h-196v477h201q84 0 127 -33t43 -88q0 -72 -76 -104q93 -26 93 -112q0 -70 -51 -105t-141 -35zM354 346q0 58 -89 58h-110v-120h111q88 0 88 62zM370 142q0 72 -100 72h-115v-141h110q105 0 105 69z" />
    <glyph glyph-name="uni0433" unicode="&#x433;" horiz-adv-x="402" 
d="M70 0v477h298l11 -79h-220v-398h-89z" />
    <glyph glyph-name="uni0434" unicode="&#x434;" horiz-adv-x="565" 
d="M21 -149v224q65 56 97.5 114t43.5 151l16 137h297v-402h66v-219l-84 -13v157h-352v-149h-84zM254 403l-8 -69q-11 -95 -39.5 -152t-82.5 -109h263v330h-133z" />
    <glyph glyph-name="uni0435" unicode="&#x435;" horiz-adv-x="499" 
d="M252 417q-43 0 -74.5 -31t-41.5 -90h230q-17 121 -114 121zM455 54q-82 -64 -191 -64q-99 0 -160 62.5t-61 187.5q0 113 59 180t151 67q100 0 151.5 -67t51.5 -172v-19h-324q3 -82 39 -122.5t100 -40.5q85 0 171 68z" />
    <glyph glyph-name="uni0436" unicode="&#x436;" horiz-adv-x="727" 
d="M616 -7l-210 249l2 -242h-89l2 243l-200 -243h-106l212 249l-194 220l96 15l192 -227l-2 220h89l-2 -221l184 221h106l-196 -227l212 -242z" />
    <glyph glyph-name="uni0437" unicode="&#x437;" horiz-adv-x="462" 
d="M219 -11q-95 0 -179 42l12 76q82 -44 165 -44q107 0 107 70q0 73 -119 73h-72l-13 72h90q107 0 107 68q0 30 -25 48t-76 18q-70 0 -153 -43l-13 75q81 42 172 42t137 -36t46 -96q0 -80 -83 -112q92 -30 92 -114q0 -62 -51.5 -100.5t-143.5 -38.5z" />
    <glyph glyph-name="uni0438" unicode="&#x438;" horiz-adv-x="545" 
d="M70 0v477h87v-351l228 351h90v-477h-87v351l-229 -351h-89z" />
    <glyph glyph-name="uni0439" unicode="&#x439;" horiz-adv-x="545" 
d="M414 664q-22 -116 -143 -116q-118 0 -140 116l60 13q16 -58 82 -58q63 0 80 58zM70 0v477h87v-351l228 351h90v-477h-87v351l-229 -351h-89z" />
    <glyph glyph-name="uni043A" unicode="&#x43a;" horiz-adv-x="480" 
d="M369 -7l-210 242v-235h-89v477h89v-215l185 215h109l-203 -226l219 -243z" />
    <glyph glyph-name="uni043B" unicode="&#x43b;" horiz-adv-x="539" 
d="M16 70q61 15 87 61.5t40 160.5l22 185h304v-477h-89v402h-139l-13 -119q-17 -148 -60.5 -212.5t-138.5 -81.5z" />
    <glyph glyph-name="uni043C" unicode="&#x43c;" horiz-adv-x="725" 
d="M670 0h-87l-26 375l-157 -377h-78l-157 377l-26 -375h-84l38 477h116l155 -369l155 369h113z" />
    <glyph glyph-name="uni043D" unicode="&#x43d;" horiz-adv-x="539" 
d="M469 0h-89v208h-221v-208h-89v477h89v-194h221v194h89v-477z" />
    <glyph glyph-name="uni043E" unicode="&#x43e;" 
d="M484 238q0 -115 -62 -181.5t-160 -66.5q-97 0 -158 66.5t-61 181.5q0 116 61 182.5t158 66.5q98 0 160 -67t62 -182zM394 238q0 76 -35 125.5t-97 49.5t-95.5 -48.5t-33.5 -126.5q0 -76 34 -125t95 -49q64 0 98 48t34 126z" />
    <glyph glyph-name="uni043F" unicode="&#x43f;" horiz-adv-x="535" 
d="M465 0h-89v402h-217v-402h-89v477h395v-477z" />
    <glyph glyph-name="uni0440" unicode="&#x440;" horiz-adv-x="538" 
d="M405 248q0 76 -31 118t-81 42q-71 0 -134 -84v-229q52 -26 116 -26q58 0 94 46.5t36 132.5zM495 252q0 -124 -61.5 -191t-154.5 -67q-67 0 -120 21v-188l-89 -13v663h71l11 -69q68 79 155 79q82 0 135 -60.5t53 -174.5z" />
    <glyph glyph-name="uni0441" unicode="&#x441;" horiz-adv-x="467" 
d="M428 39q-65 -49 -163 -49q-99 0 -160.5 66t-61.5 182q0 118 64 183.5t164 65.5q91 0 152 -44l-13 -87q-66 53 -140 53q-63 0 -100 -44.5t-37 -125.5q0 -84 38.5 -127.5t101.5 -43.5q80 0 142 53z" />
    <glyph glyph-name="uni0442" unicode="&#x442;" horiz-adv-x="458" 
d="M184 0v399h-160v78h404l12 -78h-167v-399h-89z" />
    <glyph glyph-name="uni0443" unicode="&#x443;" horiz-adv-x="483" 
d="M104 -182q-20 0 -38 4l-13 81q26 -7 47 -7q60 0 86 70l12 32l-174 472l90 14l128 -378l125 371h93l-195 -527q-28 -75 -66 -103.5t-95 -28.5z" />
    <glyph glyph-name="uni0444" unicode="&#x444;" horiz-adv-x="725" 
d="M319 -186v180q-135 7 -208 72.5t-73 171.5t74 171.5t207 73.5v225l87 14v-239q135 -8 208 -73t73 -171t-74 -171.5t-207 -73.5v-167zM128 238q0 -76 49.5 -119.5t142.5 -50.5v340q-95 -7 -143.5 -50.5t-48.5 -119.5zM597 238q0 75 -49.5 118.5t-142.5 51.5v-340
q95 7 143.5 50.5t48.5 119.5z" />
    <glyph glyph-name="uni0445" unicode="&#x445;" horiz-adv-x="472" 
d="M355 -7l-119 190l-113 -183h-94l159 244l-149 226l88 14l109 -175l104 168h93l-149 -230l159 -241z" />
    <glyph glyph-name="uni0446" unicode="&#x446;" horiz-adv-x="551" 
d="M70 0v477h89v-402h213v402h89v-402h66v-217l-84 -13v155h-373z" />
    <glyph glyph-name="uni0447" unicode="&#x447;" horiz-adv-x="493" 
d="M50 477h89v-148q0 -96 101 -96q47 0 94 10v234h89v-477h-89v165q-52 -12 -104 -12q-180 0 -180 174v150z" />
    <glyph glyph-name="uni0448" unicode="&#x448;" horiz-adv-x="807" 
d="M359 477h89v-402h200v402h89v-477h-667v477h89v-402h200v402z" />
    <glyph glyph-name="uni0449" unicode="&#x449;" horiz-adv-x="823" 
d="M715 -155v155h-645v477h89v-402h198v402h89v-402h198v402h89v-402h66v-217z" />
    <glyph glyph-name="uni044A" unicode="&#x44a;" horiz-adv-x="549" 
d="M324 0h-164v402h-148l12 75h225v-162h83q90 0 137.5 -40.5t47.5 -114.5q0 -75 -52.5 -117.5t-140.5 -42.5zM431 159q0 82 -103 82h-79v-167h77q51 0 78 22.5t27 62.5z" />
    <glyph glyph-name="uni044B" unicode="&#x44b;" horiz-adv-x="663" 
d="M422 160q0 -75 -52.5 -117.5t-140.5 -42.5h-159v477h89v-162h78q90 0 137.5 -40.5t47.5 -114.5zM593 0h-89v477h89v-477zM336 159q0 82 -103 82h-74v-167h72q51 0 78 22.5t27 62.5z" />
    <glyph glyph-name="uni044C" unicode="&#x44c;" horiz-adv-x="459" 
d="M427 160q0 -75 -52.5 -117.5t-140.5 -42.5h-164v477h89v-162h83q90 0 137.5 -40.5t47.5 -114.5zM341 159q0 82 -103 82h-79v-167h77q51 0 78 22.5t27 62.5z" />
    <glyph glyph-name="uni044D" unicode="&#x44d;" horiz-adv-x="469" 
d="M196 -10q-87 0 -155 45l13 85q65 -53 143 -53q57 0 95 36t45 103l-217 -1l-12 75l229 -1q-9 64 -44.5 97.5t-90.5 33.5q-72 0 -142 -52l-13 80q69 49 161 49q99 0 158.5 -66t59.5 -182q0 -118 -65 -183.5t-165 -65.5z" />
    <glyph glyph-name="uni044E" unicode="&#x44e;" horiz-adv-x="715" 
d="M672 238q0 -116 -58.5 -182t-153.5 -66q-87 0 -143 56.5t-65 157.5h-93v-204h-89v477h89v-198h94q10 98 65.5 153t141.5 55q95 0 153.5 -66.5t58.5 -182.5zM582 238q0 77 -31 125.5t-91 48.5t-89.5 -47.5t-29.5 -126.5q0 -77 30.5 -125.5t88.5 -48.5q61 0 91.5 47.5
t30.5 126.5z" />
    <glyph glyph-name="uni044F" unicode="&#x44f;" horiz-adv-x="512" 
d="M155 322q0 -38 25.5 -59.5t74.5 -21.5h98v161h-98q-48 0 -74 -21.5t-26 -58.5zM353 169h-86l-143 -175l-94 20l140 165q-49 15 -77 51.5t-28 88.5q0 73 51 115.5t141 42.5h185v-477h-89v169z" />
    <glyph glyph-name="uni0450" unicode="&#x450;" horiz-adv-x="499" 
d="M296 547h-60l-134 127l108 24zM252 417q-43 0 -74.5 -31t-41.5 -90h230q-17 121 -114 121zM455 54q-82 -64 -191 -64q-99 0 -160 62.5t-61 187.5q0 113 59 180t151 67q100 0 151.5 -67t51.5 -172v-19h-324q3 -82 39 -122.5t100 -40.5q85 0 171 68z" />
    <glyph glyph-name="uni0451" unicode="&#x451;" horiz-adv-x="499" 
d="M219 551h-99v101h99v-101zM398 551h-99v101h99v-101zM252 417q-43 0 -74.5 -31t-41.5 -90h230q-17 121 -114 121zM455 54q-82 -64 -191 -64q-99 0 -160 62.5t-61 187.5q0 113 59 180t151 67q100 0 151.5 -67t51.5 -172v-19h-324q3 -82 39 -122.5t100 -40.5q85 0 171 68z
" />
    <glyph glyph-name="uni0452" unicode="&#x452;" horiz-adv-x="518" 
d="M467 200q0 -84 -29 -174.5t-94 -211.5l-85 14q120 233 120 363q0 72 -30 105.5t-97 33.5q-43 0 -87 -10v-320h-89v542h-100l-12 72h112v94l89 14v-108h169v-72h-169v-144q56 12 103 12q199 0 199 -210z" />
    <glyph glyph-name="uni0453" unicode="&#x453;" horiz-adv-x="402" 
d="M367 674l-134 -127h-60l86 151zM70 0v477h298l11 -79h-220v-398h-89z" />
    <glyph glyph-name="uni0454" unicode="&#x454;" horiz-adv-x="469" 
d="M428 39q-65 -49 -163 -49q-100 0 -161 65.5t-61 182.5q0 118 63.5 183.5t164.5 65.5q91 0 152 -44l-13 -86q-66 53 -140 53q-57 0 -93 -33.5t-45 -97.5l217 1l12 -75l-230 1q7 -69 45.5 -104t99.5 -35q77 0 139 53z" />
    <glyph glyph-name="uni0455" unicode="&#x455;" horiz-adv-x="442" 
d="M403 133q0 -66 -48.5 -104.5t-139.5 -38.5q-94 0 -174 45l13 84q80 -55 168 -55q46 0 71.5 16.5t25.5 46.5q0 32 -23.5 48.5t-89.5 32.5q-86 22 -121.5 53.5t-35.5 93.5q0 58 45.5 95t122.5 37q85 0 157 -32l-14 -84q-72 41 -145 41q-82 0 -82 -55q0 -24 21.5 -39.5
t77.5 -29.5q93 -24 132 -56.5t39 -98.5z" />
    <glyph glyph-name="uni0456" unicode="&#x456;" horiz-adv-x="243" 
d="M178 629q0 -23 -16.5 -39.5t-39.5 -16.5t-40 16.5t-17 39.5t17 40t40 17t39.5 -17t16.5 -40zM166 0h-89v477h89v-477z" />
    <glyph glyph-name="uni0457" unicode="&#x457;" horiz-adv-x="243" 
d="M81 551h-99v101h99v-101zM260 551h-99v101h99v-101zM166 0h-89v477h89v-477z" />
    <glyph glyph-name="uni0458" unicode="&#x458;" horiz-adv-x="243" 
d="M178 629q0 -23 -16.5 -39.5t-39.5 -16.5t-40 16.5t-17 39.5t17 40t40 17t39.5 -17t16.5 -40zM166 -60q0 -122 -127 -122q-31 0 -41 3l-13 79q15 -4 42 -4q50 0 50 52v529h89v-537z" />
    <glyph glyph-name="uni0459" unicode="&#x459;" horiz-adv-x="759" 
d="M29 -11l-13 81q61 15 87 61.5t40 160.5l22 185h294v-162h83q90 0 137.5 -40.5t47.5 -114.5q0 -75 -52.5 -117.5t-140.5 -42.5h-164v402h-129l-13 -119q-17 -148 -60.5 -212.5t-138.5 -81.5zM641 159q0 82 -103 82h-79v-167h77q51 0 78 22.5t27 62.5z" />
    <glyph glyph-name="uni045A" unicode="&#x45a;" horiz-adv-x="754" 
d="M636 159q0 82 -103 82h-69v-167h67q51 0 78 22.5t27 62.5zM159 0h-89v477h89v-191h216v191h89v-162h73q90 0 137.5 -40.5t47.5 -114.5q0 -75 -52.5 -117.5t-140.5 -42.5h-154v211h-216v-211z" />
    <glyph glyph-name="uni045B" unicode="&#x45b;" horiz-adv-x="524" 
d="M165 320v-320h-89v542h-100l-12 72h112v94l89 14v-108h169v-72h-169v-144q56 12 110 12q186 0 186 -174v-236h-89v234q0 49 -27.5 72.5t-85.5 23.5q-44 0 -94 -10z" />
    <glyph glyph-name="uni045C" unicode="&#x45c;" horiz-adv-x="480" 
d="M410 674l-134 -127h-60l86 151zM369 -7l-210 242v-235h-89v477h89v-215l185 215h109l-203 -226l219 -243z" />
    <glyph glyph-name="uni045D" unicode="&#x45d;" horiz-adv-x="545" 
d="M309 547h-60l-134 127l108 24zM70 0v477h87v-351l228 351h90v-477h-87v351l-229 -351h-89z" />
    <glyph glyph-name="uni045E" unicode="&#x45e;" horiz-adv-x="483" 
d="M384 664q-22 -116 -143 -116q-118 0 -140 116l60 13q16 -58 82 -58q63 0 80 58zM104 -182q-20 0 -38 4l-13 81q26 -7 47 -7q60 0 86 70l12 32l-174 472l90 14l128 -378l125 371h93l-195 -527q-28 -75 -66 -103.5t-95 -28.5z" />
    <glyph glyph-name="uni045F" unicode="&#x45f;" horiz-adv-x="535" 
d="M310 -142l-86 -13l1 155h-155v477h89v-402h217v402h89v-477h-156z" />
    <glyph glyph-name="uni0462" unicode="&#x462;" horiz-adv-x="680" 
d="M640 203q0 -95 -64 -149t-176 -54h-177v520h-197l13 80h184v104h94v-104h217v-80h-217v-125h99q107 0 165.5 -52.5t58.5 -139.5zM545 200q0 51 -33.5 81.5t-100.5 30.5h-94v-229h88q69 0 104.5 31t35.5 86z" />
    <glyph glyph-name="uni0463" unicode="&#x463;" horiz-adv-x="549" 
d="M517 156q0 -74 -53 -115t-143 -41h-161v403h-148l12 74h136v231l88 14v-245h174v-74h-174v-96h81q90 0 139 -39t49 -112zM431 155q0 37 -26.5 57.5t-77.5 20.5h-79v-159h76q52 0 79.5 21t27.5 60z" />
    <glyph glyph-name="uni0472" unicode="&#x472;" horiz-adv-x="746" 
d="M691 346q0 -161 -87 -260t-232 -99t-231 98t-86 259t87 260t232 99t231 -98t86 -259zM373 619q-94 0 -152.5 -62t-68.5 -168h442q-10 106 -69 168t-152 62zM373 71q95 0 153.5 63t67.5 171h-442q9 -108 68 -171t153 -63z" />
    <glyph glyph-name="uni0473" unicode="&#x473;" 
d="M483 238q0 -114 -60.5 -181.5t-159.5 -67.5t-159.5 67.5t-60.5 181.5t60.5 181.5t159.5 67.5t159.5 -67.5t60.5 -181.5zM263 417q-55 0 -89.5 -36.5t-42.5 -104.5h264q-8 68 -42.5 104.5t-89.5 36.5zM263 59q55 0 90 37t42 105h-264q7 -68 42 -105t90 -37z" />
    <glyph glyph-name="uni0474" unicode="&#x474;" horiz-adv-x="703" 
d="M688 696l13 -86q-58 -7 -90 -41t-66 -124l-170 -450h-86l-260 682l96 20l208 -574l126 348q45 125 93 171.5t136 53.5z" />
    <glyph glyph-name="uni0475" unicode="&#x475;" horiz-adv-x="499" 
d="M491 406q-43 -8 -66.5 -34t-42.5 -80l-103 -295h-87l-168 473l91 14l122 -377l67 214q25 78 63 117t110 48z" />
    <glyph glyph-name="uni0490" unicode="&#x490;" horiz-adv-x="487" 
d="M83 690h286v150l89 -14v-225h-281v-601h-94v690z" />
    <glyph glyph-name="uni0491" unicode="&#x491;" horiz-adv-x="412" 
d="M159 399v-399h-89v477h239v147l84 -13v-212h-234z" />
    <glyph glyph-name="uni0492" unicode="&#x492;" horiz-adv-x="497" 
d="M356 313h-162v-313h-94v313h-77l-12 66h89v311h354l14 -89h-274v-222h162v-66z" />
    <glyph glyph-name="uni0493" unicode="&#x493;" horiz-adv-x="420" 
d="M306 200h-129v-200h-89v200h-66l-11 61h77v216h298l11 -79h-220v-137h129v-61z" />
    <glyph glyph-name="uni0496" unicode="&#x496;" horiz-adv-x="933" 
d="M836 -165v165h-40l-289 356l3 -356h-94l3 356l-287 -356h-116l301 363l-271 312l101 22l272 -324l-3 317h94l-3 -317l267 317h116l-281 -323l233 -279h83v-239z" />
    <glyph glyph-name="uni0497" unicode="&#x497;" horiz-adv-x="737" 
d="M646 -155v155h-36l-204 242l2 -242h-89l2 243l-200 -243h-106l212 249l-194 220l96 15l192 -227l-2 220h89l-2 -221l184 221h106l-196 -227l153 -175h77v-217z" />
    <glyph glyph-name="uni0498" unicode="&#x498;" horiz-adv-x="539" 
d="M215 -165l2 155q-87 4 -172 49l16 88q92 -53 182 -53q70 0 109.5 34t39.5 89q0 122 -170 122h-74l-13 84h93q68 0 109 30t41 82q0 46 -33 73.5t-98 27.5q-88 0 -175 -52l-13 86q90 51 196 51q100 0 159.5 -50t59.5 -129q0 -116 -123 -157q136 -38 136 -171
q0 -77 -49.5 -130.5t-133.5 -69.5l2 -145z" />
    <glyph glyph-name="uni0499" unicode="&#x499;" horiz-adv-x="462" 
d="M174 -155l2 146q-68 7 -136 40l12 76q82 -44 165 -44q107 0 107 70q0 73 -119 73h-72l-13 72h90q107 0 107 68q0 30 -25 48t-76 18q-70 0 -153 -43l-13 75q81 42 172 42t137 -36t46 -96q0 -80 -83 -112q92 -30 92 -114q0 -55 -41 -92t-115 -45l2 -133z" />
    <glyph glyph-name="uni049A" unicode="&#x49a;" horiz-adv-x="619" 
d="M532 -165v165h-42l-313 350v-350h-94v690h94v-310l286 310h120l-304 -324l254 -278h88v-239z" />
    <glyph glyph-name="uni049B" unicode="&#x49b;" horiz-adv-x="490" 
d="M400 -155v155h-36l-205 235v-235h-89v477h89v-215l185 215h107l-201 -226l158 -176h76v-217z" />
    <glyph glyph-name="uni049C" unicode="&#x49c;" horiz-adv-x="639" 
d="M523 -7l-210 327v-165h-65v166h-71v-321h-94v690h94v-286h71v166h65v-164l183 284h110l-218 -324l231 -351z" />
    <glyph glyph-name="uni049D" unicode="&#x49d;" horiz-adv-x="541" 
d="M428 -7l-150 222v-123h-60v120h-59v-212h-89v477h89v-190h59v120h60v-121l125 191h96l-150 -222l173 -247z" />
    <glyph glyph-name="uni04A0" unicode="&#x4a0;" horiz-adv-x="749" 
d="M636 -7l-319 357v-350h-94v604h-200l14 86h280v-310l286 310h120l-304 -324l321 -351z" />
    <glyph glyph-name="uni04A1" unicode="&#x4a1;" horiz-adv-x="570" 
d="M459 -7l-210 242v-235h-89v402h-148l12 75h225v-215l185 215h109l-203 -226l219 -243z" />
    <glyph glyph-name="uni04A2" unicode="&#x4a2;" horiz-adv-x="726" 
d="M610 -165v165h-84v318h-349v-318h-94v690h94v-286h349v286h94v-602h79v-239z" />
    <glyph glyph-name="uni04A3" unicode="&#x4a3;" horiz-adv-x="559" 
d="M451 -155v155h-71v208h-221v-208h-89v477h89v-194h221v194h89v-402h66v-217z" />
    <glyph glyph-name="uni04A4" unicode="&#x4a4;" horiz-adv-x="898" 
d="M600 0h-94v318h-329v-318h-94v690h94v-286h329v286h349l14 -89h-269v-601z" />
    <glyph glyph-name="uni04A5" unicode="&#x4a5;" horiz-adv-x="698" 
d="M460 0h-89v211h-212v-211h-89v477h89v-191h212v191h292l12 -78h-215v-399z" />
    <glyph glyph-name="uni04AA" unicode="&#x4aa;" horiz-adv-x="632" 
d="M401 -151l-91 -14l2 157q-119 21 -188 115.5t-69 236.5q0 161 88 260t233 99q112 0 196 -57l-14 -96q-88 67 -183 67q-104 0 -163.5 -73.5t-59.5 -198.5t59.5 -198t163.5 -73q99 0 194 69l14 -89q-79 -58 -184 -66z" />
    <glyph glyph-name="uni04AB" unicode="&#x4ab;" horiz-adv-x="467" 
d="M304 -142l-86 -13l2 149q-80 14 -128.5 78t-48.5 166q0 118 64 183.5t164 65.5q91 0 152 -44l-13 -87q-66 53 -140 53q-63 0 -100 -44.5t-37 -125.5q0 -84 38.5 -127.5t101.5 -43.5q80 0 142 53l13 -82q-53 -40 -126 -47z" />
    <glyph glyph-name="uni04AE" unicode="&#x4ae;" horiz-adv-x="636" 
d="M614 690l-251 -416v-274h-94v274l-244 403l96 20l196 -335l190 328h107z" />
    <glyph glyph-name="uni04AF" unicode="&#x4af;" horiz-adv-x="485" 
d="M462 477l-175 -477v-173l-89 -13v186l-174 470l91 14l129 -378l125 371h93z" />
    <glyph glyph-name="uni04B0" unicode="&#x4b0;" horiz-adv-x="636" 
d="M515 151h-153v-151h-92v151h-148v66h148v55l-245 405l96 20l196 -335l190 328h107l-252 -418v-55h142z" />
    <glyph glyph-name="uni04B1" unicode="&#x4b1;" horiz-adv-x="485" 
d="M287 -173l-89 -13v100h-109v61h109v25l-174 470l91 14l129 -378l125 371h93l-175 -477v-25h106l10 -61h-116v-87z" />
    <glyph glyph-name="uni04B2" unicode="&#x4b2;" horiz-adv-x="646" 
d="M547 -165v165h-41l-189 292l-187 -292h-104l238 360l-212 317l95 20l171 -266l164 259h105l-216 -327l185 -275h80v-239z" />
    <glyph glyph-name="uni04B3" unicode="&#x4b3;" horiz-adv-x="482" 
d="M387 -155v155h-36l-115 183l-113 -183h-94l159 244l-149 226l88 14l109 -175l104 168h93l-149 -230l113 -172h74v-217z" />
    <glyph glyph-name="uni04B6" unicode="&#x4b6;" horiz-adv-x="625" 
d="M509 -165v165h-84v262q-73 -13 -138 -13q-227 0 -227 217v224h94v-220q0 -134 137 -134q63 0 134 13v341h94v-602h79v-239z" />
    <glyph glyph-name="uni04B7" unicode="&#x4b7;" horiz-adv-x="513" 
d="M405 -155v155h-71v165q-52 -12 -104 -12q-180 0 -180 174v150h89v-148q0 -96 101 -96q47 0 94 10v234h89v-402h66v-217z" />
    <glyph glyph-name="uni04B8" unicode="&#x4b8;" horiz-adv-x="602" 
d="M519 0h-94v262q-52 -9 -103 -12v-154h-65v154q-197 13 -197 216v224h94v-220q0 -118 103 -132v169h65v-170q43 1 103 12v341h94v-690z" />
    <glyph glyph-name="uni04B9" unicode="&#x4b9;" horiz-adv-x="513" 
d="M443 0h-89v165q-42 -10 -78 -11v-108h-60v107q-166 7 -166 174v150h89v-148q0 -85 77 -94v118h60v-120q40 2 78 10v234h89v-477z" />
    <glyph glyph-name="uni04BA" unicode="&#x4ba;" horiz-adv-x="602" 
d="M542 0h-94v220q0 134 -137 134q-63 0 -134 -13v-341h-94v690h94v-262q73 13 138 13q227 0 227 -217v-224z" />
    <glyph glyph-name="uni04BB" unicode="&#x4bb;" 
d="M459 0h-89v325q0 82 -73 82q-66 0 -138 -77v-330h-89v708l89 14v-308q81 73 162 73q67 0 102.5 -37.5t35.5 -102.5v-347z" />
    <glyph glyph-name="uni04C0" unicode="&#x4c0;" horiz-adv-x="272" 
d="M183 0h-94v690h94v-690z" />
    <glyph glyph-name="uni04C1" unicode="&#x4c1;" horiz-adv-x="923" 
d="M606 869q-22 -116 -143 -116q-118 0 -140 116l60 13q16 -58 82 -58q63 0 80 58zM802 -7l-295 363l3 -356h-94l3 356l-287 -356h-116l301 363l-271 312l101 22l272 -324l-3 317h94l-3 -317l267 317h116l-281 -323l294 -352z" />
    <glyph glyph-name="uni04C2" unicode="&#x4c2;" horiz-adv-x="727" 
d="M506 664q-22 -116 -143 -116q-118 0 -140 116l60 13q16 -58 82 -58q63 0 80 58zM616 -7l-210 249l2 -242h-89l2 243l-200 -243h-106l212 249l-194 220l96 15l192 -227l-2 220h89l-2 -221l184 221h106l-196 -227l212 -242z" />
    <glyph glyph-name="uni04CF" unicode="&#x4cf;" horiz-adv-x="243" 
d="M166 0h-89v708l89 14v-722z" />
    <glyph glyph-name="uni04D0" unicode="&#x4d0;" horiz-adv-x="688" 
d="M486 879q-22 -116 -143 -116q-118 0 -140 116l60 13q16 -58 82 -58q63 0 80 58zM566 -7l-81 214h-281l-77 -207h-98l270 693h94l266 -680zM344 583l-109 -293h219z" />
    <glyph glyph-name="uni04D1" unicode="&#x4d1;" horiz-adv-x="499" 
d="M392 664q-22 -116 -143 -116q-118 0 -140 116l60 13q16 -58 82 -58q63 0 80 58zM342 131v111q-121 -12 -167 -41.5t-46 -72.5q0 -30 19 -47t52 -17q77 0 142 67zM431 0h-72l-10 64q-72 -74 -168 -74q-64 0 -102 36t-38 97q0 86 72.5 128.5t228.5 58.5v20q0 81 -91 81
q-72 0 -165 -41l-12 77q99 40 185 40q88 0 130 -37t42 -116v-334z" />
    <glyph glyph-name="uni04D2" unicode="&#x4d2;" horiz-adv-x="688" 
d="M304 766h-99v101h99v-101zM483 766h-99v101h99v-101zM566 -7l-81 214h-281l-77 -207h-98l270 693h94l266 -680zM344 583l-109 -293h219z" />
    <glyph glyph-name="uni04D3" unicode="&#x4d3;" horiz-adv-x="499" 
d="M210 551h-99v101h99v-101zM389 551h-99v101h99v-101zM342 131v111q-121 -12 -167 -41.5t-46 -72.5q0 -30 19 -47t52 -17q77 0 142 67zM431 0h-72l-10 64q-72 -74 -168 -74q-64 0 -102 36t-38 97q0 86 72.5 128.5t228.5 58.5v20q0 81 -91 81q-72 0 -165 -41l-12 77
q99 40 185 40q88 0 130 -37t42 -116v-334z" />
    <glyph glyph-name="uni04D4" unicode="&#x4d4;" horiz-adv-x="885" 
d="M462 290v316l-187 -316h187zM462 0v207h-236l-122 -207h-102l411 690h421v-86h-280v-200h218l13 -86h-231v-232h290v-86h-382z" />
    <glyph glyph-name="uni04D5" unicode="&#x4d5;" horiz-adv-x="790" 
d="M746 248v-19h-324q3 -81 39.5 -122t99.5 -41q86 0 172 68l12 -80q-80 -64 -190 -64q-113 0 -173 76q-83 -76 -185 -76q-71 0 -113.5 34.5t-42.5 98.5q0 83 70 126.5t222 59.5v21q0 44 -20 62.5t-62 18.5q-72 0 -165 -41l-12 77q99 40 178 40q62 0 95.5 -15t52.5 -52
q53 67 144 67q100 0 151 -67t51 -172zM656 296q-16 121 -113 121q-43 0 -75 -31t-41 -90h229zM350 127q-17 54 -17 113v1q-116 -12 -160 -41.5t-44 -71.5q0 -30 21.5 -47t58.5 -17q74 0 141 63z" />
    <glyph glyph-name="uni04D6" unicode="&#x4d6;" horiz-adv-x="506" 
d="M414 869q-22 -116 -143 -116q-118 0 -140 116l60 13q16 -58 82 -58q63 0 80 58zM465 0h-382v690h372v-86h-278v-200h216l14 -86h-230v-232h288v-86z" />
    <glyph glyph-name="uni04D7" unicode="&#x4d7;" horiz-adv-x="499" 
d="M401 664q-22 -116 -143 -116q-118 0 -140 116l60 13q16 -58 82 -58q63 0 80 58zM252 417q-43 0 -74.5 -31t-41.5 -90h230q-17 121 -114 121zM455 54q-82 -64 -191 -64q-99 0 -160 62.5t-61 187.5q0 113 59 180t151 67q100 0 151.5 -67t51.5 -172v-19h-324
q3 -82 39 -122.5t100 -40.5q85 0 171 68z" />
    <glyph glyph-name="uni04D8" unicode="&#x4d8;" horiz-adv-x="697" 
d="M346 -13q-126 0 -203.5 89.5t-77.5 255.5v69h479q-13 101 -70 158.5t-147 57.5q-116 0 -238 -80l-14 93q126 73 253 73q143 0 228.5 -95t85.5 -262q0 -163 -84 -261t-212 -98zM348 71q79 0 135.5 64t62.5 182h-383q3 -246 185 -246z" />
    <glyph glyph-name="uni04D9" unicode="&#x4d9;" horiz-adv-x="499" 
d="M246 -10q-99 0 -151 67.5t-52 186.5v25h323q-7 70 -43 106t-95 36q-85 0 -171 -68l-13 80q82 64 191 64q99 0 160 -62.5t61 -187.5q0 -113 -59 -180t-151 -67zM247 66q43 0 76.5 33t41.5 106h-232q3 -75 31.5 -107t82.5 -32z" />
    <glyph glyph-name="uni04DC" unicode="&#x4dc;" horiz-adv-x="923" 
d="M424 756h-99v101h99v-101zM603 756h-99v101h99v-101zM802 -7l-295 363l3 -356h-94l3 356l-287 -356h-116l301 363l-271 312l101 22l272 -324l-3 317h94l-3 -317l267 317h116l-281 -323l294 -352z" />
    <glyph glyph-name="uni04DD" unicode="&#x4dd;" horiz-adv-x="727" 
d="M324 551h-99v101h99v-101zM503 551h-99v101h99v-101zM616 -7l-210 249l2 -242h-89l2 243l-200 -243h-106l212 249l-194 220l96 15l192 -227l-2 220h89l-2 -221l184 221h106l-196 -227l212 -242z" />
    <glyph glyph-name="uni04DE" unicode="&#x4de;" horiz-adv-x="539" 
d="M233 766h-99v101h99v-101zM412 766h-99v101h99v-101zM242 -11q-101 0 -197 50l16 88q92 -53 182 -53q70 0 109.5 34t39.5 89q0 122 -170 122h-74l-13 84h93q68 0 109 30t41 82q0 46 -33 73.5t-98 27.5q-88 0 -175 -52l-13 86q90 51 196 51q100 0 159.5 -50t59.5 -129
q0 -116 -123 -157q136 -38 136 -171q0 -91 -68 -148t-177 -57z" />
    <glyph glyph-name="uni04DF" unicode="&#x4df;" horiz-adv-x="462" 
d="M190 551h-99v101h99v-101zM369 551h-99v101h99v-101zM219 -11q-95 0 -179 42l12 76q82 -44 165 -44q107 0 107 70q0 73 -119 73h-72l-13 72h90q107 0 107 68q0 30 -25 48t-76 18q-70 0 -153 -43l-13 75q81 42 172 42t137 -36t46 -96q0 -80 -83 -112q92 -30 92 -114
q0 -62 -51.5 -100.5t-143.5 -38.5z" />
    <glyph glyph-name="uni04E2" unicode="&#x4e2;" horiz-adv-x="703" 
d="M484 765h-266v72h266v-72zM179 0h-96v690h93v-542l348 542h96v-690h-93v542z" />
    <glyph glyph-name="uni04E3" unicode="&#x4e3;" horiz-adv-x="545" 
d="M405 570h-266v72h266v-72zM70 0v477h87v-351l228 351h90v-477h-87v351l-229 -351h-89z" />
    <glyph glyph-name="uni04E4" unicode="&#x4e4;" horiz-adv-x="703" 
d="M311 746h-99v101h99v-101zM490 746h-99v101h99v-101zM179 0h-96v690h93v-542l348 542h96v-690h-93v542z" />
    <glyph glyph-name="uni04E5" unicode="&#x4e5;" horiz-adv-x="545" 
d="M232 551h-99v101h99v-101zM411 551h-99v101h99v-101zM70 0v477h87v-351l228 351h90v-477h-87v351l-229 -351h-89z" />
    <glyph glyph-name="uni04E6" unicode="&#x4e6;" horiz-adv-x="746" 
d="M333 766h-99v101h99v-101zM512 766h-99v101h99v-101zM691 346q0 -161 -87 -260t-232 -99t-231 98t-86 259t87 260t232 99t231 -98t86 -259zM594 345q0 125 -59.5 198.5t-161.5 73.5t-161.5 -73.5t-59.5 -198.5t59.5 -198.5t161.5 -73.5t161.5 73.5t59.5 198.5z" />
    <glyph glyph-name="uni04E7" unicode="&#x4e7;" 
d="M223 551h-99v101h99v-101zM402 551h-99v101h99v-101zM484 238q0 -115 -62 -181.5t-160 -66.5q-97 0 -158 66.5t-61 181.5q0 116 61 182.5t158 66.5q98 0 160 -67t62 -182zM394 238q0 76 -35 125.5t-97 49.5t-95.5 -48.5t-33.5 -126.5q0 -76 34 -125t95 -49q64 0 98 48
t34 126z" />
    <glyph glyph-name="uni04E8" unicode="&#x4e8;" horiz-adv-x="746" 
d="M691 346q0 -161 -87 -260t-232 -99t-231 98t-86 259t87 260t232 99t231 -98t86 -259zM373 619q-94 0 -152.5 -62t-68.5 -168h442q-10 106 -69 168t-152 62zM373 71q95 0 153.5 63t67.5 171h-442q9 -108 68 -171t153 -63z" />
    <glyph glyph-name="uni04E9" unicode="&#x4e9;" 
d="M483 238q0 -114 -60.5 -181.5t-159.5 -67.5t-159.5 67.5t-60.5 181.5t60.5 181.5t159.5 67.5t159.5 -67.5t60.5 -181.5zM263 417q-55 0 -89.5 -36.5t-42.5 -104.5h264q-8 68 -42.5 104.5t-89.5 36.5zM263 59q55 0 90 37t42 105h-264q7 -68 42 -105t90 -37z" />
    <glyph glyph-name="uni04EE" unicode="&#x4ee;" horiz-adv-x="627" 
d="M467 765h-266v72h266v-72zM158 -12q-37 0 -66 11l-12 86q44 -12 72 -12q29 0 50.5 16.5t42.5 57.5l39 75l-248 460l97 15l201 -383l183 376h101l-288 -566q-39 -75 -78 -105.5t-94 -30.5z" />
    <glyph glyph-name="uni04EF" unicode="&#x4ef;" horiz-adv-x="483" 
d="M375 570h-266v72h266v-72zM104 -182q-20 0 -38 4l-13 81q26 -7 47 -7q60 0 86 70l12 32l-174 472l90 14l128 -378l125 371h93l-195 -527q-28 -75 -66 -103.5t-95 -28.5z" />
    <glyph glyph-name="uni04F0" unicode="&#x4f0;" horiz-adv-x="627" 
d="M294 746h-99v101h99v-101zM473 746h-99v101h99v-101zM158 -12q-37 0 -66 11l-12 86q44 -12 72 -12q29 0 50.5 16.5t42.5 57.5l39 75l-248 460l97 15l201 -383l183 376h101l-288 -566q-39 -75 -78 -105.5t-94 -30.5z" />
    <glyph glyph-name="uni04F1" unicode="&#x4f1;" horiz-adv-x="483" 
d="M202 551h-99v101h99v-101zM381 551h-99v101h99v-101zM104 -182q-20 0 -38 4l-13 81q26 -7 47 -7q60 0 86 70l12 32l-174 472l90 14l128 -378l125 371h93l-195 -527q-28 -75 -66 -103.5t-95 -28.5z" />
    <glyph glyph-name="uni04F2" unicode="&#x4f2;" horiz-adv-x="627" 
d="M398 871l-129 -125h-53l84 147zM555 871l-129 -125h-53l84 147zM158 -12q-37 0 -66 11l-12 86q44 -12 72 -12q29 0 50.5 16.5t42.5 57.5l39 75l-248 460l97 15l201 -383l183 376h101l-288 -566q-39 -75 -78 -105.5t-94 -30.5z" />
    <glyph glyph-name="uni04F3" unicode="&#x4f3;" horiz-adv-x="483" 
d="M306 676l-129 -125h-53l84 147zM463 676l-129 -125h-53l84 147zM104 -182q-20 0 -38 4l-13 81q26 -7 47 -7q60 0 86 70l12 32l-174 472l90 14l128 -378l125 371h93l-195 -527q-28 -75 -66 -103.5t-95 -28.5z" />
    <glyph glyph-name="uni04F4" unicode="&#x4f4;" horiz-adv-x="602" 
d="M250 746h-99v101h99v-101zM429 746h-99v101h99v-101zM60 690h94v-220q0 -134 137 -134q63 0 134 13v341h94v-690h-94v262q-73 -13 -138 -13q-227 0 -227 217v224z" />
    <glyph glyph-name="uni04F5" unicode="&#x4f5;" horiz-adv-x="493" 
d="M200 551h-99v101h99v-101zM379 551h-99v101h99v-101zM50 477h89v-148q0 -96 101 -96q47 0 94 10v234h89v-477h-89v165q-52 -12 -104 -12q-180 0 -180 174v150z" />
    <glyph glyph-name="uni04F8" unicode="&#x4f8;" horiz-adv-x="773" 
d="M343 746h-99v101h99v-101zM522 746h-99v101h99v-101zM684 0h-94v690h94v-690zM500 216q0 -104 -69 -160t-186 -56h-162v690h94v-270h84q112 0 175.5 -53.5t63.5 -150.5zM405 213q0 61 -38.5 92.5t-110.5 31.5h-79v-254h73q74 0 114.5 32.5t40.5 97.5z" />
    <glyph glyph-name="uni04F9" unicode="&#x4f9;" horiz-adv-x="663" 
d="M291 551h-99v101h99v-101zM470 551h-99v101h99v-101zM422 160q0 -75 -52.5 -117.5t-140.5 -42.5h-159v477h89v-162h78q90 0 137.5 -40.5t47.5 -114.5zM593 0h-89v477h89v-477zM336 159q0 82 -103 82h-74v-167h72q51 0 78 22.5t27 62.5z" />
    <glyph glyph-name="Wgrave" unicode="&#x1e80;" horiz-adv-x="1017" 
d="M547 752h-60l-134 127l108 24zM982 690l-208 -693h-79l-187 562l-187 -562h-78l-204 680l94 20l154 -549l176 542h94l176 -542l151 542h98z" />
    <glyph glyph-name="wgrave" unicode="&#x1e81;" horiz-adv-x="722" 
d="M399 547h-60l-134 127l108 24zM694 477l-153 -479h-75l-106 360l-105 -360h-74l-153 472l87 14l104 -360l105 353h75l105 -353l101 353h89z" />
    <glyph glyph-name="Wacute" unicode="&#x1e82;" horiz-adv-x="1017" 
d="M667 879l-134 -127h-60l86 151zM982 690l-208 -693h-79l-187 562l-187 -562h-78l-204 680l94 20l154 -549l176 542h94l176 -542l151 542h98z" />
    <glyph glyph-name="wacute" unicode="&#x1e83;" horiz-adv-x="722" 
d="M519 674l-134 -127h-60l86 151zM694 477l-153 -479h-75l-106 360l-105 -360h-74l-153 472l87 14l104 -360l105 353h75l105 -353l101 353h89z" />
    <glyph glyph-name="Wdieresis" unicode="&#x1e84;" horiz-adv-x="1017" 
d="M470 756h-99v101h99v-101zM649 756h-99v101h99v-101zM982 690l-208 -693h-79l-187 562l-187 -562h-78l-204 680l94 20l154 -549l176 542h94l176 -542l151 542h98z" />
    <glyph glyph-name="wdieresis" unicode="&#x1e85;" horiz-adv-x="722" 
d="M322 551h-99v101h99v-101zM501 551h-99v101h99v-101zM694 477l-153 -479h-75l-106 360l-105 -360h-74l-153 472l87 14l104 -360l105 353h75l105 -353l101 353h89z" />
    <glyph glyph-name="Ygrave" unicode="&#x1ef2;" horiz-adv-x="636" 
d="M355 742h-60l-134 127l108 24zM614 690l-251 -416v-274h-94v274l-244 403l96 20l196 -335l190 328h107z" />
    <glyph glyph-name="ygrave" unicode="&#x1ef3;" horiz-adv-x="483" 
d="M279 547h-60l-134 127l108 24zM104 -182q-20 0 -38 4l-13 81q26 -7 47 -7q60 0 86 70l12 32l-174 472l90 14l128 -378l125 371h93l-195 -527q-28 -75 -66 -103.5t-95 -28.5z" />
    <glyph glyph-name="enspace" unicode="&#x2002;" horiz-adv-x="500" 
 />
    <glyph glyph-name="emspace" unicode="&#x2003;" horiz-adv-x="1000" 
 />
    <glyph glyph-name="threeperemspace" unicode="&#x2004;" horiz-adv-x="333" 
 />
    <glyph glyph-name="fourperemspace" unicode="&#x2005;" horiz-adv-x="250" 
 />
    <glyph glyph-name="thinspace" unicode="&#x2009;" horiz-adv-x="133" 
 />
    <glyph glyph-name="hairspace" unicode="&#x200a;" horiz-adv-x="75" 
 />
    <glyph glyph-name="endash" unicode="&#x2013;" horiz-adv-x="454" 
d="M400 242h-346v84h346v-84z" />
    <glyph glyph-name="emdash" unicode="&#x2014;" horiz-adv-x="908" 
d="M854 243h-800v82h800v-82z" />
    <glyph glyph-name="quoteleft" unicode="&#x2018;" horiz-adv-x="227" 
d="M175 686l-29 -221h-103l82 233z" />
    <glyph glyph-name="quoteright" unicode="&#x2019;" horiz-adv-x="227" 
d="M184 690l-82 -233l-50 12l29 221h103z" />
    <glyph glyph-name="quotesinglbase" unicode="&#x201a;" horiz-adv-x="227" 
d="M177 119l-82 -233l-50 12l29 221h103z" />
    <glyph glyph-name="quotedblleft" unicode="&#x201c;" horiz-adv-x="409" 
d="M357 686l-29 -221h-103l82 233zM175 686l-29 -221h-103l82 233z" />
    <glyph glyph-name="quotedblright" unicode="&#x201d;" horiz-adv-x="409" 
d="M52 469l29 221h103l-82 -233zM234 469l29 221h103l-82 -233z" />
    <glyph glyph-name="quotedblbase" unicode="&#x201e;" horiz-adv-x="409" 
d="M45 -102l29 221h103l-82 -233zM227 -102l29 221h103l-82 -233z" />
    <glyph glyph-name="dagger" unicode="&#x2020;" horiz-adv-x="499" 
d="M289 611l-22 -135h-35l-21 135v79h78v-79zM210 420l-136 -21h-29v76h29l136 -22v-33zM454 399h-29l-135 21v33l135 22h29v-76zM286 17l-21 -131h-31l-21 131v262l19 119h35l19 -119v-262z" />
    <glyph glyph-name="daggerdbl" unicode="&#x2021;" horiz-adv-x="518" 
d="M298 611l-22 -135h-34l-22 135v79h78v-79zM463 399h-29l-135 21v33l135 22h29v-76zM219 420l-135 -21h-30v76h30l135 -22v-33zM295 230l-19 -119h-34l-20 119v49l20 119h34l19 -119v-49zM299 88l135 22h29v-76h-29l-135 21v33zM54 110h30l135 -22v-33l-135 -21h-30v76z
M220 -103l22 136h34l22 -136v-79h-78v79z" />
    <glyph glyph-name="bullet" unicode="&#x2022;" horiz-adv-x="421" 
d="M343 345l-19 -123l-113 -18l-113 18l-20 123l20 124l113 17l113 -17z" />
    <glyph glyph-name="ellipsis" unicode="&#x2026;" horiz-adv-x="726" 
d="M654 0h-100v119h100v-119zM413 0h-100v119h100v-119zM173 0h-100v119h100v-119z" />
    <glyph glyph-name="guilsinglleft" unicode="&#x2039;" horiz-adv-x="323" 
d="M278 477l-146 -238l140 -228l-73 -16l-164 244l161 238h82z" />
    <glyph glyph-name="guilsinglright" unicode="&#x203a;" horiz-adv-x="323" 
d="M288 238l-161 -238h-82l146 238l-140 228l73 16z" />
    <glyph glyph-name="fraction" unicode="&#x2044;" horiz-adv-x="270" 
d="M-32 -8l-63 18l203 338l194 336l63 -18l-204 -338z" />
    <glyph glyph-name="Euro" unicode="&#x20ac;" horiz-adv-x="591" 
d="M564 47q-82 -60 -182 -60q-103 0 -170 63.5t-90 172.5h-89l-11 70h91q-2 28 -2 44q0 17 2 51h-87v70h98q26 106 92.5 168.5t166.5 62.5q99 0 170 -52l-15 -86q-75 59 -155 59q-64 0 -107.5 -40t-63.5 -112h229l11 -70h-252q-2 -32 -2 -50q0 -17 2 -45h247v-70h-235
q19 -74 63.5 -115t109.5 -41q85 0 165 63z" />
    <glyph glyph-name="hryvnia" unicode="&#x20b4;" horiz-adv-x="567" 
d="M463 54q-107 -65 -202 -65q-88 0 -133.5 36t-45.5 101q0 57 54 122l-116 14l11 62l161 -20l84 82l-235 29v64l290 -36q40 40 54 61.5t14 45.5q0 27 -22 44t-67 17q-75 0 -187 -61l-13 77q111 60 205 60q79 0 125 -34.5t46 -98.5q0 -34 -13 -61t-45 -62l119 -15l-11 -62
l-165 20l-85 -81l241 -30v-64l-296 37q-37 -38 -49.5 -60.5t-12.5 -45.5q0 -65 97 -65q80 0 184 66z" />
    <glyph glyph-name="numero" unicode="&#x2116;" horiz-adv-x="1067" 
d="M554 0h-84l-305 552v-552h-82v690h97l292 -532v532h82v-690zM639 343q0 90 50.5 148t128.5 58t128.5 -58t50.5 -148t-50.5 -148t-128.5 -58q-80 0 -129.5 57.5t-49.5 148.5zM715 343q0 -60 29 -99t74 -39t74 39t29 99t-29 99t-74 39q-47 0 -75 -39t-28 -99zM986 0h-336
v66h336v-66z" />
    <glyph glyph-name="published" unicode="&#x2117;" horiz-adv-x="799" 
d="M745 346q0 -160 -96.5 -259.5t-249.5 -99.5q-154 0 -249.5 98.5t-95.5 258.5t96.5 259.5t249.5 99.5q154 0 249.5 -98.5t95.5 -258.5zM701 345q0 151 -85 236.5t-216 85.5q-133 0 -217.5 -85.5t-84.5 -236.5t85 -236.5t217 -85.5t216.5 85.5t84.5 236.5zM545 422
q0 -61 -39.5 -93.5t-108.5 -32.5h-39v-146h-67v394h113q65 0 103 -32.5t38 -89.5zM478 420q0 31 -20 47.5t-57 16.5h-43v-129h41q79 0 79 65z" />
    <glyph glyph-name="servicemark" unicode="&#x2120;" horiz-adv-x="800" 
d="M740 345h-60l-18 245l-99 -246h-47l-99 246l-19 -245h-58l27 345h71l103 -258l102 258h69zM163 340q-57 0 -99 25l7 58q52 -32 93 -32q24 0 39.5 11.5t15.5 31.5q0 21 -12.5 34t-44.5 27q-54 24 -74.5 45.5t-20.5 61.5q0 41 30.5 67t79.5 26t84 -21l-10 -57
q-40 27 -76 27q-24 0 -38 -10.5t-14 -26.5q0 -20 12 -31.5t45 -26.5q54 -24 74.5 -46.5t20.5 -64.5q0 -45 -30.5 -71.5t-81.5 -26.5z" />
    <glyph glyph-name="trademark" unicode="&#x2122;" horiz-adv-x="800" 
d="M315 636h-113v-291h-60v291h-108v54h272zM747 345h-60l-18 245l-99 -246h-47l-99 246l-19 -245h-58l27 345h71l103 -258l102 258h69z" />
    <glyph glyph-name="Omega" unicode="&#x2126;" horiz-adv-x="731" 
d="M320 80l-11 -80h-233v84h133l-20 18q-131 120 -131 290q0 134 83 222.5t225 88.5q141 0 224 -88.5t83 -222.5q0 -169 -133 -290l-20 -18h135v-84h-233l-11 80l55 54q111 109 110 254q-1 101 -55.5 165t-154.5 64q-101 0 -156 -63.5t-55 -165.5q0 -146 110 -254z" />
    <glyph glyph-name="Delta" unicode="&#x2206;" horiz-adv-x="692" 
d="M38 72l262 621h96l258 -609l-13 -84h-592zM346 580l-206 -496h412z" />
    <glyph glyph-name="minus" unicode="&#x2212;" horiz-adv-x="572" 
d="M518 299h-464v78h464v-78z" />
    <glyph glyph-name="hcoslug" unicode="&#xe10b;" horiz-adv-x="694" 
d="M644 700v-800h-594v800h594zM247 428q0 13 7.5 21t19.5 8q13 0 21 -10.5t8 -27.5q0 -22 -18 -50q-15 14 -21 20.5t-11.5 17t-5.5 21.5zM312 342q30 20 42 34q29 -29 -1 -80q-33 38 -41 46zM261 219q-22 0 -37 15.5t-15 38.5q0 24 16 40q34 -32 74 -82q-15 -12 -38 -12z
M382 264q20 26 46 42q15 -25 43 -25q21 0 35.5 15.5t14.5 38.5t-14.5 37.5t-35.5 14.5q-35 0 -60 -38q-3 39 -49 37q9 15 9 34q0 29 -25.5 51.5t-69.5 22.5q-48 0 -78.5 -25.5t-30.5 -59.5q0 -37 31 -69q-82 -28 -82 -91q0 -39 32 -66t77 -27q63 0 104 45q44 -45 85 -45
q33 0 56 25.5t24 68.5l-7 2q-17 -29 -43 -29q-27 0 -62 41zM286 124l-12 -2v-9h-7v-7h7v-20q0 -13 12 -13q11 0 14 13l-5 2q-1 -7 -5 -7t-4 5v20h13v7h-13v11zM174 94q0 -21 21 -21q9 0 15 6t6 15q0 20 -21 20t-21 -20zM203 94q0 -16 -8 -16t-8 16q0 15 8 15t8 -15zM219 81
v-7h22v7h-4v15q0 10 7 10q6 0 6 -7v-18h-4v-7h22v7h-6v19q0 14 -12 14q-9 0 -14 -11v10h-17v-7h6v-25h-6zM379 93q0 -13 -7 -13q-8 0 -8 13t8 13q7 0 7 -13zM125 81v-7h30v7h-10v16h4q5 0 6 -8h7v23h-7q-1 -8 -6 -8h-4v18h12q9 0 11 -13h8v20h-51v-7h7v-41h-7zM302 88v-14h7
l1 4q8 -5 13 -5q14 0 14 13q0 9 -12 12t-12 6q0 4 5 4t10 -7h7v13h-6l-2 -5q-3 5 -11 5q-14 0 -14 -12q0 -9 12 -12.5t12 -6.5q0 -4 -5 -4q-6 0 -12 9h-7zM352 125v-52h6l4 8q5 -8 14 -8q16 0 16 21q0 20 -15 20q-10 0 -13 -9v27h-18v-7h6zM405 65q3 2 1.5 6t-6.5 4
q-7 0 -7 -7q0 -9 11 -9q12 0 18 16l13 31h5v7h-17v-7h5l-8 -20l-9 20h6v7h-25v-7h5q12 -23 16 -33q-2 -8 -8 -8zM294 39v3q0 12 6 12l3 -1q-1 -1 -1 -3q0 -6 6 -6v-5h-14zM464 33h-18v-7h6q-2 -4 -6 -9q-2 2 -5.5 6t-6.5 7q11 5 11 12q0 12 -14 12q-17 0 -17 -14q0 -6 6 -12
q-13 -4 -13 -15q0 -14 18 -14q9 0 15 6q5 -6 12 -6q10 0 13 12l-5 1q-1 -5 -4 -5t-6 5q6 8 9 14h5v7zM469 27q0 -28 29 -28q22 0 24 23h-8q-2 -16 -14 -16q-16 0 -16 22t14 22q10 0 15 -16h8v22h-8l-1 -6q-7 7 -16 7q-11 0 -19 -8.5t-8 -21.5zM431 33q-6 6 -6 10q0 5 5 5
q6 0 6 -6t-5 -9zM340 18h26q2 22 -19 22q-8 0 -14 -6t-6 -15q0 -20 21 -20q14 0 18 14h-7q-1 -7 -9 -7q-10 0 -10 12zM525 20q0 -21 21 -21q9 0 15 6t6 15q0 20 -21 20t-21 -20zM189 20q0 -21 21 -21q9 0 15 6t6 15q0 20 -21 20t-21 -20zM247 18h26q2 22 -19 22q-8 0 -14 -6
t-6 -15q0 -20 21 -20q15 0 18 14h-7q-1 -7 -9 -7q-10 0 -10 12zM340 23q0 12 7 12t7 -12h-14zM554 20q0 -16 -8 -16t-8 16q0 15 8 15t8 -15zM218 20q0 -16 -8 -16t-8 16q0 15 8 15t8 -15zM247 23q0 12 7 12t7 -12h-14zM368 7v-7h26v7h-8v16q4 9 7 9v-1q0 -6 6 -6q7 0 7 7
q0 8 -8 8t-12 -11v10h-18v-7h6v-25h-6zM276 7v-7h23v7h-5v25h14v-25h-5v-7h23v7h-6v52l-10 -2q-4 2 -9 2q-19 0 -19 -19v-1h-7v-7h7v-25h-6zM124 7v-7h29v7h-8v18h22v-18h-8v-7h29v7h-8v41h8v7h-29v-7h8v-16h-22v16h8v7h-29v-7h8v-41h-8zM437 9q-5 -3 -8 -3q-10 0 -10 10
q0 5 4 9q4 -4 14 -16zM583 6q0 7 -7 7t-7 -7t7 -7t7 7z" />
    <glyph glyph-name="f_f" unicode="&#xfb00;" horiz-adv-x="622" 
d="M607 633q-20 4 -46 4q-66 0 -66 -61v-99h96l11 -75h-107v-402h-87v402h-72v75h72v108q0 68 40 99.5t108 31.5q14 0 38 -2zM296 633q-20 4 -46 4q-66 0 -66 -61v-99h96l11 -75h-107v-402h-87v402h-72v75h72v108q0 68 40 99.5t108 31.5q14 0 38 -2z" />
    <glyph glyph-name="fi" unicode="&#xfb01;" horiz-adv-x="554" 
d="M489 629q0 -23 -16.5 -39.5t-39.5 -16.5t-40 16.5t-17 39.5t17 40t40 17t39.5 -17t16.5 -40zM296 633q-20 4 -46 4q-66 0 -66 -61v-99h96l11 -75h-107v-402h-87v402h-72v75h72v108q0 68 40 99.5t108 31.5q14 0 38 -2zM477 0h-89v477h89v-477z" />
    <glyph glyph-name="fl" unicode="&#xfb02;" horiz-adv-x="554" 
d="M477 0h-89v708l89 14v-722zM296 633q-20 4 -46 4q-66 0 -66 -61v-99h96l11 -75h-107v-402h-87v402h-72v75h72v108q0 68 40 99.5t108 31.5q14 0 38 -2z" />
    <glyph glyph-name="f_f_i" unicode="&#xfb03;" horiz-adv-x="865" 
d="M800 629q0 -23 -16.5 -39.5t-39.5 -16.5t-40 16.5t-17 39.5t17 40t40 17t39.5 -17t16.5 -40zM607 633q-20 4 -46 4q-66 0 -66 -61v-99h96l11 -75h-107v-402h-87v402h-72v75h72v108q0 68 40 99.5t108 31.5q14 0 38 -2zM296 633q-20 4 -46 4q-66 0 -66 -61v-99h96l11 -75
h-107v-402h-87v402h-72v75h72v108q0 68 40 99.5t108 31.5q14 0 38 -2zM788 0h-89v477h89v-477z" />
    <glyph glyph-name="f_f_l" unicode="&#xfb04;" horiz-adv-x="865" 
d="M788 0h-89v708l89 14v-722zM607 633q-20 4 -46 4q-66 0 -66 -61v-99h96l11 -75h-107v-402h-87v402h-72v75h72v108q0 68 40 99.5t108 31.5q14 0 38 -2zM296 633q-20 4 -46 4q-66 0 -66 -61v-99h96l11 -75h-107v-402h-87v402h-72v75h72v108q0 68 40 99.5t108 31.5
q14 0 38 -2z" />
    <glyph glyph-name="M.alt" horiz-adv-x="881" 
d="M798 0h-87v545l-235 -548h-75l-235 548v-545h-83v690h116l242 -566l243 566h114v-690z" />
    <glyph glyph-name="Q.alt" horiz-adv-x="751" 
d="M685 -14l-103 81q-86 -80 -211 -80q-145 0 -231 98t-86 259t87 260t232 99t231 -98t86 -259q0 -124 -56 -216l70 -52zM372 73q84 0 140 47l-161 120l114 24l97 -78q32 64 32 159q0 125 -60 198.5t-162 73.5t-161.5 -73.5t-59.5 -198.5t59.5 -198.5t161.5 -73.5z" />
    <glyph glyph-name="U.alt" horiz-adv-x="693" 
d="M534 0l-12 77q-110 -85 -219 -85q-108 0 -167 56t-59 171v471h94v-458q0 -155 138 -155q103 0 207 91v522h94v-690h-76z" />
    <glyph glyph-name="W.alt" horiz-adv-x="1019" 
d="M657 -3l-149 392l-145 -392h-83l-249 680l96 21l196 -573l140 382l-65 170l96 21l206 -573l187 565h101l-247 -693h-84z" />
    <glyph glyph-name="g.alt" horiz-adv-x="533" 
d="M374 156v234q-46 17 -96 17q-145 0 -145 -174q0 -73 31 -114t80 -41q68 0 130 78zM463 9q0 -90 -53 -140.5t-161 -50.5q-94 0 -178 37l13 84q79 -45 171 -45q119 0 119 109v61q-65 -65 -143 -65q-82 0 -135 59.5t-53 171.5q0 123 63.5 188t170.5 65q87 0 186 -30v-444z
" />
    <glyph glyph-name="uni039C.alt" horiz-adv-x="881" 
d="M798 0h-87v545l-235 -548h-75l-235 548v-545h-83v690h116l242 -566l243 566h114v-690z" />
    <glyph glyph-name="uni0414.alt" horiz-adv-x="750" 
d="M373 576l-196 -492h392zM645 -165v165h-540v-159h-89v247h66l243 605h100l243 -605h66v-239z" />
    <glyph glyph-name="uni041B.alt" horiz-adv-x="683" 
d="M29 0l269 695h90l266 -682l-96 -20l-216 577l-212 -570h-101z" />
    <glyph glyph-name="uni041B.bgr" horiz-adv-x="683" 
d="M29 0l269 695h90l266 -682l-96 -20l-216 577l-212 -570h-101z" />
    <glyph glyph-name="uni041C.alt" horiz-adv-x="881" 
d="M798 0h-87v545l-235 -548h-75l-235 548v-545h-83v690h116l242 -566l243 566h114v-690z" />
    <glyph glyph-name="uni0424.bgr" horiz-adv-x="848" 
d="M471 -99h-94v97q-148 10 -236 104.5t-88 241.5t88 242t236 106v97h94v-97q149 -10 236.5 -104.5t87.5 -241.5t-88 -242t-236 -106v-97zM150 345q0 -115 60.5 -184t167.5 -79v526q-107 -10 -167.5 -79t-60.5 -184zM698 345q0 115 -60.5 184t-167.5 79v-526
q107 10 167.5 79t60.5 184z" />
    <glyph glyph-name="uni0432.bgr" horiz-adv-x="548" 
d="M58 224v266q0 102 59 164t156 62q91 0 146.5 -51.5t55.5 -133.5q0 -124 -128 -174q156 -47 156 -183q0 -80 -59 -132t-159 -52q-108 0 -167.5 63.5t-59.5 170.5zM147 493v-105h73q75 0 120.5 39t45.5 101q0 51 -30.5 82.5t-82.5 31.5q-57 0 -91.5 -41t-34.5 -108zM289 64
q58 0 91 32t33 81q0 65 -50 101.5t-146 36.5h-70v-89q0 -74 38 -118t104 -44z" />
    <glyph glyph-name="uni0433.bgr" horiz-adv-x="442" 
d="M39 125q0 64 38.5 95.5t134.5 60.5q54 17 74.5 34.5t20.5 42.5q0 54 -80 54q-73 0 -145 -41l-14 77q80 39 162 39q80 0 121.5 -34t41.5 -91q0 -60 -35.5 -92.5t-123.5 -59.5q-64 -20 -86.5 -36.5t-22.5 -44.5q0 -30 25.5 -47.5t71.5 -17.5q86 0 166 55l13 -77
q-87 -52 -185 -52q-87 0 -132 35.5t-45 99.5z" />
    <glyph glyph-name="uni0434.alt" horiz-adv-x="575" 
d="M478 -155v155h-381v-149h-84v224h59l164 404h103l164 -404h59v-217zM286 384l-122 -309h243z" />
    <glyph glyph-name="uni0434.bgr" horiz-adv-x="533" 
d="M374 156v234q-46 17 -96 17q-145 0 -145 -174q0 -73 31 -114t80 -41q68 0 130 78zM463 9q0 -90 -53 -140.5t-161 -50.5q-94 0 -178 37l13 84q79 -45 171 -45q119 0 119 109v61q-65 -65 -143 -65q-82 0 -135 59.5t-53 171.5q0 123 63.5 188t170.5 65q87 0 186 -30v-444z
" />
    <glyph glyph-name="uni0436.bgr" horiz-adv-x="727" 
d="M616 -7l-210 249l2 -242h-89l2 243l-200 -243h-106l212 249l-194 220l96 15l192 -227l-2 451l89 14l-2 -466l184 221h106l-196 -227l212 -242z" />
    <glyph glyph-name="uni0438.bgr" 
d="M68 477h89v-325q0 -82 73 -82q66 0 138 77v330h89v-477h-71l-11 69q-85 -79 -169 -79q-67 0 -102.5 37t-35.5 103v347z" />
    <glyph glyph-name="uni0439.bgr" 
d="M404 664q-22 -116 -143 -116q-118 0 -140 116l60 13q16 -58 82 -58q63 0 80 58zM68 477h89v-325q0 -82 73 -82q66 0 138 77v330h89v-477h-71l-11 69q-85 -79 -169 -79q-67 0 -102.5 37t-35.5 103v347z" />
    <glyph glyph-name="uni043A.bgr" horiz-adv-x="481" 
d="M371 -7l-212 257v-250h-89v708l89 14v-445l185 200h107l-201 -211l218 -258z" />
    <glyph glyph-name="uni043B.alt" horiz-adv-x="515" 
d="M23 0l190 481h89l189 -474l-92 -14l-143 377l-138 -370h-95z" />
    <glyph glyph-name="uni043B.bgr" horiz-adv-x="515" 
d="M23 0l190 481h89l189 -474l-92 -14l-143 377l-138 -370h-95z" />
    <glyph glyph-name="uni043F.bgr" 
d="M459 0h-89v325q0 82 -73 82q-66 0 -138 -77v-330h-89v477h71l11 -69q87 79 169 79q67 0 102.5 -37.5t35.5 -102.5v-347z" />
    <glyph glyph-name="uni0442.bgr" horiz-adv-x="815" 
d="M747 0h-89v325q0 82 -70 82q-63 0 -135 -77v-330h-89v325q0 82 -70 82q-63 0 -135 -77v-330h-89v477h71l11 -69q87 79 166 79q97 0 126 -79q83 79 168 79q67 0 101 -37t34 -103v-347z" />
    <glyph glyph-name="uni0446.bgr" horiz-adv-x="547" 
d="M439 -155v155h-53l-11 69q-85 -79 -169 -79q-67 0 -102.5 37t-35.5 103v347h89v-325q0 -82 73 -82q66 0 138 77v330h89v-402h66v-217z" />
    <glyph glyph-name="uni0448.bgr" horiz-adv-x="815" 
d="M68 477h89v-325q0 -82 70 -82q63 0 135 77v330h89v-325q0 -82 70 -82q63 0 135 77v330h89v-477h-71l-11 69q-87 -79 -166 -79q-97 0 -126 79q-83 -79 -168 -79q-67 0 -101 37t-34 103v347z" />
    <glyph glyph-name="uni0449.bgr" horiz-adv-x="835" 
d="M727 -155v155h-53l-11 69q-87 -79 -166 -79q-97 0 -126 79q-83 -79 -168 -79q-67 0 -101 37t-34 103v347h89v-325q0 -82 70 -82q63 0 135 77v330h89v-325q0 -82 70 -82q63 0 135 77v330h89v-402h66v-217z" />
    <glyph glyph-name="uni044E.bgr" horiz-adv-x="715" 
d="M672 238q0 -116 -58.5 -182t-153.5 -66q-87 0 -143 56.5t-65 157.5h-93v-204h-89v708l89 14v-443h94q10 98 65.5 153t141.5 55q95 0 153.5 -66.5t58.5 -182.5zM582 238q0 77 -31 125.5t-91 48.5t-89.5 -47.5t-29.5 -126.5q0 -77 30.5 -125.5t88.5 -48.5q61 0 91.5 47.5
t30.5 126.5z" />
    <glyph glyph-name="gbreve.alt" horiz-adv-x="533" 
d="M414 664q-22 -116 -143 -116q-118 0 -140 116l60 13q16 -58 82 -58q63 0 80 58zM374 156v234q-46 17 -96 17q-145 0 -145 -174q0 -73 31 -114t80 -41q68 0 130 78zM463 9q0 -90 -53 -140.5t-161 -50.5q-94 0 -178 37l13 84q79 -45 171 -45q119 0 119 109v61
q-65 -65 -143 -65q-82 0 -135 59.5t-53 171.5q0 123 63.5 188t170.5 65q87 0 186 -30v-444z" />
    <glyph glyph-name="gcommaaccent.alt" horiz-adv-x="533" 
d="M321 569l-78 -26q-41 44 -41 89q0 55 71 125l55 -14q-46 -61 -46 -100q0 -35 39 -74zM374 156v234q-46 17 -96 17q-145 0 -145 -174q0 -73 31 -114t80 -41q68 0 130 78zM463 9q0 -90 -53 -140.5t-161 -50.5q-94 0 -178 37l13 84q79 -45 171 -45q119 0 119 109v61
q-65 -65 -143 -65q-82 0 -135 59.5t-53 171.5q0 123 63.5 188t170.5 65q87 0 186 -30v-444z" />
    <glyph glyph-name="gdotaccent.alt" horiz-adv-x="533" 
d="M322 551h-100v101h100v-101zM374 156v234q-46 17 -96 17q-145 0 -145 -174q0 -73 31 -114t80 -41q68 0 130 78zM463 9q0 -90 -53 -140.5t-161 -50.5q-94 0 -178 37l13 84q79 -45 171 -45q119 0 119 109v61q-65 -65 -143 -65q-82 0 -135 59.5t-53 171.5q0 123 63.5 188
t170.5 65q87 0 186 -30v-444z" />
    <glyph glyph-name="Uacute.alt" horiz-adv-x="693" 
d="M502 869l-134 -127h-60l86 151zM534 0l-12 77q-110 -85 -219 -85q-108 0 -167 56t-59 171v471h94v-458q0 -155 138 -155q103 0 207 91v522h94v-690h-76z" />
    <glyph glyph-name="Ubreve.alt" horiz-adv-x="693" 
d="M487 854q-22 -116 -143 -116q-118 0 -140 116l60 13q16 -58 82 -58q63 0 80 58zM534 0l-12 77q-110 -85 -219 -85q-108 0 -167 56t-59 171v471h94v-458q0 -155 138 -155q103 0 207 91v522h94v-690h-76z" />
    <glyph glyph-name="Ucircumflex.alt" horiz-adv-x="693" 
d="M486 742h-56l-85 71l-85 -71h-56l99 141h84zM534 0l-12 77q-110 -85 -219 -85q-108 0 -167 56t-59 171v471h94v-458q0 -155 138 -155q103 0 207 91v522h94v-690h-76z" />
    <glyph glyph-name="Udieresis.alt" horiz-adv-x="693" 
d="M305 746h-99v101h99v-101zM484 746h-99v101h99v-101zM534 0l-12 77q-110 -85 -219 -85q-108 0 -167 56t-59 171v471h94v-458q0 -155 138 -155q103 0 207 91v522h94v-690h-76z" />
    <glyph glyph-name="Ugrave.alt" horiz-adv-x="693" 
d="M382 742h-60l-134 127l108 24zM534 0l-12 77q-110 -85 -219 -85q-108 0 -167 56t-59 171v471h94v-458q0 -155 138 -155q103 0 207 91v522h94v-690h-76z" />
    <glyph glyph-name="Uhungarumlaut.alt" horiz-adv-x="693" 
d="M409 871l-129 -125h-53l84 147zM566 871l-129 -125h-53l84 147zM534 0l-12 77q-110 -85 -219 -85q-108 0 -167 56t-59 171v471h94v-458q0 -155 138 -155q103 0 207 91v522h94v-690h-76z" />
    <glyph glyph-name="Umacron.alt" horiz-adv-x="693" 
d="M478 765h-266v72h266v-72zM534 0l-12 77q-110 -85 -219 -85q-108 0 -167 56t-59 171v471h94v-458q0 -155 138 -155q103 0 207 91v522h94v-690h-76z" />
    <glyph glyph-name="Uogonek.alt" horiz-adv-x="693" 
d="M614 -171q-37 -14 -72 -14q-37 0 -58.5 18t-21.5 54q0 47 61 116l9 10l-10 64q-110 -85 -219 -85q-108 0 -167 56t-59 171v471h94v-458q0 -155 138 -155q103 0 207 91v522h94v-690h-27l-17 -23q-32 -44 -32 -68q0 -31 38 -31q17 0 42 5v-54z" />
    <glyph glyph-name="Uring.alt" horiz-adv-x="693" 
d="M449 832q0 -45 -29.5 -73.5t-74.5 -28.5t-74.5 28.5t-29.5 73.5q0 44 29.5 74t74.5 30t74.5 -30t29.5 -74zM402 832q0 26 -16 43t-41 17t-41 -17t-16 -43t16 -42.5t41 -16.5t41 16.5t16 42.5zM534 0l-12 77q-110 -85 -219 -85q-108 0 -167 56t-59 171v471h94v-458
q0 -155 138 -155q103 0 207 91v522h94v-690h-76z" />
    <glyph glyph-name="Wacute.alt" horiz-adv-x="1019" 
d="M666 879l-134 -127h-60l86 151zM657 -3l-149 392l-145 -392h-83l-249 680l96 21l196 -573l140 382l-65 170l96 21l206 -573l187 565h101l-247 -693h-84z" />
    <glyph glyph-name="Wcircumflex.alt" horiz-adv-x="1019" 
d="M650 752h-56l-85 71l-85 -71h-56l99 141h84zM657 -3l-149 392l-145 -392h-83l-249 680l96 21l196 -573l140 382l-65 170l96 21l206 -573l187 565h101l-247 -693h-84z" />
    <glyph glyph-name="Wdieresis.alt" horiz-adv-x="1019" 
d="M469 756h-99v101h99v-101zM648 756h-99v101h99v-101zM657 -3l-149 392l-145 -392h-83l-249 680l96 21l196 -573l140 382l-65 170l96 21l206 -573l187 565h101l-247 -693h-84z" />
    <glyph glyph-name="Wgrave.alt" horiz-adv-x="1019" 
d="M546 752h-60l-134 127l108 24zM657 -3l-149 392l-145 -392h-83l-249 680l96 21l196 -573l140 382l-65 170l96 21l206 -573l187 565h101l-247 -693h-84z" />
    <glyph glyph-name="uni0386.calt" horiz-adv-x="688" 
d="M566 -7l-81 214h-281l-77 -207h-98l270 693h94l266 -680zM344 583l-109 -293h219z" />
    <glyph glyph-name="uni0388.calt" horiz-adv-x="506" 
d="M465 0h-382v690h372v-86h-278v-200h216l14 -86h-230v-232h288v-86z" />
    <glyph glyph-name="uni0389.calt" horiz-adv-x="703" 
d="M620 0h-94v318h-349v-318h-94v690h94v-286h349v286h94v-690z" />
    <glyph glyph-name="uni038A.calt" horiz-adv-x="272" 
d="M183 0h-94v690h94v-690z" />
    <glyph glyph-name="uni038C.calt" horiz-adv-x="746" 
d="M691 346q0 -161 -87 -260t-232 -99t-231 98t-86 259t87 260t232 99t231 -98t86 -259zM594 345q0 125 -59.5 198.5t-161.5 73.5t-161.5 -73.5t-59.5 -198.5t59.5 -198.5t161.5 -73.5t161.5 73.5t59.5 198.5z" />
    <glyph glyph-name="uni038E.calt" horiz-adv-x="636" 
d="M614 690l-251 -416v-274h-94v274l-244 403l96 20l196 -335l190 328h107z" />
    <glyph glyph-name="uni038F.calt" horiz-adv-x="731" 
d="M320 80l-11 -80h-233v84h133l-20 18q-131 120 -131 290q0 134 83 222.5t225 88.5q141 0 224 -88.5t83 -222.5q0 -169 -133 -290l-20 -18h135v-84h-233l-11 80l55 54q111 109 110 254q-1 101 -55.5 165t-154.5 64q-101 0 -156 -63.5t-55 -165.5q0 -146 110 -254z" />
    <glyph glyph-name="uni0399.calt" horiz-adv-x="272" 
d="M96 756h-99v101h99v-101zM275 756h-99v101h99v-101zM183 0h-94v690h94v-690z" />
    <glyph glyph-name="uni03A5.calt" horiz-adv-x="636" 
d="M278 746h-99v101h99v-101zM457 746h-99v101h99v-101zM614 690l-251 -416v-274h-94v274l-244 403l96 20l196 -335l190 328h107z" />
    <glyph glyph-name="uni0409.alt" horiz-adv-x="920" 
d="M337 567l-207 -567h-101l264 695h90l105 -275h157q112 0 175.5 -53.5t63.5 -150.5q0 -104 -69 -160t-186 -56h-84zM640 337h-120l97 -254h17q74 0 114.5 32.5t40.5 97.5q0 61 -38.5 92.5t-110.5 31.5z" />
    <glyph glyph-name="uni0431.srb" 
d="M259 -10q-98 0 -156 61.5t-58 159.5q0 155 151 235q-53 29 -76.5 58.5t-23.5 67.5q0 98 130 119l194 31l13 -82l-194 -29q-56 -8 -56 -39q0 -15 20.5 -31.5t86.5 -50.5q102 -53 149 -114t47 -150q0 -104 -64.5 -170t-162.5 -66zM262 64q57 0 95.5 45t38.5 114
q0 123 -124 187q-63 -30 -100 -82t-37 -116q0 -65 34.5 -106.5t92.5 -41.5z" />
    <glyph glyph-name="uni0459.alt" horiz-adv-x="701" 
d="M251 368l-133 -368h-95l185 481h89l64 -166h123q90 0 137.5 -40.5t47.5 -114.5q0 -75 -52.5 -117.5t-140.5 -42.5h-90zM480 241h-90l65 -167h23q51 0 78 22.5t27 62.5q0 82 -103 82z" />
    <glyph glyph-name="three.alt" horiz-adv-x="514" 
d="M227 -13q-113 0 -193 53l15 88q87 -60 183 -60q66 0 104.5 33.5t38.5 93.5q0 122 -183 122h-36l-11 67l193 210h-282l-13 82h409v-71l-202 -217q217 -17 217 -192q0 -95 -65.5 -152t-174.5 -57z" />
    <glyph glyph-name="four.alt" horiz-adv-x="589" 
d="M373 0v153h-338v66l316 462l85 -19l-301 -434h238v173l83 18v-191h108v-75h-108v-153h-83z" />
    <glyph glyph-name="comma.alt" horiz-adv-x="227" 
d="M69 119h93q8 -30 8 -58q0 -104 -98 -199l-50 24q57 86 57 164q0 31 -10 69z" />
    <glyph glyph-name="semicolon.alt" horiz-adv-x="236" 
d="M168 358h-100v119h100v-119zM69 119h93q8 -30 8 -58q0 -104 -98 -199l-50 24q57 86 57 164q0 31 -10 69z" />
    <glyph glyph-name="quotedblleft.alt" horiz-adv-x="409" 
d="M157 465h-93q-9 31 -9 64q0 98 77 174l50 -24q-35 -61 -35 -138q0 -42 10 -76zM339 465h-93q-9 31 -9 64q0 98 77 174l50 -24q-35 -61 -35 -138q0 -42 10 -76z" />
    <glyph glyph-name="quotedblright.alt" horiz-adv-x="409" 
d="M70 690h93q9 -31 9 -64q0 -98 -77 -174l-50 24q35 61 35 138q0 42 -10 76zM252 690h93q9 -31 9 -64q0 -98 -77 -174l-50 24q35 61 35 138q0 42 -10 76z" />
    <glyph glyph-name="quoteleft.alt" horiz-adv-x="227" 
d="M157 465h-93q-9 31 -9 64q0 98 77 174l50 -24q-35 -61 -35 -138q0 -42 10 -76z" />
    <glyph glyph-name="quoteright.alt" horiz-adv-x="227" 
d="M70 690h93q9 -31 9 -64q0 -98 -77 -174l-50 24q35 61 35 138q0 42 -10 76z" />
    <glyph glyph-name="quotedblbase.alt" horiz-adv-x="409" 
d="M245 119h93q9 -32 9 -64q0 -98 -77 -174l-50 24q35 61 35 138q0 42 -10 76zM63 119h93q9 -32 9 -64q0 -98 -77 -174l-50 24q35 61 35 138q0 42 -10 76z" />
    <glyph glyph-name="quotesinglbase.alt" horiz-adv-x="227" 
d="M63 119h93q9 -32 9 -64q0 -98 -77 -174l-50 24q35 61 35 138q0 42 -10 76z" />
    <glyph glyph-name="registered.alt" horiz-adv-x="799" 
d="M745 346q0 -160 -96.5 -259.5t-249.5 -99.5q-154 0 -249.5 98.5t-95.5 258.5t96.5 259.5t249.5 99.5q154 0 249.5 -98.5t95.5 -258.5zM701 345q0 151 -85 236.5t-216 85.5q-133 0 -217.5 -85.5t-84.5 -236.5t85 -236.5t217 -85.5t216.5 85.5t84.5 236.5zM499 150
l-113 156h-41v-151h-67v394h115q64 0 102.5 -32.5t38.5 -88.5q0 -81 -77 -111l114 -151zM345 490v-127h44q36 0 56.5 16.5t20.5 46.5t-19.5 47t-55.5 17h-46z" />
    <glyph glyph-name="servicemark.alt" horiz-adv-x="800" 
d="M730 345h-57v259l-105 -261h-56l-104 261v-259h-56v345h81l108 -271l108 271h81v-345zM163 340q-57 0 -99 25l7 58q52 -32 93 -32q24 0 39.5 11.5t15.5 31.5q0 21 -12.5 34t-44.5 27q-54 24 -74.5 45.5t-20.5 61.5q0 41 30.5 67t79.5 26t84 -21l-10 -57q-40 27 -76 27
q-24 0 -38 -10.5t-14 -26.5q0 -20 12 -31.5t45 -26.5q54 -24 74.5 -46.5t20.5 -64.5q0 -45 -30.5 -71.5t-81.5 -26.5z" />
    <glyph glyph-name="trademark.alt" horiz-adv-x="800" 
d="M315 636h-113v-291h-60v291h-108v54h272zM743 345h-56v259l-105 -261h-56l-104 261v-259h-56v345h81l108 -271l107 271h81v-345z" />
    <glyph glyph-name="space.tab" horiz-adv-x="270" 
 />
    <glyph glyph-name="NUL" horiz-adv-x="0" 
 />
    <glyph glyph-name="A.flat" horiz-adv-x="693" 
d="M344 583l-109 -293h219zM563 0l-78 207h-281l-78 -207h-97l270 693h94l271 -693h-101z" />
    <glyph glyph-name="E.flat" horiz-adv-x="506" 
d="M465 0h-382v690h372v-86h-278v-200h223v-86h-223v-232h288v-86z" />
    <glyph glyph-name="F.flat" horiz-adv-x="478" 
d="M442 604h-265v-211h215v-86h-215v-307h-94v690h359v-86z" />
    <glyph glyph-name="G.flat" horiz-adv-x="697" 
d="M624 54q-104 -67 -233 -67q-161 0 -248.5 97t-87.5 260t87.5 261t240.5 98q121 0 210 -59l-15 -96q-88 69 -196 69q-111 0 -170.5 -72.5t-59.5 -199.5t61.5 -199t177.5 -72q78 0 140 34v183h-165v86h258v-323z" />
    <glyph glyph-name="K.flat" horiz-adv-x="613" 
d="M614 0h-124l-313 350v-350h-94v690h94v-310l286 310h120l-304 -324z" />
    <glyph glyph-name="L.flat" horiz-adv-x="468" 
d="M434 0h-351v690h94v-602h257v-88z" />
    <glyph glyph-name="Q.alt_flat" horiz-adv-x="751" 
d="M695 -21l-113 88q-85 -80 -211 -80q-145 0 -231 98t-86 259t87 260t232 99t231 -98t86 -259q0 -122 -55 -213l60 -45v-109zM372 73q84 0 140 48l-118 87v111l168 -132q32 66 32 158q0 125 -60 198.5t-162 73.5t-161.5 -73.5t-59.5 -198.5t59.5 -198.5t161.5 -73.5z" />
    <glyph glyph-name="R.flat" horiz-adv-x="573" 
d="M406 489q0 57 -35.5 87.5t-103.5 30.5h-90v-237h80q69 0 109 30.5t40 88.5zM177 0h-94v690h188q107 0 168 -51t61 -145q0 -76 -40.5 -124t-110.5 -67l215 -303h-114l-203 291h-70v-291z" />
    <glyph glyph-name="T.flat" horiz-adv-x="600" 
d="M567 604h-220v-604h-94v604h-220v86h534v-86z" />
    <glyph glyph-name="V.flat" horiz-adv-x="682" 
d="M653 690l-268 -695h-86l-270 695h104l210 -566l209 566h101z" />
    <glyph glyph-name="W.flat" horiz-adv-x="1017" 
d="M982 690l-208 -693h-79l-187 562l-187 -562h-78l-208 693h100l152 -542l176 542h94l176 -542l151 542h98z" />
    <glyph glyph-name="W.alt_flat" horiz-adv-x="1024" 
d="M662 -3l-149 392l-145 -392h-83l-254 693h104l193 -565l140 382l-70 183h104l203 -565l187 565h101l-247 -693h-84z" />
    <glyph glyph-name="X.flat" horiz-adv-x="636" 
d="M496 0l-183 287l-183 -287h-104l235 356l-217 334h108l164 -262l166 262h105l-219 -331l236 -359h-108z" />
    <glyph glyph-name="Y.flat" horiz-adv-x="641" 
d="M619 690l-251 -416v-274h-94v274l-252 416h108l192 -328l190 328h107z" />
    <glyph glyph-name="Z.flat" horiz-adv-x="596" 
d="M549 0h-506v70l393 538h-371v82h484v-70l-393 -538h393v-82z" />
    <glyph glyph-name="f.flat" horiz-adv-x="304" 
d="M296 633q-20 4 -46 4q-66 0 -66 -61v-99h102v-75h-102v-402h-87v402h-72v75h72v108q0 68 40 99.5t108 31.5q14 0 38 -2z" />
    <glyph glyph-name="k.flat" horiz-adv-x="481" 
d="M365 0l-206 250v-250h-89v708l89 14v-445l185 200h107l-201 -211l225 -266h-110z" />
    <glyph glyph-name="t.flat" horiz-adv-x="337" 
d="M299 -2q-30 -6 -67 -6q-67 0 -103 29t-36 97v284h-72v75h72v159l87 13v-172h110v-75h-110v-268q0 -63 66 -63q24 0 41 3z" />
    <glyph glyph-name="v.flat" horiz-adv-x="473" 
d="M450 477l-169 -480h-87l-171 480h96l120 -370l118 370h93z" />
    <glyph glyph-name="w.flat" horiz-adv-x="724" 
d="M696 477l-153 -479h-75l-106 360l-105 -360h-74l-155 479h91l102 -353l105 353h75l105 -353l101 353h89z" />
    <glyph glyph-name="x.flat" horiz-adv-x="472" 
d="M344 0l-110 180l-111 -180h-94l158 242l-152 235h97l103 -169l105 169h93l-151 -232l158 -245h-96z" />
    <glyph glyph-name="y.flat" horiz-adv-x="483" 
d="M104 -182q-20 0 -38 4l-13 81q26 -7 47 -7q60 0 86 70l12 32l-177 479h95l126 -371l125 371h93l-195 -527q-28 -75 -66 -103.5t-95 -28.5z" />
    <glyph glyph-name="z.flat" horiz-adv-x="452" 
d="M409 0h-374v70l267 333h-251v74h353v-70l-268 -333h273v-74z" />
    <glyph glyph-name="two.flat" horiz-adv-x="534" 
d="M44 0v70l250 260q47 50 67.5 86t20.5 76q0 114 -123 114q-94 0 -184 -80l-13 87q88 76 202 76q98 0 154.5 -52t56.5 -139q0 -59 -26.5 -107.5t-91.5 -114.5l-192 -195h314v-81h-435z" />
    <glyph glyph-name="three.flat" horiz-adv-x="514" 
d="M227 -13q-108 0 -194 53l15 88q88 -60 184 -60q68 0 106 30t38 86q0 129 -185 129h-39v82h46q165 0 165 113q0 45 -32.5 72.5t-94.5 27.5q-98 0 -179 -65l-13 84q85 62 196 62q107 0 161 -51t54 -126q0 -116 -124 -157q137 -38 137 -170q0 -90 -65.5 -144t-175.5 -54z
" />
    <glyph glyph-name="three.alt_flat" horiz-adv-x="514" 
d="M227 -13q-113 0 -193 53l15 88q87 -60 183 -60q66 0 104.5 33.5t38.5 93.5q0 122 -183 122h-36l-11 67l193 210h-289v82h403v-71l-202 -217q217 -17 217 -192q0 -95 -65.5 -152t-174.5 -57z" />
    <glyph glyph-name="four.alt_flat" horiz-adv-x="589" 
d="M373 0v153h-338v66l313 457h98l-311 -448h238v181h83v-181h108v-75h-108v-153h-83z" />
    <glyph glyph-name="five.flat" 
d="M486 212q0 -105 -70 -165t-178 -60q-112 0 -195 52l14 85q82 -58 184 -58q69 0 112 36t43 105q0 60 -37 95t-106 35q-63 0 -115 -22l-67 15l24 346h362v-80h-287l-15 -197q55 17 108 17q103 0 163 -56t60 -148z" />
    <glyph glyph-name="seven.flat" horiz-adv-x="528" 
d="M118 0l264 595h-343v81h444v-70l-268 -606h-97z" />
    <glyph glyph-name="sterling.flat" horiz-adv-x="536" 
d="M487 80v-80h-442v69l72 225h-72v78h97l45 139q30 94 81 136t138 42q43 0 83 -10l-12 -82q-34 10 -79 10q-49 0 -79 -28t-51 -93l-37 -114h180v-78h-204l-69 -214h349z" />
    <glyph glyph-name="Euro.flat" horiz-adv-x="591" 
d="M564 47q-82 -60 -182 -60q-103 0 -170 63.5t-90 172.5h-96v70h87q-2 28 -2 44q0 17 2 51h-87v70h98q26 106 92.5 168.5t166.5 62.5q99 0 170 -52l-15 -86q-75 59 -155 59q-64 0 -107.5 -40t-63.5 -112h235v-70h-247q-2 -32 -2 -50q0 -17 2 -45h247v-70h-235
q19 -74 63.5 -115t109.5 -41q85 0 165 63z" />
    <glyph glyph-name="yen.flat" horiz-adv-x="606" 
d="M509 81h-166v-81h-84v81h-166v69h166v76h-166v69h149l-225 381h97l188 -336l186 336h96l-224 -381h149v-69h-166v-76h166v-69z" />
    <glyph glyph-name="numbersign.flat" horiz-adv-x="661" 
d="M400 248l28 180h-168l-28 -180h168zM360 -2l28 174h-168l-28 -174h-71l28 174h-108v76h120l28 180h-123v76h135l28 174h71l-28 -174h168l28 174h71l-28 -174h108v-76h-120l-28 -180h123v-76h-135l-28 -174h-71z" />
    <glyph glyph-name="ordfeminine.flat" horiz-adv-x="381" 
d="M160 406q47 0 89 40v70q-132 -17 -132 -71q0 -18 11.5 -28.5t31.5 -10.5zM147 351q-43 0 -68.5 24.5t-25.5 65.5q0 55 46.5 84.5t149.5 40.5v9q0 49 -57 49q-47 0 -108 -28l-10 58q64 27 124 27q59 0 87.5 -25t28.5 -78v-221h-54l-6 38q-48 -44 -107 -44zM317 223h-261
v59h261v-59z" />
    <glyph glyph-name="ordmasculine.flat" horiz-adv-x="385" 
d="M192 351q-65 0 -106 44t-41 120q0 77 41 121.5t106 44.5q66 0 107 -44.5t41 -121.5q0 -76 -41 -120t-107 -44zM271 515q0 47 -20.5 77.5t-58.5 30.5t-58 -30t-20 -78q0 -47 20 -77t58 -30t58.5 30t20.5 77zM56 223v59h273v-59h-273z" />
    <glyph glyph-name="percent.flat" horiz-adv-x="900" 
d="M370 485q0 -91 -46.5 -145t-116.5 -54t-116.5 54t-46.5 145t46.5 145t116.5 54t116.5 -54t46.5 -145zM273 0h-79l225 346l207 330h79l-224 -346zM292 485q0 60 -21.5 98t-63.5 38q-43 0 -64 -37.5t-21 -98.5q0 -59 22 -97.5t63 -38.5q43 0 64 38t21 98zM692 -8
q-70 0 -116.5 54t-46.5 145t46.5 145t116.5 54t116.5 -54t46.5 -145t-46.5 -145t-116.5 -54zM692 55q43 0 64 38t21 98t-21.5 98t-63.5 38q-43 0 -64 -37.5t-21 -98.5q0 -59 22 -97.5t63 -38.5z" />
    <glyph glyph-name="ampersand.flat" horiz-adv-x="689" 
d="M263 67q99 0 166 82l-183 180q-117 -55 -117 -146q0 -51 37 -83.5t97 -32.5zM580 0l-94 93q-90 -106 -224 -106q-108 0 -167.5 48.5t-59.5 137.5q0 133 157 211q-36 37 -52.5 71t-16.5 81q0 71 50.5 119t137.5 48q92 0 170 -43l-15 -94q-86 55 -156 55q-46 0 -70 -22.5
t-24 -60.5q0 -31 16 -58.5t53 -64.5l190 -190q34 76 48 176l82 -18q-22 -129 -70 -218l165 -165h-120z" />
    <glyph glyph-name="exclam.flat" horiz-adv-x="272" 
d="M190 690l-25 -478h-57l-25 478h107zM186 0h-100v119h100v-119z" />
    <glyph glyph-name="exclamdown.flat" horiz-adv-x="272" 
d="M87 690h100v-119h-100v119zM83 0l25 478h57l25 -478h-107z" />
    <glyph glyph-name="question.flat" horiz-adv-x="518" 
d="M263 211h-58l-13 159l41 17q74 31 105 60t31 75q0 45 -32.5 70.5t-83.5 25.5q-97 0 -196 -81l-13 92q100 74 214 74q92 0 148.5 -48t56.5 -129q0 -40 -12.5 -70.5t-39.5 -55t-58 -42.5t-81 -41zM184 0v119h100v-119h-100z" />
    <glyph glyph-name="questiondown.flat" horiz-adv-x="518" 
d="M334 690v-119h-100v119h100zM474 61q-100 -74 -214 -74q-92 0 -148.5 48t-56.5 129q0 40 12.5 70.5t39.5 55t58 42.5t81 41l9 106h58l13 -159l-41 -17q-74 -31 -105 -60t-31 -75q0 -45 32.5 -70.5t83.5 -25.5q97 0 196 81z" />
    <glyph glyph-name="guillemotleft.flat" 
d="M481 477l-146 -238l146 -239h-82l-161 239l161 238h82zM278 477l-146 -238l146 -239h-82l-161 239l161 238h82z" />
    <glyph glyph-name="guillemotright.flat" 
d="M46 0l146 238l-146 239h82l161 -239l-161 -238h-82zM249 0l146 238l-146 239h82l161 -239l-161 -238h-82z" />
    <glyph glyph-name="guilsinglleft.flat" horiz-adv-x="323" 
d="M278 477l-146 -238l146 -239h-82l-161 239l161 238h82z" />
    <glyph glyph-name="guilsinglright.flat" horiz-adv-x="323" 
d="M46 0l146 238l-146 239h82l161 -239l-161 -238h-82z" />
    <glyph glyph-name="parenleft.flat" horiz-adv-x="391" 
d="M159 314q0 -105 42 -184.5t130 -143.5l-14 -84q-253 160 -253 412t253 412l14 -84q-88 -64 -130 -143.5t-42 -184.5z" />
    <glyph glyph-name="parenright.flat" horiz-adv-x="391" 
d="M232 314q0 105 -42 184.5t-130 143.5l14 84q253 -160 253 -412t-253 -412l-14 84q88 64 130 143.5t42 184.5z" />
    <glyph glyph-name="bracketleft.flat" horiz-adv-x="409" 
d="M358 -104h-271v794h271v-68h-186v-658h186v-68z" />
    <glyph glyph-name="bracketright.flat" horiz-adv-x="409" 
d="M50 690h271v-794h-271v68h186v658h-186v68z" />
    <glyph glyph-name="braceleft.flat" horiz-adv-x="477" 
d="M427 -104h-112q-143 0 -143 131q0 23 6.5 68.5t6.5 69.5q0 95 -98 95h-42v67h43q97 0 97 94q0 24 -6.5 69.5t-6.5 68.5q0 131 143 131h112v-68h-105q-65 0 -65 -62q0 -20 7 -68t7 -70q0 -58 -26 -87.5t-76 -40.5v-2q50 -11 76 -40t26 -88q0 -22 -7 -70t-7 -68
q0 -62 64 -62h106v-68z" />
    <glyph glyph-name="braceright.flat" horiz-adv-x="477" 
d="M49 690h112q143 0 143 -131q0 -23 -6.5 -68.5t-6.5 -69.5q0 -95 98 -95h42v-67h-43q-97 0 -97 -94q0 -24 6.5 -69.5t6.5 -68.5q0 -131 -143 -131h-112v68h105q65 0 65 62q0 20 -7 68t-7 70q0 58 26 87.5t76 40.5v2q-50 11 -76 40t-26 88q0 22 7 70t7 68q0 62 -64 62h-106
v68z" />
    <glyph glyph-name="registered.alt_flat" horiz-adv-x="799" 
d="M745 346q0 -160 -96.5 -259.5t-249.5 -99.5q-154 0 -249.5 98.5t-95.5 258.5t96.5 259.5t249.5 99.5q154 0 249.5 -98.5t95.5 -258.5zM701 345q0 151 -85 236.5t-216 85.5q-133 0 -217.5 -85.5t-84.5 -236.5t85 -236.5t217 -85.5t216.5 85.5t84.5 236.5zM345 490v-127h44
q36 0 56.5 16.5t20.5 46.5t-19.5 47t-55.5 17h-46zM495 155l-109 151h-41v-151h-67v394h115q64 0 102.5 -32.5t38.5 -88.5q0 -81 -77 -111l122 -162h-84z" />
    <glyph glyph-name="registered.flat" horiz-adv-x="563" 
d="M508 470q0 -103 -63.5 -167.5t-163.5 -64.5q-101 0 -163.5 64t-62.5 168q0 103 63.5 168t163.5 65t163 -64.5t63 -168.5zM476 470q0 96 -55.5 151t-138.5 55q-85 0 -140 -55t-55 -151q0 -95 55.5 -150t138.5 -55q85 0 140 55t55 150zM325 529q0 38 -45 38h-34v-76h32
q47 0 47 38zM246 350h-43v257h77q41 0 65.5 -20t24.5 -55q0 -55 -52 -71l79 -111h-52l-74 106h-25v-106z" />
    <glyph glyph-name="trademark.flat" horiz-adv-x="800" 
d="M310 636h-108v-291h-60v291h-108v54h276v-54zM747 345h-60l-18 245l-99 -246h-47l-99 246l-19 -245h-58l27 345h71l103 -258l102 258h69z" />
    <glyph glyph-name="trademark.alt_flat" horiz-adv-x="800" 
d="M310 636h-108v-291h-60v291h-108v54h276v-54zM743 345h-56v259l-105 -261h-56l-104 261v-259h-56v345h81l108 -271l107 271h81v-345z" />
    <glyph glyph-name="AE.flat" horiz-adv-x="885" 
d="M462 290v316l-188 -316h188zM462 0v207h-237l-121 -207h-102l411 690h421v-86h-280v-200h224v-86h-224v-232h290v-86h-382z" />
    <glyph glyph-name="OE.flat" horiz-adv-x="876" 
d="M835 0h-416q-174 0 -268 94t-94 250q0 157 96.5 251.5t270.5 94.5h401v-86h-277v-200h222v-86h-222v-232h287v-86zM455 85v520h-36q-127 0 -196.5 -65.5t-69.5 -194.5q0 -126 71 -193t193 -67h38z" />
    <glyph glyph-name="Eth.flat" horiz-adv-x="720" 
d="M296 0h-196v319h-83v84h83v287h200q175 0 269 -94t94 -250q0 -157 -96.5 -251.5t-270.5 -94.5zM194 85h106q127 0 196.5 65t69.5 195q0 127 -70.5 193.5t-192.5 66.5h-109v-202h164v-84h-164v-234z" />
    <glyph glyph-name="Dcroat.flat" horiz-adv-x="720" 
d="M296 0h-196v319h-83v84h83v287h200q175 0 269 -94t94 -250q0 -157 -96.5 -251.5t-270.5 -94.5zM194 85h106q127 0 196.5 65t69.5 195q0 127 -70.5 193.5t-192.5 66.5h-109v-202h164v-84h-164v-234z" />
    <glyph glyph-name="Hbar.flat" horiz-adv-x="737" 
d="M194 397h349v113h-349v-113zM194 313v-313h-94v508h-83v79h83v103h94v-103h349v103h94v-103h83v-79h-83v-508h-94v313h-349z" />
    <glyph glyph-name="Lslash.flat" horiz-adv-x="485" 
d="M451 0h-351v259l-83 -47v93l83 47v338h94v-286l157 88v-93l-157 -87v-224h257v-88z" />
    <glyph glyph-name="Aogonek.flat" horiz-adv-x="693" 
d="M344 583l-109 -293h219zM669 -171q-37 -14 -72 -14q-37 0 -58.5 18t-21.5 54q0 47 58 113h-12l-78 207h-281l-78 -207h-97l270 693h94l271 -693h-26l-17 -23q-32 -44 -32 -68q0 -31 38 -31q17 0 42 5v-54z" />
    <glyph glyph-name="Eogonek.flat" horiz-adv-x="506" 
d="M467 -171q-37 -14 -72 -14q-37 0 -58.5 18t-21.5 54q0 47 58 113h-290v690h372v-86h-278v-200h223v-86h-223v-232h288v-86h-29l-17 -23q-32 -44 -32 -68q0 -31 38 -31q17 0 42 5v-54z" />
    <glyph glyph-name="Aring.flat" horiz-adv-x="693" 
d="M401 726q0 26 -16 43t-41 17t-41 -17t-16 -43t16 -42.5t41 -16.5t41 16.5t16 42.5zM344 583l-110 -293h221zM565 0l-79 207h-284l-78 -207h-95l251 644q-40 29 -40 82q0 44 29.5 74t74.5 30t74.5 -30t29.5 -74q0 -51 -37 -80l253 -646h-99z" />
    <glyph glyph-name="Aringacute.flat" horiz-adv-x="693" 
d="M503 985l-134 -127h-60l86 151zM401 726q0 26 -16 43t-41 17t-41 -17t-16 -43t16 -42.5t41 -16.5t41 16.5t16 42.5zM344 583l-110 -293h221zM565 0l-79 207h-284l-78 -207h-95l251 644q-40 29 -40 82q0 44 29.5 74t74.5 30t74.5 -30t29.5 -74q0 -51 -37 -80l253 -646h-99
z" />
    <glyph glyph-name="Ldot.flat" horiz-adv-x="468" 
d="M434 0h-351v690h94v-602h257v-88zM416 300h-100v101h100v-101z" />
    <glyph glyph-name="Aacute.flat" horiz-adv-x="693" 
d="M503 889l-134 -127h-60l86 151zM344 583l-109 -293h219zM563 0l-78 207h-281l-78 -207h-97l270 693h94l271 -693h-101z" />
    <glyph glyph-name="Agrave.flat" horiz-adv-x="693" 
d="M383 762h-60l-134 127l108 24zM344 583l-109 -293h219zM563 0l-78 207h-281l-78 -207h-97l270 693h94l271 -693h-101z" />
    <glyph glyph-name="Acircumflex.flat" horiz-adv-x="693" 
d="M487 762h-56l-85 71l-85 -71h-56l99 141h84zM344 583l-109 -293h219zM563 0l-78 207h-281l-78 -207h-97l270 693h94l271 -693h-101z" />
    <glyph glyph-name="Abreve.flat" horiz-adv-x="693" 
d="M488 879q-22 -116 -143 -116q-118 0 -140 116l60 13q16 -58 82 -58q63 0 80 58zM344 583l-109 -293h219zM563 0l-78 207h-281l-78 -207h-97l270 693h94l271 -693h-101z" />
    <glyph glyph-name="Atilde.flat" horiz-adv-x="693" 
d="M504 879q-14 -114 -82 -114q-27 0 -71 23q-48 25 -65 25q-22 0 -32 -51l-58 12q14 114 82 114q27 0 71 -23q47 -25 65 -25q22 0 32 51zM344 583l-109 -293h219zM563 0l-78 207h-281l-78 -207h-97l270 693h94l271 -693h-101z" />
    <glyph glyph-name="Amacron.flat" horiz-adv-x="693" 
d="M479 785h-266v72h266v-72zM344 583l-109 -293h219zM563 0l-78 207h-281l-78 -207h-97l270 693h94l271 -693h-101z" />
    <glyph glyph-name="Adieresis.flat" horiz-adv-x="693" 
d="M306 766h-99v101h99v-101zM485 766h-99v101h99v-101zM344 583l-109 -293h219zM563 0l-78 207h-281l-78 -207h-97l270 693h94l271 -693h-101z" />
    <glyph glyph-name="Eacute.flat" horiz-adv-x="506" 
d="M429 879l-134 -127h-60l86 151zM465 0h-382v690h372v-86h-278v-200h223v-86h-223v-232h288v-86z" />
    <glyph glyph-name="Egrave.flat" horiz-adv-x="506" 
d="M309 752h-60l-134 127l108 24zM465 0h-382v690h372v-86h-278v-200h223v-86h-223v-232h288v-86z" />
    <glyph glyph-name="Ecircumflex.flat" horiz-adv-x="506" 
d="M413 752h-56l-85 71l-85 -71h-56l99 141h84zM465 0h-382v690h372v-86h-278v-200h223v-86h-223v-232h288v-86z" />
    <glyph glyph-name="Ecaron.flat" horiz-adv-x="506" 
d="M131 893h56l85 -71l85 71h56l-99 -141h-84zM465 0h-382v690h372v-86h-278v-200h223v-86h-223v-232h288v-86z" />
    <glyph glyph-name="Ebreve.flat" horiz-adv-x="506" 
d="M414 869q-22 -116 -143 -116q-118 0 -140 116l60 13q16 -58 82 -58q63 0 80 58zM465 0h-382v690h372v-86h-278v-200h223v-86h-223v-232h288v-86z" />
    <glyph glyph-name="Emacron.flat" horiz-adv-x="506" 
d="M405 775h-266v72h266v-72zM465 0h-382v690h372v-86h-278v-200h223v-86h-223v-232h288v-86z" />
    <glyph glyph-name="Edieresis.flat" horiz-adv-x="506" 
d="M232 756h-99v101h99v-101zM411 756h-99v101h99v-101zM465 0h-382v690h372v-86h-278v-200h223v-86h-223v-232h288v-86z" />
    <glyph glyph-name="Edotaccent.flat" horiz-adv-x="506" 
d="M322 756h-100v101h100v-101zM465 0h-382v690h372v-86h-278v-200h223v-86h-223v-232h288v-86z" />
    <glyph glyph-name="Gbreve.flat" horiz-adv-x="697" 
d="M514 879q-22 -116 -143 -116q-118 0 -140 116l60 13q16 -58 82 -58q63 0 80 58zM624 54q-104 -67 -233 -67q-161 0 -248.5 97t-87.5 260t87.5 261t240.5 98q121 0 210 -59l-15 -96q-88 69 -196 69q-111 0 -170.5 -72.5t-59.5 -199.5t61.5 -199t177.5 -72q78 0 140 34v183
h-165v86h258v-323z" />
    <glyph glyph-name="Gdotaccent.flat" horiz-adv-x="697" 
d="M422 766h-100v101h100v-101zM624 54q-104 -67 -233 -67q-161 0 -248.5 97t-87.5 260t87.5 261t240.5 98q121 0 210 -59l-15 -96q-88 69 -196 69q-111 0 -170.5 -72.5t-59.5 -199.5t61.5 -199t177.5 -72q78 0 140 34v183h-165v86h258v-323z" />
    <glyph glyph-name="Gcommaaccent.flat" horiz-adv-x="697" 
d="M624 54q-104 -67 -233 -67q-161 0 -248.5 97t-87.5 260t87.5 261t240.5 98q121 0 210 -59l-15 -96q-88 69 -196 69q-111 0 -170.5 -72.5t-59.5 -199.5t61.5 -199t177.5 -72q78 0 140 34v183h-165v86h258v-323zM310 -95l78 26q41 -44 41 -89q0 -55 -71 -125l-55 14
q46 61 46 100q0 35 -39 74z" />
    <glyph glyph-name="Kcommaaccent.flat" horiz-adv-x="613" 
d="M614 0h-124l-313 350v-350h-94v690h94v-310l286 310h120l-304 -324zM247 -85l78 26q41 -44 41 -89q0 -55 -71 -125l-55 14q46 61 46 100q0 35 -39 74z" />
    <glyph glyph-name="Lacute.flat" horiz-adv-x="468" 
d="M308 874l-134 -127h-60l86 151zM434 0h-351v690h94v-602h257v-88z" />
    <glyph glyph-name="Lcaron.flat" horiz-adv-x="468" 
d="M342 697q20 -38 20 -72q0 -64 -67 -122l-45 10q34 51 34 93q0 30 -25 78zM434 0h-351v690h94v-602h257v-88z" />
    <glyph glyph-name="Lcommaaccent.flat" horiz-adv-x="468" 
d="M434 0h-351v690h94v-602h257v-88zM196 -90l78 26q41 -44 41 -89q0 -55 -71 -125l-55 14q46 61 46 100q0 35 -39 74z" />
    <glyph glyph-name="Racute.flat" horiz-adv-x="573" 
d="M437 879l-134 -127h-60l86 151zM406 489q0 57 -35.5 87.5t-103.5 30.5h-90v-237h80q69 0 109 30.5t40 88.5zM177 0h-94v690h188q107 0 168 -51t61 -145q0 -76 -40.5 -124t-110.5 -67l215 -303h-114l-203 291h-70v-291z" />
    <glyph glyph-name="Rcaron.flat" horiz-adv-x="573" 
d="M139 893h56l85 -71l85 71h56l-99 -141h-84zM406 489q0 57 -35.5 87.5t-103.5 30.5h-90v-237h80q69 0 109 30.5t40 88.5zM177 0h-94v690h188q107 0 168 -51t61 -145q0 -76 -40.5 -124t-110.5 -67l215 -303h-114l-203 291h-70v-291z" />
    <glyph glyph-name="Rcommaaccent.flat" horiz-adv-x="573" 
d="M406 489q0 57 -35.5 87.5t-103.5 30.5h-90v-237h80q69 0 109 30.5t40 88.5zM177 0h-94v690h188q107 0 168 -51t61 -145q0 -76 -40.5 -124t-110.5 -67l215 -303h-114l-203 291h-70v-291zM226 -85l78 26q41 -44 41 -89q0 -55 -71 -125l-55 14q46 61 46 100q0 35 -39 74z
" />
    <glyph glyph-name="Tcaron.flat" horiz-adv-x="600" 
d="M162 893h56l85 -71l85 71h56l-99 -141h-84zM567 604h-220v-604h-94v604h-220v86h534v-86z" />
    <glyph glyph-name="Tcommaaccent.flat" horiz-adv-x="600" 
d="M567 604h-220v-604h-94v604h-220v86h534v-86zM241 -90l78 26q41 -44 41 -89q0 -55 -71 -125l-55 14q46 61 46 100q0 35 -39 74z" />
    <glyph glyph-name="Wacute.flat" horiz-adv-x="1017" 
d="M667 879l-134 -127h-60l86 151zM982 690l-208 -693h-79l-187 562l-187 -562h-78l-208 693h100l152 -542l176 542h94l176 -542l151 542h98z" />
    <glyph glyph-name="Wgrave.flat" horiz-adv-x="1017" 
d="M547 752h-60l-134 127l108 24zM982 690l-208 -693h-79l-187 562l-187 -562h-78l-208 693h100l152 -542l176 542h94l176 -542l151 542h98z" />
    <glyph glyph-name="Wcircumflex.flat" horiz-adv-x="1017" 
d="M651 752h-56l-85 71l-85 -71h-56l99 141h84zM982 690l-208 -693h-79l-187 562l-187 -562h-78l-208 693h100l152 -542l176 542h94l176 -542l151 542h98z" />
    <glyph glyph-name="Wdieresis.flat" horiz-adv-x="1017" 
d="M470 756h-99v101h99v-101zM649 756h-99v101h99v-101zM982 690l-208 -693h-79l-187 562l-187 -562h-78l-208 693h100l152 -542l176 542h94l176 -542l151 542h98z" />
    <glyph glyph-name="Wacute.alt_flat" horiz-adv-x="1024" 
d="M669 879l-134 -127h-60l86 151zM662 -3l-149 392l-145 -392h-83l-254 693h104l193 -565l140 382l-70 183h104l203 -565l187 565h101l-247 -693h-84z" />
    <glyph glyph-name="Wgrave.alt_flat" horiz-adv-x="1024" 
d="M549 752h-60l-134 127l108 24zM662 -3l-149 392l-145 -392h-83l-254 693h104l193 -565l140 382l-70 183h104l203 -565l187 565h101l-247 -693h-84z" />
    <glyph glyph-name="Wcircumflex.alt_flat" horiz-adv-x="1024" 
d="M653 752h-56l-85 71l-85 -71h-56l99 141h84zM662 -3l-149 392l-145 -392h-83l-254 693h104l193 -565l140 382l-70 183h104l203 -565l187 565h101l-247 -693h-84z" />
    <glyph glyph-name="Wdieresis.alt_flat" horiz-adv-x="1024" 
d="M472 756h-99v101h99v-101zM651 756h-99v101h99v-101zM662 -3l-149 392l-145 -392h-83l-254 693h104l193 -565l140 382l-70 183h104l203 -565l187 565h101l-247 -693h-84z" />
    <glyph glyph-name="Yacute.flat" horiz-adv-x="641" 
d="M475 869l-134 -127h-60l86 151zM619 690l-251 -416v-274h-94v274l-252 416h108l192 -328l190 328h107z" />
    <glyph glyph-name="Ygrave.flat" horiz-adv-x="641" 
d="M355 742h-60l-134 127l108 24zM619 690l-251 -416v-274h-94v274l-252 416h108l192 -328l190 328h107z" />
    <glyph glyph-name="Ycircumflex.flat" horiz-adv-x="641" 
d="M459 742h-56l-85 71l-85 -71h-56l99 141h84zM619 690l-251 -416v-274h-94v274l-252 416h108l192 -328l190 328h107z" />
    <glyph glyph-name="Ydieresis.flat" horiz-adv-x="641" 
d="M278 746h-99v101h99v-101zM457 746h-99v101h99v-101zM619 690l-251 -416v-274h-94v274l-252 416h108l192 -328l190 328h107z" />
    <glyph glyph-name="Zacute.flat" horiz-adv-x="596" 
d="M455 879l-134 -127h-60l86 151zM549 0h-506v70l393 538h-371v82h484v-70l-393 -538h393v-82z" />
    <glyph glyph-name="Zcaron.flat" horiz-adv-x="596" 
d="M157 893h56l85 -71l85 71h56l-99 -141h-84zM549 0h-506v70l393 538h-371v82h484v-70l-393 -538h393v-82z" />
    <glyph glyph-name="Zdotaccent.flat" horiz-adv-x="596" 
d="M348 756h-100v101h100v-101zM549 0h-506v70l393 538h-371v82h484v-70l-393 -538h393v-82z" />
    <glyph glyph-name="AEacute.flat" horiz-adv-x="885" 
d="M675 879l-134 -127h-60l86 151zM462 290v316l-188 -316h188zM462 0v207h-237l-121 -207h-102l411 690h421v-86h-280v-200h224v-86h-224v-232h290v-86h-382z" />
    <glyph glyph-name="dcroat.flat" horiz-adv-x="538" 
d="M133 229q0 -77 30.5 -118.5t80.5 -41.5q72 0 135 84v228q-53 27 -117 27q-58 0 -93.5 -46.5t-35.5 -132.5zM386 69q-66 -79 -155 -79q-82 0 -135 60t-53 175q0 124 61.5 191t154.5 67q67 0 120 -21v100h-127v72h127v74l89 14v-88h68v-72h-68v-562h-71z" />
    <glyph glyph-name="hbar.flat" 
d="M159 330v-330h-89v562h-66v72h66v74l89 14v-88h129v-72h-129v-148q81 73 162 73q67 0 102.5 -37.5t35.5 -102.5v-347h-89v325q0 82 -73 82q-66 0 -138 -77z" />
    <glyph glyph-name="lslash.flat" horiz-adv-x="282" 
d="M185 0h-87v276l-83 -46v92l83 46v340l87 14v-305l82 45v-92l-82 -45v-325z" />
    <glyph glyph-name="kcommaaccent.flat" horiz-adv-x="481" 
d="M365 0l-206 250v-250h-89v708l89 14v-445l185 200h107l-201 -211l225 -266h-110zM191 -90l78 26q41 -44 41 -89q0 -55 -71 -125l-55 14q46 61 46 100q0 35 -39 74z" />
    <glyph glyph-name="tcaron.flat" horiz-adv-x="337" 
d="M330 734q20 -38 20 -72q0 -64 -67 -122l-45 10q34 51 34 93q0 30 -25 78zM299 -2q-30 -6 -67 -6q-67 0 -103 29t-36 97v284h-72v75h72v159l87 13v-172h110v-75h-110v-268q0 -63 66 -63q24 0 41 3z" />
    <glyph glyph-name="tcommaaccent.flat" horiz-adv-x="337" 
d="M299 -2q-30 -6 -67 -6q-67 0 -103 29t-36 97v284h-72v75h72v159l87 13v-172h110v-75h-110v-268q0 -63 66 -63q24 0 41 3zM130 -90l78 26q41 -44 41 -89q0 -55 -71 -125l-55 14q46 61 46 100q0 35 -39 74z" />
    <glyph glyph-name="wacute.flat" horiz-adv-x="724" 
d="M519 674l-134 -127h-60l86 151zM696 477l-153 -479h-75l-106 360l-105 -360h-74l-155 479h91l102 -353l105 353h75l105 -353l101 353h89z" />
    <glyph glyph-name="wgrave.flat" horiz-adv-x="724" 
d="M399 547h-60l-134 127l108 24zM696 477l-153 -479h-75l-106 360l-105 -360h-74l-155 479h91l102 -353l105 353h75l105 -353l101 353h89z" />
    <glyph glyph-name="wcircumflex.flat" horiz-adv-x="724" 
d="M503 547h-56l-85 71l-85 -71h-56l99 141h84zM696 477l-153 -479h-75l-106 360l-105 -360h-74l-155 479h91l102 -353l105 353h75l105 -353l101 353h89z" />
    <glyph glyph-name="wdieresis.flat" horiz-adv-x="724" 
d="M322 551h-99v101h99v-101zM501 551h-99v101h99v-101zM696 477l-153 -479h-75l-106 360l-105 -360h-74l-155 479h91l102 -353l105 353h75l105 -353l101 353h89z" />
    <glyph glyph-name="yacute.flat" horiz-adv-x="483" 
d="M399 674l-134 -127h-60l86 151zM104 -182q-20 0 -38 4l-13 81q26 -7 47 -7q60 0 86 70l12 32l-177 479h95l126 -371l125 371h93l-195 -527q-28 -75 -66 -103.5t-95 -28.5z" />
    <glyph glyph-name="ygrave.flat" horiz-adv-x="483" 
d="M279 547h-60l-134 127l108 24zM104 -182q-20 0 -38 4l-13 81q26 -7 47 -7q60 0 86 70l12 32l-177 479h95l126 -371l125 371h93l-195 -527q-28 -75 -66 -103.5t-95 -28.5z" />
    <glyph glyph-name="ycircumflex.flat" horiz-adv-x="483" 
d="M383 547h-56l-85 71l-85 -71h-56l99 141h84zM104 -182q-20 0 -38 4l-13 81q26 -7 47 -7q60 0 86 70l12 32l-177 479h95l126 -371l125 371h93l-195 -527q-28 -75 -66 -103.5t-95 -28.5z" />
    <glyph glyph-name="ydieresis.flat" horiz-adv-x="483" 
d="M202 551h-99v101h99v-101zM381 551h-99v101h99v-101zM104 -182q-20 0 -38 4l-13 81q26 -7 47 -7q60 0 86 70l12 32l-177 479h95l126 -371l125 371h93l-195 -527q-28 -75 -66 -103.5t-95 -28.5z" />
    <glyph glyph-name="zacute.flat" horiz-adv-x="452" 
d="M382 674l-134 -127h-60l86 151zM409 0h-374v70l267 333h-251v74h353v-70l-268 -333h273v-74z" />
    <glyph glyph-name="zcaron.flat" horiz-adv-x="452" 
d="M84 688h56l85 -71l85 71h56l-99 -141h-84zM409 0h-374v70l267 333h-251v74h353v-70l-268 -333h273v-74z" />
    <glyph glyph-name="zdotaccent.flat" horiz-adv-x="452" 
d="M275 551h-100v101h100v-101zM409 0h-374v70l267 333h-251v74h353v-70l-268 -333h273v-74z" />
    <glyph glyph-name="f_f.flat" horiz-adv-x="608" 
d="M600 633q-20 4 -46 4q-66 0 -66 -61v-99h102v-75h-102v-402h-87v402h-72v75h72v108q0 68 40 99.5t108 31.5q14 0 38 -2zM296 633q-20 4 -46 4q-66 0 -66 -61v-99h102v-75h-102v-402h-87v402h-72v75h72v108q0 68 40 99.5t108 31.5q14 0 38 -2z" />
    <glyph glyph-name="f_f_i.flat" horiz-adv-x="851" 
d="M786 629q0 -23 -16.5 -39.5t-39.5 -16.5t-40 16.5t-17 39.5t17 40t40 17t39.5 -17t16.5 -40zM600 633q-20 4 -46 4q-66 0 -66 -61v-99h102v-75h-102v-402h-87v402h-72v75h72v108q0 68 40 99.5t108 31.5q14 0 38 -2zM296 633q-20 4 -46 4q-66 0 -66 -61v-99h102v-75h-102
v-402h-87v402h-72v75h72v108q0 68 40 99.5t108 31.5q14 0 38 -2zM774 0h-89v477h89v-477z" />
    <glyph glyph-name="f_f_l.flat" horiz-adv-x="851" 
d="M774 0h-89v708l89 14v-722zM600 633q-20 4 -46 4q-66 0 -66 -61v-99h102v-75h-102v-402h-87v402h-72v75h72v108q0 68 40 99.5t108 31.5q14 0 38 -2zM296 633q-20 4 -46 4q-66 0 -66 -61v-99h102v-75h-102v-402h-87v402h-72v75h72v108q0 68 40 99.5t108 31.5q14 0 38 -2z
" />
    <glyph glyph-name="fi.flat" horiz-adv-x="547" 
d="M482 629q0 -23 -16.5 -39.5t-39.5 -16.5t-40 16.5t-17 39.5t17 40t40 17t39.5 -17t16.5 -40zM296 633q-20 4 -46 4q-66 0 -66 -61v-99h102v-75h-102v-402h-87v402h-72v75h72v108q0 68 40 99.5t108 31.5q14 0 38 -2zM470 0h-89v477h89v-477z" />
    <glyph glyph-name="fl.flat" horiz-adv-x="547" 
d="M470 0h-89v708l89 14v-722zM296 633q-20 4 -46 4q-66 0 -66 -61v-99h102v-75h-102v-402h-87v402h-72v75h72v108q0 68 40 99.5t108 31.5q14 0 38 -2z" />
    <glyph glyph-name="one.sup_flat" horiz-adv-x="360" 
d="M317 411h-255v60h96v240l-93 -35l-9 58l119 49h53v-312h89v-60z" />
    <glyph glyph-name="two.sup_flat" horiz-adv-x="360" 
d="M316 411h-274v60l142 124q29 26 39.5 41t10.5 34q0 23 -16.5 36t-42.5 13q-52 0 -114 -39l-10 66q62 38 130 38q61 0 96.5 -30.5t35.5 -75.5q0 -33 -17.5 -59t-58.5 -60l-102 -84h181v-64z" />
    <glyph glyph-name="three.sup_flat" horiz-adv-x="360" 
d="M317 510q0 -50 -42 -78.5t-110 -28.5q-73 0 -126 30l10 61q60 -30 119 -30q33 0 53 14t20 39q0 28 -23.5 40t-78.5 12h-35v61h38q92 0 92 49q0 44 -63 44t-116 -33l-10 61q63 33 127 33q67 0 102 -25.5t35 -68.5q0 -65 -81 -90q89 -23 89 -90z" />
    <glyph glyph-name="onehalf.flat" horiz-adv-x="810" 
d="M248 -8l-63 18l203 338l194 336l63 -18l-204 -338zM317 311h-255v60h96v240l-93 -35l-9 58l119 49h53v-312h89v-60zM766 0h-274v60l142 124q29 26 39.5 41t10.5 34q0 23 -16.5 36t-42.5 13q-52 0 -114 -39l-10 66q62 38 130 38q61 0 96.5 -30.5t35.5 -75.5
q0 -33 -17.5 -59t-58.5 -60l-102 -84h181v-64z" />
    <glyph glyph-name="onequarter.flat" horiz-adv-x="810" 
d="M263 -8l-63 18l203 338l194 336l63 -18l-204 -338zM317 311h-255v60h96v240l-93 -35l-9 58l119 49h53v-312h89v-60zM773 74h-57v-79h-63v79h-186v51l153 243h96v-241h57v-53zM654 128v91l2 99h-7l-33 -61l-46 -76l-33 -51l2 -4l56 2h59z" />
    <glyph glyph-name="threequarters.flat" horiz-adv-x="810" 
d="M253 -8l-63 18l203 338l194 336l63 -18l-204 -338zM317 410q0 -50 -42 -78.5t-110 -28.5q-73 0 -126 30l10 61q60 -30 119 -30q33 0 53 14t20 39q0 28 -23.5 40t-78.5 12h-35v61h38q92 0 92 49q0 44 -63 44t-116 -33l-10 61q63 33 127 33q67 0 102 -25.5t35 -68.5
q0 -65 -81 -90q89 -23 89 -90zM773 74h-57v-79h-63v79h-186v51l153 243h96v-241h57v-53zM654 128v91l2 99h-7l-33 -61l-46 -76l-33 -51l2 -4l56 2h59z" />
    <glyph glyph-name="i.dot" horiz-adv-x="243" 
d="M178 629q0 -23 -16.5 -39.5t-39.5 -16.5t-40 16.5t-17 39.5t17 40t40 17t39.5 -17t16.5 -40zM166 0h-89v477h89v-477z" />
    <glyph glyph-name="caron.alt" horiz-adv-x="454" 
d="M265 721q20 -38 20 -72q0 -64 -67 -122l-45 10q34 51 34 93q0 30 -25 78z" />
    <glyph glyph-name="commaaccent.rot" horiz-adv-x="454" 
d="M285 569l-78 -26q-41 44 -41 89q0 55 71 125l55 -14q-46 -61 -46 -100q0 -35 39 -74z" />
    <glyph glyph-name="uni0384.cap" horiz-adv-x="454" 
d="M309 690l-57 -171h-53l14 171h96z" />
    </font>
</defs>
</svg>
