<?xml version="1.0" standalone="no"?>
<!DOCTYPE svg PUBLIC "-//W3C//DTD SVG 1.1//EN" "http://www.w3.org/Graphics/SVG/1.1/DTD/svg11.dtd" >
<svg xmlns="http://www.w3.org/2000/svg" xmlns:xlink="http://www.w3.org/1999/xlink" version="1.1">
<metadata></metadata>
<defs>
<font id="asulregular" horiz-adv-x="1150" >
<font-face units-per-em="2048" ascent="1638" descent="-410" />
<missing-glyph horiz-adv-x="460" />
<glyph horiz-adv-x="0" />
<glyph unicode="&#xd;" horiz-adv-x="681" />
<glyph unicode=" "  horiz-adv-x="460" />
<glyph unicode="&#x09;" horiz-adv-x="460" />
<glyph unicode="&#xa0;" horiz-adv-x="460" />
<glyph unicode="!" horiz-adv-x="548" d="M102 1393v20l281 49l12 -20q-12 -92 -49 -1073l-145 -27q2 16 2 108.5t-4 276.5t-6.5 245.5t-4.5 101.5t-4 70l-4 60q-14 143 -78 189zM182 121v20l17 17q96 31 168 30q8 0 26 -10q25 -61 25 -137v-16l-17 -17q-104 -27 -172 -31l-20 9q-27 57 -27 135z" />
<glyph unicode="&#x22;" horiz-adv-x="964" d="M205 1331.5q0 67.5 14 87.5l19 13q33 8 55 8q29 0 69 -8l15 -11q16 -12 16 -77.5t-22.5 -243.5t-44.5 -226h-58q-23 47 -43 218.5t-20 239zM573 1331.5q0 67.5 15 87.5l18 13q33 8 56 8q29 0 69 -8l14 -11q16 -12 16.5 -77.5t-22 -243.5t-45.5 -226h-57 q-23 47 -43.5 218.5t-20.5 239z" />
<glyph unicode="#" horiz-adv-x="1173" d="M4 442l35 148h258q18 92 41 250h-279l35 147h266l54 422l153 37l2 -12q-39 -152 -88 -447h299l54 422l153 37l2 -12q-39 -152 -88 -447h238l-23 -147h-239l-41 -250h251l-30 -148h-246q-20 -162 -53 -442l-158 -12l-2 12q35 117 92 442h-299q-20 -162 -53 -442l-158 -12 l-2 12q35 117 92 442h-266zM416 590h301q18 92 41 250h-301z" />
<glyph unicode="$" horiz-adv-x="1146" d="M111 98q6 123 73 215q145 -160 338 -196v569q-78 35 -113.5 51.5t-98 55t-91.5 73.5q-78 94 -78 211q0 178 104.5 270.5t276.5 106.5q-4 106 -8 168l113 53l8 -14q-14 -109 -14 -203q182 -10 366 -94q-23 -102 -74 -199q-139 119 -292 158v-483q82 -37 118.5 -54.5 t103 -59.5t97.5 -79t57.5 -97t26.5 -130q0 -401 -403 -438q0 -127 8 -218l-121 -32l-8 14q18 125 20 231q-242 6 -409 121zM301 1150.5q0 -95.5 57.5 -155t163.5 -112.5v454h-6q-109 1 -170 -34q-45 -57 -45 -152.5zM621 109q100 0 176 49q53 68 53 182.5t-59.5 180 t-169.5 120.5v-532z" />
<glyph unicode="%" horiz-adv-x="1593" d="M53 1052.5q0 186.5 89 296t230.5 109.5t213 -110.5t71.5 -288.5t-81.5 -299t-221 -121t-220.5 113.5t-81 300zM213 1087q0 -336 168 -335q49 0 72 34q45 58 45 244q0 309 -154 309q-59 0 -86 -30q-45 -76 -45 -222zM264 -39l2 12q84 121 292 473.5t310 534.5l262 485 l173 9l-3 -13q-86 -123 -296.5 -476t-305.5 -523l-260 -486zM909 389q0 186 89 296t230.5 110t213 -111t71.5 -289t-81.5 -299t-221 -121t-220.5 114t-81 300zM1069 424q0 -330 168 -330q49 0 72 35q45 58 45 238q0 309 -154 309q-59 0 -86 -31q-45 -76 -45 -221z" />
<glyph unicode="&#x26;" horiz-adv-x="1583" d="M82 446q0 100 30.5 180.5t77.5 123.5q84 76 164 98q-133 174 -133 330q0 279 367 278q201 0 379 -59q-14 -129 -76 -209q-182 154 -318 153q-90 0 -140 -50t-50 -146q0 -188 385 -518q145 -127 301 -240q20 96 20.5 208t-38.5 234l-217 -4l81 119q156 -14 228 -14l276 12 l-55 -119h-137q8 -90 8 -164q0 -201 -66 -344q188 -129 422 -249l-135 -183q-156 127 -223 174l-150 117q-168 -199 -473 -199q-264 0 -396 131.5t-132 339.5zM279 487q0 -158 96 -268t291 -110q236 0 338 131q-416 340 -590 538q-135 -92 -135 -291z" />
<glyph unicode="'" horiz-adv-x="575" d="M195 1331.5q0 67.5 14 87.5l18 13q33 8 56 8q29 0 69 -8l15 -11q16 -12 16 -77.5t-22.5 -243.5t-45.5 -226h-57q-23 47 -43 218.5t-20 239z" />
<glyph unicode="(" horiz-adv-x="819" d="M150 596q0 539 325 813q115 94 244 141l8 -6q25 -61 27 -71q-242 -106 -334 -353q-82 -219 -82 -564t97.5 -539.5t318.5 -292.5q-16 -63 -35 -78q-231 82 -393 309q-82 115 -129 279.5t-47 361.5z" />
<glyph unicode=")" horiz-adv-x="819" d="M66 -276q221 98 318 292.5t97 563.5q0 526 -211 751q-84 88 -204 142q2 10 26 71l8 6q129 -47 244 -141q326 -274 326 -813q0 -197 -47.5 -361.5t-128.5 -279.5q-162 -227 -394 -309q-18 14 -34 78z" />
<glyph unicode="*" horiz-adv-x="858" d="M76 1174l14 2q88 -27 258 -39q-88 121 -166 186l-6 14l156 97l12 -11q29 -143 84 -258q90 156 113 258l10 11l156 -97l-2 -14q-80 -51 -201 -190q186 18 264 43l14 -2l-2 -187l-14 -4q-106 47 -266 66q104 -131 200 -197l7 -14l-156 -99l-10 11q-16 84 -113 254 q-59 -129 -84 -252l-12 -13l-154 97l4 14q96 84 174 197q-176 -21 -264 -62l-14 6z" />
<glyph unicode="+" horiz-adv-x="1228" d="M86 598l2 137l449 -2l2 451l137 -2v-449h467l-2 -135h-465v-467h-139v467h-451z" />
<glyph unicode="," horiz-adv-x="567" d="M66 -326q70 106 100.5 180t30.5 158t-47 164q4 12 12 21q84 35 172 34q12 0 22 -2q47 -47 47 -162.5t-60 -216t-171 -219.5z" />
<glyph unicode="-" horiz-adv-x="724" d="M2 500l61 162h15q82 -18 184 -19l176 2q45 0 140.5 4t144.5 4l-61 -159h-15q-139 18 -371 18z" />
<glyph unicode="." horiz-adv-x="636" d="M186 156v20l21 19q109 39 211 38h20l23 -12q33 -33 33 -137q0 -27 -5 -49l-20 -17q-100 -31 -225 -38l-23 10q-35 66 -35 166z" />
<glyph unicode="/" horiz-adv-x="673" d="M-94 -229q61 121 238.5 569t246.5 641l168 485l180 37v-12q-141 -279 -544 -1407q-14 -41 -43 -131t-46 -139l-200 -56v13z" />
<glyph unicode="0" horiz-adv-x="1382" d="M143 728q0 339 162 536.5t418 197.5t386 -200.5t130 -525t-147.5 -543t-380.5 -218.5q-275 0 -421.5 207t-146.5 546zM360 784q0 -131 17.5 -242.5t58.5 -210t118 -154.5t183 -56q37 0 93.5 18.5t82.5 48.5q51 57 80 203t29 293q0 633 -350 633q-63 0 -121.5 -19.5 t-83.5 -44.5q-45 -63 -76 -200.5t-31 -268.5z" />
<glyph unicode="1" horiz-adv-x="765" d="M41 1298q197 35 334 136h147l-8 -232v-772q0 -297 31 -416v-14h-258v14q31 119 30 416v612q0 150 -6 201q-139 -31 -254 -37z" />
<glyph unicode="2" horiz-adv-x="1081" d="M80 100q369 395 489 605q138 235 138 415q0 211 -187 211q-139 0 -348 -180q-70 84 -80 209q233 98 431 98t299.5 -86t101.5 -237q0 -223 -219 -512q-111 -145 -191 -237.5t-219 -240.5q156 0 217 2q362 12 467 103l18 -14l-84 -236h-794z" />
<glyph unicode="3" horiz-adv-x="1032" d="M39 82v14q0 98 53 158q199 -152 363 -152q125 0 184 39q94 90 94 289q0 152 -66.5 215.5t-208 63.5t-196.5 -9h-8l-35 127h174q111 0 180.5 86t69.5 197q0 231 -176 231q-145 0 -307 -139q-53 74 -66 195q197 61 393 61q352 0 353 -299q0 -143 -73 -238.5t-155 -119.5 q328 -41 328 -361q0 -202 -130 -332.5t-358.5 -130.5t-412.5 105z" />
<glyph unicode="4" horiz-adv-x="1159" d="M33 487q213 391 567 947l244 24q-8 -180 -8 -917q43 0 118.5 6t96.5 6l-33 -162h-178q0 -260 22 -377v-14h-231v14q18 115 22 357v20q-504 0 -573 -2zM205 530q16 1 452 7v753q-358 -584 -452 -760z" />
<glyph unicode="5" horiz-adv-x="1101" d="M29 104q6 41 33.5 100.5t52.5 84.5q227 -178 432 -178q104 0 170 32q37 47 58.5 130t21.5 157q0 260 -355 287l-239 18l-37 43q27 227 102 652l621 10l47 -275h-23q-125 121 -399 129h-102q-29 -96 -88 -424q268 -16 350 -33.5t164 -58.5q166 -82 166 -319 q0 -207 -139.5 -345.5t-369 -138.5t-466.5 129z" />
<glyph unicode="6" horiz-adv-x="1216" d="M143 571q0 582 521 815q127 57 231 72l20 -92q-246 -76 -370.5 -222.5t-167.5 -365.5q141 142 336 142q143 0 258 -89q57 -47 93 -135t36 -207q0 -225 -123 -368.5t-348.5 -143.5t-355.5 145.5t-130 448.5zM360 516q0 -217 60.5 -318.5t216.5 -101.5q117 0 166 35 q80 106 80 291.5t-63.5 265.5t-170.5 80q-141 0 -284 -111q-5 -86 -5 -141z" />
<glyph unicode="7" horiz-adv-x="907" d="M43 1440q234 -6 410 -6l467 2l2 -9q-43 -82 -239 -621.5t-239 -811.5h-290l-2 14q309 559 575 1274q-86 8 -197 8q-293 0 -413 -121h-23z" />
<glyph unicode="8" horiz-adv-x="1175" d="M106 367q0 152 86.5 242.5t213.5 133.5q-113 76 -166.5 155t-53.5 196q0 176 113 270t296 94t297 -81t114 -255q0 -135 -64.5 -219t-171.5 -151q166 -102 232.5 -179t66.5 -202q0 -186 -136 -291t-344 -105t-345.5 101.5t-137.5 290.5zM324 391q0 -276 276 -276 q111 0 172 26q80 61 80 193q0 94 -71.5 165.5t-268.5 178.5q-188 -82 -188 -287zM379 1128q0 -86 59.5 -152.5t233.5 -160.5q141 102 141 295q0 244 -225 244q-80 0 -142 -29q-68 -66 -67 -197z" />
<glyph unicode="9" horiz-adv-x="1218" d="M119 928q0 238 125 383t348 145t353 -148.5t130 -461.5q0 -469 -301 -701q-166 -127 -446 -168l-25 91q102 18 204.5 73.5t179.5 144.5t142 304q-143 -106 -305.5 -106.5t-275.5 89.5q-59 49 -94 140.5t-35 214.5zM336 993q0 -192 66.5 -273t191.5 -81t254 74 q10 98 10 194q0 221 -60.5 323.5t-215.5 102.5q-119 0 -166 -37q-80 -111 -80 -303z" />
<glyph unicode=":" horiz-adv-x="681" d="M186 870v23l19 18q111 35 203 35q10 0 30 -12q31 -29 31 -127q0 -25 -2 -43l-18 -19q-102 -27 -209 -34l-23 10q-31 61 -31 149zM223 139v23l19 18q111 35 202 35q11 0 31 -12q31 -29 31 -127q0 -25 -2 -43l-19 -19q-102 -27 -209 -34l-22 10q-31 61 -31 149z" />
<glyph unicode=";" horiz-adv-x="645" d="M106 -326q4 8 25 40t25 39t19 33t18.5 35t12.5 32.5t11 39t8 39.5q6 35 6 94.5t-41 149.5l13 21q84 35 172 34q12 0 22 -2q47 -47 47 -145t-38.5 -182t-77.5 -133.5t-115 -137.5zM121 860v23l18 18q111 35 203 35q11 0 31 -12q31 -29 30 -127q0 -25 -2 -43l-18 -19 q-102 -27 -209 -35l-22 11q-31 61 -31 149z" />
<glyph unicode="&#x3c;" horiz-adv-x="1097" d="M20 588v143l1057 498v-146l-889 -424l889 -423v-144z" />
<glyph unicode="=" horiz-adv-x="1097" d="M20 436l3 137l1054 -2l-2 -135h-1055zM20 778l3 137l1054 -2l-2 -135h-1055z" />
<glyph unicode="&#x3e;" horiz-adv-x="1093" d="M18 92v144l889 423l-889 424v146l1057 -498v-143z" />
<glyph unicode="?" horiz-adv-x="880" d="M92 1378v25q150 55 330 55t281.5 -84t101.5 -252q0 -100 -40 -193t-90 -152.5t-116 -110.5q-90 -70 -151 -99v-47t22 -110v-15q-41 -8 -88 -8t-96 8v15q23 96 22.5 135t-2.5 51l25 18q131 92 224 220.5t93 259.5q0 205 -192 204q-133 0 -275 -116q-49 88 -49 196z M241.5 76q0.5 39 4.5 63l16 17q68 23 154 28l18 -10q27 -27 27 -117q0 -20 -2 -37l-17 -16q-70 -20 -155 -27l-21 9q-25 51 -24.5 90z" />
<glyph unicode="@" horiz-adv-x="1650" d="M72 651q0 342 215 575.5t585 233.5q332 0 517.5 -186.5t185.5 -434t-143.5 -408.5t-332 -161t-188.5 168q0 49 9 97l-7 -3q-215 -262 -360 -262q-133 0 -133 224q0 154 59.5 297t190.5 244.5t309 101.5q135 0 217 -29l-139 -504q-20 -74 -21 -135q0 -90 82 -90 q133 0 229.5 132t96.5 292t-65.5 267.5t-166.5 162.5q-203 113 -405 113q-127 0 -244 -41q-319 -195 -319 -617q0 -326 169 -494.5t416 -168.5q186 0 392 106l43 -68q-211 -151 -467 -151q-301 0 -513 198.5t-212 540.5zM590 518q0 -106 59 -106q49 0 164 110.5t135 204.5 l72 287q-45 27 -119 26.5t-137 -26.5q-102 -129 -148 -314q-27 -106 -26 -182z" />
<glyph unicode="A" horiz-adv-x="1173" d="M-55 0v20q92 72 246.5 568.5t200.5 650.5t50 197l240 24q0 -72 129 -447.5t208 -580.5t122 -284.5t96 -127.5v-20h-344v35q0 74 -19.5 137.5t-25.5 81.5l-82 246q-82 2 -231.5 2t-227.5 -2q-57 -229 -70.5 -304t-13.5 -161v-35h-278zM332 616h399q-37 113 -108.5 354.5 t-94.5 311.5q-41 -109 -196 -666z" />
<glyph unicode="B" horiz-adv-x="1351" d="M221 0v14q39 104 39 293v799q0 205 -33 313v15l121 -4l332 4q438 0 438 -287q0 -115 -57 -196t-141 -126q88 -16 178 -88q53 -39 84.5 -114.5t31.5 -176.5q0 -154 -73.5 -256t-191.5 -148t-294 -46l-243 10zM471 737q0 -512 8 -612q62 -19 148 -19q160 0 258 89.5t98 237 t-95 223t-317 79.5zM471 842h162q278 0 278 246q0 131 -68.5 189t-186 58t-181.5 -6q-4 -30 -4 -487z" />
<glyph unicode="C" horiz-adv-x="1347" d="M100 704.5q0 333.5 217.5 543.5t538.5 210q215 0 404 -98q-25 -129 -86 -217q-211 170 -457 170q-74 0 -144 -15q-104 -78 -172.5 -211t-68.5 -319q0 -295 142 -459t353 -164q154 0 408 140l55 -84q-94 -70 -146 -100.5t-118 -63.5q-133 -63 -285 -64q-266 0 -453.5 199 t-187.5 532.5z" />
<glyph unicode="D" horiz-adv-x="1544" d="M221 2v14q33 127 33 416v572q0 289 -33 415v15l119 -4q379 6 385 6q362 0 540.5 -165t178.5 -507q0 -215 -68 -383q-154 -381 -645 -381l-389 2h-121zM465 684q0 -471 8 -532q123 -13 250 -13q248 0 354 64q135 154 135 501t-123.5 478t-416.5 131q-6 0 -203 -2 q-4 -78 -4 -504v-123z" />
<glyph unicode="E" horiz-adv-x="1173" d="M221 0v14q33 127 33 416v574q0 289 -33 415v15l828 6l-52 -154h-14q-121 31 -292 31t-218 -4q-4 -78 -4 -504l487 10l-59 -141h-14q-139 16 -221 16t-193 -6q0 -498 8 -559q47 -6 156 -6q322 0 469 65h14l-37 -188h-858z" />
<glyph unicode="F" horiz-adv-x="1085" d="M221 0v14q33 127 33 416v571q0 289 -33 416v15l830 6l-52 -156h-14q-129 33 -297 33t-215 -4q-8 -61 -8 -518l479 10l-65 -148h-15q-111 17 -218 17h-23q-92 0 -158 -4v-236q0 -291 33 -418v-14h-277z" />
<glyph unicode="G" horiz-adv-x="1447" d="M100 689.5q0 322.5 196 545.5t519 223q260 0 496 -176q-76 -80 -195 -154q-139 184 -407 185q-113 0 -179 -21q-198 -167 -198 -536q0 -629 485 -629q174 0 258 53q25 127 25 365h-269l87 135q162 -12 280.5 -12t202.5 4l-58 -113h-61q0 -283 14 -399 q-293 -184 -567 -184l-1 -1q-273 0 -450 196q-178 196 -178 518.5z" />
<glyph unicode="H" horiz-adv-x="1570" d="M221 0v14q31 119 31 416v574q0 297 -31 415v15h273v-15q-12 -47 -21.5 -193.5t-9.5 -221.5v-187h645v187q0 76 -9 222t-22 193v15h273v-15q-31 -119 -31 -415v-574q0 -297 31 -416v-14h-273v14q12 47 21.5 192.5t9.5 221.5v260l-324 2q-203 0 -321 -2v-260 q0 -76 9 -221.5t22 -192.5v-14h-273z" />
<glyph unicode="I" horiz-adv-x="714" d="M221 0v14q31 119 31 437v553q0 297 -31 415v15h273v-15q-12 -47 -21.5 -202.5t-9.5 -233.5v-553q0 -76 9 -222.5t22 -193.5v-14h-273z" />
<glyph unicode="J" horiz-adv-x="729" d="M-27 -436q29 18 95 80q123 111 160.5 264.5t37.5 499.5v596q0 313 -35 415v15h277v-15q-31 -98 -31 -415v-685q0 -170 -39 -348q-16 -82 -102 -219q-20 -33 -74 -82q-61 -57 -215 -176z" />
<glyph unicode="K" horiz-adv-x="1249" d="M221 0v14q31 119 31 416v571q0 299 -31 418v15h273v-15q-12 -47 -21.5 -194.5t-9.5 -223.5v-245l334 432q131 170 131 246h258v-21q-86 -14 -240 -215l-317 -410l266 -344q160 -205 261 -304t173 -120v-20h-336q-72 88 -530 709v-279q0 -76 9 -222.5t22 -193.5v-14h-273z " />
<glyph unicode="L" horiz-adv-x="1071" d="M221 0v14q31 119 31 416v574q0 297 -31 415v15h273v-15q-12 -49 -21.5 -197.5t-9.5 -224.5v-575q0 -135 12 -293q45 -6 164 -6q313 0 459 65h14l-37 -188h-854z" />
<glyph unicode="M" horiz-adv-x="1820" d="M154 0v20q75 566 75 1118v15q0 166 -10 264v21l285 22q12 -80 49 -194q70 -221 362 -1069q168 510 261.5 836.5t105.5 400.5l303 30v-20q-2 -55 -2 -198.5t23.5 -530.5t72.5 -701v-14h-266v35q4 180 4 341t-6 296t-14 236.5t-16.5 170t-10.5 105.5q-59 -176 -184 -569.5 t-185 -612.5l-223 -20q0 94 -329 1026q-63 180 -70 192q0 -2 -4 -78q-23 -420 -23 -642t4 -445v-35h-202z" />
<glyph unicode="N" horiz-adv-x="1454" d="M147 0v14q31 135 31 475v459q0 315 -26 471v15l247 18l717 -1114v666q0 109 -12 236.5t-31 178.5v15h215v-15q-31 -135 -31 -475v-514q0 -123 9.5 -263t17.5 -167l-192 -20l-775 1198v-748q0 -272 37 -416v-14h-207z" />
<glyph unicode="O" horiz-adv-x="1542" d="M100 705.5q0 316.5 199 536.5t512 220q203 0 348 -100q283 -195 283 -608q0 -338 -200 -558.5t-495.5 -220.5t-471 207t-175.5 523.5zM332 740q0 -167 43 -301t154.5 -226t274.5 -92t269 67q137 154 137 510q0 262 -98 428q-109 186 -364 187q-180 0 -283 -64 q-59 -74 -96 -208t-37 -301z" />
<glyph unicode="P" horiz-adv-x="1275" d="M221 0v14q39 104 39 293v785q0 215 -33 327v15l121 -4l322 4q528 0 528 -392q0 -225 -154.5 -350t-396.5 -125q-84 0 -176 19v-310q0 -168 39 -264v-12h-289zM471 682q80 -23 166 -23q162 0 246 95.5t84 267.5q0 307 -295 307q-150 0 -197 -6q-4 -55 -4 -360v-281z" />
<glyph unicode="Q" horiz-adv-x="1540" d="M100 705.5q0 318.5 200 537.5t503 219t471 -200.5t168 -513.5q0 -389 -273 -621q180 -168 312 -236l2 -12l-230 -82q-119 145 -213 246q-139 -68 -297 -68q-292 0 -467.5 206t-175.5 524.5zM332 741q0 -252 98 -426q51 -92 150.5 -146t236.5 -54q72 0 135 18 q-51 53 -194 186v9l141 61q63 -76 186 -186q125 180 125 502q0 248 -92 415q-51 90 -145 141.5t-250 51.5t-258 -64q-133 -168 -133 -508z" />
<glyph unicode="R" horiz-adv-x="1312" d="M221 0v14q39 104 39 293v795q0 213 -31 317v15l127 -4l306 4q491 0 491 -354q0 -173 -113.5 -288.5t-302.5 -138.5l236 -297q147 -186 221 -253.5t127 -82.5v-20h-336q-39 63 -123 182l-332 465l-59 4v-321q0 -215 31 -316v-14h-281zM471 752q74 -8 141 -9q172 0 243 79 t71 233.5t-65.5 214t-225.5 59.5q-98 0 -158 -8q-6 -45 -6 -569z" />
<glyph unicode="S" d="M111 109q6 135 73 235q82 -98 199 -161.5t223.5 -63.5t181.5 47q52 62 52 163q0 99 -52 163t-129 99.5t-168.5 79.5t-168 89t-129 129t-52.5 196q0 188 128 280.5t321.5 92.5t396.5 -94q-23 -121 -74 -229q-84 84 -193.5 138t-208 54t-157.5 -33q-43 -55 -43 -134 t39 -130t102.5 -85t139.5 -65.5t151.5 -69.5t139 -88t102.5 -133t39 -192q0 -207 -133 -313.5t-364.5 -106.5t-415.5 132z" />
<glyph unicode="T" horiz-adv-x="997" d="M-31 1440q412 -6 529.5 -6t529.5 6q-14 -125 -14 -183h-15q-227 57 -387 62q-10 -106 -10 -330v-563q0 -276 31 -412v-14h-268v14q26 128 26 385v19v563q0 231 -10 338q-156 -4 -387 -62h-14q0 92 -11 183z" />
<glyph unicode="U" horiz-adv-x="1435" d="M150 1419v15h266v-15q-27 -174 -27 -487v-275q0 -344 90 -444q86 -96 266.5 -96t268.5 61q53 86 67.5 235.5t14.5 491.5t-31 514v15h213v-15q-12 -49 -21.5 -185t-9.5 -208v-389q0 -373 -120.5 -517.5t-406.5 -144.5t-413 140.5t-127 447.5v432q0 305 -30 424z" />
<glyph unicode="V" horiz-adv-x="1275" d="M-10 1413v21h334v-35q0 -109 84 -379l268 -866q182 629 198.5 691t36.5 134q51 180 63.5 250.5t16.5 169.5v35h299v-21q-102 -80 -274 -596q-215 -678 -254 -819l-250 -25q0 68 -131 465q-299 911 -391 975z" />
<glyph unicode="W" horiz-adv-x="1951" d="M-8 1413v21h305v-35q0 -135 63 -379l218 -866q190 643 262 1054q25 145 26 226h252q20 -195 127 -574q39 -137 201 -706q8 39 61 227q185 670 185 1018v35h276v-21q-145 -311 -321 -1016q-88 -346 -103 -399l-262 -25q0 113 -215 867q-8 29 -18.5 68.5t-27.5 104 t-32 117.5h-4q-14 -55 -45 -152t-97.5 -328.5t-96 -358.5t-76.5 -293l-262 -25q0 98 -267 1035q-63 223 -89.5 294.5t-59.5 110.5z" />
<glyph unicode="X" horiz-adv-x="1214" d="M-29 0v20q104 59 240 273q227 346 281 434l-162 272q-215 362 -324 414v21h356v-23q0 -70 48 -164q47 -100 208 -366q115 172 170 280q100 193 101 273h295v-21q-68 -43 -116 -100.5t-191.5 -272.5t-176.5 -266l170 -272q152 -254 226.5 -351.5t136.5 -130.5v-20h-363v16 q0 68 -69 197q-100 182 -144 264l-82 141q-311 -469 -311 -620z" />
<glyph unicode="Y" horiz-adv-x="1046" d="M-31 1413v21h303v-35q0 -80 67 -223.5t99.5 -213t40.5 -83.5q27 -41 88 -166q260 563 260 686v35h238v-21q-84 -61 -428 -819v-164q0 -72 9 -219.5t20 -196.5v-14h-263v14q29 125 29 361v225l-196 387q-203 387 -267 426z" />
<glyph unicode="Z" horiz-adv-x="1052" d="M-8 104l794 1203q-47 6 -197.5 6t-293.5 -23.5t-217 -56.5h-15l35 197l875 14l69 -123l-788 -1192q47 -6 223 -6t342 18.5t230 46.5h14l-37 -188h-975z" />
<glyph unicode="[" horiz-adv-x="882" d="M195 -354l2 1904l532 6l-61 -122h-15q-90 37 -235 36h-56v-1556q0 -98 7 -190h47q143 0 237 38h15l61 -122z" />
<glyph unicode="\" horiz-adv-x="595" d="M-147 1339l94 158l10 -8q111 -297 664 -1356q14 -27 61 -109.5t76 -138.5l-94 -184l-9 8q-49 125 -254.5 555t-304.5 623z" />
<glyph unicode="]" horiz-adv-x="882" d="M154 -360l61 122h14q95 -38 238 -38h47q6 92 6 190v1556h-55q-145 0 -236 -36h-14l-61 122l532 -6l2 -1904z" />
<glyph unicode="^" horiz-adv-x="1232" d="M242 776l315 621h131l303 -621h-166l-207 436l-217 -436h-159z" />
<glyph unicode="_" horiz-adv-x="1146" d="M49 -168h1049v-115h-1049v115z" />
<glyph unicode="`" horiz-adv-x="1024" d="M270 1380q51 84 140 119q111 -197 290 -360l-47 -54q-182 100 -383 295z" />
<glyph unicode="a" horiz-adv-x="1032" d="M92 263.5q0 150.5 105.5 216t298.5 65.5l180 -6v116q0 109 -53.5 176.5t-161.5 67.5q-80 -2 -256 -154q-59 76 -84 197q203 66 373 66t272 -88.5t102 -249.5v-344q2 -92 30 -171t73 -110l4 -20l-219 -54q-27 66 -47 144q-125 -137 -282 -137q-1 0 -2 -1q-155 0 -244 68 t-89 218.5zM293 280q0 -79 43 -124t107.5 -45t132 33.5t100.5 72.5v193q-83 31 -190 31q-2 -1 -4 -1q-110 0 -158 -34q-31 -47 -31 -126z" />
<glyph unicode="b" horiz-adv-x="1204" d="M102 1456v25l283 49l12 -21q-6 -59 -6 -170v-485q170 152 339 152t276.5 -133.5t107.5 -323.5q0 -240 -145.5 -406t-335 -166t-457.5 86v13q23 61 23 280v846q0 162 -97 254zM391 180q134 -70 252 -70h2q119 0 162 25q35 41 61.5 156t26.5 221q0 342 -213 342 q-119 0 -291 -117v-557z" />
<glyph unicode="c" horiz-adv-x="1003" d="M90 481.5q0 225.5 152.5 377t348 151.5t324.5 -88q-80 -127 -104 -154q-139 106 -266 106q-47 0 -92 -6q-68 -41 -107 -142t-39 -241.5t56.5 -245t179.5 -104.5q82 0 190.5 38t143.5 65l51 -80q-262 -180 -398 -181q-205 0 -322.5 139.5t-117.5 365z" />
<glyph unicode="d" horiz-adv-x="1169" d="M100 485.5q0 219.5 134.5 371t338.5 151.5q115 0 228 -39v233q0 164 -94 254v25l280 49l12 -21q-6 -59 -6 -170v-1013q0 -92 29 -175t74 -114l4 -21l-223 -53q-20 51 -52 168q-158 -154 -303 -154q-213 0 -317.5 144.5t-104.5 364zM317 512q0 -213 109 -322 q59 -61 161.5 -61t213.5 98v578q-106 78 -266 78q-92 0 -142 -37q-76 -121 -76 -334z" />
<glyph unicode="e" horiz-adv-x="1011" d="M90 462q0 218 135 382t336 164q367 0 367 -453l-76 -74h-545q0 -172 74 -258t199 -86q49 0 139 30t160 71l51 -78q-39 -39 -169 -111t-214 -72q-215 0 -336 133.5t-121 351.5zM307 588l420 16q0 301 -203 301q-86 0 -133 -39q-39 -53 -61.5 -135t-22.5 -143z" />
<glyph unicode="f" horiz-adv-x="731" d="M82 866l47 125l117 -6v123q0 174 81 291t251 117t342 -78q-53 -129 -89 -181q-145 131 -266 132q-39 0 -84 -19q-43 -55 -43 -268v-119q150 2 297 16l-55 -149q-121 18 -242 22v-477q0 -96 18.5 -212.5t41.5 -168.5v-14h-287v14q35 102 35 334v524z" />
<glyph unicode="g" horiz-adv-x="1060" d="M59 -203q0 162 191 242q-103 43 -103 133q0 88 175 182q-180 92 -181 301q0 164 108.5 255t264.5 91t250 -53q74 0 242 17l55 -117l-187 4q53 -80 54 -188q0 -166 -108.5 -260.5t-280.5 -94.5q-61 0 -117 13q-43 -23 -71.5 -51.5t-28.5 -46t8 -28t28.5 -18.5t41 -13 t56.5 -11.5t63.5 -10.5t74.5 -11t78 -11q182 -27 264 -76t82 -166q0 -166 -153.5 -256t-366.5 -90q-154 0 -281 49q-72 29 -115 83t-43 132zM190 -160q0 -110 113 -164q113 -55 244 -55q160 0 246 72q51 41 51 104q0 53 -47 90q-41 33 -236 68q-41 8 -123.5 25.5 t-105.5 21.5q-142 -51 -142 -162zM342 692.5q0 -103.5 31 -166.5q53 -114 176 -114h2q86 0 119 28q57 66 57 202t-43 196.5t-141.5 60.5t-145.5 -27q-55 -76 -55 -179.5z" />
<glyph unicode="h" horiz-adv-x="1226" d="M102 1456v25l275 49l12 -21q-6 -59 -6 -393v-280q78 59 120 87.5t108.5 56.5t125.5 28q152 0 234 -94.5t82 -270.5v-295q0 -195 61 -334v-14h-289v14q35 102 35 273v313q0 119 -36 179.5t-149.5 60.5t-285.5 -105v-387q0 -199 60 -334v-14h-287v14q35 102 35 273v915 q0 164 -95 254z" />
<glyph unicode="i" horiz-adv-x="542" d="M96 936v25l289 49l12 -21q-6 -59 -6 -170v-483q0 -205 51 -322v-14h-276v14q33 97 33 271v397q0 182 -103 254zM137 1393v20l17 14q98 33 188 33q11 0 29 -10q28 -24 28 -113v-6q0 -23 -2 -41l-16 -14q-82 -23 -195 -33l-18 8q-31 53 -31 142z" />
<glyph unicode="j" horiz-adv-x="514" d="M-43 -440q152 94 199 297q32 137 32 430v18v371q0 186 -114 260v25l301 49l12 -21q-6 -61 -6 -174v-590q0 -311 -88 -454q-47 -78 -84 -118t-82 -77q0 -2 -96 -84zM127 1391v20l16 14q98 33 189 33q10 0 28 -10q29 -27 29 -119q0 -23 -2 -41l-16 -14q-82 -23 -195 -33 l-18 8q-31 53 -31 142z" />
<glyph unicode="k" horiz-adv-x="1093" d="M102 1456v25l281 49l12 -21q-6 -59 -6 -170v-721l348 291q57 47 58 74h235v-25q-39 -4 -192 -127l-291 -249l256 -275q141 -156 202.5 -209t118.5 -73v-25h-305q0 4 -430 516v-168q0 -227 33 -323v-25h-260v25q35 102 35 323v854q0 164 -95 254z" />
<glyph unicode="l" horiz-adv-x="540" d="M102 1456v25l281 49l12 -21q-6 -59 -6 -393l2 -768q0 -221 35 -323v-25h-264v25q35 102 35 323v854q0 164 -95 254z" />
<glyph unicode="m" horiz-adv-x="1789" d="M100 946l269 64l12 -21q16 -76 25 -153q74 63 105.5 88.5t89.5 54.5t110 29q211 0 272 -183q211 182 330 183q143 0 223 -94.5t80 -270.5v-295q0 -195 61 -334v-14h-288v14q34 99 34 264v9v313q0 240 -149 240q-125 0 -270 -107q4 -49 4 -76v-370q0 -164 30 -273v-14 h-254v14q31 109 31 273v327q0 117 -30.5 171.5t-123 54.5t-247.5 -105v-387q0 -199 59 -334v-14h-287v14q35 102 35 273v348q0 88 -35.5 173t-83.5 114z" />
<glyph unicode="n" horiz-adv-x="1239" d="M100 946l269 64l12 -21q16 -76 25 -153q76 59 117.5 87.5t107.5 56.5t125 28q147 0 228 -94.5t81 -270.5v-295q0 -195 61 -334v-14h-288v14q34 99 34 264v9v313q0 119 -35.5 179.5t-144 60.5t-278.5 -105v-387q0 -199 59 -334v-14h-287v14q35 102 35 273v348 q0 88 -35.5 173t-83.5 114z" />
<glyph unicode="o" d="M90 468q0 220 145.5 380t365.5 160t340 -133.5t120 -356.5t-145.5 -383t-360.5 -160t-340 136.5t-125 356.5zM307 518q0 -428 303 -428q94 0 154 43q39 47 59.5 145.5t20.5 188.5q0 203 -63.5 313.5t-225.5 110.5q-104 0 -164 -45q-37 -47 -60.5 -143.5t-23.5 -184.5z " />
<glyph unicode="p" horiz-adv-x="1204" d="M100 944l281 66l12 -21q-4 -47 -4 -133q170 152 339 152t276.5 -133.5t107.5 -323.5q0 -238 -141.5 -407t-321.5 -169q-119 0 -250 45v-139q4 -246 84 -344v-10l-282 -31q6 82 6 299v848q0 90 -28.5 169t-76.5 108zM399 195q130 -86 273 -86q92 0 135 24q33 39 59.5 156 t26.5 225q0 342 -207 342q-131 0 -287 -108v-553z" />
<glyph unicode="q" horiz-adv-x="1120" d="M90 485.5q0 219.5 134 371t339 151.5q145 0 283 -78l117 71q33 4 57 -4q-10 -113 -10 -297v-905q0 -217 6 -299l-285 17v10q84 102 84 352v256q-158 -154 -303 -154q-213 0 -317.5 144.5t-104.5 364zM414 190q61 -61 149 -61q51 0 119 25.5t121 72.5v578q-106 78 -279 78 q-92 0 -141 -37q-76 -120 -76 -331q0 -215 107 -325z" />
<glyph unicode="r" horiz-adv-x="772" d="M100 946l242 64q33 -55 53 -129q123 127 297 127q63 0 94 -15v-24q0 -121 -36 -219q-92 59 -209 59q-63 0 -127 -23v-438q0 -199 59 -334v-14h-287v14q35 102 35 273v348q0 88 -35.5 173t-83.5 114z" />
<glyph unicode="s" horiz-adv-x="937" d="M100 74q6 104 62 186q184 -168 336 -168q66 0 116 27q50 43 50 117q0 72 -56 111q-56 40 -136.5 62.5t-160.5 51t-136 90t-56 160.5q0 143 107.5 220t271.5 77t321 -70q-18 -90 -71 -180q-145 145 -304 145h-5q-64 0 -109 -24q-37 -37 -37 -101.5t41 -100.5t103.5 -52.5 t134 -41t134 -52t103.5 -89t41 -149.5q0 -156 -114.5 -236t-302 -80t-333.5 97z" />
<glyph unicode="t" horiz-adv-x="755" d="M37 856l49 133q37 -4 131 -8q-4 102 -12 184l209 54v-236q111 4 301 25l-58 -160q-111 16 -243 20v-639q0 -108 64 -108h1q55 0 187 65l43 -71q-66 -45 -164.5 -91.5t-180 -46.5t-112.5 51.5t-31 147.5v690z" />
<glyph unicode="u" horiz-adv-x="1232" d="M113 969v14h284v-14q-30 -106 -30 -263v-10v-321q0 -123 30.5 -176.5t149.5 -53.5t278 113v377q0 199 -59 334v14h283v-14q-31 -109 -31 -273v-346q0 -90 30.5 -177t71.5 -116l2 -24l-239 -58q-35 94 -49 181q-100 -86 -182.5 -132.5t-168.5 -46.5q-172 0 -240.5 89.5 t-68.5 275.5v293q0 195 -61 334z" />
<glyph unicode="v" horiz-adv-x="929" d="M-12 948v25l278 26v-24q0 -59 82 -309l154 -473l172 518q43 135 43 247v25h215v-25q-55 -51 -107 -198l-231 -670l-29 -104l-190 -9l-35 117l-244 674q-57 145 -108 180z" />
<glyph unicode="w" horiz-adv-x="1562" d="M-12 948v25l295 24v-24q0 -72 100 -359l137 -397q160 459 201 625q-41 96 -59 110v25l264 14v-24q0 -59 104 -367l133 -393q135 416 158 504q43 143 43 247v25h201v-25q-51 -47 -99 -198l-204 -670l-27 -108l-193 -5l-34 117l-211 547l-185 -551l-22 -108l-195 -5 l-35 117l-268 674q-57 150 -104 180z" />
<glyph unicode="x" horiz-adv-x="999" d="M-2 958v25h309v-25q4 -57 96 -180l107 -145l104 160q66 102 70 165v25h274v-25q-43 -14 -108.5 -79.5t-126.5 -161.5l-129 -197l151 -201q199 -264 261 -294v-25h-342v25q-10 100 -76 188l-123 164l-121 -187q-66 -102 -70 -165v-25h-274v25q29 12 97.5 72.5t119.5 138.5 l164 256l-168 229q-59 82 -123.5 152.5t-91.5 84.5z" />
<glyph unicode="y" horiz-adv-x="921" d="M-14 950v25l274 22v-24q0 -53 49 -206t211 -579q197 600 197 713q0 35 -15 57v25h220v-25q-31 -27 -334 -938q-145 -426 -166 -507v-17l-254 -18l-2 14q150 178 262 479q-12 35 -354 844q-41 96 -88 135z" />
<glyph unicode="z" horiz-adv-x="872" d="M31 98l547 762q-215 0 -303.5 -11t-159.5 -46l-23 14l41 172l639 -6l51 -100l-544 -762q336 0 522 59l22 -10l-57 -170h-686z" />
<glyph unicode="{" horiz-adv-x="847" d="M109 549v14q49 31 76.5 52.5t60.5 84t33 144.5v256q0 270 73 358q76 90 236 90q80 0 186 -26l-14 -70q-74 8 -137.5 8t-101.5 -23.5t-54 -72.5q-25 -76 -25 -219v-252q0 -158 -65 -236q-33 -39 -53.5 -55t-61.5 -41v-6q180 -96 180 -344v-152q0 -205 41 -260 q47 -66 126 -65.5t153 8.5l14 -70q-106 -27 -187 -26.5t-139.5 24t-92 60.5t-52.5 98q-29 98 -29 266v191q0 127 -63 188q-45 43 -104 76z" />
<glyph unicode="|" horiz-adv-x="464" d="M150 1438v14l165 61q-14 -194 -14 -284v-1530l-149 -61z" />
<glyph unicode="}" horiz-adv-x="849" d="M72 1509l2 13q106 27 190 26.5t143.5 -27t91 -64.5t48.5 -105q25 -98 24 -252v-256q0 -82 33 -144.5t60.5 -84t76.5 -52.5v-14q-123 -66 -151 -154q-16 -47 -17 -110v-191q0 -270 -73 -356q-76 -92 -236 -92q-82 0 -188 26l-2 13q14 49 18 57q74 -8 131.5 -8t92 19.5 t52 45t25.5 74.5q15 71 15 186v152q0 248 180 344v6q-41 25 -61.5 41t-53.5 55q-66 78 -65 236v252q0 143 -20.5 205.5t-58.5 86t-101.5 23.5t-137.5 -8q-4 8 -18 57z" />
<glyph unicode="~" horiz-adv-x="1310" d="M164 608q168 88 276 88q63 0 209 -50t213 -50q113 0 219 74l66 -133q-156 -82 -283 -82q-68 0 -207 49t-204 49q-111 0 -224 -80z" />
<glyph unicode="&#xa1;" horiz-adv-x="548" d="M131 938v20l16 17q96 31 168 31q8 0 27 -11q25 -61 25 -137v-16l-17 -17q-104 -27 -172 -30l-20 8q-27 57 -27 135zM154 -457q12 92 49 1073l145 27q-2 -16 -2 -108.5t4 -276.5t6 -245.5t4 -101.5t4.5 -69.5t4.5 -60.5q14 -143 77 -189v-20l-280 -49z" />
<glyph unicode="&#xa2;" horiz-adv-x="995" d="M82 471q0 213 126 357.5t308 175.5q0 102 -8 192l113 53l8 -14q-14 -123 -15 -225q176 -8 293 -88q-80 -127 -104 -154q-94 72 -189 96v-721q76 14 153 45t101 50l52 -80l-11 -8q-168 -119 -295 -156q0 -158 9 -230l-121 -32l-8 14q18 125 20 231q-201 3 -316.5 142 t-115.5 352zM299 487.5q0 -137.5 52 -241t165 -111.5v739q-23 0 -72 -6q-67 -41 -106 -142t-39 -238.5z" />
<glyph unicode="&#xa3;" horiz-adv-x="1007" d="M29 0l69 102q143 31 218 119t75 211q0 82 -80 285h-4q-133 0 -274 -12l51 131h14q84 -18 166 -19q-84 160 -84 270q0 145 124 258t325.5 113t318.5 -76q-74 -113 -90 -131q-125 92 -252 92q-45 0 -86 -6q-55 -33 -89 -102.5t-34 -148t68 -267.5q43 0 137 4t141 4 l-51 -129h-14q-78 10 -170 15q63 -154 63 -234q0 -168 -217 -356q406 0 590 125h21l-56 -248h-880z" />
<glyph unicode="&#xa4;" horiz-adv-x="1132" d="M92 319l158 148q-86 121 -86 250t86 252q-10 10 -69.5 65.5t-88.5 83.5l125 51l117 -127q96 76 229 76t236 -74l116 127l125 -51l-161 -151h2q86 -111 86 -253.5t-88 -248.5l161 -152l-125 -51l-116 127q-102 -74 -232.5 -74t-234.5 76l-115 -127zM307 719.5 q0 -111.5 73 -189t183.5 -77.5t185 77.5t74.5 189t-74.5 189.5t-185 78t-183.5 -78t-73 -189.5z" />
<glyph unicode="&#xa5;" horiz-adv-x="1114" d="M4 1413v21h303v-35q0 -80 66.5 -223.5t99.5 -213t43 -83.5q20 -35 86 -168q260 567 260 688v35h238v-21q-53 -39 -162 -258q-18 -39 -78 -156q-131 -256 -186 -372h155q90 0 285 14l-47 -139h-395v-72q0 -72 9 -219.5t19 -196.5v-14h-262v14q29 125 29 361v127h-162 q-92 0 -285 -15l56 140h379l-185 360q-203 387 -266 426z" />
<glyph unicode="&#xa6;" horiz-adv-x="464" d="M150 477h151v-719l-149 -61zM150 754v706l165 62q-14 -195 -14 -285v-483h-151z" />
<glyph unicode="&#xa7;" horiz-adv-x="1159" d="M96 954q0 246 153.5 380t343 134t343.5 -67q-4 -106 -66 -199q-131 145 -288 146q-70 0 -127 -23q0 -215 118 -362q51 -63 115 -122t127.5 -118t116.5 -125q119 -150 119 -373q0 -264 -150.5 -428t-357.5 -164q-94 0 -204 35t-189 96q6 125 65 205q178 -203 369 -202 q49 0 90 10v16q0 256 -111 424q-78 117 -235 270q-63 59 -115 123q-117 145 -117 344zM240 987q0 -174 112 -307q51 -57 110.5 -116.5t119 -127t106.5 -145.5q100 -164 100 -420v-37q104 123 104.5 343.5t-110.5 359.5q-47 61 -105.5 117.5t-117.5 115.5t-108 125 q-106 145 -107 375q-104 -92 -104 -283z" />
<glyph unicode="&#xa8;" horiz-adv-x="1024" d="M168 1348l20 18q78 27 148 31h33l16 -8q14 -16 21.5 -60.5t7.5 -67t-2 -36.5l-17 -15q-74 -25 -149 -30h-27l-20 6q-31 61 -31 162zM610 1368l21 16q74 27 145 31h35l16 -8q14 -16 21.5 -60t7.5 -67t-2 -37l-16 -14q-76 -25 -152 -31h-24l-21 6q-31 61 -31 164z" />
<glyph unicode="&#xa9;" horiz-adv-x="1552" d="M63 727q0 301 210 515t505 214t503 -212t208 -515t-206 -517t-503 -214t-507 214t-210 515zM193 726q0 -253 172 -432t412.5 -179t414.5 178t174 432t-171 434t-414.5 180t-415.5 -180t-172 -433zM416 733q0 172 127 288t284.5 116t259.5 -68q-61 -96 -81 -117 q-115 82 -211 82q-35 0 -76 -6q-53 -29 -83 -106.5t-30 -185t45 -187.5t142 -80q66 0 153.5 29.5t112.5 48.5l39 -62q-205 -137 -320 -137q-168 0 -265 106.5t-97 278.5z" />
<glyph unicode="&#xaa;" horiz-adv-x="727" d="M59 999q0 178 263 179l116 -4v65q0 61 -31.5 100t-89 39t-182.5 -114q-53 68 -59 143q145 45 261 45t184.5 -54.5t68.5 -154.5v-209q0 -129 61 -174l4 -14l-170 -31q-18 39 -28 82q-90 -80 -185.5 -80t-154 43t-58.5 139zM219 1006q0 -98 88 -99q33 0 73 20.5t56 45.5 v108q-47 18 -109.5 18.5t-90.5 -22.5q-16 -33 -17 -71z" />
<glyph unicode="&#xab;" horiz-adv-x="1175" d="M129 580q100 63 117 77l305 277l76 -72l-41 -47l-240 -258l281 -307l-78 -76q-8 8 -25 27q-39 41 -59 57l-256 229l-72 62zM551 580q100 63 117 77l305 277l76 -72l-41 -47l-240 -258l281 -307l-78 -76q-8 8 -25 27q-39 41 -59 57l-256 229l-72 62z" />
<glyph unicode="&#xac;" horiz-adv-x="1165" d="M8 735v139h1149v-583h-143v444h-1006z" />
<glyph unicode="&#xad;" horiz-adv-x="724" d="M2 500l61 162h15q82 -18 184 -19l176 2q45 0 140.5 4t144.5 4l-61 -159h-15q-139 18 -371 18z" />
<glyph unicode="&#xae;" horiz-adv-x="1552" d="M63 727q0 301 210 515t505 214t503 -212t208 -515t-206 -517t-503 -214t-507 214t-210 515zM193 726q0 -253 172 -432t412.5 -179t414.5 178t174 432t-171 434t-414.5 180t-415.5 -180t-172 -433zM473 360v9q23 57 23 159v424q0 119 -19 170v6l84 -2l236 2 q137 0 217 -36.5t80 -139t-68 -166t-168 -75.5l127 -160q127 -160 191 -180v-11h-234q-49 70 -235 347q-25 0 -41 4v-172q0 -123 14 -170v-9h-207zM666 762q27 -2 75 -2q92 0 129 42t37 125t-34.5 114.5t-108.5 31.5t-96 -4q-2 -25 -2 -307z" />
<glyph unicode="&#xaf;" horiz-adv-x="1024" d="M231 1223v157h562v-157h-562z" />
<glyph unicode="&#xb0;" horiz-adv-x="739" d="M80 1154q0 128 81 211t208 83t208.5 -80t81.5 -208t-78.5 -210t-206.5 -82t-211 79t-83 207zM174.5 1150q-0.5 -87 54 -128t161 -41t157.5 51q20 43 20 103q0 201 -211 200q-111 0 -161 -55q-20 -43 -20.5 -130z" />
<glyph unicode="&#xb1;" horiz-adv-x="1228" d="M86 23l2 137l1055 -2l-2 -135h-1055zM86 782l2 138l449 -2l2 450l137 -2v-448h467l-2 -136h-465v-450h-139v450h-451z" />
<glyph unicode="&#xb2;" horiz-adv-x="739" d="M68 653q244 244 313 355q84 137 84 248.5t-94 111.5q-47 0 -114 -47t-112 -100q-61 66 -65 161q152 76 286 76t200.5 -51t66.5 -131t-33 -156t-102 -162q-106 -129 -254 -276h131q225 12 284 63l11 -8l-49 -166h-529z" />
<glyph unicode="&#xb3;" horiz-adv-x="692" d="M49 631v14q0 76 37 115q121 -98 204 -98t122 20q59 47 59 172q0 80 -41 113.5t-125 33.5t-121 -6h-6l-20 86h106q66 0 109 48.5t43 111.5q0 131 -109 131q-100 0 -205 -119q-41 66 -47 156q143 49 256 49t191 -43t78 -131t-50.5 -146.5t-103.5 -70.5q213 -29 213 -221 q0 -121 -96.5 -203t-240.5 -82t-253 70z" />
<glyph unicode="&#xb4;" horiz-adv-x="1024" d="M297 1139q180 164 291 360q88 -35 139 -119q-201 -195 -383 -295z" />
<glyph unicode="&#xb5;" horiz-adv-x="1239" d="M119 969v14h284v-14q-31 -109 -30 -273v-321q0 -123 30.5 -176.5t149.5 -53.5t278 113v377q0 199 -59 334v14h283v-14q-31 -109 -31 -273v-346q0 -90 30.5 -177t71.5 -116l2 -24l-239 -58q-35 94 -49 181q-107 -90 -187 -134.5t-166 -44.5t-153 27q23 -158 61 -240 q55 -117 156 -176l4 -24l-328 -56q-47 418 -47 676v451q0 195 -61 334z" />
<glyph unicode="&#xb6;" horiz-adv-x="1351" d="M10 939q0 210 140.5 345t367.5 135l807 11l-51 -132h-14q-98 25 -259 29v-1558q0 -190 9 -277l-172 -33l-9 15q23 158 23 303v1550h-182q-6 -471 -6 -1038.5t8 -653.5l-172 -32l-8 14q23 158 22 303v516q-229 2 -366.5 147.5t-137.5 355.5z" />
<glyph unicode="&#xb7;" horiz-adv-x="602" d="M141 637v22l21 19q113 39 217 39h20l23 -12q35 -31 35 -142q0 -27 -4 -49l-21 -18q-102 -31 -231 -39l-25 10q-35 68 -35 170z" />
<glyph unicode="&#xb8;" horiz-adv-x="1024" d="M498 -399l32 65q70 -35 138 -35q106 0 106 93q0 43 -24 67q-31 14 -73 14t-85 -8l-12 19l86 180l110 -14l-74 -121q20 6 76 5t104 -39t48 -115t-65.5 -124t-157.5 -47q-47 0 -115 21.5t-94 38.5z" />
<glyph unicode="&#xb9;" horiz-adv-x="536" d="M33 1346q154 33 231 88h133q-6 -105 -6 -142v-477q0 -172 19 -250v-8h-201v8q20 59 20 240v366q0 86 -6 117q-96 -23 -176 -24z" />
<glyph unicode="&#xba;" horiz-adv-x="804" d="M82 1120q0 137 95 235.5t241.5 98.5t225.5 -82t79 -221t-95.5 -237.5t-237.5 -98.5t-225 84t-83 221zM242 1151q0 -254 182 -254q57 0 90 25q49 61 49 189t-38 193.5t-134 65.5q-66 0 -98 -24q-51 -61 -51 -195z" />
<glyph unicode="&#xbb;" horiz-adv-x="1175" d="M127 250l281 307l-240 258l-41 47l76 72l305 -277q17 -14 117 -77l-9 -31l-71 -62q-283 -254 -307.5 -279.5t-32.5 -33.5zM549 250l280 307l-239 258l-41 47l76 72l305 -277q17 -14 117 -77l-9 -31l-71 -62q-283 -254 -307.5 -279.5t-32.5 -33.5z" />
<glyph unicode="&#xbc;" horiz-adv-x="1585" d="M33 1346q154 33 231 88h133q-6 -105 -6 -142v-477q0 -172 19 -250v-8h-201v8q20 59 20 240v366q0 86 -6 117q-96 -23 -176 -24zM145 -27q129 129 592 834q145 219 424 666l168 12l12 -15q-139 -139 -563 -794q-238 -365 -315 -486l-133 -219l-172 -12zM823 297 q197 336 348 567l205 15q-4 -111 -4 -553q33 0 95.5 4t66.5 4l-25 -127h-135q0 -127 19 -201v-6h-195v6q10 53 14 191v10h-338zM950 319q88 1 264 5v440q-127 -199 -264 -445z" />
<glyph unicode="&#xbd;" horiz-adv-x="1652" d="M33 1346q154 33 231 88h133q-6 -105 -6 -142v-477q0 -172 19 -250v-8h-201v8q20 59 20 240v366q0 86 -6 117q-96 -23 -176 -24zM141 -27q129 129 592 834q145 219 424 666l168 12l12 -15q-139 -139 -563 -794q-238 -365 -315 -486l-133 -219l-172 -12zM981 82 q244 244 313 354q84 137 84 249t-94 112q-47 0 -113.5 -47.5t-111.5 -100.5q-61 66 -66 162q152 76 286 76t200.5 -51.5t66.5 -131t-32.5 -155.5t-102.5 -160q-106 -131 -254 -278h131q225 12 285 63l10 -8l-49 -166h-528z" />
<glyph unicode="&#xbe;" horiz-adv-x="1792" d="M49 631v14q0 76 37 115q121 -98 204 -98t122 20q59 47 59 172q0 80 -41 113.5t-125 33.5t-121 -6h-6l-20 86h106q66 0 109 48.5t43 111.5q0 131 -109 131q-100 0 -205 -119q-41 66 -47 156q143 49 256 49t191 -43t78 -131t-50.5 -146.5t-103.5 -70.5q213 -29 213 -221 q0 -121 -96.5 -203t-240.5 -82t-253 70zM283 -27q129 129 591 834q145 219 424 666l168 12l13 -15q-139 -139 -566 -794q-236 -365 -313 -486l-133 -219l-172 -12zM1030 297q197 336 348 567l205 15q-4 -111 -4 -553q33 0 95.5 4t66.5 4l-25 -127h-135q0 -127 18 -201v-6 h-194v6q10 53 14 191v10h-338zM1157 319q88 1 264 5v440q-127 -199 -264 -445z" />
<glyph unicode="&#xbf;" horiz-adv-x="880" d="M76 -131q0 100 40 192.5t89 150.5t117 107q80 61 151 97v47t-22 110v15q41 8 88 8t96 -8v-15q-23 -96 -23 -135t2 -51l-24 -18q-133 -93 -225.5 -216.5t-92.5 -238.5q0 -229 193 -229q133 0 274 116q49 -88 49 -196v-25q-150 -55 -328.5 -55t-281 87t-102.5 257zM420 926 q0 20 2 37l16 16q70 20 156 27l20 -9q25 -51 25 -90t-4 -63l-17 -17q-68 -23 -153 -28l-19 10q-27 27 -26 117z" />
<glyph unicode="&#xc0;" d="M-55 0v20q88 68 237 553q244 786 250 863l238 24q0 -70 125 -439.5t204.5 -582.5t121.5 -292.5t93 -125.5v-20h-344v35q0 88 -43 219q-8 23 -25.5 76t-31 88t-25.5 82q-78 2 -222 2t-220 -2q-55 -236 -67.5 -307.5t-12.5 -157.5v-35h-278zM250 1651q12 94 76 166 q177 -135 413 -211l-20 -68q-233 18 -469 113zM332 616h377q-35 117 -106 367t-85 299q-29 -70 -107.5 -367t-78.5 -299z" />
<glyph unicode="&#xc1;" d="M-55 0v20q88 68 237 553q244 786 250 863l238 24q0 -70 125 -439.5t204.5 -582.5t121.5 -292.5t93 -125.5v-20h-344v35q0 88 -43 219q-8 23 -25.5 76t-31 88t-25.5 82q-78 2 -222 2t-220 -2q-55 -236 -67.5 -307.5t-12.5 -157.5v-35h-278zM332 616h377q-35 117 -106 367 t-85 299q-29 -70 -107.5 -367t-78.5 -299zM418 1606q236 76 413 211q63 -72 76 -166q-236 -95 -469 -113z" />
<glyph unicode="&#xc2;" d="M-55 0v20q88 68 237 553q244 786 250 863l238 24q0 -70 125 -439.5t204.5 -582.5t121.5 -292.5t93 -125.5v-20h-344v35q0 88 -43 219q-8 23 -25.5 76t-31 88t-25.5 82q-78 2 -222 2t-220 -2q-55 -236 -67.5 -307.5t-12.5 -157.5v-35h-278zM215 1567q178 155 246 282h164 q53 -109 153 -200q35 -33 103 -90l-58 -64q-145 84 -286 236q-135 -135 -263 -226zM332 616h377q-35 117 -106 367t-85 299q-29 -70 -107.5 -367t-78.5 -299z" />
<glyph unicode="&#xc3;" d="M-55 0v20q88 68 237 553q244 786 250 863l238 24q0 -70 125 -439.5t204.5 -582.5t121.5 -292.5t93 -125.5v-20h-344v35q0 88 -43 219q-8 23 -25.5 76t-31 88t-25.5 82q-78 2 -222 2t-220 -2q-55 -236 -67.5 -307.5t-12.5 -157.5v-35h-278zM197 1657q49 61 123.5 127.5 t120.5 66.5t145.5 -44t142.5 -44q80 0 189 76l38 -35q-157 -205 -233 -205q-49 0 -152.5 49.5t-153.5 49.5t-87 -17.5t-92 -60.5zM332 616h377q-35 117 -106 367t-85 299q-29 -70 -107.5 -367t-78.5 -299z" />
<glyph unicode="&#xc4;" horiz-adv-x="1218" d="M-37 0v20q88 68 238 553q244 786 250 863l237 24q0 -70 125 -439.5t205 -582.5t122 -292.5t93 -125.5v-20h-344v35q0 88 -45 219q-6 23 -23.5 76t-31 88t-25.5 82q-78 2 -222.5 2t-219.5 -2q-55 -236 -67.5 -307.5t-12.5 -157.5v-35h-279zM258 1694l21 16q74 27 143 31 h33l16 -8q14 -16 21.5 -59.5t7.5 -66t-2 -34.5l-17 -14q-74 -25 -147 -31h-25l-20 6q-31 61 -31 160zM350 616h377q-35 117 -105.5 367t-84.5 299q-29 -70 -108 -367t-79 -299zM664 1712l20 17q74 27 143 30h33l17 -8q14 -16 21 -60t7 -65.5t-2 -34.5l-16 -14 q-74 -25 -148 -31h-24l-21 6q-31 61 -30 160z" />
<glyph unicode="&#xc5;" horiz-adv-x="1218" d="M-37 0v20q88 68 238 553q244 786 250 863l28 2q-53 23 -91 73t-38 107q0 92 61.5 153.5t147.5 61.5q88 0 143.5 -57.5t55.5 -135.5q0 -123 -103 -184l33 4q0 -70 125 -439.5t205 -582.5t122 -292.5t93 -125.5v-20h-344v35q0 88 -45 219q-6 23 -23.5 76t-31 88t-25.5 82 q-78 2 -222.5 2t-219.5 -2q-55 -236 -67.5 -307.5t-12.5 -157.5v-35h-279zM350 616h377q-35 117 -105.5 367t-84.5 299q-29 -70 -108 -367t-79 -299zM440 1647q0 -61 33 -93t85 -32t81 18q27 27 27 83t-32 89t-93 33q-100 0 -101 -98z" />
<glyph unicode="&#xc6;" horiz-adv-x="1771" d="M-20 0v20q47 31 139 170q25 37 55.5 90.5t54 92.5t55 97t48.5 89q66 123 172 322q252 463 264 553h51l828 6l-52 -154h-14q-121 31 -292 31t-218 -4q-4 -78 -4 -545l487 10l-59 -141h-14q-139 16 -221 16t-193 -6q0 -457 8 -518q47 -6 156 -6q322 0 469 65h14l-37 -188 h-858v14q33 127 33 416v127h-160q-115 0 -200 -2q-51 -86 -149.5 -291t-98.5 -264h-264zM549 676h303v328q0 82 -8 225h-13z" />
<glyph unicode="&#xc7;" horiz-adv-x="1347" d="M100 688q0 354 216 562t569 208q68 0 175 -24.5t200 -73.5q-25 -129 -86 -217q-209 170 -445 170q-86 0 -156 -15q-242 -184 -241 -546q0 -248 142 -427.5t376 -179.5q139 0 385 140l55 -84q-215 -156 -358 -199q-68 -20 -131 -27l-66 -108q20 6 75.5 5t104 -39 t48.5 -114.5t-66 -124t-158 -47.5q-47 0 -114.5 21.5t-94.5 38.5l33 65q70 -35 137 -34q106 0 107 92q0 43 -25 67q-31 14 -72.5 14.5t-84.5 -8.5l-13 19l74 155q-256 27 -421 218.5t-165 492.5z" />
<glyph unicode="&#xc8;" horiz-adv-x="1173" d="M221 0v14q33 127 33 416v574q0 289 -33 415v15l828 6l-52 -154h-14q-121 31 -292 31t-218 -4q-4 -78 -4 -504l487 10l-59 -141h-14q-139 16 -221 16t-193 -6q0 -498 8 -559q47 -6 156 -6q322 0 469 65h14l-37 -188h-858zM344 1651q12 94 76 166q178 -135 414 -211 l-21 -68q-233 18 -469 113z" />
<glyph unicode="&#xc9;" horiz-adv-x="1173" d="M221 0v14q33 127 33 416v574q0 289 -33 415v15l828 6l-52 -154h-14q-121 31 -292 31t-218 -4q-4 -78 -4 -504l487 10l-59 -141h-14q-139 16 -221 16t-193 -6q0 -498 8 -559q47 -6 156 -6q322 0 469 65h14l-37 -188h-858zM487 1606q236 76 414 211q63 -72 76 -166 q-236 -95 -469 -113z" />
<glyph unicode="&#xca;" horiz-adv-x="1173" d="M221 0v14q33 127 33 416v574q0 289 -33 415v15l828 6l-52 -154h-14q-121 31 -292 31t-218 -4q-4 -78 -4 -504l487 10l-59 -141h-14q-139 16 -221 16t-193 -6q0 -498 8 -559q47 -6 156 -6q322 0 469 65h14l-37 -188h-858zM352 1567q178 155 246 282h164q53 -109 151 -200 q37 -33 105 -90l-57 -64q-145 84 -287 236q-135 -135 -262 -226z" />
<glyph unicode="&#xcb;" horiz-adv-x="1173" d="M221 0v14q33 127 33 416v574q0 289 -33 415v15l828 6l-52 -154h-14q-121 31 -292 31t-218 -4q-4 -78 -4 -504l487 10l-59 -141h-14q-139 16 -221 16t-193 -6q0 -498 8 -559q47 -6 156 -6q322 0 469 65h14l-37 -188h-858zM352 1692l21 16q74 27 143 31h33l16 -8 q14 -16 21.5 -60.5t7.5 -66t-2 -33.5l-17 -15q-74 -25 -147 -30h-25l-20 6q-31 61 -31 160zM758 1710l20 16q74 27 144 31h32l17 -8q14 -16 21 -59t7 -65.5t-2 -35.5l-16 -14q-74 -25 -147 -31h-25l-21 6q-31 61 -30 160z" />
<glyph unicode="&#xcc;" horiz-adv-x="722" d="M29 1651q12 94 75 166q178 -135 414 -211l-20 -68q-233 18 -469 113zM221 0v14q31 119 31 437v553q0 297 -31 415v15h273v-15q-12 -47 -21.5 -202.5t-9.5 -233.5v-553q0 -76 9 -222.5t22 -193.5v-14h-273z" />
<glyph unicode="&#xcd;" horiz-adv-x="722" d="M207 1606q236 76 414 211q63 -72 75 -166q-236 -95 -469 -113zM233 0v14q31 119 31 437v553q0 297 -31 415v15h273v-15q-12 -47 -21.5 -202.5t-9.5 -233.5v-553q0 -76 9.5 -222.5t21.5 -193.5v-14h-273z" />
<glyph unicode="&#xce;" horiz-adv-x="712" d="M27 1567q177 155 245 282h164q53 -109 154 -200q35 -33 102 -90l-57 -64q-145 84 -287 236q-135 -135 -262 -226zM221 0v14q31 119 31 437v553q0 297 -31 415v15h273v-15q-12 -47 -21.5 -202.5t-9.5 -233.5v-553q0 -76 9 -222.5t22 -193.5v-14h-273z" />
<glyph unicode="&#xcf;" horiz-adv-x="712" d="M37 1696l20 16q74 27 144 31h32l17 -8q14 -16 21.5 -60.5t7.5 -66t-3 -33.5l-16 -14q-74 -25 -147 -31h-25l-20 6q-31 61 -31 160zM229 0v14q31 119 31 437v553q0 297 -31 415v15h273v-15q-12 -47 -21.5 -202.5t-9.5 -233.5v-553q0 -76 9 -222.5t22 -193.5v-14h-273z M442 1714l21 17q74 27 143 30h33l16 -8q14 -16 21.5 -59t7.5 -65.5t-2 -35.5l-16 -14q-74 -25 -148 -31h-24l-21 6q-31 61 -31 160z" />
<glyph unicode="&#xd0;" horiz-adv-x="1519" d="M4 709l47 114h15q74 -6 163 -6v187q0 289 -32 415v15l118 -4q379 6 385 6q362 0 540.5 -165t178.5 -507q0 -215 -67 -383q-154 -381 -645 -381l-390 2h-120v14q33 127 32 416v287zM440 684q0 -471 9 -532q122 -13 249 -13q248 0 355 64q135 154 135 501t-124 478 t-417 131q-6 0 -203 -2q-4 -76 -4 -492h23q68 0 305 8l-51 -118h-15q-150 10 -262 12v-37z" />
<glyph unicode="&#xd1;" horiz-adv-x="1462" d="M162 0v14q31 135 31 475v459q0 315 -27 471v15l248 18l716 -1114v666q0 109 -12 236.5t-31 178.5v15h216v-15q-31 -135 -31 -475v-514q0 -123 9 -263t17 -167l-192 -20l-774 1198v-748q0 -272 37 -416v-14h-207zM379 1657q49 61 124 127.5t121 66.5t145 -44t142 -44 q80 0 189 76l39 -35q-158 -205 -234 -205q-49 0 -152.5 49.5t-153.5 49.5t-87 -17.5t-92 -60.5z" />
<glyph unicode="&#xd2;" horiz-adv-x="1542" d="M100 705.5q0 316.5 199 536.5t512 220q203 0 348 -100q283 -195 283 -608q0 -338 -200 -558.5t-495.5 -220.5t-471 207t-175.5 523.5zM332 740q0 -167 43 -301t154.5 -226t274.5 -92t269 67q137 154 137 510q0 262 -98 428q-109 186 -364 187q-180 0 -283 -64 q-59 -74 -96 -208t-37 -301zM459 1651q12 94 76 166q177 -135 413 -211l-20 -68q-233 18 -469 113z" />
<glyph unicode="&#xd3;" horiz-adv-x="1542" d="M100 705.5q0 316.5 199 536.5t512 220q203 0 348 -100q283 -195 283 -608q0 -338 -200 -558.5t-495.5 -220.5t-471 207t-175.5 523.5zM332 740q0 -167 43 -301t154.5 -226t274.5 -92t269 67q137 154 137 510q0 262 -98 428q-109 186 -364 187q-180 0 -283 -64 q-59 -74 -96 -208t-37 -301zM584 1606q236 76 413 211q63 -72 76 -166q-236 -95 -469 -113z" />
<glyph unicode="&#xd4;" horiz-adv-x="1542" d="M100 705.5q0 316.5 199 536.5t512 220q203 0 348 -100q283 -195 283 -608q0 -338 -200 -558.5t-495.5 -220.5t-471 207t-175.5 523.5zM332 740q0 -167 43 -301t154.5 -226t274.5 -92t269 67q137 154 137 510q0 262 -98 428q-109 186 -364 187q-180 0 -283 -64 q-59 -74 -96 -208t-37 -301zM440 1567q178 155 246 282h164q53 -109 154 -200q35 -33 102 -90l-57 -64q-145 84 -287 236q-135 -135 -262 -226z" />
<glyph unicode="&#xd5;" horiz-adv-x="1542" d="M100 705.5q0 316.5 199 536.5t512 220q203 0 348 -100q283 -195 283 -608q0 -338 -200 -558.5t-495.5 -220.5t-471 207t-175.5 523.5zM332 740q0 -167 43 -301t154.5 -226t274.5 -92t269 67q137 154 137 510q0 262 -98 428q-109 186 -364 187q-180 0 -283 -64 q-59 -74 -96 -208t-37 -301zM389 1657q49 61 124 127.5t121 66.5t145.5 -44t142.5 -44q80 0 188 76l39 -35q-158 -205 -234 -205q-49 0 -152.5 49.5t-153.5 49.5t-87 -17.5t-92 -60.5z" />
<glyph unicode="&#xd6;" horiz-adv-x="1542" d="M100 705.5q0 316.5 199 536.5t512 220q203 0 348 -100q283 -195 283 -608q0 -338 -200 -558.5t-495.5 -220.5t-471 207t-175.5 523.5zM332 740q0 -167 43 -301t154.5 -226t274.5 -92t269 67q137 154 137 510q0 262 -98 428q-109 186 -364 187q-180 0 -283 -64 q-59 -74 -96 -208t-37 -301zM442 1694l21 16q74 27 143 31h33l16 -8q14 -16 21.5 -59.5t7.5 -66t-2 -34.5l-16 -14q-74 -25 -148 -31h-24l-21 6q-31 61 -31 160zM848 1712l20 17q74 27 144 30h32l17 -8q14 -16 21.5 -60t7.5 -65.5t-3 -34.5l-16 -14q-74 -25 -147 -31h-25 l-20 6q-31 61 -31 160z" />
<glyph unicode="&#xd7;" horiz-adv-x="1157" d="M147 332l328 321l-328 322l105 104l326 -325l323 325l105 -106l-326 -322l330 -321l-105 -105l-330 326l-323 -326z" />
<glyph unicode="&#xd8;" horiz-adv-x="1589" d="M100 711q0 309 201 530t494 221q250 0 413 -135l103 164l178 27v-13q-74 -86 -207 -254q160 -195 160 -514t-201 -540.5t-493 -221.5q-186 0 -330 86q-76 -109 -121 -186l-188 -33v13q63 74 217 274q-226 203 -226 582zM332 760q0 -322 114 -475q190 248 650 882 q-119 146 -361 146q-70 0 -150.5 -18.5t-119.5 -45.5q-59 -74 -96 -212t-37 -277zM522 207q115 -86 307 -86q141 0 244 67q68 74 102.5 212.5t34.5 281.5q0 260 -61 395q-133 -176 -627 -870z" />
<glyph unicode="&#xd9;" horiz-adv-x="1435" d="M150 1419v15h266v-15q-27 -174 -27 -667v-134q0 -170 16.5 -256t28.5 -108.5t31.5 -53t44.5 -44t59 -27.5q51 -23 168 -23q184 0 277 62q53 86 67.5 235.5t14.5 496.5t-31 519v15h213v-15q-12 -49 -21.5 -185t-9.5 -208v-389q0 -197 -29.5 -324t-98 -202.5t-167 -105.5 t-247.5 -30q-291 0 -408 138.5t-117 449.5v432q0 305 -30 424zM403 1651q12 94 76 166q178 -135 414 -211l-21 -68q-233 18 -469 113z" />
<glyph unicode="&#xda;" horiz-adv-x="1435" d="M150 1419v15h266v-15q-27 -174 -27 -667v-134q0 -170 16.5 -256t28.5 -108.5t31.5 -53t44.5 -44t59 -27.5q51 -23 168 -23q184 0 277 62q53 86 67.5 235.5t14.5 496.5t-31 519v15h213v-15q-12 -49 -21.5 -185t-9.5 -208v-389q0 -197 -29.5 -324t-98 -202.5t-167 -105.5 t-247.5 -30q-291 0 -408 138.5t-117 449.5v432q0 305 -30 424zM561 1606q236 76 414 211q63 -72 76 -166q-236 -95 -469 -113z" />
<glyph unicode="&#xdb;" horiz-adv-x="1435" d="M150 1419v15h266v-15q-27 -174 -27 -667v-134q0 -170 16.5 -256t28.5 -108.5t31.5 -53t44.5 -44t59 -27.5q51 -23 168 -23q184 0 277 62q53 86 67.5 235.5t14.5 496.5t-31 519v15h213v-15q-12 -49 -21.5 -185t-9.5 -208v-389q0 -197 -29.5 -324t-98 -202.5t-167 -105.5 t-247.5 -30q-291 0 -408 138.5t-117 449.5v432q0 305 -30 424zM399 1567q178 155 246 282h164q53 -109 154 -200q35 -33 102 -90l-57 -64q-145 84 -287 236q-135 -135 -262 -226z" />
<glyph unicode="&#xdc;" horiz-adv-x="1523" d="M219 1419v15h266v-15q-27 -172 -26 -667v-134q0 -170 16.5 -256t28.5 -108.5t31.5 -53t44 -44t59.5 -27.5q51 -23 168 -23q184 0 276 62q53 86 67.5 235.5t14.5 496.5t-30 519v15h213v-15q-12 -49 -21.5 -185t-9.5 -208v-389q0 -197 -30 -324t-98.5 -202.5t-166.5 -105.5 t-248 -30q-291 0 -407.5 138.5t-116.5 449.5v432q0 305 -31 424zM481 1694l21 16q74 27 143 31h33l16 -8q14 -16 21.5 -59.5t7.5 -66t-2 -34.5l-16 -14q-74 -25 -148 -31h-25l-20 6q-31 61 -31 160zM887 1712l20 17q74 27 144 30h32l17 -8q14 -16 21 -60t7 -65.5t-2 -34.5 l-16 -14q-74 -25 -147 -31h-25l-20 6q-31 61 -31 160z" />
<glyph unicode="&#xdd;" horiz-adv-x="1046" d="M-31 1413v21h303v-35q0 -80 67 -223.5t99.5 -213t40.5 -83.5q27 -41 88 -166q260 563 260 686v35h238v-21q-84 -61 -428 -819v-164q0 -72 9 -219.5t20 -196.5v-14h-263v14q29 125 29 361v225l-196 387q-203 387 -267 426zM367 1606q236 76 413 211q63 -72 76 -166 q-236 -95 -469 -113z" />
<glyph unicode="&#xde;" horiz-adv-x="1269" d="M221 0v14q39 104 39 293v742q-4 260 -31 368v15h273v-15q-6 -33 -19 -157h185q524 0 524 -392q0 -221 -154.5 -345t-398.5 -124q-37 0 -168 17v-137q0 -170 39 -267v-12h-289zM471 514q80 -23 166 -22q158 0 241 93t83 254.5t-73 238.5t-227.5 77t-185.5 -4 q-4 -55 -4 -358v-279z" />
<glyph unicode="&#xdf;" horiz-adv-x="1230" d="M72 817l47 125l117 -6v94q0 211 130 348.5t322 137.5q137 0 222 -65t85 -200q0 -111 -90 -182q-37 -31 -74 -61q-90 -72 -90 -172q0 -111 156 -189q63 -31 126.5 -68.5t109 -108.5t45.5 -173q0 -145 -93 -231q-94 -88 -254.5 -88.5t-271.5 83.5q2 104 39 175 q37 -49 113.5 -91.5t142.5 -42.5t94 19q33 35 33 162q0 113 -145 192q-61 35 -122 73t-103 102.5t-42 151.5t39 151.5t84 97.5q123 90 123 184q0 154 -215 154q-84 0 -129 -35q-43 -59 -43 -252v-1102h-227v14q35 102 35 334v475z" />
<glyph unicode="&#xe0;" horiz-adv-x="1032" d="M92 263.5q0 150.5 105.5 216t298.5 65.5l180 -6v116q0 109 -53.5 176.5t-161.5 67.5q-80 -2 -256 -154q-59 76 -84 197q203 66 373 66t272 -88.5t102 -249.5v-344q2 -92 30 -171t73 -110l4 -20l-219 -54q-27 66 -47 144q-125 -137 -282 -137.5t-246 67.5t-89 218.5z M254 1380q51 84 139 119q111 -197 291 -360l-47 -54q-195 106 -383 295zM293 280q0 -79 43 -124t107.5 -45t132 33.5t100.5 72.5v193q-84 31 -193.5 30.5t-158.5 -34.5q-31 -47 -31 -126z" />
<glyph unicode="&#xe1;" horiz-adv-x="1032" d="M92 263.5q0 150.5 105.5 216t298.5 65.5l180 -6v116q0 109 -53.5 176.5t-161.5 67.5q-80 -2 -256 -154q-59 76 -84 197q203 66 373 66t272 -88.5t102 -249.5v-344q2 -92 30 -171t73 -110l4 -20l-219 -54q-27 66 -47 144q-125 -137 -282 -137.5t-246 67.5t-89 218.5z M293 280q0 -79 43 -124t107.5 -45t132 33.5t100.5 72.5v193q-84 31 -193.5 30.5t-158.5 -34.5q-31 -47 -31 -126zM393 1139q180 164 291 360q88 -35 139 -119q-201 -195 -383 -295z" />
<glyph unicode="&#xe2;" horiz-adv-x="1032" d="M92 263.5q0 150.5 105.5 216t298.5 65.5l180 -6v116q0 109 -53.5 176.5t-161.5 67.5q-80 -2 -256 -154q-59 76 -84 197q203 66 373 66t272 -88.5t102 -249.5v-344q2 -92 30 -171t73 -110l4 -20l-219 -54q-27 66 -47 144q-125 -137 -282 -137.5t-246 67.5t-89 218.5z M207 1157q63 72 90 102.5t68 92t61 118.5l143 23q43 -127 131 -231q31 -37 93 -107l-70 -70q-51 41 -130 128t-112 141q-92 -127 -213 -252zM293 280q0 -79 43 -124t107.5 -45t132 33.5t100.5 72.5v193q-84 31 -193.5 30.5t-158.5 -34.5q-31 -47 -31 -126z" />
<glyph unicode="&#xe3;" horiz-adv-x="1032" d="M92 263.5q0 150.5 105.5 216t298.5 65.5l180 -6v116q0 109 -53.5 176.5t-161.5 67.5q-80 -2 -256 -154q-59 76 -84 197q203 66 373 66t272 -88.5t102 -249.5v-344q2 -92 30 -171t73 -110l4 -20l-219 -54q-27 66 -47 144q-125 -137 -282 -137.5t-246 67.5t-89 218.5z M135 1223q49 61 124 127.5t121 66.5t145.5 -44t151.5 -44t179 76l39 -35q-158 -205 -233 -205q-50 0 -153 49.5t-161.5 49.5t-171.5 -78zM293 280q0 -79 43 -124t107.5 -45t132 33.5t100.5 72.5v193q-84 31 -193.5 30.5t-158.5 -34.5q-31 -47 -31 -126z" />
<glyph unicode="&#xe4;" horiz-adv-x="1032" d="M92 263.5q0 150.5 105.5 216t298.5 65.5l180 -6v116q0 109 -53.5 176.5t-161.5 67.5q-80 -2 -256 -154q-59 76 -84 197q203 66 373 66t272 -88.5t102 -249.5v-344q2 -92 30 -171t73 -110l4 -20l-219 -54q-27 66 -47 144q-125 -137 -282 -137.5t-246 67.5t-89 218.5z M160 1348l20 18q78 27 148 31h32l17 -8q14 -16 21.5 -60.5t7.5 -67t-3 -36.5l-16 -15q-74 -25 -149 -30h-27l-21 6q-31 61 -30 162zM293 280q0 -79 43 -124t107.5 -45t132 33.5t100.5 72.5v193q-84 31 -193.5 30.5t-158.5 -34.5q-31 -47 -31 -126zM602 1368l21 16 q74 27 145 31h35l16 -8q14 -16 21.5 -60t7.5 -67t-2 -37l-17 -14q-76 -25 -151 -31h-25l-20 6q-31 61 -31 164z" />
<glyph unicode="&#xe5;" horiz-adv-x="1032" d="M92 263.5q0 150.5 105.5 216t298.5 65.5l180 -6v116q0 109 -53.5 176.5t-161.5 67.5q-80 -2 -256 -154q-59 76 -84 197q203 66 373 66t272 -88.5t102 -249.5v-344q2 -92 30 -171t73 -110l4 -20l-219 -54q-27 66 -47 144q-125 -137 -282 -137.5t-246 67.5t-89 218.5z M293 280q0 -79 43 -124t107.5 -45t132 33.5t100.5 72.5v193q-84 31 -193.5 30.5t-158.5 -34.5q-31 -47 -31 -126zM309 1295q0 83 59.5 143.5t144.5 60.5t137 -53t52 -136t-58 -143.5t-143 -60.5t-138.5 53t-53.5 136zM406 1292q0 -92 96 -92q102 1 102 105q0 94 -94 94 q-104 0 -104 -107z" />
<glyph unicode="&#xe6;" horiz-adv-x="1597" d="M92 258q0 276 404 277l180 -9v129q0 109 -53.5 176.5t-161.5 67.5q-80 -2 -256 -154q-59 76 -84 197q203 66 364 66q240 0 334 -154q137 154 327.5 154t278.5 -121t88 -332l-75 -74h-545q0 -168 73.5 -256t197.5 -88t300 101l52 -78q-37 -31 -84.5 -64t-146.5 -76 t-184 -43t-181.5 46.5t-149.5 128.5q-160 -174 -360 -175q-135 0 -226.5 71t-91.5 210zM293 276.5q0 -75.5 45 -120.5t117.5 -45t144.5 38.5t115 94.5q-25 79 -33 157q-90 29 -198.5 29t-159.5 -33q-31 -45 -31 -120.5zM891 588l420 16q0 301 -193 301q-96 0 -143 -39 q-39 -53 -61.5 -135t-22.5 -143z" />
<glyph unicode="&#xe7;" horiz-adv-x="1003" d="M90 488.5q0 218.5 152.5 370t348 151.5t324.5 -88q-80 -127 -104 -154q-139 106 -266 106q-47 0 -92 -6q-68 -41 -107 -142t-39 -241.5t56.5 -245t179.5 -104.5q82 0 190.5 38t143.5 65l51 -80q-199 -141 -328 -172l-78 -125q20 6 75.5 5t104 -39t48.5 -115t-66 -124 t-158 -47q-47 0 -114.5 21.5t-94.5 38.5l33 65q70 -35 137 -35q106 0 107 93q0 43 -25 67q-31 14 -72.5 14t-84.5 -8l-13 19l78 164q-180 18 -283.5 154t-103.5 354.5z" />
<glyph unicode="&#xe8;" horiz-adv-x="1011" d="M90 462q0 218 135 382t336 164q367 0 367 -453l-76 -74h-545q0 -172 74 -258t199 -86q49 0 139 30t160 71l51 -78q-39 -39 -169 -111t-214 -72q-215 0 -336 133.5t-121 351.5zM219 1380q51 84 139 119q111 -197 291 -360l-47 -54q-182 100 -383 295zM307 588l420 16 q0 301 -203 301q-86 0 -133 -39q-39 -53 -61.5 -135t-22.5 -143z" />
<glyph unicode="&#xe9;" horiz-adv-x="1011" d="M90 462q0 218 135 382t336 164q367 0 367 -453l-76 -74h-545q0 -172 74 -258t199 -86q49 0 139 30t160 71l51 -78q-39 -39 -169 -111t-214 -72q-215 0 -336 133.5t-121 351.5zM307 588l420 16q0 301 -203 301q-86 0 -133 -39q-39 -53 -61.5 -135t-22.5 -143zM371 1139 q180 164 291 360q88 -35 139 -119q-201 -195 -383 -295z" />
<glyph unicode="&#xea;" horiz-adv-x="1011" d="M90 462q0 218 135 382t336 164q367 0 367 -453l-76 -74h-545q0 -172 74 -258t199 -86q49 0 139 30t160 71l51 -78q-39 -39 -169 -111t-214 -72q-215 0 -336 133.5t-121 351.5zM250 1157q63 72 90 102.5t68 92t61 118.5l143 23q43 -127 131 -231q31 -37 93 -107l-70 -70 q-51 41 -130 128t-112 141q-92 -127 -213 -252zM307 588l420 16q0 301 -203 301q-86 0 -133 -39q-39 -53 -61.5 -135t-22.5 -143z" />
<glyph unicode="&#xeb;" horiz-adv-x="1011" d="M90 462q0 218 135 382t336 164q367 0 367 -453l-76 -74h-545q0 -172 74 -258t199 -86q49 0 139 30t160 71l51 -78q-39 -39 -169 -111t-214 -72q-215 0 -336 133.5t-121 351.5zM180 1348l21 18q78 27 145 31h35l16 -8q14 -16 21.5 -60.5t7.5 -67t-2 -36.5l-16 -15 q-76 -25 -150 -30h-27l-20 6q-31 61 -31 162zM307 588l420 16q0 301 -203 301q-86 0 -133 -39q-39 -53 -61.5 -135t-22.5 -143zM598 1368l20 16q78 27 146 31h35l16 -8q14 -16 21.5 -60t7.5 -67t-2 -37l-17 -14q-76 -25 -149 -31h-27l-20 6q-31 61 -31 164z" />
<glyph unicode="&#xec;" horiz-adv-x="589" d="M33 1380q51 84 139 119q111 -197 291 -360l-47 -54q-182 100 -383 295zM121 936v25l289 49l12 -21q-6 -59 -6 -170v-483q0 -205 51 -322v-14h-277v14q33 97 33 271v397q0 182 -102 254z" />
<glyph unicode="&#xed;" horiz-adv-x="585" d="M100 936v25l289 49l12 -21q-6 -59 -6 -170v-483q0 -205 51 -322v-14h-276v14q33 97 33 271v397q0 182 -103 254zM166 1139q180 164 291 360q88 -35 139 -119q-188 -188 -383 -295z" />
<glyph unicode="&#xee;" horiz-adv-x="704" d="M4 1157q63 72 90 102.5t68 92t61 118.5l144 23q43 -127 131 -231q31 -37 92 -107l-70 -70q-51 41 -130 128t-111 141q-92 -127 -213 -252zM160 936v25l289 49l12 -21q-6 -59 -6 -170v-483q0 -205 51 -322v-14h-277v14q33 97 33 271v397q0 182 -102 254z" />
<glyph unicode="&#xef;" horiz-adv-x="731" d="M47 1348l21 18q78 27 147 31h33l16 -8q14 -16 21.5 -60.5t7.5 -67t-2 -36.5l-17 -15q-74 -25 -149 -30h-27l-20 6q-31 61 -31 162zM170 936v25l289 49l12 -21q-6 -59 -6 -170v-483q0 -205 51 -322v-14h-276v14q32 97 32 271v397q0 182 -102 254zM395 1368l21 16 q74 27 145 31h35l16 -8q14 -16 21.5 -60t7.5 -67t-2 -37l-16 -14q-76 -25 -152 -31h-25l-20 6q-31 61 -31 164z" />
<glyph unicode="&#xf0;" d="M90 477.5q0 229.5 136 380t366 150.5h12q-63 80 -143 153q-215 -82 -283 -112l8 118q109 33 197 68q-147 129 -285 199l-2 14l295 68q45 -74 158 -218q92 35 276 109l-6 -115q-68 -20 -205 -71q115 -121 156 -160q180 -174 235.5 -278.5t55.5 -270.5q0 -217 -145.5 -377 t-360.5 -160t-340 136.5t-125 366zM307 518q0 -428 303 -428q94 0 154 43q39 47 59.5 145.5t20.5 188.5q0 203 -63.5 313.5t-225.5 110.5q-104 0 -164 -45q-37 -47 -60.5 -143.5t-23.5 -184.5z" />
<glyph unicode="&#xf1;" horiz-adv-x="1239" d="M100 946l269 64l12 -21q16 -76 25 -153q76 59 117.5 87.5t107.5 56.5t125 28q147 0 228 -94.5t81 -270.5v-295q0 -195 61 -334v-14h-288v14q35 102 34 273v313q0 119 -35.5 179.5t-144 60.5t-278.5 -105v-387q0 -199 59 -334v-14h-287v14q35 102 35 273v348 q0 88 -35.5 173t-83.5 114zM231 1223q49 61 124 127.5t121 66.5t145.5 -44t151.5 -44t179 76l39 -35q-157 -205 -233 -205q-49 0 -152.5 49.5t-154.5 49.5q-68 0 -156 -64q-18 -12 -23 -14z" />
<glyph unicode="&#xf2;" d="M90 468q0 220 145.5 380t365.5 160t340 -133.5t120 -356.5t-145.5 -383t-360.5 -160t-340 136.5t-125 356.5zM301 1380q51 84 139 119q111 -197 291 -360l-47 -54q-182 100 -383 295zM307 518q0 -428 303 -428q94 0 154 43q39 47 59.5 145.5t20.5 188.5 q0 203 -63.5 313.5t-225.5 110.5q-104 0 -164 -45q-37 -47 -60.5 -143.5t-23.5 -184.5z" />
<glyph unicode="&#xf3;" d="M90 468q0 220 145.5 380t365.5 160t340 -133.5t120 -356.5t-145.5 -383t-360.5 -160t-340 136.5t-125 356.5zM307 518q0 -428 303 -428q94 0 154 43q39 47 59.5 145.5t20.5 188.5q0 203 -63.5 313.5t-225.5 110.5q-104 0 -164 -45q-37 -47 -60.5 -143.5t-23.5 -184.5z M442 1139q180 164 291 360q88 -35 139 -119q-188 -188 -383 -295z" />
<glyph unicode="&#xf4;" d="M90 468q0 220 145.5 380t365.5 160t340 -133.5t120 -356.5t-145.5 -383t-360.5 -160t-340 136.5t-125 356.5zM301 1157q63 72 90 102.5t68 92t61 118.5l144 23q43 -127 131 -231q31 -37 92 -107l-70 -70q-51 41 -130 128t-112 141q-92 -127 -213 -252zM307 518 q0 -428 303 -428q94 0 154 43q39 47 59.5 145.5t20.5 188.5q0 203 -63.5 313.5t-225.5 110.5q-104 0 -164 -45q-37 -47 -60.5 -143.5t-23.5 -184.5z" />
<glyph unicode="&#xf5;" d="M90 468q0 220 145.5 380t365.5 160t340 -133.5t120 -356.5t-145.5 -383t-360.5 -160t-340 136.5t-125 356.5zM205 1223q49 61 123.5 127.5t121 66.5t145.5 -44t151.5 -44t179.5 76l39 -35q-158 -205 -234 -205q-49 0 -152.5 49.5t-154.5 49.5q-68 0 -158 -64 q-16 -12 -20 -14zM307 518q0 -428 303 -428q94 0 154 43q39 47 59.5 145.5t20.5 188.5q0 203 -63.5 313.5t-225.5 110.5q-104 0 -164 -45q-37 -47 -60.5 -143.5t-23.5 -184.5z" />
<glyph unicode="&#xf6;" d="M90 468q0 220 145.5 380t365.5 160t340 -133.5t120 -356.5t-145.5 -383t-360.5 -160t-340 136.5t-125 356.5zM225 1348l21 18q78 27 145 31h35l16 -8q14 -16 21.5 -60.5t7.5 -67t-2 -36.5l-16 -15q-76 -25 -150 -30h-27l-20 6q-31 61 -31 162zM307 518q0 -428 303 -428 q94 0 154 43q39 47 59.5 145.5t20.5 188.5q0 203 -63.5 313.5t-225.5 110.5q-104 0 -164 -45q-37 -47 -60.5 -143.5t-23.5 -184.5zM639 1368l20 16q78 27 146 31h35l16 -8q14 -16 21.5 -60t7.5 -67t-2 -37l-17 -14q-76 -25 -149 -31h-27l-20 6q-31 61 -31 164z" />
<glyph unicode="&#xf7;" horiz-adv-x="1097" d="M20 590l3 137l1054 -2l-2 -135h-1055zM442 362.5q0 40.5 28 69.5t69 29t69.5 -29t28.5 -69.5t-28.5 -68.5t-69.5 -28t-69 28t-28 68.5zM442 954q0 41 28 70t69 29t69.5 -29t28.5 -70t-28.5 -68.5t-69.5 -27.5t-69 27.5t-28 68.5z" />
<glyph unicode="&#xf8;" horiz-adv-x="1122" d="M63 471q0 217 145.5 377t356.5 160q84 0 172 -25q43 84 78 172l127 12l-2 -12q-43 -66 -125 -205q219 -119 219 -438q0 -217 -145.5 -377t-356.5 -160q-113 0 -206 39q-31 -63 -68 -151l-149 -29l2 12q45 61 137 213q-185 131 -185 412zM281 518q0 -190 59 -297 q158 287 326 623l6 14q-59 33 -153.5 33t-153.5 -45q-37 -47 -60.5 -143.5t-23.5 -184.5zM393 154q74 -63 179.5 -63.5t164.5 42.5q39 47 59.5 145.5t20.5 188.5q0 238 -84 338q-117 -217 -340 -651z" />
<glyph unicode="&#xf9;" horiz-adv-x="1232" d="M113 969v14h284v-14q-31 -109 -30 -273v-321q0 -123 30.5 -176.5t149.5 -53.5t278 113v377q0 199 -59 334v14h283v-14q-31 -109 -31 -273v-346q0 -90 30.5 -177t71.5 -116l2 -24l-239 -58q-35 94 -49 181q-100 -86 -182.5 -132.5t-168.5 -46.5q-172 0 -240.5 89.5 t-68.5 275.5v293q0 195 -61 334zM322 1380q51 84 139 119q111 -197 291 -360l-47 -54q-195 106 -383 295z" />
<glyph unicode="&#xfa;" horiz-adv-x="1232" d="M113 969v14h284v-14q-31 -109 -30 -273v-321q0 -123 30.5 -176.5t149.5 -53.5t278 113v377q0 199 -59 334v14h283v-14q-31 -109 -31 -273v-346q0 -90 30.5 -177t71.5 -116l2 -24l-239 -58q-35 94 -49 181q-100 -86 -182.5 -132.5t-168.5 -46.5q-172 0 -240.5 89.5 t-68.5 275.5v293q0 195 -61 334zM475 1139q180 164 291 360q88 -35 139 -119q-201 -195 -383 -295z" />
<glyph unicode="&#xfb;" horiz-adv-x="1232" d="M113 969v14h284v-14q-31 -109 -30 -273v-321q0 -123 30.5 -176.5t149.5 -53.5t278 113v377q0 199 -59 334v14h283v-14q-31 -109 -31 -273v-346q0 -90 30.5 -177t71.5 -116l2 -24l-239 -58q-35 94 -49 181q-100 -86 -182.5 -132.5t-168.5 -46.5q-172 0 -240.5 89.5 t-68.5 275.5v293q0 195 -61 334zM305 1157q63 72 90 102.5t68 92t61 118.5l144 23q43 -127 131 -231q31 -37 92 -107l-70 -70q-51 41 -130 128t-111 141q-92 -127 -213 -252z" />
<glyph unicode="&#xfc;" horiz-adv-x="1232" d="M113 969v14h284v-14q-31 -109 -30 -273v-321q0 -123 30.5 -176.5t149.5 -53.5t278 113v377q0 199 -59 334v14h283v-14q-31 -109 -31 -273v-346q0 -90 30.5 -177t71.5 -116l2 -24l-239 -58q-35 94 -49 181q-100 -86 -182.5 -132.5t-168.5 -46.5q-172 0 -240.5 89.5 t-68.5 275.5v293q0 195 -61 334zM225 1337l21 19q78 27 145 30h35l16 -8q14 -16 21.5 -60t7.5 -66.5t-2 -37.5l-16 -14q-76 -25 -150 -31h-27l-20 7q-31 61 -31 161zM729 1358l21 16q78 27 145 31h35l16 -8q14 -16 21.5 -60.5t7.5 -67t-2 -36.5l-17 -14q-76 -25 -149 -31 h-27l-20 6q-31 61 -31 164z" />
<glyph unicode="&#xfd;" horiz-adv-x="1001" d="M4 950v25l275 22v-24q0 -53 49 -206t211 -579q197 600 196 713q0 35 -14 57v25h219v-25q-31 -27 -334 -938q-145 -426 -166 -507v-17l-254 -18l-2 14q150 178 262 479q-12 35 -354 844q-41 96 -88 135zM362 1139q180 164 291 360q89 -35 140 -119q-188 -188 -383 -295z " />
<glyph unicode="&#xfe;" horiz-adv-x="1204" d="M102 1444v24l281 50l12 -21q-6 -59 -6 -170v-473q170 152 339 152t276.5 -133.5t107.5 -323.5q0 -240 -145.5 -406t-343.5 -166q-76 0 -220 41v-141q4 -246 84 -344v-10l-292 -31q6 82 6 299l-4 1399q0 164 -95 254zM401 195q132 -84 271 -84q92 0 135 24 q33 39 59.5 153.5t26.5 223.5q0 342 -207 342q-125 0 -285 -111v-548z" />
<glyph unicode="&#xff;" horiz-adv-x="1001" d="M4 950v25l275 22v-24q0 -53 49 -206t211 -579q197 600 196 713q0 35 -14 57v25h219v-25q-31 -27 -334 -938q-145 -426 -166 -507v-17l-254 -18l-2 14q150 178 262 479q-12 35 -354 844q-41 96 -88 135zM219 1348l21 18q78 27 147 31h33l16 -8q14 -16 21.5 -60.5t7.5 -67 t-2 -36.5l-17 -15q-74 -25 -149 -30h-27l-20 6q-31 61 -31 162zM606 1368l21 16q74 27 145 31h35l16 -8q14 -16 21.5 -60t7.5 -67t-2 -37l-16 -14q-76 -25 -152 -31h-25l-20 6q-31 61 -31 164z" />
<glyph unicode="&#x152;" horiz-adv-x="2160" d="M100 705.5q0 320.5 198 538.5t507 218q246 0 418 -176q-10 98 -19 133v15l832 6l-51 -154h-15q-121 31 -298 31t-224 -4q-4 -78 -4 -504l489 8l-32 -139h-15q-139 16 -235.5 16t-206.5 -6q0 -498 8 -559q47 -6 168 -6q322 0 469 65h14l-37 -188h-870v14q18 70 27 168 q-203 -207 -488.5 -207t-460 205t-174.5 525.5zM332 760q0 -639 497 -639q141 0 244 67q68 74 102.5 212.5t34.5 281.5q0 631 -475 631q-70 0 -150.5 -18.5t-119.5 -45.5q-59 -74 -96 -212t-37 -277z" />
<glyph unicode="&#x153;" horiz-adv-x="1781" d="M90 468q0 220 145.5 380t356.5 160q266 0 387 -185q143 184 352 185q367 0 367 -453l-76 -74h-545q0 -172 74 -258t199 -86q49 0 139 30t160 71l51 -78q-39 -39 -169 -111t-214 -72q-260 0 -379 187q-147 -188 -372.5 -188.5t-350.5 136t-125 356.5zM307 518 q0 -428 303 -428q94 0 154 43q39 47 59.5 145.5t20.5 188.5q0 203 -63.5 313.5t-225.5 110.5q-104 0 -164 -45q-37 -47 -60.5 -143.5t-23.5 -184.5zM1077 588l420 16q0 301 -203 301q-86 0 -133 -39q-39 -53 -61.5 -135t-22.5 -143z" />
<glyph unicode="&#x2c6;" horiz-adv-x="1024" d="M178 1157q178 156 246 283h164q53 -109 153 -201q35 -33 103 -90l-58 -64q-145 84 -286 236q-135 -135 -262 -225z" />
<glyph unicode="&#x2dc;" horiz-adv-x="1024" d="M131 1223q49 61 124 127.5t121 66.5t145.5 -44t151.5 -44t179 76l39 -35q-158 -205 -234 -205q-49 0 -152.5 49.5t-154.5 49.5q-68 0 -157 -64q-16 -12 -21 -14z" />
<glyph unicode="&#x2000;" horiz-adv-x="925" />
<glyph unicode="&#x2001;" horiz-adv-x="1851" />
<glyph unicode="&#x2002;" horiz-adv-x="925" />
<glyph unicode="&#x2003;" horiz-adv-x="1851" />
<glyph unicode="&#x2004;" horiz-adv-x="617" />
<glyph unicode="&#x2005;" horiz-adv-x="462" />
<glyph unicode="&#x2006;" horiz-adv-x="308" />
<glyph unicode="&#x2007;" horiz-adv-x="308" />
<glyph unicode="&#x2008;" horiz-adv-x="231" />
<glyph unicode="&#x2009;" horiz-adv-x="370" />
<glyph unicode="&#x200a;" horiz-adv-x="102" />
<glyph unicode="&#x2010;" horiz-adv-x="724" d="M2 500l61 162h15q82 -18 184 -19l176 2q45 0 140.5 4t144.5 4l-61 -159h-15q-139 18 -371 18z" />
<glyph unicode="&#x2011;" horiz-adv-x="724" d="M2 500l61 162h15q82 -18 184 -19l176 2q45 0 140.5 4t144.5 4l-61 -159h-15q-139 18 -371 18z" />
<glyph unicode="&#x2012;" horiz-adv-x="724" d="M2 500l61 162h15q82 -18 184 -19l176 2q45 0 140.5 4t144.5 4l-61 -159h-15q-139 18 -371 18z" />
<glyph unicode="&#x2013;" horiz-adv-x="1161" d="M0 504l61 158h15q158 -20 395 -21l406 4q45 0 140 4t144 4l-61 -155h-15q-150 18 -585 18z" />
<glyph unicode="&#x2014;" horiz-adv-x="1929" d="M2 504l61 158h15q160 -18 676 -18.5t725 0.5t304 5t144 4l-61 -155h-15q-150 18 -1349 18z" />
<glyph unicode="&#x2018;" horiz-adv-x="569" d="M166 1102q0 43 9 82t24.5 76.5t42.5 80.5q35 59 96 144l78 -23q-37 -66 -56 -102q-39 -88 -38 -176q0 -25 4 -49q23 -59 104 -134l-2 -24q-45 -39 -65.5 -52.5t-34.5 -23.5q-27 -23 -39 -24l-27 16q-96 105 -96 209z" />
<glyph unicode="&#x2019;" horiz-adv-x="569" d="M139 1360l2 24q45 39 65.5 52.5t35.5 23.5q27 23 39 25q25 -14 26 -17q96 -104 96 -208q0 -43 -9 -82t-24.5 -77t-41.5 -81q-35 -59 -97 -143l-77 22q37 66 55 105q39 86 39 174q0 25 -4 49q-23 59 -105 133z" />
<glyph unicode="&#x201a;" horiz-adv-x="622" d="M133 -338q70 102 98.5 180t28.5 171t-61 161q0 14 6 23q90 35 186 34q14 0 25 -2q18 -20 20 -22q29 -66 29 -168q0 -193 -225 -426z" />
<glyph unicode="&#x201c;" horiz-adv-x="976" d="M129 1083q0 139 100 310q25 41 58 92l73 -17q-35 -68 -52 -143.5t-17 -114.5t10 -104q16 -45 115 -133l-2 -25q-88 -76 -160 -100q-25 14 -27 16q-98 104 -98 219zM526 1083q0 141 101 314q25 39 57 90l74 -17q-35 -68 -52.5 -143.5t-17.5 -114t10 -104.5 q16 -45 115 -133l-2 -25q-88 -76 -160 -100q-24 16 -26 16q-98 104 -99 217z" />
<glyph unicode="&#x201d;" horiz-adv-x="976" d="M133 1360l2 24q88 76 160 101q27 -15 27 -17q98 -104 98 -217q0 -141 -101 -313q-25 -39 -57 -90l-74 16q35 68 52.5 143.5t17.5 114.5t-10 105q-16 45 -115 133zM530 1362l2 24q88 76 160 101l27 -17q98 -104 98 -219q0 -139 -100 -309q-25 -41 -58 -92l-73 16 q35 68 52 143.5t17 114.5t-10 105q-16 45 -115 133z" />
<glyph unicode="&#x201e;" horiz-adv-x="1017" d="M133 -338q70 102 98.5 180t28.5 171t-61 161q0 14 6 23q90 35 186 34q14 0 25 -2q18 -20 20 -22q29 -66 29 -168q0 -193 -225 -426zM528 -338q70 102 98.5 180t28.5 171t-61 161q0 14 6 23q90 35 186 34q14 0 25 -2q20 -20 20 -22q29 -66 29 -168q0 -193 -225 -426z" />
<glyph unicode="&#x2022;" horiz-adv-x="1085" d="M291 744.5q0 50.5 6 89.5l33 32q61 35 154.5 54.5t138.5 19.5t71 -4l35 -21q37 -55 50.5 -147t13.5 -142.5t-9 -86.5l-34 -31q-63 -41 -155.5 -55.5t-133.5 -14.5t-66 4l-41 21q-37 49 -50 140t-13 141.5z" />
<glyph unicode="&#x202f;" horiz-adv-x="370" />
<glyph unicode="&#x2039;" horiz-adv-x="729" d="M117 569q100 63 116 78l306 277l75 -72l-41 -47l-239 -258l280 -307l-77 -76l-84 84l-256 229l-72 62z" />
<glyph unicode="&#x203a;" horiz-adv-x="729" d="M115 240l280 307l-239 258l-41 47l75 72l306 -277q16 -15 116 -78l-8 -30l-72 -62l-256 -229l-83 -84z" />
<glyph unicode="&#x205f;" horiz-adv-x="462" />
<glyph unicode="&#x20ac;" horiz-adv-x="1327" d="M10 551l47 108h111q-2 20 -2 59.5t4 96.5h-139l47 109h112q64 241 259.5 387.5t428 146.5t359.5 -65q-2 -39 -31.5 -103.5t-54.5 -101.5q-178 125 -383 125q-106 0 -156 -17q-160 -147 -202 -372h399q90 0 285 14l-47 -125h-650v-39q0 -59 6 -115h398q92 0 284 15 l-47 -125h-614q47 -184 160.5 -302t281.5 -118t353 109l51 -80q-258 -182 -479.5 -182.5t-395.5 144t-217 431.5h-168z" />
<glyph unicode="&#x25fc;" horiz-adv-x="983" d="M0 0v983h983v-983h-983z" />
</font>
</defs>
</svg>
