<?xml version="1.0" standalone="no"?>
<!DOCTYPE svg PUBLIC "-//W3C//DTD SVG 1.1//EN" "http://www.w3.org/Graphics/SVG/1.1/DTD/svg11.dtd" >
<svg xmlns="http://www.w3.org/2000/svg" xmlns:xlink="http://www.w3.org/1999/xlink" version="1.1">
<metadata></metadata>
<defs>
<font id="futura-blackbold" horiz-adv-x="1024" >
<font-face units-per-em="2048" ascent="1638" descent="-410" />
<missing-glyph horiz-adv-x="702" />
<glyph horiz-adv-x="0" />
<glyph unicode="&#xd;" horiz-adv-x="0" />
<glyph unicode=" "  horiz-adv-x="702" />
<glyph unicode="&#x09;" horiz-adv-x="702" />
<glyph unicode="&#xa0;" horiz-adv-x="702" />
<glyph unicode="!" horiz-adv-x="768" d="M100 201q0 100 82 169.5t201 69.5q121 0 203 -69.5t82 -169.5t-82.5 -170t-202.5 -70q-118 0 -201 70q-82 70 -82 170zM135 553v965h496v-965h-496z" />
<glyph unicode="&#x22;" horiz-adv-x="758" d="M68 877v563h258v-563h-258zM430 877v563h260v-563h-260z" />
<glyph unicode="#" horiz-adv-x="1575" d="M-6 350l100 271h254l74 213h-258l98 270h258l129 366h289l-129 -366h227l129 366h289l-129 -366h256l-100 -270h-252l-76 -213h258l-100 -271h-254l-131 -366h-289l131 366h-227l-131 -366h-289l131 366h-258zM629 621h239l78 213h-239z" />
<glyph unicode="$" horiz-adv-x="1403" d="M47 168l162 385q112 -87 230.5 -133.5t232.5 -46.5q71 0 110 24q41 26 41 68q0 32 -35.5 53t-164.5 45l-148 31q-172 33 -268 147q-98 110 -98 273q0 181 129 307q129 123 346 147v152h237v-147q110 -4 223 -33q109 -32 207 -86l-157 -367q-101 64 -185 94 q-81 31 -159 31q-75 0 -113 -27q-43 -24 -43 -67q0 -59 192 -92q5 -1 9 -1.5t8 -2.5l137 -27q179 -35 277 -131q98 -103 98 -248q0 -217 -127 -350q-132 -135 -381 -168v-164h-238v164q-148 3 -272 45q-131 43 -250 125z" />
<glyph unicode="%" horiz-adv-x="1851" d="M49 1075q0 183 103 295q101 109 274 109t274 -109q103 -112 103 -295q0 -184 -103 -293q-101 -110 -274 -110q-172 0 -274 108q-103 112 -103 295zM346 1075q0 -107 21 -149q18 -47 61 -47q44 0 61 45q19 44 19 151q0 109 -19 154q-17 45 -61 45t-61 -45 q-21 -43 -21 -154zM408 -39l845 1518h211l-850 -1518h-206zM1067 367q0 185 102 295q103 108 275 108t274 -108q101 -107 101 -295q0 -187 -103 -295q-100 -111 -272 -111q-173 0 -275 111q-102 108 -102 295zM1362 367q0 -108 20 -152q20 -47 62 -47q44 0 61 45 q19 45 19 154q0 106 -19 151q-17 45 -61 45q-43 0 -62 -45q-20 -44 -20 -151z" />
<glyph unicode="&#x26;" horiz-adv-x="1712" d="M51 422q0 152 92 258q92 104 254 131q-81 71 -112 135q-37 64 -37 146q0 182 147 292q147 113 389 113q230 0 375 -115q144 -112 144 -290q0 -127 -66 -211q-70 -86 -199 -125l140 -129q64 49 112 100q54 57 103 121l288 -297q-46 -55 -106 -102q-64 -51 -129 -84 l358 -365h-610l-113 123q-106 -73 -227 -111q-123 -37 -254 -37q-246 0 -395 125q-77 63 -115.5 144t-38.5 178zM553 469q0 -45 37 -76q34 -31 92 -31q34 0 66 9q34 11 57 26l-172 178q-44 -26 -62 -53q-18 -24 -18 -53zM717 1094q0 -33 20 -60q24 -33 58 -51q41 23 63 55 q23 31 23 64q0 36 -23 59q-21 25 -57 25t-60 -27t-24 -65z" />
<glyph unicode="'" horiz-adv-x="393" d="M68 877v563h258v-563h-258z" />
<glyph unicode="(" horiz-adv-x="891" d="M131 551q0 255 84 518q41 129 104.5 262.5t151.5 276.5l373 -205q-126 -212 -191 -424q-61 -210 -61 -436q0 -190 57 -381q58 -194 178 -424l-391 -189q-76 124 -134 247t-97 251q-74 245 -74 504z" />
<glyph unicode=")" horiz-adv-x="891" d="M47 1403l373 205q55 -88 103.5 -179t89 -185t65.5 -175q82 -256 82 -518q0 -133 -19 -259.5t-55 -244.5q-19 -62 -44 -127t-53 -124.5t-57 -113t-77 -133.5l-392 189q120 227 179 424q57 191 57 381q0 226 -61 436q-65 212 -191 424z" />
<glyph unicode="*" horiz-adv-x="1067" d="M143 991l240 90l-240 93l115 196l197 -156l-39 250h231l-39 -250l197 156l117 -196l-238 -93l238 -90l-117 -198l-197 159l39 -254h-231l39 254l-197 -159z" />
<glyph unicode="+" horiz-adv-x="1706" d="M254 475v273h459v473h280v-473h459v-273h-459v-475h-280v475h-459z" />
<glyph unicode="," horiz-adv-x="702" d="M-18 -350l237 725h500l-344 -725h-393z" />
<glyph unicode="-" horiz-adv-x="983" d="M150 305v418h684v-418h-684z" />
<glyph unicode="." horiz-adv-x="702" d="M66 209q0 98 84 172q82 70 200 70q121 0 203 -70q82 -73 82 -172q0 -98 -82 -168q-84 -72 -203 -72q-117 0 -203 72q-81 69 -81 168z" />
<glyph unicode="/" horiz-adv-x="958" d="M0 -190l717 1687h241l-716 -1687h-242z" />
<glyph unicode="0" horiz-adv-x="1403" d="M72 721q0 351 170 557q83 100 198.5 150.5t261.5 50.5q295 0 461 -201q168 -198 168 -557t-168 -557q-165 -203 -461 -203q-292 0 -460 205q-170 203 -170 555zM584 721q0 -154 28 -232q28 -73 90 -73q61 0 89 73q28 75 28 232q0 158 -28 231q-29 74 -89 74 q-61 0 -90 -72q-28 -73 -28 -233z" />
<glyph unicode="1" horiz-adv-x="1403" d="M281 1006v444h745v-1450h-526v1006h-219z" />
<glyph unicode="2" horiz-adv-x="1403" d="M33 0l653 778q47 60 65.5 94t18.5 70q0 43 -25 68q-21 24 -65 24q-48 0 -74 -41q-22 -41 -22 -129h-488v17q0 277 158 440q79 79 188.5 118.5t249.5 39.5q269 0 430 -148q162 -143 162 -385q0 -129 -57 -227q-58 -104 -191 -213l-123 -103h369v-403h-1249z" />
<glyph unicode="3" horiz-adv-x="1403" d="M84 514v4h504q3 -74 30 -110q27 -39 80 -39q52 0 84 32q31 34 31 86q0 62 -37 93q-35 32 -106 32h-23q-6 -2 -14 -2v297h22q70 0 103 27q33 24 33 74q0 38 -23 61q-22 25 -59 25q-35 0 -58 -27q-20 -26 -20 -76h-484q4 239 152 365q144 123 422 123q250 0 399 -113 q150 -113 150 -297q0 -113 -51 -184q-52 -73 -158 -111q128 -27 196 -117q68 -87 68 -225q0 -215 -164 -344q-163 -127 -442 -127q-296 0 -465.5 147.5t-169.5 405.5z" />
<glyph unicode="4" horiz-adv-x="1403" d="M68 291v383l550 790h578v-790h158v-383h-158v-291h-502v291h-626zM524 674h209v198q0 70 2 97q4 46 8 67q-13 -33 -36 -78q-15 -26 -64 -104z" />
<glyph unicode="5" horiz-adv-x="1403" d="M74 92l65 408q169 -71 279 -99q115 -28 200 -28q54 0 94 7t60 19q49 28 49 86q0 67 -71 105q-74 37 -207 37q-67 0 -160 -11q-112 -15 -231 -38l139 872h907v-391h-577l-15 -88q66 8 98.5 10t96.5 2q237 0 377 -129q137 -125 137 -350q0 -128 -43.5 -227.5t-134.5 -174.5 q-177 -143 -498 -143q-163 0 -295 33q-143 33 -270 100z" />
<glyph unicode="6" horiz-adv-x="1403" d="M78 553q0 151 72 301q38 77 106 173t176 228l172 205h686l-461 -428q13 0 21 2h31q219 0 340 -121q122 -118 122 -335q0 -273 -178 -445q-173 -172 -454 -172t-455 168q-178 166 -178 424zM586 549q0 -62 35 -103q32 -38 88 -38q54 0 88 38q34 42 34 103q0 64 -32 102 q-33 39 -90 39q-56 0 -88 -39q-35 -40 -35 -102z" />
<glyph unicode="7" horiz-adv-x="1403" d="M125 0l520 1001h-508v449h1313l-733 -1450h-592z" />
<glyph unicode="8" horiz-adv-x="1403" d="M80 416q0 125 76 213q75 90 213 133q-115 32 -179 112q-61 79 -61 189q0 179 160 299q159 117 413 117q253 0 412 -117q160 -120 160 -299q0 -110 -62 -189q-59 -79 -176 -112q139 -44 213 -133q74 -91 74 -213q0 -205 -168 -330q-169 -123 -453 -123q-285 0 -452 125 q-170 126 -170 328zM590 461q0 -63 33 -99q29 -38 79 -38q51 0 80 38q31 37 31 99q0 63 -31 98q-27 37 -80 37q-51 0 -81 -37q-31 -35 -31 -98zM618 1001q0 -43 23 -73q21 -29 59 -29q36 0 62 29q22 28 22 73q0 46 -22 74q-26 29 -62 29q-38 0 -59 -29q-23 -30 -23 -74z" />
<glyph unicode="9" horiz-adv-x="1403" d="M68 872q0 95 24 179q30 91 76 159q89 132 225 199q137 70 312 70q276 0 454 -164q178 -163 178 -422q0 -149 -71 -297q-70 -148 -283 -401l-172 -205h-686l461 426h-21q-6 -2 -33 -2q-214 0 -339 123q-125 121 -125 335zM584 895q0 -60 34 -100q33 -39 89 -39q57 0 90 39 q32 35 32 100q0 62 -34 102q-33 39 -88 39q-56 0 -89.5 -39.5t-33.5 -101.5z" />
<glyph unicode=":" horiz-adv-x="768" d="M100 209q0 99 82 172q83 70 201 70q120 0 203 -70q82 -73 82 -172q0 -98 -82 -168q-86 -72 -203 -72q-118 0 -201 70q-82 70 -82 170zM100 795q0 96 82 168q82 69 201 69q121 0 203 -69q82 -72 82 -168q0 -100 -82.5 -170t-202.5 -70q-118 0 -201 70q-82 70 -82 170z" />
<glyph unicode=";" horiz-adv-x="768" d="M0 -350l238 725h499l-344 -725h-393zM199 795q0 101 81.5 170t200.5 69q120 0 201 -69q84 -72 84 -170q0 -100 -82 -170t-203 -70q-118 0 -200 69.5t-82 170.5z" />
<glyph unicode="&#x3c;" horiz-adv-x="1706" d="M264 471v281l1178 487v-301l-801 -328l801 -327v-299z" />
<glyph unicode="=" horiz-adv-x="1706" d="M254 240v272h1198v-272h-1198zM254 711v272h1198v-272h-1198z" />
<glyph unicode="&#x3e;" horiz-adv-x="1706" d="M264 -16v299l801 327l-801 328v301l1178 -487v-281z" />
<glyph unicode="?" horiz-adv-x="1247" d="M20 997q16 240 177 380.5t417 140.5q260 0 422 -150q162 -146 162 -385q0 -216 -160 -348q-156 -135 -417 -135q-26 0 -86 4q-26 2 -99 10v379q37 -10 60 -12q31 -7 51 -7q73 0 117 39q41 39 41 103q0 45 -23 76q-23 26 -66 26t-65 -28q-24 -33 -27 -93h-504zM311 195 q0 96 82 163q85 68 203 68t203 -68q82 -67 82 -163q0 -97 -82 -164q-83 -70 -203 -70t-203 70q-82 67 -82 164z" />
<glyph unicode="@" horiz-adv-x="2048" d="M70 520q0 182 57 334q52 155 162 283q150 177 362 272q108 49 220 71.5t241 22.5q384 0 627 -207q239 -206 239 -532q0 -170 -67 -313q-71 -146 -197 -244q-74 -58 -153 -84q-85 -29 -175 -29q-107 0 -165 37q-59 41 -68 117q-58 -79 -127 -117q-75 -35 -162 -35 q-171 0 -258 88q-86 91 -86 262q0 124 36 226.5t108 185.5q144 164 356 164q71 0 131 -29q58 -28 90 -82l49 82h242l-156 -626q-4 -20 -4 -19v-12q0 -25 12 -37q13 -12 35 -12q127 0 232 141q50 70 76 155.5t26 176.5q0 237 -174 381q-177 145 -463 145q-138 0 -266 -35 q-125 -36 -225 -106q-155 -109 -238 -268q-84 -166 -84 -351q0 -147 49.5 -262.5t151.5 -206.5q199 -174 534 -174q153 0 308 47q144 46 278 140l115 -160q-160 -120 -342.5 -180t-380.5 -60q-188 0 -354 56q-162 49 -295 155q-149 118 -224 279q-73 158 -73 360zM801 440 q0 -71 30 -110q32 -41 87 -41q71 0 129 55q59 57 79 150l48 194q-11 68 -44 107q-33 36 -90 36q-97 0 -168 -116q-71 -118 -71 -275z" />
<glyph unicode="A" horiz-adv-x="1507" d="M-57 0l522 1464h586l512 -1464h-566l-47 184h-397l-45 -184h-565zM641 532h219l-45 166q-34 129 -45 195q-11 59 -14 127h-11q-3 -68 -14 -127q-14 -81 -45 -195z" />
<glyph unicode="B" horiz-adv-x="1434" d="M137 0v1464h701q116 0 202.5 -26t149.5 -78q125 -107 125 -295q0 -119 -60 -199q-57 -79 -168 -104q151 -31 222 -117q73 -85 73 -231q0 -204 -139 -310q-139 -104 -407 -104h-699zM631 362h88q78 0 123 31q41 33 41 86q0 58 -41 86q-43 31 -123 31h-88v-234zM631 911h69 q64 0 99 27q32 26 32 76q0 51 -32 76q-33 26 -99 26h-69v-205z" />
<glyph unicode="C" horiz-adv-x="1309" d="M86 729q0 169 57 303q54 136 164 248q109 109 252 164t311 55q87 0 177 -18q88 -20 167 -56v-542q-68 68 -147 102q-78 35 -158 35q-129 0 -207 -80q-79 -79 -79 -211t75 -207.5t201 -75.5q75 0 156 33q84 38 170 103l-17 -551q-92 -37 -172 -51q-83 -19 -172 -19 q-107 0 -207 25q-96 21 -178 67q-195 115 -293 283q-100 172 -100 393z" />
<glyph unicode="D" horiz-adv-x="1620" d="M137 0v1464h426q101 0 182.5 -5t163.5 -17q141 -22 234 -70q191 -101 293 -264q100 -166 100 -377q0 -212 -100 -375q-102 -162 -293 -264q-90 -48 -236 -69q-147 -23 -383 -23h-387zM659 446q180 5 261 70q81 69 81 215q0 142 -77 213q-80 70 -242 70h-23v-568z" />
<glyph unicode="E" horiz-adv-x="1204" d="M137 0v1464h979v-397h-463v-141h420v-375h-420v-154h475v-397h-991z" />
<glyph unicode="F" horiz-adv-x="1159" d="M137 0v1464h979v-397h-452v-170h409v-375h-409v-522h-527z" />
<glyph unicode="G" horiz-adv-x="1708" d="M86 729q0 169 57 303q54 135 164 246q104 104 252 164q143 55 309 55q224 0 400 -98q178 -101 286 -289l-469 -174q-37 63 -90 90q-50 31 -118 31q-117 0 -187 -88q-69 -88 -69 -240q0 -158 69 -240q71 -86 199 -86q74 0 125 31q47 36 55 90h-229v344h809q2 -30 2.5 -42 t1.5 -25v-39q0 -127 -25 -230q-20 -97 -69 -184q-112 -189 -289 -287q-175 -100 -402 -100q-162 0 -309 55q-137 54 -252 164q-108 110 -166 246q-55 137 -55 303z" />
<glyph unicode="H" horiz-adv-x="1651" d="M137 0v1464h527v-487h321v487h526v-1464h-526v516h-321v-516h-527z" />
<glyph unicode="I" horiz-adv-x="829" d="M147 0v1464h535v-1464h-535z" />
<glyph unicode="J" horiz-adv-x="1042" d="M-20 121l172 393q40 -44 81 -72q39 -22 70 -22q57 0 78 43q20 41 20 192v809h527v-952q0 -121 -17 -195q-15 -72 -53 -131q-69 -109 -180 -166q-118 -59 -252 -59q-136 0 -240 39q-114 44 -206 121z" />
<glyph unicode="K" horiz-adv-x="1565" d="M137 0v1464h516v-624l334 624h596l-442 -721l504 -743h-637l-355 612v-612h-516z" />
<glyph unicode="L" horiz-adv-x="1200" d="M137 0v1464h527v-989h512v-475h-1039z" />
<glyph unicode="M" horiz-adv-x="1999" d="M6 0l250 1464h543l104 -362q2 -10 15 -51q67 -240 81 -377h9q12 94 36 198q19 91 64 236l109 356h542l232 -1464h-516l-64 580l-6 68t-6 67q-8 84 -10 133q-11 -66 -25 -133q-12 -55 -41 -152l-168 -563h-313l-168 563q-26 80 -41 152q-19 88 -25 133q-8 -96 -10 -135 q-4 -43 -12 -133l-64 -580h-516z" />
<glyph unicode="N" horiz-adv-x="1731" d="M137 0v1464h516l455 -766q-9 53 -12 113q-4 82 -4 162v491h507v-1464h-520l-450 760q9 -49 12 -105q4 -78 4 -127v-528h-508z" />
<glyph unicode="O" horiz-adv-x="1735" d="M86 729q0 164 55 301q58 136 166 246q110 107 252 166q143 55 309 55q164 0 308 -55q143 -58 254 -166q106 -108 165 -246q56 -139 56 -301t-58 -299q-60 -142 -166 -248q-108 -105 -253 -164q-145 -57 -306 -57q-163 0 -307 57q-140 57 -254 166q-110 111 -166 244 q-55 137 -55 301zM621 729q0 -124 67 -201q69 -75 180 -75t179 75q67 77 67 201q0 127 -67 203q-69 76 -179 76t-180 -76q-67 -76 -67 -203z" />
<glyph unicode="P" horiz-adv-x="1450" d="M137 0v1464h629q332 0 485 -129q154 -126 154 -405q0 -258 -137 -377q-139 -121 -439 -121h-165v-432h-527zM666 813h82q77 0 114 33q41 30 41 88q0 55 -41 90q-37 33 -114 33h-82v-244z" />
<glyph unicode="Q" horiz-adv-x="1735" d="M86 731q0 169 57 303q54 138 164 246q105 105 250 162q143 55 311 55q166 0 310 -55q148 -60 252 -164q106 -108 165 -246q56 -139 56 -301q0 -117 -29 -225q-35 -110 -94 -199l221 -246l-416 -184l-106 168q-92 -42 -178 -59q-84 -21 -181 -21q-162 0 -309 55 q-137 54 -252 164q-110 111 -166 244q-55 137 -55 303zM621 731q0 -125 67 -199q64 -73 180 -73h27l-119 135l332 65q2 14 2.5 20.5t1.5 14.5q2 13 2 37q0 127 -67 203q-69 76 -179 76t-180 -76q-67 -76 -67 -203z" />
<glyph unicode="R" horiz-adv-x="1466" d="M137 0v1464h662q289 0 440 -127q152 -128 152 -366q0 -156 -76 -256q-78 -104 -207 -119l391 -596h-590l-256 483v-483h-516zM653 801h82q77 0 117 37q39 35 39 104q0 70 -39 109q-40 36 -117 36h-82v-286z" />
<glyph unicode="S" horiz-adv-x="1251" d="M4 125l168 410q119 -81 203 -115q87 -37 164 -37q56 0 86 20q30 22 30 56q0 60 -155 94q-33 6 -78 16q-164 41 -252 142q-86 101 -86 254q0 233 170 385q169 147 442 147q130 0 248 -33q125 -33 246 -100l-160 -383q-80 58 -151 86q-84 29 -150 29q-55 0 -86 -19 q-29 -19 -29 -51q0 -63 220 -108q29 -9 53 -13q151 -33 237 -139q88 -103 88 -254q0 -244 -176 -397q-88 -78 -203 -116t-253 -38q-141 0 -287 41t-289 123z" />
<glyph unicode="T" horiz-adv-x="1178" d="M33 985v479h1112v-479h-293v-985h-526v985h-293z" />
<glyph unicode="U" horiz-adv-x="1602" d="M121 670v794h526v-798q0 -141 33 -191q33 -53 113 -53q79 0 112 53q35 56 35 191v798h526v-794q0 -160 -20 -256q-22 -106 -66 -170q-89 -138 -239 -209q-156 -74 -348 -74q-193 0 -349 74q-150 71 -239 209q-41 64 -64 168q-20 96 -20 258z" />
<glyph unicode="V" horiz-adv-x="1462" d="M-72 1464h570l155 -530q25 -84 52 -197q18 -93 20 -149h10q6 50 29 155q11 50 47 179l164 542h559l-557 -1464h-490z" />
<glyph unicode="W" horiz-adv-x="2001" d="M-47 1464h528l115 -645q8 -46 22 -155q7 -48 11 -134h12q3 92 31 230q2 8 2.5 12t1.5 8l139 684h371l139 -684l4 -20q28 -141 31 -230h12q4 86 10 134q5 28 12 80.5t11 74.5l115 645h528l-428 -1464h-459l-110 500q-1 5 -2.5 9.5t-3.5 13.5t-3 12q-30 148 -32 206h-19 q-3 -62 -33 -206q-2 -9 -4 -19t-4 -16l-110 -500h-459z" />
<glyph unicode="X" horiz-adv-x="1466" d="M-84 0l520 780l-459 684h601l108 -239q3 -3 6 -13q32 -68 41 -108q6 27 19 53q4 14 10 28t16 40l111 239h598l-457 -684l520 -780h-602l-168 332q-21 44 -30 74q-14 29 -17 49q-2 -15 -14 -47q-4 -12 -12.5 -29t-22.5 -47l-166 -332h-602z" />
<glyph unicode="Y" horiz-adv-x="1305" d="M-115 1464h600l123 -284q26 -64 39 -111q2 -4 2.5 -6t1.5 -4q8 30 37 102q4 8 5.5 12.5t2.5 6.5l121 284h596l-508 -817v-647h-530v647z" />
<glyph unicode="Z" horiz-adv-x="1380" d="M-53 0l655 1028h-512v436h1350l-637 -1013h565v-451h-1421z" />
<glyph unicode="[" horiz-adv-x="891" d="M180 -420v1970h664v-342h-256v-1286h256v-342h-664z" />
<glyph unicode="\" horiz-adv-x="958" d="M0 1497h242l716 -1687h-241z" />
<glyph unicode="]" horiz-adv-x="891" d="M49 -78h254v1286h-254v342h662v-1970h-662v342z" />
<glyph unicode="^" horiz-adv-x="2048" d="M412 897l442 565h338l442 -565h-303l-307 309l-309 -309h-303z" />
<glyph unicode="_" d="M0 -201h1024v-282h-1024v282z" />
<glyph unicode="`" d="M215 1522h297l180 -351h-166z" />
<glyph unicode="a" horiz-adv-x="1389" d="M68 508q0 253 116 405q114 154 301 154q97 0 174 -41q79 -44 146 -129v137h481v-1034h-463v156q-77 -103 -157 -148q-85 -47 -181 -47q-179 0 -299 154q-58 73 -88 173.5t-30 219.5zM549 520q0 -68 37 -106q33 -41 92 -41q61 0 94 41q35 40 35 106q0 68 -35 109 q-38 41 -94 41q-57 0 -92 -41q-37 -40 -37 -109z" />
<glyph unicode="b" horiz-adv-x="1389" d="M104 0v1550h492v-481q0 -78 -2 -106q-3 -53 -8 -76q61 88 141 135q79 43 176 43q182 0 299 -152q119 -149 119 -393q0 -254 -115 -405q-114 -154 -303 -154q-101 0 -184 47q-86 48 -150 144v-152h-465zM582 514q0 -67 36 -111q35 -43 93 -43q56 0 94 43q35 46 35 111 q0 66 -35 109q-39 41 -94 41q-57 0 -93 -41q-36 -40 -36 -109z" />
<glyph unicode="c" horiz-adv-x="950" d="M47 510q0 84 21 154q21 75 61 141q40 64 90 113t109 81q121 68 270 68q70 0 139 -14q79 -19 154 -43v-418q-48 39 -82 53q-46 17 -88 17q-74 0 -121 -39q-45 -39 -45 -109q0 -65 43 -104q47 -41 115 -41q46 0 90 20q41 18 88 57v-411q-71 -35 -150 -55q-72 -19 -143 -19 q-118 0 -213 39q-101 41 -174 113q-79 79 -123 182q-41 102 -41 215z" />
<glyph unicode="d" horiz-adv-x="1389" d="M68 520q0 119 30 219.5t88 173.5q117 152 299 152q100 0 177 -43q79 -46 141 -135q-3 31 -6 76q-4 56 -4 106v481h493v-1550h-467v152q-66 -98 -147 -144q-85 -47 -187 -47q-186 0 -303 154q-114 150 -114 405zM549 514q0 -68 37 -111q34 -43 92 -43t92 43q37 43 37 111 t-35 109q-38 41 -94 41q-57 0 -92 -41q-37 -40 -37 -109z" />
<glyph unicode="e" horiz-adv-x="1321" d="M61 514q0 120 52 225q23 53 57 97t84 88q85 73 186 106q104 37 226 37q81 0 158 -17t141 -49q127 -65 219 -194q46 -66 67 -143q23 -80 23 -172v-35q0 -17 -2 -23h-713v-16q0 -76 29 -117q26 -39 86 -39q36 0 61 21q26 19 41 59l465 -31q-61 -167 -211 -260 q-149 -90 -364 -90q-120 0 -224 37q-111 40 -188 106q-94 83 -143 187q-50 108 -50 223zM563 659l228 -2q-5 63 -31 91q-28 30 -82 30q-46 0 -78 -30q-28 -33 -37 -89z" />
<glyph unicode="f" horiz-adv-x="872" d="M41 653v381h135v117q0 215 115 330q116 114 330 114q56 0 112 -6q53 -6 113 -18v-389q1 0 -23 4q-48 4 -49 4q-51 0 -74 -29q-22 -28 -22 -96v-31h168v-381h-168v-653h-502v653h-135z" />
<glyph unicode="g" horiz-adv-x="1389" d="M68 520q0 246 114 398q113 149 303 149q95 0 177 -41q77 -41 143 -125v133h481v-884q0 -138 -12 -203q-12 -69 -39 -125q-64 -132 -225 -203q-165 -68 -414 -68q-135 0 -260 25q-115 23 -221 72l108 334q91 -55 168 -80q78 -27 164 -27q120 0 186 55q64 58 64 164v90 q-73 -80 -148 -114q-75 -37 -172 -37q-183 0 -299 137q-58 65 -88 155t-30 195zM565 541q0 -62 33 -95q34 -36 92 -36q59 0 92 36q35 35 35 95q0 58 -35 96q-33 37 -92 37q-55 0 -90 -35q-35 -43 -35 -98z" />
<glyph unicode="h" horiz-adv-x="1376" d="M109 0v1550h495v-428q0 -104 -2 -137q-1 -16 -6 -94q64 88 143 133q80 43 179 43q166 0 262 -100q96 -104 96 -273v-694h-504v522q0 80 -14 107q-16 28 -56 28q-45 0 -67 -34q-23 -38 -23 -101v-522h-503z" />
<glyph unicode="i" horiz-adv-x="739" d="M119 -4v1034h502v-1034h-502zM233 1290q0 57 37 88q35 29 101 29q65 0 100 -29q37 -30 37 -88q0 -57 -37 -88q-39 -31 -100 -31q-62 0 -101 31q-37 32 -37 88z" />
<glyph unicode="j" horiz-adv-x="739" d="M119 -444v1480h502v-1480h-502zM244 1296q0 58 37 88q33 29 100 29t100 -29q37 -30 37 -88q0 -57 -37 -88q-36 -30 -100 -30t-100 30q-37 31 -37 88z" />
<glyph unicode="k" horiz-adv-x="1395" d="M109 0v1550h497v-911l211 395h588l-367 -497l387 -537h-594l-225 387v-387h-497z" />
<glyph unicode="l" horiz-adv-x="739" d="M119 0v1550h502v-1550h-502z" />
<glyph unicode="m" horiz-adv-x="1952" d="M109 0v1034h479v-145q57 89 131 135q70 43 162 43q108 0 182 -53q71 -53 117 -166q58 108 145 164q82 55 191 55q152 0 243 -100q90 -102 90 -271v-696h-485v520q0 80 -14 107q-17 28 -50 28q-42 0 -59 -32q-20 -33 -20 -103v-520h-480v520q0 78 -12 107q-16 28 -51 28 q-41 0 -60.5 -32.5t-19.5 -102.5v-520h-489z" />
<glyph unicode="n" horiz-adv-x="1376" d="M109 0v1034h487v-143q64 88 143 133q80 43 179 43q166 0 262 -100q96 -104 96 -273v-694h-502v522q0 73 -16 107q-16 28 -56 28q-45 0 -67 -34q-23 -38 -23 -101v-522h-503z" />
<glyph unicode="o" horiz-adv-x="1331" d="M61 514q0 120 52 225q23 53 57 97t84 88q85 73 186 106q104 37 226 37q120 0 226.5 -37t186.5 -106q90 -78 142 -185q49 -109 49 -225q0 -114 -49 -223q-52 -107 -144 -187q-79 -67 -184 -106q-107 -37 -227 -37q-122 0 -226 37q-101 33 -186 106q-93 79 -141 187 q-52 105 -52 223zM543 514q0 -62 35 -102q32 -39 88 -39q55 0 88 39q34 40 34 102q0 64 -32 102q-33 39 -90 39q-56 0 -88 -39q-35 -40 -35 -102z" />
<glyph unicode="p" horiz-adv-x="1389" d="M109 -446v1480h479v-137q65 86 145 127q79 43 176 43q188 0 301 -152q115 -154 115 -407q0 -243 -117 -393q-120 -152 -299 -152q-101 0 -178 45q-78 43 -141 133q4 -27 8 -82q4 -60 4 -98v-407h-493zM588 516q0 -70 37 -108q33 -43 92 -43q57 0 94 43q35 40 35 108 q0 67 -35 111q-39 41 -94 41q-57 0 -92 -41q-37 -43 -37 -111z" />
<glyph unicode="q" horiz-adv-x="1389" d="M68 508q0 255 114 405q117 154 303 154q97 0 174 -41q79 -44 146 -129v137h481v-1480h-493v407q0 49 4 107q3 45 6 73q-63 -90 -141 -133q-75 -45 -177 -45q-89 0 -164.5 38.5t-134.5 115.5q-118 147 -118 391zM549 516q0 -70 37 -108q33 -43 92 -43q58 0 94 43 q35 40 35 108q0 67 -35 111q-38 41 -94 41q-57 0 -92 -41q-37 -43 -37 -111z" />
<glyph unicode="r" horiz-adv-x="999" d="M109 0v1034h487v-145q64 87 145 135q80 43 177 43h22q10 0 14 -2v-502q-41 22 -77 35q-38 10 -64 10q-96 0 -147 -53q-54 -54 -54 -145v-410h-503z" />
<glyph unicode="s" horiz-adv-x="999" d="M0 74l133 319q80 -54 152 -86q73 -28 118 -28q40 0 62 16q20 14 20 43q0 39 -90 57q-27 6 -47 11q-144 33 -211 106q-67 70 -67 186q0 163 137 267q137 102 352 102q112 0 209 -20q100 -23 186 -62l-123 -311q-75 50 -126 71q-57 23 -97 23q-35 0 -55 -14 q-21 -16 -21 -39q0 -38 117 -64q10 -2 25 -5.5t20 -4.5q152 -38 221 -104q72 -72 72 -183q0 -175 -139 -282q-141 -111 -371 -111q-124 0 -246 29q-110 25 -231 84z" />
<glyph unicode="t" horiz-adv-x="856" d="M35 653v381h141v342h502v-342h143v-381h-143v-653h-502v653h-141z" />
<glyph unicode="u" horiz-adv-x="1339" d="M94 477v557h494v-506q0 -106 18 -141q15 -31 64 -31q44 0 63 29q17 36 17 143v506h493v-557q0 -269 -137 -391q-137 -125 -436 -125t-437.5 124.5t-138.5 391.5z" />
<glyph unicode="v" horiz-adv-x="1229" d="M-59 1034h532l102 -358q18 -55 25 -92q9 -34 12 -64q2 32 29 131q3 7 4.5 13t3.5 12l101 358h538l-448 -1034h-455z" />
<glyph unicode="w" horiz-adv-x="1782" d="M-49 1034h530l88 -395q10 -45 15 -84q8 -61 10 -96q14 88 16 100q3 15 7 31.5t12 48.5l106 395h330l96 -407q3 -12 7 -32l8 -40q7 -33 14 -96q3 26 16 102q9 51 21 98l94 375h530l-444 -1034h-395l-88 326q-3 7 -6 20q-21 79 -31 137q-6 -51 -27 -129l-8 -28l-88 -326 h-408z" />
<glyph unicode="x" horiz-adv-x="1284" d="M-66 0l416 535l-385 499h563l68 -151q6 -14 11 -25t11 -27q10 -22 13 -47q5 28 28 78q2 3 4 8.5t3 8t2 4.5l67 151h568l-369 -499l422 -535h-596l-82 152q-8 15 -21 49q-12 32 -16 51q-7 -38 -14 -55q-8 -22 -21 -45l-86 -152h-586z" />
<glyph unicode="y" horiz-adv-x="1300" d="M-39 1034h551l78 -264q2 -2 2.5 -4.5t1.5 -5.5q55 -195 63 -281q9 40 17 72.5t16.5 64.5t14.5 56q8 39 26 104l76 258h516l-631 -1456h-534l252 512z" />
<glyph unicode="z" horiz-adv-x="1120" d="M-2 0l412 647h-344v387h1079l-410 -641h357v-393h-1094z" />
<glyph unicode="{" d="M145 389v283h19q6 -2 16 -2q113 0 160 53q45 51 45 178v258q0 135 25 189q24 55 84 84q50 25 120 34q75 11 211 11h80v-285q-12 0 -22 2h-21q-89 0 -117 -31q-30 -27 -30 -127v-239q0 -131 -47 -189q-46 -55 -170 -78q123 -21 172 -77q45 -55 45 -187v-241q0 -98 30 -125 q28 -31 115 -31q12 0 23 2h22v-285h-80q-136 0 -211 11q-73 9 -120 34q-60 29 -84.5 83.5t-24.5 187.5v258q0 129 -45 180t-160 51q-10 0 -16 -2h-19z" />
<glyph unicode="|" d="M373 -483v2048h280v-2048h-280z" />
<glyph unicode="}" d="M121 -131h22q11 -2 21 -2q89 0 117 31q30 27 30 127v241q0 129 47 187q49 57 170 77q-123 22 -170 76q-47 58 -47 189v241q0 100 -30 127q-28 31 -117 31h-21q-10 -2 -22 -2v285h80q137 0 211 -11q71 -9 118 -34q62 -32 86 -86q25 -57 25 -187v-258q0 -125 47 -178 t158 -53q10 0 16 2h19v-283h-19q-6 2 -16 2q-113 0 -158 -51q-47 -53 -47 -180v-258q0 -130 -25 -187q-23 -54 -86 -86q-51 -24 -114 -32q-74 -11 -201 -11h-94v283z" />
<glyph unicode="~" horiz-adv-x="1706" d="M178 379v299q116 74 217 108q97 35 191 35q58 0 123 -12q53 -10 155 -41q22 -6 64 -23q156 -53 235 -53q83 0 174 37q95 40 193 113v-299q-98 -68 -193 -101q-86 -32 -178 -32q-53 0 -110 12q-57 9 -156 45q-125 43 -195 55q-70 15 -137 15q-82 0 -176 -37 q-102 -45 -207 -121z" />
<glyph horiz-adv-x="1380" d="M-53 0l655 1028h-512v436h1350l-637 -1013h565v-451h-1421zM500 1847l145 -262h219l146 262h-123l-131 -127l-133 127h-123z" />
<glyph horiz-adv-x="0" />
<glyph horiz-adv-x="2" d="M-20 881l145 -263h219l145 263h-122l-131 -127l-134 127h-122z" />
<glyph horiz-adv-x="1233" d="M-96 645l266 178v641h526v-354l187 127l178 -254l-365 -246v-280h514v-457h-1040v459l-113 -72z" />
<glyph horiz-adv-x="999" d="M47 1102q0 84 37 158q39 76 106 129q64 47 142 75q75 25 168 25q91 0 170 -25q78 -28 139 -75q67 -55 106 -129q37 -77 37 -158q0 -83 -37 -158q-36 -74 -106 -129q-59 -47 -139 -74q-78 -26 -170 -26q-91 0 -168 24q-84 31 -142 76q-66 51 -104 129q-39 74 -39 158z M408 1102q0 -45 24 -74q28 -27 68 -27t67 27q25 28 25 74q0 44 -25 72q-26 26 -67 26t-68 -26q-24 -28 -24 -72z" />
<glyph horiz-adv-x="342" d="M-342 -39l813 1518h211l-817 -1518h-207z" />
<glyph d="M197 1507h131q6 -72 50.5 -104.5t133.5 -32.5q88 0 135 35q44 33 47 102h131q-12 -160 -88.5 -233.5t-224.5 -73.5q-151 0 -227 76q-79 78 -88 231z" />
<glyph horiz-adv-x="1120" d="M-2 0l412 647h-344v387h1079l-410 -641h357v-393h-1094zM338 1415l145 -262h219l146 262h-123l-131 -127l-133 127h-123z" />
<glyph unicode="&#xa1;" horiz-adv-x="768" d="M100 1278q0 102 82 172q83 70 201 70q120 0 203 -70q82 -73 82 -172q0 -98 -82 -168q-86 -72 -203 -72q-115 0 -201 72q-82 70 -82 168zM135 -39v965h496v-965h-496z" />
<glyph unicode="&#xa2;" horiz-adv-x="1403" d="M223 635q0 197 113 346q58 75 131 122t166 68v121h229v-110q36 -3 90 -17q58 -13 113 -32v-420q-45 36 -82 53q-46 16 -88 16q-74 0 -121 -41q-45 -38 -45 -106q0 -65 43 -105q49 -41 115 -41q43 0 90 21q40 16 88 57l-8 -415q-32 -18 -82 -31q-70 -23 -123 -33v-123 h-227v135q-188 56 -295 196.5t-107 338.5z" />
<glyph unicode="&#xa3;" horiz-adv-x="1403" d="M104 555v305h127q-25 61 -38 119q-15 48 -15 100q0 183 154 291q154 109 418 109q276 0 421 -121q146 -123 152 -361h-471q-3 62 -31 93q-28 28 -84 28q-48 0 -80 -24q-30 -28 -30 -68q0 -28 47 -145q7 -18 8 -21h399v-305h-331q0 -4 2 -8v-12q0 -42 -25 -80 q-26 -36 -82 -74v-14q40 13 55 16q38 4 58 4q67 0 157 -29.5t119 -29.5q53 0 86 24q36 27 64 78l241 -233q-37 -60 -82 -104t-98 -75q-100 -57 -235 -57q-121 0 -254 43t-146 43q3 0 -39 10q-36 9 -73 9q-50 0 -97 -21q-40 -20 -88 -68l-188 306q34 47 72 71q35 25 79 31 q21 22 31 49q10 32 10 55q0 12 -10 60q-2 2 -2 6h-201z" />
<glyph unicode="&#xa4;" horiz-adv-x="1241" d="M53 455l197 200q-35 53 -49 109q-17 60 -17 123q0 62 17 119q15 56 49 108l-197 203l133 135l199 -199q55 36 111 52q62 16 127 16t127 -16q57 -17 108 -52l199 199l133 -135l-197 -203q33 -51 49 -110q17 -60 17 -119t-17 -119q-15 -60 -49 -111l197 -200l-133 -138 l-199 201q-60 -38 -110 -51q-58 -18 -125 -18q-66 0 -125 18q-54 14 -113 51l-199 -201zM377 885q0 -102 74 -172q72 -72 172 -72q101 0 172 74q71 71 71 170q0 98 -71 172q-76 71 -172 71q-101 0 -172 -71q-74 -73 -74 -172z" />
<glyph unicode="&#xa5;" horiz-adv-x="1204" d="M137 0v1464h979v-397h-463v-141h420v-375h-420v-154h475v-397h-991zM362 1536l146 262h219l145 -262h-122l-132 127l-133 -127h-123z" />
<glyph unicode="&#xa6;" d="M373 -350v758h280v-758h-280zM373 674v758h280v-758h-280z" />
<glyph unicode="&#xa7;" horiz-adv-x="1327" d="M76 530q0 122 59 205q60 82 176 121q-82 34 -125 98q-41 68 -41 156q0 177 144 285q145 104 391 104q255 0 389 -108q130 -109 133 -326h-397v14q0 58 -33 84q-34 29 -96 29q-60 0 -94 -29q-37 -27 -37 -78q0 -87 186 -108q22 -3 41.5 -6t28.5 -4q146 -25 192 -39 q66 -25 103 -51q78 -56 116 -136q39 -79 39 -182q0 -122 -59 -207q-62 -84 -176 -121q85 -34 124.5 -98t39.5 -162q0 -181 -144 -280q-144 -105 -393 -105q-248 0 -383 111q-134 113 -137 315h401v-18q0 -59 33 -86q34 -31 96 -31q60 0 97 31q36 27 36 76q0 83 -196 116 q-50 11 -66 13q-121 22 -207.5 58t-140.5 85q-100 94 -100 274zM510 545q0 -64 39 -103q36 -39 98 -39q60 0 101 39q36 40 36 103t-36 102q-39 39 -101 39q-63 0 -98 -39q-39 -38 -39 -102z" />
<glyph unicode="&#xa8;" d="M168 1356q0 57 45 102t104 45q62 0 105 -43q43 -42 43 -104q0 -65 -41 -109q-43 -41 -107 -41q-59 0 -104 42.5t-45 107.5zM557 1356q0 57 45 102t105 45q61 0 104 -43q43 -42 43 -104q0 -65 -41 -109q-46 -41 -106 -41q-59 0 -107 43q-43 43 -43 107z" />
<glyph unicode="&#xa9;" horiz-adv-x="1706" d="M102 741q0 152 58 289t166 248q99 103 237 160q134 55 289 55q156 0 293 -55q139 -59 244 -164q101 -102 161 -244q56 -139 56 -289q0 -152 -56 -288.5t-161 -237.5q-109 -106 -250 -166q-139 -59 -287 -59q-153 0 -285 57q-138 60 -243 166q-110 110 -164 244 q-58 134 -58 284zM256 743q0 -122 45 -227q48 -111 130.5 -194t195.5 -132q106 -45 227 -45q119 0 229 45q108 46 197 134q86 83 129 190t43 229q0 123 -45 230q-49 112 -129 192q-83 84 -195 131q-103 45 -229 45q-124 0 -229 -43q-109 -45 -191 -129q-87 -90 -133 -196 q-45 -107 -45 -230zM440 737q0 201 111 324t289 123q86 0 158 -20t120 -58q102 -83 111 -223h-242q-3 62 -39 98q-33 37 -92 37q-74 0 -115 -72q-41 -74 -41 -201q0 -128 41 -196q41 -66 123 -66q58 0 92 37q32 35 35 107h248q-6 -147 -109 -238q-103 -88 -272 -88 q-194 0 -305 117q-113 113 -113 319z" />
<glyph unicode="&#xaa;" horiz-adv-x="1042" d="M51 1098q0 177 86 284t228 107q71 0 131 -29q56 -29 108 -90v96h361v-725h-347v109q-52 -67 -116 -102q-62 -33 -137 -33q-67 0 -124 26.5t-102 79.5q-88 107 -88 277zM412 1106q0 -49 26 -76q31 -29 70 -29q41 0 72 29q26 27 26 76t-26 76q-30 28 -72 28q-40 0 -70 -28 q-26 -27 -26 -76z" />
<glyph unicode="&#xab;" horiz-adv-x="1735" d="M86 729q0 164 55 301q58 136 166 246q110 107 252 166q143 55 309 55q164 0 308 -55q143 -58 254 -166q106 -108 165 -246q56 -139 56 -301t-58 -299q-60 -142 -166 -248q-108 -105 -253 -164q-145 -57 -306 -57q-163 0 -307 57q-140 57 -254 166q-110 111 -166 244 q-55 137 -55 301zM596 1548l145 262h220l145 -262h-123l-131 127l-133 -127h-123zM621 729q0 -124 67 -201q69 -75 180 -75t179 75q67 77 67 201q0 127 -67 203q-69 76 -179 76t-180 -76q-67 -76 -67 -203z" />
<glyph unicode="&#xac;" horiz-adv-x="1706" d="M254 602v266h1198v-501h-272v235h-926z" />
<glyph unicode="&#xad;" horiz-adv-x="1706" d="M254 473v277h1198v-277h-1198z" />
<glyph unicode="&#xae;" horiz-adv-x="1706" d="M102 741q0 152 58 289t166 248q99 103 237 160q134 55 289 55q156 0 293 -55q139 -59 244 -164q101 -102 161 -244q56 -139 56 -289q0 -152 -56 -288.5t-161 -237.5q-109 -106 -250 -166q-139 -59 -287 -59q-153 0 -285 57q-138 60 -243 166q-110 110 -164 244 q-58 134 -58 284zM256 743q0 -122 45 -227q48 -111 130.5 -194t195.5 -132q106 -45 227 -45q119 0 229 45q108 46 197 134q86 83 129 190t43 229q0 123 -45 230q-49 112 -129 192q-83 84 -195 131q-103 45 -229 45q-124 0 -229 -43q-109 -45 -191 -129q-87 -90 -133 -196 q-45 -107 -45 -230zM528 352v813h334q175 0 266 -61.5t91 -177.5q0 -77 -43 -135q-42 -56 -121 -84l178 -355h-279l-145 312h-25v-312h-256zM784 813h54q60 0 88 25q30 24 30 73q0 52 -32 72q-34 23 -101 23h-39v-193z" />
<glyph unicode="&#xaf;" d="M205 1272v182h614v-182h-614z" />
<glyph unicode="&#xb0;" d="M242 1423q0 113 77 193q80 78 193 78t192.5 -78.5t79.5 -192.5q0 -113 -79 -192q-78 -80 -193 -80t-193 80q-77 77 -77 192zM397 1423q0 -47 33 -82q33 -32 82 -32q46 0 82 34q33 34 33 80q0 49 -33 82t-82 33t-82 -33t-33 -82z" />
<glyph unicode="&#xb1;" horiz-adv-x="1735" d="M86 731q0 164 55 301q58 136 166 246q110 107 252 166q143 55 309 55q164 0 308 -55q143 -58 254 -166q57 -52 94 -115q42 4 62 44t26 107.5t6 176.5h160q0 -159 -22 -247.5t-66.5 -127.5t-116.5 -47q78 -152 78 -340v2q0 -162 -58 -299q-60 -142 -166 -248 q-108 -105 -253 -164q-145 -57 -306 -57q-163 0 -307 57q-140 57 -254 166q-110 111 -166 244q-55 137 -55 301zM621 729q0 -124 67 -201q69 -75 180 -75t179 75q67 77 67 201q0 127 -67 203q-69 76 -179 76t-180 -76q-67 -76 -67 -203z" />
<glyph unicode="&#xb2;" horiz-adv-x="926" d="M23 575l430 467q28 32 45 60q10 20 10 39q0 23 -16 41q-15 14 -43 14q-34 0 -50 -25q-14 -22 -14 -77h-322v10q0 169 105 264q103 94 289 94q180 0 284 -88q107 -88 107 -231q0 -77 -37 -135q-42 -67 -127 -129l-82 -62h244v-242h-823z" />
<glyph unicode="&#xb3;" horiz-adv-x="926" d="M55 885v2h332q3 -45 21 -68q19 -22 53 -22q35 0 55 20q21 18 21 51t-25 56q-24 18 -70 18h-24v178h14q48 0 68 15q22 16 22 45q0 22 -14 36.5t-41 14.5q-25 0 -37 -17q-14 -14 -14 -45h-318q3 143 99 217q92 76 278 76q167 0 264 -67q99 -67 99 -178q0 -67 -33 -111 q-35 -44 -105 -66q88 -18 129 -69q45 -51 45 -135q0 -128 -108 -205q-110 -78 -291 -78q-197 0 -307 88q-113 88 -113 244z" />
<glyph unicode="&#xb4;" d="M332 1171l180 351h297l-311 -351h-166z" />
<glyph unicode="&#xb5;" horiz-adv-x="1372" d="M-29 -422l209 1509h422l-84 -614q-1 -5 -1.5 -12t-1 -13t-1.5 -8v-20q0 -68 33 -101q29 -32 94 -32q78 0 125 53q44 49 59 160l84 587h418l-158 -1087h-368l18 131q-36 -67 -82 -100q-46 -35 -106 -35q-63 0 -105 33q-43 29 -71 92l-72 -543h-412z" />
<glyph unicode="&#xb6;" d="M10 1130q0 158 107 252q108 97 282 97h615v-142h-101v-1337h-202v1337h-140v-1337h-202v784q-166 11 -260 103q-99 94 -99 243z" />
<glyph unicode="&#xb7;" horiz-adv-x="1602" d="M121 670v792h526v-798q0 -141 33 -191q33 -53 113 -53q79 0 112 53q35 56 35 191v798h526v-327q52 21 71 96.5t19 226.5h160q-6 -161 -35 -248t-80.5 -124t-134.5 -50v-366q0 -160 -20 -256q-22 -106 -66 -170q-89 -138 -239 -209q-156 -74 -348 -74q-193 0 -349 74 q-150 71 -239 209q-41 64 -64 168q-20 96 -20 258z" />
<glyph unicode="&#xb8;" d="M238 -299q76 -21 147 -33q75 -10 115 -10t59 16q21 19 21 52q0 28 -25 45q-25 14 -92 14h-25q-10 -2 -26 -2v217h123v-84h18q112 0 170 -49q59 -50 59 -143q0 -101 -65 -154q-67 -55 -189 -55q-62 0 -133 12q-65 8 -157 33v141z" />
<glyph unicode="&#xb9;" horiz-adv-x="926" d="M186 1180v266h492v-871h-348v605h-144z" />
<glyph unicode="&#xba;" horiz-adv-x="674" d="M14 1149q0 134 97 229q94 95 227 95t227 -95q94 -93 94 -229q0 -134 -94 -227q-94 -95 -229 -95q-133 0 -227 95q-95 91 -95 227zM186 1151q0 -61 43 -109q46 -45 109 -45q61 0 106 45t45 109q0 62 -45 106q-45 46 -108 46q-59 0 -107 -43q-43 -48 -43 -109z" />
<glyph unicode="&#xbb;" horiz-adv-x="1063" d="M66 815l194 133l297 -434l-297 -434l-192 133l217 301zM506 815l192 133l297 -434l-297 -434l-190 133l215 301z" />
<glyph unicode="&#xbc;" horiz-adv-x="2109" d="M176 1196v248h471v-811h-332v563h-139zM543 -39l813 1518h211l-817 -1518h-207zM1270 164v213l346 442h364v-442h99v-213h-99v-164h-315v164h-395zM1556 377h134v112q0 48 2 60t2.5 18t1.5 13q-10 -20 -27 -50q-12 -20 -37 -51z" />
<glyph unicode="&#xbd;" horiz-adv-x="1389" d="M66 516q0 119 30 219.5t88 173.5q117 152 299 152q100 0 176 -43q80 -46 142 -135q-3 30 -6 75q-4 58 -4 107v172h-379v111h379l2 202h493v-207h135v-110h-135v-1237h-469v151q-67 -98 -147 -143q-85 -47 -187 -47q-186 0 -303 154q-114 150 -114 405zM549 514 q0 -68 37 -111q34 -43 92 -43t92 43q37 43 37 111t-35 109q-38 41 -94 41q-57 0 -92 -41q-37 -40 -37 -109z" />
<glyph unicode="&#xbe;" horiz-adv-x="2109" d="M53 922v2h318q0 -39 18 -62q16 -22 51 -22q29 0 52 18q20 17 20 47q0 33 -23 51q-20 19 -67 19h-23v166h15q43 0 63 14q21 14 21 43q0 21 -15 35q-15 12 -37 12q-25 0 -36 -14q-13 -14 -13 -43h-305q3 134 96 203q91 69 267 69q158 0 252 -63.5t94 -165.5q0 -64 -33 -103 q-36 -41 -100 -61q80 -14 125 -66q43 -49 43 -127q0 -118 -105 -192q-103 -72 -278 -72q-92 0 -165.5 20.5t-127.5 61.5q-107 83 -107 230zM543 -39l813 1518h211l-817 -1518h-207zM1270 164v213l346 442h364v-442h99v-213h-99v-164h-315v164h-395zM1556 377h134v112 q0 48 2 60t2.5 18t1.5 13q-10 -20 -27 -50q-12 -20 -37 -51z" />
<glyph unicode="&#xbf;" horiz-adv-x="1247" d="M82 496q0 218 160 350q157 133 417 133q56 0 86 -2q46 -3 99 -12v-379q-47 14 -64 16q-36 4 -47 4q-76 0 -115 -39q-43 -37 -43 -102q0 -47 23 -78q24 -27 66 -27q44 0 67 29q22 33 25 92h504q-6 -79 -27 -147.5t-59.5 -127.5t-90.5 -104q-159 -141 -417 -141 q-262 0 -422 150q-56 51 -91.5 110t-53 127.5t-17.5 147.5zM399 1286q0 97 82 164q85 68 203 68t203 -68q82 -67 82 -164t-82 -164q-82 -69 -203 -69t-203 69q-82 70 -82 164z" />
<glyph unicode="&#xc0;" horiz-adv-x="1507" d="M-57 0l522 1464h586l512 -1464h-566l-47 184h-397l-45 -184h-565zM526 1829h222l135 -262h-123zM641 532h219l-45 166q-34 129 -45 195q-11 59 -14 127h-11q-3 -68 -14 -127q-14 -81 -45 -195z" />
<glyph unicode="&#xc1;" horiz-adv-x="1507" d="M-57 0l522 1464h586l512 -1464h-566l-47 184h-397l-45 -184h-565zM641 532h219l-45 166q-34 129 -45 195q-11 59 -14 127h-11q-3 -68 -14 -127q-14 -81 -45 -195zM662 1567l135 262h221l-234 -262h-122z" />
<glyph unicode="&#xc2;" horiz-adv-x="1507" d="M-57 0l522 1464h586l512 -1464h-566l-47 184h-397l-45 -184h-565zM485 1526l146 262h219l145 -262h-123l-131 127l-133 -127h-123zM641 532h219l-45 166q-34 129 -45 195q-11 59 -14 127h-11q-3 -68 -14 -127q-14 -81 -45 -195z" />
<glyph unicode="&#xc3;" horiz-adv-x="1507" d="M-57 0l522 1464h586l512 -1464h-566l-47 184h-397l-45 -184h-565zM526 1567q20 92 56 137q36 43 98 43h31q10 0 34 -4l70 -19h19h18q22 0 39 17t22 45h88h-2q-22 -102 -57.5 -146.5t-99.5 -44.5h-25q-6 0 -26 4l-68 19q-10 2 -27 2h-18q-24 0 -39 -12q-14 -13 -25 -41 h-88zM641 532h219l-45 166q-34 129 -45 195q-11 59 -14 127h-11q-3 -68 -14 -127q-14 -81 -45 -195z" />
<glyph unicode="&#xc4;" horiz-adv-x="1507" d="M-57 0l522 1464h586l512 -1464h-566l-47 184h-397l-45 -184h-565zM418 1720q0 52 39 90q38 39 92 39q55 0 92 -37q37 -36 37 -92t-35 -94q-35 -35 -92 -35q-55 0 -92 37q-39 36 -39 92h-2zM641 532h219l-45 166q-34 129 -45 195q-11 59 -14 127h-11q-3 -68 -14 -127 q-14 -81 -45 -195zM770 1720q0 52 39 90q39 39 92 39q56 0 92 -37q37 -36 37 -92t-35 -94q-38 -35 -92 -35q-52 0 -94 37q-37 37 -37 92h-2z" />
<glyph unicode="&#xc5;" horiz-adv-x="1507" d="M-57 0l522 1464h586l512 -1464h-566l-47 184h-397l-45 -184h-565zM559 1780q0 87 62 149t151 62q90 0 152 -62q61 -61 61 -149q0 -89 -61 -150t-152 -61q-90 0 -151 61q-62 62 -62 152v-2zM641 532h219l-45 166q-34 129 -45 195q-11 59 -14 127h-11q-3 -68 -14 -127 q-14 -81 -45 -195zM680 1782h2q0 -37 25 -62q24 -24 61 -24q39 0 63 24q25 25 25 62q0 39 -25 63q-24 25 -63 25t-63 -25q-25 -24 -25 -63z" />
<glyph unicode="&#xc6;" horiz-adv-x="0" d="M-848 1817l135 262h221l-233 -262h-123z" />
<glyph unicode="&#xc7;" horiz-adv-x="1309" d="M86 729q0 169 57 303q54 136 164 248q109 109 252 164t311 55q87 0 177 -18q88 -20 167 -56v-542q-68 68 -147 102q-78 35 -158 35q-129 0 -207 -80q-79 -79 -79 -211t75 -207.5t201 -75.5q75 0 156 33q84 38 170 103l-17 -551q-92 -37 -172 -51q-83 -19 -172 -19 q-107 0 -207 25q-96 21 -178 67q-195 115 -293 283q-100 172 -100 393zM547 -293q59 -16 129 -26q55 -7 100 -7q37 0 51 13q17 13 17 43q0 26 -21 39q-20 10 -80 10h-18h-20v194h110v-73h16q98 0 151.5 -43.5t53.5 -124.5q0 -90 -55 -135q-59 -50 -166 -50q-64 0 -117 9 q-53 5 -139 26z" />
<glyph unicode="&#xc8;" horiz-adv-x="1204" d="M137 0v1464h979v-397h-463v-141h420v-375h-420v-154h475v-397h-991zM375 1829h221l135 -262h-123z" />
<glyph unicode="&#xc9;" horiz-adv-x="1204" d="M137 0v1464h979v-397h-463v-141h420v-375h-420v-154h475v-397h-991zM551 1577l135 262h221l-233 -262h-123z" />
<glyph unicode="&#xca;" horiz-adv-x="1204" d="M137 0v1464h979v-397h-463v-141h420v-375h-420v-154h475v-397h-991zM362 1536l146 262h219l145 -262h-122l-132 127l-133 -127h-123z" />
<glyph unicode="&#xcb;" horiz-adv-x="1204" d="M137 0v1464h979v-397h-463v-141h420v-375h-420v-154h475v-397h-991zM336 1720q0 52 39 90q38 39 92 39q56 0 92 -37q37 -36 37 -92t-35 -94q-35 -35 -92 -35q-55 0 -92 37q-39 36 -39 92h-2zM688 1720q0 52 39 90q39 39 92 39q56 0 92 -37q37 -36 37 -92t-35 -94 q-38 -35 -92 -35q-52 0 -94 37q-37 37 -37 92h-2z" />
<glyph unicode="&#xcc;" horiz-adv-x="829" d="M147 0v1464h535v-1464h-535zM197 1839h221l135 -262h-123z" />
<glyph unicode="&#xcd;" horiz-adv-x="829" d="M147 0v1464h535v-1464h-535zM240 1597l135 263h221l-234 -263h-122z" />
<glyph unicode="&#xce;" horiz-adv-x="829" d="M147 0v1464h535v-1464h-535zM158 1567l145 262h219l146 -262h-123l-131 127l-133 -127h-123z" />
<glyph unicode="&#xcf;" horiz-adv-x="829" d="M121 1720q0 52 39 90q38 39 92 39q55 0 92 -37q37 -36 37 -92t-35 -94q-35 -35 -92 -35q-55 0 -92 37q-39 36 -39 92h-2zM147 0v1464h535v-1464h-535zM473 1720q0 52 39 90q39 39 92 39q56 0 92 -37q37 -36 37 -92t-35 -94q-38 -35 -92 -35q-52 0 -94 37q-37 37 -37 92 h-2z" />
<glyph unicode="&#xd0;" horiz-adv-x="1647" d="M0 571v344h166v549h426q101 0 182.5 -5t163.5 -17q142 -22 233 -70q94 -48 169.5 -116.5t123.5 -147.5q101 -165 101 -377q0 -213 -101 -375.5t-293 -263.5q-88 -48 -235 -69q-78 -11 -171.5 -17t-213.5 -6h-385v571h-166zM651 408q11 -2 27 -2h33q172 0 264 86 q90 84 90 243q0 158 -90 242q-92 82 -266 82h-33q-17 0 -23 -2l-2 -154h209v-319h-209v-176z" />
<glyph unicode="&#xd1;" horiz-adv-x="1731" d="M137 0v1464h516l455 -766q-9 53 -12 113q-4 82 -4 162v491h507v-1464h-520l-450 760q9 -49 12 -105q4 -78 4 -127v-528h-508zM676 1593q17 89 55 138q38 43 98 43h31q15 0 35 -5l70 -18h18h18q23 0 39 16q17 17 23 45h88h-2q-21 -99 -57 -145q-36 -45 -101 -45h-24 q-7 0 -27 4l-68 19q-10 2 -26 2h-19q-21 0 -39 -13q-15 -12 -24 -41h-88z" />
<glyph unicode="&#xd2;" horiz-adv-x="1735" d="M86 729q0 164 55 301q58 136 166 246q110 107 252 166q143 55 309 55q164 0 308 -55q143 -58 254 -166q106 -108 165 -246q56 -139 56 -301t-58 -299q-60 -142 -166 -248q-108 -105 -253 -164q-145 -57 -306 -57q-163 0 -307 57q-140 57 -254 166q-110 111 -166 244 q-55 137 -55 301zM621 729q0 -124 67 -201q69 -75 180 -75t179 75q67 77 67 201q0 127 -67 203q-69 76 -179 76t-180 -76q-67 -76 -67 -203zM641 1862h221l135 -263h-123z" />
<glyph unicode="&#xd3;" horiz-adv-x="1735" d="M86 729q0 164 55 301q58 136 166 246q110 107 252 166q143 55 309 55q164 0 308 -55q143 -58 254 -166q106 -108 165 -246q56 -139 56 -301t-58 -299q-60 -142 -166 -248q-108 -105 -253 -164q-145 -57 -306 -57q-163 0 -307 57q-140 57 -254 166q-110 111 -166 244 q-55 137 -55 301zM621 729q0 -124 67 -201q69 -75 180 -75t179 75q67 77 67 201q0 127 -67 203q-69 76 -179 76t-180 -76q-67 -76 -67 -203zM807 1599l135 263h221l-233 -263h-123z" />
<glyph unicode="&#xd4;" horiz-adv-x="1735" d="M86 729q0 164 55 301q58 136 166 246q110 107 252 166q143 55 309 55q164 0 308 -55q143 -58 254 -166q106 -108 165 -246q56 -139 56 -301t-58 -299q-60 -142 -166 -248q-108 -105 -253 -164q-145 -57 -306 -57q-163 0 -307 57q-140 57 -254 166q-110 111 -166 244 q-55 137 -55 301zM596 1548l145 262h220l145 -262h-123l-131 127l-133 -127h-123zM621 729q0 -124 67 -201q69 -75 180 -75t179 75q67 77 67 201q0 127 -67 203q-69 76 -179 76t-180 -76q-67 -76 -67 -203z" />
<glyph unicode="&#xd5;" horiz-adv-x="1735" d="M86 729q0 164 55 301q58 136 166 246q110 107 252 166q143 55 309 55q164 0 308 -55q143 -58 254 -166q106 -108 165 -246q56 -139 56 -301t-58 -299q-60 -142 -166 -248q-108 -105 -253 -164q-145 -57 -306 -57q-163 0 -307 57q-140 57 -254 166q-110 111 -166 244 q-55 137 -55 301zM621 729q0 -124 67 -201q69 -75 180 -75t179 75q67 77 67 201q0 127 -67 203q-69 76 -179 76t-180 -76q-67 -76 -67 -203zM631 1599q17 89 55 138q38 43 98 43h31q11 0 35 -4l70 -19h18h18q24 0 39 17q17 16 23 45h88h-2q-21 -100 -57 -146 q-36 -45 -101 -45h-24q-7 0 -27 4l-68 19q-10 2 -26 2h-19q-23 0 -39 -13q-15 -12 -24 -41h-88z" />
<glyph unicode="&#xd6;" horiz-adv-x="1735" d="M86 729q0 164 55 301q58 136 166 246q110 107 252 166q143 55 309 55q164 0 308 -55q143 -58 254 -166q106 -108 165 -246q56 -139 56 -301t-58 -299q-60 -142 -166 -248q-108 -105 -253 -164q-145 -57 -306 -57q-163 0 -307 57q-140 57 -254 166q-110 111 -166 244 q-55 137 -55 301zM539 1733q0 51 39 90t92 39t92 -37q37 -39 37 -92q0 -55 -35 -95q-36 -34 -92 -34t-92 36q-39 36 -39 93h-2zM621 729q0 -124 67 -201q69 -75 180 -75t179 75q67 77 67 201q0 127 -67 203q-69 76 -179 76t-180 -76q-67 -76 -67 -203zM891 1733q0 51 39 90 t92 39q55 0 92 -37t37 -92q0 -57 -35 -95q-37 -34 -92 -34t-94 36q-37 37 -37 93h-2z" />
<glyph unicode="&#xd7;" horiz-adv-x="1389" d="M68 508q0 253 116 405q114 154 301 154q97 0 174 -41q79 -44 146 -129v137h481v-1034h-463v156q-77 -103 -157 -148q-85 -47 -181 -47q-179 0 -299 154q-58 73 -88 173.5t-30 219.5zM549 520q0 -68 37 -106q33 -41 92 -41q61 0 94 41q35 40 35 106q0 68 -35 109 q-38 41 -94 41q-57 0 -92 -41q-37 -40 -37 -109zM578 1354l108 2q3 -53 39 -76t104 -23t107 25q35 25 35 76h104q-9 -120 -69 -174q-62 -56 -179 -56q-118 0 -180 56q-63 57 -69 170z" />
<glyph unicode="&#xd8;" horiz-adv-x="1735" d="M86 731q0 167 57 301q54 136 164 248q105 105 250 162q143 55 311 55q96 0 197 -22q97 -24 184 -68l101 141l125 -88l-95 -139q134 -115 203 -260q68 -151 68 -330q0 -164 -58 -301q-59 -139 -166 -246q-104 -104 -251 -164q-145 -55 -308 -55q-97 0 -194 23 q-98 21 -185 65l-102 -143l-135 88l100 143q-134 115 -198 262q-68 150 -68 328zM596 733q0 -51 12 -98q8 -39 35 -82l322 455q-30 9 -52 12q-18 2 -51 2q-121 0 -192 -80q-74 -77 -74 -209zM772 455q19 -7 49 -11q34 -4 53 -4q116 0 193 80q72 84 72 213q0 58 -13 98 q-13 46 -36 78z" />
<glyph unicode="&#xd9;" horiz-adv-x="1602" d="M121 670v794h526v-798q0 -141 33 -191q33 -53 113 -53q79 0 112 53q35 56 35 191v798h526v-794q0 -160 -20 -256q-22 -106 -66 -170q-89 -138 -239 -209q-156 -74 -348 -74q-193 0 -349 74q-150 71 -239 209q-41 64 -64 168q-20 96 -20 258zM504 1829h221l135 -262h-123z " />
<glyph unicode="&#xda;" horiz-adv-x="1602" d="M121 670v794h526v-798q0 -141 33 -191q33 -53 113 -53q79 0 112 53q35 56 35 191v798h526v-794q0 -160 -20 -256q-22 -106 -66 -170q-89 -138 -239 -209q-156 -74 -348 -74q-193 0 -349 74q-150 71 -239 209q-41 64 -64 168q-20 96 -20 258zM731 1567l135 262h221 l-233 -262h-123z" />
<glyph unicode="&#xdb;" horiz-adv-x="1602" d="M121 670v794h526v-798q0 -141 33 -191q33 -53 113 -53q79 0 112 53q35 56 35 191v798h526v-794q0 -160 -20 -256q-22 -106 -66 -170q-89 -138 -239 -209q-156 -74 -348 -74q-193 0 -349 74q-150 71 -239 209q-41 64 -64 168q-20 96 -20 258zM551 1587l145 262h219 l146 -262h-123l-131 127l-133 -127h-123z" />
<glyph unicode="&#xdc;" horiz-adv-x="1602" d="M121 670v794h526v-798q0 -141 33 -191q33 -53 113 -53q79 0 112 53q35 56 35 191v798h526v-794q0 -160 -20 -256q-22 -106 -66 -170q-89 -138 -239 -209q-156 -74 -348 -74q-193 0 -349 74q-150 71 -239 209q-41 64 -64 168q-20 96 -20 258zM483 1710q0 51 39 90t92 39 q56 0 93 -37q36 -36 36 -92q0 -57 -34 -94q-35 -35 -93 -35q-55 0 -92 37q-39 36 -39 92h-2zM836 1710q0 52 38 90q39 39 93 39q55 0 92 -37t37 -92q0 -56 -35 -94q-38 -35 -92 -35q-55 0 -95 37q-36 36 -36 92h-2z" />
<glyph unicode="&#xdd;" horiz-adv-x="1305" d="M-115 1464h600l123 -284q26 -64 39 -111q2 -4 2.5 -6t1.5 -4q8 30 37 102q4 8 5.5 12.5t2.5 6.5l121 284h596l-508 -817v-647h-530v647zM567 1587l135 262h222l-234 -262h-123z" />
<glyph unicode="&#xde;" horiz-adv-x="1450" d="M137 0v1464h527v-188h102q331 0 485 -127q154 -129 154 -408q0 -260 -137 -379q-140 -120 -439 -120h-165v-242h-527zM666 625h82q75 0 114 30q41 32 41 90q0 59 -41 91q-39 30 -114 30h-82v-241z" />
<glyph unicode="&#xdf;" horiz-adv-x="1432" d="M117 0v1133q0 230 147 344q73 56 183.5 85t254.5 29q274 0 422 -104q148 -108 148 -303q0 -94 -47 -168q-48 -73 -140 -113q141 -38 222 -145q75 -106 75 -262q0 -249 -155 -371q-156 -125 -469 -125h-53l-7 293h11q80 0 116 49q37 49 37 156q0 132 -35 182 q-33 46 -127 55v291q5 -2 15 -2h18q60 0 86 25q31 24 31 71q0 49 -29 76q-29 29 -78 29q-66 0 -96 -47q-29 -53 -29 -172v-1006h-501z" />
<glyph unicode="&#xe0;" horiz-adv-x="1389" d="M68 508q0 253 116 405q114 154 301 154q97 0 174 -41q79 -44 146 -129v137h481v-1034h-463v156q-77 -103 -157 -148q-85 -47 -181 -47q-179 0 -299 154q-58 73 -88 173.5t-30 219.5zM549 520q0 -68 37 -106q33 -41 92 -41q61 0 94 41q35 40 35 106q0 68 -35 109 q-38 41 -94 41q-57 0 -92 -41q-37 -40 -37 -109zM571 1432h222l135 -263h-123z" />
<glyph unicode="&#xe1;" horiz-adv-x="1389" d="M68 508q0 253 116 405q114 154 301 154q97 0 174 -41q79 -44 146 -129v137h481v-1034h-463v156q-77 -103 -157 -148q-85 -47 -181 -47q-179 0 -299 154q-58 73 -88 173.5t-30 219.5zM549 520q0 -68 37 -106q33 -41 92 -41q61 0 94 41q35 40 35 106q0 68 -35 109 q-38 41 -94 41q-57 0 -92 -41q-37 -40 -37 -109zM614 1169l136 263h221l-234 -263h-123z" />
<glyph unicode="&#xe2;" horiz-adv-x="1389" d="M68 508q0 253 116 405q114 154 301 154q97 0 174 -41q79 -44 146 -129v137h481v-1034h-463v156q-77 -103 -157 -148q-85 -47 -181 -47q-179 0 -299 154q-58 73 -88 173.5t-30 219.5zM485 1149l146 262h219l145 -262h-123l-131 127l-133 -127h-123zM549 520q0 -68 37 -106 q33 -41 92 -41q61 0 94 41q35 40 35 106q0 68 -35 109q-38 41 -94 41q-57 0 -92 -41q-37 -40 -37 -109z" />
<glyph unicode="&#xe3;" horiz-adv-x="1389" d="M68 508q0 253 116 405q114 154 301 154q97 0 174 -41q79 -44 146 -129v137h481v-1034h-463v156q-77 -103 -157 -148q-85 -47 -181 -47q-179 0 -299 154q-58 73 -88 173.5t-30 219.5zM541 1169q18 92 55 138q38 43 98 43h31q11 0 35 -4l69 -19h19h18q23 0 39 16 q18 20 23 46h88h-2q-23 -103 -58 -146q-35 -45 -100 -45h-25q-6 0 -26 4l-68 19q-10 2 -26 2h-19q-23 0 -39 -13q-15 -12 -24 -41h-88zM549 520q0 -68 37 -106q33 -41 92 -41q61 0 94 41q35 40 35 106q0 68 -35 109q-38 41 -94 41q-57 0 -92 -41q-37 -40 -37 -109z" />
<glyph unicode="&#xe4;" horiz-adv-x="1389" d="M68 508q0 253 116 405q114 154 301 154q97 0 174 -41q79 -44 146 -129v137h481v-1034h-463v156q-77 -103 -157 -148q-85 -47 -181 -47q-179 0 -299 154q-58 73 -88 173.5t-30 219.5zM459 1292q0 52 39 90q38 39 92 39q55 0 92 -37q37 -36 37 -92t-35 -94q-35 -35 -92 -35 q-55 0 -92 37q-39 36 -39 92h-2zM549 520q0 -68 37 -106q33 -41 92 -41q61 0 94 41q35 40 35 106q0 68 -35 109q-38 41 -94 41q-57 0 -92 -41q-37 -40 -37 -109zM811 1292q0 52 39 90q39 39 92 39q56 0 92 -37q37 -36 37 -92t-35 -94q-38 -35 -92 -35q-52 0 -94 37 q-37 37 -37 92h-2z" />
<glyph unicode="&#xe5;" horiz-adv-x="1389" d="M68 508q0 253 116 405q114 154 301 154q97 0 174 -41q79 -44 146 -129v137h481v-1034h-463v156q-77 -103 -157 -148q-85 -47 -181 -47q-179 0 -299 154q-58 73 -88 173.5t-30 219.5zM518 1382q0 88 61.5 149.5t151.5 61.5q91 0 152 -61t61 -150q0 -88 -61.5 -149.5 t-151.5 -61.5q-89 0 -151 62t-62 151v-2zM549 520q0 -68 37 -106q33 -41 92 -41q61 0 94 41q35 40 35 106q0 68 -35 109q-38 41 -94 41q-57 0 -92 -41q-37 -40 -37 -109zM639 1384h2q0 -37 25 -61.5t61 -24.5q37 0 64 25q24 24 24 61q0 40 -24 64q-27 25 -64 25 q-38 0 -63 -25q-25 -24 -25 -64z" />
<glyph unicode="&#xe6;" horiz-adv-x="0" d="M-623 1407l136 262h221l-234 -262h-123z" />
<glyph unicode="&#xe7;" horiz-adv-x="950" d="M47 510q0 84 21 154q21 75 61 141q40 64 90 113t109 81q121 68 270 68q70 0 139 -14q79 -19 154 -43v-418q-48 39 -82 53q-46 17 -88 17q-74 0 -121 -39q-45 -39 -45 -109q0 -65 43 -104q47 -41 115 -41q46 0 90 20q41 18 88 57v-411q-71 -35 -150 -55q-72 -19 -143 -19 q-118 0 -213 39q-101 41 -174 113q-79 79 -123 182q-41 102 -41 215zM315 -297q52 -14 129 -27q58 -6 101 -6q37 0 51 13q16 13 16 43q0 27 -20.5 38t-79.5 11h-18h-21v194h111v-73h16q98 0 152 -43q53 -45 53 -125q0 -89 -55 -136q-60 -49 -166 -49q-62 0 -117 8 q-55 6 -139 27z" />
<glyph unicode="&#xe8;" horiz-adv-x="1321" d="M61 514q0 120 52 225q23 53 57 97t84 88q85 73 186 106q104 37 226 37q81 0 158 -17t141 -49q127 -65 219 -194q46 -66 67 -143q23 -80 23 -172v-35q0 -17 -2 -23h-713v-16q0 -76 29 -117q26 -39 86 -39q36 0 61 21q26 19 41 59l465 -31q-61 -167 -211 -260 q-149 -90 -364 -90q-120 0 -224 37q-111 40 -188 106q-94 83 -143 187q-50 108 -50 223zM440 1432h222l135 -263h-123zM563 659l228 -2q-5 63 -31 91q-28 30 -82 30q-46 0 -78 -30q-28 -33 -37 -89z" />
<glyph unicode="&#xe9;" horiz-adv-x="1321" d="M61 514q0 120 52 225q23 53 57 97t84 88q85 73 186 106q104 37 226 37q81 0 158 -17t141 -49q127 -65 219 -194q46 -66 67 -143q23 -80 23 -172v-35q0 -17 -2 -23h-713v-16q0 -76 29 -117q26 -39 86 -39q36 0 61 21q26 19 41 59l465 -31q-61 -167 -211 -260 q-149 -90 -364 -90q-120 0 -224 37q-111 40 -188 106q-94 83 -143 187q-50 108 -50 223zM563 659l228 -2q-5 63 -31 91q-28 30 -82 30q-46 0 -78 -30q-28 -33 -37 -89zM606 1169l135 263h222l-234 -263h-123z" />
<glyph unicode="&#xea;" horiz-adv-x="1321" d="M61 514q0 120 52 225q23 53 57 97t84 88q85 73 186 106q104 37 226 37q81 0 158 -17t141 -49q127 -65 219 -194q46 -66 67 -143q23 -80 23 -172v-35q0 -17 -2 -23h-713v-16q0 -76 29 -117q26 -39 86 -39q36 0 61 21q26 19 41 59l465 -31q-61 -167 -211 -260 q-149 -90 -364 -90q-120 0 -224 37q-111 40 -188 106q-94 83 -143 187q-50 108 -50 223zM391 1128l146 263h219l145 -263h-123l-131 127l-133 -127h-123zM563 659l228 -2q-5 63 -31 91q-28 30 -82 30q-46 0 -78 -30q-28 -33 -37 -89z" />
<glyph unicode="&#xeb;" horiz-adv-x="1321" d="M61 514q0 120 52 225q23 53 57 97t84 88q85 73 186 106q104 37 226 37q81 0 158 -17t141 -49q127 -65 219 -194q46 -66 67 -143q23 -80 23 -172v-35q0 -17 -2 -23h-713v-16q0 -76 29 -117q26 -39 86 -39q36 0 61 21q26 19 41 59l465 -31q-61 -167 -211 -260 q-149 -90 -364 -90q-120 0 -224 37q-111 40 -188 106q-94 83 -143 187q-50 108 -50 223zM324 1282q0 52 38 90q39 39 93 39q55 0 92 -37t37 -92q0 -56 -35 -94q-35 -35 -92 -35q-56 0 -92 37q-39 35 -39 92h-2zM563 659l228 -2q-5 63 -31 91q-28 30 -82 30q-46 0 -78 -30 q-28 -33 -37 -89zM676 1282q0 52 39 90q38 39 92 39q55 0 92 -37q37 -36 37 -92q0 -57 -35 -94q-37 -35 -92 -35q-56 0 -94 37q-37 36 -37 92h-2z" />
<glyph unicode="&#xec;" horiz-adv-x="739" d="M119 -4v1034h502v-1034h-502zM188 1434h222l135 -263h-123z" />
<glyph unicode="&#xed;" horiz-adv-x="739" d="M119 -4v1034h502v-1034h-502zM262 1161l135 262h221l-233 -262h-123z" />
<glyph unicode="&#xee;" horiz-adv-x="739" d="M119 -4v1034h502v-1034h-502zM119 1143l145 262h219l146 -262h-123l-131 127l-133 -127h-123z" />
<glyph unicode="&#xef;" horiz-adv-x="739" d="M61 1296q0 51 39 90t93 39t92 -36q37 -39 37 -93t-35 -94q-37 -35 -92 -35q-54 0 -93 37t-39 92h-2zM119 -4v1034h502v-1034h-502zM414 1296q0 52 39 90q38 39 92 39t91.5 -36.5t37.5 -92.5t-35 -94q-40 -35 -92 -35q-54 0 -94 37q-37 37 -37 92h-2z" />
<glyph unicode="&#xf0;" horiz-adv-x="1331" d="M59 500q0 205 129 334q130 127 334 127q48 0 105 -13q51 -12 108 -41q-34 51 -82 99t-116 98l-258 -125l-68 137l176 88q-18 12 -45 25q-43 21 -61 33l198 288q64 -33 150 -82q59 -33 133 -86l305 150l86 -131l-256 -127q87 -70 157 -155.5t115 -176.5q95 -183 95 -393 q0 -139 -39 -245.5t-119 -186.5q-159 -156 -440 -156q-267 0 -437 152t-170 387zM543 504q0 -59 35 -96q33 -37 88 -37q54 0 88 37q32 35 32 96q0 59 -30 94q-34 37 -90 37q-55 0 -88 -37q-35 -35 -35 -94z" />
<glyph unicode="&#xf1;" horiz-adv-x="1376" d="M109 0v1034h487v-143q64 88 143 133q80 43 179 43q166 0 262 -100q96 -104 96 -273v-694h-502v522q0 73 -16 107q-16 28 -56 28q-45 0 -67 -34q-23 -38 -23 -101v-522h-503zM524 1174q20 92 56 137q37 43 98 43h31q10 0 34 -4l70 -19h18h19q24 0 39 17q17 17 22 45h88h-2 q-22 -102 -57 -146q-37 -45 -100 -45h-25q-5 0 -27 4l-67 19q-10 2 -27 2h-18q-25 0 -39 -13q-16 -13 -25 -40h-88z" />
<glyph unicode="&#xf2;" horiz-adv-x="1331" d="M61 514q0 120 52 225q23 53 57 97t84 88q85 73 186 106q104 37 226 37q120 0 226.5 -37t186.5 -106q90 -78 142 -185q49 -109 49 -225q0 -114 -49 -223q-52 -107 -144 -187q-79 -67 -184 -106q-107 -37 -227 -37q-122 0 -226 37q-101 33 -186 106q-93 79 -141 187 q-52 105 -52 223zM459 1432h221l135 -263h-123zM543 514q0 -62 35 -102q32 -39 88 -39q55 0 88 39q34 40 34 102q0 64 -32 102q-33 39 -90 39q-56 0 -88 -39q-35 -40 -35 -102z" />
<glyph unicode="&#xf3;" horiz-adv-x="1331" d="M61 514q0 120 52 225q23 53 57 97t84 88q85 73 186 106q104 37 226 37q120 0 226.5 -37t186.5 -106q90 -78 142 -185q49 -109 49 -225q0 -114 -49 -223q-52 -107 -144 -187q-79 -67 -184 -106q-107 -37 -227 -37q-122 0 -226 37q-101 33 -186 106q-93 79 -141 187 q-52 105 -52 223zM532 1169l136 263h221l-234 -263h-123zM543 514q0 -62 35 -102q32 -39 88 -39q55 0 88 39q34 40 34 102q0 64 -32 102q-33 39 -90 39q-56 0 -88 -39q-35 -40 -35 -102z" />
<glyph unicode="&#xf4;" horiz-adv-x="1331" d="M61 514q0 120 52 225q23 53 57 97t84 88q85 73 186 106q104 37 226 37q120 0 226.5 -37t186.5 -106q90 -78 142 -185q49 -109 49 -225q0 -114 -49 -223q-52 -107 -144 -187q-79 -67 -184 -106q-107 -37 -227 -37q-122 0 -226 37q-101 33 -186 106q-93 79 -141 187 q-52 105 -52 223zM389 1128l146 263h219l145 -263h-123l-131 127l-133 -127h-123zM543 514q0 -62 35 -102q32 -39 88 -39q55 0 88 39q34 40 34 102q0 64 -32 102q-33 39 -90 39q-56 0 -88 -39q-35 -40 -35 -102z" />
<glyph unicode="&#xf5;" horiz-adv-x="1331" d="M61 514q0 120 52 225q23 53 57 97t84 88q85 73 186 106q104 37 226 37q120 0 226.5 -37t186.5 -106q90 -78 142 -185q49 -109 49 -225q0 -114 -49 -223q-52 -107 -144 -187q-79 -67 -184 -106q-107 -37 -227 -37q-122 0 -226 37q-101 33 -186 106q-93 79 -141 187 q-52 105 -52 223zM428 1169q17 89 55 138q38 43 99 43h30q11 0 35 -4l70 -19h18h19q21 0 39 16q17 18 22 46h88h-2q-21 -100 -57 -146q-36 -45 -101 -45h-24q-7 0 -27 4l-67 19q-11 2 -27 2h-18q-25 0 -39 -13q-16 -11 -25 -41h-88zM543 514q0 -62 35 -102q32 -39 88 -39 q55 0 88 39q34 40 34 102q0 64 -32 102q-33 39 -90 39q-56 0 -88 -39q-35 -40 -35 -102z" />
<glyph unicode="&#xf6;" horiz-adv-x="1331" d="M61 514q0 120 52 225q23 53 57 97t84 88q85 73 186 106q104 37 226 37q120 0 226.5 -37t186.5 -106q90 -78 142 -185q49 -109 49 -225q0 -114 -49 -223q-52 -107 -144 -187q-79 -67 -184 -106q-107 -37 -227 -37q-122 0 -226 37q-101 33 -186 106q-93 79 -141 187 q-52 105 -52 223zM342 1313q0 51 39 90t92 39q56 0 92 -37q37 -37 37 -92q0 -57 -35 -94q-33 -35 -92 -35q-55 0 -92 37q-39 35 -39 92h-2zM543 514q0 -62 35 -102q32 -39 88 -39q55 0 88 39q34 40 34 102q0 64 -32 102q-33 39 -90 39q-56 0 -88 -39q-35 -40 -35 -102z M694 1313q0 49 39 90q39 39 92 39q56 0 92.5 -37t36.5 -92q0 -57 -34 -94q-38 -35 -93 -35q-54 0 -94 37q-37 37 -37 92h-2z" />
<glyph unicode="&#xf7;" horiz-adv-x="1706" d="M254 475v273h1198v-273h-1198zM670 188q0 78 55 129q54 54 129 54q73 0 127 -54q55 -54 55 -129q0 -74 -55 -129q-55 -53 -129 -53t-129 53q-53 53 -53 129zM670 1032q0 79 55 131q54 54 129 54q74 0 127 -56q55 -52 55 -129q0 -74 -55 -129q-53 -53 -129 -53t-129 53 t-53 129z" />
<glyph unicode="&#xf8;" horiz-adv-x="1331" d="M61 514q0 117 50 225q50 102 143 185q85 73 186 106q104 37 226 37q68 0 133 -12q58 -11 125 -37l63 94l119 -65l-62 -95q112 -83 168 -192q58 -113 58 -246q0 -117 -49 -223.5t-142 -184.5q-82 -70 -188 -108q-107 -37 -225 -37q-62 0 -127 12q-71 18 -127 39l-66 -96 l-113 64l62 94q-116 87 -174 198q-60 117 -60 242zM469 512q0 -34 10 -66q6 -19 33 -55l199 297q-6 2 -21 2q-6 2 -33 2q-84 0 -135 -51q-53 -50 -53 -129zM623 338h6q40 -4 45 -4q85 0 137 49q53 50 53 129q0 36 -10 68q-9 27 -35 53z" />
<glyph unicode="&#xf9;" horiz-adv-x="1339" d="M94 477v557h494v-506q0 -106 18 -141q15 -31 64 -31q44 0 63 29q17 36 17 143v506h493v-557q0 -269 -137 -391q-137 -125 -436 -125t-437.5 124.5t-138.5 391.5zM440 1399h222l135 -262h-123z" />
<glyph unicode="&#xfa;" horiz-adv-x="1339" d="M94 477v557h494v-506q0 -106 18 -141q15 -31 64 -31q44 0 63 29q17 36 17 143v506h493v-557q0 -269 -137 -391q-137 -125 -436 -125t-437.5 124.5t-138.5 391.5zM606 1137l135 262h222l-234 -262h-123z" />
<glyph unicode="&#xfb;" horiz-adv-x="1339" d="M94 477v557h494v-506q0 -106 18 -141q15 -31 64 -31q44 0 63 29q17 36 17 143v506h493v-557q0 -269 -137 -391q-137 -125 -436 -125t-437.5 124.5t-138.5 391.5zM424 1137l145 262h219l146 -262h-123l-131 127l-133 -127h-123z" />
<glyph unicode="&#xfc;" horiz-adv-x="1339" d="M94 477v557h494v-506q0 -106 18 -141q15 -31 64 -31q44 0 63 29q17 36 17 143v506h493v-557q0 -269 -137 -391q-137 -125 -436 -125t-437.5 124.5t-138.5 391.5zM387 1280q0 51 39 90t92 39q56 0 92 -37q37 -36 37 -92q0 -57 -35 -94q-33 -35 -92 -35q-55 0 -92 37 q-39 35 -39 92h-2zM739 1280q0 49 39 90q39 39 92 39q56 0 93 -37q36 -36 36 -92q0 -57 -34 -94q-38 -35 -93 -35q-54 0 -94 37q-37 37 -37 92h-2z" />
<glyph unicode="&#xfd;" horiz-adv-x="1300" d="M-39 1034h551l78 -264q2 -2 2.5 -4.5t1.5 -5.5q55 -195 63 -281q9 40 17 72.5t16.5 64.5t14.5 56q8 39 26 104l76 258h516l-631 -1456h-534l252 512zM600 1147l135 262h221l-233 -262h-123z" />
<glyph unicode="&#xfe;" horiz-adv-x="1300" d="M-39 1034h551l78 -264q2 -2 2.5 -4.5t1.5 -5.5q55 -195 63 -281q9 40 17 72.5t16.5 64.5t14.5 56q8 39 26 104l76 258h516l-631 -1456h-534l252 512zM500 1133q18 91 55 137q38 43 98 43h31q11 0 35 -4l69 -19h19h18q24 0 39 17q18 18 23 45h88h-2q-23 -103 -58 -146 q-36 -45 -100 -45h-24q-7 0 -27 4l-68 19q-10 2 -26 2h-19q-22 0 -39 -12q-15 -13 -24 -41h-88z" />
<glyph unicode="&#xff;" horiz-adv-x="1300" d="M-39 1034h551l78 -264q2 -2 2.5 -4.5t1.5 -5.5q55 -195 63 -281q9 40 17 72.5t16.5 64.5t14.5 56q8 39 26 104l76 258h516l-631 -1456h-534l252 512zM344 1270q0 51 39 90q40 39 92 39q55 0 92 -37t37 -92q0 -57 -35 -94q-33 -35 -92 -35q-55 0 -92 37q-39 35 -39 92h-2z M696 1270q0 49 39 90q40 39 92 39q54 0 93 -37q36 -37 36 -92q0 -57 -34 -94q-38 -35 -93 -35q-54 0 -94 37q-37 37 -37 92h-2z" />
<glyph unicode="&#x152;" horiz-adv-x="2238" d="M82 729q0 166 49 303q50 144 148 250q95 105 219 160q125 55 270 55q122 0 221 -37q103 -36 201 -112v116h958v-397h-460v-141h419v-375h-419v-154h473v-397h-971v129q-93 -88 -191 -127q-102 -41 -219 -41q-99 0 -186 25q-82 19 -166 69q-168 104 -256 279 q-29 57 -49 121t-30.5 130.5t-10.5 143.5zM649 731q0 -124 72 -201q69 -75 188 -75t191 75q71 79 71 199q0 128 -71 205q-70 76 -191 76q-118 0 -188 -76q-72 -78 -72 -203z" />
<glyph unicode="&#x153;" horiz-adv-x="2017" d="M61 514q0 117 50 225q50 102 143 185q85 73 186 106q104 37 226 37q111 0 198 -29q84 -30 154 -94q82 63 168 92q87 31 190 31q156 0 289 -68q130 -68 217 -192q44 -61 68 -143q22 -85 22 -175v-34q-2 -9 -2 -21h-713v-16q0 -73 29 -117q27 -39 86 -39q36 0 60 21 q26 23 41 59l466 -31q-57 -158 -204 -254q-151 -96 -338 -96q-103 0 -195.5 30.5t-179.5 94.5q-81 -61 -174 -92q-86 -33 -182 -33q-123 0 -224 37q-99 33 -190 108q-94 79 -141 185q-50 105 -50 223zM543 514q0 -66 39 -104q36 -41 98 -41q61 0 100 41q37 38 37 104 q0 68 -39 107q-38 41 -98 41q-65 -5 -98 -41q-39 -39 -39 -107zM1262 662h225q-3 60 -31 88t-82 28q-46 0 -76 -28q-27 -32 -36 -88z" />
<glyph unicode="&#x178;" horiz-adv-x="1305" d="M-115 1464h600l123 -284q26 -64 39 -111q2 -4 2.5 -6t1.5 -4q8 30 37 102q4 8 5.5 12.5t2.5 6.5l121 284h596l-508 -817v-647h-530v647zM338 1722q0 52 39 90q38 39 92 39q56 0 92 -36q37 -37 37 -93t-35 -94q-35 -35 -92 -35q-55 0 -92 37q-39 36 -39 92h-2zM690 1722 q0 52 39 90q39 39 92 39q56 0 92 -36q37 -37 37 -93t-35 -94q-38 -35 -92 -35q-52 0 -94 37q-37 39 -37 92h-2z" />
<glyph unicode="&#x2c6;" d="M190 1171l185 351h274l182 -351h-153l-166 170l-168 -170h-154z" />
<glyph unicode="&#x2dc;" d="M180 1214q29 127 80 187q53 59 135 59q15 0 43 -4q15 -2 47 -10l95 -27q16 -4 26 -6t31 -2q34 0 55 23q25 23 33 63h119q-33 -138 -82 -194q-53 -62 -137 -62q-25 0 -37 2q-9 1 -39 10l-92 27q-13 4 -22 5t-17 3q-24 4 -29 4q-32 0 -53.5 -18.5t-36.5 -59.5h-119z" />
<glyph unicode="&#x2000;" horiz-adv-x="1039" />
<glyph unicode="&#x2001;" horiz-adv-x="2079" />
<glyph unicode="&#x2002;" horiz-adv-x="1039" />
<glyph unicode="&#x2003;" horiz-adv-x="2079" />
<glyph unicode="&#x2004;" horiz-adv-x="693" />
<glyph unicode="&#x2005;" horiz-adv-x="519" />
<glyph unicode="&#x2006;" horiz-adv-x="346" />
<glyph unicode="&#x2007;" horiz-adv-x="346" />
<glyph unicode="&#x2008;" horiz-adv-x="259" />
<glyph unicode="&#x2009;" horiz-adv-x="415" />
<glyph unicode="&#x200a;" horiz-adv-x="115" />
<glyph unicode="&#x2010;" horiz-adv-x="983" d="M150 305v418h684v-418h-684z" />
<glyph unicode="&#x2011;" horiz-adv-x="983" d="M150 305v418h684v-418h-684z" />
<glyph unicode="&#x2012;" horiz-adv-x="983" d="M150 305v418h684v-418h-684z" />
<glyph unicode="&#x2013;" horiz-adv-x="2048" d="M0 326v379h2048v-379h-2048z" />
<glyph unicode="&#x2014;" d="M0 326v379h1024v-379h-1024z" />
<glyph unicode="&#x2018;" horiz-adv-x="702" d="M-18 739l346 725h391l-236 -725h-501z" />
<glyph unicode="&#x2019;" horiz-adv-x="702" d="M-18 739l237 725h500l-344 -725h-393z" />
<glyph unicode="&#x201a;" horiz-adv-x="702" d="M-18 -350l237 725h500l-344 -725h-393z" />
<glyph unicode="&#x201c;" horiz-adv-x="1341" d="M-18 739l346 725h391l-236 -725h-501zM623 739l344 725h393l-238 -725h-499z" />
<glyph unicode="&#x201d;" horiz-adv-x="1341" d="M-18 739l237 725h500l-344 -725h-393zM623 739l235 725h502l-346 -725h-391z" />
<glyph unicode="&#x201e;" horiz-adv-x="1341" d="M-18 -350l237 725h500l-344 -725h-393zM623 -350l235 725h502l-346 -725h-391z" />
<glyph unicode="&#x2022;" horiz-adv-x="1208" d="M307 762q0 121 86 209q91 86 211 86t209 -86q86 -88 86 -209t-88 -209q-85 -88 -209 -88q-122 0 -209 88q-86 86 -86 209z" />
<glyph unicode="&#x2026;" horiz-adv-x="2048" d="M55 209q0 97 84 172q83 70 201 70q120 0 203 -70q82 -73 82 -172q0 -98 -82 -168q-86 -72 -203 -72t-203 72q-82 70 -82 168zM737 209q0 97 84 172q83 70 201 70q120 0 203 -70q82 -73 82 -172q0 -98 -82 -168q-86 -72 -203 -72q-119 0 -203 72q-82 70 -82 168zM1421 209 q0 97 84 172q83 70 201 70q120 0 203 -70q82 -73 82 -172q0 -98 -82 -168q-86 -72 -203 -72t-203 72q-82 70 -82 168z" />
<glyph unicode="&#x202f;" horiz-adv-x="415" />
<glyph unicode="&#x2039;" horiz-adv-x="621" d="M66 514l296 434l193 -133l-217 -301l215 -301l-191 -133z" />
<glyph unicode="&#x203a;" horiz-adv-x="621" d="M63 815l195 133l297 -434l-297 -434l-192 133l217 301z" />
<glyph unicode="&#x205f;" horiz-adv-x="519" />
<glyph unicode="&#x2122;" horiz-adv-x="1507" d="M-57 0l522 1464h586l512 -1464h-566l-47 184h-397l-45 -184h-565zM496 1761l108 2q3 -52 39 -75q34 -23 105 -23q69 0 106 25q35 24 35 75h104q-9 -120 -69.5 -174.5t-178.5 -54.5q-119 0 -180 55q-63 57 -69 170zM641 532h219l-45 166q-34 129 -45 195q-11 59 -14 127 h-11q-3 -68 -14 -127q-14 -81 -45 -195z" />
<glyph unicode="&#x25fc;" horiz-adv-x="1035" d="M0 0v1035h1035v-1035h-1035z" />
<glyph unicode="&#xfb01;" horiz-adv-x="1612" d="M41 653v381h135v117q0 215 115 330q116 114 330 114q56 0 112 -6q53 -6 113 -18v-389q1 0 -23 4q-48 4 -49 4q-51 0 -74 -29q-22 -28 -22 -96v-31h168v-381h-168v-653h-502v653h-135zM971 1356q0 112 73 176q70 63 197 63t199 -63q73 -64 73 -176t-73 -176 q-75 -66 -199 -66q-123 0 -197 66q-73 64 -73 176zM991 0v1034h502v-1034h-502z" />
</font>
</defs>
</svg>
