<?xml version="1.0" standalone="no"?>
<!DOCTYPE svg PUBLIC "-//W3C//DTD SVG 1.1//EN" "http://www.w3.org/Graphics/SVG/1.1/DTD/svg11.dtd" >
<svg xmlns="http://www.w3.org/2000/svg" xmlns:xlink="http://www.w3.org/1999/xlink" version="1.1">
<metadata>
Created by FontForge 20161116 at Sat Feb 15 02:53:50 2014
 By Jimmy Wärting
Copyright Type Network; all rights reserved. Any use or distribution beyond original license prohibited.
</metadata>
<defs>
<font id="7Kw5HL-Idv8Y_TN_app_use_only" horiz-adv-x="1024" >
  <font-face 
    font-family="7Kw5HL-Idv8Y TN app use only"
    font-weight="390"
    font-stretch="normal"
    units-per-em="2048"
    panose-1="0 0 0 0 0 0 0 0 0 0"
    ascent="1638"
    descent="-410"
    x-height="1034"
    cap-height="1389"
    bbox="-246.64 -461 2501 1861.53"
    underline-thickness="41"
    underline-position="-272"
    unicode-range="U+000D-FB04"
  />
<missing-glyph horiz-adv-x="438" 
 />
    <glyph glyph-name="fi" unicode="fi" horiz-adv-x="1262" 
d="M719 1286q-7 -9 -18 -25.5t-22.5 -34t-21.5 -33.5t-14 -24q-3 -8 -10 -11.5t-12 1.5q-26 47 -82 47q-31 0 -53.5 -22t-22.5 -64v-73q0 -8 2 -10.5t8 -2.5h152q14 0 16 -3.5t2 -12.5v-213q0 -17 -4 -25t-18 -8h-138v-749q0 -17 -3.5 -20t-14.5 -3h-315q-10 0 -12.5 8.5
t-2.5 18.5v747h-82q-9 0 -14.5 3t-5.5 20v213q0 8 2.5 16t13.5 8h86v109q0 67 16.5 122.5t52 95.5t91 61.5t133.5 21.5q62 0 107 -10.5t77.5 -27t56.5 -37.5t44 -42q21 -21 6 -41zM1139 1174q0 -14 -3.5 -18.5t-14.5 -4.5h-314q-11 0 -13.5 8.5t-2.5 18.5v213q0 9 1.5 17.5
t12.5 8.5h314q12 0 16 -4t4 -22v-217zM1139 23q0 -14 -3.5 -18.5t-14.5 -4.5h-314q-11 0 -13.5 3.5t-2.5 25.5v981q0 18 1.5 21t12.5 3h314q12 0 16 -3t4 -21v-987z" />
    <glyph glyph-name="fl" unicode="fl" horiz-adv-x="1262" 
d="M719 1286q-7 -9 -18 -25.5t-22.5 -34t-21.5 -33.5t-14 -24q-3 -8 -10 -11.5t-12 1.5q-26 47 -82 47q-31 0 -53.5 -22t-22.5 -64v-73q0 -8 2 -10.5t8 -2.5h152q14 0 16 -3.5t2 -12.5v-213q0 -17 -4 -25t-18 -8h-138v-749q0 -17 -3.5 -20t-14.5 -3h-315q-10 0 -12.5 8.5
t-2.5 18.5v747h-82q-9 0 -14.5 3t-5.5 20v213q0 8 2.5 16t13.5 8h86v109q0 67 16.5 122.5t52 95.5t91 61.5t133.5 21.5q62 0 107 -10.5t77.5 -27t56.5 -37.5t44 -42q21 -21 6 -41zM1139 23q0 -14 -3.5 -18.5t-12.5 -4.5h-316q-11 0 -13.5 3.5t-2.5 25.5v1362q0 18 2 22t14 4
h314q11 0 14.5 -4t3.5 -22v-1368z" />
    <glyph glyph-name="f_f" unicode="ff" horiz-adv-x="1335" 
d="M719 1286q-7 -9 -18 -25.5t-22.5 -34t-21.5 -33.5t-14 -24q-3 -8 -10 -11.5t-12 1.5q-26 47 -82 47q-31 0 -53.5 -22t-22.5 -64v-73q0 -8 2 -10.5t8 -2.5h152q14 0 16 -3.5t2 -12.5v-213q0 -17 -4 -25t-18 -8h-138v-749q0 -17 -3.5 -20t-14.5 -3h-315q-10 0 -12.5 8.5
t-2.5 18.5v747h-82q-9 0 -14.5 3t-5.5 20v213q0 8 2.5 16t13.5 8h86v109q0 67 16.5 122.5t52 95.5t91 61.5t133.5 21.5q62 0 107 -10.5t77.5 -27t56.5 -37.5t44 -42q21 -21 6 -41zM1386 1286q-7 -9 -18 -25.5t-22.5 -34t-21.5 -33.5t-14 -24q-3 -8 -10 -11.5t-12 1.5
q-26 47 -82 47q-31 0 -53.5 -22t-22.5 -64v-73q0 -8 2 -10.5t8 -2.5h152q14 0 16 -3.5t2 -12.5v-213q0 -17 -4 -25t-18 -8h-138v-749q0 -17 -3.5 -20t-14.5 -3h-315q-10 0 -12.5 8.5t-2.5 18.5v747h-82q-9 0 -14.5 3t-5.5 20v213q0 8 2.5 16t13.5 8h86v109q0 67 16.5 122.5
t52 95.5t91 61.5t133.5 21.5q62 0 107 -10.5t77.5 -27t56.5 -37.5t44 -42q21 -21 6 -41z" />
    <glyph glyph-name="f_f_i" unicode="ffi" horiz-adv-x="1929" 
d="M719 1286q-7 -9 -18 -25.5t-22.5 -34t-21.5 -33.5t-14 -24q-3 -8 -10 -11.5t-12 1.5q-26 47 -82 47q-31 0 -53.5 -22t-22.5 -64v-73q0 -8 2 -10.5t8 -2.5h152q14 0 16 -3.5t2 -12.5v-213q0 -17 -4 -25t-18 -8h-138v-749q0 -17 -3.5 -20t-14.5 -3h-315q-10 0 -12.5 8.5
t-2.5 18.5v747h-82q-9 0 -14.5 3t-5.5 20v213q0 8 2.5 16t13.5 8h86v109q0 67 16.5 122.5t52 95.5t91 61.5t133.5 21.5q62 0 107 -10.5t77.5 -27t56.5 -37.5t44 -42q21 -21 6 -41zM1386 1286q-7 -9 -18 -25.5t-22.5 -34t-21.5 -33.5t-14 -24q-3 -8 -10 -11.5t-12 1.5
q-26 47 -82 47q-31 0 -53.5 -22t-22.5 -64v-73q0 -8 2 -10.5t8 -2.5h152q14 0 16 -3.5t2 -12.5v-213q0 -17 -4 -25t-18 -8h-138v-749q0 -17 -3.5 -20t-14.5 -3h-315q-10 0 -12.5 8.5t-2.5 18.5v747h-82q-9 0 -14.5 3t-5.5 20v213q0 8 2.5 16t13.5 8h86v109q0 67 16.5 122.5
t52 95.5t91 61.5t133.5 21.5q62 0 107 -10.5t77.5 -27t56.5 -37.5t44 -42q21 -21 6 -41zM1806 1174q0 -14 -3.5 -18.5t-14.5 -4.5h-314q-11 0 -13.5 8.5t-2.5 18.5v213q0 9 1.5 17.5t12.5 8.5h314q12 0 16 -4t4 -22v-217zM1806 23q0 -14 -3.5 -18.5t-14.5 -4.5h-314
q-11 0 -13.5 3.5t-2.5 25.5v981q0 18 1.5 21t12.5 3h314q12 0 16 -3t4 -21v-987z" />
    <glyph glyph-name="f_f_l" unicode="ffl" horiz-adv-x="1929" 
d="M719 1286q-7 -9 -18 -25.5t-22.5 -34t-21.5 -33.5t-14 -24q-3 -8 -10 -11.5t-12 1.5q-26 47 -82 47q-31 0 -53.5 -22t-22.5 -64v-73q0 -8 2 -10.5t8 -2.5h152q14 0 16 -3.5t2 -12.5v-213q0 -17 -4 -25t-18 -8h-138v-749q0 -17 -3.5 -20t-14.5 -3h-315q-10 0 -12.5 8.5
t-2.5 18.5v747h-82q-9 0 -14.5 3t-5.5 20v213q0 8 2.5 16t13.5 8h86v109q0 67 16.5 122.5t52 95.5t91 61.5t133.5 21.5q62 0 107 -10.5t77.5 -27t56.5 -37.5t44 -42q21 -21 6 -41zM1386 1286q-7 -9 -18 -25.5t-22.5 -34t-21.5 -33.5t-14 -24q-3 -8 -10 -11.5t-12 1.5
q-26 47 -82 47q-31 0 -53.5 -22t-22.5 -64v-73q0 -8 2 -10.5t8 -2.5h152q14 0 16 -3.5t2 -12.5v-213q0 -17 -4 -25t-18 -8h-138v-749q0 -17 -3.5 -20t-14.5 -3h-315q-10 0 -12.5 8.5t-2.5 18.5v747h-82q-9 0 -14.5 3t-5.5 20v213q0 8 2.5 16t13.5 8h86v109q0 67 16.5 122.5
t52 95.5t91 61.5t133.5 21.5q62 0 107 -10.5t77.5 -27t56.5 -37.5t44 -42q21 -21 6 -41zM1807 23q0 -14 -3.5 -18.5t-12.5 -4.5h-316q-11 0 -13.5 3.5t-2.5 25.5v1362q0 18 2 22t14 4h314q11 0 14.5 -4t3.5 -22v-1368z" />
    <glyph glyph-name=".notdef" horiz-adv-x="438" 
 />
    <glyph glyph-name=".null" horiz-adv-x="0" 
 />
    <glyph glyph-name=".null" horiz-adv-x="0" 
 />
    <glyph glyph-name="nonmarkingreturn" unicode="&#xd;" horiz-adv-x="438" 
 />
    <glyph glyph-name="space" unicode=" " horiz-adv-x="438" 
 />
    <glyph glyph-name="hungarumlaut" unicode="&#x2dd;" 
d="M961 1331q3 -2 1.5 -8t-4.5 -13l-8 -18q-55 -27 -99 -49.5t-85.5 -44t-85.5 -43.5t-100 -49q-8 -4 -20.5 -1.5t-24 7t-19.5 10t-6 8.5q31 53 55 94.5t46.5 81t46 81.5t53.5 96q5 8 8 7.5t6 -3.5q35 -23 65.5 -43t59 -39t55.5 -37.5t56 -36.5zM541 1331q3 -2 1 -8t-5 -13
l-9 -18q-55 -27 -99 -49.5t-85 -44t-85 -43.5t-99 -49q-9 -4 -21.5 -1.5t-23.5 7t-19 10t-6 8.5q31 53 55 94.5t46 81t45.5 81.5t52.5 96q6 8 8.5 7.5t7.5 -3.5q35 -23 65.5 -43t58.5 -39t55.5 -37.5t56.5 -36.5z" />
    <glyph glyph-name="ogonek" unicode="&#x2db;" 
d="M780 -297q-13 -42 -36.5 -72.5t-55 -51t-69.5 -30.5t-80 -10q-55 0 -101 12t-79.5 38.5t-52.5 68.5t-19 102q0 40 14.5 77.5t38 69.5t52 56t57.5 37h135q-20 -10 -46.5 -28.5t-50 -43t-39.5 -54t-16 -60.5q0 -111 92 -111q38 0 61.5 16.5t37.5 36.5q3 5 8 8.5t14 -0.5
l127 -40q11 -4 8 -21z" />
    <glyph glyph-name="caron" unicode="&#x2c7;" 
d="M874 1430q0 -5 -14 -15q-6 -6 -30.5 -30t-59 -57.5t-73.5 -71t-72.5 -69.5t-57.5 -55t-28 -26q-7 -5 -10 -8.5t-9 -3.5t-10 4l-10 10q-5 3 -29 25.5t-57 54t-71 68t-71.5 69t-57.5 56.5l-30 30t-11 10.5t-5 8.5q0 8 20 8h201q6 0 14.5 -2t16.5 -9q14 -8 32 -23.5
t34 -31.5q18 -18 36 -39q18 21 36 39q15 16 32.5 31.5t32.5 23.5q9 11 26 11h211q14 0 14 -8z" />
    <glyph glyph-name="dotlessi" unicode="&#x131;" horiz-adv-x="594" 
d="M471 23q0 -14 -3.5 -18.5t-14.5 -4.5h-314q-11 0 -13.5 3.5t-2.5 25.5v981q0 18 1.5 21t12.5 3h314q12 0 16 -3t4 -21v-987z" />
    <glyph glyph-name="fraction" unicode="&#x2044;" horiz-adv-x="715" 
d="M958 1303q-44 -67 -101 -152t-122 -180.5t-135.5 -198.5t-142.5 -207t-143 -206t-137 -195t-124.5 -174t-105.5 -144q-13 -15 -17.5 -18.5t-9.5 -1.5q-11 7 -30.5 21t-41.5 29t-43 30t-34 26q-21 15 -17 23q36 51 90 128t119 170t138.5 198.5t149.5 214t152 215.5
t145 204.5t128.5 180.5t103.5 143q10 14 16.5 22t14.5 3q12 -6 34 -19.5t45 -28t42 -28t26 -19.5q10 -8 10 -15t-10 -21z" />
    <glyph glyph-name="fraction" unicode="&#x2215;" horiz-adv-x="715" 
d="M958 1303q-44 -67 -101 -152t-122 -180.5t-135.5 -198.5t-142.5 -207t-143 -206t-137 -195t-124.5 -174t-105.5 -144q-13 -15 -17.5 -18.5t-9.5 -1.5q-11 7 -30.5 21t-41.5 29t-43 30t-34 26q-21 15 -17 23q36 51 90 128t119 170t138.5 198.5t149.5 214t152 215.5
t145 204.5t128.5 180.5t103.5 143q10 14 16.5 22t14.5 3q12 -6 34 -19.5t45 -28t42 -28t26 -19.5q10 -8 10 -15t-10 -21z" />
    <glyph glyph-name="Lslash" unicode="&#x141;" horiz-adv-x="1067" 
d="M1055 18q0 -12 -2 -15t-15 -3h-866q-14 0 -16 2t-2 16v349q-16 -10 -29.5 -17.5t-24.5 -13.5q-12 -6 -22 -6.5t-15 8.5q-18 35 -39.5 73.5t-41.5 73.5q-5 7 -4 17.5t18 21.5q37 22 76.5 44.5t81.5 43.5v80v678q0 16 2 17.5t16 1.5h332q12 0 15 -3.5t3 -15.5v-545
q60 35 119 69.5t115 66.5q14 8 24.5 8t18.5 -11q9 -15 19.5 -34t21 -39.5t21.5 -40t20 -35.5q6 -11 1 -18.5t-24 -18.5q-21 -12 -55.5 -31.5t-78.5 -44.5t-95.5 -55t-106.5 -61v-254l514 10q13 0 16 -4t3 -17v-297z" />
    <glyph glyph-name="lslash" unicode="&#x142;" horiz-adv-x="594" 
d="M627 707q6 -11 1 -18.5t-24 -18.5q-6 -4 -20.5 -12t-33 -17.5t-39.5 -20.5t-40 -22v-575q0 -14 -3.5 -18.5t-12.5 -4.5h-316q-11 0 -13.5 3.5t-2.5 25.5v381q-5 -5 -15 -9l-8 -4q-12 -6 -22 -6.5t-15 8.5q-20 39 -38.5 73.5t-42.5 74.5q-5 8 -4 18t18 21q12 6 46 24.5
t81 42.5v738q0 18 2 22t14 4h314q11 0 14.5 -4t3.5 -22v-549q8 5 16.5 9t14.5 7q15 8 25 8.5t18 -10.5q9 -15 19.5 -34.5t21 -39.5t21.5 -39.5t20 -35.5z" />
    <glyph glyph-name="Zcaron" unicode="&#x17d;" horiz-adv-x="1128" 
d="M1100 1352q-38 -87 -82 -178t-90.5 -180.5t-94 -174.5t-90.5 -161q-102 -178 -206 -347h57.5t87 0.5t103.5 1t107 1t97 1.5t74 2q12 0 19.5 -5.5t7.5 -16.5v-272q0 -14 -4.5 -18.5t-16.5 -4.5h-1036q-11 0 -13 15.5t5 27.5q32 69 74 150.5t89.5 168t97.5 173t98 166.5
q111 187 232 380q-27 -1 -68 -1.5t-89.5 0t-100 0.5t-100 0.5t-90 0t-68.5 -1.5q-14 0 -16 2.5t-2 16.5v264q0 15 4.5 21t26.5 6h979q4 0 6 -4.5t2.5 -10.5t0.5 -12t-1 -10zM944 1754q0 -5 -14 -15q-6 -6 -30.5 -30t-59 -57.5t-73.5 -71t-72.5 -69.5t-57.5 -55t-28 -26
q-7 -5 -10 -8.5t-9 -3.5t-10 4l-10 10q-5 3 -29 25.5t-57 54t-71 68t-71.5 69t-57.5 56.5l-30 30t-11 10.5t-5 8.5q0 8 20 8h201q6 0 14.5 -2t16.5 -9q14 -8 32 -23.5t34 -31.5q18 -18 36 -39q18 21 36 39q15 16 32.5 31.5t32.5 23.5q9 11 26 11h211q14 0 14 -8z" />
    <glyph glyph-name="zcaron" unicode="&#x17e;" horiz-adv-x="934" 
d="M924 999q-26 -43 -58 -97t-67.5 -113.5t-72.5 -121t-71 -119.5q-81 -136 -166 -280q75 1 146 3q30 0 62.5 0.5t64 1t60.5 1t52 0.5q20 0 24.5 -4t4.5 -18v-234q0 -11 -4.5 -14.5t-24.5 -3.5h-856q-18 0 -21.5 8t5.5 25q33 60 68.5 124.5t71 128.5t70 126t65.5 117
q72 129 143 253q-67 -1 -129 -3q-54 -2 -109.5 -3t-93.5 -2q-15 0 -21 4t-6 15v221q0 20 19 20h831q13 0 19.5 -6t-6.5 -29zM833 1430q0 -5 -14 -15q-6 -6 -30.5 -30t-59 -57.5t-73.5 -71t-72.5 -69.5t-57.5 -55t-28 -26q-7 -5 -10 -8.5t-9 -3.5t-10 4l-10 10q-5 3 -29 25.5
t-57 54t-71 68t-71.5 69t-57.5 56.5l-30 30t-11 10.5t-5 8.5q0 8 20 8h201q6 0 14.5 -2t16.5 -9q14 -8 32 -23.5t34 -31.5q18 -18 36 -39q18 21 36 39q15 16 32.5 31.5t32.5 23.5q9 11 26 11h211q14 0 14 -8z" />
    <glyph glyph-name="ring" unicode="&#x2da;" 
d="M766 1346q0 -53 -20 -98.5t-54.5 -80t-81 -54t-98.5 -19.5t-98.5 19.5t-81 54t-54.5 80t-20 98.5q0 52 20 98t54.5 80.5t81 54.5t98.5 20t98.5 -20t81 -54.5t54.5 -80.5t20 -98zM627 1346q0 24 -9 44.5t-25 36t-36.5 24.5t-44.5 9t-44.5 -9t-36.5 -24.5t-25 -36t-9 -44.5
t9 -45t25 -36.5t36.5 -24.5t44.5 -9t44.5 9t36.5 24.5t25 36.5t9 45z" />
    <glyph glyph-name="exclam" unicode="!" horiz-adv-x="688" 
d="M530 768q0 -3 -5.5 -21.5t-14.5 -46t-20.5 -60.5t-22.5 -65.5t-21 -61t-16 -46.5q-3 -9 -8 -15t-16 -6h-103q-11 0 -19.5 3.5t-13.5 17.5q-6 18 -15.5 46t-20.5 60t-22 65l-20 60t-14.5 46.5t-5.5 23.5q-3 92 -4.5 167.5t-1.5 145.5t1.5 141.5t4.5 155.5q0 8 4 14.5
t12 6.5q38 1 66 1.5t50.5 1t43 0.5t43.5 -0.5t51.5 -1t67.5 -1.5q9 0 11.5 -5.5t2.5 -19.5q4 -83 6 -153.5t3 -140t0 -145t-3 -167.5zM530 23q0 -11 -6 -17t-14 -6h-309q-10 0 -15.5 4.5t-5.5 18.5v313q0 24 21 24h309q11 0 15.5 -4.5t4.5 -19.5v-313z" />
    <glyph glyph-name="quotedbl" unicode="&#x22;" horiz-adv-x="784" 
d="M709 1395q0 -111 -4.5 -207.5t-4.5 -194.5q0 -36 -14.5 -63t-33.5 -45.5t-37.5 -27.5t-26.5 -9q-9 0 -27 9t-37 27.5t-33 45.5t-14 63q0 98 -4 194.5t-4 207.5q0 8 27 13t92 5q35 0 58.5 -1.5t37.5 -4t19.5 -5.5t5.5 -7zM338 1395q0 -111 -4 -207.5t-4 -194.5
q0 -36 -14 -63t-33 -45.5t-38 -27.5t-28 -9q-8 0 -26 9t-37 27.5t-33.5 45.5t-14.5 63q0 98 -4 194.5t-4 207.5q0 8 28 13t91 5q36 0 59.5 -1.5t37 -4t19 -5.5t5.5 -7z" />
    <glyph glyph-name="numbersign" unicode="#" horiz-adv-x="1260" 
d="M1190 821q0 -6 -8 -13t-13 -7h-213l-24 -183h203q5 0 12.5 -5.5t7.5 -14.5v-164q0 -8 -6.5 -17t-15.5 -9h-238q-11 -72 -22 -142q-9 -60 -19 -126t-18 -117q-2 -11 -11.5 -18t-23.5 -7q-15 1 -36.5 1.5t-45 0.5h-47.5h-45q-7 0 -15 9t-6 16q8 55 19 122t20 125
q11 68 21 136h-177q-13 -76 -24 -147q-5 -30 -10 -62.5t-10 -64t-9.5 -60t-7.5 -51.5q-2 -11 -11.5 -17t-23.5 -6h-174q-2 0 -5.5 2.5t-6.5 6t-5 8t-1 8.5q4 27 9 58t10 63t9.5 64t9.5 61q11 69 21 137h-172q-5 0 -12.5 5.5t-7.5 14.5v172q0 6 6.5 12t11.5 6h211l27 183
h-203q-5 0 -13 5.5t-8 16.5v168q0 6 8.5 13.5t16.5 7.5h235q11 74 22 142q4 29 9 59.5t9 59t7.5 54t6.5 43.5q2 8 8.5 13.5t15.5 5.5h187q6 0 14 -7.5t6 -15.5q-7 -42 -16.5 -101.5t-17.5 -116.5q-11 -66 -21 -136h174q9 65 20 128q4 27 9 56.5t9.5 59.5t9.5 58.5t9 53.5
q2 6 7.5 13.5t13.5 7.5h186q6 0 14.5 -6.5t6.5 -12.5q-3 -18 -7 -43.5t-8.5 -54t-9.5 -59t-9 -59.5q-11 -68 -22 -142h178q7 0 13 -4.5t6 -12.5v-174zM727 801h-174l-29 -183h178z" />
    <glyph glyph-name="dollar" unicode="$" horiz-adv-x="1243" 
d="M1204 444q0 -80 -19.5 -144.5t-54 -115t-80.5 -88t-99.5 -63.5t-111.5 -41t-116 -21l-41 -4v-123h-123v123q-24 0 -55 3.5t-64 10t-67.5 16.5t-65.5 23q-83 35 -139 90.5t-84 112.5q-6 13 -7 23t13 18q28 18 53 34t50 32.5t50.5 34t55.5 36.5q8 5 17.5 5t23.5 -17
q18 -21 41.5 -42t52 -38.5t60 -30.5t65.5 -20v254l-41 8q-95 19 -173 52.5t-134.5 86t-87.5 126t-31 173.5q0 105 36 183.5t96.5 133t139 86t162.5 42.5l33 4v68h123v-68q26 0 58.5 -5t68 -14.5t72 -24.5t71.5 -36q22 -12 45 -29t44.5 -36t39 -38.5t27.5 -37.5q6 -11 8 -19
t-10 -16q-38 -22 -66.5 -40t-55.5 -34.5t-54.5 -34t-63.5 -38.5q-12 -8 -19 -2.5t-13 14.5q-15 20 -37 36.5t-43.5 29t-41 20.5t-30.5 10v-233l43 -7q108 -15 196 -47t151 -84t97.5 -125t34.5 -172zM559 897v223q-71 -5 -106 -33.5t-35 -76.5q0 -23 5.5 -40t19.5 -30
t37 -22.5t59 -16.5zM852 367q0 27 -8.5 45.5t-26.5 32t-47 23.5t-70 19l-18 5v-240q78 5 124 30.5t46 84.5z" />
    <glyph glyph-name="percent" unicode="%" horiz-adv-x="1690" 
d="M821 1018q0 -78 -28 -146t-78 -118t-121 -78.5t-156 -28.5t-157 28.5t-124 78.5t-81 118t-29 146t29 146t80.5 118t123 78.5t156.5 28.5q86 0 157 -28.5t121.5 -78.5t78.5 -118t28 -146zM1470 1333q-75 -87 -160 -189.5t-173 -211.5t-176.5 -219.5t-169.5 -213.5
t-152 -195t-124.5 -163t-86 -116.5t-37.5 -57.5q-14 1 -38 13t-47 28t-40 33t-16 27q72 82 155 180.5t170 204t175 213.5t169.5 210t153 193t126 162t89 117t41.5 59q34 -16 69 -35t72 -39zM1640 356q0 -78 -28 -146t-78 -117.5t-121 -78t-156 -28.5t-157 28t-124 77.5
t-81 117.5t-29 147q0 78 29 145.5t80.5 117.5t123 79t156.5 29q86 0 157 -29t121.5 -79t78.5 -117.5t28 -145.5zM575 1018q0 28 -10.5 53.5t-29.5 45.5t-45.5 32t-57.5 12q-32 0 -58 -12t-45 -32t-29.5 -45.5t-10.5 -53.5t10 -53.5t28.5 -45t45 -31t59.5 -11.5
q31 0 57.5 11.5t45.5 31t29.5 45t10.5 53.5zM1395 352q0 28 -10.5 54t-30 46t-46 32t-57.5 12q-32 0 -58 -12t-45 -32t-29.5 -46t-10.5 -54q0 -27 10 -52.5t28.5 -45t45 -31.5t59.5 -12q31 0 57.5 12t46 31.5t30 45t10.5 52.5z" />
    <glyph glyph-name="ampersand" unicode="&#x26;" horiz-adv-x="1376" 
d="M1305 0h-342q-14 0 -24.5 4.5t-21.5 15t-24.5 28.5l-34.5 46q-27 -25 -65 -48.5t-83.5 -41.5t-98 -28.5t-109.5 -10.5q-102 0 -184 26t-140 76t-89.5 123t-31.5 168q0 99 27 173.5t74.5 129.5t112 94.5t139.5 69.5q-12 18 -26 46t-26 60.5t-20 66t-8 63.5
q0 90 35.5 156.5t94 111t134 66.5t156.5 22q57 0 105.5 -5.5t93 -21t87.5 -43.5t88 -73q11 -11 13.5 -25t-7.5 -26q-34 -44 -68.5 -85.5t-60.5 -72.5q-14 -17 -25.5 -13.5t-21.5 15.5q-29 38 -65 59t-82 21q-32 0 -54 -8t-35 -21t-18.5 -29.5t-5.5 -33.5q0 -13 4.5 -31.5
t15.5 -46t31 -65t52 -89.5l153 -252q26 49 49 91q20 36 38 71.5t26 52.5q2 5 20 0.5t46 -15t63.5 -26.5t71.5 -34q20 -11 21.5 -21t-9.5 -33q-15 -35 -36.5 -78t-46 -85.5t-49.5 -82.5t-48 -69q26 -37 58 -82q27 -38 64 -91t82 -116q19 -28 21 -40.5t-16 -12.5zM729 289
l-188 317q-69 -26 -109.5 -81.5t-40.5 -125.5q0 -85 45 -124t123 -39q15 0 39.5 4.5t50 12t47.5 17t33 19.5z" />
    <glyph glyph-name="quotesingle" unicode="'" horiz-adv-x="520" 
d="M389 1382q0 -57 -0.5 -109.5t-1.5 -103t-2 -100t-2 -100.5q-1 -37 -17 -65.5t-36.5 -47.5t-40.5 -29t-29 -10q-8 0 -27 10t-39 29t-36.5 47.5t-18.5 65.5q-5 100 -6.5 199t-1.5 214q0 8 31.5 13.5t97.5 5.5q73 0 101 -5.5t28 -13.5z" />
    <glyph glyph-name="parenleft" unicode="(" horiz-adv-x="711" 
d="M662 1362q-50 -91 -90.5 -180t-70 -183.5t-45.5 -198t-16 -222.5t18.5 -224t49 -200.5t69.5 -183t80 -169.5q3 -3 -5 -10t-22.5 -16t-33 -19t-37.5 -20t-37 -19.5t-32.5 -16.5t-24 -11t-10.5 -2q-66 87 -129 184.5t-111.5 207t-78.5 234t-30 265.5q0 140 30.5 268.5
t79.5 241t111.5 208t127.5 170.5q1 3 11 0t24.5 -9t33 -14.5t37.5 -17.5q20 -10 39 -20t33 -19t22 -15.5t7 -8.5z" />
    <glyph glyph-name="parenright" unicode=")" horiz-adv-x="711" 
d="M602 584q0 -141 -30 -269t-79.5 -240.5t-112 -208.5t-126.5 -171q-2 -2 -11.5 0.5t-24 8.5t-33.5 14.5t-38 17.5q-20 10 -38.5 20t-33 19t-22.5 15.5t-6 8.5q49 91 89.5 180t70 184t45.5 198.5t16 222.5q0 118 -18.5 223.5t-48.5 200.5t-69 182.5t-81 169.5q-2 3 5.5 10
t22 16t33 19t38.5 20q19 10 37 19.5t32.5 17t23.5 11t11 2.5q66 -88 128.5 -185t111.5 -207t78.5 -234t29.5 -265z" />
    <glyph glyph-name="asterisk" unicode="*" horiz-adv-x="991" 
d="M928 1022q3 -8 2 -10t-6 -4l-228 -117l111 -236q6 -12 4.5 -15t-10.5 -9q-25 -19 -55.5 -41.5t-55.5 -40.5q-6 -5 -8.5 -4.5t-7.5 6.5l-174 186l-172 -186q-5 -5 -7 -6.5t-12 4.5q-23 18 -53.5 40.5t-54.5 41.5q-11 6 -12 9t6 15l108 236l-225 117q-8 3 -8.5 4.5t2.5 9.5
q5 15 11 34t11.5 38.5t10.5 37t8 29.5q3 10 5.5 11t16.5 -1l240 -26l43 246q0 8 3 10t15 2h129q11 0 14 -2t5 -10l43 -246l239 26q14 2 16 1t5 -11q4 -12 9 -29.5t10.5 -37t11 -38.5t10.5 -34z" />
    <glyph glyph-name="plus" unicode="+" horiz-adv-x="1180" 
d="M1092 545q0 -23 -29 -23h-320v-350q0 -19 -3.5 -24t-20.5 -5h-250h-13.5t-6.5 2t-2.5 8.5t-0.5 18.5v350h-321q-19 0 -24 3t-5 20v243v14.5t2.5 7.5t8.5 2.5t18 0.5h321v348q0 11 3 21t20 10h250q12 0 18 -2.5t6 -28.5v-348h320q12 0 20.5 -4t8.5 -21v-243z" />
    <glyph glyph-name="comma" unicode="," horiz-adv-x="584" 
d="M516 358v-20t-2 -14q-38 -77 -69.5 -139t-61 -120.5t-59.5 -119.5t-66 -135q-3 -8 -24.5 -10.5t-49.5 -2.5q-24 0 -43.5 4.5t-19.5 14.5v542q0 16 4 18.5t10 2.5h375q5 0 5.5 -6.5t0.5 -14.5z" />
    <glyph glyph-name="hyphen" unicode="-" horiz-adv-x="874" 
d="M782 485q0 -14 -6.5 -19t-21.5 -5h-625q-19 0 -24 3.5t-5 20.5v265q0 9 7 16.5t22 7.5h625q18 0 23 -3.5t5 -20.5v-265z" />
    <glyph glyph-name="hyphen" unicode="&#x2010;" horiz-adv-x="874" 
d="M782 485q0 -14 -6.5 -19t-21.5 -5h-625q-19 0 -24 3.5t-5 20.5v265q0 9 7 16.5t22 7.5h625q18 0 23 -3.5t5 -20.5v-265z" />
    <glyph glyph-name="hyphen" unicode="&#xad;" horiz-adv-x="874" 
d="M782 485q0 -14 -6.5 -19t-21.5 -5h-625q-19 0 -24 3.5t-5 20.5v265q0 9 7 16.5t22 7.5h625q18 0 23 -3.5t5 -20.5v-265z" />
    <glyph glyph-name="period" unicode="." horiz-adv-x="621" 
d="M489 45q0 -25 -6 -35t-30 -10h-289q-20 0 -28.5 9t-8.5 32v287q0 29 11 40t30 11h289q20 0 26 -6.5t6 -26.5v-301z" />
    <glyph glyph-name="slash" unicode="/" horiz-adv-x="848" 
d="M844 1341q-38 -97 -88 -209.5t-106.5 -233t-117 -246.5t-120 -251t-115 -246t-102.5 -231q-8 -20 -13 -20.5t-14 2.5q-12 4 -34 13.5t-47 22t-48.5 25.5t-38.5 23q-18 12 -16 16q32 80 81 189t107.5 234t123 259.5t126 265.5t117 252.5t96.5 220.5q4 12 7.5 18.5t6.5 8.5
t7.5 1t11.5 -3q10 -4 35.5 -13.5t54 -20.5t53.5 -21.5t33 -16.5l7.5 -6t2.5 -5.5t-3 -9.5t-7 -18z" />
    <glyph glyph-name="zero" unicode="0" horiz-adv-x="1376" 
d="M1305 690q0 -167 -39.5 -301.5t-116.5 -228.5t-191.5 -144.5t-265.5 -50.5q-147 0 -262.5 47.5t-195 139.5t-121 228.5t-41.5 313.5q0 162 39.5 295t117 228.5t192.5 147.5t267 52q150 0 265 -49.5t193 -143.5t118.5 -228.5t40.5 -305.5zM936 692q0 101 -17.5 175.5
t-50 124t-78.5 74t-102 24.5q-119 0 -183.5 -101.5t-64.5 -296.5q0 -108 20 -184.5t54.5 -124.5t81 -70t100.5 -22t98 22t75.5 70t49 124.5t17.5 184.5z" />
    <glyph glyph-name="one" unicode="1" horiz-adv-x="672" 
d="M514 29q0 -11 -1 -17t-4.5 -8.5t-11 -3t-20.5 -0.5h-287q-34 0 -34 29v968q0 48 -7.5 107t-19.5 131q-3 14 12.5 27t38.5 24q59 28 137.5 60.5t159.5 64.5q17 6 27 1t10 -30v-1353z" />
    <glyph glyph-name="two" unicode="2" horiz-adv-x="1196" 
d="M1094 29q0 -19 -5 -24t-30 -5h-1034q-17 0 -17 20q0 10 4.5 20.5t12.5 18.5q37 41 81.5 90t91 100.5t94 104.5t91.5 101q63 70 121 130.5t103 117.5t71.5 113t26.5 118q0 34 -12.5 63.5t-36.5 51t-59.5 33.5t-80.5 12q-85 0 -145.5 -56.5t-81.5 -163.5
q-3 -15 -12.5 -21.5t-20.5 1.5q-19 13 -49 34.5t-62 45t-62.5 46.5t-51.5 38q-10 8 -10.5 15.5t4.5 21.5q29 78 75.5 144.5t112.5 115t153 75.5t197 27q119 0 215.5 -27t164 -77.5t104 -124t36.5 -166.5q0 -99 -45.5 -194.5t-120.5 -185.5t-173 -174t-203 -161q24 1 63.5 3
t87 4t99.5 4.5t102.5 5t95.5 4.5t78 4q12 0 18.5 -4.5t6.5 -18.5q1 -37 2 -71t1 -68v-69t-1 -72z" />
    <glyph glyph-name="three" unicode="3" horiz-adv-x="1196" 
d="M1163 401q0 -104 -39 -185t-114.5 -136.5t-187 -85t-255.5 -29.5q-128 0 -226 31t-165.5 83.5t-104.5 122.5t-44 148q-2 20 2.5 26t13.5 9q41 15 78 28.5t73.5 26.5t73 25.5t76.5 26.5q9 3 13.5 -2t4.5 -25q2 -51 17 -92.5t42.5 -71t68.5 -45.5t94 -16q43 0 82 11
t68.5 35t47 62.5t17.5 93.5q0 57 -23 100t-64 72t-98 44t-125 16q-2 0 -3 10t-1 21t1.5 19.5t5.5 8.5q50 6 95.5 23.5t80 47t55 69.5t20.5 90q0 34 -11 68t-33.5 60.5t-56.5 43t-81 16.5q-48 0 -82.5 -15.5t-59.5 -43t-41 -66t-26 -84.5q-3 -15 -12.5 -21.5t-20.5 -2.5
q-27 10 -59 22t-65.5 25t-67 25.5t-64.5 23.5q-11 3 -15 13.5t-1 21.5q63 188 197 278t354 90q110 0 202 -25t159 -73t104 -118t37 -161q0 -48 -14.5 -95t-40.5 -87.5t-62 -71.5t-78 -47q46 -8 92 -30t83 -62t60 -100.5t23 -145.5z" />
    <glyph glyph-name="four" unicode="4" horiz-adv-x="1255" 
d="M1225 240q0 -13 -5.5 -17t-15.5 -4h-176v-207q0 -21 -2 -24.5t-16 -3.5h-320q-15 0 -17.5 3.5t-2.5 24.5v207h-631q-9 0 -16 8t-5 21q5 57 5 107.5t-5 113.5q-3 19 15 41q97 118 186 225.5t176.5 211.5t177.5 210t191 221q8 8 13.5 14.5t19.5 6.5h213q12 0 13 -3t1 -16
v-895h188q8 0 10.5 -5t2.5 -17v-223zM676 915l-348 -430h342z" />
    <glyph glyph-name="five" unicode="5" horiz-adv-x="1186" 
d="M1151 487q0 -126 -44 -223.5t-120.5 -164t-179.5 -100.5t-221 -34q-221 0 -356 82.5t-201 249.5q-5 12 -2.5 22t20.5 19q53 26 121 59.5t133 67.5q19 9 27 8t14 -18q14 -36 37 -67.5t52.5 -55t64 -36.5t71.5 -13q106 0 160.5 54t54.5 148q0 49 -16 90.5t-48.5 71.5
t-81 47t-112.5 17q-51 0 -102.5 -13.5t-101 -34.5t-96.5 -46.5t-89 -49.5q-2 -1 -8.5 4.5t-13.5 12t-12 13.5t-5 9q11 140 26.5 334t31.5 424q3 25 26 25h858q18 0 15 -27q-11 -90 -20 -152.5t-15 -99.5q-3 -18 -21 -18h-575l-23 -189q16 12 43.5 24.5t61.5 23t72 17.5t75 7
q110 0 202 -31t158 -92.5t103 -152.5t37 -212z" />
    <glyph glyph-name="six" unicode="6" horiz-adv-x="1274" 
d="M1225 477q0 -120 -39 -215t-109.5 -161t-168 -101t-214.5 -35q-149 0 -264.5 44.5t-195 132.5t-121 219t-41.5 303q0 180 42 321t124 239t201 149.5t274 51.5q97 0 172.5 -20.5t133 -56t97 -83t64.5 -100.5q8 -15 6 -20.5t-15 -11.5l-247 -113q-13 -6 -16 -2t-11 16
q-15 23 -37 43.5t-47.5 36t-54 24.5t-56.5 9q-78 0 -132.5 -25t-87.5 -70t-45.5 -107t-6.5 -136q15 32 48.5 58t76.5 44.5t91.5 28.5t94.5 10q105 0 194 -26.5t153.5 -84t100.5 -147t36 -215.5zM864 475q0 55 -16 96.5t-44 69.5t-65.5 42.5t-79.5 14.5q-43 0 -80.5 -15
t-66 -43.5t-45 -70t-16.5 -94.5q0 -56 16 -97.5t44 -69t65.5 -41t80.5 -13.5q42 0 80 13t66 40t44.5 69t16.5 99z" />
    <glyph glyph-name="seven" unicode="7" horiz-adv-x="983" 
d="M1001 1333q-53 -168 -104.5 -327.5t-103.5 -317.5t-106 -319.5t-112 -333.5q-8 -23 -24.5 -38t-44.5 -15h-307q-26 0 -31 16t4 39q64 152 130 299.5t130.5 281.5t126 251.5t117.5 209.5q-18 -1 -58.5 -2t-96 -2.5t-120.5 -4t-131 -4.5t-128.5 -4t-112.5 -3
q-16 0 -21.5 10t-3.5 21q1 20 5.5 57t9.5 77.5t9.5 77.5t6.5 56q3 23 16.5 27t32.5 4h915q4 0 3 -8t-1 -17t1 -18.5t-1 -12.5z" />
    <glyph glyph-name="eight" unicode="8" horiz-adv-x="1253" 
d="M1206 399q0 -99 -39.5 -179t-114 -137t-181 -87.5t-240.5 -30.5q-138 0 -245 32.5t-180 90t-111 137t-38 174.5q0 66 17 121t47 97.5t70.5 73t87.5 48.5q-36 18 -66 45.5t-51.5 64.5t-34 83t-12.5 102q0 78 29.5 148t92.5 122t161 82.5t235 30.5q127 0 223 -29
t160.5 -80.5t97.5 -121.5t33 -152q0 -118 -41.5 -188.5t-122.5 -104.5q48 -11 89 -41.5t71 -75.5t46.5 -102.5t16.5 -122.5zM799 1010q0 35 -13 64t-35.5 49.5t-53 32t-64.5 11.5q-39 0 -70.5 -12t-53.5 -34t-34 -51.5t-12 -63.5q0 -33 11.5 -61t33.5 -48t53.5 -31.5
t71.5 -11.5q39 0 70 12.5t52 33.5t32.5 49.5t11.5 60.5zM838 436q0 39 -15.5 73.5t-42.5 60.5t-64.5 41.5t-82.5 15.5q-46 0 -84 -15.5t-65.5 -41.5t-42.5 -61.5t-15 -74.5q0 -38 13.5 -73t40 -62.5t65 -44t88.5 -16.5q46 0 84 15.5t65 42.5t41.5 63t14.5 77z" />
    <glyph glyph-name="nine" unicode="9" horiz-adv-x="1274" 
d="M1198 719q0 -180 -42 -321.5t-124 -239.5t-201.5 -149.5t-273.5 -51.5q-97 0 -172.5 21t-133 56.5t-97 82.5t-64.5 100q-8 16 -6 21.5t14 11.5l271 125q12 6 16.5 2.5t9.5 -17.5q9 -26 28.5 -47.5t45 -36.5t54 -23.5t57.5 -8.5q67 0 118.5 25.5t85.5 70.5t49 107.5
t9 136.5q-15 -32 -48.5 -60t-76.5 -49t-92 -33t-95 -12q-113 0 -203 27t-152.5 86.5t-96 153t-33.5 225.5q0 108 41.5 199t114 156.5t171.5 102.5t214 37q298 0 455 -177t157 -521zM813 913q0 54 -16 94.5t-44 67t-66 40t-81 13.5q-42 0 -79.5 -13t-66 -39.5t-45 -67
t-16.5 -95.5q0 -53 16.5 -93t44 -66.5t65 -40t79.5 -13.5q43 0 81 13.5t66.5 40t45 66.5t16.5 93z" />
    <glyph glyph-name="colon" unicode=":" horiz-adv-x="621" 
d="M489 700q0 -24 -8.5 -34.5t-29.5 -10.5h-287q-20 0 -28.5 9t-8.5 32v295q0 20 5 31.5t24 11.5h301q20 0 26 -6.5t6 -26.5v-301zM489 39q0 -25 -5.5 -32t-28.5 -7h-291q-20 0 -28.5 7.5t-8.5 23.5v303q0 20 5 32.5t24 12.5h301q20 0 26 -6.5t6 -26.5v-307z" />
    <glyph glyph-name="semicolon" unicode=";" horiz-adv-x="621" 
d="M489 700q0 -24 -11.5 -34.5t-43.5 -10.5h-270q-20 0 -28.5 9t-8.5 32v287q0 20 11 35.5t30 15.5h289q20 0 26 -6.5t6 -26.5v-301zM522 358v-20t-2 -14q-38 -77 -69.5 -139t-61 -120.5t-59.5 -119.5t-66 -135q-3 -8 -24.5 -10.5t-49.5 -2.5q-24 0 -43.5 4.5t-19.5 14.5
v542q0 16 4 18.5t10 2.5h375q5 0 5.5 -6.5t0.5 -14.5z" />
    <glyph glyph-name="less" unicode="&#x3c;" horiz-adv-x="942" 
d="M793 135q0 -16 -11 -16q-7 -2 -26 10q-90 62 -180 126t-175.5 127t-164.5 124.5t-148 118.5q-3 2 -3.5 9.5t-0.5 18.5q0 10 0.5 18.5t3.5 10.5q76 56 164 118t177 122t173.5 115.5t153.5 97.5q8 5 14.5 7.5t11.5 0.5q11 -4 11 -21v-248q0 -20 -4 -28t-15 -15
q-25 -16 -58 -37.5t-70.5 -45.5t-78 -48t-80.5 -45q36 -22 76 -49t79 -53.5t73.5 -50.5t58.5 -39q6 -3 12.5 -12t6.5 -23v-293z" />
    <glyph glyph-name="equal" unicode="=" horiz-adv-x="1032" 
d="M942 729q0 -9 -3.5 -13.5t-14.5 -4.5h-809q-11 0 -15 5.5t-4 14.5v232q0 9 4 13.5t15 4.5h809q11 0 14.5 -5.5t3.5 -14.5v-232zM942 276q0 -9 -3.5 -13.5t-14.5 -4.5h-809q-11 0 -15 5.5t-4 15.5v229q0 9 4 13.5t15 4.5h809q11 0 14.5 -4.5t3.5 -15.5v-230z" />
    <glyph glyph-name="greater" unicode="&#x3e;" horiz-adv-x="942" 
d="M862 653q0 -11 -0.5 -18.5t-3.5 -9.5q-69 -57 -148.5 -118.5t-165 -124.5t-175 -127t-179.5 -126q-19 -12 -26 -10q-10 0 -10 16v293q0 14 6 23t12 12q24 15 58.5 39t73.5 50.5t79.5 53.5t75.5 49q-40 21 -80.5 45t-78 48t-70.5 45.5t-58 37.5q-11 7 -14.5 15t-3.5 28
v248q0 18 10 21q5 2 11.5 -0.5t14.5 -7.5q69 -42 153.5 -97.5t173.5 -115.5t177 -122t164 -118q3 -2 3.5 -10.5t0.5 -18.5z" />
    <glyph glyph-name="question" unicode="?" horiz-adv-x="1026" 
d="M1001 1012q0 -58 -10 -104t-28 -84t-44 -69t-57 -59q-78 -69 -113.5 -128.5t-29.5 -116.5q0 -13 -2 -18t-10 -5h-299q-13 0 -13.5 2t-1.5 16q-2 39 2 76t17 75.5t34.5 78t53.5 82.5q22 29 44 57t39.5 54t28.5 49.5t11 44.5q0 66 -33.5 105.5t-102.5 39.5
q-72 0 -119 -44.5t-63 -137.5q-2 -10 -8.5 -15.5t-17.5 0.5q-14 7 -42 21.5t-62.5 32.5t-73 37.5t-72.5 37.5q-5 2 -6.5 9t2.5 18q30 87 72 153.5t101.5 111.5t138 68t181.5 23q101 0 189 -26.5t153.5 -78.5t103 -129t37.5 -177zM731 31q0 -20 -7 -25.5t-19 -5.5h-302
q-17 0 -25.5 5.5t-8.5 25.5v280q0 41 34 41h302q9 0 17.5 -9t8.5 -32v-280z" />
    <glyph glyph-name="at" unicode="@" horiz-adv-x="1583" 
d="M1534 762q-2 -141 -35.5 -237.5t-84 -156t-111 -86t-115.5 -26.5q-59 0 -101 9t-71.5 27.5t-48 45.5t-29.5 63q-48 -80 -118 -115.5t-150 -33.5q-65 1 -120.5 26t-95.5 71.5t-62.5 114t-22.5 154.5q0 103 28.5 189t80 147.5t124 96t160.5 34.5q35 0 69 -8t63.5 -20.5
t52 -26.5t34.5 -26l176 43l-55 -453q-6 -48 -6 -83.5t10.5 -59t33 -34.5t60.5 -11q39 0 72.5 23t59 66.5t40 106t14.5 141.5q0 127 -41 232.5t-115 181t-176.5 117t-226.5 41.5q-134 0 -248.5 -51t-198.5 -140.5t-131.5 -211.5t-47.5 -263q0 -159 48 -280t132 -202.5
t198.5 -123t247.5 -41.5q50 0 94.5 9.5t84.5 25.5t75.5 37.5t67.5 44.5q17 12 36.5 -2t35.5 -39q7 -12 11.5 -24t6 -23.5t-1 -21t-10.5 -15.5q-36 -26 -80 -50t-93.5 -42t-104.5 -28.5t-113 -10.5q-167 0 -309.5 50t-247 149t-163.5 246t-59 341q0 107 25.5 206.5t73 186.5
t115.5 159t153.5 123t187 79.5t215.5 28.5q164 0 295.5 -51t223.5 -140.5t140.5 -212t47.5 -266.5zM901 862q-17 17 -40 30t-60 13q-26 0 -59 -13.5t-62 -47t-48.5 -90t-19.5 -142.5q0 -93 36 -138.5t97 -45.5q31 0 52.5 10.5t35.5 32t23 54t14 75.5z" />
    <glyph glyph-name="A" unicode="A" horiz-adv-x="1444" 
d="M1442 29q9 -20 7.5 -24.5t-15.5 -4.5h-383q-8 0 -14 2.5t-11 13.5q-19 42 -39.5 93t-36.5 90h-495q-19 -44 -38 -91.5t-34 -84.5q-5 -13 -11 -18t-26 -5h-340q-24 0 -10 29q53 113 114 240.5t125 258.5t128.5 261t124 248.5t112 220t92.5 176.5q2 3 9 3.5t16 0.5
t15.5 0.5t8.5 -4.5q47 -91 101.5 -199.5t113.5 -226.5t121.5 -243.5t124.5 -251.5t123 -248.5t117 -235.5zM842 465l-146 311l-139 -311h285z" />
    <glyph glyph-name="B" unicode="B" horiz-adv-x="1405" 
d="M1337 377q0 -84 -27 -153.5t-77 -119t-123 -77t-164 -27.5h-774q-12 0 -15 4.5t-3 24.5v1339q0 12 5 16.5t19 4.5h717q94 0 169 -25t127 -72t79.5 -114.5t27.5 -153.5q0 -113 -62.5 -193t-182.5 -114q66 -7 118.5 -38.5t89.5 -78t56.5 -104.5t19.5 -119zM926 971
q0 65 -34 98t-97 33h-275v-262h275q63 0 97 34.5t34 96.5zM956 436q0 33 -10.5 61t-29.5 48t-44.5 31.5t-56.5 11.5h-295v-301h295q65 0 103 38.5t38 110.5z" />
    <glyph glyph-name="C" unicode="C" horiz-adv-x="1475" 
d="M1450 389q-35 -84 -94.5 -160.5t-141 -135t-183.5 -93.5t-222 -35q-109 0 -205 26.5t-177 74t-145 114t-108.5 146.5t-68 172t-23.5 190q0 105 25 200t71.5 176t111.5 146t144.5 111t172 71t192.5 25q127 0 229 -31.5t181 -85.5t135.5 -125t91.5 -149q8 -19 4 -26.5
t-10 -10.5l-306 -119q-9 -3 -12 0t-6 11q-89 186 -299 186q-77 0 -139 -28.5t-106 -79.5t-67.5 -121t-23.5 -152q0 -96 29 -166.5t77 -116t109.5 -68t126.5 -22.5q105 0 177.5 47t109.5 125q5 8 8.5 13t15.5 2l308 -84q15 -5 18 -11.5t0 -15.5z" />
    <glyph glyph-name="D" unicode="D" horiz-adv-x="1446" 
d="M1368 694q0 -167 -48.5 -296t-137 -217.5t-213.5 -134.5t-277 -46h-522q-11 0 -13.5 3t-2.5 15v1350q0 12 2.5 16.5t13.5 4.5h569q148 0 264.5 -45t197.5 -133t124 -218t43 -299zM985 700q0 84 -18.5 156.5t-54 126.5t-87 84.5t-118.5 30.5h-193v-803h188q77 0 131 29.5
t87.5 83t49 128t15.5 164.5z" />
    <glyph glyph-name="E" unicode="E" horiz-adv-x="1198" 
d="M1135 29q0 -19 -3.5 -24t-19.5 -5h-936q-15 0 -18.5 5t-3.5 24v1339q0 14 1.5 17.5t16.5 3.5h926q15 0 18.5 -4.5t3.5 -22.5v-250q0 -29 -22 -29l-586 7v-232h573q14 0 17.5 -5t3.5 -24v-249q0 -19 -3.5 -24t-17.5 -5h-573v-238l600 6q17 0 20 -3.5t3 -22.5v-264z" />
    <glyph glyph-name="F" unicode="F" horiz-adv-x="1120" 
d="M1085 1090q-2 -14 -3 -17.5t-13 -3.5l-547 4v-278l486 6q26 0 26 -25q3 -65 4 -133.5t-4 -142.5q-2 -14 -8 -18.5t-20 -4.5l-484 4v-452q0 -17 -3 -23t-15 -6h-334q-9 0 -12.5 3t-3.5 26v1333q0 18 2.5 22.5t13.5 4.5h899q12 0 13 -4.5t3 -16.5q3 -33 4.5 -69.5t1.5 -73
t-1.5 -71t-4.5 -64.5z" />
    <glyph glyph-name="G" unicode="G" horiz-adv-x="1507" 
d="M1440 -27q0 -2 -2 -4q-4 -4 -17 -4q-6 0 -10.5 2t-9.5 4l-227 133q-32 -27 -66 -52.5t-77.5 -44.5t-99.5 -30.5t-132 -11.5q-165 0 -297.5 53t-225.5 148.5t-143.5 229t-50.5 294.5q0 163 56 297t154.5 229.5t231 148t285.5 52.5q124 0 221.5 -29t172.5 -80t129 -120
t91 -148q7 -14 7 -22.5t-11 -13.5l-301 -115q-11 -5 -18.5 1t-12.5 15q-34 69 -103 114.5t-171 45.5q-84 0 -148.5 -27.5t-109 -77.5t-67.5 -119t-23 -153q0 -87 24 -156.5t68.5 -117.5t108 -73.5t141.5 -25.5q66 0 116.5 20t86.5 55.5t58.5 83t31.5 101.5q3 21 16 21h307
q17 0 17 -14v-609z" />
    <glyph glyph-name="H" unicode="H" horiz-adv-x="1509" 
d="M1356 18q0 -15 -2.5 -16.5t-16.5 -1.5h-329q-14 0 -17.5 3t-3.5 15v541h-465v-541q0 -12 -2.5 -15t-13.5 -3h-334q-14 0 -16 1.5t-2 16.5v1352q0 16 2 17.5t16 1.5h334q11 0 13.5 -3.5t2.5 -15.5v-483h465v483q0 12 3.5 15.5t17.5 3.5h329q14 0 16.5 -1.5t2.5 -17.5
v-1352z" />
    <glyph glyph-name="I" unicode="I" horiz-adv-x="686" 
d="M532 18q0 -12 -3 -15t-17 -3h-340q-14 0 -16 1.5t-2 16.5v1352q0 16 2 17.5t16 1.5h340q14 0 17 -3.5t3 -15.5v-1352z" />
    <glyph glyph-name="J" unicode="J" horiz-adv-x="782" 
d="M629 389q0 -108 -18 -188t-59.5 -132.5t-108.5 -78t-164 -25.5q-82 0 -140.5 9t-87.5 18q-15 3 -19.5 9t-2.5 28l14 231q2 14 7.5 19t33.5 2q51 -6 85 -3.5t54.5 16.5t28.5 40t8 67v961q0 22 4.5 24.5t18.5 2.5h325q14 0 17.5 -3.5t3.5 -23.5v-973z" />
    <glyph glyph-name="K" unicode="K" horiz-adv-x="1378" 
d="M1358 29q11 -19 5 -24t-20 -5h-370q-13 0 -16 4.5t-11 20.5q-12 23 -29.5 55.5t-38 71t-42 79.5t-42.5 81q-49 92 -104 196l-168 -238v-252q0 -12 -3 -15t-15 -3h-332q-14 0 -16 1.5t-2 16.5v1352q0 16 2 17.5t16 1.5h332q12 0 15 -3.5t3 -15.5v-614q82 124 157 240
q32 49 65.5 101.5t65.5 103t60.5 95.5t49.5 80q6 8 11 10.5t13 2.5h371q29 0 12 -25q-26 -35 -57 -77.5t-64.5 -89t-67.5 -93.5t-66 -91q-75 -104 -152 -212q89 -157 171 -302q35 -62 72 -127.5t72 -127.5t67 -117.5t56 -97.5z" />
    <glyph glyph-name="L" unicode="L" horiz-adv-x="1067" 
d="M1055 18q0 -12 -2 -15t-15 -3h-866q-14 0 -16 1.5t-2 16.5v1352q0 16 2 17.5t16 1.5h332q12 0 15 -3.5t3 -15.5v-1044l514 10q13 0 16 -4t3 -17v-297z" />
    <glyph glyph-name="M" unicode="M" horiz-adv-x="1667" 
d="M1536 27q0 -13 0.5 -21t-14.5 -8h-334q-11 0 -14 4t-3 12l-12 596q-66 -68 -125 -129q-26 -26 -52 -53.5t-51 -52.5t-46.5 -47t-36.5 -37q-10 -10 -17 -10q-4 0 -14 10q-15 15 -36.5 37t-47 47.5t-52.5 53t-53 53.5q-61 62 -128 130l-15 -583q0 -20 -3.5 -24.5
t-18.5 -4.5h-307q-7 0 -11 -0.5t-5.5 0t-2 3t-0.5 9.5q1 165 5.5 343t10 357t12 352t13.5 327q3 19 12 22q9 0 17 -8q44 -44 101.5 -101t119 -119t123.5 -125.5t116.5 -119.5t97.5 -101t66 -71q22 25 63 70t94 101.5t114 120.5t123 127.5t120.5 122.5t106.5 105q9 9 21 6
q8 -4 8 -16q7 -134 13 -253.5t11 -232t9 -219.5t8 -215.5t7.5 -221.5t6.5 -236z" />
    <glyph glyph-name="N" unicode="N" horiz-adv-x="1475" 
d="M1321 -10q0 -11 -0.5 -18t-5.5 -9q-6 -3 -19 6q-58 43 -123 95.5t-131.5 108t-132 112t-125.5 109.5q-140 123 -280 251v-627q0 -14 -2.5 -16t-16.5 -2h-309q-11 0 -15.5 7t-4.5 13q-3 131 -4.5 247t-2.5 225.5t-0.5 215.5t1 216.5t2.5 230t4 254.5q0 13 6 16q5 6 16 -2
q55 -39 118 -89t129.5 -104.5t132.5 -111.5t127 -110q143 -125 288 -258v614q0 17 2 21t14 4h311q16 0 18.5 -5t2.5 -20q2 -100 3 -211t1.5 -228t0.5 -238t-0.5 -240.5t-2 -235t-2.5 -221.5z" />
    <glyph glyph-name="O" unicode="O" horiz-adv-x="1618" 
d="M1536 690q0 -100 -25 -193t-71.5 -173.5t-112 -146.5t-146 -113t-174.5 -73t-198 -26t-198 26t-174.5 73t-146 113t-112 146.5t-71.5 173.5t-25 193t25 193t71.5 174t112 147.5t146 113.5t175 73t197.5 26t197.5 -26t175 -73t146 -113.5t112 -147.5t71.5 -174t25 -193z
M1153 690q0 79 -23 148t-67.5 120t-108.5 80t-145 29q-83 0 -147 -29t-108 -80t-66.5 -120t-22.5 -148t22.5 -147.5t66.5 -119t108 -79.5t147 -29q81 0 145 29t108.5 79.5t67.5 119t23 147.5z" />
    <glyph glyph-name="P" unicode="P" horiz-adv-x="1325" 
d="M1274 856q0 -126 -35 -215.5t-97 -149t-146.5 -91.5t-182.5 -44q-11 -1 -29.5 -2t-41 -2t-48 -1.5t-49.5 -0.5q-57 -1 -123 -2v-330q0 -12 -3 -15t-15 -3h-332q-14 0 -16 1.5t-2 16.5v1352q0 16 6 17.5t12 1.5h614q115 0 205.5 -39t153.5 -109.5t96 -168.5t33 -216z
M895 868q0 104 -55.5 159.5t-149.5 55.5h-168v-434l172 6q54 3 92 20t62.5 45.5t35.5 66t11 81.5z" />
    <glyph glyph-name="Q" unicode="Q" horiz-adv-x="1618" 
d="M1536 690q0 -158 -61.5 -294.5t-169.5 -235.5v-301q0 -22 -9 -27q-10 -3 -26 2q-94 35 -173.5 70.5t-160.5 72.5q-59 -12 -127 -12q-100 0 -193 26t-173.5 73t-147 113t-114 146.5t-73.5 173.5t-26 193t26 193t73.5 174t114 147.5t147 113.5t173.5 73t193 26t193 -26
t173.5 -73t147 -113.5t114 -147.5t73.5 -174t26 -193zM1153 690q0 79 -23 148t-67.5 120t-108.5 80t-145 29q-83 0 -147 -29t-108 -80t-66.5 -120t-22.5 -148t22.5 -147.5t66.5 -119t108 -79.5t147 -29q81 0 145 29t108.5 79.5t67.5 119t23 147.5z" />
    <glyph glyph-name="R" unicode="R" horiz-adv-x="1419" 
d="M1386 55q19 -31 16 -43t-20 -12h-362q-12 0 -20.5 6.5t-22.5 34.5q-13 25 -29.5 54t-34.5 59.5t-36.5 61t-35.5 59.5q-40 67 -83 135l-236 -4v-388q0 -12 -2.5 -15t-13.5 -3h-336q-12 0 -14 1.5t-2 16.5v1352q0 16 5.5 17.5t10.5 1.5h635q118 0 208.5 -38t151.5 -102.5
t92 -149.5t31 -179q0 -143 -48 -239.5t-142 -141.5q20 -32 51 -84t69 -117t81 -138t87 -145zM899 893q0 40 -10.5 75t-32 60.5t-54 40t-77.5 14.5h-203v-401l205 6q42 1 74 16.5t53.5 42.5t33 64t11.5 82z" />
    <glyph glyph-name="S" unicode="S" horiz-adv-x="1247" 
d="M1178 420q0 -119 -45.5 -204.5t-124.5 -141.5t-185 -82.5t-227 -26.5q-209 0 -339.5 81.5t-182.5 232.5q-6 17 -4.5 25t12.5 13l252 103q14 6 16.5 4t5.5 -14q9 -29 31 -58.5t54 -53.5t73.5 -39t89.5 -15q106 0 156.5 33t50.5 104q0 31 -12 57t-41 46t-76.5 34t-118.5 23
q-11 2 -24.5 3t-24.5 3q-93 9 -170.5 39.5t-133 83t-86 126.5t-30.5 169q0 100 34 183t102.5 143t170.5 93t238 33q102 0 184.5 -23t144.5 -63t103.5 -95.5t61.5 -119.5q5 -17 -0.5 -24.5t-14.5 -10.5l-239 -96q-11 -5 -16.5 -2.5t-8.5 10.5q-11 31 -33 60t-52.5 51.5
t-67 36.5t-76.5 14q-54 0 -90.5 -9.5t-58 -26.5t-31 -41t-9.5 -52q0 -35 14.5 -61t46 -45t81 -32.5t118.5 -25.5q14 -2 31 -4.5t37 -5.5q98 -14 175 -47t130 -86.5t81 -128t28 -170.5z" />
    <glyph glyph-name="T" unicode="T" horiz-adv-x="1178" 
d="M1145 1104q0 -9 -2.5 -11.5t-12.5 -2.5l-350 4v-1076q0 -12 -3 -15t-15 -3h-338q-16 0 -18.5 1.5t-2.5 16.5v1076l-360 -4q-11 0 -12.5 2.5t-1.5 11.5v264q0 12 2 16.5t14 4.5h1083q11 0 14 -4.5t3 -16.5v-264z" />
    <glyph glyph-name="U" unicode="U" horiz-adv-x="1423" 
d="M1290 504q0 -124 -33 -223.5t-103 -169.5t-179 -108t-262 -38q-147 0 -256 40t-181 113t-107.5 176t-35.5 230v852q0 10 1 11.5t9 1.5h344q11 0 13 -2t2 -15v-911q0 -51 19.5 -88t50 -61t69 -35t76.5 -11q37 0 75 11t69 34.5t51 60.5t20 89v913q0 9 1.5 12t10.5 3h336
q8 0 9 -2t1 -13v-870z" />
    <glyph glyph-name="V" unicode="V" horiz-adv-x="1386" 
d="M1374 1352q-65 -140 -120 -258t-104.5 -224.5t-97 -207t-96.5 -205t-102.5 -218.5t-116.5 -249q-6 -13 -14 -21t-16 -8q-15 0 -27 25q-87 170 -167 329t-160 321.5t-164.5 337.5t-178.5 378q-12 24 -11 30.5t21 6.5h349q14 0 23 -3t14 -14q12 -32 32.5 -81.5t45 -108.5
t51.5 -123.5t53 -127.5q62 -147 131 -313q64 164 120 310q24 62 48.5 126t46.5 122.5t40.5 107t29.5 80.5q5 14 13.5 19.5t26.5 5.5h318q20 0 22.5 -5.5t-10.5 -31.5z" />
    <glyph glyph-name="W" unicode="W" horiz-adv-x="1731" 
d="M1724 1362q-56 -146 -104.5 -269.5t-92 -234t-84 -213t-81.5 -206.5t-83.5 -214.5t-90.5 -236.5q-3 -10 -10 -13.5t-15 -3.5t-14.5 2.5t-9.5 10.5q-61 138 -112 252t-88 198q-44 98 -79 176q-38 -86 -84 -186q-39 -86 -90 -199.5t-108 -242.5q-4 -8 -9.5 -10.5
t-13.5 -2.5t-14.5 2.5t-10.5 10.5q-49 126 -91.5 235t-82.5 212t-79 204.5t-80.5 212t-87 234.5t-99.5 272q-9 24 -10.5 30.5t18.5 6.5h316q26 0 36.5 -8t16.5 -29q9 -33 22.5 -78t30 -96.5t34 -106.5t34.5 -107q40 -123 84 -257q61 160 115 296q23 58 46 117t43.5 110
t37 91t26.5 61q9 19 25 19q8 0 14.5 -4.5t9.5 -14.5q9 -22 24 -62.5t34.5 -92t41.5 -110t43 -116.5q50 -136 107 -294q45 137 85 263q17 54 35 110t34.5 109t30.5 99t24 80q3 17 5.5 19t15.5 2h317q20 0 23 -3.5t-5 -23.5z" />
    <glyph glyph-name="X" unicode="X" horiz-adv-x="1262" 
d="M1257 39q27 -39 -14 -39h-369q-31 0 -53 33q-32 50 -70.5 112.5t-73.5 117.5q-40 64 -81 130q-41 -69 -81 -134q-17 -28 -35.5 -57.5t-37 -58t-35.5 -55t-32 -47.5q-14 -19 -25.5 -30t-34.5 -11q-53 0 -86 -0.5t-63.5 -0.5h-67t-94.5 1q-15 0 -19.5 10t3.5 23
q33 49 68.5 103t71.5 109t70.5 109t66.5 103q74 114 147 227q-87 136 -168 264q-35 54 -71.5 111.5t-71 112.5t-66 103.5t-55.5 86.5q-3 3 -5 7.5t-1.5 9t4 7.5t12.5 3h358q16 0 28.5 -5.5t29.5 -31.5q12 -20 28 -45t34.5 -53t38 -57.5t37.5 -57.5q43 -65 89 -135
q50 73 96 142q19 29 40 60t40.5 61t37 56.5t30.5 46.5q5 6 17 12.5t28 6.5h305q21 0 28 -11.5t-6 -31.5q-26 -39 -58.5 -87t-67.5 -100t-71 -105t-70 -102q-79 -116 -163 -237q84 -132 165 -257q34 -53 71 -110t73 -112t69 -106t60 -91z" />
    <glyph glyph-name="Y" unicode="Y" horiz-adv-x="1319" 
d="M1311 1337q-34 -75 -71 -153t-74 -155t-73.5 -150.5t-69.5 -138.5q-77 -153 -153 -298v-413q0 -20 -2.5 -24.5t-19.5 -4.5h-340q-9 0 -11.5 4.5t-2.5 24.5v403q-85 154 -172 315q-37 69 -78 145.5t-83 156t-83 159t-78 154.5q-11 20 -8.5 23.5t20.5 3.5h346
q25 0 34.5 -7.5t19.5 -25.5q16 -32 36 -74.5t41.5 -90.5t44.5 -98t44 -98q50 -112 104 -233q54 120 103 231q21 47 43 97t42 97.5t38 90t30 74.5q9 23 16.5 30t26.5 7h301q32 0 38 -9t-9 -43z" />
    <glyph glyph-name="Z" unicode="Z" horiz-adv-x="1128" 
d="M1100 1352q-38 -87 -82 -178t-90.5 -180.5t-94 -174.5t-90.5 -161q-102 -178 -206 -347h57.5t87 0.5t103.5 1t107 1t97 1.5t74 2q12 0 19.5 -5.5t7.5 -16.5v-272q0 -14 -4.5 -18.5t-16.5 -4.5h-1036q-11 0 -13 15.5t5 27.5q32 69 74 150.5t89.5 168t97.5 173t98 166.5
q111 187 232 380q-27 -1 -68 -1.5t-89.5 0t-100 0.5t-100 0.5t-90 0t-68.5 -1.5q-14 0 -16 2.5t-2 16.5v264q0 15 4.5 21t26.5 6h979q4 0 6 -4.5t2.5 -10.5t0.5 -12t-1 -10z" />
    <glyph glyph-name="bracketleft" unicode="[" horiz-adv-x="719" 
d="M688 -291q0 -12 -10 -12h-533q-9 0 -11.5 3t-2.5 9v1667q0 6 2.5 9.5t11.5 3.5h533q10 0 10 -13v-198q0 -11 -8 -11h-15.5t-28 0.5t-36 1t-39.5 0.5q-47 1 -104 2v-1257q57 1 104 2q20 0 39.5 0.5t36 1t28 0.5h15.5q8 0 8 -10v-199z" />
    <glyph glyph-name="backslash" unicode="\" horiz-adv-x="848" 
d="M860 2q3 -6 -3.5 -10t-20.5 -12q-18 -10 -41 -22t-46 -23.5t-42.5 -20t-30.5 -12.5q-9 -3 -13 -1.5t-14 19.5q-53 107 -109 227.5t-113 246t-113.5 253t-111 249t-105.5 234.5t-97 209q-5 10 -7.5 15.5t-2.5 9t2.5 6t7.5 6.5q7 6 31.5 16.5t53 21.5t54.5 20.5t37 13.5
q11 3 16.5 0.5t16.5 -25.5q46 -96 102 -216.5t115.5 -252.5t120.5 -268t117.5 -262t107 -235t88.5 -187z" />
    <glyph glyph-name="bracketright" unicode="]" horiz-adv-x="719" 
d="M612 -293q0 -6 -2.5 -9t-11.5 -3h-532q-11 0 -11 12v199q0 10 6 10h16t28.5 -0.5t36.5 -1t40 -0.5q47 -1 103 -2v1257q-56 -1 -103 -2q-20 0 -40 -0.5t-36.5 -1t-28.5 -0.5h-16q-3 0 -4.5 2.5t-1.5 10.5v196q0 12 11 12h532q9 0 11.5 -3t2.5 -9v-1667z" />
    <glyph glyph-name="asciicircum" unicode="^" horiz-adv-x="881" 
d="M858 1016q-3 -10 -24 -10h-238l-160 168l-176 -168h-229q-14 0 -17 10q-3 8 15 24q8 8 37 40.5t68.5 77t84.5 94.5t83.5 94t66.5 75.5t34 38.5q20 23 33 23q6 0 12.5 -3.5t14.5 -13.5q4 -5 21 -23.5t42.5 -47t57 -63t64.5 -71t65 -72t58 -64.5t44.5 -49.5t24.5 -26.5
q21 -25 18 -33z" />
    <glyph glyph-name="underscore" unicode="_" horiz-adv-x="874" 
d="M911 -420q0 -12 -7.5 -20.5t-29.5 -8.5h-874q-14 0 -23.5 7t-9.5 22v187q0 9 5.5 19.5t27.5 10.5h874q14 0 25.5 -7.5t11.5 -22.5v-187z" />
    <glyph glyph-name="grave" unicode="`" 
d="M717 1130q1 -3 -9 -9t-24.5 -10.5t-30 -7t-24.5 2.5q-56 26 -100 48t-85 43.5t-84 44.5t-98 50q-6 10 -10 18q-4 7 -5.5 13t1.5 8q57 37 120 74t134 82q5 3 7.5 3.5t8.5 -7.5q29 -54 52.5 -96t45.5 -81.5t46 -81t55 -94.5z" />
    <glyph glyph-name="a" unicode="a" horiz-adv-x="1284" 
d="M1161 29q0 -17 -4 -23t-12 -6h-291q-11 0 -15.5 5t-4.5 13v129q-13 -40 -42.5 -70t-68.5 -50.5t-85 -30.5t-93 -10q-103 0 -191.5 36t-153.5 104t-102 167t-37 225q0 116 38 213t103.5 167.5t152 109.5t184.5 39q52 0 97.5 -14t81 -37t60.5 -52t37 -59v125q0 14 3.5 19
t12.5 5h316q8 0 11 -5t3 -13v-987zM815 512q0 51 -16 90.5t-44 67.5t-65.5 42.5t-79.5 14.5q-48 0 -87 -16.5t-66 -45.5t-41.5 -69t-14.5 -88q0 -47 16.5 -86t45 -66.5t66.5 -43t81 -15.5q42 0 79.5 15.5t65.5 43.5t44 68t16 88z" />
    <glyph glyph-name="b" unicode="b" horiz-adv-x="1305" 
d="M1223 518q0 -117 -33 -215t-93.5 -168.5t-147.5 -109.5t-195 -39q-45 0 -89.5 8.5t-83.5 26t-71 42.5t-53 58l-23 -98q-3 -14 -15.5 -19.5t-29.5 -5.5h-250q-12 0 -14 4t-2 23v1364q0 21 2.5 24.5t13.5 3.5h305q11 0 14 -4.5t3 -21.5v-488q14 31 41 57.5t63.5 46t81 30
t92.5 10.5q105 0 193.5 -36t153 -104t101 -166.5t36.5 -222.5zM883 512q0 50 -16.5 90t-45 67.5t-66 42.5t-79.5 15q-43 0 -80.5 -14.5t-65 -42.5t-43.5 -67.5t-16 -90.5q0 -48 16 -88t43.5 -68t65 -43.5t80.5 -15.5q42 0 79.5 15.5t66 43.5t45 68t16.5 88z" />
    <glyph glyph-name="c" unicode="c" horiz-adv-x="1114" 
d="M1092 262q-68 -140 -186 -218.5t-296 -78.5q-120 0 -221 38t-174 108t-113.5 170t-40.5 225q0 118 39 220t110.5 177.5t172 118.5t223.5 43q84 0 159.5 -19t138 -57.5t110 -95.5t76.5 -133q8 -23 -13 -31l-268 -113q-10 -3 -16 13q-10 22 -29 40t-43 31t-52.5 20t-56.5 7
q-51 0 -90 -16.5t-66 -45.5t-41 -68.5t-14 -86.5q0 -48 16.5 -87.5t45 -67.5t67.5 -43t84 -15q31 0 59.5 8t51.5 22t40 32t26 38q5 11 10.5 14t19.5 -3l258 -111q23 -12 13 -35z" />
    <glyph glyph-name="d" unicode="d" horiz-adv-x="1270" 
d="M1147 31q0 -19 -5 -26t-18 -7h-284q-14 0 -18.5 7t-4.5 26v59q-20 -28 -48.5 -47.5t-63 -32t-73 -18.5t-77.5 -6q-113 0 -204 35.5t-155.5 103t-99.5 166.5t-35 227q0 123 36.5 221t101 166.5t153 105t193.5 36.5q37 0 75.5 -7.5t73.5 -21t64.5 -33t48.5 -43.5v449
q0 17 2.5 21.5t13.5 4.5h307q11 0 14 -3.5t3 -24.5v-1358zM815 512q0 50 -16 90t-44 67.5t-66 42.5t-81 15q-42 0 -79.5 -15t-66 -42.5t-45 -67t-16.5 -88.5q0 -48 16 -87.5t44.5 -68.5t67.5 -45t85 -16q42 0 79 15t64 43t42.5 68t15.5 89z" />
    <glyph glyph-name="e" unicode="e" horiz-adv-x="1094" 
d="M1063 594q0 -54 -3 -84t-9 -55q-3 -16 -10.5 -20.5t-30.5 -4.5h-613q1 -42 16.5 -75t43.5 -56.5t66 -36t83 -12.5q36 0 66.5 10t55 25.5t43.5 33.5t32 33q5 6 12.5 3.5t15.5 -13.5q16 -22 34.5 -48t37 -53t37 -53.5t33.5 -50.5q9 -14 5.5 -25t-15.5 -22
q-24 -21 -61.5 -42.5t-85 -39t-102.5 -28.5t-114 -11q-117 0 -215.5 37.5t-170.5 108.5t-112.5 173.5t-40.5 233.5q0 117 37.5 216t107.5 170.5t169.5 112t224.5 40.5q94 0 178.5 -32.5t147.5 -93t100 -147t37 -194.5zM743 610q-6 82 -50.5 128t-123.5 46q-42 0 -72.5 -15
t-51.5 -39.5t-32.5 -56t-15.5 -63.5h346z" />
    <glyph glyph-name="f" unicode="f" horiz-adv-x="668" 
d="M719 1286q-7 -9 -18 -25.5t-22.5 -34t-21.5 -33.5t-14 -24q-3 -8 -10 -11.5t-12 1.5q-26 47 -82 47q-31 0 -53.5 -22t-22.5 -64v-73q0 -8 2 -10.5t8 -2.5h152q14 0 16 -3.5t2 -12.5v-213q0 -17 -4 -25t-18 -8h-138v-749q0 -17 -3.5 -20t-14.5 -3h-315q-10 0 -12.5 8.5
t-2.5 18.5v747h-82q-9 0 -14.5 3t-5.5 20v213q0 8 2.5 16t13.5 8h86v109q0 67 16.5 122.5t52 95.5t91 61.5t133.5 21.5q62 0 107 -10.5t77.5 -27t56.5 -37.5t44 -42q21 -21 6 -41z" />
    <glyph glyph-name="g" unicode="g" horiz-adv-x="1278" 
d="M1155 336q0 -202 -32 -342.5t-101 -228t-176.5 -127t-257.5 -39.5q-46 0 -100 9t-107.5 23.5t-103 33t-87.5 36.5q-11 6 -18.5 9.5t-11 6.5t-3.5 7.5t3 13.5q4 14 17 45.5t28 68.5t28.5 72.5t20.5 57.5q6 17 11.5 19t21.5 -7q21 -13 53 -29t69 -29.5t76 -22.5t74 -9
q73 0 122 15t79 47t42.5 83t12.5 123q-45 -65 -118.5 -96t-166.5 -31q-101 0 -187 31t-148.5 93.5t-98 155.5t-35.5 218q0 119 35.5 212.5t98 158.5t149 99t188.5 34q39 0 82 -8t82 -22t71 -35t48 -46v74q0 18 4 21t15 3h305q12 0 14 -8t2 -16v-674zM815 520
q0 48 -16.5 86.5t-44.5 66.5t-66 43t-80 15q-43 0 -80.5 -15.5t-65.5 -43.5t-44.5 -67t-16.5 -85q0 -45 16.5 -82.5t44.5 -64.5t65.5 -42.5t80.5 -15.5q42 0 80 14t66 40.5t44.5 64.5t16.5 86z" />
    <glyph glyph-name="h" unicode="h" horiz-adv-x="1221" 
d="M1098 31q0 -22 -4 -26.5t-17 -4.5h-309q-11 0 -14.5 3t-3.5 20v610q0 34 -10.5 59.5t-28 42.5t-41 25t-49.5 8q-62 0 -96.5 -28.5t-53.5 -69.5v-647q0 -14 -2.5 -18.5t-11.5 -4.5h-318q-11 0 -13.5 3.5t-2.5 25.5v1364q0 18 1.5 21t12.5 3h316q11 0 14.5 -5.5t3.5 -25.5
v-514q35 88 113 140.5t196 52.5q161 0 239.5 -85.5t78.5 -252.5v-696z" />
    <glyph glyph-name="i" unicode="i" horiz-adv-x="594" 
d="M471 1174q0 -14 -3.5 -18.5t-14.5 -4.5h-314q-11 0 -13.5 8.5t-2.5 18.5v213q0 9 1.5 17.5t12.5 8.5h314q12 0 16 -4t4 -22v-217zM471 23q0 -14 -3.5 -18.5t-14.5 -4.5h-314q-11 0 -13.5 3.5t-2.5 25.5v981q0 18 1.5 21t12.5 3h314q12 0 16 -3t4 -21v-987z" />
    <glyph glyph-name="j" unicode="j" horiz-adv-x="618" 
d="M494 1174q0 -14 -4 -18.5t-13 -4.5h-313q-11 0 -14 8.5t-3 18.5v213q0 9 2 17.5t13 8.5h315q9 0 13 -4t4 -22v-217zM496 45q0 -104 -20.5 -177t-60 -119t-97 -67.5t-130.5 -21.5q-29 0 -60 4t-60 10t-54 13t-43 14q-9 2 -14.5 9.5t-3.5 21.5q0 7 2 23t4.5 36.5t5 43
t5 42.5t4 35.5t1.5 21.5q2 20 10.5 25t28.5 0q69 -19 101 5t32 106v940q0 8 2 16t13 8h315q11 0 15 -3t4 -21v-965z" />
    <glyph glyph-name="k" unicode="k" horiz-adv-x="1180" 
d="M1182 25q9 -14 3.5 -19.5t-22.5 -5.5h-372q-11 0 -18.5 6t-16.5 23l-174 303l-111 -139v-170q0 -14 -3.5 -18.5t-12.5 -4.5h-316q-11 0 -13.5 3.5t-2.5 25.5v1362q0 18 1.5 22t12.5 4h316q11 0 14.5 -4t3.5 -22v-773q55 77 107 150q22 31 45.5 64.5t46.5 66.5t44 63.5
t38 55.5q3 6 6.5 11t17.5 5h354q9 0 12.5 -4t3.5 -9.5t-3 -12t-6 -11.5q-19 -23 -43.5 -52.5t-51 -62t-54 -66.5t-53.5 -66q-61 -75 -126 -154q71 -110 140 -215q29 -45 60.5 -93t62 -94.5t59 -90t51.5 -78.5z" />
    <glyph glyph-name="l" unicode="l" horiz-adv-x="594" 
d="M471 23q0 -14 -3.5 -18.5t-12.5 -4.5h-316q-11 0 -13.5 3.5t-2.5 25.5v1362q0 18 2 22t14 4h314q11 0 14.5 -4t3.5 -22v-1368z" />
    <glyph glyph-name="m" unicode="m" horiz-adv-x="1827" 
d="M1704 31q0 -19 -3 -25t-15 -6h-312q-9 0 -13.5 3t-4.5 20v585q0 75 -30.5 117.5t-98.5 42.5q-28 0 -51.5 -8.5t-41.5 -21.5t-30 -29t-17 -31v-647q0 -19 -3 -25t-15 -6h-311q-10 0 -14.5 3t-4.5 20v585q0 42 -10 72.5t-27.5 50t-41 28.5t-50.5 9t-51 -9t-42.5 -22.5
t-30.5 -29t-15 -29.5v-655q0 -14 -2.5 -18.5t-11.5 -4.5h-318q-11 0 -13.5 3.5t-2.5 25.5v981q0 18 1.5 21t12.5 3h305q13 0 16 -3t3 -21v-142q16 45 45 81t68 62t87 40t103 14q123 0 199 -46t108 -151q13 47 42.5 83.5t70.5 62t91.5 38.5t104.5 13q61 0 119.5 -13.5
t104 -50t73 -100.5t27.5 -164v-706z" />
    <glyph glyph-name="n" unicode="n" horiz-adv-x="1214" 
d="M1098 31q0 -22 -4 -26.5t-17 -4.5h-309q-11 0 -14.5 3t-3.5 20v610q0 34 -10.5 59.5t-28 42.5t-41 25t-49.5 8q-62 0 -96.5 -28.5t-53.5 -69.5v-647q0 -14 -2.5 -18.5t-11.5 -4.5h-318q-11 0 -13.5 3.5t-2.5 25.5v981q0 18 1.5 21t12.5 3h301q23 0 23 -33v-133
q15 45 45 81.5t71 62t92.5 39.5t110.5 14q161 0 239.5 -85.5t78.5 -252.5v-696z" />
    <glyph glyph-name="o" unicode="o" horiz-adv-x="1219" 
d="M1155 514q0 -122 -40.5 -223t-113 -173.5t-173 -112.5t-220.5 -40q-118 0 -218.5 39.5t-173.5 112t-114 173.5t-41 224q0 117 40 218t112 175t172.5 116t222.5 42q120 0 220.5 -40.5t173 -113t113 -174t40.5 -223.5zM815 514q0 51 -16 91.5t-44 69.5t-65.5 44.5
t-79.5 15.5q-43 0 -81 -16t-66.5 -45.5t-45 -70t-16.5 -89.5q0 -48 17 -89.5t46 -71.5t67 -47t81 -17q42 0 79 16.5t64.5 46t43.5 71t16 91.5z" />
    <glyph glyph-name="p" unicode="p" horiz-adv-x="1298" 
d="M1223 520q0 -139 -38 -242t-105.5 -170.5t-160 -99t-200.5 -26.5q-39 1 -77.5 11t-72 26t-59.5 37.5t-39 45.5v-415q0 -17 -2.5 -22t-13.5 -5h-318q-9 0 -11.5 3.5t-2.5 25.5v1321q0 18 1.5 21t12.5 3h299q11 0 14 -3t3 -21v-99q11 35 41 61.5t70 44.5t85 27t86 9
q94 0 182.5 -30.5t156 -95.5t108.5 -165.5t41 -241.5zM883 512q0 50 -17 90t-45 68.5t-65.5 43.5t-77.5 15q-46 0 -84 -16t-65.5 -45t-42.5 -68.5t-15 -87.5q0 -52 18 -92.5t47.5 -68t68 -42t79.5 -14.5q39 0 75 15t63.5 43.5t44 68.5t16.5 90z" />
    <glyph glyph-name="q" unicode="q" horiz-adv-x="1268" 
d="M1147 -313q0 -19 -2 -23t-15 -4h-290q-13 0 -17 4t-4 23v424q-15 -28 -42.5 -51.5t-63 -41t-77 -27t-85.5 -9.5q-109 0 -199.5 35.5t-155 103.5t-100 167.5t-35.5 227.5q0 124 36 223t99.5 169t150 107.5t188.5 37.5q56 0 103.5 -11t86 -30.5t66.5 -45t45 -53.5l92 111
q14 15 22 21t25 4q31 -4 73 -7t82 -8q11 -2 14 -4t3 -22v-1321zM815 516q0 50 -16.5 89t-45 66t-66.5 41.5t-81 14.5q-42 0 -79.5 -15.5t-65 -44t-44 -68.5t-16.5 -89q0 -52 17 -92t45.5 -67t66.5 -40.5t80 -13.5q43 0 80.5 15t65 43t43.5 69t16 92z" />
    <glyph glyph-name="r" unicode="r" horiz-adv-x="979" 
d="M969 817q-11 -11 -29 -29.5t-40 -40.5t-45 -46t-43 -44.5t-35 -35.5l-21 -21q-8 -8 -22 -10t-29 -2q0 69 -28.5 105t-84.5 36q-24 0 -42.5 -7t-32.5 -18t-25.5 -25t-20.5 -28v-628q0 -14 -3.5 -18.5t-12.5 -4.5h-316q-11 0 -13.5 3.5t-2.5 25.5v981q0 18 2 21t14 3h305
q11 0 14 -3t3 -21v-101q16 39 43.5 68t61.5 48.5t70.5 29.5t70.5 10q57 0 104.5 -15.5t82 -47t54 -78t21.5 -107.5z" />
    <glyph glyph-name="s" unicode="s" horiz-adv-x="1040" 
d="M981 344q0 -86 -31.5 -156t-92 -120t-148 -77.5t-199.5 -27.5q-98 0 -171 17t-126.5 48.5t-90 75.5t-61.5 99q-3 11 -2 19t9 11l223 86q6 2 11 -0.5t7 -7.5q9 -23 25 -43t38 -35t48 -23.5t55 -8.5q69 0 101 24t32 58q0 21 -9 37t-32 30.5t-61.5 27.5t-97.5 28
q-73 18 -134 42t-104.5 61t-67.5 90t-24 130q0 81 32 143.5t91.5 105t145 65t192.5 22.5q171 0 271.5 -59.5t131.5 -161.5q2 -10 0.5 -18t-10.5 -11l-227 -80q-10 -5 -13.5 -4t-9.5 10q-26 42 -65.5 67.5t-90.5 25.5q-60 0 -87 -19t-27 -53q0 -15 10 -27t35.5 -23t68.5 -22
t109 -24q77 -15 140.5 -40.5t109.5 -63.5t71 -92t25 -126z" />
    <glyph glyph-name="t" unicode="t" horiz-adv-x="764" 
d="M737 61q2 -12 -3.5 -18.5t-14.5 -11.5q-18 -9 -40.5 -19t-49 -18.5t-56.5 -14.5t-63 -6q-87 0 -147 18.5t-100 50t-62.5 74.5t-34 92t-14 101.5t-2.5 104.5v358h-84q-11 0 -17 3t-6 20v215q0 8 2.5 16t13.5 8h91l6 256q0 16 2.5 22.5t13.5 6.5h291q22 0 30.5 -13t8.5 -22
l-4 -250h174q20 0 20 -16v-219q0 -29 -22 -29q-15 0 -37.5 0.5t-46.5 0.5t-47 0.5t-41 0.5v-379q0 -68 44.5 -98.5t125.5 -13.5q18 5 26.5 -1.5t12.5 -23.5q1 -9 5.5 -36.5t9.5 -59t9 -60t6 -39.5z" />
    <glyph glyph-name="u" unicode="u" horiz-adv-x="1214" 
d="M1087 25q0 -19 -1.5 -22t-12.5 -3h-297q-12 0 -19 4.5t-7 26.5v102q-16 -45 -46 -76t-71 -50.5t-92.5 -28.5t-110.5 -9q-161 0 -240 86.5t-77 251.5l6 692q0 22 4 28.5t16 6.5h310q11 0 14.5 -5.5t3.5 -22.5l-6 -613q0 -35 10.5 -60t28 -42t41 -25t49.5 -8q62 0 98 28
t51 70v656q0 14 2.5 18t12.5 4h317q11 0 13.5 -3.5t2.5 -24.5v-981z" />
    <glyph glyph-name="v" unicode="v" horiz-adv-x="1100" 
d="M1096 1006q-52 -106 -98 -198l-88 -176t-81 -162.5t-78.5 -157t-80.5 -159t-86 -169.5q-5 -11 -13.5 -16t-17.5 -5q-23 0 -35 23q-65 127 -124.5 245t-120.5 238.5t-126 250t-141 281.5q-12 25 -9.5 29t17.5 4h355q8 0 13.5 -1.5t8.5 -12.5q34 -93 65 -177t54 -149
q27 -76 51 -141q25 66 52 142q23 65 52 147.5t58 171.5q7 20 20 20h344q14 0 17 -3.5t-8 -24.5z" />
    <glyph glyph-name="w" unicode="w" horiz-adv-x="1372" 
d="M1366 1014q-55 -137 -105.5 -261.5t-100.5 -246.5t-101.5 -248t-108.5 -266q-9 -23 -24 -23q-8 0 -14.5 4.5t-14.5 18.5q-14 27 -30.5 62t-34 72.5t-34.5 77t-33 75.5q-37 85 -75 176q-41 -95 -80 -183q-17 -38 -35 -77t-35.5 -76.5t-33.5 -70t-29 -56.5
q-6 -13 -14.5 -17t-16.5 -4q-6 0 -12.5 5t-11.5 16q-35 86 -81.5 199t-100.5 244t-114.5 276.5t-121.5 296.5q-11 20 -9 23t19 3h318q9 0 12 -1t6 -7q10 -24 21.5 -54.5t24.5 -63.5t25.5 -67.5t24.5 -66.5q27 -76 56 -156l166 400q5 16 26 16q14 0 19 -4t8 -12l168 -400
q31 90 59 169q12 34 24.5 68.5t23.5 66t21 57.5t17 43q5 11 9 11.5t12 0.5h295q18 0 20 -2.5t-4 -17.5z" />
    <glyph glyph-name="x" unicode="x" horiz-adv-x="991" 
d="M1004 18q8 -12 7 -16t-18 -4h-327q-13 0 -19.5 7.5t-15.5 21.5q-8 12 -17.5 28.5t-20.5 35.5t-23 39t-23 40q-26 46 -55 96q-33 -56 -62 -105q-12 -21 -25 -42.5t-24 -41.5t-20.5 -37t-14.5 -28q-3 -8 -4.5 -11t-7.5 -3h-311q-14 0 -16.5 4t5.5 16q16 28 37 65t45 78
t50 84.5t50 84.5q57 96 119 200q-53 81 -107 165q-23 36 -48.5 76t-51.5 81.5t-51.5 83t-48.5 80.5q-8 14 -7 16t13 2h336q9 0 12.5 -1t8.5 -9q15 -23 38.5 -59.5t46.5 -71.5q26 -41 54 -86q25 46 48 87q20 35 39 71.5t30 58.5q3 8 6 9t12 1h313q14 0 14.5 -3t-7.5 -15
q-20 -35 -42.5 -74t-46.5 -79.5t-47.5 -80.5t-45.5 -76q-51 -85 -103 -171q57 -88 115 -179q25 -39 52 -81.5t54.5 -86.5t54 -87.5t50.5 -82.5z" />
    <glyph glyph-name="y" unicode="y" horiz-adv-x="1065" 
d="M1065 1006q-36 -102 -76.5 -212.5t-84 -226t-88 -232.5t-89 -231.5t-87.5 -223t-83 -206.5q-3 -8 -6.5 -11t-15.5 -3h-297q-17 0 -21 4t2 21q8 23 20 53.5t25.5 64.5t27.5 69.5t28 68.5q32 78 67 163q-76 176 -147 343q-30 71 -63 147t-64.5 149.5t-60.5 141t-52 121.5
q-9 21 -1.5 24.5t21.5 3.5h322q15 0 18.5 -5t8.5 -17q7 -20 19.5 -52t27.5 -71t32 -82t33 -85q38 -99 82 -210q33 111 62 209q12 42 25 84.5t24 81.5t21 71.5t16 53.5q3 11 10 16.5t22 5.5h308q9 0 14 -8t0 -20z" />
    <glyph glyph-name="z" unicode="z" horiz-adv-x="934" 
d="M924 999q-26 -43 -58 -97t-67.5 -113.5t-72.5 -121t-71 -119.5q-81 -136 -166 -280q75 1 146 3q30 0 62.5 0.5t64 1t60.5 1t52 0.5q20 0 24.5 -4t4.5 -18v-234q0 -11 -4.5 -14.5t-24.5 -3.5h-856q-18 0 -21.5 8t5.5 25q33 60 68.5 124.5t71 128.5t70 126t65.5 117
q72 129 143 253q-67 -1 -129 -3q-54 -2 -109.5 -3t-93.5 -2q-15 0 -21 4t-6 15v221q0 20 19 20h831q13 0 19.5 -6t-6.5 -29z" />
    <glyph glyph-name="braceleft" unicode="{" horiz-adv-x="760" 
d="M735 -279q0 -15 -5.5 -18.5t-22.5 -3.5h-191q-92 0 -155 22.5t-102.5 63.5t-57 98t-17.5 125v242q0 37 -7 61t-23 38t-40.5 20.5t-58.5 9.5q-9 2 -17.5 7.5t-8.5 14.5v275q0 8 6 14t18 8q70 10 100.5 47t30.5 115v219q0 69 27 126t72.5 98t105.5 63.5t127 22.5h191
q18 0 23 -7t5 -16v-176q0 -17 -7 -21t-21 -4h-35q-47 0 -79 -18.5t-52 -46t-28.5 -60.5t-8.5 -61v-219q0 -48 -5.5 -87t-24 -68t-53.5 -46t-93 -20q58 -4 93 -23t53.5 -50t24 -71t5.5 -86v-200q0 -102 38.5 -145.5t129.5 -43.5h35q18 0 23 -3.5t5 -20.5v-175z" />
    <glyph glyph-name="bar" unicode="|" horiz-adv-x="848" 
d="M569 -373q0 -24 -22 -24h-244q-12 0 -16 7.5t-4 18.5v1821q0 25 4 32t28 7h224h16t9 -3.5t4 -12t1 -25.5v-1821z" />
    <glyph glyph-name="braceright" unicode="}" horiz-adv-x="760" 
d="M731 406q0 -16 -7 -20.5t-24 -6.5q-33 -3 -56.5 -9.5t-39 -20.5t-22.5 -38t-7 -61v-242q0 -68 -18 -125t-57.5 -98t-102.5 -63.5t-153 -22.5h-191q-17 0 -22.5 3.5t-5.5 18.5v175q0 17 4 20.5t24 3.5h33q92 0 131 43.5t39 145.5v200q0 46 5 86t23 71t52.5 50t93.5 23
q-59 3 -93.5 20t-52.5 46t-23 68t-5 87v219q0 28 -8.5 61t-28.5 60.5t-52.5 46t-80.5 18.5h-33q-14 0 -21 4t-7 21v176q0 9 5 16t23 7h191q67 0 127 -22.5t105.5 -63.5t72 -98t26.5 -126v-219q0 -77 30 -114.5t100 -47.5q11 -2 18.5 -8t7.5 -18v-266z" />
    <glyph glyph-name="asciitilde" unicode="~" horiz-adv-x="1038" 
d="M952 1323q-1 -7 -9 -31t-23 -56t-37.5 -67.5t-53 -65t-69.5 -49.5t-86 -20q-32 0 -58 6.5t-47.5 17.5t-40 25t-36.5 29q-32 26 -64.5 46t-77.5 20q-37 0 -65.5 -10.5t-51.5 -22.5q-18 -11 -33.5 -20t-29.5 -15q-7 -3 -11.5 -5t-7.5 -1t-4.5 6t-1.5 16q0 15 10 43t27.5 60
t42.5 66t56 61t67.5 44.5t77.5 18.5q57 0 96 -19t70 -44q18 -14 34 -28t32.5 -25t33.5 -17.5t37 -5.5q35 0 68 10t59 23q29 14 49 26t29 17q18 6 20.5 -2.5t-2.5 -30.5z" />
    <glyph glyph-name="Euro" unicode="&#x20ac;" horiz-adv-x="1608" 
d="M557 752q-2 -16 -3 -32.5t-1 -33.5q0 -15 1 -29t1 -28h381q12 0 23.5 -7t11.5 -24v-109q0 -14 -6.5 -22t-28.5 -8h-322q50 -75 124.5 -110.5t156.5 -35.5q105 0 177.5 47t109.5 125q5 8 8.5 13t15.5 2l307 -84q16 -5 19 -11.5t0 -15.5q-35 -84 -94.5 -160.5t-141 -135
t-183.5 -93.5t-222 -35q-131 0 -242.5 37t-200 103t-152 156.5t-97.5 197.5h-162q-14 0 -24.5 7.5t-10.5 22.5v109q0 14 6.5 22.5t28.5 8.5h129q-2 14 -2 29v30v32t2 32h-129q-14 0 -24.5 7.5t-10.5 22.5v109q0 14 6.5 22.5t28.5 8.5h162q34 111 100 202.5t155 156.5
t197.5 100.5t229.5 35.5q127 0 229 -31.5t181 -85.5t135.5 -125t91.5 -149q8 -19 4 -26.5t-11 -10.5l-305 -119q-9 -3 -12 0t-6 11q-45 93 -119 139.5t-180 46.5q-91 0 -160 -38.5t-113 -106.5h320q12 0 23.5 -7t11.5 -24v-109q0 -14 -6.5 -22t-28.5 -8h-379z" />
    <glyph glyph-name="quotesinglbase" unicode="&#x201a;" horiz-adv-x="518" 
d="M475 340q0 -9 -1 -17.5t-3 -13.5q-43 -78 -78 -139.5t-68 -119.5t-65.5 -119t-71.5 -136q-3 -6 -19.5 -9t-39.5 -3q-25 0 -38 9.5t-13 19.5v532q0 16 4 18.5t10 2.5h375q5 0 6.5 -8t1.5 -17z" />
    <glyph glyph-name="florin" unicode="&#x192;" horiz-adv-x="1018" 
d="M915 571q0 -11 -7.5 -15.5t-18.5 -4.5h-213v-445q0 -224 -86.5 -328t-265.5 -104q-29 0 -60.5 4t-61 10.5t-55 13.5t-43.5 13q-9 3 -14.5 10t-3.5 21q1 11 5 43.5t8 69.5t7.5 68.5t4.5 39.5q2 20 9.5 25.5t29.5 -0.5q34 -9 61.5 -2.5t47 24t30 41.5t10.5 49v443h-174
q-27 0 -27 24v242q0 12 6.5 16.5t20.5 4.5h174v253q0 53 13.5 107t48.5 97.5t95.5 70.5t155.5 27h262q13 0 14 -4.5t1 -16.5v-246q0 -12 -1 -15t-14 -3h-198v-266h213q26 0 26 -25v-242z" />
    <glyph glyph-name="quotedblbase" unicode="&#x201e;" horiz-adv-x="997" 
d="M954 340q0 -9 -1 -17.5t-3 -13.5q-43 -78 -78 -139.5t-67.5 -119.5t-65.5 -119t-71 -136q-3 -6 -20 -9t-40 -3q-25 0 -38 9.5t-13 19.5v532q0 16 4 18.5t10 2.5h375q5 0 6.5 -8t1.5 -17zM475 340q0 -9 -1 -17.5t-3 -13.5q-43 -78 -78 -139.5t-68 -119.5t-65.5 -119
t-71.5 -136q-3 -6 -19.5 -9t-39.5 -3q-25 0 -38 9.5t-13 19.5v532q0 16 4 18.5t10 2.5h375q5 0 6.5 -8t1.5 -17z" />
    <glyph glyph-name="ellipsis" unicode="&#x2026;" horiz-adv-x="1860" 
d="M1731 45q0 -25 -6.5 -35t-30.5 -10h-289q-20 0 -28.5 9t-8.5 32v287q0 29 11 40t30 11h289q20 0 26.5 -6.5t6.5 -26.5v-301zM1108 45q0 -25 -6 -35t-31 -10h-289q-20 0 -28.5 9t-8.5 32v287q0 29 11.5 40t29.5 11h289q20 0 26.5 -6.5t6.5 -26.5v-301zM489 45
q0 -25 -6 -35t-30 -10h-289q-20 0 -28.5 9t-8.5 32v287q0 29 11 40t30 11h289q20 0 26 -6.5t6 -26.5v-301z" />
    <glyph glyph-name="dagger" unicode="&#x2020;" horiz-adv-x="1120" 
d="M1085 758q0 -13 -5 -20t-25 -5q-42 1 -91.5 2.5t-95 3t-83 2t-56.5 0.5q0 -26 -1 -74.5t-2.5 -113t-3.5 -140t-4 -156t-4 -161.5t-3.5 -155t-2.5 -138.5t-1 -111.5q0 -19 -4 -24t-21 -5h-242q-17 0 -19.5 3.5t-2.5 25.5q0 37 -1 96.5t-2.5 133t-3.5 156.5t-4.5 167
t-4.5 164t-3.5 147.5t-2.5 118t-1 74.5q-35 -1 -80 -3l-90 -4t-86.5 -4.5t-70.5 -3.5q-19 -2 -24 3t-5 22v254q0 17 5 19.5t24 2.5q78 -3 162 -4.5t165 -1.5q2 43 4.5 95.5t5 103.5t4 94t1.5 68q0 18 3.5 23t20.5 5h256q13 0 19 -4t6 -24q0 -23 1.5 -67t4 -96t5.5 -106
t7 -96q78 0 157.5 2.5t164.5 7.5q17 2 23.5 -1.5t6.5 -20.5v-254z" />
    <glyph glyph-name="daggerdbl" unicode="&#x2021;" horiz-adv-x="1139" 
d="M1055 172q0 -25 -27 -25q-74 0 -155 4.5t-158 4.5q-3 -44 -5 -96.5t-3 -103t-1.5 -93.5t-0.5 -68q0 -15 -4 -23t-19 -8h-238q-12 0 -17 5t-5 26q0 23 -1 67t-2.5 96t-4 106t-6.5 96q-75 -2 -147.5 -7.5t-154.5 -5.5q-26 0 -26 25v242q0 12 4.5 17t21.5 5q41 0 94 -1
t101 -2q55 -2 113 -3v324q-67 -3 -127 -6q-26 -1 -52.5 -2.5t-51 -2.5t-45 -2t-34.5 -2q-17 -2 -20.5 3t-3.5 22v242q0 12 4.5 17t19.5 5q76 0 152.5 -3t155.5 -3q2 43 4 95.5t3.5 103t2 94t0.5 67.5q0 13 2.5 21t19.5 8h238q23 0 23 -29q0 -23 0.5 -67t2 -96t4 -105.5
t7.5 -95.5q72 0 149 5t158 5q16 0 22.5 -2.5t6.5 -19.5v-242q0 -12 -4.5 -19.5t-24.5 -5.5q-41 2 -95 4.5t-103 4.5q-57 3 -117 6v-324q69 1 131 2q26 0 53.5 0.5t52 1.5t45.5 1.5t35 0.5q19 2 23 -2.5t4 -19.5v-242z" />
    <glyph glyph-name="circumflex" unicode="&#x2c6;" 
d="M868 1135q0 -9 -20 -9h-201q-6 0 -14.5 2t-16.5 9q-14 8 -31.5 23.5t-33.5 31.5q-18 18 -37 39q-17 -21 -35 -39q-15 -16 -33 -31.5t-32 -23.5q-5 -5 -12 -8t-15 -3h-211q-14 0 -14 9q0 2 4 5.5t10 8.5q6 6 31 30.5t59 57.5t73 70.5t73 69.5t58 55t28 26q6 5 9 8.5t9 3.5
t10 -4t11 -10q5 -4 28.5 -26t57 -53.5t71 -68t71 -69t57.5 -56.5l30 -30t11 -10.5t5 -7.5z" />
    <glyph glyph-name="perthousand" unicode="&#x2030;" horiz-adv-x="2572" 
d="M821 1018q0 -78 -28 -146t-78 -118t-121 -78.5t-156 -28.5t-157 28.5t-124 78.5t-81 118t-29 146t29 146t80.5 118t123 78.5t156.5 28.5q86 0 157 -28.5t121.5 -78.5t78.5 -118t28 -146zM1470 1333q-75 -87 -160 -189.5t-173 -211.5t-176.5 -219.5t-169.5 -213.5
t-152 -195t-124.5 -163t-86 -116.5t-37.5 -57.5q-14 1 -38 13t-47 28t-40 33t-16 27q72 82 155 180.5t170 204t175 213.5t169.5 210t153 193t126 162t89 117t41.5 59q34 -16 69 -35t72 -39zM2501 356q0 -78 -28 -146t-78.5 -117.5t-121 -78t-155.5 -28.5q-86 0 -157.5 28
t-124 77.5t-81.5 117.5t-29 147q0 78 29 145.5t80.5 117.5t123 79t157.5 29t157 -29t121.5 -79t78.5 -117.5t28 -145.5zM1640 356q0 -78 -28 -146t-78 -117.5t-121 -78t-156 -28.5t-157 28t-124 77.5t-81 117.5t-29 147q0 78 29 145.5t80.5 117.5t123 79t156.5 29
q86 0 157 -29t121.5 -79t78.5 -117.5t28 -145.5zM575 1018q0 28 -10.5 53.5t-29.5 45.5t-45.5 32t-57.5 12q-32 0 -58 -12t-45 -32t-29.5 -45.5t-10.5 -53.5t10 -53.5t28.5 -45t45 -31t59.5 -11.5q31 0 57.5 11.5t45.5 31t29.5 45t10.5 53.5zM2255 352q0 28 -10.5 54t-30 46
t-46 32t-57.5 12t-57.5 -12t-45.5 -32t-29.5 -46t-10.5 -54q0 -27 10 -52.5t28.5 -45t45 -31.5t59.5 -12q31 0 57.5 12t46 31.5t30 45t10.5 52.5zM1395 352q0 28 -10.5 54t-30 46t-46 32t-57.5 12q-32 0 -58 -12t-45 -32t-29.5 -46t-10.5 -54q0 -27 10 -52.5t28.5 -45
t45 -31.5t59.5 -12q31 0 57.5 12t46 31.5t30 45t10.5 52.5z" />
    <glyph glyph-name="Scaron" unicode="&#x160;" horiz-adv-x="1247" 
d="M1178 420q0 -119 -45.5 -204.5t-124.5 -141.5t-185 -82.5t-227 -26.5q-209 0 -339.5 81.5t-182.5 232.5q-6 17 -4.5 25t12.5 13l252 103q14 6 16.5 4t5.5 -14q9 -29 31 -58.5t54 -53.5t73.5 -39t89.5 -15q106 0 156.5 33t50.5 104q0 31 -12 57t-41 46t-76.5 34t-118.5 23
q-11 2 -24.5 3t-24.5 3q-93 9 -170.5 39.5t-133 83t-86 126.5t-30.5 169q0 100 34 183t102.5 143t170.5 93t238 33q102 0 184.5 -23t144.5 -63t103.5 -95.5t61.5 -119.5q5 -17 -0.5 -24.5t-14.5 -10.5l-239 -96q-11 -5 -16.5 -2.5t-8.5 10.5q-11 31 -33 60t-52.5 51.5
t-67 36.5t-76.5 14q-54 0 -90.5 -9.5t-58 -26.5t-31 -41t-9.5 -52q0 -35 14.5 -61t46 -45t81 -32.5t118.5 -25.5q14 -2 31 -4.5t37 -5.5q98 -14 175 -47t130 -86.5t81 -128t28 -170.5zM962 1782q0 -5 -14 -15q-6 -6 -30.5 -30t-59 -57.5t-73.5 -71t-72.5 -69.5t-57.5 -55
t-28 -26q-7 -5 -10 -8.5t-9 -3.5t-10 4l-10 10q-5 3 -29 25.5t-57 54t-71 68t-71.5 69t-57.5 56.5l-30 30t-11 10.5t-5 8.5q0 8 20 8h201q6 0 14.5 -2t16.5 -9q14 -8 32 -23.5t34 -31.5q18 -18 36 -39q18 21 36 39q15 16 32.5 31.5t32.5 23.5q9 11 26 11h211q14 0 14 -8z
" />
    <glyph glyph-name="guilsinglleft" unicode="&#x2039;" horiz-adv-x="664" 
d="M557 16q0 -20 -14 -20q-5 0 -9.5 2t-9.5 8q-50 52 -113.5 118t-128 133t-124 129t-101.5 106q-3 3 -3.5 11.5t-0.5 16.5q0 6 0.5 16t3.5 13q40 41 99.5 102.5t124.5 129.5t129 135t114 120q8 11 19 11q6 0 10 -6t4 -15v-340q0 -18 -4 -28.5t-12 -18.5l-146 -117l146 -121
q8 -6 12 -16t4 -27v-342z" />
    <glyph glyph-name="OE" unicode="&#x152;" horiz-adv-x="1769" 
d="M1649 29q0 -19 -4 -24t-21 -5h-573q-44 0 -79.5 -1.5t-68 -3t-63 -2.5t-64.5 -1q-157 0 -285 47t-219 136.5t-140.5 219.5t-49.5 297q0 118 27 216t74.5 176.5t112.5 136.5t141.5 97t161.5 58t171 19q93 0 160 -3t121 -3h559q14 0 17 -4.5t3 -22.5v-248q0 -17 -3 -23
t-17 -6l-469 5v-232h452q17 0 21 -5t4 -24v-249q0 -19 -4 -24t-21 -5h-452v-238l483 4q19 0 22 -3t3 -23v-262zM788 309v764q-74 -9 -134 -38.5t-102 -78.5t-64.5 -115.5t-22.5 -150.5q0 -88 26.5 -157.5t70.5 -118t102.5 -75.5t123.5 -30z" />
    <glyph glyph-name="quoteleft" unicode="&#x2bb;" horiz-adv-x="518" 
d="M440 836q0 -10 -13 -19.5t-38 -9.5q-23 0 -39.5 3t-19.5 9q-39 75 -71.5 136t-65.5 119t-68 119.5t-78 139.5q-2 5 -3 13.5t-1 17.5t1.5 17t6.5 8h375q6 0 10 -2.5t4 -18.5v-532z" />
    <glyph glyph-name="quoteleft" unicode="&#x2018;" horiz-adv-x="518" 
d="M440 836q0 -10 -13 -19.5t-38 -9.5q-23 0 -39.5 3t-19.5 9q-39 75 -71.5 136t-65.5 119t-68 119.5t-78 139.5q-2 5 -3 13.5t-1 17.5t1.5 17t6.5 8h375q6 0 10 -2.5t4 -18.5v-532z" />
    <glyph glyph-name="quoteright" unicode="&#x2019;" horiz-adv-x="518" 
d="M475 1364q0 -9 -1 -17.5t-3 -13.5q-43 -78 -78 -139.5t-68 -119.5t-65.5 -119t-71.5 -136q-3 -6 -19.5 -9t-39.5 -3q-25 0 -38 9.5t-13 19.5v532q0 16 4 18.5t10 2.5h375q5 0 6.5 -8t1.5 -17z" />
    <glyph glyph-name="quotedblleft" unicode="&#x201c;" horiz-adv-x="997" 
d="M920 836q0 -10 -13.5 -19.5t-38.5 -9.5q-23 0 -39.5 3t-19.5 9q-38 75 -71 136t-65.5 119t-68 119.5t-78.5 139.5q-2 5 -3 13.5t-1 17.5t1.5 17t6.5 8h375q6 0 10.5 -2.5t4.5 -18.5v-532zM440 836q0 -10 -13 -19.5t-38 -9.5q-23 0 -39.5 3t-19.5 9q-39 75 -71.5 136
t-65.5 119t-68 119.5t-78 139.5q-2 5 -3 13.5t-1 17.5t1.5 17t6.5 8h375q6 0 10 -2.5t4 -18.5v-532z" />
    <glyph glyph-name="quotedblright" unicode="&#x201d;" horiz-adv-x="999" 
d="M954 1364q0 -9 -1 -17.5t-3 -13.5q-43 -78 -78 -139.5t-67.5 -119.5t-65.5 -119t-71 -136q-3 -6 -20 -9t-40 -3q-25 0 -38 9.5t-13 19.5v532q0 16 4 18.5t10 2.5h375q5 0 6.5 -8t1.5 -17zM475 1364q0 -9 -1 -17.5t-3 -13.5q-43 -78 -78 -139.5t-68 -119.5t-65.5 -119
t-71.5 -136q-3 -6 -19.5 -9t-39.5 -3q-25 0 -38 9.5t-13 19.5v532q0 16 4 18.5t10 2.5h375q5 0 6.5 -8t1.5 -17z" />
    <glyph glyph-name="bullet" unicode="&#x2022;" horiz-adv-x="1311" 
d="M1257 586q0 -125 -47.5 -234.5t-130 -192t-193 -130t-235.5 -47.5t-235 47.5t-192 130t-129.5 192t-47.5 234.5q0 83 21.5 160.5t61 145t94.5 123t122 95t144.5 61t160.5 21.5q125 0 235.5 -47.5t193 -130t130 -193t47.5 -235.5z" />
    <glyph glyph-name="endash" unicode="&#x2013;" horiz-adv-x="885" 
d="M885 502q0 -13 -3 -19t-26 -6h-831q-17 0 -22 4t-5 21v227q0 19 5.5 22t21.5 3h831q22 0 25.5 -4t3.5 -21v-227z" />
    <glyph glyph-name="emdash" unicode="&#x2014;" horiz-adv-x="1769" 
d="M1769 502q0 -13 -4 -19t-24 -6h-1716q-17 0 -22 4t-5 21v227q0 19 3.5 22t23.5 3h1716q20 0 24 -4t4 -21v-227z" />
    <glyph glyph-name="tilde" unicode="&#x2dc;" 
d="M877 1356q-1 -5 -8.5 -24.5t-22 -45t-35 -54t-47.5 -53t-61 -40t-74 -15.5q-50 0 -83 14t-59 31q-14 9 -28 17.5t-29.5 16t-33 12t-38.5 4.5q-34 0 -58 -12.5t-46 -30.5q-11 -11 -22 -23t-23 -23q-9 -6 -23 -0.5t-14 21.5q1 63 21.5 112.5t54.5 83.5t78.5 52t95.5 18
q46 0 79.5 -13t59.5 -30q32 -21 59 -40t62 -19q31 0 54.5 5.5t41.5 14.5q19 11 33.5 22.5t30.5 22.5q4 4 11 3.5t12.5 -4.5t9 -10t2.5 -13z" />
    <glyph glyph-name="trademark" unicode="&#x2122;" horiz-adv-x="1462" 
d="M1380 721q0 -9 -1 -18t-7 -9h-194q-7 0 -9 2.5t-2 12.5l-8 245q-22 -20 -43 -40q-18 -17 -39.5 -37t-38.5 -37q-6 -6 -16 -6t-16 6q-16 15 -36.5 35t-39.5 37q-22 20 -45 42l-8 -245q0 -10 -2.5 -12.5t-8.5 -2.5h-194q-6 0 -7 9t-1 18q1 81 4 167t6.5 172.5t6.5 170
t3 160.5q0 9 5.5 10t8.5 -2q42 -32 91.5 -73t95.5 -81.5t83 -74.5t54 -50q18 16 55.5 50t83 74.5t94.5 81.5t91 73q3 2 8.5 1.5t5.5 -9.5q0 -77 3 -160.5t6.5 -170t6.5 -172.5t4 -167zM629 1190q0 -8 -8 -8l-164 8q1 -115 3 -213q0 -42 0.5 -84t1 -79t1 -65.5t0.5 -43.5
q0 -11 -10 -11h-240q-6 0 -7 0.5t-1 10.5v56.5t0.5 71.5t1 79.5t1.5 81.5q1 93 3 196l-170 -8q-8 0 -8 8v190q0 9 10 9h575q11 0 11 -9v-190z" />
    <glyph glyph-name="scaron" unicode="&#x161;" horiz-adv-x="1040" 
d="M981 344q0 -86 -31.5 -156t-92 -120t-148 -77.5t-199.5 -27.5q-98 0 -171 17t-126.5 48.5t-90 75.5t-61.5 99q-3 11 -2 19t9 11l223 86q6 2 11 -0.5t7 -7.5q9 -23 25 -43t38 -35t48 -23.5t55 -8.5q69 0 101 24t32 58q0 21 -9 37t-32 30.5t-61.5 27.5t-97.5 28
q-73 18 -134 42t-104.5 61t-67.5 90t-24 130q0 81 32 143.5t91.5 105t145 65t192.5 22.5q171 0 271.5 -59.5t131.5 -161.5q2 -10 0.5 -18t-10.5 -11l-227 -80q-10 -5 -13.5 -4t-9.5 10q-26 42 -65.5 67.5t-90.5 25.5q-60 0 -87 -19t-27 -53q0 -15 10 -27t35.5 -23t68.5 -22
t109 -24q77 -15 140.5 -40.5t109.5 -63.5t71 -92t25 -126zM868 1434q0 -5 -14 -15q-6 -6 -30.5 -30t-59 -57.5t-73.5 -71t-72.5 -69.5t-57.5 -55t-28 -26q-7 -5 -10 -8.5t-9 -3.5t-10 4l-10 10q-5 3 -29 25.5t-57 54t-71 68t-71.5 69t-57.5 56.5l-30 30t-11 10.5t-5 8.5
q0 8 20 8h201q6 0 14.5 -2t16.5 -9q14 -8 32 -23.5t34 -31.5q18 -18 36 -39q18 21 36 39q15 16 32.5 31.5t32.5 23.5q9 11 26 11h211q14 0 14 -8z" />
    <glyph glyph-name="guilsinglright" unicode="&#x203a;" horiz-adv-x="664" 
d="M612 520q0 -6 -0.5 -15.5t-3.5 -12.5q-40 -42 -99 -103.5t-124.5 -129.5t-129.5 -135t-114 -120q-8 -10 -18 -10q-14 0 -14 20v340q0 19 4 29t12 18l145 117l-145 121q-8 6 -12 16t-4 27v342q0 20 14 20q10 0 18 -10q50 -52 113.5 -118t128 -133t124 -128.5t101.5 -105.5
q3 -3 3.5 -12t0.5 -17z" />
    <glyph glyph-name="oe" unicode="&#x153;" horiz-adv-x="1849" 
d="M1808 594q0 -54 -3 -84t-9 -55q-3 -16 -10.5 -20.5t-30.5 -4.5h-612q1 -42 16.5 -75t43.5 -56.5t66 -36t83 -12.5q36 0 66 10t54.5 25.5t43.5 33.5t32 33q5 6 13 3.5t16 -13.5q16 -22 34.5 -48t37 -53t36.5 -53.5t33 -50.5q10 -14 6 -25t-16 -22q-24 -21 -61.5 -42.5
t-84.5 -39t-102 -28.5t-114 -11q-97 0 -192 28t-175 99q-41 -37 -88 -62t-96 -40.5t-97 -22t-90 -6.5q-118 0 -218.5 39.5t-173.5 112t-114 173.5t-41 224q0 117 40 218t112 175t172.5 116t222.5 42q69 0 124 -12t99.5 -32t80 -46t67.5 -53q29 29 63 54.5t77.5 44t99 29.5
t127.5 11q94 0 178 -32.5t147 -93t100 -147t37 -194.5zM815 514q0 51 -16 91.5t-44 69.5t-65.5 44.5t-79.5 15.5q-43 0 -81 -16t-66.5 -45.5t-45 -70t-16.5 -89.5q0 -48 17 -89.5t46 -71.5t67 -47t81 -17q42 0 79 16.5t64.5 46t43.5 71t16 91.5zM1489 610q-6 82 -51 128
t-123 46q-42 0 -73 -15t-51.5 -39.5t-32 -56t-15.5 -63.5h346z" />
    <glyph glyph-name="Ydieresis" unicode="&#x178;" horiz-adv-x="1319" 
d="M1311 1337q-34 -75 -71 -153t-74 -155t-73.5 -150.5t-69.5 -138.5q-77 -153 -153 -298v-413q0 -20 -2.5 -24.5t-19.5 -4.5h-340q-9 0 -11.5 4.5t-2.5 24.5v403q-85 154 -172 315q-37 69 -78 145.5t-83 156t-83 159t-78 154.5q-11 20 -8.5 23.5t20.5 3.5h346
q25 0 34.5 -7.5t19.5 -25.5q16 -32 36 -74.5t41.5 -90.5t44.5 -98t44 -98q50 -112 104 -233q54 120 103 231q21 47 43 97t42 97.5t38 90t30 74.5q9 23 16.5 30t26.5 7h301q32 0 38 -9t-9 -43zM1106 1479q0 -11 -4 -13.5t-11 -2.5h-323q-8 0 -11.5 7t-3.5 15v199q0 6 2 12
t13 6h321q8 0 12.5 -2t4.5 -16v-205zM610 1479q0 -11 -3.5 -13.5t-12.5 -2.5h-320q-8 0 -10 7t-2 15v199q0 6 1 12t9 6h322q9 0 12.5 -2t3.5 -16v-205z" />
    <glyph glyph-name="exclamdown" unicode="&#xa1;" horiz-adv-x="688" 
d="M524 1053q0 -25 -20 -25h-309q-11 0 -16 4.5t-5 20.5v313q0 11 6.5 17t14.5 6h309q9 0 14.5 -4.5t5.5 -18.5v-313zM532 10q0 -8 -4 -14t-12 -6q-38 -1 -65.5 -1.5t-50.5 -1t-43 -0.5t-43.5 0.5t-51.5 1t-67 1.5q-10 0 -12.5 5t-2.5 19q-4 83 -6 154t-2.5 140.5t0 145
t2.5 167.5q0 3 5.5 21.5t15 46t20.5 60.5t22.5 65.5t21 61l15.5 46.5q4 9 9 14.5t16 5.5h102q11 0 19.5 -3t13.5 -17q6 -18 16 -46t20.5 -60t21.5 -65l20 -60t14.5 -46.5t5.5 -23.5q3 -92 5 -167.5t2 -145.5t-2 -141.5t-5 -156.5z" />
    <glyph glyph-name="cent" unicode="&#xa2;" horiz-adv-x="1087" 
d="M969 678q-25 -68 -61 -119.5t-86 -86.5t-114 -53t-145 -18q-38 0 -77 7t-68 18l-66 -121l-129 78l66 115q-41 29 -75.5 67t-60 85t-39.5 103t-14 121q0 103 37.5 191.5t101.5 153t148.5 101t179.5 36.5q51 0 90.5 -9t81.5 -26l64 115l127 -76l-64 -119q32 -32 56.5 -71.5
t40.5 -92.5q6 -20 -11 -26l-211 -97q-13 -7 -20 9q-22 42 -62 63t-88 21q-38 0 -68.5 -15t-51.5 -39.5t-32 -56.5t-11 -66q0 -27 12.5 -55.5t35 -51.5t53.5 -37.5t69 -14.5q48 0 86 24t55 58q6 14 24 8l213 -94q10 -4 13 -12t0 -17z" />
    <glyph glyph-name="sterling" unicode="&#xa3;" horiz-adv-x="1227" 
d="M1190 1055q5 -16 4 -22.5t-10 -14.5q-23 -15 -58 -37.5t-72 -45.5t-70.5 -44t-53.5 -33q-8 -5 -14.5 -0.5t-6.5 16.5q-6 127 -63 191.5t-166 64.5q-50 0 -86 -16t-59.5 -44t-34.5 -65t-11 -79q0 -28 6 -61t9 -64q37 0 75 -1t70 -2t56 -2t34 -1q1 -57 2 -101v-37t-0.5 -32
t-1.5 -22.5t-2 -8.5h-186q17 -23 29 -60t19.5 -76.5t9.5 -78t-1 -64.5q24 0 66 -2.5t92.5 -7t106.5 -10.5t107.5 -12.5t95.5 -13.5t71 -13q2 -1 0 -13t-7.5 -31t-12.5 -43t-15 -48q-8 -23 -15 -45t-13.5 -39t-11.5 -27t-7 -10q-215 -3 -454 -5.5t-511 5.5q-24 0 -29 5t-5 24
v237q0 11 3.5 14.5t20.5 8.5q25 7 59.5 11t70.5 7t68.5 4.5t53.5 3.5q9 25 5 63.5t-17.5 79t-35 77.5t-46.5 59h-180q-14 0 -16.5 3.5t-2.5 12.5v191q0 8 2.5 10t11.5 2h95q-11 18 -19.5 42.5t-14.5 52t-9.5 57t-3.5 57.5q0 93 37.5 168.5t106 129.5t164.5 83t214 29
q103 0 192 -25t160.5 -73t123.5 -118.5t81 -160.5z" />
    <glyph glyph-name="yen" unicode="&#xa5;" horiz-adv-x="1319" 
d="M1311 1337q-14 -30 -31 -67t-36 -76.5t-39 -80.5t-38 -79q-44 -90 -90 -184h166q13 0 24 -7t11 -24v-133q0 -14 -6.5 -22.5t-28.5 -8.5h-264l-27 -54l-22.5 -45t-18.5 -36h332q13 0 24 -7t11 -24v-133q0 -14 -6.5 -22t-28.5 -8h-373v-297q0 -20 -2.5 -24.5t-19.5 -4.5
h-340q-9 0 -11.5 4.5t-2.5 24.5v297h-416q-14 0 -24.5 7.5t-10.5 22.5v133q0 14 6.5 22.5t28.5 8.5h366l-73 135h-293q-14 0 -24.5 8t-10.5 23v133q0 14 6.5 22.5t28.5 8.5h186q-52 99 -101 194q-21 40 -43.5 83t-44 85t-41 80.5t-34.5 69.5q-11 20 -8.5 23.5t20.5 3.5h346
q25 0 34.5 -7.5t19.5 -25.5q11 -23 28.5 -60.5t38.5 -83t44 -96.5t46 -100q53 -116 113 -250q58 133 108 248q21 49 43 99.5t42 96t36.5 82.5t26.5 60q5 11 9 18.5t8.5 11.5t10.5 5.5t15 1.5h301q32 0 38 -9t-9 -43z" />
    <glyph glyph-name="section" unicode="&#xa7;" horiz-adv-x="1040" 
d="M993 682q0 -49 -16 -92.5t-38.5 -79.5t-48 -64t-44.5 -47q31 -18 56.5 -41.5t44.5 -55t29.5 -71t10.5 -88.5q0 -84 -40.5 -152.5t-109 -117t-159 -74.5t-189.5 -26q-84 0 -152 16.5t-121.5 47.5t-94 75t-68.5 98q-6 11 -6 17.5t12 11.5l242 90q11 5 13 2.5t5 -10.5
q19 -48 59 -79.5t97 -31.5q53 0 85 22t32 56q0 38 -35 61.5t-111 32.5q-8 2 -20 3t-23 3q-71 8 -134.5 32t-111 64.5t-75.5 97t-29 128.5q0 40 9 81t27 79t45 70.5t63 56.5q-35 13 -61 40q-23 23 -41.5 63.5t-18.5 103.5q0 90 33.5 164t95 126t148.5 80.5t194 28.5
q84 0 152.5 -16.5t120 -46t85.5 -71t49 -91.5q5 -16 4 -19t-12 -8l-241 -86q-11 -5 -15 -4t-10 12q-22 42 -60 69t-88 27q-61 0 -85.5 -20t-24.5 -49q0 -16 7 -29.5t25.5 -25t52 -21t87.5 -16.5q15 -2 29.5 -4.5t29.5 -4.5q77 -11 139.5 -33.5t107 -60t69 -92.5t24.5 -131z
M670 455q22 32 26 69.5t-9.5 72t-44.5 61.5t-79 38q-69 17 -120 29t-95 20q-13 -38 -15 -77t13.5 -73.5t51.5 -61.5t98 -41q52 -13 97.5 -23.5t76.5 -13.5z" />
    <glyph glyph-name="dieresis" unicode="&#xa8;" 
d="M928 1194q0 -11 -4 -13.5t-11 -2.5h-323q-8 0 -11.5 7t-3.5 15v199q0 6 2 12t13 6h321q8 0 12.5 -2t4.5 -16v-205zM432 1194q0 -11 -3.5 -13.5t-12.5 -2.5h-320q-8 0 -10 7t-2 15v199q0 6 1 12t9 6h322q9 0 12.5 -2t3.5 -16v-205z" />
    <glyph glyph-name="copyright" unicode="&#xa9;" horiz-adv-x="1645" 
d="M1585 627q0 -111 -27.5 -213.5t-77 -191.5t-119 -162t-154 -125t-182 -80.5t-202.5 -28.5q-106 0 -203.5 28.5t-182.5 80.5t-154.5 125t-119 162t-77 191.5t-27.5 213.5t27.5 214t77 192t119 163t154.5 126t183 81t203 29t202.5 -29t182 -81t154 -126t119 -163t77 -192
t27.5 -214zM1456 627q0 93 -22.5 180.5t-64 163.5t-99.5 138.5t-128.5 107.5t-151 69.5t-167.5 24.5q-88 0 -169 -24.5t-151.5 -69.5t-128.5 -107.5t-99.5 -138.5t-64 -163t-22.5 -181t22.5 -181t64 -162.5t99.5 -138t128.5 -107t152 -69t168.5 -24.5t167.5 24.5t151 69
t128.5 107t99.5 138t64 162.5t22.5 181zM1264 455q-23 -64 -63.5 -119t-96 -96t-123.5 -64.5t-145 -23.5q-102 0 -191.5 33t-156 94.5t-104.5 150.5t-38 201q0 100 36 187.5t100 152.5t153 102t196 37q76 0 143 -21.5t122 -59.5t95.5 -89.5t63.5 -110.5q5 -12 2 -16.5
t-8 -7.5l-235 -88q-8 -2 -9.5 0t-3.5 8q-27 53 -70.5 77.5t-105.5 24.5q-41 0 -77 -16t-62.5 -43t-41.5 -63t-15 -76q0 -39 13.5 -75t39.5 -63.5t64 -44t88 -16.5q60 0 101.5 31t61.5 78q3 6 6.5 8t12.5 0l235 -74q19 -3 13 -18z" />
    <glyph glyph-name="ordfeminine" unicode="&#xaa;" horiz-adv-x="1147" 
d="M1014 633q0 -16 -2 -18.5t-13 -2.5h-202q-14 0 -18.5 3t-10.5 10l-55 51q-35 -35 -92.5 -60.5t-145.5 -25.5q-84 0 -156 27.5t-125 80.5t-83.5 129t-30.5 174q0 92 30 167.5t82 129.5t123 83.5t152 29.5q72 0 130.5 -19t100.5 -69v47q0 12 3.5 15.5t11.5 3.5h288
q10 0 11.5 -3.5t1.5 -15.5v-737zM1022 340q0 -14 -5.5 -22.5t-31.5 -8.5h-821q-13 0 -24 5.5t-11 25.5v160q0 12 5 20t30 8h821q14 0 25.5 -5t11.5 -23v-160zM672 995q0 56 -33.5 89.5t-93.5 33.5q-59 0 -94 -33t-35 -90q0 -58 35 -90.5t94 -32.5q60 0 93.5 32.5t33.5 90.5z
" />
    <glyph glyph-name="guillemotleft" unicode="&#xab;" horiz-adv-x="1202" 
d="M1098 16q0 -20 -15 -20q-5 0 -9 2t-9 8q-50 52 -113.5 118t-128 133t-124 129t-101.5 106q-3 3 -3.5 11.5t-0.5 16.5q0 6 0.5 16t3.5 13q40 41 99.5 102.5t124.5 129.5t129 135t114 120q8 11 18 11q7 0 11 -6t4 -15v-340q0 -18 -4.5 -28.5t-12.5 -18.5l-145 -117
l145 -121q8 -6 12.5 -16t4.5 -27v-342zM557 16q0 -20 -14 -20q-5 0 -9.5 2t-9.5 8q-50 52 -113.5 118t-128 133t-124 129t-101.5 106q-3 3 -3.5 11.5t-0.5 16.5q0 6 0.5 16t3.5 13q40 41 99.5 102.5t124.5 129.5t129 135t114 120q8 11 19 11q6 0 10 -6t4 -15v-340
q0 -18 -4 -28.5t-12 -18.5l-146 -117l146 -121q8 -6 12 -16t4 -27v-342z" />
    <glyph glyph-name="registered" unicode="&#xae;" horiz-adv-x="1645" 
d="M1585 627q0 -111 -27.5 -213.5t-77 -191.5t-119 -162t-154 -125t-182 -80.5t-202.5 -28.5q-106 0 -203.5 28.5t-182.5 80.5t-154.5 125t-119 162t-77 191.5t-27.5 213.5t27.5 214t77 192t119 163t154.5 126t183 81t203 29t202.5 -29t182 -81t154 -126t119 -163t77 -192
t27.5 -214zM1456 627q0 93 -22.5 180.5t-64 163.5t-99.5 138.5t-128.5 107.5t-151 69.5t-167.5 24.5q-88 0 -169 -24.5t-151.5 -69.5t-128.5 -107.5t-99.5 -138.5t-64 -163t-22.5 -181t22.5 -181t64 -162.5t99.5 -138t128.5 -107t152 -69t168.5 -24.5t167.5 24.5t151 69
t128.5 107t99.5 138t64 162.5t22.5 181zM1245 264q31 -49 -31 -49h-241q-8 0 -13 5t-14 22q-18 31 -39 68t-40 70q-22 38 -44 77l-100 -6v-222q0 -11 -2 -12.5t-10 -1.5h-246q-8 0 -9 1.5t-1 12.5v818q0 9 2.5 10.5t7.5 1.5h424q77 0 133 -23t92.5 -62.5t54 -91t17.5 -108.5
q0 -87 -30.5 -143.5t-86.5 -81.5q13 -19 32 -49.5t41.5 -68t48.5 -80.5t54 -87zM907 754q0 54 -31 82t-88 28h-65v-217h65q51 0 85 26.5t34 80.5z" />
    <glyph glyph-name="macron" unicode="&#xaf;" 
d="M848 1165q0 -12 -6 -18t-23 -6h-608q-19 0 -24 3.5t-5 20.5v142q0 11 5 17.5t24 6.5h608q17 0 23 -3.5t6 -20.5v-142z" />
    <glyph glyph-name="macron" unicode="&#x2c9;" 
d="M848 1165q0 -12 -6 -18t-23 -6h-608q-19 0 -24 3.5t-5 20.5v142q0 11 5 17.5t24 6.5h608q17 0 23 -3.5t6 -20.5v-142z" />
    <glyph glyph-name="degree" unicode="&#xb0;" horiz-adv-x="788" 
d="M737 1096q0 -74 -24.5 -135.5t-68.5 -106t-106.5 -69.5t-138.5 -25q-77 0 -140.5 24.5t-110 69t-72 106t-25.5 136.5q0 76 25.5 138t72 106.5t110 69t140.5 24.5q76 0 138.5 -24.5t106.5 -69.5t68.5 -107t24.5 -137zM526 1096q0 66 -35 104.5t-100 38.5
q-60 0 -98.5 -38.5t-38.5 -104.5q0 -76 38.5 -110t98.5 -34q65 0 100 39t35 105z" />
    <glyph glyph-name="acute" unicode="&#xb4;" 
d="M772 1331q3 -2 1.5 -8t-4.5 -13l-9 -18q-56 -27 -99.5 -49.5t-84.5 -44t-85 -43.5t-100 -49q-8 -4 -23 -1.5t-30 7t-25.5 10t-9.5 8.5q31 53 55 94.5t46.5 81t46 81.5t53.5 96q5 8 8 7.5t6 -3.5q71 -45 134 -82t120 -74z" />
    <glyph glyph-name="paragraph" unicode="&#xb6;" horiz-adv-x="1393" 
d="M1247 -127q0 -15 -2.5 -16.5t-17.5 -1.5h-152q-1 44 -2.5 122.5t-3 177.5t-3 211.5t-3 224.5t-3 217t-3 189t-2.5 141t-2 72h-90q-2 -14 -4 -72.5t-5 -145.5t-6 -195.5t-6 -223t-6 -228t-6 -211t-5.5 -171t-4.5 -108.5h-146q-12 0 -16 3t-2 15q2 25 3.5 58t2.5 70t2 76
t2 75q2 85 2 178q-41 1 -79 2q-32 1 -67 2.5t-59 3.5q-112 12 -198.5 47.5t-146 98t-90 154.5t-30.5 218q0 118 33.5 216t97.5 168.5t155.5 109.5t207.5 39h629q11 0 14.5 -4t3.5 -15v-678q0 -79 1 -181t2.5 -212t3 -220.5t1.5 -205.5zM797 1210h-107q-47 0 -86 -27.5
t-66.5 -75t-43 -111.5t-15.5 -138q0 -161 51.5 -241t145.5 -80h98z" />
    <glyph glyph-name="periodcentered" unicode="&#xb7;" horiz-adv-x="684" 
d="M557 561q0 -35 -35 -35h-350q-17 0 -25 7.5t-8 27.5v328q0 20 7 27.5t26 7.5h350q20 0 27.5 -10t7.5 -25v-328z" />
    <glyph glyph-name="periodcentered" unicode="&#x2219;" horiz-adv-x="684" 
d="M557 561q0 -35 -35 -35h-350q-17 0 -25 7.5t-8 27.5v328q0 20 7 27.5t26 7.5h350q20 0 27.5 -10t7.5 -25v-328z" />
    <glyph glyph-name="cedilla" unicode="&#xb8;" 
d="M700 -240q0 -60 -19 -102t-52.5 -68.5t-79.5 -38.5t-100 -12q-42 0 -80.5 10t-70 30.5t-55 51t-36.5 72.5q-3 17 8 21l127 40q9 4 14 0.5t9 -8.5q14 -20 39 -36.5t53 -16.5q23 0 41 5t31 18t19.5 34.5t6.5 53.5q0 31 -16 60.5t-39.5 54t-50 43t-46.5 28.5h136
q28 -13 56.5 -37t52 -56t38 -69.5t14.5 -77.5z" />
    <glyph glyph-name="ordmasculine" unicode="&#xba;" horiz-adv-x="1147" 
d="M1032 997q0 -93 -32.5 -170.5t-92 -133.5t-142.5 -87t-183 -31q-103 0 -189 31t-147.5 86.5t-96 133.5t-34.5 171q0 94 34 171t95.5 132.5t147 86t188.5 30.5q101 0 184.5 -31t143 -86.5t92 -132.5t32.5 -170zM1022 332q0 -14 -5.5 -22.5t-31.5 -8.5h-821q-9 0 -22 5.5
t-13 25.5v160q0 11 5 19.5t30 8.5h821q14 0 25.5 -5t11.5 -23v-160zM709 997q0 30 -10 55.5t-28 44.5t-44 29.5t-58 10.5q-65 0 -103 -39t-38 -101q0 -74 38 -107.5t103 -33.5q66 0 103 36.5t37 104.5z" />
    <glyph glyph-name="guillemotright" unicode="&#xbb;" horiz-adv-x="1202" 
d="M1149 520q0 -6 -0.5 -15.5t-3.5 -12.5q-27 -28 -62.5 -65t-76.5 -79.5t-85 -88.5t-87 -90.5t-83 -87t-73 -77.5q-8 -10 -19 -10q-14 0 -14 20v340q0 19 4.5 29t12.5 18l145 117l-145 121q-8 6 -12.5 16t-4.5 27v342q0 20 14 20q11 0 19 -10q50 -52 113 -118t127.5 -133
t124.5 -128.5t102 -105.5q3 -3 3.5 -12t0.5 -17zM606 520q0 -6 -0.5 -15.5t-3.5 -12.5q-40 -42 -99 -103.5t-124.5 -129.5t-129.5 -135t-114 -120q-8 -10 -18 -10q-6 0 -10.5 5.5t-4.5 14.5v340q0 19 4.5 29t12.5 18l145 117l-145 121q-8 6 -12.5 16t-4.5 27v342
q0 9 4.5 14.5t10.5 5.5q10 0 18 -10q50 -52 113 -118t127.5 -133t124.5 -128.5t102 -105.5q3 -3 3.5 -12t0.5 -17z" />
    <glyph glyph-name="questiondown" unicode="&#xbf;" horiz-adv-x="1026" 
d="M666 1077q0 -41 -35 -41h-301q-10 0 -18.5 9t-8.5 32v281q0 20 7 25.5t20 5.5h301q17 0 26 -5.5t9 -25.5v-281zM1010 322q-30 -88 -72.5 -154.5t-101.5 -111.5t-138 -68t-182 -23q-101 0 -189.5 26.5t-153.5 79t-102.5 129t-37.5 177.5q0 57 10 103t28 84t43.5 69
t57.5 59q78 69 114 129t29 117q0 12 2.5 17.5t10.5 5.5h299q12 0 12 -2.5t2 -16.5q2 -38 -2 -75.5t-16.5 -75.5t-34 -77.5t-53.5 -82.5q-23 -29 -45 -57t-39 -54t-28 -49.5t-11 -44.5q0 -66 33.5 -105.5t101.5 -39.5q72 0 119.5 44.5t62.5 137.5q2 9 9 14.5t18 -0.5
q14 -7 41.5 -21.5t62.5 -32.5t73 -37.5t73 -37.5q10 -3 4 -26z" />
    <glyph glyph-name="Agrave" unicode="&#xc0;" horiz-adv-x="1444" 
d="M1442 29q9 -20 7.5 -24.5t-15.5 -4.5h-383q-8 0 -14 2.5t-11 13.5q-19 42 -39.5 93t-36.5 90h-495q-19 -44 -38 -91.5t-34 -84.5q-5 -13 -11 -18t-26 -5h-340q-24 0 -10 29q53 113 114 240.5t125 258.5t128.5 261t124 248.5t112 220t92.5 176.5q2 3 9 3.5t16 0.5
t15.5 0.5t8.5 -4.5q47 -91 101.5 -199.5t113.5 -226.5t121.5 -243.5t124.5 -251.5t123 -248.5t117 -235.5zM842 465l-146 311l-139 -311h285zM815 1501q1 -3 -9 -9t-24.5 -10.5t-30 -7t-24.5 2.5q-56 26 -100 48t-85 43.5t-84 44.5t-98 50q-6 10 -10 18q-4 7 -5.5 13t1.5 8
q57 37 120 74t134 82q5 3 7.5 3.5t8.5 -7.5q29 -54 52.5 -96t45.5 -81.5t46 -81t55 -94.5z" />
    <glyph glyph-name="Aacute" unicode="&#xc1;" horiz-adv-x="1444" 
d="M1442 29q9 -20 7.5 -24.5t-15.5 -4.5h-383q-8 0 -14 2.5t-11 13.5q-19 42 -39.5 93t-36.5 90h-495q-19 -44 -38 -91.5t-34 -84.5q-5 -13 -11 -18t-26 -5h-340q-24 0 -10 29q53 113 114 240.5t125 258.5t128.5 261t124 248.5t112 220t92.5 176.5q2 3 9 3.5t16 0.5
t15.5 0.5t8.5 -4.5q47 -91 101.5 -199.5t113.5 -226.5t121.5 -243.5t124.5 -251.5t123 -248.5t117 -235.5zM842 465l-146 311l-139 -311h285zM997 1677q3 -2 1.5 -8t-4.5 -13l-9 -18q-56 -27 -99.5 -49.5t-84.5 -44t-85 -43.5t-100 -49q-8 -4 -23 -1.5t-30 7t-25.5 10
t-9.5 8.5q31 53 55 94.5t46.5 81t46 81.5t53.5 96q5 8 8 7.5t6 -3.5q71 -45 134 -82t120 -74z" />
    <glyph glyph-name="Acircumflex" unicode="&#xc2;" horiz-adv-x="1444" 
d="M1442 29q9 -20 7.5 -24.5t-15.5 -4.5h-383q-8 0 -14 2.5t-11 13.5q-19 42 -39.5 93t-36.5 90h-495q-19 -44 -38 -91.5t-34 -84.5q-5 -13 -11 -18t-26 -5h-340q-24 0 -10 29q53 113 114 240.5t125 258.5t128.5 261t124 248.5t112 220t92.5 176.5q2 3 9 3.5t16 0.5
t15.5 0.5t8.5 -4.5q47 -91 101.5 -199.5t113.5 -226.5t121.5 -243.5t124.5 -251.5t123 -248.5t117 -235.5zM842 465l-146 311l-139 -311h285zM1063 1471q0 -9 -20 -9h-201q-6 0 -14.5 2t-16.5 9q-14 8 -31.5 23.5t-33.5 31.5q-18 18 -37 39q-17 -21 -35 -39
q-15 -16 -33 -31.5t-32 -23.5q-5 -5 -12 -8t-15 -3h-211q-14 0 -14 9q0 2 4 5.5t10 8.5q6 6 31 30.5t59 57.5t73 70.5t73 69.5t58 55t28 26q6 5 9 8.5t9 3.5t10 -4t11 -10q5 -4 28.5 -26t57 -53.5t71 -68t71 -69t57.5 -56.5l30 -30t11 -10.5t5 -7.5z" />
    <glyph glyph-name="Atilde" unicode="&#xc3;" horiz-adv-x="1444" 
d="M1442 29q9 -20 7.5 -24.5t-15.5 -4.5h-383q-8 0 -14 2.5t-11 13.5q-19 42 -39.5 93t-36.5 90h-495q-19 -44 -38 -91.5t-34 -84.5q-5 -13 -11 -18t-26 -5h-340q-24 0 -10 29q53 113 114 240.5t125 258.5t128.5 261t124 248.5t112 220t92.5 176.5q2 3 9 3.5t16 0.5
t15.5 0.5t8.5 -4.5q47 -91 101.5 -199.5t113.5 -226.5t121.5 -243.5t124.5 -251.5t123 -248.5t117 -235.5zM842 465l-146 311l-139 -311h285zM1088 1688q-1 -5 -8.5 -24.5t-22 -45t-35 -54t-47.5 -53t-61 -40t-74 -15.5q-50 0 -83 14t-59 31q-14 9 -28 17.5t-29.5 16t-33 12
t-38.5 4.5q-34 0 -58 -12.5t-46 -30.5q-11 -11 -22 -23t-23 -23q-9 -6 -23 -0.5t-14 21.5q1 63 21.5 112.5t54.5 83.5t78.5 52t95.5 18q46 0 79.5 -13t59.5 -30q32 -21 59 -40t62 -19q31 0 54.5 5.5t41.5 14.5q19 11 33.5 22.5t30.5 22.5q4 4 11 3.5t12.5 -4.5t9 -10
t2.5 -13z" />
    <glyph glyph-name="Adieresis" unicode="&#xc4;" horiz-adv-x="1444" 
d="M1442 29q9 -20 7.5 -24.5t-15.5 -4.5h-383q-8 0 -14 2.5t-11 13.5q-19 42 -39.5 93t-36.5 90h-495q-19 -44 -38 -91.5t-34 -84.5q-5 -13 -11 -18t-26 -5h-340q-24 0 -10 29q53 113 114 240.5t125 258.5t128.5 261t124 248.5t112 220t92.5 176.5q2 3 9 3.5t16 0.5
t15.5 0.5t8.5 -4.5q47 -91 101.5 -199.5t113.5 -226.5t121.5 -243.5t124.5 -251.5t123 -248.5t117 -235.5zM842 465l-146 311l-139 -311h285zM1133 1460q0 -11 -4 -13.5t-11 -2.5h-323q-8 0 -11.5 7t-3.5 15v199q0 6 2 12t13 6h321q8 0 12.5 -2t4.5 -16v-205zM637 1460
q0 -11 -3.5 -13.5t-12.5 -2.5h-320q-8 0 -10 7t-2 15v199q0 6 1 12t9 6h322q9 0 12.5 -2t3.5 -16v-205z" />
    <glyph glyph-name="Aring" unicode="&#xc5;" horiz-adv-x="1444" 
d="M1442 29q9 -20 7.5 -24.5t-15.5 -4.5h-383q-8 0 -16.5 2.5t-8.5 13.5q-19 42 -39.5 93t-36.5 90h-495q-19 -44 -38 -91.5t-34 -84.5q0 -13 -8.5 -18t-28.5 -5h-340q-24 0 -10 29q64 139 138.5 293.5t151.5 311.5t153 308t145 283q-60 32 -97.5 90.5t-37.5 130.5
q0 52 20 98.5t54.5 81t80.5 54.5t98 20t98.5 -20t81 -54.5t54.5 -81t20 -98.5q0 -65 -31 -120t-83 -89q69 -138 145 -290.5t153.5 -309t154 -311.5t147.5 -297zM817 1446q0 24 -9 44.5t-24.5 36.5t-36.5 25t-45 9t-44.5 -9t-36 -25t-24.5 -36.5t-9 -44.5t9 -45t24.5 -36.5
t36 -24.5t44.5 -9t45 9t36.5 24.5t24.5 36.5t9 45zM842 465l-146 311l-139 -311h285z" />
    <glyph glyph-name="AE" unicode="&#xc6;" horiz-adv-x="1903" 
d="M1858 29q0 -19 -2.5 -24t-18.5 -5h-924q-18 0 -22 5t-4 24v155h-422q-20 -43 -37.5 -83.5t-36.5 -77.5q-6 -14 -11.5 -18.5t-25.5 -4.5h-374q-23 0 -9 29q59 110 122 230t126.5 242t125.5 244t120 237.5t110 221t95 195.5q5 11 33 12t65 -2q31 -3 119 -6.5t221 -5.5
l711 -8q12 0 18 -4.5t6 -22.5v-250q0 -17 -4.5 -23t-19.5 -6l-574 7v-232h561q16 0 19.5 -5t3.5 -24v-249q0 -19 -3.5 -24t-19.5 -5h-561v-238l592 6q16 0 18.5 -3t2.5 -23v-264zM887 469v666q-12 -32 -23 -61q-10 -25 -20 -51t-17 -42q-8 -17 -23 -47.5t-34.5 -69.5
t-41.5 -83.5t-44 -88.5q-52 -103 -113 -223h316z" />
    <glyph glyph-name="Ccedilla" unicode="&#xc7;" horiz-adv-x="1475" 
d="M1450 389q-29 -70 -76 -135.5t-109.5 -119.5t-140 -94t-168.5 -58q14 -25 21.5 -55t7.5 -52q0 -60 -18.5 -110.5t-55 -86.5t-92 -56.5t-129.5 -20.5q-90 0 -158 40t-96 123q-5 18 8 21l140 70q18 9 24 -9q10 -18 27.5 -30.5t46.5 -12.5q17 0 35.5 5t34.5 17.5t26 33.5
t10 53q0 12 -5 28t-11 25q-104 4 -195.5 32.5t-168 77t-137.5 114.5t-103 145t-64 168.5t-22 185.5q0 105 25 200t71.5 176t111.5 146t144.5 111t172 71t192.5 25q127 0 229 -31.5t181 -85.5t135.5 -125t91.5 -149q8 -19 4 -28t-10 -9l-306 -119q-9 0 -13.5 1.5t-4.5 9.5
q-89 186 -299 186q-77 0 -139 -28.5t-106 -79.5t-67.5 -121t-23.5 -152q0 -96 29 -166.5t77 -116t109.5 -68t126.5 -22.5q105 0 177.5 47t109.5 125q0 15 24 15l308 -84q15 0 16.5 -9t1.5 -18z" />
    <glyph glyph-name="Egrave" unicode="&#xc8;" horiz-adv-x="1198" 
d="M1135 29q0 -19 -3.5 -24t-19.5 -5h-936q-15 0 -18.5 5t-3.5 24v1339q0 14 1.5 17.5t16.5 3.5h926q15 0 18.5 -4.5t3.5 -22.5v-250q0 -29 -22 -29l-586 7v-232h573q14 0 17.5 -5t3.5 -24v-249q0 -19 -3.5 -24t-17.5 -5h-573v-238l600 6q17 0 20 -3.5t3 -22.5v-264z
M830 1470q1 -3 -9 -9t-24.5 -10.5t-30 -7t-24.5 2.5q-56 26 -100 48t-85 43.5t-84 44.5t-98 50q-6 10 -10 18q-4 7 -5.5 13t1.5 8q57 37 120 74t134 82q5 3 7.5 3.5t8.5 -7.5q29 -54 52.5 -96t45.5 -81.5t46 -81t55 -94.5z" />
    <glyph glyph-name="Eacute" unicode="&#xc9;" horiz-adv-x="1198" 
d="M1135 29q0 -19 -3.5 -24t-19.5 -5h-936q-15 0 -18.5 5t-3.5 24v1339q0 14 1.5 17.5t16.5 3.5h926q15 0 18.5 -4.5t3.5 -22.5v-250q0 -29 -22 -29l-586 7v-232h573q14 0 17.5 -5t3.5 -24v-249q0 -19 -3.5 -24t-17.5 -5h-573v-238l600 6q17 0 20 -3.5t3 -22.5v-264z
M962 1671q3 -2 1.5 -8t-4.5 -13l-9 -18q-56 -27 -99.5 -49.5t-84.5 -44t-85 -43.5t-100 -49q-8 -4 -23 -1.5t-30 7t-25.5 10t-9.5 8.5q31 53 55 94.5t46.5 81t46 81.5t53.5 96q5 8 8 7.5t6 -3.5q71 -45 134 -82t120 -74z" />
    <glyph glyph-name="Ecircumflex" unicode="&#xca;" horiz-adv-x="1198" 
d="M1135 29q0 -19 -3.5 -24t-19.5 -5h-936q-15 0 -18.5 5t-3.5 24v1339q0 14 1.5 17.5t16.5 3.5h926q15 0 18.5 -4.5t3.5 -22.5v-250q0 -29 -22 -29l-586 7v-232h573q14 0 17.5 -5t3.5 -24v-249q0 -19 -3.5 -24t-17.5 -5h-573v-238l600 6q17 0 20 -3.5t3 -22.5v-264z
M993 1471q0 -9 -20 -9h-201q-6 0 -14.5 2t-16.5 9q-14 8 -31.5 23.5t-33.5 31.5q-18 18 -37 39q-17 -21 -35 -39q-15 -16 -33 -31.5t-32 -23.5q-5 -5 -12 -8t-15 -3h-211q-14 0 -14 9q0 2 4 5.5t10 8.5q6 6 31 30.5t59 57.5t73 70.5t73 69.5t58 55t28 26q6 5 9 8.5t9 3.5
t10 -4t11 -10q5 -4 28.5 -26t57 -53.5t71 -68t71 -69t57.5 -56.5l30 -30t11 -10.5t5 -7.5z" />
    <glyph glyph-name="Edieresis" unicode="&#xcb;" horiz-adv-x="1198" 
d="M1135 29q0 -19 -3.5 -24t-19.5 -5h-936q-15 0 -18.5 5t-3.5 24v1339q0 14 1.5 17.5t16.5 3.5h926q15 0 18.5 -4.5t3.5 -22.5v-250q0 -29 -22 -29l-586 7v-232h573q14 0 17.5 -5t3.5 -24v-249q0 -19 -3.5 -24t-17.5 -5h-573v-238l600 6q17 0 20 -3.5t3 -22.5v-264z
M1063 1479q0 -11 -4 -13.5t-11 -2.5h-323q-8 0 -11.5 7t-3.5 15v199q0 6 2 12t13 6h321q8 0 12.5 -2t4.5 -16v-205zM567 1479q0 -11 -3.5 -13.5t-12.5 -2.5h-320q-8 0 -10 7t-2 15v199q0 6 1 12t9 6h322q9 0 12.5 -2t3.5 -16v-205z" />
    <glyph glyph-name="Igrave" unicode="&#xcc;" horiz-adv-x="686" 
d="M532 18q0 -12 -3 -15t-17 -3h-340q-14 0 -16 1.5t-2 16.5v1352q0 16 2 17.5t16 1.5h340q14 0 17 -3.5t3 -15.5v-1352zM463 1474q1 -3 -9 -9t-24.5 -10.5t-30 -7t-24.5 2.5q-56 26 -100 48t-85 43.5t-84 44.5t-98 50q-6 10 -10 18q-4 7 -5.5 13t1.5 8q57 37 120 74t134 82
q5 3 7.5 3.5t8.5 -7.5q29 -54 52.5 -96t45.5 -81.5t46 -81t55 -94.5z" />
    <glyph glyph-name="Iacute" unicode="&#xcd;" horiz-adv-x="686" 
d="M532 18q0 -12 -3 -15t-17 -3h-340q-14 0 -16 1.5t-2 16.5v1352q0 16 2 17.5t16 1.5h340q14 0 17 -3.5t3 -15.5v-1352zM666 1679q3 -2 1.5 -8t-4.5 -13l-9 -18q-56 -27 -99.5 -49.5t-84.5 -44t-85 -43.5t-100 -49q-8 -4 -23 -1.5t-30 7t-25.5 10t-9.5 8.5q31 53 55 94.5
t46.5 81t46 81.5t53.5 96q5 8 8 7.5t6 -3.5q71 -45 134 -82t120 -74z" />
    <glyph glyph-name="Icircumflex" unicode="&#xce;" horiz-adv-x="686" 
d="M532 18q0 -12 -3 -15t-17 -3h-340q-14 0 -16 1.5t-2 16.5v1352q0 16 2 17.5t16 1.5h340q14 0 17 -3.5t3 -15.5v-1352zM692 1471q0 -9 -20 -9h-201q-6 0 -14.5 2t-16.5 9q-14 8 -31.5 23.5t-33.5 31.5q-18 18 -37 39q-17 -21 -35 -39q-15 -16 -33 -31.5t-32 -23.5
q-5 -5 -12 -8t-15 -3h-211q-14 0 -14 9q0 2 4 5.5t10 8.5q6 6 31 30.5t59 57.5t73 70.5t73 69.5t58 55t28 26q6 5 9 8.5t9 3.5t10 -4t11 -10q5 -4 28.5 -26t57 -53.5t71 -68t71 -69t57.5 -56.5l30 -30t11 -10.5t5 -7.5z" />
    <glyph glyph-name="Idieresis" unicode="&#xcf;" horiz-adv-x="686" 
d="M532 18q0 -12 -3 -15t-17 -3h-340q-14 0 -16 1.5t-2 16.5v1352q0 16 2 17.5t16 1.5h340q14 0 17 -3.5t3 -15.5v-1352zM756 1479q0 -11 -4 -13.5t-11 -2.5h-323q-8 0 -11.5 7t-3.5 15v199q0 6 2 12t13 6h321q8 0 12.5 -2t4.5 -16v-205zM260 1479q0 -11 -3.5 -13.5
t-12.5 -2.5h-320q-8 0 -10 7t-2 15v199q0 6 1 12t9 6h322q9 0 12.5 -2t3.5 -16v-205z" />
    <glyph glyph-name="Eth" unicode="&#xd0;" horiz-adv-x="1446" 
d="M1368 694q0 -167 -48.5 -296t-137 -217.5t-213.5 -134.5t-277 -46h-522q-11 0 -13.5 3t-2.5 15v537h-82q-11 0 -15 5.5t-4 14.5v230q0 9 4 13.5t15 4.5h82v545q0 12 2.5 16.5t13.5 4.5h569q148 0 264.5 -45t197.5 -133t124 -218t43 -299zM985 700q0 84 -18.5 156.5
t-54 126.5t-87 84.5t-118.5 30.5h-193v-275h274q11 0 15 -4.5t4 -15.5v-230q0 -9 -4 -13.5t-15 -4.5h-274v-260h188q77 0 131 29.5t87.5 83t49 128t15.5 164.5z" />
    <glyph glyph-name="Ntilde" unicode="&#xd1;" horiz-adv-x="1475" 
d="M1321 -10q0 -11 -0.5 -18t-5.5 -9q-6 -3 -19 6q-58 43 -123 95.5t-131.5 108t-132 112t-125.5 109.5q-140 123 -280 251v-627q0 -14 -2.5 -16t-16.5 -2h-309q-11 0 -15.5 7t-4.5 13q-3 131 -4.5 247t-2.5 225.5t-0.5 215.5t1 216.5t2.5 230t4 254.5q0 13 6 16q5 6 16 -2
q55 -39 118 -89t129.5 -104.5t132.5 -111.5t127 -110q143 -125 288 -258v614q0 17 2 21t14 4h311q16 0 18.5 -5t2.5 -20q2 -100 3 -211t1.5 -228t0.5 -238t-0.5 -240.5t-2 -235t-2.5 -221.5zM1098 1649q-1 -5 -8.5 -24.5t-22 -45t-35 -54t-47.5 -53t-61 -40t-74 -15.5
q-50 0 -83 14t-59 31q-14 9 -28 17.5t-29.5 16t-33 12t-38.5 4.5q-34 0 -58 -12.5t-46 -30.5q-11 -11 -22 -23t-23 -23q-9 -6 -23 -0.5t-14 21.5q1 63 21.5 112.5t54.5 83.5t78.5 52t95.5 18q46 0 79.5 -13t59.5 -30q32 -21 59 -40t62 -19q31 0 54.5 5.5t41.5 14.5
q19 11 33.5 22.5t30.5 22.5q4 4 11 3.5t12.5 -4.5t9 -10t2.5 -13z" />
    <glyph glyph-name="Ograve" unicode="&#xd2;" horiz-adv-x="1618" 
d="M1536 690q0 -100 -25 -193t-71.5 -173.5t-112 -146.5t-146 -113t-174.5 -73t-198 -26t-198 26t-174.5 73t-146 113t-112 146.5t-71.5 173.5t-25 193t25 193t71.5 174t112 147.5t146 113.5t175 73t197.5 26t197.5 -26t175 -73t146 -113.5t112 -147.5t71.5 -174t25 -193z
M1153 690q0 79 -23 148t-67.5 120t-108.5 80t-145 29q-83 0 -147 -29t-108 -80t-66.5 -120t-22.5 -148t22.5 -147.5t66.5 -119t108 -79.5t147 -29q81 0 145 29t108.5 79.5t67.5 119t23 147.5zM930 1474q1 -3 -9 -9t-24.5 -10.5t-30 -7t-24.5 2.5q-56 26 -100 48t-85 43.5
t-84 44.5t-98 50q-6 10 -10 18q-4 7 -5.5 13t1.5 8q57 37 120 74t134 82q5 3 7.5 3.5t8.5 -7.5q29 -54 52.5 -96t45.5 -81.5t46 -81t55 -94.5z" />
    <glyph glyph-name="Oacute" unicode="&#xd3;" horiz-adv-x="1618" 
d="M1536 690q0 -100 -25 -193t-71.5 -173.5t-112 -146.5t-146 -113t-174.5 -73t-198 -26t-198 26t-174.5 73t-146 113t-112 146.5t-71.5 173.5t-25 193t25 193t71.5 174t112 147.5t146 113.5t175 73t197.5 26t197.5 -26t175 -73t146 -113.5t112 -147.5t71.5 -174t25 -193z
M1153 690q0 79 -23 148t-67.5 120t-108.5 80t-145 29q-83 0 -147 -29t-108 -80t-66.5 -120t-22.5 -148t22.5 -147.5t66.5 -119t108 -79.5t147 -29q81 0 145 29t108.5 79.5t67.5 119t23 147.5zM1171 1677q3 -2 1.5 -8t-4.5 -13l-9 -18q-56 -27 -99.5 -49.5t-84.5 -44
t-85 -43.5t-100 -49q-8 -4 -23 -1.5t-30 7t-25.5 10t-9.5 8.5q31 53 55 94.5t46.5 81t46 81.5t53.5 96q5 8 8 7.5t6 -3.5q71 -45 134 -82t120 -74z" />
    <glyph glyph-name="Ocircumflex" unicode="&#xd4;" horiz-adv-x="1618" 
d="M1536 690q0 -100 -25 -193t-71.5 -173.5t-112 -146.5t-146 -113t-174.5 -73t-198 -26t-198 26t-174.5 73t-146 113t-112 146.5t-71.5 173.5t-25 193t25 193t71.5 174t112 147.5t146 113.5t175 73t197.5 26t197.5 -26t175 -73t146 -113.5t112 -147.5t71.5 -174t25 -193z
M1153 690q0 79 -23 148t-67.5 120t-108.5 80t-145 29q-83 0 -147 -29t-108 -80t-66.5 -120t-22.5 -148t22.5 -147.5t66.5 -119t108 -79.5t147 -29q81 0 145 29t108.5 79.5t67.5 119t23 147.5zM1157 1471q0 -9 -20 -9h-201q-6 0 -14.5 2t-16.5 9q-14 8 -31.5 23.5t-33.5 31.5
q-18 18 -37 39q-17 -21 -35 -39q-15 -16 -33 -31.5t-32 -23.5q-5 -5 -12 -8t-15 -3h-211q-14 0 -14 9q0 2 4 5.5t10 8.5q6 6 31 30.5t59 57.5t73 70.5t73 69.5t58 55t28 26q6 5 9 8.5t9 3.5t10 -4t11 -10q5 -4 28.5 -26t57 -53.5t71 -68t71 -69t57.5 -56.5l30 -30t11 -10.5
t5 -7.5z" />
    <glyph glyph-name="Otilde" unicode="&#xd5;" horiz-adv-x="1618" 
d="M1536 690q0 -100 -25 -193t-71.5 -173.5t-112 -146.5t-146 -113t-174.5 -73t-198 -26t-198 26t-174.5 73t-146 113t-112 146.5t-71.5 173.5t-25 193t25 193t71.5 174t112 147.5t146 113.5t175 73t197.5 26t197.5 -26t175 -73t146 -113.5t112 -147.5t71.5 -174t25 -193z
M1153 690q0 79 -23 148t-67.5 120t-108.5 80t-145 29q-83 0 -147 -29t-108 -80t-66.5 -120t-22.5 -148t22.5 -147.5t66.5 -119t108 -79.5t147 -29q81 0 145 29t108.5 79.5t67.5 119t23 147.5zM1178 1688q-1 -5 -8.5 -24.5t-22 -45t-35 -54t-47.5 -53t-61 -40t-74 -15.5
q-50 0 -83 14t-59 31q-14 9 -28 17.5t-29.5 16t-33 12t-38.5 4.5q-34 0 -58 -12.5t-46 -30.5q-11 -11 -22 -23t-23 -23q-9 -6 -23 -0.5t-14 21.5q1 63 21.5 112.5t54.5 83.5t78.5 52t95.5 18q46 0 79.5 -13t59.5 -30q32 -21 59 -40t62 -19q31 0 54.5 5.5t41.5 14.5
q19 11 33.5 22.5t30.5 22.5q4 4 11 3.5t12.5 -4.5t9 -10t2.5 -13z" />
    <glyph glyph-name="Odieresis" unicode="&#xd6;" horiz-adv-x="1618" 
d="M1536 698q0 -100 -25 -193t-71.5 -173.5t-112 -146.5t-146 -113t-174.5 -73t-198 -26t-198 26t-174.5 73t-146 113t-112 146.5t-71.5 173.5t-25 193t25 193t71.5 174t112 147.5t146 113.5t175 73t197.5 26t197.5 -26t175 -73t146 -113.5t112 -147.5t71.5 -174t25 -193z
M1153 698q0 79 -23 148t-67.5 120t-108.5 80t-145 29q-83 0 -147 -29t-108 -80t-66.5 -120t-22.5 -148t22.5 -147.5t66.5 -119t108 -79.5t147 -29q81 0 145 29t108.5 79.5t67.5 119t23 147.5zM1217 1464q0 -11 -4 -13.5t-11 -2.5h-323q-8 0 -11.5 7t-3.5 15v199q0 6 2 12
t13 6h321q8 0 12.5 -2t4.5 -16v-205zM721 1464q0 -11 -3.5 -13.5t-12.5 -2.5h-320q-8 0 -10 7t-2 15v199q0 6 1 12t9 6h322q9 0 12.5 -2t3.5 -16v-205z" />
    <glyph glyph-name="Oslash" unicode="&#xd8;" horiz-adv-x="1618" 
d="M1550 1323q7 -6 5.5 -12t-7.5 -13q-6 -6 -50.5 -48t-117.5 -111q75 -94 115.5 -208t40.5 -241q0 -100 -26 -193t-73.5 -173.5t-114 -146.5t-147 -113t-173.5 -73t-193 -26q-139 0 -261 47.5t-218 132.5q-78 -71 -125 -116.5t-55 -53.5q-5 -5 -11.5 -4.5t-15.5 13.5
q-11 14 -23 30t-24 33q-6 8 -4.5 15t6.5 12q6 6 50.5 47.5t115.5 109.5q-76 94 -119 211t-43 248q0 100 26 193t73.5 174t114 147.5t147 113.5t173.5 73t193 26q143 0 268.5 -50.5t222.5 -141.5q75 72 120.5 115.5t56.5 54.5q6 6 12 5.5t14 -11.5q11 -14 23 -31.5t24 -34.5z
M1040 979q-43 42 -101 65t-130 23q-83 0 -147 -29t-108 -80t-66.5 -120t-22.5 -148q0 -116 47 -207q63 59 129.5 122t134 126t134.5 126t130 122zM1153 690q0 110 -43 193q-62 -59 -127.5 -121t-132.5 -125t-133.5 -126t-130.5 -122q43 -34 98.5 -54t124.5 -20q81 0 145 29
t108.5 79.5t67.5 119t23 147.5z" />
    <glyph glyph-name="Ugrave" unicode="&#xd9;" horiz-adv-x="1423" 
d="M1290 504q0 -124 -33 -223.5t-103 -169.5t-179 -108t-262 -38q-147 0 -256 40t-181 113t-107.5 176t-35.5 230v852q0 10 1 11.5t9 1.5h344q11 0 13 -2t2 -15v-911q0 -51 19.5 -88t50 -61t69 -35t76.5 -11q37 0 75 11t69 34.5t51 60.5t20 89v913q0 9 1.5 12t10.5 3h336
q8 0 9 -2t1 -13v-870zM877 1470q1 -3 -9 -9t-24.5 -10.5t-30 -7t-24.5 2.5q-56 26 -100 48t-85 43.5t-84 44.5t-98 50q-6 10 -10 18q-4 7 -5.5 13t1.5 8q57 37 120 74t134 82q5 3 7.5 3.5t8.5 -7.5q29 -54 52.5 -96t45.5 -81.5t46 -81t55 -94.5z" />
    <glyph glyph-name="Uacute" unicode="&#xda;" horiz-adv-x="1423" 
d="M1290 504q0 -124 -33 -223.5t-103 -169.5t-179 -108t-262 -38q-147 0 -256 40t-181 113t-107.5 176t-35.5 230v852q0 10 1 11.5t9 1.5h344q11 0 13 -2t2 -15v-911q0 -51 19.5 -88t50 -61t69 -35t76.5 -11q37 0 75 11t69 34.5t51 60.5t20 89v913q0 9 1.5 12t10.5 3h336
q8 0 9 -2t1 -13v-870zM1046 1671q3 -2 1.5 -8t-4.5 -13l-9 -18q-56 -27 -99.5 -49.5t-84.5 -44t-85 -43.5t-100 -49q-8 -4 -23 -1.5t-30 7t-25.5 10t-9.5 8.5q31 53 55 94.5t46.5 81t46 81.5t53.5 96q5 8 8 7.5t6 -3.5q71 -45 134 -82t120 -74z" />
    <glyph glyph-name="Ucircumflex" unicode="&#xdb;" horiz-adv-x="1423" 
d="M1290 504q0 -124 -33 -223.5t-103 -169.5t-179 -108t-262 -38q-147 0 -256 40t-181 113t-107.5 176t-35.5 230v852q0 10 1 11.5t9 1.5h344q11 0 13 -2t2 -15v-911q0 -51 19.5 -88t50 -61t69 -35t76.5 -11q37 0 75 11t69 34.5t51 60.5t20 89v913q0 9 1.5 12t10.5 3h336
q8 0 9 -2t1 -13v-870zM1067 1471q0 -9 -20 -9h-201q-6 0 -14.5 2t-16.5 9q-14 8 -31.5 23.5t-33.5 31.5q-18 18 -37 39q-17 -21 -35 -39q-15 -16 -33 -31.5t-32 -23.5q-5 -5 -12 -8t-15 -3h-211q-14 0 -14 9q0 2 4 5.5t10 8.5q6 6 31 30.5t59 57.5t73 70.5t73 69.5t58 55
t28 26q6 5 9 8.5t9 3.5t10 -4t11 -10q5 -4 28.5 -26t57 -53.5t71 -68t71 -69t57.5 -56.5l30 -30t11 -10.5t5 -7.5z" />
    <glyph glyph-name="Udieresis" unicode="&#xdc;" horiz-adv-x="1423" 
d="M1290 504q0 -124 -33 -223.5t-103 -169.5t-179 -108t-262 -38q-147 0 -256 40t-181 113t-107.5 176t-35.5 230v852q0 10 1 11.5t9 1.5h344q11 0 13 -2t2 -15v-911q0 -51 19.5 -88t50 -61t69 -35t76.5 -11q37 0 75 11t69 34.5t51 60.5t20 89v913q0 9 1.5 12t10.5 3h336
q8 0 9 -2t1 -13v-870zM1145 1464q0 -11 -4 -13.5t-11 -2.5h-323q-8 0 -11.5 7t-3.5 15v199q0 6 2 12t13 6h321q8 0 12.5 -2t4.5 -16v-205zM649 1464q0 -11 -3.5 -13.5t-12.5 -2.5h-320q-8 0 -10 7t-2 15v199q0 6 1 12t9 6h322q9 0 12.5 -2t3.5 -16v-205z" />
    <glyph glyph-name="Yacute" unicode="&#xdd;" horiz-adv-x="1319" 
d="M1311 1337q-34 -75 -71 -153t-74 -155t-73.5 -150.5t-69.5 -138.5q-77 -153 -153 -298v-413q0 -20 -2.5 -24.5t-19.5 -4.5h-340q-9 0 -11.5 4.5t-2.5 24.5v403q-85 154 -172 315q-37 69 -78 145.5t-83 156t-83 159t-78 154.5q-11 20 -8.5 23.5t20.5 3.5h346
q25 0 34.5 -7.5t19.5 -25.5q16 -32 36 -74.5t41.5 -90.5t44.5 -98t44 -98q50 -112 104 -233q54 120 103 231q21 47 43 97t42 97.5t38 90t30 74.5q9 23 16.5 30t26.5 7h301q32 0 38 -9t-9 -43zM1018 1642q3 -2 1.5 -8t-4.5 -13l-9 -18q-56 -27 -99.5 -49.5t-84.5 -44
t-85 -43.5t-100 -49q-8 -4 -23 -1.5t-30 7t-25.5 10t-9.5 8.5q31 53 55 94.5t46.5 81t46 81.5t53.5 96q5 8 8 7.5t6 -3.5q71 -45 134 -82t120 -74z" />
    <glyph glyph-name="Thorn" unicode="&#xde;" horiz-adv-x="1325" 
d="M1274 692q0 -126 -35 -215.5t-97 -149t-146.5 -91.5t-182.5 -43q-11 -2 -29.5 -3t-41 -1.5t-48 -1.5t-49.5 -1q-57 -1 -123 -2v-166q0 -12 -3 -15t-15 -3h-332q-14 0 -16 2t-2 16v1352q0 14 4.5 16.5t13.5 2.5h332q9 0 13.5 -2.5t4.5 -16.5v-145h264q115 0 205.5 -39
t153.5 -109t96 -168.5t33 -216.5zM895 705q0 103 -55.5 159t-149.5 56h-168v-435l172 7q54 2 92 19t62.5 45.5t35.5 66.5t11 82z" />
    <glyph glyph-name="germandbls" unicode="&#xdf;" horiz-adv-x="1233" 
d="M1178 373q0 -73 -18 -131t-48.5 -102.5t-71 -75.5t-85.5 -51t-91.5 -29t-89.5 -9q-56 0 -94 6.5t-70 18.5q-20 6 -20 37v203q0 14 8 16t14 0q17 -5 35.5 -6.5t40.5 -1.5q50 0 84.5 48.5t34.5 135.5q0 49 -16.5 86t-43.5 62t-62.5 38t-74.5 15q-11 0 -12.5 3t-1.5 9v250
q0 6 2.5 10t11.5 4q71 3 100 31.5t29 91.5q0 68 -39 103.5t-96 35.5q-63 0 -98 -44t-35 -121v-983q0 -8 -2.5 -15.5t-13.5 -7.5h-316q-11 0 -13.5 8t-2.5 19v974q0 107 36 192.5t99.5 145t152 91.5t193.5 32q106 0 191 -24.5t144.5 -70.5t91.5 -113t32 -152
q0 -68 -16.5 -124.5t-55 -98.5t-101.5 -68t-157 -35q119 0 203.5 -32.5t138 -88t78.5 -128.5t25 -154z" />
    <glyph glyph-name="agrave" unicode="&#xe0;" horiz-adv-x="1284" 
d="M1161 29q0 -17 -4 -23t-12 -6h-291q-11 0 -15.5 5t-4.5 13v129q-13 -40 -42.5 -70t-68.5 -50.5t-85 -30.5t-93 -10q-103 0 -191.5 36t-153.5 104t-102 167t-37 225q0 116 38 213t103.5 167.5t152 109.5t184.5 39q52 0 97.5 -14t81 -37t60.5 -52t37 -59v125q0 14 3.5 19
t12.5 5h316q8 0 11 -5t3 -13v-987zM815 512q0 51 -16 90.5t-44 67.5t-65.5 42.5t-79.5 14.5q-48 0 -87 -16.5t-66 -45.5t-41.5 -69t-14.5 -88q0 -47 16.5 -86t45 -66.5t66.5 -43t81 -15.5q42 0 79.5 15.5t65.5 43.5t44 68t16 88zM705 1130q1 -3 -9 -9t-24.5 -10.5t-30 -7
t-24.5 2.5q-56 26 -100 48t-85 43.5t-84 44.5t-98 50q-6 10 -10 18q-4 7 -5.5 13t1.5 8q57 37 120 74t134 82q5 3 7.5 3.5t8.5 -7.5q29 -54 52.5 -96t45.5 -81.5t46 -81t55 -94.5z" />
    <glyph glyph-name="aacute" unicode="&#xe1;" horiz-adv-x="1284" 
d="M1161 29q0 -17 -4 -23t-12 -6h-291q-11 0 -15.5 5t-4.5 13v129q-13 -40 -42.5 -70t-68.5 -50.5t-85 -30.5t-93 -10q-103 0 -191.5 36t-153.5 104t-102 167t-37 225q0 116 38 213t103.5 167.5t152 109.5t184.5 39q52 0 97.5 -14t81 -37t60.5 -52t37 -59v125q0 14 3.5 19
t12.5 5h316q8 0 11 -5t3 -13v-987zM815 512q0 51 -16 90.5t-44 67.5t-65.5 42.5t-79.5 14.5q-48 0 -87 -16.5t-66 -45.5t-41.5 -69t-14.5 -88q0 -47 16.5 -86t45 -66.5t66.5 -43t81 -15.5q42 0 79.5 15.5t65.5 43.5t44 68t16 88zM940 1331q3 -2 1.5 -8t-4.5 -13l-9 -18
q-56 -27 -99.5 -49.5t-84.5 -44t-85 -43.5t-100 -49q-8 -4 -23 -1.5t-30 7t-25.5 10t-9.5 8.5q31 53 55 94.5t46.5 81t46 81.5t53.5 96q5 8 8 7.5t6 -3.5q71 -45 134 -82t120 -74z" />
    <glyph glyph-name="acircumflex" unicode="&#xe2;" horiz-adv-x="1284" 
d="M1161 29q0 -17 -4 -23t-12 -6h-291q-11 0 -15.5 5t-4.5 13v129q-13 -40 -42.5 -70t-68.5 -50.5t-85 -30.5t-93 -10q-103 0 -191.5 36t-153.5 104t-102 167t-37 225q0 116 38 213t103.5 167.5t152 109.5t184.5 39q52 0 97.5 -14t81 -37t60.5 -52t37 -59v125q0 14 3.5 19
t12.5 5h316q8 0 11 -5t3 -13v-987zM815 512q0 51 -16 90.5t-44 67.5t-65.5 42.5t-79.5 14.5q-48 0 -87 -16.5t-66 -45.5t-41.5 -69t-14.5 -88q0 -47 16.5 -86t45 -66.5t66.5 -43t81 -15.5q42 0 79.5 15.5t65.5 43.5t44 68t16 88zM964 1135q0 -9 -20 -9h-201q-6 0 -14.5 2
t-16.5 9q-14 8 -31.5 23.5t-33.5 31.5q-18 18 -37 39q-17 -21 -35 -39q-15 -16 -33 -31.5t-32 -23.5q-5 -5 -12 -8t-15 -3h-211q-14 0 -14 9q0 2 4 5.5t10 8.5q6 6 31 30.5t59 57.5t73 70.5t73 69.5t58 55t28 26q6 5 9 8.5t9 3.5t10 -4t11 -10q5 -4 28.5 -26t57 -53.5
t71 -68t71 -69t57.5 -56.5l30 -30t11 -10.5t5 -7.5z" />
    <glyph glyph-name="atilde" unicode="&#xe3;" horiz-adv-x="1284" 
d="M1161 29q0 -17 -4 -23t-12 -6h-291q-11 0 -15.5 5t-4.5 13v129q-13 -40 -42.5 -70t-68.5 -50.5t-85 -30.5t-93 -10q-103 0 -191.5 36t-153.5 104t-102 167t-37 225q0 116 38 213t103.5 167.5t152 109.5t184.5 39q52 0 97.5 -14t81 -37t60.5 -52t37 -59v125q0 14 3.5 19
t12.5 5h316q8 0 11 -5t3 -13v-987zM815 512q0 51 -16 90.5t-44 67.5t-65.5 42.5t-79.5 14.5q-48 0 -87 -16.5t-66 -45.5t-41.5 -69t-14.5 -88q0 -47 16.5 -86t45 -66.5t66.5 -43t81 -15.5q42 0 79.5 15.5t65.5 43.5t44 68t16 88zM979 1329q-1 -5 -8.5 -24.5t-22 -45t-35 -54
t-47.5 -53t-61 -40t-74 -15.5q-50 0 -83 14t-59 31q-14 9 -28 17.5t-29.5 16t-33 12t-38.5 4.5q-34 0 -58 -12.5t-46 -30.5q-11 -11 -22 -23t-23 -23q-9 -6 -23 -0.5t-14 21.5q1 63 21.5 112.5t54.5 83.5t78.5 52t95.5 18q46 0 79.5 -13t59.5 -30q32 -21 59 -40t62 -19
q31 0 54.5 5.5t41.5 14.5q19 11 33.5 22.5t30.5 22.5q4 4 11 3.5t12.5 -4.5t9 -10t2.5 -13z" />
    <glyph glyph-name="adieresis" unicode="&#xe4;" horiz-adv-x="1284" 
d="M1161 29q0 -17 -4 -23t-12 -6h-291q-11 0 -15.5 5t-4.5 13v129q-13 -40 -42.5 -70t-68.5 -50.5t-85 -30.5t-93 -10q-103 0 -191.5 36t-153.5 104t-102 167t-37 225q0 116 38 213t103.5 167.5t152 109.5t184.5 39q52 0 97.5 -14t81 -37t60.5 -52t37 -59v125q0 14 3.5 19
t12.5 5h316q8 0 11 -5t3 -13v-987zM815 512q0 51 -16 90.5t-44 67.5t-65.5 42.5t-79.5 14.5q-48 0 -87 -16.5t-66 -45.5t-41.5 -69t-14.5 -88q0 -47 16.5 -86t45 -66.5t66.5 -43t81 -15.5q42 0 79.5 15.5t65.5 43.5t44 68t16 88zM1039 1139q0 -11 -4 -13.5t-11 -2.5h-323
q-8 0 -11.5 7t-3.5 15v199q0 6 2 12t13 6h321q8 0 12.5 -2t4.5 -16v-205zM543 1139q0 -11 -3.5 -13.5t-12.5 -2.5h-320q-8 0 -10 7t-2 15v199q0 6 1 12t9 6h322q9 0 12.5 -2t3.5 -16v-205z" />
    <glyph glyph-name="aring" unicode="&#xe5;" horiz-adv-x="1284" 
d="M1161 29q0 -17 -4 -23t-12 -6h-291q-11 0 -15.5 5t-4.5 13v129q-13 -40 -42.5 -70t-68.5 -50.5t-85 -30.5t-93 -10q-103 0 -191.5 36t-153.5 104t-102 167t-37 225q0 116 38 213t103.5 167.5t152 109.5t184.5 39q52 0 97.5 -14t81 -37t60.5 -52t37 -59v125q0 14 3.5 19
t12.5 5h316q8 0 11 -5t3 -13v-987zM815 512q0 51 -16 90.5t-44 67.5t-65.5 42.5t-79.5 14.5q-48 0 -87 -16.5t-66 -45.5t-41.5 -69t-14.5 -88q0 -47 16.5 -86t45 -66.5t66.5 -43t81 -15.5q42 0 79.5 15.5t65.5 43.5t44 68t16 88zM868 1346q0 -53 -20 -98.5t-54.5 -80
t-81 -54t-98.5 -19.5t-98.5 19.5t-81 54t-54.5 80t-20 98.5q0 52 20 98t54.5 80.5t81 54.5t98.5 20t98.5 -20t81 -54.5t54.5 -80.5t20 -98zM729 1346q0 24 -9 44.5t-25 36t-36.5 24.5t-44.5 9t-44.5 -9t-36.5 -24.5t-25 -36t-9 -44.5t9 -45t25 -36.5t36.5 -24.5t44.5 -9
t44.5 9t36.5 24.5t25 36.5t9 45z" />
    <glyph glyph-name="ae" unicode="&#xe6;" horiz-adv-x="1851" 
d="M1817 594q0 -54 -3.5 -84t-9.5 -55q0 -16 -9 -20.5t-32 -4.5h-612q0 -41 16 -74t44.5 -56.5t66.5 -36.5t82 -13q36 0 66.5 10t55 25.5t43 33.5t31.5 33q0 6 10.5 3.5t18.5 -13.5q16 -22 34.5 -48t37 -53t36.5 -53.5t33 -50.5q10 -14 6.5 -25t-16.5 -22
q-24 -21 -61.5 -42.5t-84.5 -39t-102 -28.5t-114 -11q-54 0 -115.5 12t-118.5 34.5t-104.5 54.5t-73.5 73q-35 -48 -83 -79.5t-102 -49.5t-109 -25t-103 -7q-99 0 -187 32.5t-154 99t-104.5 167t-38.5 237.5q0 123 36.5 222.5t101.5 169t154 107.5t194 38q43 0 84.5 -8.5
t76.5 -24t63 -39t44 -53.5v80q0 14 3.5 19t12.5 5h226q14 0 19 -15t3 -50q18 18 46 35t63.5 29.5t77.5 20t88 7.5q94 0 178.5 -32.5t147.5 -93t100 -147t37 -194.5zM1497 610q-6 82 -51 128t-123 46q-42 0 -73 -15t-51.5 -39.5t-32 -56t-15.5 -63.5h346zM815 512
q0 51 -16 90.5t-44 67.5t-65.5 42.5t-79.5 14.5q-48 0 -87 -16.5t-66 -45.5t-41.5 -69t-14.5 -88q0 -47 16.5 -86t45 -66.5t66.5 -43t81 -15.5q42 0 79.5 15.5t65.5 43.5t44 68t16 88z" />
    <glyph glyph-name="ccedilla" unicode="&#xe7;" horiz-adv-x="1114" 
d="M1092 262q-56 -115 -144.5 -188.5t-216.5 -98.5q23 -21 42.5 -53t19.5 -80q0 -60 -18 -112t-53 -90.5t-87.5 -61t-122.5 -22.5q-85 0 -149.5 40t-92.5 123q-6 21 9 21l145 65q2 -1 4 -1q2 -1 3.5 -1t2.5 -2q11 -20 26.5 -31.5t43.5 -11.5q16 0 33.5 5t32.5 17.5
t24.5 33.5t9.5 53q0 14 -4 29.5t-13 29.5t-22.5 25.5t-32.5 17.5q-104 12 -191 54.5t-149 111.5t-96.5 163t-34.5 208q0 118 39 220t110.5 177.5t172 118.5t223.5 43q84 0 159.5 -19t138 -57.5t110 -95.5t76.5 -133q0 -13 -1 -22t-12 -9l-268 -113q-6 0 -11 2.5t-5 10.5
q-10 22 -29 40t-43 31t-52.5 20t-56.5 7q-51 0 -90 -16.5t-66 -45.5t-41 -68.5t-14 -86.5q0 -48 16.5 -87.5t45 -67.5t67.5 -43t84 -15q31 0 59.5 8t51.5 22t40 32t26 38q0 11 8 14t22 -3l258 -111q11 -6 12 -15t1 -20z" />
    <glyph glyph-name="egrave" unicode="&#xe8;" horiz-adv-x="1094" 
d="M1063 594q0 -54 -3 -84t-9 -55q-3 -16 -10.5 -20.5t-30.5 -4.5h-613q1 -42 16.5 -75t43.5 -56.5t66 -36t83 -12.5q36 0 66.5 10t55 25.5t43.5 33.5t32 33q5 6 12.5 3.5t15.5 -13.5q16 -22 34.5 -48t37 -53t37 -53.5t33.5 -50.5q9 -14 5.5 -25t-15.5 -22
q-24 -21 -61.5 -42.5t-85 -39t-102.5 -28.5t-114 -11q-117 0 -215.5 37.5t-170.5 108.5t-112.5 173.5t-40.5 233.5q0 117 37.5 216t107.5 170.5t169.5 112t224.5 40.5q94 0 178.5 -32.5t147.5 -93t100 -147t37 -194.5zM743 610q-6 82 -50.5 128t-123.5 46q-42 0 -72.5 -15
t-51.5 -39.5t-32.5 -56t-15.5 -63.5h346zM717 1130q1 -3 -9 -9t-24.5 -10.5t-30 -7t-24.5 2.5q-56 26 -100 48t-85 43.5t-84 44.5t-98 50q-6 10 -10 18q-4 7 -5.5 13t1.5 8q57 37 120 74t134 82q5 3 7.5 3.5t8.5 -7.5q29 -54 52.5 -96t45.5 -81.5t46 -81t55 -94.5z" />
    <glyph glyph-name="eacute" unicode="&#xe9;" horiz-adv-x="1094" 
d="M1063 594q0 -54 -3 -84t-9 -55q-3 -16 -10.5 -20.5t-30.5 -4.5h-613q1 -42 16.5 -75t43.5 -56.5t66 -36t83 -12.5q36 0 66.5 10t55 25.5t43.5 33.5t32 33q5 6 12.5 3.5t15.5 -13.5q16 -22 34.5 -48t37 -53t37 -53.5t33.5 -50.5q9 -14 5.5 -25t-15.5 -22
q-24 -21 -61.5 -42.5t-85 -39t-102.5 -28.5t-114 -11q-117 0 -215.5 37.5t-170.5 108.5t-112.5 173.5t-40.5 233.5q0 117 37.5 216t107.5 170.5t169.5 112t224.5 40.5q94 0 178.5 -32.5t147.5 -93t100 -147t37 -194.5zM743 610q-6 82 -50.5 128t-123.5 46q-42 0 -72.5 -15
t-51.5 -39.5t-32.5 -56t-15.5 -63.5h346zM911 1331q3 -2 1.5 -8t-4.5 -13l-9 -18q-56 -27 -99.5 -49.5t-84.5 -44t-85 -43.5t-100 -49q-8 -4 -23 -1.5t-30 7t-25.5 10t-9.5 8.5q31 53 55 94.5t46.5 81t46 81.5t53.5 96q5 8 8 7.5t6 -3.5q71 -45 134 -82t120 -74z" />
    <glyph glyph-name="ecircumflex" unicode="&#xea;" horiz-adv-x="1094" 
d="M1063 594q0 -54 -3 -84t-9 -55q-3 -16 -10.5 -20.5t-30.5 -4.5h-613q1 -42 16.5 -75t43.5 -56.5t66 -36t83 -12.5q36 0 66.5 10t55 25.5t43.5 33.5t32 33q5 6 12.5 3.5t15.5 -13.5q16 -22 34.5 -48t37 -53t37 -53.5t33.5 -50.5q9 -14 5.5 -25t-15.5 -22
q-24 -21 -61.5 -42.5t-85 -39t-102.5 -28.5t-114 -11q-117 0 -215.5 37.5t-170.5 108.5t-112.5 173.5t-40.5 233.5q0 117 37.5 216t107.5 170.5t169.5 112t224.5 40.5q94 0 178.5 -32.5t147.5 -93t100 -147t37 -194.5zM743 610q-6 82 -50.5 128t-123.5 46q-42 0 -72.5 -15
t-51.5 -39.5t-32.5 -56t-15.5 -63.5h346zM925 1135q0 -9 -20 -9h-201q-6 0 -14.5 2t-16.5 9q-14 8 -31.5 23.5t-33.5 31.5q-18 18 -37 39q-17 -21 -35 -39q-15 -16 -33 -31.5t-32 -23.5q-5 -5 -12 -8t-15 -3h-211q-14 0 -14 9q0 2 4 5.5t10 8.5q6 6 31 30.5t59 57.5t73 70.5
t73 69.5t58 55t28 26q6 5 9 8.5t9 3.5t10 -4t11 -10q5 -4 28.5 -26t57 -53.5t71 -68t71 -69t57.5 -56.5l30 -30t11 -10.5t5 -7.5z" />
    <glyph glyph-name="edieresis" unicode="&#xeb;" horiz-adv-x="1094" 
d="M1063 594q0 -54 -3 -84t-9 -55q-3 -16 -10.5 -20.5t-30.5 -4.5h-613q1 -42 16.5 -75t43.5 -56.5t66 -36t83 -12.5q36 0 66.5 10t55 25.5t43.5 33.5t32 33q5 6 12.5 3.5t15.5 -13.5q16 -22 34.5 -48t37 -53t37 -53.5t33.5 -50.5q9 -14 5.5 -25t-15.5 -22
q-24 -21 -61.5 -42.5t-85 -39t-102.5 -28.5t-114 -11q-117 0 -215.5 37.5t-170.5 108.5t-112.5 173.5t-40.5 233.5q0 117 37.5 216t107.5 170.5t169.5 112t224.5 40.5q94 0 178.5 -32.5t147.5 -93t100 -147t37 -194.5zM743 610q-6 82 -50.5 128t-123.5 46q-42 0 -72.5 -15
t-51.5 -39.5t-32.5 -56t-15.5 -63.5h346zM996 1139q0 -11 -4 -13.5t-11 -2.5h-323q-8 0 -11.5 7t-3.5 15v199q0 6 2 12t13 6h321q8 0 12.5 -2t4.5 -16v-205zM500 1139q0 -11 -3.5 -13.5t-12.5 -2.5h-320q-8 0 -10 7t-2 15v199q0 6 1 12t9 6h322q9 0 12.5 -2t3.5 -16v-205z
" />
    <glyph glyph-name="igrave" unicode="&#xec;" horiz-adv-x="594" 
d="M471 23q0 -14 -3.5 -18.5t-14.5 -4.5h-314q-11 0 -13.5 3.5t-2.5 25.5v981q0 18 1.5 21t12.5 3h314q12 0 16 -3t4 -21v-987zM459 1132q1 -3 -9 -9t-24.5 -10.5t-30 -7t-24.5 2.5q-56 26 -100 48t-85 43.5t-84 44.5t-98 50q-6 10 -10 18q-4 7 -5.5 13t1.5 8q57 37 120 74
t134 82q5 3 7.5 3.5t8.5 -7.5q29 -54 52.5 -96t45.5 -81.5t46 -81t55 -94.5z" />
    <glyph glyph-name="iacute" unicode="&#xed;" horiz-adv-x="594" 
d="M471 23q0 -14 -3.5 -18.5t-14.5 -4.5h-314q-11 0 -13.5 3.5t-2.5 25.5v981q0 18 1.5 21t12.5 3h314q12 0 16 -3t4 -21v-987zM631 1339q3 -2 1.5 -8t-4.5 -13l-9 -18q-56 -27 -99.5 -49.5t-84.5 -44t-85 -43.5t-100 -49q-8 -4 -23 -1.5t-30 7t-25.5 10t-9.5 8.5
q31 53 55 94.5t46.5 81t46 81.5t53.5 96q5 8 8 7.5t6 -3.5q71 -45 134 -82t120 -74z" />
    <glyph glyph-name="icircumflex" unicode="&#xee;" horiz-adv-x="594" 
d="M471 23q0 -14 -3.5 -18.5t-14.5 -4.5h-314q-11 0 -13.5 3.5t-2.5 25.5v981q0 18 1.5 21t12.5 3h314q12 0 16 -3t4 -21v-987zM641 1135q0 -9 -20 -9h-201q-6 0 -14.5 2t-16.5 9q-14 8 -31.5 23.5t-33.5 31.5q-18 18 -37 39q-17 -21 -35 -39q-15 -16 -33 -31.5t-32 -23.5
q-5 -5 -12 -8t-15 -3h-211q-14 0 -14 9q0 2 4 5.5t10 8.5q6 6 31 30.5t59 57.5t73 70.5t73 69.5t58 55t28 26q6 5 9 8.5t9 3.5t10 -4t11 -10q5 -4 28.5 -26t57 -53.5t71 -68t71 -69t57.5 -56.5l30 -30t11 -10.5t5 -7.5z" />
    <glyph glyph-name="idieresis" unicode="&#xef;" horiz-adv-x="594" 
d="M471 23q0 -14 -3.5 -18.5t-14.5 -4.5h-314q-11 0 -13.5 3.5t-2.5 25.5v981q0 18 1.5 21t12.5 3h314q12 0 16 -3t4 -21v-987zM717 1139q0 -11 -4 -13.5t-11 -2.5h-323q-8 0 -11.5 7t-3.5 15v199q0 6 2 12t13 6h321q8 0 12.5 -2t4.5 -16v-205zM221 1139q0 -11 -3.5 -13.5
t-12.5 -2.5h-320q-8 0 -10 7t-2 15v199q0 6 1 12t9 6h322q9 0 12.5 -2t3.5 -16v-205z" />
    <glyph glyph-name="eth" unicode="&#xf0;" horiz-adv-x="1219" 
d="M1155 494q0 -122 -40.5 -220t-113 -166.5t-173 -105.5t-220.5 -37q-118 0 -218.5 36.5t-173.5 105t-114 166.5t-41 221q0 97 27.5 180.5t78 149.5t122 112t160.5 68q-56 45 -111 87.5t-109 84.5q-9 6 -7.5 13t7.5 13q22 22 48 50.5t53.5 58.5t54 59t49.5 53q13 15 27 0
q62 -57 127 -120t131 -129l76 64t71 59.5t59.5 49.5t41.5 35q14 13 26 -4q19 -23 32.5 -39t26.5 -31t28 -32.5t36 -42.5q6 -8 6 -13.5t-8 -13.5q-8 -7 -30.5 -26.5t-54.5 -46.5t-71 -59.5t-79 -65.5q42 -39 80 -78.5t73 -77.5q25 -28 47.5 -67.5t39.5 -86.5t26.5 -99
t9.5 -105zM815 504q0 51 -16 90t-44 66t-65.5 41t-79.5 14q-43 0 -81 -14.5t-66.5 -42t-45 -66.5t-16.5 -88q0 -48 17 -88t46 -68t67 -43.5t81 -15.5q42 0 79 15t64.5 42.5t43.5 67.5t16 90z" />
    <glyph glyph-name="ntilde" unicode="&#xf1;" horiz-adv-x="1214" 
d="M1098 31q0 -22 -4 -26.5t-17 -4.5h-309q-11 0 -14.5 3t-3.5 20v610q0 34 -10.5 59.5t-28 42.5t-41 25t-49.5 8q-62 0 -96.5 -28.5t-53.5 -69.5v-647q0 -14 -2.5 -18.5t-11.5 -4.5h-318q-11 0 -13.5 3.5t-2.5 25.5v981q0 18 1.5 21t12.5 3h301q23 0 23 -33v-133
q15 45 45 81.5t71 62t92.5 39.5t110.5 14q161 0 239.5 -85.5t78.5 -252.5v-696zM979 1348q-1 -5 -8.5 -24.5t-22 -45t-35 -54t-47.5 -53t-61 -40t-74 -15.5q-50 0 -83 14t-59 31q-14 9 -28 17.5t-29.5 16t-33 12t-38.5 4.5q-34 0 -58 -12.5t-46 -30.5q-11 -11 -22 -23
t-23 -23q-9 -6 -23 -0.5t-14 21.5q1 63 21.5 112.5t54.5 83.5t78.5 52t95.5 18q46 0 79.5 -13t59.5 -30q32 -21 59 -40t62 -19q31 0 54.5 5.5t41.5 14.5q19 11 33.5 22.5t30.5 22.5q4 4 11 3.5t12.5 -4.5t9 -10t2.5 -13z" />
    <glyph glyph-name="ograve" unicode="&#xf2;" horiz-adv-x="1219" 
d="M1155 514q0 -122 -40.5 -223t-113 -173.5t-173 -112.5t-220.5 -40q-118 0 -218.5 39.5t-173.5 112t-114 173.5t-41 224q0 117 40 218t112 175t172.5 116t222.5 42q120 0 220.5 -40.5t173 -113t113 -174t40.5 -223.5zM815 514q0 51 -16 91.5t-44 69.5t-65.5 44.5
t-79.5 15.5q-43 0 -81 -16t-66.5 -45.5t-45 -70t-16.5 -89.5q0 -48 17 -89.5t46 -71.5t67 -47t81 -17q42 0 79 16.5t64.5 46t43.5 71t16 91.5zM752 1134q1 -3 -9 -9t-24.5 -10.5t-30 -7t-24.5 2.5q-56 26 -100 48t-85 43.5t-84 44.5t-98 50q-6 10 -10 18q-4 7 -5.5 13t1.5 8
q57 37 120 74t134 82q5 3 7.5 3.5t8.5 -7.5q29 -54 52.5 -96t45.5 -81.5t46 -81t55 -94.5z" />
    <glyph glyph-name="oacute" unicode="&#xf3;" horiz-adv-x="1219" 
d="M1155 514q0 -122 -40.5 -223t-113 -173.5t-173 -112.5t-220.5 -40q-118 0 -218.5 39.5t-173.5 112t-114 173.5t-41 224q0 117 40 218t112 175t172.5 116t222.5 42q120 0 220.5 -40.5t173 -113t113 -174t40.5 -223.5zM815 514q0 51 -16 91.5t-44 69.5t-65.5 44.5
t-79.5 15.5q-43 0 -81 -16t-66.5 -45.5t-45 -70t-16.5 -89.5q0 -48 17 -89.5t46 -71.5t67 -47t81 -17q42 0 79 16.5t64.5 46t43.5 71t16 91.5zM960 1335q3 -2 1.5 -8t-4.5 -13l-9 -18q-56 -27 -99.5 -49.5t-84.5 -44t-85 -43.5t-100 -49q-8 -4 -23 -1.5t-30 7t-25.5 10
t-9.5 8.5q31 53 55 94.5t46.5 81t46 81.5t53.5 96q5 8 8 7.5t6 -3.5q71 -45 134 -82t120 -74z" />
    <glyph glyph-name="ocircumflex" unicode="&#xf4;" horiz-adv-x="1219" 
d="M1155 514q0 -122 -40.5 -223t-113 -173.5t-173 -112.5t-220.5 -40q-118 0 -218.5 39.5t-173.5 112t-114 173.5t-41 224q0 117 40 218t112 175t172.5 116t222.5 42q120 0 220.5 -40.5t173 -113t113 -174t40.5 -223.5zM815 514q0 51 -16 91.5t-44 69.5t-65.5 44.5
t-79.5 15.5q-43 0 -81 -16t-66.5 -45.5t-45 -70t-16.5 -89.5q0 -48 17 -89.5t46 -71.5t67 -47t81 -17q42 0 79 16.5t64.5 46t43.5 71t16 91.5zM956 1135q0 -9 -20 -9h-201q-6 0 -14.5 2t-16.5 9q-14 8 -31.5 23.5t-33.5 31.5q-18 18 -37 39q-17 -21 -35 -39
q-15 -16 -33 -31.5t-32 -23.5q-5 -5 -12 -8t-15 -3h-211q-14 0 -14 9q0 2 4 5.5t10 8.5q6 6 31 30.5t59 57.5t73 70.5t73 69.5t58 55t28 26q6 5 9 8.5t9 3.5t10 -4t11 -10q5 -4 28.5 -26t57 -53.5t71 -68t71 -69t57.5 -56.5l30 -30t11 -10.5t5 -7.5z" />
    <glyph glyph-name="otilde" unicode="&#xf5;" horiz-adv-x="1219" 
d="M1155 514q0 -122 -40.5 -223t-113 -173.5t-173 -112.5t-220.5 -40q-118 0 -218.5 39.5t-173.5 112t-114 173.5t-41 224q0 117 40 218t112 175t172.5 116t222.5 42q120 0 220.5 -40.5t173 -113t113 -174t40.5 -223.5zM815 514q0 51 -16 91.5t-44 69.5t-65.5 44.5
t-79.5 15.5q-43 0 -81 -16t-66.5 -45.5t-45 -70t-16.5 -89.5q0 -48 17 -89.5t46 -71.5t67 -47t81 -17q42 0 79 16.5t64.5 46t43.5 71t16 91.5zM973 1344q-1 -5 -8.5 -24.5t-22 -45t-35 -54t-47.5 -53t-61 -40t-74 -15.5q-50 0 -83 14t-59 31q-14 9 -28 17.5t-29.5 16t-33 12
t-38.5 4.5q-34 0 -58 -12.5t-46 -30.5q-11 -11 -22 -23t-23 -23q-9 -6 -23 -0.5t-14 21.5q1 63 21.5 112.5t54.5 83.5t78.5 52t95.5 18q46 0 79.5 -13t59.5 -30q32 -21 59 -40t62 -19q31 0 54.5 5.5t41.5 14.5q19 11 33.5 22.5t30.5 22.5q4 4 11 3.5t12.5 -4.5t9 -10
t2.5 -13z" />
    <glyph glyph-name="odieresis" unicode="&#xf6;" horiz-adv-x="1219" 
d="M1155 514q0 -122 -40.5 -223t-113 -173.5t-173 -112.5t-220.5 -40q-118 0 -218.5 39.5t-173.5 112t-114 173.5t-41 224q0 117 40 218t112 175t172.5 116t222.5 42q120 0 220.5 -40.5t173 -113t113 -174t40.5 -223.5zM815 514q0 51 -16 91.5t-44 69.5t-65.5 44.5
t-79.5 15.5q-43 0 -81 -16t-66.5 -45.5t-45 -70t-16.5 -89.5q0 -48 17 -89.5t46 -71.5t67 -47t81 -17q42 0 79 16.5t64.5 46t43.5 71t16 91.5zM1028 1139q0 -11 -4 -13.5t-11 -2.5h-323q-8 0 -11.5 7t-3.5 15v199q0 6 2 12t13 6h321q8 0 12.5 -2t4.5 -16v-205zM532 1139
q0 -11 -3.5 -13.5t-12.5 -2.5h-320q-8 0 -10 7t-2 15v199q0 6 1 12t9 6h322q9 0 12.5 -2t3.5 -16v-205z" />
    <glyph glyph-name="oslash" unicode="&#xf8;" horiz-adv-x="1219" 
d="M1174 987q5 -6 3 -14.5t-6 -11.5q-9 -9 -19 -18.5t-23.5 -22t-32 -29.5t-43.5 -41q49 -68 75.5 -152.5t26.5 -183.5q0 -122 -40.5 -223t-113 -173.5t-173 -112.5t-220.5 -40q-106 0 -196.5 31t-161.5 90q-24 -22 -40 -37t-28 -26.5t-21.5 -20t-19.5 -18.5q-13 -15 -26 6
q-21 28 -45 61q-13 12 2 25q7 7 15.5 14.5t19.5 18t26.5 25t36.5 34.5q-53 68 -81 155.5t-28 190.5q0 117 40 218t112 175t172.5 116t222.5 42q110 0 204 -33.5t165 -95.5q54 51 82 78.5t41 40.5q11 11 26 -8q10 -13 22.5 -28.5t25.5 -31.5zM733 702q-25 19 -57 29t-66 10
q-44 0 -83.5 -16.5t-68.5 -46.5t-46 -71.5t-17 -92.5q0 -29 7 -56.5t18 -51.5q77 72 157.5 148.5t155.5 147.5zM821 514q0 56 -18 98q-76 -72 -155 -146.5t-154 -146.5q26 -17 56 -26.5t62 -9.5q44 0 82 17t66.5 47.5t44.5 73t16 93.5z" />
    <glyph glyph-name="ugrave" unicode="&#xf9;" horiz-adv-x="1214" 
d="M1087 25q0 -19 -1.5 -22t-12.5 -3h-297q-12 0 -19 4.5t-7 26.5v102q-16 -45 -46 -76t-71 -50.5t-92.5 -28.5t-110.5 -9q-161 0 -240 86.5t-77 251.5l6 692q0 22 4 28.5t16 6.5h310q11 0 14.5 -5.5t3.5 -22.5l-6 -613q0 -35 10.5 -60t28 -42t41 -25t49.5 -8q62 0 98 28
t51 70v656q0 14 2.5 18t12.5 4h317q11 0 13.5 -3.5t2.5 -24.5v-981zM770 1132q1 -3 -9 -9t-24.5 -10.5t-30 -7t-24.5 2.5q-56 26 -100 48t-85 43.5t-84 44.5t-98 50q-6 10 -10 18q-4 7 -5.5 13t1.5 8q57 37 120 74t134 82q5 3 7.5 3.5t8.5 -7.5q29 -54 52.5 -96t45.5 -81.5
t46 -81t55 -94.5z" />
    <glyph glyph-name="uacute" unicode="&#xfa;" horiz-adv-x="1214" 
d="M1087 25q0 -19 -1.5 -22t-12.5 -3h-297q-12 0 -19 4.5t-7 26.5v102q-16 -45 -46 -76t-71 -50.5t-92.5 -28.5t-110.5 -9q-161 0 -240 86.5t-77 251.5l6 692q0 22 4 28.5t16 6.5h310q11 0 14.5 -5.5t3.5 -22.5l-6 -613q0 -35 10.5 -60t28 -42t41 -25t49.5 -8q62 0 98 28
t51 70v656q0 14 2.5 18t12.5 4h317q11 0 13.5 -3.5t2.5 -24.5v-981zM940 1333q3 -2 1.5 -8t-4.5 -13l-9 -18q-56 -27 -99.5 -49.5t-84.5 -44t-85 -43.5t-100 -49q-8 -4 -23 -1.5t-30 7t-25.5 10t-9.5 8.5q31 53 55 94.5t46.5 81t46 81.5t53.5 96q5 8 8 7.5t6 -3.5
q71 -45 134 -82t120 -74z" />
    <glyph glyph-name="ucircumflex" unicode="&#xfb;" horiz-adv-x="1214" 
d="M1087 25q0 -19 -1.5 -22t-12.5 -3h-297q-12 0 -19 4.5t-7 26.5v102q-16 -45 -46 -76t-71 -50.5t-92.5 -28.5t-110.5 -9q-161 0 -240 86.5t-77 251.5l6 692q0 22 4 28.5t16 6.5h310q11 0 14.5 -5.5t3.5 -22.5l-6 -613q0 -35 10.5 -60t28 -42t41 -25t49.5 -8q62 0 98 28
t51 70v656q0 14 2.5 18t12.5 4h317q11 0 13.5 -3.5t2.5 -24.5v-981zM956 1135q0 -9 -20 -9h-201q-6 0 -14.5 2t-16.5 9q-14 8 -31.5 23.5t-33.5 31.5q-18 18 -37 39q-17 -21 -35 -39q-15 -16 -33 -31.5t-32 -23.5q-5 -5 -12 -8t-15 -3h-211q-14 0 -14 9q0 2 4 5.5t10 8.5
q6 6 31 30.5t59 57.5t73 70.5t73 69.5t58 55t28 26q6 5 9 8.5t9 3.5t10 -4t11 -10q5 -4 28.5 -26t57 -53.5t71 -68t71 -69t57.5 -56.5l30 -30t11 -10.5t5 -7.5z" />
    <glyph glyph-name="udieresis" unicode="&#xfc;" horiz-adv-x="1214" 
d="M1087 25q0 -19 -1.5 -22t-12.5 -3h-297q-12 0 -19 4.5t-7 26.5v102q-16 -45 -46 -76t-71 -50.5t-92.5 -28.5t-110.5 -9q-161 0 -240 86.5t-77 251.5l6 692q0 22 4 28.5t16 6.5h310q11 0 14.5 -5.5t3.5 -22.5l-6 -613q0 -35 10.5 -60t28 -42t41 -25t49.5 -8q62 0 98 28
t51 70v656q0 14 2.5 18t12.5 4h317q11 0 13.5 -3.5t2.5 -24.5v-981zM1026 1139q0 -11 -4 -13.5t-11 -2.5h-323q-8 0 -11.5 7t-3.5 15v199q0 6 2 12t13 6h321q8 0 12.5 -2t4.5 -16v-205zM530 1139q0 -11 -3.5 -13.5t-12.5 -2.5h-320q-8 0 -10 7t-2 15v199q0 6 1 12t9 6h322
q9 0 12.5 -2t3.5 -16v-205z" />
    <glyph glyph-name="yacute" unicode="&#xfd;" horiz-adv-x="1065" 
d="M1065 1006q-36 -102 -76.5 -212.5t-84 -226t-88 -232.5t-89 -231.5t-87.5 -223t-83 -206.5q-3 -8 -6.5 -11t-15.5 -3h-297q-17 0 -21 4t2 21q8 23 20 53.5t25.5 64.5t27.5 69.5t28 68.5q32 78 67 163q-76 176 -147 343q-30 71 -63 147t-64.5 149.5t-60.5 141t-52 121.5
q-9 21 -1.5 24.5t21.5 3.5h322q15 0 18.5 -5t8.5 -17q7 -20 19.5 -52t27.5 -71t32 -82t33 -85q38 -99 82 -210q33 111 62 209q12 42 25 84.5t24 81.5t21 71.5t16 53.5q3 11 10 16.5t22 5.5h308q9 0 14 -8t0 -20zM846 1319q3 -2 1.5 -8t-4.5 -13l-9 -18q-56 -27 -99.5 -49.5
t-84.5 -44t-85 -43.5t-100 -49q-8 -4 -23 -1.5t-30 7t-25.5 10t-9.5 8.5q31 53 55 94.5t46.5 81t46 81.5t53.5 96q5 8 8 7.5t6 -3.5q71 -45 134 -82t120 -74z" />
    <glyph glyph-name="thorn" unicode="&#xfe;" horiz-adv-x="1298" 
d="M1223 520q0 -139 -38 -242t-105.5 -170.5t-160 -99t-200.5 -26.5q-39 1 -77.5 11t-72 26t-59.5 37.5t-39 45.5v-415q0 -17 -2.5 -22t-13.5 -5h-318q-9 0 -11.5 3.5t-2.5 25.5v1704q0 18 1.5 21t12.5 3h316q11 0 13.5 -3t2.5 -21v-482q13 24 41 49t64 46t78 34t83 13
q94 0 182.5 -30.5t156 -95.5t108.5 -165.5t41 -241.5zM883 512q0 50 -17 90t-45 68.5t-65.5 43.5t-77.5 15q-46 0 -84 -16t-65.5 -45t-42.5 -68.5t-15 -87.5q0 -52 18 -92.5t47.5 -68t68 -42t79.5 -14.5q39 0 75 15t63.5 43.5t44 68.5t16.5 90z" />
    <glyph glyph-name="ydieresis" unicode="&#xff;" horiz-adv-x="1065" 
d="M1065 1006q-36 -102 -76.5 -212.5t-84 -226t-88 -232.5t-89 -231.5t-87.5 -223t-83 -206.5q-3 -8 -6.5 -11t-15.5 -3h-297q-17 0 -21 4t2 21q8 23 20 53.5t25.5 64.5t27.5 69.5t28 68.5q32 78 67 163q-76 176 -147 343q-30 71 -63 147t-64.5 149.5t-60.5 141t-52 121.5
q-9 21 -1.5 24.5t21.5 3.5h322q15 0 18.5 -5t8.5 -17q7 -20 19.5 -52t27.5 -71t32 -82t33 -85q38 -99 82 -210q33 111 62 209q12 42 25 84.5t24 81.5t21 71.5t16 53.5q3 11 10 16.5t22 5.5h308q9 0 14 -8t0 -20zM957 1143q0 -11 -4 -13.5t-11 -2.5h-323q-8 0 -11.5 7
t-3.5 15v199q0 6 2 12t13 6h321q8 0 12.5 -2t4.5 -16v-205zM461 1143q0 -11 -3.5 -13.5t-12.5 -2.5h-320q-8 0 -10 7t-2 15v199q0 6 1 12t9 6h322q9 0 12.5 -2t3.5 -16v-205z" />
    <glyph glyph-name="breve" unicode="&#x2d8;" 
d="M889 1327q8 -8 7.5 -15.5t-11.5 -21.5q-30 -39 -64.5 -71t-78 -54.5t-99.5 -34.5t-129 -12q-70 0 -125 14t-99 38t-78.5 55.5t-61.5 66.5q-11 13 -11.5 20.5t8.5 16.5l22.5 20t28.5 24t28 23t20 17q19 16 35 -2q46 -57 102 -84t131 -27q33 0 66 5.5t64 18t58.5 33.5
t49.5 52q14 20 34 4q9 -7 22 -17.5t27.5 -22.5t28.5 -24.5t25 -21.5z" />
    <glyph glyph-name="dotaccent" unicode="&#x2d9;" 
d="M672 1153q0 -12 -5.5 -19.5t-15.5 -7.5h-276q-11 0 -17 8t-6 19v254q0 11 5.5 19t15.5 8h276q11 0 17 -5t6 -22v-254z" />
    <glyph glyph-name="radical" unicode="&#x221a;" horiz-adv-x="1358" 
d="M1360 1358q-50 -90 -106.5 -198.5t-115.5 -228.5t-117.5 -247.5t-114 -255.5t-105.5 -252t-90 -237q-8 -20 -13 -21t-14 2q-48 17 -77 29.5t-45.5 22.5t-23.5 18.5t-10 17.5q-35 97 -80.5 188t-104.5 161.5t-133 113.5t-167 43q-11 0 -14.5 10.5t-3 24.5t4.5 28.5t9 22.5
q18 34 41.5 81t46 96t42 94.5t30.5 76.5t27.5 40.5t39.5 4.5q69 -16 140 -68t132 -131.5t107 -182t66 -220.5q24 80 60.5 174t79 193t89 197.5t91 187.5t83 163.5t66.5 125.5q9 17 14.5 22t17.5 0q11 -4 32.5 -11.5t44.5 -16.5t43 -17.5t28 -13.5q10 -8 10 -13t-10 -24z" />
    <glyph glyph-name="nonbreakingspace" unicode="&#xa0;" horiz-adv-x="219" 
 />
    <glyph glyph-name="apple" unicode="&#xf8ff;" horiz-adv-x="1749" 
d="M1624 614q0 -105 -27.5 -202t-77.5 -182t-119.5 -155t-154.5 -120t-182.5 -77.5t-202.5 -27.5t-202.5 27.5t-182.5 77.5t-154.5 120t-119.5 155t-77.5 182t-27.5 202t27.5 202.5t77.5 182.5t119.5 154.5t154.5 119.5t182.5 77.5t202.5 27.5t202.5 -27.5t182.5 -77.5
t154.5 -119.5t119.5 -154.5t77.5 -182.5t27.5 -202.5zM1419 1006l-98 -60l-18 160l-134 -223l-260 108l47 111l82 82l-211 67l-217 -149l168 -27l4 -100l-219 -105l-205 199l19 -213l-98 68l149 -387l395 77l-260 -458l43 -105l99 49l137 451l-54 -447l95 -73l73 84l-51 440
l129 -428l117 -18l33 88l-264 421l395 -45zM979 1174l-66 -72l-71 -139l-27 98l25 35l-140 22l54 27l34 -10l-2 39l58 38zM1348 893l-62 -262l-72 78l-77 -54l-58 62l-63 -41l-92 82l-72 -96l-107 90l-45 -109l-75 57l-25 -71l-78 59l-69 -80l-78 187l67 -29l23 119l78 -99
l262 109l43 -107l33 127l303 -114l96 121l16 -82zM1145 193l-66 -37l-61 204zM918 109l-82 2l36 290zM723 328l-57 -219l-60 34z" />
    <glyph glyph-name="uni2117" unicode="&#x2117;" horiz-adv-x="1645" 
d="M1585 627q0 -111 -27.5 -213.5t-77 -191.5t-119 -162t-154 -125t-182 -80.5t-202.5 -28.5q-106 0 -203.5 28.5t-182.5 80.5t-154.5 125t-119 162t-77 191.5t-27.5 213.5t27.5 214t77 192t119 163t154.5 126t183 81t203 29t202.5 -29t182 -81t154 -126t119 -163t77 -192
t27.5 -214zM1456 627q0 93 -22.5 180.5t-64 163.5t-99.5 138.5t-128.5 107.5t-151 69.5t-167.5 24.5q-88 0 -169 -24.5t-151.5 -69.5t-128.5 -107.5t-99.5 -138.5t-64 -163t-22.5 -181t22.5 -181t64 -162.5t99.5 -138t128.5 -107t152 -69t168.5 -24.5t167.5 24.5t151 69
t128.5 107t99.5 138t64 162.5t22.5 181zM1231 739q0 -75 -22.5 -128.5t-61.5 -89t-91.5 -55t-111.5 -26.5q-14 -2 -40.5 -3t-54.5 -2q-33 -1 -69 -1v-207q0 -8 -2 -10t-8 -2h-248q-8 0 -9 1.5t-1 10.5v822q0 9 3.5 9.5t6.5 0.5h406q69 0 125 -23.5t95.5 -65.5t61 -101
t21.5 -130zM969 748q0 61 -33 89.5t-90 28.5h-66v-235l68 4q65 5 93 32t28 81z" />
    </font>
</defs>
</svg>
