<?xml version="1.0" standalone="no"?>
<!DOCTYPE svg PUBLIC "-//W3C//DTD SVG 1.1//EN" "http://www.w3.org/Graphics/SVG/1.1/DTD/svg11.dtd" >
<svg xmlns="http://www.w3.org/2000/svg" xmlns:xlink="http://www.w3.org/1999/xlink" version="1.1">
<metadata></metadata>
<defs>
<font id="futurabold" horiz-adv-x="1024" >
<font-face units-per-em="2048" ascent="1638" descent="-410" />
<missing-glyph horiz-adv-x="641" />
<glyph horiz-adv-x="0" />
<glyph unicode="&#xd;" horiz-adv-x="0" />
<glyph unicode=" "  horiz-adv-x="641" />
<glyph unicode="&#x09;" horiz-adv-x="641" />
<glyph unicode="&#xa0;" horiz-adv-x="641" />
<glyph unicode="!" horiz-adv-x="702" d="M150 164q0 84 59 143q57 60 141 60q88 0 146 -58q57 -57 57 -145q0 -83 -59 -144q-61 -59 -144 -59q-80 0 -141 59q-59 59 -59 144zM166 487v1045h371v-1045h-371z" />
<glyph unicode="&#x22;" horiz-adv-x="713" d="M76 877v561h219v-561h-219zM416 877v561h223v-561h-223z" />
<glyph unicode="#" horiz-adv-x="1575" d="M23 381l86 231h270l82 230h-283l86 231h279l141 393h250l-139 -393h235l141 393h250l-139 -393h270l-86 -231h-268l-80 -230h277l-84 -231h-275l-141 -393h-250l139 393h-235l-141 -393h-250l139 393h-274zM625 610h245l82 232h-245z" />
<glyph unicode="$" horiz-adv-x="1280" d="M57 182l181 293q86 -101 176 -149q89 -50 180 -50q74 0 125 43q49 43 49 109q0 70 -41 111q-47 39 -190 77q-225 62 -316 154q-90 93 -90 254q0 200 125 322q129 124 348 145v139h129v-137q97 -10 172 -41q81 -29 166 -86l-127 -285q-69 60 -137 86q-72 29 -143 29 q-73 0 -115 -33q-45 -32 -45 -88q0 -55 39 -88q38 -32 153 -63q-1 0 13 -4q245 -65 323 -146q53 -53 80 -129t27 -166q0 -209 -125 -346q-126 -135 -338 -158v-243h-129v239q-144 3 -260 54q-119 51 -230 157z" />
<glyph unicode="%" horiz-adv-x="1851" d="M49 1075q0 183 103 295q101 109 274 109t274 -109q103 -112 103 -295q0 -184 -103 -293q-101 -110 -274 -110q-172 0 -274 108q-103 112 -103 295zM299 1075q0 -132 31 -190q28 -60 96 -60t96 60q31 58 31 190q0 135 -31 193q-26 57 -96 57t-96 -57q-31 -58 -31 -193z M393 -39l879 1518h188l-885 -1518h-182zM1067 367q0 185 102 295q103 108 275 108t274 -108q101 -107 101 -295q0 -187 -103 -295q-100 -111 -272 -111q-173 0 -275 111q-102 108 -102 295zM1317 367q0 -135 31 -193q27 -59 96 -59t96 59q31 58 31 193q0 132 -31 190 q-27 59 -96 59t-96 -59q-31 -58 -31 -190z" />
<glyph unicode="&#x26;" horiz-adv-x="1651" d="M115 369q0 142 82 243q79 107 258 199q-67 75 -103 154q-33 73 -33 147q0 146 115 246q118 98 291 98q201 0 315 -96q115 -100 115 -264q0 -108 -61 -199q-68 -94 -189 -170l172 -180q36 29 103 92q42 41 102 111l209 -215q-42 -51 -100 -115q-59 -59 -101 -92l318 -328 h-443l-129 150q-100 -96 -221 -144q-113 -45 -258 -45q-193 0 -317 115q-125 113 -125 293zM467 395q0 -65 45 -106q42 -45 111 -45q51 0 102 26q52 25 111 78l-236 258q-69 -60 -100 -110q-33 -50 -33 -101zM623 1092q0 -23 16 -60q14 -33 37 -63l57 -70l47 39q48 40 76 84 q27 40 27 80q0 51 -33 86q-37 33 -92 33q-64 0 -99.5 -33.5t-35.5 -95.5z" />
<glyph unicode="'" horiz-adv-x="371" d="M76 877v561h219v-561h-219z" />
<glyph unicode="(" horiz-adv-x="743" d="M104 518q0 285 89 524q88 242 272 465l227 -147q-149 -178 -219 -379q-70 -204 -70 -463q0 -243 68 -450q70 -207 213 -385l-219 -152q-185 225 -272 465q-89 240 -89 522z" />
<glyph unicode=")" horiz-adv-x="743" d="M51 1360l230 147q90 -109 159 -227.5t111 -235.5q88 -240 88 -526q0 -282 -88 -524q-42 -117 -109.5 -233t-160.5 -230l-220 152q141 175 213 385q68 207 68 450q0 257 -70.5 461t-220.5 381z" />
<glyph unicode="*" horiz-adv-x="1067" d="M160 995l243 99l-243 96l102 176l205 -158l-37 256h205l-35 -256l205 160l100 -178l-239 -96l241 -99l-102 -176l-205 160l35 -258h-203l33 258l-203 -160z" />
<glyph unicode="+" horiz-adv-x="1706" d="M254 496v231h481v494h238v-494h479v-231h-479v-496h-238v496h-481z" />
<glyph unicode="," horiz-adv-x="639" d="M27 -295l213 627h372l-309 -627h-276z" />
<glyph unicode="-" horiz-adv-x="1706" d="M254 494v235h1198v-235h-1198z" />
<glyph unicode="." horiz-adv-x="639" d="M119 164q0 86 57 143q58 58 143 58q88 0 146 -58q57 -57 57 -143q0 -87 -57 -144q-61 -59 -146 -59q-82 0 -143 59q-57 57 -57 144z" />
<glyph unicode="/" horiz-adv-x="938" d="M0 -190l717 1687h221l-715 -1687h-223z" />
<glyph unicode="0" horiz-adv-x="1280" d="M86 721q0 178 37.5 317t112.5 240q148 201 405 201q261 0 408 -201q145 -207 145 -571q0 -347 -147 -547q-148 -199 -406 -199t-405 203q-48 64 -83 150.5t-51 186.5t-16 220zM455 721q0 -244 45 -350q45 -111 141 -111q94 0 139 111q45 106 45 350q0 241 -45 348 q-45 113 -139 113q-99 0 -141 -109q-45 -107 -45 -352z" />
<glyph unicode="1" horiz-adv-x="1280" d="M178 1118l172 332h506v-1450h-364v1118h-314z" />
<glyph unicode="2" horiz-adv-x="1280" d="M39 0l657 778q64 77 88 129q29 60 29 107q0 77 -47 127q-52 47 -129 47q-94 0 -143 -60q-52 -61 -52 -174v-18h-352v10q0 247 146 391q143 144 397 144q246 0 391 -127q147 -126 147 -338q0 -101 -47 -201q-47 -99 -151 -213l-264 -291h448v-311h-1118z" />
<glyph unicode="3" horiz-adv-x="1280" d="M84 471v14h371v-24q0 -98 45 -146q46 -49 133 -49q89 0 141 47q49 46 49 138q0 102 -53 149t-164 47h-26q-7 -2 -19 -2v236h21q101 0 155 45q54 43 54 127q0 69 -46 108q-44 43 -116 43q-76 0 -117 -41q-42 -38 -45 -116h-354q3 203 143 319q137 113 391 113 q224 0 352 -101q129 -100 129 -276q0 -110 -59 -189q-61 -80 -172 -112q137 -25 213 -119.5t76 -241.5q0 -214 -152 -346q-151 -133 -395 -133q-256 0 -406 137q-149 137 -149 373z" />
<glyph unicode="4" horiz-adv-x="1280" d="M55 328v286l545 842h455v-842h162v-288l-162 2v-328h-334v328h-666zM362 614h359v426q0 47 4 101q0 40 6 67q-20 -47 -43 -86q-7 -13 -57 -98z" />
<glyph unicode="5" horiz-adv-x="1280" d="M121 78l26 354l31 -6q50 -78 144 -127q89 -47 194 -47q139 0 215 67q76 64 76 187q0 117 -82 190q-83 74 -213 74q-88 0 -160 -29q-64 -27 -127 -90l-49 29l121 770h797v-299h-555l-29 -188q68 13 90 16q62 4 90 4q222 0 352 -133q129 -132 129 -363q0 -242 -159 -385 q-163 -141 -441 -141q-136 0 -247 31q-114 27 -203 86z" />
<glyph unicode="6" horiz-adv-x="1280" d="M90 492q0 130 51 258q49 131 211 383l205 317h408l-342 -516q40 11 73 16q37 6 80 6q189 0 307 -131q123 -132 123 -331q0 -242 -151 -388q-156 -145 -410 -145q-256 0 -405 143q-47 44 -82 105.5t-51.5 130.5t-16.5 152zM420 475q0 -102 59 -164q59 -59 162 -59t162 59 q59 62 59 164q0 104 -59 166q-59 59 -162 59t-162 -59q-59 -62 -59 -166z" />
<glyph unicode="7" horiz-adv-x="1280" d="M127 1122v328h1118v-70l-637 -1380h-413l550 1122h-618z" />
<glyph unicode="8" horiz-adv-x="1280" d="M82 403q0 153 80 254q76 98 221 125q-114 28 -178 107q-64 76 -64 194q0 188 131 291q132 105 367 105q237 0 369 -105q131 -103 131 -291q0 -118 -64 -194q-64 -79 -178 -107q145 -27 221 -125q80 -101 80 -254q0 -208 -147.5 -325t-411.5 -117q-261 0 -410 117 q-147 117 -147 325zM438 449q0 -89 56 -142q51 -53 145 -53q97 0 149 51q54 54 54 144q0 87 -54 141q-52 51 -149 51q-95 0 -147 -51q-54 -54 -54 -141zM467 1069q0 -76 47 -123q45 -45 125 -45q82 0 127 45q47 47 47 123q0 78 -45 123q-46 43 -129 43q-81 0 -127 -43 q-45 -45 -45 -123z" />
<glyph unicode="9" horiz-adv-x="1280" d="M86 946q0 245 152 389q151 146 407 146t406 -144q149 -143 149 -387q0 -134 -57 -274q-26 -64 -77 -156t-128 -211l-203 -309h-407l342 508q-44 -12 -72 -16q-38 -7 -82 -7q-188 0 -307 131q-123 129 -123 330zM430 965q0 -103 59 -164q60 -60 162 -60t161.5 59.5 t59.5 164.5q0 104 -59.5 164.5t-161.5 60.5t-162 -60q-59 -62 -59 -165z" />
<glyph unicode=":" horiz-adv-x="702" d="M150 164q0 84 59 143q55 58 141 58q88 0 146 -58q57 -57 57 -143q0 -83 -59 -144q-61 -59 -144 -59q-80 0 -141 59q-59 59 -59 144zM150 799q0 84 59 143q54 57 141 57q89 0 146 -57t57 -143q0 -83 -59 -144q-59 -59 -144 -59q-82 0 -141 59t-59 144z" />
<glyph unicode=";" horiz-adv-x="702" d="M53 -295l213 627h373l-309 -627h-277zM244 799q0 84 59 143q57 57 143 57q87 0 144 -57t57 -143q0 -87 -57 -144q-59 -59 -144 -59q-84 0 -143 59t-59 144z" />
<glyph unicode="&#x3c;" horiz-adv-x="1706" d="M264 494v233l1178 487v-253l-854 -351l854 -348v-254z" />
<glyph unicode="=" horiz-adv-x="1706" d="M254 272v230h1198v-230h-1198zM254 719v231h1198v-231h-1198z" />
<glyph unicode="&#x3e;" horiz-adv-x="1706" d="M264 8v254l854 348l-854 351v253l1178 -487v-233z" />
<glyph unicode="?" horiz-adv-x="1239" d="M127 1104v4q0 193 138.5 310.5t373.5 117.5q213 0 342 -123t129 -323q0 -166 -88 -273q-90 -105 -234 -108l-2 -213h-344v413h109q113 0 172 45q57 45 57 133q0 69 -45 116.5t-112 47.5q-69 0 -109 -37q-42 -40 -45 -110h-342zM399 164q0 83 60 143t143 60q86 0 143 -58 q58 -58 58 -145q0 -86 -58.5 -144.5t-142.5 -58.5q-82 0 -143 59q-60 60 -60 144z" />
<glyph unicode="@" horiz-adv-x="2048" d="M82 520q0 166 53 322q27 75 66 144t90 132q148 183 360 279q212 94 467 94q173 0 319.5 -45t260.5 -133q140 -110 203 -244q67 -134 67 -305q0 -165 -65 -307q-64 -137 -191 -240q-68 -54 -153 -86q-93 -29 -177 -29q-107 0 -161 39q-57 42 -60 121q-53 -78 -127 -121 q-72 -37 -168 -37q-165 0 -248 89q-83 86 -83 256q0 243 143 405q137 162 348 162q78 0 133 -31q56 -29 96 -92l52 92h206l-153 -610v-6q-4 -26 -4 -27q0 -30 16 -43q16 -16 47 -16q138 0 242 143q102 144 102 336q0 242 -180 391q-178 150 -467 150q-140 0 -274 -35 q-124 -37 -230 -111q-156 -111 -239.5 -274t-83.5 -357q0 -303 203 -481q201 -180 544 -180q166 0 316 49q154 48 280 137l97 -135q-75 -57 -160.5 -101.5t-167.5 -72.5q-177 -59 -365 -59q-192 0 -354 49q-79 23 -149.5 58.5t-139.5 86.5q-77 60 -134.5 130t-98.5 153 q-39 82 -58.5 172t-19.5 188zM778 444q0 -80 35 -129q34 -45 98 -45q82 0 148 60q63 57 88 157l51 209q-9 75 -49 115q-41 41 -111 41q-102 0 -182 -121q-78 -125 -78 -287z" />
<glyph unicode="A" horiz-adv-x="1479" d="M-16 0l505 1464h500l506 -1464h-397l-74 262h-567l-76 -262h-397zM543 547h397l-149 483q-5 13 -19 72q-17 69 -31 125q-14 -51 -24 -103q-16 -50 -27 -94z" />
<glyph unicode="B" horiz-adv-x="1389" d="M156 0v1464h401q242 0 346 -16q97 -15 170 -55q80 -47 123 -119q43 -76 43 -176q0 -127 -63.5 -199.5t-202.5 -110.5q152 -12 244 -108q88 -98 88 -262q0 -116 -50 -205q-50 -92 -141 -139q-70 -37 -184 -58q-118 -16 -361 -16h-413zM526 299h140q142 0 200 37 q60 34 60 117q0 90 -54 129q-54 36 -200 36h-146v-319zM526 879h80q149 0 203 32q55 34 55 113q0 83 -51 117q-56 35 -201 35h-86v-297z" />
<glyph unicode="C" horiz-adv-x="1286" d="M94 731q0 166 56 305q25 67 63.5 126.5t99.5 123.5q105 108 236 160q130 53 289 53q91 0 190 -22q98 -26 189 -70v-436q-86 93 -162 135q-85 41 -176 41q-171 0 -279 -117q-37 -42 -60 -87.5t-34.5 -103t-11.5 -116.5q0 -176 108 -293q109 -115 277 -115q90 0 176 43 q76 39 162 134v-437q-111 -52 -189 -69q-97 -23 -190 -23q-118 0 -222 28.5t-186 86.5q-164 112 -250 276q-86 170 -86 377z" />
<glyph unicode="D" horiz-adv-x="1569" d="M156 0v1464h305q346 0 483 -32q142 -32 248 -107q140 -96 211 -248q72 -153 72 -346t-72 -346q-71 -150 -211 -248q-110 -75 -242 -104q-132 -33 -422 -33h-67h-305zM551 328h67q236 0 343 98q108 96 108 305q0 208 -108 307t-343 99h-67v-809z" />
<glyph unicode="E" horiz-adv-x="1161" d="M156 0v1464h897v-321h-508v-254h479v-314h-479v-247h508v-328h-897z" />
<glyph unicode="F" horiz-adv-x="1114" d="M156 0v1464h897v-321h-508v-254h479v-314h-479v-575h-389z" />
<glyph unicode="G" horiz-adv-x="1726" d="M94 731q0 162 56 301q56 135 167 248q106 106 252 162q144 55 308 55q214 0 380 -86q53 -26 104.5 -64.5t95 -85.5t79.5 -102l-346 -166q-62 85 -139 127q-79 41 -174 41q-180 0 -281 -119q-102 -118 -102 -327q0 -210 102 -330q101 -119 281 -119q153 0 253 76 q104 75 119 197h-397v307h784q0 -21 2 -33v-53q0 -379 -198 -586q-200 -209 -563 -209q-173 0 -316 53q-138 53 -248 164q-105 107 -161 248q-30 75 -44 150.5t-14 150.5z" />
<glyph unicode="H" horiz-adv-x="1642" d="M156 0v1464h399v-569h532v569h400v-1464h-400v596h-532v-596h-399z" />
<glyph unicode="I" horiz-adv-x="735" d="M166 0v1464h403v-1464h-403z" />
<glyph unicode="J" horiz-adv-x="981" d="M-25 195l244 221q9 -68 41 -101q36 -34 84 -34q59 0 80 63q18 64 18 315v805h400v-950q0 -160 -21 -238q-17 -78 -65 -147q-65 -87 -150 -125q-87 -43 -200 -43q-136 0 -246 59q-104 56 -185 175z" />
<glyph unicode="K" horiz-adv-x="1485" d="M156 0v1464h395v-665l463 665h465l-541 -714l588 -750h-498l-477 657v-657h-395z" />
<glyph unicode="L" horiz-adv-x="1090" d="M156 0v1464h399v-1122h496v-342h-895z" />
<glyph unicode="M" horiz-adv-x="1894" d="M57 0l226 1464h395l221 -755q6 -21 8 -27q29 -94 39 -172q2 27 15 88q4 15 30 113l223 753h396l225 -1464h-373l-86 633q-11 85 -16 149q-7 63 -14 179q-18 -104 -56 -232q-8 -25 -12 -43l-199 -686h-266l-199 686q-3 17 -12 43q-42 135 -55 232q-8 -110 -15 -164 q-3 -28 -9 -82t-9 -82l-86 -633h-371z" />
<glyph unicode="N" horiz-adv-x="1745" d="M156 0v1464h385l553 -753q21 -31 53 -93q41 -80 80 -165q-15 115 -17 161q-6 72 -6 127v723h383v-1464h-383l-553 756q-12 16 -53 94q-36 64 -80 162q10 -78 19 -162q4 -94 4 -127v-723h-385z" />
<glyph unicode="O" horiz-adv-x="1753" d="M94 729q0 153 60 295q62 145 170 248q110 110 254 168q140 57 299 57t301 -57.5t253.5 -167.5t170.5 -248q57 -138 57 -295q0 -159 -57 -297q-57 -135 -170 -246q-112 -108 -256 -166q-151 -59 -299 -59q-150 0 -299 59q-147 59 -254 166q-108 103 -170 248 q-60 142 -60 295zM494 729q0 -191 106 -309q109 -121 277 -121q165 0 276 123q55 61 81 137t26 170q0 183 -109 307q-111 123 -274 123q-167 0 -275 -123t-108 -307z" />
<glyph unicode="P" horiz-adv-x="1298" d="M156 0v1464h417q243 0 345 -24q100 -26 167 -82q80 -67 123 -166q43 -101 43 -225q0 -132 -43 -230q-38 -99 -123 -164q-61 -48 -147 -69q-77 -21 -268 -21h-68h-72v-483h-374zM530 805h76q142 0 201 41q57 38 57 133q0 91 -55.5 130.5t-198.5 39.5h-80v-344z" />
<glyph unicode="Q" horiz-adv-x="1753" d="M94 731q0 153 60 294.5t170 248.5q108 107 251 166q142 57 302 57q159 0 301 -57q142 -59 252 -166q112 -111 169 -248q60 -142 60 -295q0 -160 -60 -305q-59 -137 -176 -244l267 -354h-340l-156 205q-59 -32 -141 -51q-80 -17 -170 -17q-131 0 -240 33q-113 33 -213 98 q-156 105 -246 275q-90 171 -90 360zM494 729q0 -188 108 -311q111 -123 277 -123q20 0 49 6q22 3 51 16l-207 267h346l76 -101q34 48 49 111q17 66 17 125q0 192 -107 317q-110 125 -276 125q-163 0 -273 -125q-110 -122 -110 -307z" />
<glyph unicode="R" horiz-adv-x="1313" d="M156 0v1464h417q121 0 204.5 -5t137.5 -17q93 -22 166 -76q80 -60 121 -154q43 -90 43 -204q0 -169 -84 -277q-82 -108 -243 -141l399 -590h-451l-336 573v-573h-374zM530 772h74q131 0 189 43q59 48 59 139q0 110 -55 156q-56 47 -187 47h-80v-385z" />
<glyph unicode="S" horiz-adv-x="1190" d="M41 176l180 297q92 -102 176 -151q88 -50 172 -50q79 0 131 43t52 109q0 72 -43 113q-46 39 -203 81q-214 58 -303 150q-90 94 -90 256q0 210 141 342q139 133 364 133q127 0 230 -33q108 -33 205 -98l-125 -287q-66 57 -140 88q-72 29 -141 29q-70 0 -117 -35 q-45 -33 -45 -88q0 -53 39 -88q41 -33 154 -63q4 -1 7 -1.5t9 -2.5q244 -65 322 -146q51 -51 80 -129q26 -74 26 -168q0 -232 -153 -375q-154 -141 -408 -141q-156 0 -278.5 51t-241.5 164z" />
<glyph unicode="T" horiz-adv-x="1133" d="M39 1118v346h1055v-346h-328v-1118h-399v1118h-328z" />
<glyph unicode="U" horiz-adv-x="1597" d="M145 690v152v622h400v-712q0 -163 8 -226q10 -75 27 -114q21 -57 79 -84q58 -31 140 -31q81 0 139 31q53 26 80 84q16 40 26 114q9 60 9 226v100v612h397v-774q0 -238 -29 -354q-27 -115 -98 -197q-78 -91 -207 -133q-128 -45 -317 -45q-193 0 -318 45q-127 42 -207 133 q-69 80 -98 197q-31 118 -31 354z" />
<glyph unicode="V" horiz-adv-x="1456" d="M-39 1464h424l293 -819l4 -13q3 -14 12 -48q12 -52 33 -135q13 60 31 120q13 59 20 76l291 819h424l-614 -1464h-304z" />
<glyph unicode="W" horiz-adv-x="1987" d="M-20 1464h403l168 -700q8 -35 24 -109q16 -78 21 -110q13 62 20 88q18 82 31 131l184 700h322l184 -696q12 -42 25 -98q4 -20 11 -57.5t11 -59.5q14 65 25 129q6 31 21 86l172 696h403l-414 -1464h-370l-181 625q-19 70 -32 129q-1 6 -6 24t-11 43q-2 -7 -14 -59 q-18 -80 -35 -137l-178 -625h-371z" />
<glyph unicode="X" horiz-adv-x="1446" d="M-29 0l543 768l-491 696h475l176 -340q2 -2 2 -4q36 -71 47 -116q9 43 45 108q3 9 6 12l176 340h475l-489 -704l541 -760h-453l-250 434q-8 15 -18 35t-13 25q-7 17 -20 61q-11 -43 -21 -66q-5 -12 -28 -55l-250 -434h-453z" />
<glyph unicode="Y" horiz-adv-x="1223" d="M-96 1464h458l197 -377q3 -3 6 -12q31 -57 43 -112q9 48 43 108l8 16l195 377h459l-512 -796v-668h-385v668z" />
<glyph unicode="Z" horiz-adv-x="1386" d="M4 0l739 1147h-593v317h1232l-737 -1145h653v-319h-1294z" />
<glyph unicode="[" horiz-adv-x="743" d="M180 -461v1958h508v-242h-219v-1474h219v-242h-508z" />
<glyph unicode="\" horiz-adv-x="938" d="M0 1497h223l715 -1687h-221z" />
<glyph unicode="]" horiz-adv-x="743" d="M57 -219h217v1474h-217v242h506v-1958h-506v242z" />
<glyph unicode="^" horiz-adv-x="2048" d="M414 899l465 563h288l465 -563h-264l-344 342l-346 -342h-264z" />
<glyph unicode="_" d="M0 -244h1024v-239h-1024v239z" />
<glyph unicode="`" d="M223 1497h281l182 -350h-154z" />
<glyph unicode="a" horiz-adv-x="1352" d="M80 504q0 248 127 393t340 145q114 0 196 -49q83 -47 142 -149v166h329v-1010h-327v164q-71 -105 -158.5 -154t-204.5 -49q-203 0 -323 148q-59 73 -90 172t-31 223zM432 506q0 -119 64 -187q61 -67 170 -67q108 0 171.5 67t63.5 187t-63 186q-64 70 -172 70t-170 -68 q-64 -70 -64 -188z" />
<glyph unicode="b" horiz-adv-x="1352" d="M133 0v1550h340v-528q0 -78 -2 -107q-4 -51 -8 -73q63 109 143 153q80 47 209 47q202 0 328 -147q125 -149 125 -391q0 -249 -125 -395q-126 -148 -340 -148q-107 0 -189 51q-85 49 -153 152v-164h-328zM449 504q0 -121 63 -187q58 -67 168 -67q109 0 170 67t61 187 q0 119 -61 186q-62 68 -170 68q-109 0 -168 -68q-63 -66 -63 -186z" />
<glyph unicode="c" horiz-adv-x="944" d="M74 504q0 239 146.5 388.5t379.5 149.5q73 0 139 -16q64 -16 117 -47v-301q-52 46 -100 67q-43 21 -101 21q-107 0 -168 -70q-63 -69 -63 -190q0 -116 65 -184q63 -70 175 -70q53 0 102 22q52 25 90 66v-309q-64 -34 -129 -54q-69 -16 -131 -16q-234 0 -377 150 q-49 50 -80.5 110t-48 130t-16.5 153z" />
<glyph unicode="d" horiz-adv-x="1352" d="M84 504q0 240 127 391q126 147 326 147q128 0 208 -47q77 -43 144 -153q-4 27 -8 82q-4 60 -4 98v528h342v-1550h-328v164q-68 -103 -154 -152q-80 -51 -188 -51q-212 0 -338.5 148t-126.5 395zM438 504q0 -119 62 -187q61 -67 170 -67q108 0 172 67q61 67 61 187 q0 119 -61 186q-65 68 -172 68q-108 0 -170 -68t-62 -186z" />
<glyph unicode="e" horiz-adv-x="1251" d="M74 494q0 235 159 393q159 155 404 155q250 0 395 -157q74 -81 110 -188.5t36 -245.5v-17h-768q3 -118 59 -180q58 -64 168 -64q80 0 137 31q58 33 84 90l268 -108q-47 -115 -170 -178q-122 -64 -299 -64q-264 0 -424 148q-159 144 -159 385zM418 635h409q-9 84 -65 137 t-137 53q-85 0 -138 -47q-55 -53 -69 -143z" />
<glyph unicode="f" horiz-adv-x="719" d="M14 758v252h152v207q0 175 96 266q95 88 287 88q13 0 65 -4q56 -9 80 -15v-272q-18 7 -45 14q-28 4 -37 4q-52 0 -73 -30q-23 -32 -23 -97v-161h178v-252h-178v-758h-350v758h-152z" />
<glyph unicode="g" horiz-adv-x="1352" d="M80 512q0 242 127 387q63 72 148.5 107.5t191.5 35.5q113 0 196 -47q82 -44 142 -147v162h329v-1008q0 -229 -139 -338q-67 -54 -176 -82t-256 -28q-239 0 -371 88q-132 89 -141 247h369q10 -48 53 -73q44 -27 117 -27q114 0 159 55q43 55 43 234v92q-57 -96 -143 -141 q-89 -47 -207 -47q-200 0 -321 145q-59 71 -90 167.5t-31 217.5zM428 508q0 -118 64 -182q65 -68 174 -68q107 0 172 68q63 63 63 182q0 117 -61 184q-66 66 -174 66t-174 -66q-64 -67 -64 -184z" />
<glyph unicode="h" horiz-adv-x="1337" d="M131 0v1550h350v-544q0 -39 -4 -101q-3 -54 -8 -82q67 113 158 166q92 53 217 53q99 0 176 -30q76 -34 123 -92q43 -58 57 -123q17 -83 17 -219v-578h-357v541q0 123 -39 176q-39 55 -127 55q-110 0 -162 -82q-51 -82 -51 -266v-424h-350z" />
<glyph unicode="i" horiz-adv-x="639" d="M123 0v1010h356v-1010h-356zM168 1270h2q0 56 39 92q39 39 94 39q58 0 95.5 -37t37.5 -94q0 -58 -39 -96q-38 -39 -94 -39q-57 0 -96 41q-39 38 -39 94z" />
<glyph unicode="j" horiz-adv-x="639" d="M123 1325q0 83 57 137q58 58 139 58q83 0 142 -56q55 -55 55 -139t-57.5 -141.5t-139.5 -57.5q-79 0 -139 60q-57 57 -57 139zM141 -446v1456h357v-1456h-357z" />
<glyph unicode="k" horiz-adv-x="1313" d="M133 0v1550h350v-981l367 441h442l-454 -486l495 -524h-469l-381 449v-449h-350z" />
<glyph unicode="l" horiz-adv-x="639" d="M141 0v1550h357v-1550h-357z" />
<glyph unicode="m" horiz-adv-x="1942" d="M131 0v1010h350v-176q64 106 146 157q80 51 194 51q123 0 203 -47q76 -48 111 -143q61 99 145 143q83 47 199 47q91 0 159 -30q70 -33 115 -92q38 -47 53 -111q15 -59 15 -209v-22v-578h-355v551q0 130 -30 180q-34 51 -113 51q-101 0 -139 -69q-39 -68 -39 -285v-428 h-344v551q0 135 -33 182q-30 49 -111 49q-101 0 -141 -67q-39 -68 -39 -287v-428h-346z" />
<glyph unicode="n" horiz-adv-x="1337" d="M131 0v1010h326v-205q69 120 164 180q92 57 223 57q99 0 176 -30q76 -34 123 -92q43 -58 57 -123q17 -83 17 -219v-578h-357v541q0 123 -39 176q-39 55 -127 55q-110 0 -162 -82q-51 -82 -51 -266v-424h-350z" />
<glyph unicode="o" horiz-adv-x="1276" d="M74 502q0 111 43 209q40 99 121 176q79 76 182 117q98 38 217 38q118 0 217 -38q103 -41 182 -117q83 -75 123 -176q43 -98 43 -209t-43 -207q-45 -102 -123 -176q-88 -82 -182 -119q-98 -39 -217 -39q-120 0 -217 39q-99 39 -182.5 118.5t-120.5 176.5q-43 93 -43 207z M426 502q0 -112 55 -176q60 -66 156 -66t156 66q55 66 55 176q0 113 -57 178q-59 65 -154 65q-98 0 -154 -65q-57 -63 -57 -178z" />
<glyph unicode="p" horiz-adv-x="1352" d="M133 -446v1454h328v-168q65 97 153 151q83 49 189 49q107 0 192 -35.5t148 -107.5q125 -143 125 -395q0 -242 -125 -391q-64 -76 -144.5 -113t-183.5 -37q-129 0 -209 47q-77 45 -143 156q5 -24 8 -74q2 -29 2 -106v-430h-340zM449 502q0 -118 63 -187q58 -67 168 -67 q109 0 170 67q61 70 61 187q0 119 -61 186q-62 68 -170 68q-109 0 -168 -68q-63 -66 -63 -186z" />
<glyph unicode="q" horiz-adv-x="1352" d="M84 502q0 250 127 395q64 73 148 108t190 35t188 -49q88 -53 154 -151v168l328 2v-1456h-342v430q0 36 4 98q3 54 8 82q-67 -112 -144 -156q-83 -47 -208 -47q-201 0 -326 150q-127 151 -127 391zM438 502q0 -116 62 -187q61 -67 170 -67q108 0 172 67q61 70 61 187 q0 116 -61 186q-65 68 -172 68q-108 0 -170 -68t-62 -186z" />
<glyph unicode="r" horiz-adv-x="915" d="M133 0v1010h336v-238q53 131 141 195q91 65 219 65q29 0 43 -2q11 -1 20 -1.5t23 -2.5l-34 -324q-37 12 -64 17q-40 4 -59 4q-130 0 -201 -80q-70 -79 -70 -225v-418h-354z" />
<glyph unicode="s" horiz-adv-x="991" d="M37 84l74 272q78 -69 172 -104q93 -37 188 -37q68 0 102 23q35 21 35 61q0 67 -141 100q-49 11 -74 19q-163 48 -231 117q-74 71 -74 184q0 146 111 235q107 88 299 88q93 0 198 -22q88 -18 205 -70l-74 -245q-72 49 -145 73q-69 25 -145 25q-62 0 -93 -19 q-30 -18 -30 -55q0 -52 141 -90q46 -14 47 -14q184 -52 258 -123q72 -75 72 -195q0 -155 -119 -250q-122 -96 -315 -96q-134 0 -246.5 30.5t-214.5 92.5z" />
<glyph unicode="t" horiz-adv-x="723" d="M35 758v252h151v301h353v-301h149v-252h-149v-758h-351l-2 758h-151z" />
<glyph unicode="u" horiz-adv-x="1292" d="M123 494v516h340v-539q0 -127 43 -182q39 -58 135 -58q95 0 136.5 56t41.5 184v539h348v-516q0 -173 -26 -252q-28 -82 -94 -148q-63 -66 -166 -100q-98 -33 -236 -33q-137 0 -233 33q-99 32 -170 100q-65 62 -92 146q-27 78 -27 254z" />
<glyph unicode="v" horiz-adv-x="1155" d="M-18 1010h380l173 -447q2 -4 6 -16q27 -74 41 -141q10 54 39 131q4 8 10 26l172 447h371l-459 -1010h-279z" />
<glyph unicode="w" horiz-adv-x="1645" d="M-41 1010h367l151 -447q10 -32 16.5 -50t10.5 -36q11 -45 16 -71q8 47 39 139q3 12 6 18l150 447h215l149 -447q0 -4 2 -8q34 -89 43 -149q3 14 17 67q13 50 26 90l152 447h369l-424 -1010h-252l-150 457q-8 26 -20 80q-6 26 -10 42t-9 35q-15 -76 -39 -151l-2 -6 l-149 -457h-252z" />
<glyph unicode="x" horiz-adv-x="1085" d="M-55 0l397 541l-340 469h389l94 -172q27 -53 33 -70.5t11 -32t6 -18.5q3 12 16 51q12 31 33 70l96 172h403l-346 -469l404 -541h-402l-151 254q-15 23 -31 59q-3 11 -8 29t-10 33q-13 -44 -21 -62q-10 -30 -29 -59l-149 -254h-395z" />
<glyph unicode="y" horiz-adv-x="1090" d="M-47 1010h395l141 -365q21 -50 29 -86q11 -37 19 -74q6 36 18 76q8 35 29 84l143 365h381l-635 -1456h-397l284 600z" />
<glyph unicode="z" horiz-adv-x="1110" d="M0 0l518 750h-455v260h1006l-537 -736h492v-274h-1024z" />
<glyph unicode="{" d="M152 410v241q10 0 18 -2h18q117 0 167.5 55.5t50.5 188.5v254q0 137 24 194q24 58 82 89q46 24 121 36q68 13 180 13h39q18 -2 41 -2v-242q-10 0 -21 2h-20q-98 0 -131 -35q-35 -37 -35 -147v-240q0 -141 -45 -201q-47 -59 -166 -84q119 -24 166 -81q45 -57 45 -201v-242 q0 -112 35 -145q33 -35 129 -35q12 0 22 2h21v-242q-23 0 -41 -2h-41q-110 0 -178 13q-75 12 -121 36q-62 33 -82 88q-24 58 -24 193v256q0 133 -50 188q-49 54 -168 54h-18q-8 -2 -18 -2z" />
<glyph unicode="|" d="M393 -483v2048h240v-2048h-240z" />
<glyph unicode="}" d="M133 -172h23q10 -2 20 -2q98 0 131 35q33 32 33 145v242q0 143 45 198q48 60 166 84q-119 25 -166 84q-45 57 -45 201v240q0 113 -33 147q-33 35 -127 35h-22q-11 -2 -25 -2v242q23 0 41 2h39q112 0 180 -13q72 -12 121 -36q57 -31 84 -89q23 -62 23 -194v-254 q0 -135 49 -188q48 -56 168 -56h18q8 2 18 2v-241q-10 0 -18 2h-18q-120 0 -168 -56q-49 -55 -49 -186v-256q0 -131 -23 -195q-27 -57 -84 -88q-49 -26 -113 -34q-68 -13 -178 -13h-45q-18 2 -45 2v242z" />
<glyph unicode="~" horiz-adv-x="1706" d="M178 401v254q121 75 207 109q102 35 180 35q65 0 127 -13q75 -14 168 -45q16 -7 51 -16q156 -57 248 -57q87 0 174 37q84 31 197 114v-254q-101 -70 -195 -102q-93 -35 -182 -35q-49 0 -88 8q-47 6 -84 21q-5 1 -39 12q-259 90 -381 90q-86 0 -176 -37 q-100 -44 -207 -121z" />
<glyph horiz-adv-x="1386" d="M4 0l739 1147h-593v317h1232l-737 -1145h653v-319h-1294zM465 1864l160 -279h247l164 279h-137l-147 -144l-150 144h-137z" />
<glyph horiz-adv-x="0" />
<glyph horiz-adv-x="2" d="M-788 1116l159 -278h248l164 278h-137l-148 -143l-149 143h-137z" />
<glyph horiz-adv-x="1120" d="M-74 633l260 180v651h400v-422l198 140l146 -213l-344 -240v-387h495v-342h-895v500l-125 -86z" />
<glyph horiz-adv-x="956" d="M55 1110q0 75 31 145q30 67 92 123q63 57 135 82q74 27 164 27q92 0 164 -27q75 -27 137 -82.5t92 -122.5q31 -69 31 -145q0 -79 -31 -145q-30 -67 -92 -123q-61 -55 -137 -82q-78 -29 -164 -29q-83 0 -162 29q-76 27 -137 82q-57 51 -92 123q-31 70 -31 145zM319 1110 q0 -76 41 -125q42 -45 117 -45q77 0 119 45q41 47 41 125q0 79 -43 125q-42 45 -117 45q-76 0 -115 -45q-43 -48 -43 -125z" />
<glyph horiz-adv-x="342" d="M-342 -39l836 1518h188l-840 -1518h-184z" />
<glyph d="M197 1485h131q6 -72 51 -105q48 -34 133 -34t133 34q46 34 49 105h131q-12 -161 -88 -234t-225 -73q-152 0 -227 75q-79 79 -88 232z" />
<glyph horiz-adv-x="1110" d="M0 0l518 750h-455v260h1006l-537 -736h492v-274h-1024zM266 1413l160 -278h248l164 278h-138l-147 -143l-150 143h-137z" />
<glyph unicode="&#xa1;" horiz-adv-x="702" d="M150 1329q0 85 59 144q61 59 141 59q83 0 144 -59q59 -61 59 -144q0 -86 -57 -143q-60 -60 -146 -60q-84 0 -141 60q-59 59 -59 143zM166 -39v1045h371v-1045h-371z" />
<glyph unicode="&#xa2;" horiz-adv-x="1280" d="M195 713q0 217 122 362q61 73 144.5 116t189.5 60v170h115v-168q67 -7 113 -20q49 -14 98 -43v-303q-55 49 -103 69q-42 21 -98 21q-107 0 -168 -70q-63 -69 -63 -192q0 -116 65 -187q63 -69 174 -69q59 0 103 20q48 23 90 68v-309q-55 -28 -107 -43q-57 -18 -104 -21 v-203h-115v203q-227 41 -340 178q-116 134 -116 361z" />
<glyph unicode="&#xa3;" horiz-adv-x="1280" d="M82 195q55 76 111 114q53 38 124 47q30 36 45 76q15 37 15 86q0 13 -4 45q-3 26 -13 60h-233v141h162q-56 77 -82 151q-27 71 -27 158q0 178 139 293q141 113 365 113q235 0 365 -121q127 -121 133 -350h-344q-3 93 -41 141q-41 47 -119 47q-66 0 -107 -41 q-39 -40 -39 -104q0 -48 62 -172q35 -77 51 -115h334v-141h-315q0 -91 -41 -156q-44 -66 -131 -98l4 -21q3 1 9.5 1.5l13 1t9.5 1.5q11 2 33 2q61 0 148 -26q90 -29 127 -29q50 0 82 23q34 22 61 77l240 -190q-52 -123 -148 -184q-94 -64 -229 -64q-94 0 -230.5 51 t-187.5 51q-45 0 -84 -20q-31 -16 -78 -70z" />
<glyph unicode="&#xa4;" horiz-adv-x="1241" d="M61 444l201 203q-38 56 -53 113q-19 62 -19 125q0 65 19 127q15 50 53 110l-201 205l117 117l203 -201q51 36 115 55q57 19 125 19q71 0 131 -19q61 -19 112 -55l201 201l119 -117l-201 -205q35 -53 52.5 -112.5t17.5 -124.5t-17 -125q-19 -61 -53 -113l201 -203 l-119 -118l-201 202q-56 -38 -110 -55q-61 -18 -131 -18q-68 0 -127 18q-58 15 -115 55l-203 -202zM362 885q0 -108 76 -185q75 -75 185 -75q109 0 184 75q76 77 76 185q0 106 -76 182q-78 78 -184 78q-107 0 -185 -78q-76 -76 -76 -182z" />
<glyph unicode="&#xa5;" horiz-adv-x="1161" d="M156 0v1464h897v-321h-508v-254h479v-314h-479v-247h508v-328h-897zM309 1526l160 278h248l164 -278h-138l-147 143l-150 -143h-137z" />
<glyph unicode="&#xa6;" d="M393 -350v758h240v-758h-240zM393 674v758h240v-758h-240z" />
<glyph unicode="&#xa7;" horiz-adv-x="1219" d="M66 514q0 126 57 209q57 84 160 121q-73 31 -113 100q-39 62 -39 164q0 89 33.5 160t99.5 125q134 106 361 106q226 0 354 -108q123 -111 129 -316h-371v21q0 66 -37 102q-36 37 -102 37q-64 0 -100 -37q-39 -35 -39 -98q0 -110 192 -131q71 -11 86 -13q221 -33 318 -133 q96 -99 96 -286q0 -126 -53 -209q-56 -85 -162 -123q79 -39 115 -101q36 -64 36 -163q0 -176 -133 -285q-136 -109 -360 -109q-229 0 -354 113q-126 114 -129 324h370v-23q0 -68 35 -111q37 -38 105 -38q61 0 102 36q37 37 37 99q0 111 -197 135q-28 3 -43.5 5.5t-38.5 4.5 q-222 35 -317 133q-98 101 -98 289zM434 528q0 -83 49 -137q50 -53 123 -53q76 0 129 53q51 51 51 129q0 82 -51 133q-51 54 -123 54q-77 0 -127.5 -50.5t-50.5 -128.5z" />
<glyph unicode="&#xa8;" d="M172 1333q0 58 43 101q46 41 102 41q58 0 101 -41q41 -43 41 -101q0 -65 -39 -104q-41 -41 -103 -41t-102 43q-43 39 -43 102zM563 1333q0 56 43 101q43 41 101 41q56 0 102 -41q41 -41 41 -101q0 -63 -41 -102q-40 -43 -102 -43q-63 0 -103 43q-41 41 -41 102z" />
<glyph unicode="&#xa9;" horiz-adv-x="1706" d="M104 737q0 143 60 285q55 137 164 246q102 105 237 162q134 55 287 55q150 0 291 -55q136 -59 241 -164q107 -107 160 -240q55 -134 55 -289t-55 -286q-52 -135 -158 -238q-104 -105 -247 -166q-134 -57 -287 -57q-151 0 -283 57q-140 59 -243 164q-111 111 -164 242 q-58 134 -58 284zM242 737q0 -117 47 -229q42 -106 135 -201q85 -85 199 -133q111 -47 231 -47q119 0 233 47q115 47 203 135q86 83 129 193q45 103 45 235q0 129 -45 236q-45 112 -131 196q-88 89 -198 136q-111 45 -236 45q-128 0 -236 -45q-114 -50 -194 -134 q-90 -90 -135 -200q-47 -115 -47 -234zM446 731q0 207 111 330q112 121 299 121q158 0 256 -80q98 -77 109 -211h-213q-6 66 -47 104q-40 37 -109 37q-82 0 -129 -78q-47 -77 -47 -215q0 -143 49 -213q47 -71 137 -71q66 0 107 41q39 39 45 114h215q-6 -144 -107 -229 q-100 -88 -264 -88q-191 0 -301 119q-111 115 -111 319z" />
<glyph unicode="&#xaa;" horiz-adv-x="1014" d="M59 1110q0 175 95 274q95 103 256 103q87 0 149 -35q61 -33 105 -104v116h247v-706h-245v114q-52 -73 -117 -106q-65 -35 -156 -35q-152 0 -241 105q-93 100 -93 274zM326 1112q0 -84 47 -131q45 -47 127 -47t129 47q47 49 47 131q0 79 -47 131q-47 47 -129 47t-127 -47 q-47 -50 -47 -131z" />
<glyph unicode="&#xab;" horiz-adv-x="1753" d="M94 729q0 153 60 295q62 145 170 248q110 110 254 168q140 57 299 57t301 -57.5t253.5 -167.5t170.5 -248q57 -138 57 -295q0 -159 -57 -297q-57 -135 -170 -246q-112 -108 -256 -166q-151 -59 -299 -59q-150 0 -299 59q-147 59 -254 166q-108 103 -170 248 q-60 142 -60 295zM494 729q0 -191 106 -309q109 -121 277 -121q165 0 276 123q55 61 81 137t26 170q0 183 -109 307q-111 123 -274 123q-167 0 -275 -123t-108 -307zM600 1559l160 278h248l163 -278h-137l-147 143l-150 -143h-137z" />
<glyph unicode="&#xac;" horiz-adv-x="1706" d="M254 639v227h1198v-501h-229v274h-969z" />
<glyph unicode="&#xad;" horiz-adv-x="934" d="M127 340v326h680v-326h-680z" />
<glyph unicode="&#xae;" horiz-adv-x="1706" d="M104 737q0 147 60 288.5t170 248.5q106 106 237 158q137 53 281 53q158 0 295 -58q134 -55 244 -167q103 -108 155 -238q53 -133 53 -285q0 -158 -57 -291q-56 -138 -164 -239q-103 -102 -245 -162q-135 -55 -281 -55q-155 0 -287 57q-135 57 -243 170q-106 106 -160 242 q-58 131 -58 278zM244 737q0 -124 45 -229q42 -108 129 -195q90 -90 198 -139q115 -47 236 -47q124 0 233 45q112 47 199 131q85 79 133 197q47 111 47 237q0 127 -45 234q-43 108 -127 194q-90 91 -200 138q-116 47 -238 47t-231 -43q-48 -20 -100.5 -54t-94.5 -75 q-93 -94 -137 -203q-47 -115 -47 -238zM537 344v819h329q175 0 264 -59q91 -62 91 -178q0 -81 -45 -140q-46 -57 -129 -81l182 -361h-248l-154 326h-65v-326h-225zM762 803h80q75 0 110 26q37 28 37 80q0 60 -39 86q-34 27 -121 27h-67v-219z" />
<glyph unicode="&#xaf;" d="M205 1247v168h614v-168h-614z" />
<glyph unicode="&#xb0;" d="M242 1399q0 116 80 192q76 80 190 80q116 0 193 -80q79 -79 79 -192t-79 -193q-80 -78 -193 -78t-193 78q-77 77 -77 193zM397 1399q0 -47 33 -80q35 -35 82 -35t82 35q33 33 33 80t-33 82q-33 32 -82 32t-82 -32q-33 -34 -33 -82z" />
<glyph unicode="&#xb1;" horiz-adv-x="1753" d="M92 731q0 153 60 295q59 143 170 248q107 109 253 168q142 57 299 57q160 0 302 -57q145 -59 254 -168q77 -71 118 -160q55 14 88 51t48.5 105t15.5 172v57h147q-3 -259 -71.5 -367t-173.5 -108q57 -138 57 -295l-2 2q0 -160 -58 -297q-55 -134 -169 -246 q-113 -108 -256 -165q-149 -60 -300 -60q-150 0 -299 60q-146 58 -253 165q-111 105 -170.5 247.5t-59.5 295.5zM492 731q0 -191 106 -309q109 -121 276 -121q166 0 277 123q106 118 106 307q0 184 -108 307q-111 123 -275 123q-166 0 -274 -123t-108 -307z" />
<glyph unicode="&#xb2;" horiz-adv-x="846" d="M27 575l432 467q42 47 59 78q19 36 19 64q0 47 -31 76q-36 28 -86 28q-61 0 -94 -37q-33 -32 -33 -102v-12h-234v6q0 149 97 235q93 86 262 86q163 0 260 -75q96 -79 96 -203q0 -61 -31 -119q-27 -58 -100 -131l-176 -174h297v-187h-737z" />
<glyph unicode="&#xb3;" horiz-adv-x="846" d="M55 858v8h246v-14q0 -59 31 -86q27 -31 86 -31t94 29q31 28 31 82q0 61 -35 90q-37 29 -109 29h-16q-8 0 -12 -2v141h12q70 0 102 26q37 28 37 76q0 38 -28 68q-31 24 -78 24q-51 0 -78.5 -24.5t-30.5 -69.5h-233q3 122 96 191q91 67 258 67q148 0 231 -59 q86 -61 86 -166q0 -68 -38 -113q-41 -46 -115 -67q89 -15 139 -74q51 -54 51 -143q0 -132 -100 -207q-100 -80 -260 -80q-168 0 -268 82q-99 82 -99 223z" />
<glyph unicode="&#xb4;" d="M338 1147l182 350h281l-309 -350h-154z" />
<glyph unicode="&#xb5;" horiz-adv-x="1315" d="M-45 -428l238 1518h358l-80 -529q-4 -24 -8 -78q-4 -48 -4 -65q0 -86 37 -127q33 -43 106 -43q89 0 139 68.5t74 220.5l88 553h357l-175 -1090h-321l18 125q-37 -72 -90 -109q-48 -32 -119 -32q-59 0 -106 30q-45 31 -78 90l-82 -532h-352z" />
<glyph unicode="&#xb6;" d="M29 1130q0 161 106 254q55 49 125 72t158 23h579v-123h-106v-1356h-176v1356h-150v-1356h-174v784q-164 6 -262 101q-100 93 -100 245z" />
<glyph unicode="&#xb7;" horiz-adv-x="1597" d="M145 690v152v622h400v-712q0 -163 8 -226q10 -75 27 -114q21 -57 79 -84q58 -31 140 -31q81 0 139 31q53 26 80 84q16 40 26 114q9 60 9 226v100v612h397v-366q54 14 77 77.5t23 206.5q0 24 -0.5 40.5t-1.5 35.5h148q-3 -259 -71.5 -367t-174.5 -108v-293 q0 -238 -29 -354q-27 -115 -98 -197q-78 -91 -207 -133q-128 -45 -317 -45q-193 0 -318 45q-127 42 -207 133q-69 80 -98 197q-31 118 -31 354z" />
<glyph unicode="&#xb8;" d="M272 -301q105 -27 150 -33q70 -12 121 -12q44 0 65 18q21 15 21 54q0 31 -29 49q-25 14 -90 14h-33q-8 -2 -22 -2v213h114v-84h19q112 0 170 -49q59 -50 59 -143q0 -101 -65 -154q-67 -55 -189 -55q-61 0 -135 12q-63 8 -156 33v139z" />
<glyph unicode="&#xb9;" horiz-adv-x="846" d="M117 1247l112 199h334v-871h-239v672h-207z" />
<glyph unicode="&#xba;" horiz-adv-x="674" d="M27 1155q0 133 92 221q88 90 219 90t219 -92q92 -89 92 -219t-92 -219q-88 -92 -221 -92q-131 0 -219 92q-90 88 -90 219zM172 1157q0 -69 47 -119q52 -47 119 -47q66 0 117 49q47 52 47 117t-47 117q-50 47 -117 47q-70 0 -117 -47q-49 -49 -49 -117z" />
<glyph unicode="&#xbb;" horiz-adv-x="1114" d="M45 154l262 348l-262 356l191 133l358 -489l-358 -488zM518 154l262 348l-262 356l191 133l360 -489l-360 -488z" />
<glyph unicode="&#xbc;" horiz-adv-x="1956" d="M113 1260l108 184h318v-811h-230v627h-196zM465 -39l835 1518h189l-840 -1518h-184zM1184 184v162l344 469h284v-469h103v-162h-103v-184h-208v184h-420zM1378 346h226v238q0 49 2 61q0 11 4 31q-13 -27 -27 -47q-11 -21 -37 -54z" />
<glyph unicode="&#xbd;" horiz-adv-x="1352" d="M84 502q0 240 127 391q126 147 326 147q128 0 208 -47q77 -43 144 -153q-4 27 -8 82q-4 60 -4 98v180h-373v115h373v235h342v-235h131v-115h-131v-1202h-328v164q-68 -103 -154 -152q-80 -51 -188 -51q-212 0 -338 147q-127 150 -127 396zM438 504q0 -119 62 -187 q61 -67 170 -67q108 0 172 67q61 67 61 187q0 119 -61 186q-65 68 -172 68q-108 0 -170 -68t-62 -186z" />
<glyph unicode="&#xbe;" horiz-adv-x="1956" d="M53 897v8h234v-14q0 -52 28 -80q31 -29 84 -29q58 0 88 27q31 27 31 76q0 57 -33 84q-32 26 -104 26h-16q-5 -2 -11 -2v133h13q62 0 98 25q33 24 33 72q0 36 -29 59q-28 25 -74 25q-43 0 -73 -23q-27 -23 -27 -65h-223q3 115 90 180q88 61 246 61q140 0 223 -55 q80 -59 80 -156q0 -59 -37 -104q-35 -40 -109 -64q90 -15 135 -65q48 -54 48 -137q0 -118 -97 -195q-95 -74 -248 -74q-158 0 -256 78q-94 76 -94 209zM465 -39l835 1518h189l-840 -1518h-184zM1184 184v162l344 469h284v-469h103v-162h-103v-184h-208v184h-420zM1378 346 h226v238q0 49 2 61q0 11 4 31q-13 -27 -27 -47q-11 -21 -37 -54z" />
<glyph unicode="&#xbf;" horiz-adv-x="1239" d="M123 403q0 163 90 273q90 105 233 108v213h347v-413h-107q-113 0 -172 -45q-61 -46 -61 -136q0 -69 47 -114q45 -47 110 -47q72 0 111 39q40 35 43 108h342v-4q0 -195 -139 -313q-139 -117 -373 -117q-212 0 -340 125q-131 122 -131 323zM430 1329q0 87 57 146 q58 57 144 57q82 0 142.5 -59.5t60.5 -143.5q0 -83 -60 -143t-143 -60q-84 0 -144 60q-57 58 -57 143z" />
<glyph unicode="&#xc0;" horiz-adv-x="1479" d="M-16 0l505 1464h500l506 -1464h-397l-74 262h-567l-76 -262h-397zM508 1855h223l146 -278h-123zM543 547h397l-149 483q-5 13 -19 72q-17 69 -31 125q-14 -51 -24 -103q-16 -50 -27 -94z" />
<glyph unicode="&#xc1;" horiz-adv-x="1479" d="M-16 0l505 1464h500l506 -1464h-397l-74 262h-567l-76 -262h-397zM543 547h397l-149 483q-5 13 -19 72q-17 69 -31 125q-14 -51 -24 -103q-16 -50 -27 -94zM608 1567l146 278h223l-246 -278h-123z" />
<glyph unicode="&#xc2;" horiz-adv-x="1479" d="M-16 0l505 1464h500l506 -1464h-397l-74 262h-567l-76 -262h-397zM449 1526l159 278h248l164 -278h-137l-148 143l-149 -143h-137zM543 547h397l-149 483q-5 13 -19 72q-17 69 -31 125q-14 -51 -24 -103q-16 -50 -27 -94z" />
<glyph unicode="&#xc3;" horiz-adv-x="1479" d="M-16 0l505 1464h500l506 -1464h-397l-74 262h-567l-76 -262h-397zM477 1567q23 102 62 147q39 49 104 49h27q15 0 41 -6l73 -20h21h24q27 0 41 14q17 15 23 47h94l-4 -4q-24 -102 -63 -147q-41 -50 -107 -50h-29h-24l-74 21q-34 10 -49 10q-24 0 -39 -12q-12 -12 -27 -49 h-94zM543 547h397l-149 483q-5 13 -19 72q-17 69 -31 125q-14 -51 -24 -103q-16 -50 -27 -94z" />
<glyph unicode="&#xc4;" horiz-adv-x="1479" d="M-16 0l505 1464h500l506 -1464h-397l-74 262h-567l-76 -262h-397zM426 1708q0 52 37 87.5t90 35.5t88 -35q35 -33 35 -88q0 -58 -33 -90q-33 -35 -90 -35t-90 37q-37 33 -37 90v-2zM543 547h397l-149 483q-5 13 -19 72q-17 69 -31 125q-14 -51 -24 -103q-16 -50 -27 -94z M776 1710q0 52 37 88q35 35 88 35t90 -35q35 -33 35 -88q0 -57 -35 -90q-33 -37 -90 -37q-56 0 -90 37q-35 33 -35 90z" />
<glyph unicode="&#xc5;" horiz-adv-x="1479" d="M-16 0l505 1464h500l506 -1464h-397l-74 262h-567l-76 -262h-397zM543 547h397l-149 483q-5 13 -19 72q-17 69 -31 125q-14 -51 -24 -103q-16 -50 -27 -94zM555 1772q0 87 57 141q54 57 140 57q87 0 141 -57q57 -57 57 -141q0 -85 -57 -142q-55 -55 -141 -55 q-87 0 -142 55t-55 142zM672 1772q0 -33 22 -56q25 -24 58 -24q31 0 55 24q22 23 22 56q0 32 -22 54.5t-55 22.5t-56 -22q-22 -23 -22 -55h-2z" />
<glyph unicode="&#xc6;" horiz-adv-x="0" d="M-799 1831l146 278h223l-246 -278h-123z" />
<glyph unicode="&#xc7;" horiz-adv-x="1286" d="M94 731q0 166 56 305q25 67 63.5 126.5t99.5 123.5q105 108 236 160q130 53 289 53q91 0 190 -22q98 -26 189 -70v-436q-86 93 -162 135q-85 41 -176 41q-171 0 -279 -117q-37 -42 -60 -87.5t-34.5 -103t-11.5 -116.5q0 -176 108 -293q109 -115 277 -115q90 0 176 43 q76 39 162 134v-437q-111 -52 -189 -69q-97 -23 -190 -23q-118 0 -222 28.5t-186 86.5q-164 112 -250 276q-86 170 -86 377zM492 -307q90 -23 131 -27q55 -8 106 -8q38 0 55 14q17 12 17 45q0 29 -25 41q-20 11 -80 11h-26h-17v190h103v-74h16q100 0 152 -43q53 -44 53 -125 q0 -88 -55 -135q-58 -49 -166 -49q-62 0 -119 8q-44 4 -137 27z" />
<glyph unicode="&#xc8;" horiz-adv-x="1161" d="M156 0v1464h897v-321h-508v-254h479v-314h-479v-247h508v-328h-897zM371 1845h223l145 -278h-123z" />
<glyph unicode="&#xc9;" horiz-adv-x="1161" d="M156 0v1464h897v-321h-508v-254h479v-314h-479v-247h508v-328h-897zM502 1567l145 278h223l-245 -278h-123z" />
<glyph unicode="&#xca;" horiz-adv-x="1161" d="M156 0v1464h897v-321h-508v-254h479v-314h-479v-247h508v-328h-897zM309 1526l160 278h248l164 -278h-138l-147 143l-150 -143h-137z" />
<glyph unicode="&#xcb;" horiz-adv-x="1161" d="M156 0v1464h897v-321h-508v-254h479v-314h-479v-247h508v-328h-897zM287 1688q0 51 37 88q37 34 90 34q52 0 88 -34q35 -37 35 -88q0 -56 -33 -91q-36 -34 -90 -34q-57 0 -90 36q-37 34 -37 91v-2zM637 1690q0 51 37 88q34 34 88 34q51 0 90 -34q35 -37 35 -88 q0 -54 -35 -91q-34 -36 -90 -36q-57 0 -90 36q-35 35 -35 91z" />
<glyph unicode="&#xcc;" horiz-adv-x="735" d="M164 1876h223l145 -279h-122zM166 0v1464h403v-1464h-403z" />
<glyph unicode="&#xcd;" horiz-adv-x="735" d="M166 0v1464h403v-1464h-403zM223 1577l146 278h223l-246 -278h-123z" />
<glyph unicode="&#xce;" horiz-adv-x="735" d="M53 1587l160 279h248l164 -279h-138l-147 144l-150 -144h-137zM166 0v1464h403v-1464h-403z" />
<glyph unicode="&#xcf;" horiz-adv-x="735" d="M61 1708q0 51 37 88q38 35 90 35q55 0 88 -35q35 -33 35 -88q0 -58 -32 -90q-35 -35 -91 -35t-90 37q-37 34 -37 90v-2zM166 0v1464h403v-1464h-403zM412 1710q0 52 37 88q33 35 88 35q52 0 90 -35q35 -35 35 -88q0 -55 -35 -90q-34 -37 -90 -37q-57 0 -91 37 q-34 34 -34 90z" />
<glyph unicode="&#xd0;" horiz-adv-x="1591" d="M0 614v258h178v592h303q184 0 299 -8t187 -24q142 -32 247 -107q140 -95 211 -248q72 -150 72 -346t-72 -346q-71 -152 -211 -248q-108 -74 -241 -104q-132 -33 -424 -33h-68h-303v614h-178zM571 328h70q235 0 342 98q109 95 109 305q0 209 -109 307q-108 99 -342 99h-70 v-265h273v-258h-273v-286z" />
<glyph unicode="&#xd1;" horiz-adv-x="1745" d="M156 0v1464h385l553 -753q21 -31 53 -93q41 -80 80 -165q-15 115 -17 161q-6 72 -6 127v723h383v-1464h-383l-553 756q-12 16 -53 94q-36 64 -80 162q10 -78 19 -162q4 -94 4 -127v-723h-385zM598 1581q21 100 61 148q41 49 105 49h27q16 0 40 -6l74 -21h21h24 q27 0 41 14q17 19 23 47h94l-4 -4q-26 -104 -64 -147q-39 -49 -106 -49h-29h-24l-74 20q-34 10 -49 10q-24 0 -39 -12q-15 -15 -27 -49h-94z" />
<glyph unicode="&#xd2;" horiz-adv-x="1753" d="M94 729q0 153 60 295q62 145 170 248q110 110 254 168q140 57 299 57t301 -57.5t253.5 -167.5t170.5 -248q57 -138 57 -295q0 -159 -57 -297q-57 -135 -170 -246q-112 -108 -256 -166q-151 -59 -299 -59q-150 0 -299 59q-147 59 -254 166q-108 103 -170 248 q-60 142 -60 295zM494 729q0 -191 106 -309q109 -121 277 -121q165 0 276 123q55 61 81 137t26 170q0 183 -109 307q-111 123 -274 123q-167 0 -275 -123t-108 -307zM643 1878h223l146 -279h-123z" />
<glyph unicode="&#xd3;" horiz-adv-x="1753" d="M94 729q0 153 60 295q62 145 170 248q110 110 254 168q140 57 299 57t301 -57.5t253.5 -167.5t170.5 -248q57 -138 57 -295q0 -159 -57 -297q-57 -135 -170 -246q-112 -108 -256 -166q-151 -59 -299 -59q-150 0 -299 59q-147 59 -254 166q-108 103 -170 248 q-60 142 -60 295zM494 729q0 -191 106 -309q109 -121 277 -121q165 0 276 123q55 61 81 137t26 170q0 183 -109 307q-111 123 -274 123q-167 0 -275 -123t-108 -307zM815 1599l146 279h223l-246 -279h-123z" />
<glyph unicode="&#xd4;" horiz-adv-x="1753" d="M94 729q0 153 60 295q62 145 170 248q110 110 254 168q140 57 299 57t301 -57.5t253.5 -167.5t170.5 -248q57 -138 57 -295q0 -159 -57 -297q-57 -135 -170 -246q-112 -108 -256 -166q-151 -59 -299 -59q-150 0 -299 59q-147 59 -254 166q-108 103 -170 248 q-60 142 -60 295zM494 729q0 -191 106 -309q109 -121 277 -121q165 0 276 123q55 61 81 137t26 170q0 183 -109 307q-111 123 -274 123q-167 0 -275 -123t-108 -307zM600 1559l160 278h248l163 -278h-137l-147 143l-150 -143h-137z" />
<glyph unicode="&#xd5;" horiz-adv-x="1753" d="M94 729q0 153 60 295q62 145 170 248q110 110 254 168q140 57 299 57t301 -57.5t253.5 -167.5t170.5 -248q57 -138 57 -295q0 -159 -57 -297q-57 -135 -170 -246q-112 -108 -256 -166q-151 -59 -299 -59q-150 0 -299 59q-147 59 -254 166q-108 103 -170 248 q-60 142 -60 295zM494 729q0 -191 106 -309q109 -121 277 -121q165 0 276 123q55 61 81 137t26 170q0 183 -109 307q-111 123 -274 123q-167 0 -275 -123t-108 -307zM623 1599q21 102 61 148q40 49 104 49h27q17 0 41 -6l74 -21h20h25q26 0 41 15q16 16 22 47h95l-5 -4 q-24 -104 -63 -148q-41 -49 -107 -49h-28h-25l-74 21q-32 10 -49 10q-22 0 -39 -12q-14 -15 -26 -50h-94z" />
<glyph unicode="&#xd6;" horiz-adv-x="1753" d="M94 729q0 153 60 295q62 145 170 248q110 110 254 168q140 57 299 57t301 -57.5t253.5 -167.5t170.5 -248q57 -138 57 -295q0 -159 -57 -297q-57 -135 -170 -246q-112 -108 -256 -166q-151 -59 -299 -59q-150 0 -299 59q-147 59 -254 166q-108 103 -170 248 q-60 142 -60 295zM494 729q0 -191 106 -309q109 -121 277 -121q165 0 276 123q55 61 81 137t26 170q0 183 -109 307q-111 123 -274 123q-167 0 -275 -123t-108 -307zM578 1720q0 52 36 88q38 35 91 35t88 -35q34 -34 34 -88q0 -57 -32 -90q-37 -35 -90 -35q-56 0 -91 37 q-36 34 -36 90v-2zM928 1722q0 52 37 88q33 35 88 35q52 0 90 -35q35 -35 35 -88t-35 -90t-90 -37q-56 0 -90 37q-35 35 -35 90z" />
<glyph unicode="&#xd7;" horiz-adv-x="1352" d="M80 504q0 248 127 393t340 145q114 0 196 -49q83 -47 142 -149v166h329v-1010h-327v164q-71 -105 -158.5 -154t-204.5 -49q-203 0 -323 148q-59 73 -90 172t-31 223zM432 506q0 -119 64 -187q61 -67 170 -67q108 0 171.5 67t63.5 187t-63 186q-64 70 -172 70t-170 -68 q-64 -70 -64 -188zM508 1362h108q3 -56 39 -80q39 -25 105 -25t103.5 24.5t37.5 80.5h105q-11 -128 -70 -184q-31 -29 -76 -43.5t-102 -14.5q-121 0 -180 60q-64 64 -70 182z" />
<glyph unicode="&#xd8;" horiz-adv-x="1753" d="M94 731q0 153 60 294.5t170 248.5q110 108 258 168q140 57 307 57q140 0 250 -39q115 -40 219 -123l155 162l97 -94l-152 -158q97 -101 150 -235q51 -132 51 -281q0 -153 -60 -295q-57 -137 -169 -248q-114 -109 -252 -165q-144 -58 -301 -58q-140 0 -269 41 q-118 43 -227 129l-176 -182l-92 94l170 176q-95 113 -142 240q-47 132 -47 268zM479 731q0 -63 17 -123q14 -53 53 -110l549 569q-51 38 -105 53q-54 19 -116 19q-167 0 -281 -117q-117 -120 -117 -291zM643 403q43 -36 107 -59q57 -18 127 -18q168 0 282 118 q117 120 117 293q0 78 -21 133q-18 58 -59 105z" />
<glyph unicode="&#xd9;" horiz-adv-x="1597" d="M145 690v152v622h400v-712q0 -163 8 -226q10 -75 27 -114q21 -57 79 -84q58 -31 140 -31q81 0 139 31q53 26 80 84q16 40 26 114q9 60 9 226v100v612h397v-774q0 -238 -29 -354q-27 -115 -98 -197q-78 -91 -207 -133q-128 -45 -317 -45q-193 0 -318 45q-127 42 -207 133 q-69 80 -98 197q-31 118 -31 354zM502 1845h223l145 -278h-122z" />
<glyph unicode="&#xda;" horiz-adv-x="1597" d="M145 690v152v622h400v-712q0 -163 8 -226q10 -75 27 -114q21 -57 79 -84q58 -31 140 -31q81 0 139 31q53 26 80 84q16 40 26 114q9 60 9 226v100v612h397v-774q0 -238 -29 -354q-27 -115 -98 -197q-78 -91 -207 -133q-128 -45 -317 -45q-193 0 -318 45q-127 42 -207 133 q-69 80 -98 197q-31 118 -31 354zM735 1567l146 278h223l-246 -278h-123z" />
<glyph unicode="&#xdb;" horiz-adv-x="1597" d="M145 690v152v622h400v-712q0 -163 8 -226q10 -75 27 -114q21 -57 79 -84q58 -31 140 -31q81 0 139 31q53 26 80 84q16 40 26 114q9 60 9 226v100v612h397v-774q0 -238 -29 -354q-27 -115 -98 -197q-78 -91 -207 -133q-128 -45 -317 -45q-193 0 -318 45q-127 42 -207 133 q-69 80 -98 197q-31 118 -31 354zM524 1577l160 278h248l164 -278h-138l-147 143l-149 -143h-138z" />
<glyph unicode="&#xdc;" horiz-adv-x="1597" d="M145 690v152v622h400v-712q0 -163 8 -226q10 -75 27 -114q21 -57 79 -84q58 -31 140 -31q81 0 139 31q53 26 80 84q16 40 26 114q9 60 9 226v100v612h397v-774q0 -238 -29 -354q-27 -115 -98 -197q-78 -91 -207 -133q-128 -45 -317 -45q-193 0 -318 45q-127 42 -207 133 q-69 80 -98 197q-31 118 -31 354zM492 1708q0 52 36 88q38 35 90 35q54 0 89 -35q34 -34 34 -88q0 -58 -32 -90q-35 -35 -91 -35t-90 37q-36 33 -36 90v-2zM842 1710q0 52 37 88q33 35 88 35q52 0 90 -35q35 -35 35 -88q0 -55 -35 -90q-34 -37 -90 -37q-57 0 -90 37 q-35 33 -35 90z" />
<glyph unicode="&#xdd;" horiz-adv-x="1223" d="M-96 1464h458l197 -377q3 -3 6 -12q31 -57 43 -112q9 48 43 108l8 16l195 377h459l-512 -796v-668h-385v668zM537 1567l145 278h223l-246 -278h-122z" />
<glyph unicode="&#xde;" horiz-adv-x="1298" d="M156 0v1464h374v-223h43q244 0 342 -24q97 -21 170 -82q81 -67 123 -168q43 -101 43 -226q0 -132 -41 -231q-42 -98 -125 -162q-61 -46 -143 -67q-77 -21 -254 -21h-86h-72v-260h-374zM530 582h76q145 0 201 39q57 38 57 133q0 91 -55 130.5t-199 39.5h-80v-342z" />
<glyph unicode="&#xdf;" horiz-adv-x="1352" d="M137 0v1028q0 163 25 244q21 82 78 145q67 73 176 112.5t248 39.5q250 0 389 -103.5t139 -287.5q0 -116 -62 -193q-67 -80 -186 -113q81 -9 143.5 -40t104.5 -82q88 -107 88 -279q0 -234 -141 -365q-145 -129 -404 -129q-30 0 -55 3h-57v266h20q8 -2 33 -2q123 0 186 63 q64 64 64 189q0 119 -68 184q-66 63 -199 63q-8 0 -16 -2h-20v226h8q121 0 178 45q59 45 59 137q0 75 -47 119q-51 43 -131 43q-74 0 -125 -31q-47 -36 -61 -92q-9 -41 -12 -103q-5 -72 -5 -190v-94v-801h-350z" />
<glyph unicode="&#xe0;" horiz-adv-x="1352" d="M80 504q0 248 127 393t340 145q114 0 196 -49q83 -47 142 -149v166h329v-1010h-327v164q-71 -105 -158.5 -154t-204.5 -49q-203 0 -323 148q-59 73 -90 172t-31 223zM432 506q0 -119 64 -187q61 -67 170 -67q108 0 171.5 67t63.5 187t-63 186q-64 70 -172 70t-170 -68 q-64 -70 -64 -188zM537 1434h223l145 -279h-123z" />
<glyph unicode="&#xe1;" horiz-adv-x="1352" d="M80 504q0 248 127 393t340 145q114 0 196 -49q83 -47 142 -149v166h329v-1010h-327v164q-71 -105 -158.5 -154t-204.5 -49q-203 0 -323 148q-59 73 -90 172t-31 223zM432 506q0 -119 64 -187q61 -67 170 -67q108 0 171.5 67t63.5 187t-63 186q-64 70 -172 70t-170 -68 q-64 -70 -64 -188zM668 1155l145 279h223l-245 -279h-123z" />
<glyph unicode="&#xe2;" horiz-adv-x="1352" d="M80 504q0 248 127 393t340 145q114 0 196 -49q83 -47 142 -149v166h329v-1010h-327v164q-71 -105 -158.5 -154t-204.5 -49q-203 0 -323 148q-59 73 -90 172t-31 223zM426 1116l160 279h248l163 -279h-137l-147 144l-150 -144h-137zM432 506q0 -119 64 -187 q61 -67 170 -67q108 0 171.5 67t63.5 187t-63 186q-64 70 -172 70t-170 -68q-64 -70 -64 -188z" />
<glyph unicode="&#xe3;" horiz-adv-x="1352" d="M80 504q0 248 127 393t340 145q114 0 196 -49q83 -47 142 -149v166h329v-1010h-327v164q-71 -105 -158.5 -154t-204.5 -49q-203 0 -323 148q-59 73 -90 172t-31 223zM432 506q0 -119 64 -187q61 -67 170 -67q108 0 171.5 67t63.5 187t-63 186q-64 70 -172 70t-170 -68 q-64 -70 -64 -188zM557 1145q21 101 61 147q40 49 105 49h27q15 0 41 -6l73 -20h21h24q27 0 41 14q17 15 23 47h94l-4 -4q-25 -103 -64 -147q-39 -49 -106 -49h-29h-24l-74 20q-34 10 -49 10q-24 0 -39 -12q-14 -14 -27 -49h-94z" />
<glyph unicode="&#xe4;" horiz-adv-x="1352" d="M80 504q0 248 127 393t340 145q114 0 196 -49q83 -47 142 -149v166h329v-1010h-327v164q-71 -105 -158.5 -154t-204.5 -49q-203 0 -323 148q-59 73 -90 172t-31 223zM432 506q0 -119 64 -187q61 -67 170 -67q108 0 171.5 67t63.5 187t-63 186q-64 70 -172 70t-170 -68 q-64 -70 -64 -188zM434 1257q0 52 37 89q39 34 90 34q54 0 88 -34q35 -35 35 -89q0 -57 -33.5 -90.5t-89.5 -33.5q-55 0 -90 36q-37 34 -37 91v-3zM784 1260q0 49 37 88q36 34 88 34q53 0 90 -34q35 -35 35 -88q0 -56 -35 -91q-33 -36 -90 -36q-55 0 -90 36q-35 37 -35 91z " />
<glyph unicode="&#xe5;" horiz-adv-x="1352" d="M80 504q0 248 127 393t340 145q114 0 196 -49q83 -47 142 -149v166h329v-1010h-327v164q-71 -105 -158.5 -154t-204.5 -49q-203 0 -323 148q-59 73 -90 172t-31 223zM432 506q0 -119 64 -187q61 -67 170 -67q108 0 171.5 67t63.5 187t-63 186q-64 70 -172 70t-170 -68 q-64 -70 -64 -188zM512 1341q0 88 57 142q54 57 140 57q87 0 141 -57q57 -57 57 -142q0 -84 -57 -141q-55 -55 -141 -55q-87 0 -142 55t-55 141zM629 1341q0 -32 22 -55q25 -24 58 -24q31 0 55 24q22 23 22 55q0 33 -22 55.5t-55 22.5t-56 -22q-22 -23 -22 -56h-2z" />
<glyph unicode="&#xe6;" horiz-adv-x="0" d="M-625 1421l146 279h223l-246 -279h-123z" />
<glyph unicode="&#xe7;" horiz-adv-x="944" d="M74 504q0 239 146.5 388.5t379.5 149.5q73 0 139 -16q64 -16 117 -47v-301q-52 46 -100 67q-43 21 -101 21q-107 0 -168 -70q-63 -69 -63 -190q0 -116 65 -184q63 -70 175 -70q53 0 102 22q52 25 90 66v-309q-64 -34 -129 -54q-69 -16 -131 -16q-234 0 -377 150 q-49 50 -80.5 110t-48 130t-16.5 153zM295 -303q90 -23 131 -27q55 -8 106 -8q38 0 56 14q16 12 16 45q0 29 -24 41q-21 11 -80 11h-27h-16v190h102v-74h16q100 0 152 -43q53 -42 53 -125q0 -89 -55 -135q-60 -49 -166 -49q-62 0 -119 8q-44 4 -137 27z" />
<glyph unicode="&#xe8;" horiz-adv-x="1251" d="M74 494q0 235 159 393q159 155 404 155q250 0 395 -157q74 -81 110 -188.5t36 -245.5v-17h-768q3 -118 59 -180q58 -64 168 -64q80 0 137 31q58 33 84 90l268 -108q-47 -115 -170 -178q-122 -64 -299 -64q-264 0 -424 148q-159 144 -159 385zM360 1423h224l145 -278h-123 zM418 635h409q-9 84 -65 137t-137 53q-85 0 -138 -47q-55 -53 -69 -143z" />
<glyph unicode="&#xe9;" horiz-adv-x="1251" d="M74 494q0 235 159 393q159 155 404 155q250 0 395 -157q74 -81 110 -188.5t36 -245.5v-17h-768q3 -118 59 -180q58 -64 168 -64q80 0 137 31q58 33 84 90l268 -108q-47 -115 -170 -178q-122 -64 -299 -64q-264 0 -424 148q-159 144 -159 385zM418 635h409q-9 84 -65 137 t-137 53q-85 0 -138 -47q-55 -53 -69 -143zM563 1145l146 278h223l-246 -278h-123z" />
<glyph unicode="&#xea;" horiz-adv-x="1251" d="M74 494q0 235 159 393q159 155 404 155q250 0 395 -157q74 -81 110 -188.5t36 -245.5v-17h-768q3 -118 59 -180q58 -64 168 -64q80 0 137 31q58 33 84 90l268 -108q-47 -115 -170 -178q-122 -64 -299 -64q-264 0 -424 148q-159 144 -159 385zM338 1100l160 278h247 l164 -278h-137l-147 143l-150 -143h-137zM418 635h409q-9 84 -65 137t-137 53q-85 0 -138 -47q-55 -53 -69 -143z" />
<glyph unicode="&#xeb;" horiz-adv-x="1251" d="M74 494q0 235 159 393q159 155 404 155q250 0 395 -157q74 -81 110 -188.5t36 -245.5v-17h-768q3 -118 59 -180q58 -64 168 -64q80 0 137 31q58 33 84 90l268 -108q-47 -115 -170 -178q-122 -64 -299 -64q-264 0 -424 148q-159 144 -159 385zM346 1262q0 51 37 88 q39 34 90 34q54 0 88 -34q35 -35 35 -88q0 -58 -33.5 -91.5t-89.5 -33.5t-90 37q-37 33 -37 90v-2zM418 635h409q-9 84 -65 137t-137 53q-85 0 -138 -47q-55 -53 -69 -143zM696 1264q0 49 37 88q36 34 88 34q53 0 90 -34q35 -35 35 -88q0 -57 -35 -90q-33 -37 -90 -37 q-56 0 -90 37q-35 35 -35 90z" />
<glyph unicode="&#xec;" horiz-adv-x="639" d="M104 1430h224l145 -279h-123zM123 0v1010h356v-1010h-356z" />
<glyph unicode="&#xed;" horiz-adv-x="639" d="M123 0v1010h356v-1010h-356zM143 1141l146 278h223l-246 -278h-123z" />
<glyph unicode="&#xee;" horiz-adv-x="639" d="M8 1133l160 278h248l164 -278h-138l-147 143l-150 -143h-137zM141 0v1010h357v-1010h-357z" />
<glyph unicode="&#xef;" horiz-adv-x="639" d="M6 1253q0 52 37 88q38 35 90 35q55 0 88 -35q35 -33 35 -88q0 -57 -33 -90q-35 -35 -90 -35t-90 37q-37 34 -37 90v-2zM141 0v1010h357v-1010h-357zM356 1255q0 51 37 88q35 35 88 35t90 -35q35 -33 35 -88t-35 -90q-34 -37 -90 -37q-55 0 -90 37t-35 90z" />
<glyph unicode="&#xf0;" horiz-adv-x="1276" d="M74 465q0 105 41 199q38 93 123 167q75 69 161 101q95 35 193 35q60 0 117 -17q49 -14 106 -51q-47 75 -98 137t-121 117l-297 -137l-70 127l242 106q-78 44 -96 56q-23 13 -34.5 18.5t-31.5 15.5l119 209q62 -27 147 -73q73 -43 166 -105l314 146l71 -130l-262 -118 q174 -165 254 -338q84 -178 84 -381q0 -280 -149 -432q-150 -156 -416 -156q-120 0 -217 39q-104 38 -182 109q-82 71 -121 163q-43 89 -43 193zM426 473q0 -101 57 -158q54 -57 154 -57q93 0 154 59q57 58 57 156q0 101 -57 160q-57 57 -154 57q-100 0 -154 -57 q-57 -57 -57 -160z" />
<glyph unicode="&#xf1;" horiz-adv-x="1337" d="M131 0v1010h326v-205q69 120 164 180q92 57 223 57q99 0 176 -30q76 -34 123 -92q43 -58 57 -123q17 -83 17 -219v-578h-357v541q0 123 -39 176q-39 55 -127 55q-110 0 -162 -82q-51 -82 -51 -266v-424h-350zM461 1157q21 100 61 148q41 49 105 49h26q17 0 41 -6l74 -21 h20h25q27 0 41 14q16 17 23 48h94l-4 -5q-26 -104 -64 -147q-39 -49 -106 -49h-29h-25l-73 20q-33 11 -49 11q-23 0 -39 -13q-15 -13 -27 -49h-94z" />
<glyph unicode="&#xf2;" horiz-adv-x="1276" d="M74 502q0 111 43 209q40 99 121 176q79 76 182 117q98 38 217 38q118 0 217 -38q103 -41 182 -117q83 -75 123 -176q43 -98 43 -209t-43 -207q-45 -102 -123 -176q-88 -82 -182 -119q-98 -39 -217 -39q-120 0 -217 39q-99 39 -182.5 118.5t-120.5 176.5q-43 93 -43 207z M426 502q0 -112 55 -176q60 -66 156 -66t156 66q55 66 55 176q0 113 -57 178q-59 65 -154 65q-98 0 -154 -65q-57 -63 -57 -178zM434 1423h223l146 -278h-123z" />
<glyph unicode="&#xf3;" horiz-adv-x="1276" d="M74 502q0 111 43 209q40 99 121 176q79 76 182 117q98 38 217 38q118 0 217 -38q103 -41 182 -117q83 -75 123 -176q43 -98 43 -209t-43 -207q-45 -102 -123 -176q-88 -82 -182 -119q-98 -39 -217 -39q-120 0 -217 39q-99 39 -182.5 118.5t-120.5 176.5q-43 93 -43 207z M426 502q0 -112 55 -176q60 -66 156 -66t156 66q55 66 55 176q0 113 -57 178q-59 65 -154 65q-98 0 -154 -65q-57 -63 -57 -178zM514 1165l145 279h224l-246 -279h-123z" />
<glyph unicode="&#xf4;" horiz-adv-x="1276" d="M74 502q0 111 43 209q40 99 121 176q79 76 182 117q98 38 217 38q118 0 217 -38q103 -41 182 -117q83 -75 123 -176q43 -98 43 -209t-43 -207q-45 -102 -123 -176q-88 -82 -182 -119q-98 -39 -217 -39q-120 0 -217 39q-99 39 -182.5 118.5t-120.5 176.5q-43 93 -43 207z M352 1106l160 278h248l164 -278h-138l-147 143l-150 -143h-137zM426 502q0 -112 55 -176q60 -66 156 -66t156 66q55 66 55 176q0 113 -57 178q-59 65 -154 65q-98 0 -154 -65q-57 -63 -57 -178z" />
<glyph unicode="&#xf5;" horiz-adv-x="1276" d="M74 502q0 111 43 209q40 99 121 176q79 76 182 117q98 38 217 38q118 0 217 -38q103 -41 182 -117q83 -75 123 -176q43 -98 43 -209t-43 -207q-45 -102 -123 -176q-88 -82 -182 -119q-98 -39 -217 -39q-120 0 -217 39q-99 39 -182.5 118.5t-120.5 176.5q-43 93 -43 207z M383 1145q21 101 61 147q40 49 105 49h26q17 0 41 -6l74 -20h21h24q27 0 41 14q17 17 23 47h94l-4 -4q-27 -106 -64 -147q-39 -49 -106 -49h-29h-24l-74 20q-34 10 -49 10q-24 0 -39 -12q-14 -14 -27 -49h-94zM426 502q0 -112 55 -176q60 -66 156 -66t156 66q55 66 55 176 q0 113 -57 178q-59 65 -154 65q-98 0 -154 -65q-57 -63 -57 -178z" />
<glyph unicode="&#xf6;" horiz-adv-x="1276" d="M74 502q0 111 43 209q40 99 121 176q79 76 182 117q98 38 217 38q118 0 217 -38q103 -41 182 -117q83 -75 123 -176q43 -98 43 -209t-43 -207q-45 -102 -123 -176q-88 -82 -182 -119q-98 -39 -217 -39q-120 0 -217 39q-99 39 -182.5 118.5t-120.5 176.5q-43 93 -43 207z M340 1257q0 52 37 89q37 34 90 34q52 0 87.5 -34.5t35.5 -88.5q0 -57 -33.5 -90.5t-89.5 -33.5q-57 0 -90 36q-37 34 -37 91v-3zM426 502q0 -112 55 -176q60 -66 156 -66t156 66q55 66 55 176q0 113 -57 178q-59 65 -154 65q-98 0 -154 -65q-57 -63 -57 -178zM690 1260 q0 51 37 88q36 34 88 34q53 0 90 -34q35 -35 35 -88q0 -56 -35 -91q-33 -36 -90 -36q-55 0 -90 35.5t-35 91.5z" />
<glyph unicode="&#xf7;" horiz-adv-x="1706" d="M254 496v231h1198v-231h-1198zM688 205q0 66 49 117q51 49 117 49q65 0 117 -47q47 -52 47 -119q0 -65 -47 -117q-47 -47 -117 -47t-117 47q-49 51 -49 117zM688 1016q0 66 49 117q51 49 117 49t117 -49q47 -52 47 -117t-47 -117q-50 -47 -119 -47q-70 0 -117 47 q-47 52 -47 117z" />
<glyph unicode="&#xf8;" horiz-adv-x="1276" d="M74 504q0 111 43 209q40 98 121 174q79 76 182 116.5t217 40.5q97 0 182 -26q84 -28 162 -84l133 137l86 -76l-131 -139q66 -72 98 -160q35 -93 35 -192q0 -114 -43 -207q-43 -100 -123 -176q-79 -76 -182 -117t-217 -41q-101 0 -188 29q-45 14 -80 32.5t-68 45.5 l-117 -117l-84 84l111 113q-68 80 -102 172q-35 87 -35 182zM416 500q0 -49 6 -76q3 -31 18 -51l336 344q-30 23 -61 33q-38 10 -80 10q-97 0 -160 -72q-59 -71 -59 -188zM502 293q26 -23 59 -35q37 -12 80 -12q100 0 162 71q59 73 59 189q0 32 -6 65q-2 25 -16 64z" />
<glyph unicode="&#xf9;" horiz-adv-x="1292" d="M123 494v516h340v-539q0 -127 43 -182q39 -58 135 -58q95 0 136.5 56t41.5 184v539h348v-516q0 -173 -26 -252q-28 -82 -94 -148q-63 -66 -166 -100q-98 -33 -236 -33q-137 0 -233 33q-99 32 -170 100q-65 62 -92 146q-27 78 -27 254zM350 1391h223l146 -279h-123z" />
<glyph unicode="&#xfa;" horiz-adv-x="1292" d="M123 494v516h340v-539q0 -127 43 -182q39 -58 135 -58q95 0 136.5 56t41.5 184v539h348v-516q0 -173 -26 -252q-28 -82 -94 -148q-63 -66 -166 -100q-98 -33 -236 -33q-137 0 -233 33q-99 32 -170 100q-65 62 -92 146q-27 78 -27 254zM584 1112l145 279h223l-245 -279 h-123z" />
<glyph unicode="&#xfb;" horiz-adv-x="1292" d="M123 494v516h340v-539q0 -127 43 -182q39 -58 135 -58q95 0 136.5 56t41.5 184v539h348v-516q0 -173 -26 -252q-28 -82 -94 -148q-63 -66 -166 -100q-98 -33 -236 -33q-137 0 -233 33q-99 32 -170 100q-65 62 -92 146q-27 78 -27 254zM358 1139l160 278h248l164 -278 h-137l-148 143l-149 -143h-138z" />
<glyph unicode="&#xfc;" horiz-adv-x="1292" d="M123 494v516h340v-539q0 -127 43 -182q39 -58 135 -58q95 0 136.5 56t41.5 184v539h348v-516q0 -173 -26 -252q-28 -82 -94 -148q-63 -66 -166 -100q-98 -33 -236 -33q-137 0 -233 33q-99 32 -170 100q-65 62 -92 146q-27 78 -27 254zM336 1249q0 52 37 87.5t90 35.5 t88 -35t35 -88q0 -55 -33 -90q-37 -35 -90 -35q-56 0 -90 37q-37 34 -37 90v-2zM686 1251q0 52 37 88q33 35 88 35q53 0 90 -35q35 -33 35 -88t-35 -90q-34 -37 -90 -37t-90 37q-35 35 -35 90z" />
<glyph unicode="&#xfd;" horiz-adv-x="1090" d="M-47 1010h395l141 -365q21 -50 29 -86q11 -37 19 -74q6 36 18 76q8 35 29 84l143 365h381l-635 -1456h-397l284 600zM475 1133l146 278h223l-246 -278h-123z" />
<glyph unicode="&#xfe;" horiz-adv-x="1090" d="M-47 1010h395l141 -365q21 -50 29 -86q11 -37 19 -74q6 36 18 76q8 35 29 84l143 365h381l-635 -1456h-397l284 600zM373 1110q21 100 61 147q41 50 105 50h26q19 0 41 -7l74 -20h20h25q27 0 41 14q16 18 22 47h95l-4 -4q-26 -104 -64 -147q-40 -49 -106 -49h-29h-25 l-73 20q-34 10 -50 10q-23 0 -38 -12.5t-27 -48.5h-94z" />
<glyph unicode="&#xff;" horiz-adv-x="1090" d="M-47 1010h395l141 -365q21 -50 29 -86q11 -37 19 -74q6 36 18 76q8 35 29 84l143 365h381l-635 -1456h-397l284 600zM246 1247q0 52 37 87.5t90 35.5t88 -35t35 -88q0 -55 -33 -90q-37 -35 -90 -35q-56 0 -90 37q-37 34 -37 90v-2zM596 1249q0 52 37 88q33 35 88 35 q52 0 90 -35q35 -33 35 -88t-35 -90q-35 -37 -90 -37q-56 0 -90 37q-35 35 -35 90z" />
<glyph unicode="&#x152;" horiz-adv-x="2224" d="M94 731q0 159 60 313q60 152 163 252q102 102 238 156q128 51 297 51q141 0 256 -53q112 -53 188 -154v168h861v-321h-508v-254h479v-314h-479v-247h508v-328h-861v199q-91 -124 -204 -181q-117 -57 -277 -57q-153 0 -270 51q-125 50 -226 154q-113 114 -167 256 q-58 140 -58 309zM481 731q0 -194 111 -317q110 -125 285 -125q176 0 286 123q109 121 109 319q0 199 -111 322t-284 123q-168 0 -283 -127q-113 -125 -113 -318z" />
<glyph unicode="&#x153;" horiz-adv-x="2009" d="M74 492q0 236 157 395q159 157 390 157q133 0 229 -38q99 -43 168 -123q62 83 156 123q89 38 219 38q255 0 399 -159q72 -79 108.5 -188t36.5 -251v-24h-766q5 -105 64 -164q62 -59 166 -59q79 0 135 30q57 30 84 93l268 -111q-52 -120 -172 -184q-126 -66 -303 -66 q-152 0 -244 39q-101 42 -157 121q-56 -79 -152 -121q-91 -39 -237 -39q-122 0 -218 37t-176 113q-155 149 -155 381zM426 502q0 -122 59 -193t162 -71q105 0 162 69t57 195q0 125 -57 194q-60 72 -162 72t-162 -72q-59 -71 -59 -194zM1178 623h409q-9 90 -65 143t-138 53 q-87 0 -139 -49t-67 -147z" />
<glyph unicode="&#x178;" horiz-adv-x="1223" d="M-96 1464h458l197 -377q3 -3 6 -12q31 -57 43 -112q9 48 43 108l8 16l195 377h459l-512 -796v-668h-385v668zM311 1710q0 51 37 88q38 35 90 35q55 0 88 -35q35 -33 35 -88q0 -58 -33 -90q-33 -35 -90 -35q-56 0 -90 37q-37 35 -37 90v-2zM662 1712q0 52 35.5 87.5 t88.5 35.5t91 -35q34 -34 34 -88t-34 -90.5t-91 -36.5q-56 0 -90 36.5t-34 90.5z" />
<glyph unicode="&#x2c6;" d="M190 1147l183 350h276l182 -350h-153l-166 180l-168 -180h-154z" />
<glyph unicode="&#x2dc;" d="M180 1188q29 131 80 188q53 62 135 62q9 0 37 -4q18 -3 53 -13l95 -26l26 -6.5t31 -2.5q34 0 55 21q24 23 33 61h119q-32 -133 -82 -188q-52 -61 -137 -61q-17 0 -41 4q-22 3 -35 6l-92 26h-2q-48 15 -66 15q-33 0 -53 -19q-23 -23 -37 -63h-119z" />
<glyph unicode="&#x2000;" horiz-adv-x="1054" />
<glyph unicode="&#x2001;" horiz-adv-x="2109" />
<glyph unicode="&#x2002;" horiz-adv-x="1054" />
<glyph unicode="&#x2003;" horiz-adv-x="2109" />
<glyph unicode="&#x2004;" horiz-adv-x="703" />
<glyph unicode="&#x2005;" horiz-adv-x="527" />
<glyph unicode="&#x2006;" horiz-adv-x="351" />
<glyph unicode="&#x2007;" horiz-adv-x="351" />
<glyph unicode="&#x2008;" horiz-adv-x="263" />
<glyph unicode="&#x2009;" horiz-adv-x="421" />
<glyph unicode="&#x200a;" horiz-adv-x="117" />
<glyph unicode="&#x2010;" horiz-adv-x="1706" d="M254 494v235h1198v-235h-1198z" />
<glyph unicode="&#x2011;" horiz-adv-x="1706" d="M254 494v235h1198v-235h-1198z" />
<glyph unicode="&#x2012;" horiz-adv-x="1706" d="M254 494v235h1198v-235h-1198z" />
<glyph unicode="&#x2013;" horiz-adv-x="2048" d="M0 367v272h2048v-272h-2048z" />
<glyph unicode="&#x2014;" d="M0 367v272h1024v-272h-1024z" />
<glyph unicode="&#x2018;" horiz-adv-x="639" d="M27 838l309 626h276l-211 -626h-374z" />
<glyph unicode="&#x2019;" horiz-adv-x="639" d="M27 838l213 626h372l-309 -626h-276z" />
<glyph unicode="&#x201a;" horiz-adv-x="639" d="M27 -295l213 627h372l-309 -627h-276z" />
<glyph unicode="&#x201c;" horiz-adv-x="1157" d="M27 838l309 626h276l-211 -626h-374zM545 838l309 626h276l-212 -626h-373z" />
<glyph unicode="&#x201d;" horiz-adv-x="1157" d="M27 838l213 626h372l-309 -626h-276zM545 838l211 626h374l-309 -626h-276z" />
<glyph unicode="&#x201e;" horiz-adv-x="1157" d="M27 -295l213 627h372l-309 -627h-276zM545 -295l211 627h374l-309 -627h-276z" />
<glyph unicode="&#x2022;" horiz-adv-x="1208" d="M307 762q0 121 86 209q91 86 211 86t209 -86q86 -88 86 -209t-88 -209q-85 -88 -209 -88q-122 0 -209 88q-86 86 -86 209z" />
<glyph unicode="&#x2026;" horiz-adv-x="2048" d="M141 164q0 85 58 143t143 58q88 0 145 -58q58 -58 58 -143q0 -86 -58.5 -144.5t-144.5 -58.5q-82 0 -143 59q-58 58 -58 144zM823 164q0 85 58 143t143 58q87 0 145 -58t58 -143q0 -86 -58 -144q-61 -59 -145 -59q-82 0 -143 59q-58 58 -58 144zM1507 164q0 85 58 143 t143 58q88 0 145 -58q58 -58 58 -143q0 -86 -58.5 -144.5t-144.5 -58.5q-82 0 -143 59q-58 58 -58 144z" />
<glyph unicode="&#x202f;" horiz-adv-x="421" />
<glyph unicode="&#x2039;" horiz-adv-x="639" d="M45 502l358 489l193 -139l-264 -350l264 -355l-193 -133z" />
<glyph unicode="&#x203a;" horiz-adv-x="639" d="M45 147l262 355l-262 350l191 139l360 -489l-360 -488z" />
<glyph unicode="&#x205f;" horiz-adv-x="527" />
<glyph unicode="&#x2122;" horiz-adv-x="1479" d="M-16 0l505 1464h500l506 -1464h-397l-74 262h-567l-76 -262h-397zM479 1782h109q3 -57 39 -80q37 -25 104 -25q66 0 105 25q36 24 36 80h105q-9 -127 -70 -185q-61 -57 -178 -57q-120 0 -180 59q-64 64 -70 183zM543 547h397l-149 483q-5 13 -19 72q-17 69 -31 125 q-14 -51 -24 -103q-16 -50 -27 -94z" />
<glyph unicode="&#x25fc;" horiz-adv-x="1010" d="M0 0v1010h1010v-1010h-1010z" />
<glyph unicode="&#xfb01;" horiz-adv-x="1346" d="M14 758v252h152v207q0 175 96 266q95 88 287 88q13 0 65 -4q56 -9 80 -15v-272q-18 7 -45 14q-28 4 -37 4q-52 0 -73 -30q-23 -32 -23 -97v-161h178v-252h-178v-758h-350v758h-152zM827 1325q0 80 60 137q58 58 139 58q83 0 139 -56q58 -55 58 -139q0 -83 -58 -141 q-29 -29 -64 -43.5t-75 -14.5q-79 0 -139 60t-60 139zM846 0v1010h358v-1010h-358z" />
</font>
</defs>
</svg>
